<?xml version="1.0" encoding="utf-8"?>
<!-- Generator: Adobe Illustrator 16.0.0, SVG Export Plug-In . SVG Version: 6.00 Build 0)  -->
<!DOCTYPE svg PUBLIC "-//W3C//DTD SVG 1.1//EN" "http://www.w3.org/Graphics/SVG/1.1/DTD/svg11.dtd">
<svg version="1.1" id="Layer_1" xmlns="http://www.w3.org/2000/svg" xmlns:xlink="http://www.w3.org/1999/xlink" x="0px" y="0px"
	 width="74.734px" height="98.682px" viewBox="0 0 74.734 98.682" enable-background="new 0 0 74.734 98.682" xml:space="preserve">
<g id="Star_-_Orange">
</g>
<g id="XMLID_2_">
	<g>
		<path fill="#EEDC12" d="M64.143,60.06l0.023,0.022l-26.799,34.86l-26.528-34.59l-1.666-2.185c-1.216-1.667-2.252-3.469-3.13-5.36
			c-2.05-4.413-3.198-9.345-3.198-14.547c0-19.074,15.448-34.522,34.522-34.522S71.89,19.187,71.89,38.261
			C71.89,46.548,68.984,54.114,64.143,60.06z"/>
	</g>
	<g>
		
			<path fill="none" stroke="#827D31" stroke-width="5.1024" stroke-linecap="round" stroke-linejoin="round" stroke-miterlimit="10" d="
			M10.839,60.353c-0.585-0.698-1.148-1.419-1.666-2.185c-1.216-1.667-2.252-3.469-3.13-5.36c-2.05-4.413-3.198-9.345-3.198-14.547
			c0-19.074,15.448-34.522,34.522-34.522S71.89,19.187,71.89,38.261c0,8.287-2.905,15.854-7.747,21.799
			c-0.314,0.405-0.652,0.788-0.99,1.171"/>
		
			<polyline fill="none" stroke="#827D31" stroke-width="5.1024" stroke-linecap="round" stroke-linejoin="round" stroke-miterlimit="10" points="
			64.661,59.429 64.166,60.082 37.367,94.942 10.839,60.353 9.173,58.168 		"/>
	</g>
</g>
</svg>
