<?xml version="1.0" encoding="utf-8"?>
<!-- Generator: Adobe Illustrator 16.0.0, SVG Export Plug-In . SVG Version: 6.00 Build 0)  -->
<!DOCTYPE svg PUBLIC "-//W3C//DTD SVG 1.1//EN" "http://www.w3.org/Graphics/SVG/1.1/DTD/svg11.dtd">
<svg version="1.1" id="Layer_1" xmlns="http://www.w3.org/2000/svg" xmlns:xlink="http://www.w3.org/1999/xlink" x="0px" y="0px"
	 width="129.156px" height="155.838px" viewBox="0 0 129.156 155.838" enable-background="new 0 0 129.156 155.838"
	 xml:space="preserve">
<g id="New_Symbol_4_2_">
	<g>
		<g>
			<g id="XMLID_6_">
				<g>
					<path fill="#39B66A" d="M42.605,43.047c-11.99,11.98-11.99,31.42,0,43.41c11.98,12,31.42,12,43.4,0
						c12.01-11.99,12.01-31.43,0-43.41C74.025,31.057,54.585,31.057,42.605,43.047z M20.895,20.897c24.09-24.1,63.18-24.1,87.26,0
						c24.11,24.1,24.11,63.17,0,87.28l-43.62,43.64l-43.64-43.64C-3.205,84.067-3.205,44.997,20.895,20.897z"/>
					<path fill="#FFFFFF" d="M86.005,43.047c12.01,11.98,12.01,31.42,0,43.41c-11.98,12-31.42,12-43.4,0
						c-11.99-11.99-11.99-31.43,0-43.41C54.585,31.057,74.025,31.057,86.005,43.047z"/>
				</g>
				<g>
					<path fill="none" stroke="#29844E" stroke-width="5.6693" stroke-miterlimit="10" d="M108.155,20.897
						c-24.08-24.1-63.17-24.1-87.26,0c-24.1,24.1-24.1,63.17,0,87.28l43.64,43.64l43.62-43.64
						C132.265,84.067,132.265,44.997,108.155,20.897z"/>
					<path fill="none" stroke="#29844E" stroke-width="5.6693" stroke-miterlimit="10" d="M86.005,86.457c-11.98,12-31.42,12-43.4,0
						c-11.99-11.99-11.99-31.43,0-43.41c11.98-11.99,31.42-11.99,43.4,0C98.015,55.027,98.015,74.467,86.005,86.457z"/>
				</g>
			</g>
		</g>
	</g>
</g>
<g id="New_Symbol_4_1_">
</g>
<g id="New_Symbol_5_1_">
</g>
<g id="New_Symbol_6_1_">
</g>
<g id="New_Symbol_7_1_">
</g>
<g id="New_Symbol_4">
</g>
<g id="New_Symbol_5">
</g>
<g id="New_Symbol_6">
</g>
<g id="New_Symbol_7">
</g>
</svg>
