<?xml version="1.0" encoding="utf-8"?>
<!-- Generator: Adobe Illustrator 16.0.0, SVG Export Plug-In . SVG Version: 6.00 Build 0)  -->
<!DOCTYPE svg PUBLIC "-//W3C//DTD SVG 1.1//EN" "http://www.w3.org/Graphics/SVG/1.1/DTD/svg11.dtd">
<svg version="1.1" id="Layer_1" xmlns="http://www.w3.org/2000/svg" xmlns:xlink="http://www.w3.org/1999/xlink" x="0px" y="0px"
	 width="199.333px" height="106.75px" viewBox="0 0 199.333 106.75" enable-background="new 0 0 199.333 106.75"
	 xml:space="preserve">
<g opacity="0.2">
	<path fill="#515151" d="M103.678,71.216c0-4.795-3.882-8.668-8.667-8.668c-4.791,0-8.669,3.873-8.669,8.668
		c0,4.775,3.878,8.661,8.669,8.661C99.796,79.877,103.678,75.991,103.678,71.216z"/>
	
		<path fill="none" stroke="#515151" stroke-width="4.252" stroke-linecap="round" stroke-linejoin="round" stroke-miterlimit="10" d="
		M75.279,72.974c-5.766,19.586-26.3,30.793-45.881,25.025C9.815,92.236-1.376,71.696,4.382,52.112
		c5.763-19.582,26.3-30.78,45.889-25.02C69.849,32.859,81.048,53.394,75.279,72.974z"/>
	
		<path fill="none" stroke="#515151" stroke-width="4.252" stroke-linecap="round" stroke-linejoin="round" stroke-miterlimit="10" d="
		M195.566,63.105c0,20.407-16.542,36.954-36.958,36.954c-20.407,0-36.95-16.547-36.95-36.954c0-20.411,16.543-36.959,36.95-36.959
		C179.024,26.146,195.566,42.694,195.566,63.105z"/>
	
		<line fill="none" stroke="#515151" stroke-width="4.252" stroke-linecap="round" stroke-linejoin="round" stroke-miterlimit="10" x1="132.268" y1="15.435" x2="70.273" y2="15.435"/>
	
		<line fill="none" stroke="#515151" stroke-width="4.252" stroke-linecap="round" stroke-linejoin="round" stroke-miterlimit="10" x1="70.273" y1="15.435" x2="65.943" y2="4.067"/>
	
		<line fill="none" stroke="#515151" stroke-width="4.252" stroke-linecap="round" stroke-linejoin="round" stroke-miterlimit="10" x1="126.603" y1="2.399" x2="156.747" y2="63.25"/>
	
		<line fill="none" stroke="#515151" stroke-width="4.252" stroke-linecap="round" stroke-linejoin="round" stroke-miterlimit="10" x1="126.603" y1="2.399" x2="142.75" y2="2.399"/>
	
		<polyline fill="none" stroke="#515151" stroke-width="4.252" stroke-linecap="round" stroke-linejoin="round" stroke-miterlimit="10" points="
		135.438,20.238 95.011,72.212 70.273,15.435 39.833,63.105 95.011,72.212 	"/>
	
		<polygon fill="none" stroke="#515151" stroke-width="4.252" stroke-linecap="round" stroke-linejoin="round" stroke-miterlimit="10" points="
		59.149,3.488 81.391,3.488 67.688,8.604 	"/>
</g>
<polygon fill="#FFFFFF" stroke="#47B970" stroke-width="7.0866" stroke-linecap="round" stroke-linejoin="round" stroke-miterlimit="10" stroke-dasharray="85.0394,14.1732" points="
	124.928,100.81 195.118,100.81 195.118,44.704 "/>
<line fill="#FFFFFF" stroke="#47B970" stroke-width="7.0866" stroke-linecap="round" stroke-linejoin="round" stroke-miterlimit="10" x1="124.928" y1="100.81" x2="4.666" y2="100.81"/>
</svg>
