<?xml version="1.0" encoding="utf-8"?>
<!-- Generator: Adobe Illustrator 16.0.0, SVG Export Plug-In . SVG Version: 6.00 Build 0)  -->
<!DOCTYPE svg PUBLIC "-//W3C//DTD SVG 1.1//EN" "http://www.w3.org/Graphics/SVG/1.1/DTD/svg11.dtd">
<svg version="1.1" id="Layer_1" xmlns="http://www.w3.org/2000/svg" xmlns:xlink="http://www.w3.org/1999/xlink" x="0px" y="0px"
	 width="265.31px" height="265.309px" viewBox="0 0 265.31 265.309" enable-background="new 0 0 265.31 265.309"
	 xml:space="preserve">
<g>
	<g>
		<path fill="#47B970" d="M-182.744,956.131c0,74.964-60.771,135.734-135.734,135.734c-56.039,0-104.148-33.961-124.873-82.438
			c-6.994-16.358-10.864-34.377-10.864-53.296c0-74.969,60.771-135.739,135.737-135.739
			C-243.514,820.392-182.744,881.162-182.744,956.131z"/>
	</g>
</g>
<g>
	<g>
		<path fill="#47B970" d="M726.965,548.199c0,74.581-60.459,135.042-135.04,135.042c-55.753,0-103.619-33.789-124.235-82.018
			c-6.958-16.275-10.81-34.202-10.81-53.024c0-74.587,60.46-135.047,135.045-135.047
			C666.506,413.152,726.965,473.612,726.965,548.199z"/>
	</g>
</g>
<text transform="matrix(1 0 0 1 540.6455 641.5625)" fill="#FFFFFF" font-family="'Roboto-Bold'" font-size="240.2491">f</text>
<text transform="matrix(1 0 0 1 -404.9058 1001.2637)" fill="#FFFFFF" font-family="'Roboto-Bold'" font-size="192.6905">@</text>
<text transform="matrix(1 0 0 1 56.8203 1053.6855)" fill="#A6D0B2" font-family="'OpenSans-Semibold'" font-size="51.0236">de boa</text>
<path fill="#47B970" d="M272.516,961.114c0,74.37-60.285,134.661-134.656,134.661c-55.594,0-103.324-33.693-123.881-81.787
	C7.039,997.76,3.199,979.885,3.199,961.114c0-74.373,60.287-134.662,134.66-134.662C212.23,826.452,272.516,886.741,272.516,961.114
	z"/>
<g>
	<g>
		<path fill="#FFFFFF" d="M140.814,972.688c0-4.588-3.721-8.307-8.311-8.307c-4.588,0-8.311,3.719-8.311,8.307
			c0,4.591,3.723,8.312,8.311,8.312C137.094,981,140.814,977.279,140.814,972.688z"/>
		
			<path fill="none" stroke="#FFFFFF" stroke-width="4.8189" stroke-linecap="round" stroke-linejoin="round" stroke-miterlimit="10" stroke-dasharray="56.6929,7.0866" d="
			M68.902,998.17c-18.66-5.91-29.004-25.819-23.092-44.479c5.898-18.662,25.816-28.994,44.473-23.094
			c18.658,5.906,29,25.818,23.092,44.481C107.469,993.736,87.561,1004.076,68.902,998.17z"/>
		
			<path fill="none" stroke="#FFFFFF" stroke-width="4.8189" stroke-linecap="round" stroke-linejoin="round" stroke-miterlimit="10" stroke-dasharray="56.6929,7.0866" d="
			M214.992,993.08c-15.555,11.875-37.793,8.893-49.67-6.666c-11.875-15.558-8.889-37.794,6.668-49.669s37.791-8.893,49.666,6.664
			C233.533,958.97,230.547,981.205,214.992,993.08z"/>
		
			<line fill="none" stroke="#FFFFFF" stroke-width="4.8189" stroke-linecap="round" stroke-linejoin="round" stroke-miterlimit="10" x1="168.234" y1="919.208" x2="108.779" y2="919.208"/>
		
			<line fill="none" stroke="#FFFFFF" stroke-width="4.8189" stroke-linecap="round" stroke-linejoin="round" stroke-miterlimit="10" x1="108.779" y1="919.208" x2="104.627" y2="908.304"/>
		
			<line fill="none" stroke="#FFFFFF" stroke-width="4.8189" stroke-linecap="round" stroke-linejoin="round" stroke-miterlimit="10" x1="162.797" y1="906.709" x2="191.705" y2="965.06"/>
		
			<line fill="none" stroke="#FFFFFF" stroke-width="4.8189" stroke-linecap="round" stroke-linejoin="round" stroke-miterlimit="10" x1="162.797" y1="906.709" x2="178.281" y2="906.709"/>
		
			<polyline fill="none" stroke="#FFFFFF" stroke-width="4.8189" stroke-linecap="round" stroke-linejoin="round" stroke-miterlimit="10" points="
			170.184,921.612 132.504,973.646 108.779,919.208 79.588,964.913 132.504,973.646 		"/>
		
			<polygon fill="none" stroke="#FFFFFF" stroke-width="4.8189" stroke-linecap="round" stroke-linejoin="round" stroke-miterlimit="10" points="
			98.111,907.754 119.447,907.754 106.303,912.657 		"/>
	</g>
</g>
<g>
	<defs>
		<line id="SVGID_1_" x1="10.113" y1="1002.227" x2="265.037" y2="1002.227"/>
	</defs>
	<clipPath id="SVGID_2_">
		<use xlink:href="#SVGID_1_"  overflow="visible"/>
	</clipPath>
	
		<path clip-path="url(#SVGID_2_)" fill="none" stroke="#FFFFFF" stroke-width="4.8189" stroke-linecap="round" stroke-linejoin="round" stroke-miterlimit="10" d="
		M266.213,961.989c0,74.366-57.705,134.657-128.889,134.657c-53.213,0-98.9-33.693-118.574-81.787
		c-6.643-16.229-10.318-34.104-10.318-52.87c0-74.375,57.705-134.662,128.893-134.662
		C208.508,827.327,266.213,887.614,266.213,961.989z"/>
	
		<use xlink:href="#SVGID_1_"  overflow="visible" fill="none" stroke="#FFFFFF" stroke-width="4.8189" stroke-linecap="round" stroke-linejoin="round" stroke-miterlimit="10"/>
</g>
<g>
	<text transform="matrix(1 0 0 1 64.4258 1053.6855)"><tspan x="0" y="0" fill="#B7D8BF" font-family="'Raleway-Thin'" font-size="51.0236">de</tspan><tspan x="60.207" y="0" fill="#B7D8BF" font-family="'Raleway-Medium'" font-size="51.0236">boa</tspan></text>
</g>
<g>
	<text transform="matrix(1 0 0 1 93.4258 885.8828)" fill="#B7D8BF" font-family="'Raleway-Thin'" font-size="51.0236">bike</text>
</g>
<g>
	<rect x="-433.572" y="15.667" fill="#47B970" width="223.438" height="233.975"/>
	<g>
		<circle fill="#FFFFFF" cx="-326.876" cy="136.845" r="8.738"/>
		
			<path fill="none" stroke="#FFFFFF" stroke-width="5.6693" stroke-linecap="round" stroke-linejoin="round" stroke-miterlimit="10" stroke-dasharray="113.3858,9.9213" d="
			M-351.848,113.515c12.128,16.68,8.439,40.033-8.242,52.162c-16.678,12.125-40.031,8.432-52.159-8.248
			c-12.125-16.678-8.436-40.029,8.243-52.156C-387.326,93.144-363.974,96.835-351.848,113.515z"/>
		
			<circle fill="none" stroke="#FFFFFF" stroke-width="5.6693" stroke-linecap="round" stroke-linejoin="round" stroke-miterlimit="10" stroke-dasharray="113.3858,9.9213" cx="-264.632" cy="135.475" r="37.34"/>
		
			<line fill="none" stroke="#FFFFFF" stroke-width="5.6693" stroke-linecap="round" stroke-linejoin="round" stroke-miterlimit="10" x1="-289.31" y1="87.977" x2="-351.82" y2="87.977"/>
		
			<path fill="none" stroke="#FFFFFF" stroke-width="5.6693" stroke-linecap="round" stroke-linejoin="round" stroke-miterlimit="10" d="
			M-356.186,76.511"/>
		
			<path fill="none" stroke="#FFFFFF" stroke-width="5.6693" stroke-linecap="round" stroke-linejoin="round" stroke-miterlimit="10" d="
			M-351.82,87.977"/>
		
			<line fill="none" stroke="#FFFFFF" stroke-width="5.6693" stroke-linecap="round" stroke-linejoin="round" stroke-miterlimit="10" x1="-295.022" y1="74.833" x2="-264.633" y2="136.188"/>
		
			<line fill="none" stroke="#FFFFFF" stroke-width="5.6693" stroke-linecap="round" stroke-linejoin="round" stroke-miterlimit="10" x1="-295.022" y1="74.833" x2="-278.742" y2="74.833"/>
		
			<polyline fill="none" stroke="#FFFFFF" stroke-width="5.6693" stroke-linecap="round" stroke-linejoin="round" stroke-miterlimit="10" points="
			-287.885,89.242 -326.876,136.188 -351.82,87.977 -382.046,136.188 -326.876,136.188 		"/>
		<polygon stroke="#FFFFFF" stroke-width="5.6693" stroke-linecap="round" stroke-linejoin="round" stroke-miterlimit="10" points="
			-364.349,75.933 -341.916,75.933 -355.74,81.087 		"/>
		
			<path fill="none" stroke="#FFFFFF" stroke-width="5.6693" stroke-linecap="round" stroke-linejoin="round" stroke-miterlimit="10" d="
			M-382.046,136.188"/>
		
			<line fill="none" stroke="#FFFFFF" stroke-width="5.6693" stroke-linecap="round" stroke-linejoin="round" stroke-miterlimit="10" x1="-326.876" y1="136.188" x2="-356.186" y2="79.27"/>
	</g>
</g>
<g>
	<circle fill="#EFEFEF" cx="132.655" cy="132.654" r="132.655"/>
	
		<line fill="none" stroke="#515151" stroke-width="4.252" stroke-linecap="round" stroke-linejoin="round" stroke-miterlimit="10" x1="39.307" y1="173.323" x2="226.003" y2="173.323"/>
	<g>
		<circle fill="#515151" cx="129.119" cy="137.315" r="8.738"/>
		<path fill="#EAEAEA" d="M104.146,113.985c12.128,16.68,8.439,40.033-8.242,52.162c-16.678,12.125-40.031,8.432-52.158-8.248
			c-12.127-16.678-8.436-40.029,8.242-52.156C68.669,93.614,92.021,97.306,104.146,113.985z"/>
		<path fill="#EAEAEA" d="M170.369,166.824c-17.055-11.595-21.482-34.82-9.887-51.875c11.595-17.053,34.819-21.477,51.874-9.883
			c17.052,11.595,21.479,34.818,9.886,51.871C210.646,173.993,187.423,178.418,170.369,166.824z"/>
		
			<line fill="none" stroke="#515151" stroke-width="4.252" stroke-linecap="round" stroke-linejoin="round" stroke-miterlimit="10" x1="166.686" y1="88.447" x2="104.176" y2="88.447"/>
		
			<path fill="none" stroke="#515151" stroke-width="4.252" stroke-linecap="round" stroke-linejoin="round" stroke-miterlimit="10" d="
			M99.809,76.981"/>
		
			<path fill="none" stroke="#515151" stroke-width="4.252" stroke-linecap="round" stroke-linejoin="round" stroke-miterlimit="10" d="
			M104.176,88.447"/>
		
			<line fill="none" stroke="#515151" stroke-width="4.252" stroke-linecap="round" stroke-linejoin="round" stroke-miterlimit="10" x1="160.973" y1="75.304" x2="191.361" y2="136.659"/>
		
			<line fill="none" stroke="#515151" stroke-width="4.252" stroke-linecap="round" stroke-linejoin="round" stroke-miterlimit="10" x1="160.973" y1="75.304" x2="177.254" y2="75.304"/>
		
			<polyline fill="none" stroke="#515151" stroke-width="4.252" stroke-linecap="round" stroke-linejoin="round" stroke-miterlimit="10" points="
			168.109,89.713 129.118,136.659 104.176,88.447 73.947,136.659 129.118,136.659 		"/>
		
			<polygon fill="none" stroke="#515151" stroke-width="4.252" stroke-linecap="round" stroke-linejoin="round" stroke-miterlimit="10" points="
			91.645,76.403 114.08,76.403 100.254,81.558 		"/>
		
			<path fill="none" stroke="#515151" stroke-width="4.252" stroke-linecap="round" stroke-linejoin="round" stroke-miterlimit="10" d="
			M73.947,136.659"/>
		
			<line fill="none" stroke="#515151" stroke-width="4.252" stroke-linecap="round" stroke-linejoin="round" stroke-miterlimit="10" x1="129.118" y1="136.659" x2="99.809" y2="79.74"/>
	</g>
</g>
<g>
	<circle fill="#CF4D4E" cx="587.162" cy="132.655" r="132.654"/>
	<g>
		<g>
			<g>
				<g>
					<path fill="#FFFFFF" d="M499.208,161.209c1.261,1.608,1.313,1.773,1.694,3.073c0.656,2.235-0.642,2.943-2.023,4.119
						c-1.592,1.385-2.767,3.112,0,4.08c1.938,0.692,4.702,0.277,6.709,0.417c2.352,0.138,4.771,0.206,7.123,0.206
						c1.176,0,5.742,0.346,4.219-2.143c-0.415-0.762-1.729-1.315-2.421-1.8c-1.383-0.898-2.56-1.591-4.219-2.005
						c-1.59-0.416-3.112-0.969-4.495-1.867c-1.037-0.693-1.866-1.799-3.042-2.214c-0.417-0.207-0.969-0.139-1.316-0.277
						c-0.415-0.207-1.497-0.897-1.912-1.175"/>
				</g>
				<g>
					<path fill="#FFFFFF" d="M556.852,161.235c-1.264,1.607-1.314,1.773-1.695,3.072c-0.656,2.236,0.639,2.945,2.021,4.12
						c1.593,1.383,2.768,3.111,0,4.081c-1.936,0.691-4.703,0.276-6.708,0.414c-2.352,0.139-4.772,0.208-7.123,0.208
						c-1.178,0-5.74,0.346-4.219-2.145c0.414-0.76,1.727-1.314,2.42-1.798c1.382-0.899,2.559-1.591,4.219-2.005
						c1.591-0.416,3.111-0.969,4.497-1.867c1.035-0.691,1.867-1.8,3.043-2.214c0.413-0.208,0.967-0.14,1.313-0.277
						c0.416-0.207,1.498-0.898,1.913-1.174"/>
				</g>
			</g>
		</g>
	</g>
	<g>
		<g>
			<g>
				<g>
					<path fill="#FFFFFF" d="M616.605,161.209c1.261,1.608,1.313,1.773,1.694,3.073c0.655,2.235-0.642,2.943-2.023,4.119
						c-1.591,1.385-2.767,3.112,0,4.08c1.937,0.692,4.702,0.277,6.708,0.417c2.354,0.138,4.772,0.206,7.123,0.206
						c1.176,0,5.742,0.346,4.221-2.143c-0.416-0.762-1.73-1.315-2.422-1.8c-1.383-0.898-2.56-1.591-4.219-2.005
						c-1.59-0.416-3.112-0.969-4.495-1.867c-1.037-0.693-1.866-1.799-3.042-2.214c-0.417-0.207-0.969-0.139-1.316-0.277
						c-0.414-0.207-1.498-0.897-1.912-1.175"/>
				</g>
				<g>
					<path fill="#FFFFFF" d="M674.248,161.235c-1.263,1.607-1.313,1.773-1.694,3.072c-0.656,2.236,0.639,2.945,2.021,4.12
						c1.593,1.383,2.769,3.111,0,4.081c-1.936,0.691-4.702,0.276-6.708,0.414c-2.352,0.139-4.773,0.208-7.123,0.208
						c-1.178,0-5.74,0.346-4.219-2.145c0.414-0.76,1.727-1.314,2.42-1.798c1.382-0.899,2.559-1.591,4.219-2.005
						c1.591-0.416,3.111-0.969,4.496-1.867c1.037-0.691,1.867-1.8,3.043-2.214c0.414-0.208,0.968-0.14,1.313-0.277
						c0.415-0.207,1.498-0.898,1.913-1.174"/>
				</g>
			</g>
		</g>
	</g>
	<text transform="matrix(1 0 0 1 548.1172 218.355)" fill="#FFFFFF" font-family="'Raleway-Light'" font-size="36">Ops!</text>
	<g>
		<circle fill="#FFFFFF" cx="583.184" cy="135.844" r="8.738"/>
		
			<path fill="none" stroke="#FFFFFF" stroke-width="4.252" stroke-linecap="round" stroke-linejoin="round" stroke-miterlimit="10" d="
			M536.476,98.106c20.087,4.676,32.58,24.749,27.903,44.836c-4.677,20.083-24.752,32.573-44.838,27.895
			c-20.083-4.674-32.573-24.747-27.897-44.831C496.32,105.919,516.393,93.429,536.476,98.106z"/>
		
			<path fill="none" stroke="#FFFFFF" stroke-width="4.252" stroke-linecap="round" stroke-linejoin="round" stroke-miterlimit="10" d="
			M636.726,170.784c-20.055-4.806-32.418-24.959-27.612-45.015c4.807-20.053,24.961-32.413,45.016-27.607
			c20.053,4.806,32.414,24.959,27.609,45.011C676.933,163.229,656.779,175.59,636.726,170.784z"/>
		
			<line fill="none" stroke="#FFFFFF" stroke-width="4.252" stroke-linecap="round" stroke-linejoin="round" stroke-miterlimit="10" x1="620.749" y1="86.976" x2="558.24" y2="86.976"/>
		
			<path fill="none" stroke="#FFFFFF" stroke-width="4.252" stroke-linecap="round" stroke-linejoin="round" stroke-miterlimit="10" d="
			M553.873,75.51"/>
		
			<path fill="none" stroke="#FFFFFF" stroke-width="4.252" stroke-linecap="round" stroke-linejoin="round" stroke-miterlimit="10" d="
			M558.24,86.976"/>
		
			<line fill="none" stroke="#FFFFFF" stroke-width="4.252" stroke-linecap="round" stroke-linejoin="round" stroke-miterlimit="10" x1="615.037" y1="73.832" x2="645.426" y2="135.188"/>
		
			<line fill="none" stroke="#FFFFFF" stroke-width="4.252" stroke-linecap="round" stroke-linejoin="round" stroke-miterlimit="10" x1="615.037" y1="73.832" x2="631.318" y2="73.832"/>
		
			<polyline fill="none" stroke="#FFFFFF" stroke-width="4.252" stroke-linecap="round" stroke-linejoin="round" stroke-miterlimit="10" points="
			622.174,88.241 583.184,135.188 558.24,86.976 528.012,135.188 583.184,135.188 		"/>
		
			<polygon fill="none" stroke="#FFFFFF" stroke-width="4.252" stroke-linecap="round" stroke-linejoin="round" stroke-miterlimit="10" points="
			545.709,74.932 568.145,74.932 554.318,80.086 		"/>
		
			<path fill="none" stroke="#FFFFFF" stroke-width="4.252" stroke-linecap="round" stroke-linejoin="round" stroke-miterlimit="10" d="
			M528.012,135.188"/>
		
			<line fill="none" stroke="#FFFFFF" stroke-width="4.252" stroke-linecap="round" stroke-linejoin="round" stroke-miterlimit="10" x1="583.184" y1="135.188" x2="553.873" y2="78.269"/>
	</g>
	<rect x="491.887" y="172.146" fill="#CF4D4E" width="190.551" height="13.416"/>
</g>
<g>
	<g>
		<g>
			<path fill="#47B970" d="M-212.758,497.396c0,61.163-49.582,110.747-110.746,110.747c-45.721,0-84.976-27.71-101.882-67.263
				c-5.708-13.347-8.866-28.048-8.866-43.484c0-61.167,49.583-110.749,110.748-110.749
				C-262.34,386.647-212.758,436.229-212.758,497.396z"/>
			<polyline fill="#47B970" points="-323.504,666.429 -243.523,574.161 -404.707,572.656 			"/>
		</g>
	</g>
	<g>
		<path fill="#FFFFFF" d="M-318.479,500.972c0-4.225-3.423-7.647-7.647-7.647c-4.225,0-7.651,3.423-7.651,7.647
			c0,4.221,3.426,7.651,7.651,7.651C-321.903,508.623-318.479,505.192-318.479,500.972z"/>
		
			<path fill="none" stroke="#FFFFFF" stroke-width="4.252" stroke-linecap="round" stroke-linejoin="round" stroke-miterlimit="10" stroke-dasharray="42.5197,7.0866" d="
			M-406.583,493.963c3.208-17.766,20.213-29.563,37.979-26.357c17.759,3.216,29.555,20.223,26.342,37.986
			c-3.207,17.76-20.209,29.557-37.97,26.345C-397.998,528.729-409.796,511.728-406.583,493.963z"/>
		
			<path fill="none" stroke="#FFFFFF" stroke-width="4.252" stroke-linecap="round" stroke-linejoin="round" stroke-miterlimit="10" stroke-dasharray="42.5197,7.0866" d="
			M-258.819,529.832c-16.604,7.086-35.812-0.632-42.891-17.237c-7.084-16.604,0.633-35.804,17.239-42.889
			c16.603-7.082,35.805,0.633,42.887,17.238C-234.498,503.544-242.217,522.748-258.819,529.832z"/>
		
			<line fill="none" stroke="#FFFFFF" stroke-width="4.252" stroke-linecap="round" stroke-linejoin="round" stroke-miterlimit="10" x1="-293.243" y1="458.195" x2="-347.961" y2="458.195"/>
		
			<path fill="none" stroke="#FFFFFF" stroke-width="4.252" stroke-linecap="round" stroke-linejoin="round" stroke-miterlimit="10" d="
			M-351.785,448.159"/>
		
			<path fill="none" stroke="#FFFFFF" stroke-width="4.252" stroke-linecap="round" stroke-linejoin="round" stroke-miterlimit="10" d="
			M-347.961,458.195"/>
		
			<line fill="none" stroke="#FFFFFF" stroke-width="4.252" stroke-linecap="round" stroke-linejoin="round" stroke-miterlimit="10" x1="-298.245" y1="446.689" x2="-271.644" y2="500.397"/>
		
			<line fill="none" stroke="#FFFFFF" stroke-width="4.252" stroke-linecap="round" stroke-linejoin="round" stroke-miterlimit="10" x1="-298.245" y1="446.689" x2="-283.994" y2="446.689"/>
		
			<polyline fill="none" stroke="#FFFFFF" stroke-width="4.252" stroke-linecap="round" stroke-linejoin="round" stroke-miterlimit="10" points="
			-291.998,459.305 -326.128,500.397 -347.961,458.195 -374.421,500.397 -326.128,500.397 		"/>
		
			<polygon fill="none" stroke="#FFFFFF" stroke-width="4.252" stroke-linecap="round" stroke-linejoin="round" stroke-miterlimit="10" points="
			-358.93,447.651 -339.291,447.651 -351.394,452.164 		"/>
		
			<path fill="none" stroke="#FFFFFF" stroke-width="4.252" stroke-linecap="round" stroke-linejoin="round" stroke-miterlimit="10" d="
			M-374.421,500.397"/>
		
			<line fill="none" stroke="#FFFFFF" stroke-width="4.252" stroke-linecap="round" stroke-linejoin="round" stroke-miterlimit="10" x1="-326.128" y1="500.397" x2="-351.785" y2="450.573"/>
	</g>
</g>
<g>
	<g>
		<g>
			<path fill="#47B970" d="M259.395,545.84c0,74.133-60.096,134.229-134.228,134.229c-55.416,0-102.994-33.585-123.484-81.524
				c-6.918-16.177-10.746-33.994-10.746-52.705c0-74.135,60.095-134.23,134.23-134.23
				C199.299,411.609,259.395,471.705,259.395,545.84z"/>
		</g>
	</g>
	<g>
		<g>
			
				<polygon fill="none" stroke="#FFFFFF" stroke-width="5.6693" stroke-linecap="round" stroke-linejoin="round" stroke-miterlimit="10" stroke-dasharray="204.0945,14.1732" points="
				50.23,503.793 117.914,503.445 117.731,484.414 158.334,484.414 158.149,503.1 196.027,503.1 196.027,590.559 50.23,590.559 			
				"/>
			
				<path fill="none" stroke="#FFFFFF" stroke-width="5.6693" stroke-linecap="round" stroke-linejoin="round" stroke-miterlimit="10" stroke-dasharray="198.4252,14.1732" d="
				M168.048,545.97c0,15.901-12.89,28.792-28.79,28.792c-15.896,0-28.787-12.891-28.787-28.792
				c0-15.899,12.891-28.788,28.787-28.788C155.158,517.182,168.048,530.07,168.048,545.97z"/>
			
				<path fill="none" stroke="#FFFFFF" stroke-width="5.6693" stroke-linecap="round" stroke-linejoin="round" stroke-miterlimit="10" stroke-dasharray="198.4252,14.1732" d="
				M156.815,545.97c0,9.698-7.86,17.56-17.558,17.56c-9.691,0-17.555-7.861-17.555-17.56c0-9.694,7.863-17.555,17.555-17.555
				C148.955,528.415,156.815,536.275,156.815,545.97z"/>
			
				<line fill="none" stroke="#FFFFFF" stroke-width="5.6693" stroke-linecap="round" stroke-linejoin="round" stroke-miterlimit="10" stroke-dasharray="198.4252,14.1732" x1="81.146" y1="518.066" x2="81.146" y2="578.327"/>
			
				<circle fill="#FFFFFF" stroke="#FFFFFF" stroke-width="5.6693" stroke-linecap="round" stroke-linejoin="round" stroke-miterlimit="10" stroke-dasharray="198.4252,14.1732" cx="97.948" cy="517.68" r="4.033"/>
		</g>
	</g>
</g>
<g opacity="0.2">
	
		<path fill="none" stroke="#515151" stroke-width="4.252" stroke-linecap="round" stroke-linejoin="round" stroke-miterlimit="10" d="
		M-308.779,1816.312c0-4.795-3.875-8.668-8.659-8.668c-4.791,0-8.663,3.873-8.663,8.668c0,4.775,3.872,8.661,8.663,8.661
		C-312.654,1824.973-308.779,1821.087-308.779,1816.312z"/>
	
		<path fill="none" stroke="#515151" stroke-width="4.252" stroke-linecap="round" stroke-linejoin="round" stroke-miterlimit="10" d="
		M-337.178,1818.069c-5.758,19.586-26.3,30.793-45.881,25.025c-19.575-5.763-30.782-26.303-25.023-45.887
		c5.772-19.582,26.313-30.78,45.9-25.02C-342.613,1777.955-331.406,1798.489-337.178,1818.069z"/>
	
		<path fill="none" stroke="#515151" stroke-width="4.252" stroke-linecap="round" stroke-linejoin="round" stroke-miterlimit="10" d="
		M-216.898,1808.201c0,20.407-16.532,36.954-36.941,36.954c-20.416,0-36.963-16.547-36.963-36.954
		c0-20.411,16.547-36.959,36.963-36.959C-233.431,1771.242-216.898,1787.79-216.898,1808.201z"/>
	
		<line fill="none" stroke="#515151" stroke-width="4.252" stroke-linecap="round" stroke-linejoin="round" stroke-miterlimit="10" x1="-280.185" y1="1760.53" x2="-342.184" y2="1760.53"/>
	
		<line fill="none" stroke="#515151" stroke-width="4.252" stroke-linecap="round" stroke-linejoin="round" stroke-miterlimit="10" x1="-342.184" y1="1760.53" x2="-346.512" y2="1749.163"/>
	
		<line fill="none" stroke="#515151" stroke-width="4.252" stroke-linecap="round" stroke-linejoin="round" stroke-miterlimit="10" x1="-285.852" y1="1747.495" x2="-255.718" y2="1808.346"/>
	
		<line fill="none" stroke="#515151" stroke-width="4.252" stroke-linecap="round" stroke-linejoin="round" stroke-miterlimit="10" x1="-285.852" y1="1747.495" x2="-269.697" y2="1747.495"/>
	
		<polyline fill="none" stroke="#515151" stroke-width="4.252" stroke-linecap="round" stroke-linejoin="round" stroke-miterlimit="10" points="
		-277.012,1765.334 -317.443,1817.308 -342.184,1760.53 -372.623,1808.201 -317.443,1817.308 	"/>
	
		<polygon fill="none" stroke="#515151" stroke-width="4.252" stroke-linecap="round" stroke-linejoin="round" stroke-miterlimit="10" points="
		-353.31,1748.584 -331.059,1748.584 -344.768,1753.7 	"/>
</g>
<g>
	<rect x="-317.899" y="1718.582" fill="#FFFFFF" width="15.612" height="127.323"/>
	
		<line fill="#FFFFFF" stroke="#47B970" stroke-width="7.0866" stroke-linecap="round" stroke-linejoin="round" stroke-miterlimit="10" stroke-dasharray="85.0394,14.1732" x1="-317.895" y1="1845.905" x2="-317.895" y2="1718.582"/>
	
		<line fill="#FFFFFF" stroke="#47B970" stroke-width="7.0866" stroke-linecap="round" stroke-linejoin="round" stroke-miterlimit="10" stroke-dasharray="85.0394,14.1732" x1="-302.287" y1="1718.582" x2="-302.287" y2="1845.905"/>
</g>
<g opacity="0.2">
	
		<path fill="none" stroke="#515151" stroke-width="4.252" stroke-linecap="round" stroke-linejoin="round" stroke-miterlimit="10" d="
		M574.84,1816.312c0-4.795-3.888-8.668-8.674-8.668c-4.783,0-8.666,3.873-8.666,8.668c0,4.775,3.883,8.661,8.666,8.661
		C570.952,1824.973,574.84,1821.087,574.84,1816.312z"/>
	
		<path fill="none" stroke="#515151" stroke-width="4.252" stroke-linecap="round" stroke-linejoin="round" stroke-miterlimit="10" d="
		M546.436,1818.069c-5.766,19.586-26.296,30.793-45.885,25.025c-19.572-5.763-30.779-26.303-25.014-45.887
		c5.755-19.582,26.306-30.78,45.886-25.02C540.999,1777.955,552.197,1798.489,546.436,1818.069z"/>
	
		<path fill="none" stroke="#515151" stroke-width="4.252" stroke-linecap="round" stroke-linejoin="round" stroke-miterlimit="10" d="
		M666.727,1808.201c0,20.407-16.547,36.954-36.958,36.954c-20.407,0-36.955-16.547-36.955-36.954
		c0-20.411,16.548-36.959,36.955-36.959C650.18,1771.242,666.727,1787.79,666.727,1808.201z"/>
	
		<line fill="none" stroke="#515151" stroke-width="4.252" stroke-linecap="round" stroke-linejoin="round" stroke-miterlimit="10" x1="603.428" y1="1760.53" x2="541.434" y2="1760.53"/>
	
		<line fill="none" stroke="#515151" stroke-width="4.252" stroke-linecap="round" stroke-linejoin="round" stroke-miterlimit="10" x1="541.434" y1="1760.53" x2="537.097" y2="1749.163"/>
	
		<line fill="none" stroke="#515151" stroke-width="4.252" stroke-linecap="round" stroke-linejoin="round" stroke-miterlimit="10" x1="597.766" y1="1747.495" x2="627.899" y2="1808.346"/>
	
		<line fill="none" stroke="#515151" stroke-width="4.252" stroke-linecap="round" stroke-linejoin="round" stroke-miterlimit="10" x1="597.766" y1="1747.495" x2="613.898" y2="1747.495"/>
	
		<polyline fill="none" stroke="#515151" stroke-width="4.252" stroke-linecap="round" stroke-linejoin="round" stroke-miterlimit="10" points="
		606.6,1765.334 566.161,1817.308 541.434,1760.53 510.983,1808.201 566.161,1817.308 	"/>
	
		<polygon fill="none" stroke="#515151" stroke-width="4.252" stroke-linecap="round" stroke-linejoin="round" stroke-miterlimit="10" points="
		530.303,1748.584 552.559,1748.584 538.85,1753.7 	"/>
</g>
<rect x="582.473" y="1788.498" fill="#FFFFFF" width="79.525" height="57.407"/>
<g opacity="0.2">
	<path fill="#515151" d="M138.281,1390.312c0-4.795-3.882-8.668-8.667-8.668c-4.791,0-8.669,3.873-8.669,8.668
		c0,4.775,3.878,8.661,8.669,8.661C134.399,1398.973,138.281,1395.087,138.281,1390.312z"/>
	
		<path fill="none" stroke="#515151" stroke-width="4.252" stroke-linecap="round" stroke-linejoin="round" stroke-miterlimit="10" d="
		M109.883,1392.069c-5.766,19.586-26.3,30.793-45.881,25.025c-19.583-5.763-30.774-26.303-25.017-45.887
		c5.763-19.582,26.3-30.78,45.889-25.02C104.452,1351.955,115.651,1372.489,109.883,1392.069z"/>
	
		<path fill="none" stroke="#515151" stroke-width="4.252" stroke-linecap="round" stroke-linejoin="round" stroke-miterlimit="10" d="
		M230.17,1382.201c0,20.407-16.542,36.954-36.958,36.954c-20.407,0-36.95-16.547-36.95-36.954c0-20.411,16.543-36.959,36.95-36.959
		C213.628,1345.242,230.17,1361.79,230.17,1382.201z"/>
	
		<line fill="none" stroke="#515151" stroke-width="4.252" stroke-linecap="round" stroke-linejoin="round" stroke-miterlimit="10" x1="166.871" y1="1334.53" x2="104.877" y2="1334.53"/>
	
		<line fill="none" stroke="#515151" stroke-width="4.252" stroke-linecap="round" stroke-linejoin="round" stroke-miterlimit="10" x1="104.877" y1="1334.53" x2="100.547" y2="1323.163"/>
	
		<line fill="none" stroke="#515151" stroke-width="4.252" stroke-linecap="round" stroke-linejoin="round" stroke-miterlimit="10" x1="161.206" y1="1321.495" x2="191.351" y2="1382.346"/>
	
		<line fill="none" stroke="#515151" stroke-width="4.252" stroke-linecap="round" stroke-linejoin="round" stroke-miterlimit="10" x1="161.206" y1="1321.495" x2="177.354" y2="1321.495"/>
	
		<polyline fill="none" stroke="#515151" stroke-width="4.252" stroke-linecap="round" stroke-linejoin="round" stroke-miterlimit="10" points="
		170.041,1339.334 129.614,1391.308 104.877,1334.53 74.437,1382.201 129.614,1391.308 	"/>
	
		<polygon fill="none" stroke="#515151" stroke-width="4.252" stroke-linecap="round" stroke-linejoin="round" stroke-miterlimit="10" points="
		93.753,1322.584 115.994,1322.584 102.291,1327.7 	"/>
</g>
<g opacity="0.2">
	
		<path fill="none" stroke="#515151" stroke-width="4.252" stroke-linecap="round" stroke-linejoin="round" stroke-miterlimit="10" d="
		M572.134,1390.312c0-4.795-3.879-8.668-8.667-8.668c-4.786,0-8.67,3.873-8.67,8.668c0,4.775,3.884,8.661,8.67,8.661
		C568.255,1398.973,572.134,1395.087,572.134,1390.312z"/>
	
		<path fill="none" stroke="#515151" stroke-width="4.252" stroke-linecap="round" stroke-linejoin="round" stroke-miterlimit="10" d="
		M543.738,1392.069c-5.764,19.586-26.306,30.793-45.895,25.025c-19.567-5.763-30.772-26.303-25.009-45.887
		c5.763-19.582,26.305-30.78,45.88-25.02C538.304,1351.955,549.496,1372.489,543.738,1392.069z"/>
	
		<path fill="none" stroke="#515151" stroke-width="4.252" stroke-linecap="round" stroke-linejoin="round" stroke-miterlimit="10" d="
		M664.02,1382.201c0,20.407-16.548,36.954-36.959,36.954c-20.406,0-36.954-16.547-36.954-36.954
		c0-20.411,16.548-36.959,36.954-36.959C647.472,1345.242,664.02,1361.79,664.02,1382.201z"/>
	
		<line fill="none" stroke="#515151" stroke-width="4.252" stroke-linecap="round" stroke-linejoin="round" stroke-miterlimit="10" x1="600.725" y1="1334.53" x2="538.727" y2="1334.53"/>
	
		<line fill="none" stroke="#515151" stroke-width="4.252" stroke-linecap="round" stroke-linejoin="round" stroke-miterlimit="10" x1="538.727" y1="1334.53" x2="534.395" y2="1323.163"/>
	
		<line fill="none" stroke="#515151" stroke-width="4.252" stroke-linecap="round" stroke-linejoin="round" stroke-miterlimit="10" x1="595.056" y1="1321.495" x2="625.198" y2="1382.346"/>
	
		<line fill="none" stroke="#515151" stroke-width="4.252" stroke-linecap="round" stroke-linejoin="round" stroke-miterlimit="10" x1="595.056" y1="1321.495" x2="611.195" y2="1321.495"/>
	
		<polyline fill="none" stroke="#515151" stroke-width="4.252" stroke-linecap="round" stroke-linejoin="round" stroke-miterlimit="10" points="
		603.891,1339.334 563.467,1391.308 538.727,1334.53 508.286,1382.201 563.467,1391.308 	"/>
	
		<polygon fill="none" stroke="#515151" stroke-width="4.252" stroke-linecap="round" stroke-linejoin="round" stroke-miterlimit="10" points="
		527.6,1322.584 549.852,1322.584 536.141,1327.7 	"/>
</g>
<g opacity="0.2">
	
		<path fill="none" stroke="#515151" stroke-width="4.252" stroke-linecap="round" stroke-linejoin="round" stroke-miterlimit="10" d="
		M127.742,1744.125c-4.79,0-8.672,3.882-8.672,8.673c0,4.782,3.882,8.663,8.672,8.663c4.783,0,8.673-3.881,8.673-8.663
		C136.415,1748.007,132.525,1744.125,127.742,1744.125z"/>
	
		<path fill="none" stroke="#515151" stroke-width="4.252" stroke-linecap="round" stroke-linejoin="round" stroke-miterlimit="10" d="
		M129.506,1772.521c19.588,5.764,30.787,26.303,25.017,45.887c-5.753,19.58-26.301,30.779-45.889,25.017
		c-19.593-5.761-30.777-26.305-25.022-45.881C89.37,1777.96,109.92,1766.757,129.506,1772.521z"/>
	
		<path fill="none" stroke="#515151" stroke-width="4.252" stroke-linecap="round" stroke-linejoin="round" stroke-miterlimit="10" d="
		M119.633,1652.241c20.411,0,36.959,16.543,36.959,36.958c0,20.399-16.548,36.947-36.959,36.947
		c-20.422,0-36.975-16.548-36.975-36.947C82.658,1668.784,99.211,1652.241,119.633,1652.241z"/>
	
		<line fill="none" stroke="#515151" stroke-width="4.252" stroke-linecap="round" stroke-linejoin="round" stroke-miterlimit="10" x1="71.953" y1="1715.533" x2="71.953" y2="1777.54"/>
	
		<line fill="none" stroke="#515151" stroke-width="4.252" stroke-linecap="round" stroke-linejoin="round" stroke-miterlimit="10" x1="71.953" y1="1777.54" x2="60.586" y2="1781.866"/>
	
		<line fill="none" stroke="#515151" stroke-width="4.252" stroke-linecap="round" stroke-linejoin="round" stroke-miterlimit="10" x1="58.924" y1="1721.2" x2="119.786" y2="1691.061"/>
	
		<line fill="none" stroke="#515151" stroke-width="4.252" stroke-linecap="round" stroke-linejoin="round" stroke-miterlimit="10" x1="58.924" y1="1721.2" x2="58.924" y2="1705.053"/>
	
		<polyline fill="none" stroke="#515151" stroke-width="4.252" stroke-linecap="round" stroke-linejoin="round" stroke-miterlimit="10" points="
		76.76,1712.366 128.741,1752.798 71.953,1777.54 119.633,1807.975 128.741,1752.798 	"/>
	
		<polygon fill="none" stroke="#515151" stroke-width="4.252" stroke-linecap="round" stroke-linejoin="round" stroke-miterlimit="10" points="
		60.008,1788.658 60.008,1766.41 65.128,1780.124 	"/>
</g>
<polygon fill="#FFFFFF" stroke="#47B970" stroke-width="7.0866" stroke-linecap="round" stroke-linejoin="round" stroke-miterlimit="10" stroke-dasharray="85.0394,14.1732" points="
	159.531,1419.905 229.722,1419.905 229.722,1363.8 "/>
<path fill="#FFFFFF" stroke="#47B970" stroke-width="7.0866" stroke-linecap="round" stroke-linejoin="round" stroke-miterlimit="10" stroke-dasharray="99.2126,14.1732" d="
	M538.6,1420.058v-50.18c0-8.895,6.232-16.104,13.897-16.104h43.284c7.674,0,13.893,7.209,13.893,16.104v50.18H538.6z"/>
<polygon fill="#FFFFFF" stroke="#47B970" stroke-width="7.0866" stroke-linecap="round" stroke-linejoin="round" stroke-miterlimit="10" stroke-dasharray="99.2126,14.1732" points="
	156.648,1669.906 156.648,1738.523 113.84,1669.906 "/>
<line fill="#FFFFFF" stroke="#47B970" stroke-width="7.0866" stroke-linecap="round" stroke-linejoin="round" stroke-miterlimit="10" x1="159.531" y1="1419.905" x2="39.27" y2="1419.905"/>
<line fill="#FFFFFF" stroke="#47B970" stroke-width="7.0866" stroke-linecap="round" stroke-linejoin="round" stroke-miterlimit="10" x1="665.777" y1="1419.905" x2="473.52" y2="1419.905"/>
<line fill="#FFFFFF" stroke="#47B970" stroke-width="7.0866" stroke-linecap="round" stroke-linejoin="round" stroke-miterlimit="10" x1="662.265" y1="1845.905" x2="472.724" y2="1845.905"/>
<line fill="#FFFFFF" stroke="#47B970" stroke-width="7.0866" stroke-linecap="round" stroke-linejoin="round" stroke-miterlimit="10" x1="-220.771" y1="1845.905" x2="-405.711" y2="1845.905"/>
<line fill="#FFFFFF" stroke="#47B970" stroke-width="7.0866" stroke-linecap="round" stroke-linejoin="round" stroke-miterlimit="10" x1="157.615" y1="1845.905" x2="21.071" y2="1845.905"/>
<line fill="#FFFFFF" stroke="#47B970" stroke-width="7.0866" stroke-linecap="round" stroke-linejoin="round" stroke-miterlimit="10" x1="156.648" y1="1652.241" x2="156.648" y2="1843.839"/>
<line fill="#FFFFFF" stroke="#47B970" stroke-width="7.0866" stroke-linecap="round" stroke-linejoin="round" stroke-miterlimit="10" x1="614.601" y1="1845.643" x2="614.601" y2="1770.384"/>
<line fill="#FFFFFF" stroke="#47B970" stroke-width="7.0866" stroke-linecap="round" stroke-linejoin="round" stroke-miterlimit="10" stroke-dasharray="45.3543,14.1732" x1="597.766" y1="1770.384" x2="597.766" y2="1845.643"/>
<line fill="#FFFFFF" stroke="#47B970" stroke-width="7.0866" stroke-linecap="round" stroke-linejoin="round" stroke-miterlimit="10" x1="581.355" y1="1845.643" x2="581.355" y2="1770.384"/>
<line fill="#FFFFFF" stroke="#47B970" stroke-width="7.0866" stroke-linecap="round" stroke-linejoin="round" stroke-miterlimit="10" x1="631.117" y1="1845.643" x2="631.117" y2="1770.384"/>
<line fill="#FFFFFF" stroke="#47B970" stroke-width="7.0866" stroke-linecap="round" stroke-linejoin="round" stroke-miterlimit="10" stroke-dasharray="45.3543,14.1732" x1="647.639" y1="1845.643" x2="647.639" y2="1770.384"/>
<line fill="#FFFFFF" stroke="#47B970" stroke-width="7.0866" stroke-linecap="round" stroke-linejoin="round" stroke-miterlimit="10" x1="664.92" y1="1845.643" x2="664.92" y2="1770.384"/>
<line fill="#FFFFFF" stroke="#47B970" stroke-width="7.0866" stroke-linecap="round" stroke-linejoin="round" stroke-miterlimit="10" x1="581.355" y1="1788.658" x2="664.92" y2="1788.658"/>
<g>
	<g>
		
			<path fill="none" stroke="#47B970" stroke-width="7.0866" stroke-linecap="round" stroke-linejoin="round" stroke-miterlimit="10" stroke-dasharray="141.7323,11.3386" d="
			M634.35,1053.288v-36.383c0,0-95.917-8.507,0-128.059"/>
		
			<path fill="none" stroke="#47B970" stroke-width="7.0866" stroke-linecap="round" stroke-linejoin="round" stroke-miterlimit="10" stroke-dasharray="141.7323,11.3386" d="
			M634.35,1016.905c0,0,95.914-8.507,0-128.059"/>
		
			<path fill="none" stroke="#47B970" stroke-width="7.0866" stroke-linecap="round" stroke-linejoin="round" stroke-miterlimit="10" stroke-dasharray="141.7323,8.5039" d="
			M634.35,1053.288"/>
	</g>
	
		<line fill="#FFFFFF" stroke="#47B970" stroke-width="7.0866" stroke-linecap="round" stroke-linejoin="round" stroke-miterlimit="10" stroke-dasharray="155.9055,11.3386" x1="694.306" y1="1053.288" x2="489.539" y2="1053.288"/>
	<g>
		
			<path fill="#FFFFFF" stroke="#47B970" stroke-width="7.0866" stroke-linecap="round" stroke-linejoin="round" stroke-miterlimit="10" stroke-dasharray="141.7323,11.3386" d="
			M555.348,1053.288v-48.867c0,0-128.822-11.42,0-171.989"/>
		
			<path fill="#FFFFFF" stroke="#47B970" stroke-width="7.0866" stroke-linecap="round" stroke-linejoin="round" stroke-miterlimit="10" stroke-dasharray="141.7323,11.3386" d="
			M555.348,1004.421c0,0,128.834-11.42,0-171.989"/>
		
			<path fill="#FFFFFF" stroke="#47B970" stroke-width="7.0866" stroke-linecap="round" stroke-linejoin="round" stroke-miterlimit="10" stroke-dasharray="141.7323,11.3386" d="
			M555.348,1053.288"/>
	</g>
</g>
<g>
	
		<path fill="#FFFFFF" stroke="#47B970" stroke-width="7.0866" stroke-linecap="round" stroke-linejoin="round" stroke-miterlimit="10" d="
		M-387.325,1465.849"/>
	
		<line fill="#FFFFFF" stroke="#47B970" stroke-width="7.0866" stroke-linecap="round" stroke-linejoin="round" stroke-miterlimit="10" x1="-420.867" y1="1471.482" x2="-216.092" y2="1471.482"/>
	
		<path fill="#FFFFFF" stroke="#47B970" stroke-width="7.0866" stroke-linecap="round" stroke-linejoin="round" stroke-miterlimit="10" stroke-dasharray="42.5197,4.252" d="
		M-322.216,1284.714"/>
	
		<line fill="#FFFFFF" stroke="#47B970" stroke-width="7.0866" stroke-linecap="round" stroke-linejoin="round" stroke-miterlimit="10" x1="-420.867" y1="1422.626" x2="-216.092" y2="1422.626"/>
	
		<line fill="#FFFFFF" stroke="#47B970" stroke-width="7.0866" stroke-linecap="round" stroke-linejoin="round" stroke-miterlimit="10" x1="-232.197" y1="1405.671" x2="-232.197" y2="1471.482"/>
	
		<line fill="#FFFFFF" stroke="#47B970" stroke-width="7.0866" stroke-linecap="round" stroke-linejoin="round" stroke-miterlimit="10" x1="-248.644" y1="1405.671" x2="-248.644" y2="1471.482"/>
	
		<line fill="#FFFFFF" stroke="#47B970" stroke-width="7.0866" stroke-linecap="round" stroke-linejoin="round" stroke-miterlimit="10" x1="-264.404" y1="1405.671" x2="-264.404" y2="1471.482"/>
	
		<line fill="#FFFFFF" stroke="#47B970" stroke-width="7.0866" stroke-linecap="round" stroke-linejoin="round" stroke-miterlimit="10" x1="-281.731" y1="1405.671" x2="-281.731" y2="1471.482"/>
	
		<line fill="#FFFFFF" stroke="#47B970" stroke-width="7.0866" stroke-linecap="round" stroke-linejoin="round" stroke-miterlimit="10" x1="-313.764" y1="1405.671" x2="-313.764" y2="1471.482"/>
	
		<line fill="#FFFFFF" stroke="#47B970" stroke-width="7.0866" stroke-linecap="round" stroke-linejoin="round" stroke-miterlimit="10" x1="-333.176" y1="1405.671" x2="-333.176" y2="1471.482"/>
	
		<line fill="#FFFFFF" stroke="#47B970" stroke-width="7.0866" stroke-linecap="round" stroke-linejoin="round" stroke-miterlimit="10" x1="-352.606" y1="1405.671" x2="-352.606" y2="1471.482"/>
	
		<line fill="#FFFFFF" stroke="#47B970" stroke-width="7.0866" stroke-linecap="round" stroke-linejoin="round" stroke-miterlimit="10" x1="-369.402" y1="1405.671" x2="-369.402" y2="1471.482"/>
	
		<line fill="#FFFFFF" stroke="#47B970" stroke-width="7.0866" stroke-linecap="round" stroke-linejoin="round" stroke-miterlimit="10" x1="-385.504" y1="1405.671" x2="-385.504" y2="1471.482"/>
	
		<line fill="#FFFFFF" stroke="#47B970" stroke-width="7.0866" stroke-linecap="round" stroke-linejoin="round" stroke-miterlimit="10" x1="-404.063" y1="1471.482" x2="-404.063" y2="1405.671"/>
	
		<line fill="#FFFFFF" stroke="#47B970" stroke-width="7.0866" stroke-linecap="round" stroke-linejoin="round" stroke-miterlimit="10" x1="-298.908" y1="1405.671" x2="-298.908" y2="1471.482"/>
	
		<polyline fill="none" stroke="#47B970" stroke-width="7.0866" stroke-linecap="round" stroke-linejoin="round" stroke-miterlimit="10" stroke-dasharray="141.7323,11.3386" points="
		-385.504,1409.276 -385.504,1327.397 -314.658,1264.884 -248.644,1337.089 -248.644,1404.798 	"/>
	
		<rect x="-330.451" y="1307.655" fill="#FFFFFF" stroke="#47B970" stroke-width="7.0866" stroke-linecap="round" stroke-linejoin="round" stroke-miterlimit="10" width="28.81" height="29.57"/>
</g>
<g>
	<g>
		
			<path fill="none" stroke="#515151" stroke-width="4.252" stroke-linecap="round" stroke-linejoin="round" stroke-miterlimit="10" stroke-dasharray="56.6929,7.0866" d="
			M186.639,2098.67c-17.055-11.595-21.482-34.82-9.887-51.875c11.595-17.053,34.819-21.477,51.874-9.883
			c17.052,11.595,21.479,34.818,9.886,51.871C226.916,2105.839,203.692,2110.264,186.639,2098.67z"/>
		
			<path fill="none" stroke="#515151" stroke-width="4.252" stroke-linecap="round" stroke-linejoin="round" stroke-miterlimit="10" d="
			M116.078,2008.827"/>
		
			<path fill="none" stroke="#515151" stroke-width="4.252" stroke-linecap="round" stroke-linejoin="round" stroke-miterlimit="10" d="
			M120.445,2020.293"/>
		
			<path fill="none" stroke="#515151" stroke-width="4.252" stroke-linecap="round" stroke-linejoin="round" stroke-miterlimit="10" d="
			M90.217,2068.505"/>
	</g>
</g>
</svg>
