<?xml version="1.0" standalone="no"?>
<!DOCTYPE svg PUBLIC "-//W3C//DTD SVG 20010904//EN"
 "http://www.w3.org/TR/2001/REC-SVG-20010904/DTD/svg10.dtd">
<svg version="1.0" xmlns="http://www.w3.org/2000/svg"
 width="564.000000pt" height="564.000000pt" viewBox="0 0 564.000000 564.000000"
 preserveAspectRatio="xMidYMid meet">
<metadata>
Created by potrace 1.11, written by Peter Selinger 2001-2013
</metadata>
<g transform="translate(0.000000,564.000000) scale(0.100000,-0.100000)"
fill="#000000" stroke="none">
<path d="M1955 5633 c-293 -7 -606 -40 -815 -88 -310 -70 -500 -171 -695 -369
-291 -296 -398 -641 -436 -1411 -14 -297 -7 -1944 10 -2130 47 -527 134 -815
322 -1064 208 -277 519 -443 964 -515 275 -45 368 -49 1385 -53 1105 -5 1324
2 1645 53 472 75 800 263 1009 578 158 237 233 506 278 1001 19 201 18 2136 0
2355 -18 207 -47 412 -78 540 -136 554 -480 890 -1044 1019 -177 41 -403 66
-725 81 -181 8 -1496 11 -1820 3z m1593 -1592 c13 -8 49 -97 187 -466 94 -249
154 -407 157 -410 2 -2 32 3 68 11 191 40 412 -4 583 -116 161 -105 288 -282
338 -470 31 -114 31 -290 1 -402 -126 -469 -625 -719 -1076 -539 -236 95 -409
293 -477 546 -29 109 -30 279 -1 386 43 159 119 287 236 396 59 56 173 133
197 133 5 0 9 3 9 8 1 12 -75 212 -80 212 -6 0 -664 -720 -669 -732 -1 -5 4
-17 14 -27 29 -33 55 -118 55 -181 0 -73 -29 -153 -72 -199 l-32 -34 50 -96
49 -96 74 -6 c81 -6 101 -20 101 -70 0 -52 -25 -59 -217 -59 -160 0 -175 2
-193 20 -44 44 -4 110 66 110 l32 0 -37 68 c-24 42 -43 66 -52 64 -35 -9 -281
3 -505 24 l-61 5 -31 -65 c-142 -303 -435 -480 -766 -463 -131 7 -203 25 -311
77 -298 145 -476 452 -451 778 9 116 29 190 81 297 80 165 205 287 376 369
157 75 225 83 538 63 34 -2 35 -1 142 168 60 94 108 175 108 180 0 6 -15 31
-34 58 l-35 47 -85 0 c-66 0 -95 5 -125 20 -101 52 -110 216 -16 283 30 21 41
22 281 25 277 4 289 1 336 -61 35 -48 39 -140 7 -186 -41 -60 -71 -75 -159
-81 l-79 -5 65 -95 c142 -209 272 -335 425 -412 84 -43 86 -43 190 -43 99 0
109 2 172 33 88 43 131 84 365 340 108 119 210 231 226 249 l29 31 -37 95 -37
96 -165 3 c-149 3 -166 5 -179 22 -19 26 -18 65 3 88 15 16 35 18 212 18 108
0 202 -4 209 -9z"/>
<path d="M1813 3833 c-65 -5 -86 -30 -54 -62 19 -19 34 -20 217 -20 169 -1
201 2 216 16 24 21 23 39 -4 57 -18 13 -51 16 -173 14 -82 -1 -174 -3 -202 -5z"/>
<path d="M3579 3582 c-9 -23 -396 -442 -457 -494 -72 -62 -180 -121 -252 -137
-100 -23 -228 -9 -327 35 -29 12 -53 21 -53 19 0 -2 47 -72 104 -157 l104
-153 78 -1 c44 -1 91 -7 106 -12 27 -11 34 -4 355 346 180 196 345 375 366
398 l38 42 -21 53 c-23 58 -36 77 -41 61z"/>
<path d="M1968 3258 l-87 -141 62 -36 c34 -20 105 -79 158 -131 83 -82 102
-108 144 -193 l49 -97 75 5 c111 8 181 16 181 20 0 2 -58 88 -128 191 -70 104
-179 264 -241 357 -62 92 -115 167 -119 166 -4 0 -46 -64 -94 -141z"/>
<path d="M4016 3059 c-38 -5 -72 -11 -74 -14 -2 -2 17 -59 43 -127 25 -68 61
-162 78 -209 l30 -86 61 -12 c52 -11 68 -20 107 -60 106 -110 80 -279 -53
-345 -115 -57 -241 -16 -300 98 -39 75 -17 198 45 255 22 20 24 27 16 44 -6
11 -21 49 -34 86 -31 89 -113 303 -119 308 -2 3 -34 -14 -70 -37 -91 -58 -193
-170 -238 -262 -61 -124 -73 -178 -72 -313 0 -104 4 -130 28 -200 40 -117 80
-180 170 -271 68 -68 97 -89 176 -127 119 -56 180 -71 300 -70 559 3 869 646
527 1092 -138 180 -388 280 -621 250z m400 -145 c75 -37 169 -126 214 -200 37
-61 79 -174 80 -211 0 -49 -70 -82 -103 -48 -8 8 -24 45 -36 84 -44 146 -140
244 -284 291 -54 17 -68 63 -33 109 16 21 96 8 162 -25z"/>
<path d="M1350 3037 c-347 -105 -554 -456 -471 -801 32 -134 79 -215 185 -321
71 -70 108 -98 167 -127 107 -51 187 -70 299 -71 116 0 196 19 310 75 68 33
102 58 170 127 76 76 154 191 140 204 -3 3 -153 15 -335 26 -306 20 -334 24
-381 47 -99 47 -147 163 -110 264 7 19 90 158 185 308 95 150 170 276 166 280
-3 4 -61 8 -128 9 -103 2 -134 -1 -197 -20z m-268 -714 c9 -10 23 -43 33 -73
48 -150 141 -254 260 -290 55 -17 75 -37 75 -75 0 -46 -20 -59 -79 -52 -144
17 -304 167 -366 342 -29 82 -31 122 -8 147 21 23 65 23 85 1z"/>
<path d="M1789 2972 c-9 -15 -62 -101 -118 -191 -56 -90 -100 -165 -99 -165 6
-4 573 36 578 41 11 11 -61 122 -123 189 -63 68 -180 154 -209 154 -7 0 -20
-12 -29 -28z"/>
<path d="M2738 2560 c-70 -21 -128 -98 -128 -170 0 -49 37 -118 79 -145 33
-22 121 -45 121 -32 0 3 -18 39 -40 79 -22 40 -40 85 -40 99 0 51 69 79 102
42 8 -10 32 -49 53 -86 42 -76 54 -77 75 -3 37 134 -89 256 -222 216z"/>
<path d="M2388 2543 l-57 -4 1 -127 c1 -70 -2 -137 -6 -149 -7 -21 -4 -23 31
-23 21 0 68 -3 106 -7 l67 -6 -20 44 c-27 60 -27 177 0 237 l19 42 -42 -2
c-23 -1 -68 -3 -99 -5z"/>
<path d="M1940 2513 c-113 -8 -206 -16 -208 -18 -2 -2 2 -13 8 -25 15 -29 15
-131 0 -160 -6 -12 -10 -23 -8 -25 7 -8 454 -33 461 -26 12 12 20 134 13 205
-7 64 -9 66 -34 65 -15 -1 -119 -8 -232 -16z"/>
<path d="M4045 2468 c-39 -35 -44 -86 -11 -125 33 -39 74 -50 115 -29 37 20
51 44 51 88 0 75 -97 116 -155 66z"/>
<path d="M1469 2451 c-37 -37 -38 -79 -3 -120 21 -26 33 -31 69 -31 36 0 48 5
69 31 15 17 26 43 26 59 0 16 -11 42 -26 59 -36 43 -93 44 -135 2z"/>
</g>
</svg>
