<?xml version="1.0" standalone="no"?>
<!DOCTYPE svg PUBLIC "-//W3C//DTD SVG 20010904//EN"
 "http://www.w3.org/TR/2001/REC-SVG-20010904/DTD/svg10.dtd">
<svg version="1.0" xmlns="http://www.w3.org/2000/svg"
 width="576.000000pt" height="576.000000pt" viewBox="0 0 576.000000 576.000000"
 preserveAspectRatio="xMidYMid meet">
<metadata>
Created by potrace 1.11, written by Peter Selinger 2001-2013
</metadata>
<g transform="translate(0.000000,576.000000) scale(0.100000,-0.100000)"
fill="#000000" stroke="none">
<path d="M4720 4455 c-355 -355 -648 -645 -651 -645 -3 0 -11 18 -18 41 -10
32 -15 38 -26 29 -10 -8 -15 -4 -24 20 -6 18 -15 29 -20 26 -5 -4 -12 -2 -16
3 -3 6 -12 8 -20 4 -9 -3 -24 5 -36 21 -11 14 -26 26 -33 26 -7 0 -23 11 -35
24 -25 27 -61 38 -139 42 -51 3 -53 2 -46 -19 5 -17 259 -700 290 -780 5 -13
13 -17 28 -13 11 3 58 11 104 17 213 29 457 -49 623 -200 115 -103 198 -236
241 -388 33 -114 32 -326 -1 -433 -90 -291 -302 -493 -590 -562 -71 -17 -108
-19 -216 -16 -112 4 -143 9 -221 36 -124 42 -222 102 -315 194 -120 118 -198
269 -228 442 -58 323 121 685 410 832 l47 23 -35 93 c-19 51 -36 99 -38 106
-3 7 -39 -26 -84 -75 -44 -49 -194 -213 -334 -367 l-255 -279 29 -45 c70 -111
59 -261 -29 -362 l-30 -35 51 -97 51 -98 64 0 c54 0 66 -4 88 -26 20 -19 24
-31 19 -52 -11 -49 -25 -52 -220 -52 -202 0 -215 4 -215 68 0 38 30 62 78 62
19 0 32 3 30 8 -2 4 -16 32 -32 62 l-28 55 -136 2 c-76 2 -146 5 -157 7 -11 2
-81 7 -155 11 l-136 7 -42 -83 c-58 -117 -129 -207 -215 -272 -87 -67 -216
-129 -314 -151 -105 -23 -289 -21 -389 4 -111 28 -249 97 -327 164 -57 48 -65
52 -55 29 7 -16 15 -32 19 -38 4 -5 21 -37 39 -70 17 -33 45 -74 61 -90 16
-17 29 -36 29 -41 0 -6 15 -24 33 -41 17 -18 44 -45 58 -61 14 -16 35 -35 47
-41 11 -6 27 -17 34 -25 8 -7 29 -21 47 -30 21 -11 31 -23 27 -32 -3 -8 1 -14
9 -14 8 0 12 -6 9 -14 -4 -10 5 -16 26 -21 24 -5 29 -10 20 -20 -9 -11 -2 -15
34 -20 25 -4 46 -10 46 -14 0 -3 -172 -178 -382 -388 l-382 -382 -32 24 c-18
14 -38 25 -44 25 -6 0 -26 11 -44 25 -18 14 -38 25 -43 25 -6 0 -45 36 -86 80
-111 117 -192 248 -242 390 -91 258 -144 528 -176 895 -32 375 -39 479 -40
560 0 50 -5 113 -9 140 -13 72 -3 -802 10 -960 35 -424 99 -700 211 -915 194
-371 523 -592 1013 -680 311 -56 618 -70 1586 -70 1051 0 1333 15 1675 91 561
124 920 485 1045 1049 29 130 56 332 72 535 18 240 19 2040 0 2275 -33 413
-92 684 -197 905 -38 78 -103 185 -113 185 -4 0 -297 -290 -652 -645z"/>
<path d="M3381 3967 c-13 -6 -33 -24 -44 -39 -19 -25 -19 -31 -7 -70 8 -24 13
-48 12 -54 -1 -6 16 -27 38 -46 22 -20 37 -38 33 -42 -3 -3 1 -6 11 -6 9 0 30
-7 46 -15 28 -14 28 -14 75 40 l47 55 -18 53 c-9 28 -25 71 -35 95 l-18 42
-58 0 c-32 0 -69 -6 -82 -13z"/>
<path d="M2025 3835 c-38 -13 -32 -14 86 -14 101 -1 129 2 139 14 11 13 0 15
-86 14 -55 -1 -117 -7 -139 -14z"/>
<path d="M2396 3818 c-8 -41 -49 -94 -89 -115 -18 -10 -62 -20 -99 -23 l-67
-5 74 -104 c182 -254 376 -412 528 -427 l52 -6 -35 24 c-19 12 -39 23 -45 23
-17 0 -135 85 -182 132 -65 64 -71 142 -16 225 34 51 35 56 41 134 3 53 0 67
-22 103 -14 22 -30 40 -34 39 -4 0 -24 6 -44 15 -50 23 -55 22 -62 -15z"/>
<path d="M1884 3666 c-9 -23 26 -75 72 -105 l40 -28 22 26 21 25 -34 46 c-29
39 -39 45 -74 48 -30 2 -43 -1 -47 -12z"/>
<path d="M3487 3458 c-85 -95 -171 -189 -191 -207 -20 -19 -36 -41 -36 -48 0
-7 -6 -13 -14 -13 -8 0 -24 -12 -35 -26 -25 -32 -85 -75 -148 -107 -142 -73
-314 -79 -458 -17 l-47 20 18 -29 c11 -15 57 -84 103 -152 l85 -124 80 -2 c45
-1 93 -3 107 -5 23 -3 60 34 299 297 149 165 302 332 339 370 112 118 106 106
86 164 -9 28 -20 51 -24 51 -5 0 -78 -78 -164 -172z"/>
<path d="M2105 3421 c-8 -17 -15 -46 -15 -66 0 -53 -22 -95 -73 -142 l-46 -43
27 -17 c147 -95 256 -213 320 -346 l37 -78 120 6 c66 4 122 9 124 11 3 2 -6
19 -20 37 -27 36 -100 143 -270 399 -63 95 -132 195 -152 221 l-36 48 -16 -30z"/>
<path d="M4040 3112 c-23 -5 -34 -12 -33 -22 2 -9 34 -96 71 -195 38 -99 72
-187 75 -196 3 -10 22 -18 52 -22 99 -14 185 -114 185 -216 0 -53 -35 -135
-71 -168 -59 -54 -180 -73 -253 -38 -83 40 -134 133 -122 229 6 51 45 129 73
144 16 10 4 45 -134 410 -8 20 -21 15 -100 -40 -421 -291 -366 -937 100 -1156
324 -153 717 -16 881 308 56 110 70 171 70 305 0 103 -4 131 -27 201 -34 102
-105 212 -186 286 -76 70 -124 100 -232 139 -72 27 -100 32 -199 35 -63 1
-131 0 -150 -4z m387 -114 c78 -29 128 -62 189 -123 59 -61 95 -120 129 -210
43 -114 28 -169 -43 -163 -41 3 -44 8 -87 126 -15 41 -42 92 -59 115 -45 59
-122 115 -183 133 -82 24 -109 82 -57 123 33 26 40 26 111 -1z"/>
<path d="M1650 3081 c-20 -4 -41 -10 -48 -15 -6 -4 -37 -14 -69 -22 -31 -8
-76 -27 -99 -42 -23 -15 -68 -43 -100 -62 -79 -48 -192 -163 -234 -239 -19
-34 -45 -75 -57 -90 -11 -15 -29 -54 -38 -86 -9 -33 -20 -69 -25 -80 -43 -102
-36 -182 27 -307 114 -227 361 -369 616 -355 108 6 175 23 158 40 -6 6 -11 19
-11 30 0 10 -4 15 -10 12 -14 -9 -12 19 2 33 14 14 42 16 33 2 -4 -7 3 -7 20
0 15 6 41 10 60 10 25 0 32 -4 31 -17 -5 -70 212 114 276 234 l28 50 -38 6
c-20 3 -163 13 -317 22 -154 10 -302 23 -329 31 -55 14 -66 12 -66 -15 0 -31
-24 -44 -64 -33 -19 6 -37 8 -39 5 -3 -2 -37 12 -77 31 -40 20 -74 36 -76 36
-13 0 50 -102 85 -137 46 -48 136 -103 168 -103 26 0 63 -44 63 -75 0 -12 -11
-32 -25 -45 -32 -30 -80 -23 -177 26 -84 42 -158 114 -211 203 -44 74 -83 197
-74 233 7 25 43 48 77 48 11 0 20 7 20 16 0 8 -4 13 -9 9 -12 -7 6 60 25 98 8
15 12 27 9 27 -9 0 26 62 59 105 18 23 22 34 11 25 -36 -27 50 68 101 112 27
24 43 35 35 25 -7 -9 14 1 47 23 34 23 73 43 88 46 15 3 34 9 43 13 29 15 73
23 66 11 -3 -5 -3 -10 2 -10 4 0 21 25 38 55 16 30 32 55 35 55 10 0 40 57 33
64 -7 7 -14 7 -63 -3z"/>
<path d="M1839 3003 c-18 -32 -38 -65 -44 -73 -24 -30 -65 -111 -65 -130 0
-10 -11 -39 -24 -64 l-24 -46 76 0 c83 1 442 26 448 32 2 2 -16 35 -38 73 -53
89 -156 191 -235 233 l-61 32 -33 -57z"/>
<path d="M2780 2609 c-43 -18 -80 -61 -95 -111 -12 -42 -12 -54 0 -96 14 -47
49 -89 92 -111 22 -11 83 -15 83 -5 0 3 -18 40 -40 83 -35 66 -40 81 -31 104
6 15 22 32 36 37 44 17 70 -3 117 -89 l44 -80 17 28 c21 36 22 122 2 161 -26
51 -80 83 -143 87 -32 1 -68 -2 -82 -8z"/>
<path d="M2505 2602 c-120 -4 -110 10 -110 -152 0 -116 3 -141 15 -145 13 -3
140 -8 162 -6 4 1 0 18 -9 39 -22 50 -21 175 1 226 9 22 15 40 14 40 -2 1 -34
0 -73 -2z"/>
<path d="M1995 2568 c-198 -12 -197 -12 -188 -46 10 -35 10 -108 0 -148 l-8
-30 221 -14 c154 -9 224 -10 232 -2 12 12 16 185 5 225 -9 31 3 30 -262 15z"/>
<path d="M4140 2543 c-62 -23 -81 -103 -35 -148 37 -38 95 -35 130 7 22 26 26
39 21 67 -9 59 -63 93 -116 74z"/>
<path d="M1580 2530 c-9 -5 -27 -32 -40 -60 -26 -57 -23 -74 22 -99 52 -30
118 15 118 79 0 38 -26 80 -49 80 -5 0 -15 2 -23 5 -7 2 -20 0 -28 -5z"/>
</g>
</svg>
