<?xml version="1.0" encoding="utf-8"?>
<!-- Generator: Adobe Illustrator 16.0.0, SVG Export Plug-In . SVG Version: 6.00 Build 0)  -->
<!DOCTYPE svg PUBLIC "-//W3C//DTD SVG 1.1//EN" "http://www.w3.org/Graphics/SVG/1.1/DTD/svg11.dtd">
<svg version="1.1" xmlns="http://www.w3.org/2000/svg" xmlns:xlink="http://www.w3.org/1999/xlink" x="0px" y="0px" width="413px"
	 height="223.962px" viewBox="0 0 413 223.962" enable-background="new 0 0 413 223.962" xml:space="preserve">
<g id="Layer_2">
	<g>
		<polyline fill="#EFEFEF" points="120.838,124.86 87.286,124.86 87.286,89.567 58.397,89.567 58.397,138.763 13.438,138.763 
			13.438,220.308 120.838,220.183 120.838,66.571 197.713,66.571 197.713,114.964 210.629,114.964 210.629,97.603 253.236,97.603 
			253.236,125.132 334.031,125.132 334.031,113.286 381.896,113.286 381.896,161.271 399.126,161.215 399.126,221.229 
			276.98,221.476 167.477,221.116 120.838,220.183 		"/>
		<rect x="118.106" y="62.829" fill="#EFEFEF" width="82.603" height="5.885"/>
	</g>
	<circle fill="#E0E0E0" cx="342.159" cy="44.22" r="15.062"/>
	<path fill="#EFEFEF" d="M350.319,86.792c0-5.09,4.126-9.213,9.215-9.213c5.087,0,9.214,4.123,9.214,9.213H350.319z"/>
	<path fill="#EFEFEF" d="M362.091,86.792c0-6.984,5.661-12.645,12.645-12.645s12.644,5.66,12.644,12.645H362.091z"/>
	<path fill="#EFEFEF" d="M283.889,59.721c0-5.09,4.125-9.213,9.213-9.213c5.089,0,9.215,4.123,9.215,9.213H283.889z"/>
	<path fill="#EFEFEF" d="M295.66,59.721c0-3.576,2.899-6.473,6.476-6.473c3.575,0,6.476,2.896,6.476,6.473H295.66z"/>
</g>
<g id="Layer_1">
	
		<line fill="none" stroke="#58595B" stroke-width="3.1122" stroke-linecap="round" stroke-linejoin="round" stroke-miterlimit="10" x1="3.64" y1="221.188" x2="408.745" y2="221.476"/>
	<g>
		
			<image overflow="visible" opacity="0.1" width="839" height="520" xlink:href="46BF5C42.png"  transform="matrix(0.24 0 0 0.24 27.0977 98.9736)">
		</image>
		<g>
			<g>
				<defs>
					<filter id="Adobe_OpacityMaskFilter" filterUnits="userSpaceOnUse" x="26.531" y="99.824" width="199.535" height="122.86">
						<feColorMatrix  type="matrix" values="1 0 0 0 0  0 1 0 0 0  0 0 1 0 0  0 0 0 1 0"/>
					</filter>
				</defs>
				<mask maskUnits="userSpaceOnUse" x="26.531" y="99.824" width="199.535" height="122.86" id="SVGID_1_">
					<g filter="url(#Adobe_OpacityMaskFilter)">
						<rect x="7.836" y="84.931" fill="#FFFFFF" width="470.576" height="137.162"/>
					</g>
				</mask>
				<g mask="url(#SVGID_1_)">
					<g>
						<path fill="#91CE9B" d="M212.439,204.23c6.394,2.833,10.85,9.231,10.85,16.671h-36.447c0-0.122,0-0.244,0.005-0.365h2.556
							c0-2.14-0.521-4.156-1.44-5.93c2.561-6.961,9.25-11.929,17.107-11.929C207.692,202.678,210.188,203.231,212.439,204.23z"/>
						<path fill="#C4E3C7" d="M212.439,185.426v-5.765V159.05c27.249,33.966,0,36.381,0,36.381v-7.969v-1.549V185.426z"/>
						<path fill="#C4E3C7" d="M212.439,187.462v7.969c0,0-14.63-1.294-11.731-15.353c0.221-0.676,0.403-1.384,0.549-2.125
							c1.473-4.846,4.86-11.022,11.183-18.903v20.611v5.765l-3.255-2.791L212.439,187.462z"/>
						<polygon fill="#FFFFFF" points="212.439,185.913 212.439,187.462 209.184,182.635 212.439,185.426 						"/>
						<path fill="#58BC72" d="M181.011,170.467v-0.825v-37.634c17.999,22.431,22.042,36.78,20.245,45.945
							c-0.229,0.741-0.408,1.449-0.549,2.125c-4.024,12.511-19.696,13.894-19.696,13.894v-10.445v-3.124V170.467z"/>
						<path fill="#C4E3C7" d="M200.708,180.078c0.141-0.676,0.319-1.384,0.549-2.125
							C201.111,178.694,200.928,179.402,200.708,180.078z"/>
						<path fill="#91CE9B" d="M189.403,220.536h-2.556c0.042-2.083,0.432-4.077,1.116-5.93
							C188.882,216.38,189.403,218.396,189.403,220.536z"/>
						<path fill="#C4E3C7" d="M181.011,208.447c3.012,1.121,5.488,3.336,6.952,6.159c-0.685,1.853-1.074,3.847-1.116,5.93h-23.261
							c0-7.126,5.779-12.904,12.909-12.904C178.084,207.632,179.609,207.918,181.011,208.447z"/>
						<path fill="#58BC72" d="M181.011,183.526v10.445c0,0-12.027-1.064-17.712-9.737v-23.853
							c2.997-7.613,8.546-16.942,17.712-28.374v37.634l-5.54-4.757l5.54,15.518V183.526z"/>
						<polygon fill="#58BC72" points="181.011,170.467 181.011,180.402 175.472,164.885 181.011,169.642 						"/>
						<polygon fill="#91CE9B" points="168.646,101.34 166.24,110.182 163.299,110.182 75.902,110.182 73.73,110.182 71.324,101.34 
													"/>
						<path fill="#DFDEDF" d="M127.556,136.544v-16.366h-15.911v16.366v6.149h-2.298v4.545h20.513v-4.545h-2.303V136.544z
							 M101.907,131.862v-11.685H85.996v11.685v10.831h-2.298v4.545h20.513v-4.545h-2.303V131.862z M154.345,126.782v-6.604h-15.911
							v6.604v15.911h-2.303v4.545h20.512v-4.545h-2.298V126.782z M163.299,220.536v0.563h-7.257v-7.018v-6.397v-5.667h-34.444v5.667
							v6.397v7.018H102.01v-38.464v-4.568l-0.009-0.038c2.458-0.253,4.348-1.777,4.348-3.626h0.01l-10.925-16.905h-6.802h-6.834
							h-5.896v-47.315h87.397v50.2c-4.452,11.318-3.279,18.853,0,23.853V220.536z M152.07,200.887v-33.576
							c0-2.538-2.055-4.593-4.588-4.593h-1.946h-15.076c-2.538,0-4.592,2.055-4.592,4.593v33.576h19.668H152.07z"/>
						<path fill="#DFDEDF" d="M163.299,160.382v23.853C160.021,179.234,158.848,171.7,163.299,160.382z"/>
						<polygon fill="#58BC72" points="156.643,142.693 156.643,147.238 136.131,147.238 136.131,142.693 138.434,142.693 
							154.345,142.693 						"/>
						<rect x="121.599" y="214.081" fill="#BABABC" width="34.444" height="7.018"/>
						<rect x="121.599" y="207.684" fill="#BABABC" width="34.444" height="6.397"/>
						<rect x="121.599" y="202.017" fill="#BABABC" width="34.444" height="5.667"/>
						<rect x="138.434" y="126.782" fill="#F5E2B0" width="15.911" height="15.911"/>
						<rect x="138.434" y="120.178" fill="#EFEFEF" width="15.911" height="6.604"/>
						<path fill="#EFEFEF" d="M152.07,167.311v33.576h-6.534v-38.169h1.946C150.015,162.718,152.07,164.772,152.07,167.311z"/>
						<path fill="#F8A68E" d="M145.536,162.718v38.169h-19.668v-33.576c0-2.538,2.055-4.593,4.592-4.593H145.536z"/>
						<polygon fill="#58BC72" points="129.859,142.693 129.859,147.238 109.347,147.238 109.347,142.693 111.645,142.693 
							127.556,142.693 						"/>
						<rect x="111.645" y="136.544" fill="#F5E2B0" width="15.911" height="6.149"/>
						<rect x="111.645" y="120.178" fill="#EFEFEF" width="15.911" height="16.366"/>
						<path fill="#F5E2B0" d="M102.001,178.028c-0.234,0.023-0.479,0.038-0.722,0.038c-2.805,0-5.08-1.638-5.08-3.664l0.033-0.014
							h0.005l-7.604-16.877v-0.015h6.802l10.925,16.905h-0.01C106.349,176.251,104.459,177.775,102.001,178.028z"/>
						<polygon fill="#58BC72" points="104.21,142.693 104.21,147.238 83.698,147.238 83.698,142.693 85.996,142.693 
							101.907,142.693 						"/>
						<polygon fill="#FFFFFF" points="102.01,221.099 102.01,221.164 95.026,221.155 95.026,221.141 95.026,221.099 						"/>
						<path fill="#F5E2B0" d="M102.01,182.635v38.464h-6.984v-22.422v-1.2c0-2.923-2.505-5.296-5.586-5.296H75.902v-9.546H102.01z"
							/>
						<path fill="#F5E2B0" d="M102.01,178.066v4.568H75.902v-8.045c0.136,1.938,2.359,3.477,5.075,3.477
							c2.805,0,5.071-1.638,5.071-3.664c0,2.026,2.275,3.664,5.08,3.664c2.796,0,5.071-1.638,5.071-3.664
							c0,2.026,2.275,3.664,5.08,3.664c0.244,0,0.488-0.015,0.722-0.038L102.01,178.066z"/>
						<rect x="85.996" y="131.862" fill="#F5E2B0" width="15.911" height="10.831"/>
						<rect x="85.996" y="120.178" fill="#EFEFEF" width="15.911" height="11.685"/>
						<path fill="#F8A68E" d="M86.095,174.397l-4.296-16.886v-0.015h6.834v0.015l7.604,16.877h-0.005l-0.033,0.014
							c0,2.026-2.275,3.664-5.071,3.664c-2.805,0-5.08-1.638-5.08-3.664l0.042-0.005H86.095z"/>
						<polygon fill="#FFFFFF" points="95.026,221.141 95.026,221.155 74.171,221.127 74.171,198.677 75.902,198.677 75.902,221.099 
							95.026,221.099 						"/>
						<rect x="75.902" y="198.677" fill="#C4E3C7" width="19.124" height="22.422"/>
						<path fill="#EFEFEF" d="M95.026,197.477v1.2H75.902v-6.496h13.538C92.521,192.181,95.026,194.554,95.026,197.477z"/>
						<path fill="#F5E2B0" d="M81.798,157.512l4.296,16.886H86.09l-0.042,0.005c0,2.026-2.266,3.664-5.071,3.664
							c-2.716,0-4.939-1.539-5.075-3.477v-17.093h5.896V157.512z"/>
						<path fill="#FFFFFF" d="M75.902,192.181v6.496h-1.731H63.209v-1.2c0-2.923,2.505-5.296,5.586-5.296H75.902z"/>
						<path fill="#F5E2B0" d="M75.902,182.635v9.546h-7.106c-3.082,0-5.586,2.373-5.586,5.296v1.2v21.597v0.839l-12.684-0.014
							v-0.432h3.561c0-3.443-1.351-6.571-3.561-8.88c0.005-0.004,0-0.004,0-0.004v-29.148H75.902z"/>
						<path fill="#F5E2B0" d="M75.902,174.59v8.045H50.525v-4.568c2.801,0,5.071-1.638,5.071-3.664c0,2.026,2.275,3.664,5.08,3.664
							s5.071-1.638,5.071-3.664c0,2.026,2.275,3.664,5.08,3.664c2.795,0,5.07-1.638,5.07-3.664
							C75.897,174.464,75.897,174.529,75.902,174.59z"/>
						<path fill="#FFFFFF" d="M75.902,157.497v17.093c-0.005-0.061-0.005-0.126-0.005-0.188v-16.905H75.902z"/>
						<path fill="#F8A68E" d="M75.897,157.497v16.905c0,2.026-2.275,3.664-5.07,3.664c-2.805,0-5.08-1.638-5.08-3.664l4.296-16.905
							H75.897z"/>
						<polygon fill="#91CE9B" points="74.171,198.677 74.171,221.127 63.209,221.112 63.209,220.273 63.209,198.677 						"/>
						<path fill="#F5E2B0" d="M70.043,157.497l-4.296,16.905c0,2.026-2.266,3.664-5.071,3.664s-5.08-1.638-5.08-3.664l7.613-16.905
							H70.043z"/>
						<path fill="#F8A68E" d="M63.209,157.497l-7.613,16.905c0,2.026-2.27,3.664-5.071,3.664c-2.805,0-5.08-1.638-5.08-3.664
							l10.929-16.905H63.209z"/>
						<path fill="#C4E3C7" d="M54.085,220.667h-3.561h-22.21c0-7.116,5.77-12.886,12.886-12.886c3.668,0,6.984,1.534,9.325,4.002
							c0,0,0.005,0,0,0.004C52.734,214.096,54.085,217.224,54.085,220.667z"/>
					</g>
					<g>
						
							<path fill="none" stroke="#58595B" stroke-width="3.0317" stroke-linecap="round" stroke-linejoin="round" stroke-miterlimit="10" d="
							M163.299,160.382c2.997-7.613,8.546-16.942,17.712-28.374"/>
						
							<path fill="none" stroke="#58595B" stroke-width="3.0317" stroke-linecap="round" stroke-linejoin="round" stroke-miterlimit="10" d="
							M181.011,193.972c0,0-12.027-1.064-17.712-9.737"/>
						
							<line fill="none" stroke="#58595B" stroke-width="3.0317" stroke-linecap="round" stroke-linejoin="round" stroke-miterlimit="10" x1="181.011" y1="180.402" x2="185.782" y2="177.203"/>
						
							<path fill="none" stroke="#58595B" stroke-width="3.0317" stroke-linecap="round" stroke-linejoin="round" stroke-miterlimit="10" d="
							M200.708,180.078c-4.024,12.511-19.696,13.894-19.696,13.894"/>
						
							<path fill="none" stroke="#58595B" stroke-width="3.0317" stroke-linecap="round" stroke-linejoin="round" stroke-miterlimit="10" d="
							M181.011,132.008c17.999,22.431,22.042,36.78,20.245,45.945"/>
						
							<line fill="none" stroke="#58595B" stroke-width="3.0317" stroke-linecap="round" stroke-linejoin="round" stroke-miterlimit="10" x1="181.011" y1="169.642" x2="175.472" y2="164.885"/>
						
							<line fill="none" stroke="#58595B" stroke-width="3.0317" stroke-linecap="round" stroke-linejoin="round" stroke-miterlimit="10" x1="181.011" y1="170.467" x2="186.842" y2="166.072"/>
						
							<line fill="none" stroke="#58595B" stroke-width="3.0317" stroke-linecap="round" stroke-linejoin="round" stroke-miterlimit="10" x1="181.011" y1="183.526" x2="175.472" y2="179.407"/>
						
							<path fill="none" stroke="#58595B" stroke-width="3.0317" stroke-linecap="round" stroke-linejoin="round" stroke-miterlimit="10" d="
							M212.439,195.431c0,0-14.63-1.294-11.731-15.353c0.141-0.676,0.319-1.384,0.549-2.125c1.473-4.846,4.86-11.022,11.183-18.903"
							/>
						
							<polyline fill="none" stroke="#58595B" stroke-width="3.0317" stroke-linecap="round" stroke-linejoin="round" stroke-miterlimit="10" points="
							212.439,204.235 212.439,204.23 212.439,202.678 						"/>
						
							<line fill="none" stroke="#58595B" stroke-width="3.0317" stroke-linecap="round" stroke-linejoin="round" stroke-miterlimit="10" x1="212.439" y1="185.426" x2="216.065" y2="183.47"/>
						
							<path fill="none" stroke="#58595B" stroke-width="3.0317" stroke-linecap="round" stroke-linejoin="round" stroke-miterlimit="10" d="
							M212.439,159.05c27.249,33.966,0,36.381,0,36.381"/>
						
							<line fill="none" stroke="#58595B" stroke-width="3.0317" stroke-linecap="round" stroke-linejoin="round" stroke-miterlimit="10" x1="212.439" y1="185.426" x2="209.184" y2="182.635"/>
						
							<line fill="none" stroke="#58595B" stroke-width="3.0317" stroke-linecap="round" stroke-linejoin="round" stroke-miterlimit="10" x1="102.01" y1="221.099" x2="121.599" y2="221.099"/>
						
							<line fill="none" stroke="#58595B" stroke-width="3.0317" stroke-linecap="round" stroke-linejoin="round" stroke-miterlimit="10" x1="75.902" y1="110.182" x2="75.902" y2="157.497"/>
						
							<polyline fill="none" stroke="#58595B" stroke-width="3.0317" stroke-linecap="round" stroke-linejoin="round" stroke-miterlimit="10" points="
							156.042,221.099 163.299,221.099 163.299,220.536 163.299,184.234 163.299,160.382 163.299,110.182 						"/>
						
							<path fill="none" stroke="#58595B" stroke-width="3.0317" stroke-linecap="round" stroke-linejoin="round" stroke-miterlimit="10" d="
							M125.867,200.887v-33.576c0-2.538,2.055-4.593,4.592-4.593h15.076h1.946c2.533,0,4.588,2.055,4.588,4.593v33.576"/>
						
							<polygon fill="none" stroke="#58595B" stroke-width="3.0317" stroke-linecap="round" stroke-linejoin="round" stroke-miterlimit="10" points="
							121.599,221.099 121.599,214.081 121.599,207.684 121.599,202.017 156.042,202.017 156.042,207.684 156.042,214.081 
							156.042,221.099 						"/>
						
							<line fill="none" stroke="#58595B" stroke-width="3.0317" stroke-linecap="round" stroke-linejoin="round" stroke-miterlimit="10" x1="156.042" y1="207.684" x2="121.599" y2="207.684"/>
						
							<line fill="none" stroke="#58595B" stroke-width="3.0317" stroke-linecap="round" stroke-linejoin="round" stroke-miterlimit="10" x1="121.599" y1="214.081" x2="156.042" y2="214.081"/>
						
							<line fill="none" stroke="#58595B" stroke-width="3.0317" stroke-linecap="round" stroke-linejoin="round" stroke-miterlimit="10" x1="145.536" y1="162.718" x2="145.536" y2="200.887"/>
						
							<line fill="none" stroke="#58595B" stroke-width="3.0317" stroke-linecap="round" stroke-linejoin="round" stroke-miterlimit="10" x1="140.976" y1="175.848" x2="140.976" y2="186.739"/>
						
							<polygon fill="none" stroke="#58595B" stroke-width="3.0317" stroke-linecap="round" stroke-linejoin="round" stroke-miterlimit="10" points="
							163.299,110.182 166.24,110.182 168.646,101.34 71.324,101.34 73.73,110.182 75.902,110.182 						"/>
						
							<polyline fill="none" stroke="#58595B" stroke-width="3.0317" stroke-linecap="round" stroke-linejoin="round" stroke-miterlimit="10" points="
							85.996,142.693 85.996,131.862 85.996,120.178 101.907,120.178 101.907,131.862 101.907,142.693 						"/>
						
							<polygon fill="none" stroke="#58595B" stroke-width="3.0317" stroke-linecap="round" stroke-linejoin="round" stroke-miterlimit="10" points="
							101.907,142.693 104.21,142.693 104.21,147.238 83.698,147.238 83.698,142.693 85.996,142.693 						"/>
						
							<polyline fill="none" stroke="#58595B" stroke-width="3.0317" stroke-linecap="round" stroke-linejoin="round" stroke-miterlimit="10" points="
							85.996,131.862 101.907,131.862 102.015,131.862 						"/>
						
							<polyline fill="none" stroke="#58595B" stroke-width="3.0317" stroke-linecap="round" stroke-linejoin="round" stroke-miterlimit="10" points="
							111.645,142.693 111.645,136.544 111.645,120.178 127.556,120.178 127.556,136.544 127.556,142.693 						"/>
						
							<polygon fill="none" stroke="#58595B" stroke-width="3.0317" stroke-linecap="round" stroke-linejoin="round" stroke-miterlimit="10" points="
							127.556,142.693 129.859,142.693 129.859,147.238 109.347,147.238 109.347,142.693 111.645,142.693 						"/>
						
							<polyline fill="none" stroke="#58595B" stroke-width="3.0317" stroke-linecap="round" stroke-linejoin="round" stroke-miterlimit="10" points="
							111.645,136.544 127.556,136.544 127.664,136.544 						"/>
						
							<polyline fill="none" stroke="#58595B" stroke-width="3.0317" stroke-linecap="round" stroke-linejoin="round" stroke-miterlimit="10" points="
							138.434,142.693 138.434,126.782 138.434,120.178 154.345,120.178 154.345,126.782 154.345,142.693 						"/>
						
							<polygon fill="none" stroke="#58595B" stroke-width="3.0317" stroke-linecap="round" stroke-linejoin="round" stroke-miterlimit="10" points="
							154.345,142.693 156.643,142.693 156.643,147.238 136.131,147.238 136.131,142.693 138.434,142.693 						"/>
						
							<polyline fill="none" stroke="#58595B" stroke-width="3.0317" stroke-linecap="round" stroke-linejoin="round" stroke-miterlimit="10" points="
							138.434,126.782 154.345,126.782 154.448,126.782 						"/>
						
							<polyline fill="none" stroke="#58595B" stroke-width="3.0317" stroke-linecap="round" stroke-linejoin="round" stroke-miterlimit="10" points="
							50.525,221.099 63.209,221.112 74.171,221.127 95.026,221.155 102.01,221.164 102.01,221.099 102.01,182.635 102.01,178.066 
													"/>
						<polyline fill="none" stroke="#58595B" stroke-width="3.567" stroke-miterlimit="10" points="50.525,178.066 50.525,182.635 
							50.525,211.783 						"/>
						
							<path fill="none" stroke="#58595B" stroke-width="3.0317" stroke-linecap="round" stroke-linejoin="round" stroke-miterlimit="10" d="
							M95.026,221.141v-0.042v-22.422v-1.2c0-2.923-2.505-5.296-5.586-5.296H75.902h-7.106c-3.082,0-5.586,2.373-5.586,5.296v1.2
							v21.597"/>
						
							<polyline fill="none" stroke="#58595B" stroke-width="3.0317" stroke-linecap="round" stroke-linejoin="round" stroke-miterlimit="10" points="
							106.359,174.402 95.434,157.497 88.632,157.497 81.798,157.497 75.902,157.497 75.897,157.497 70.043,157.497 63.209,157.497 
							56.375,157.497 45.445,174.402 						"/>
						
							<path fill="none" stroke="#58595B" stroke-width="3.0317" stroke-linecap="round" stroke-linejoin="round" stroke-miterlimit="10" d="
							M106.349,174.402c0,1.849-1.89,3.373-4.348,3.626c-0.234,0.023-0.479,0.038-0.722,0.038c-2.805,0-5.08-1.638-5.08-3.664
							c0,2.026-2.275,3.664-5.071,3.664c-2.805,0-5.08-1.638-5.08-3.664c0,2.026-2.266,3.664-5.071,3.664
							c-2.716,0-4.939-1.539-5.075-3.477c-0.005-0.061-0.005-0.126-0.005-0.188c0,2.026-2.275,3.664-5.07,3.664
							c-2.805,0-5.08-1.638-5.08-3.664c0,2.026-2.266,3.664-5.071,3.664s-5.08-1.638-5.08-3.664c0,2.026-2.27,3.664-5.071,3.664
							c-2.805,0-5.08-1.638-5.08-3.664"/>
						
							<line fill="none" stroke="#58595B" stroke-width="3.0317" stroke-linecap="round" stroke-linejoin="round" stroke-miterlimit="10" x1="75.897" y1="174.402" x2="75.897" y2="157.497"/>
						
							<line fill="none" stroke="#58595B" stroke-width="3.0317" stroke-linecap="round" stroke-linejoin="round" stroke-miterlimit="10" x1="65.747" y1="174.402" x2="70.043" y2="157.497"/>
						
							<line fill="none" stroke="#58595B" stroke-width="3.0317" stroke-linecap="round" stroke-linejoin="round" stroke-miterlimit="10" x1="55.596" y1="174.402" x2="63.209" y2="157.497"/>
						
							<polyline fill="none" stroke="#58595B" stroke-width="3.0317" stroke-linecap="round" stroke-linejoin="round" stroke-miterlimit="10" points="
							86.1,174.421 86.095,174.397 81.798,157.512 						"/>
						
							<polyline fill="none" stroke="#58595B" stroke-width="3.0317" stroke-linecap="round" stroke-linejoin="round" stroke-miterlimit="10" points="
							96.25,174.421 96.236,174.389 88.632,157.512 						"/>
						
							<polyline fill="none" stroke="#58595B" stroke-width="3.0317" stroke-linecap="round" stroke-linejoin="round" stroke-miterlimit="10" points="
							63.209,198.677 74.171,198.677 75.902,198.677 95.026,198.677 						"/>
						
							<polyline fill="none" stroke="#58595B" stroke-width="3.0317" stroke-linecap="round" stroke-linejoin="round" stroke-miterlimit="10" points="
							74.171,198.677 74.171,221.127 74.171,221.141 						"/>
						
							<polyline fill="none" stroke="#58595B" stroke-width="3.0317" stroke-linecap="round" stroke-linejoin="round" stroke-miterlimit="10" points="
							212.439,179.661 212.439,185.426 212.439,185.913 212.439,187.462 212.439,195.431 212.439,202.678 						"/>
						<path fill="none" stroke="#58595B" stroke-width="3.567" stroke-miterlimit="10" d="M187.963,214.606
							c-1.463-2.823-3.94-5.038-6.952-6.159c-1.402-0.529-2.927-0.815-4.517-0.815c-7.13,0-12.909,5.778-12.909,12.904h23.261"/>
						<path fill="none" stroke="#58595B" stroke-width="3.567" stroke-miterlimit="10" d="M50.525,220.667h3.561
							c0-3.443-1.351-6.571-3.561-8.88c0.005-0.004,0-0.004,0-0.004c-2.34-2.468-5.657-4.002-9.325-4.002
							c-7.116,0-12.886,5.77-12.886,12.886H50.525z"/>
						
							<polyline fill="none" stroke="#58595B" stroke-width="3.0317" stroke-linecap="round" stroke-linejoin="round" stroke-miterlimit="10" points="
							181.011,169.642 181.011,170.467 181.011,180.402 181.011,183.526 181.011,193.972 181.011,208.447 181.011,208.593 						"/>
						<path fill="none" stroke="#58595B" stroke-width="3.567" stroke-miterlimit="10" d="M186.847,220.536
							c-0.005,0.121-0.005,0.243-0.005,0.365h36.447c0-7.439-4.456-13.838-10.85-16.671c-2.251-0.999-4.747-1.553-7.369-1.553
							c-7.857,0-14.546,4.968-17.107,11.929C187.278,216.459,186.889,218.453,186.847,220.536z"/>
					</g>
				</g>
			</g>
		</g>
	</g>
	<g>
		<path fill="#58BC72" d="M311.094,146.249c10.236-10.236,10.236-26.828,0-37.064c-10.229-10.236-26.83-10.236-37.059,0
			c-10.236,10.236-10.236,26.828,0,37.064l18.533,18.529L311.094,146.249z"/>
	</g>
	<path fill="#FFFFFF" d="M301.688,137.022c-5.092,5.096-13.346,5.096-18.434,0c-5.091-5.086-5.091-13.342,0-18.432
		c5.088-5.088,13.342-5.088,18.434,0C306.782,123.681,306.782,131.937,301.688,137.022z"/>
	
		<polyline fill="none" stroke="#58595B" stroke-width="3.0317" stroke-linecap="round" stroke-linejoin="round" stroke-miterlimit="10" points="
		41.256,155.677 23.605,155.694 23.605,161.399 	"/>
	
		<path fill="#F5E2B0" stroke="#58595B" stroke-width="3.0317" stroke-linecap="round" stroke-linejoin="round" stroke-miterlimit="10" d="
		M28.605,166.396c0,2.762-2.238,5-5,5c-2.758,0-4.996-2.238-4.996-5c0-2.76,2.237-4.996,4.996-4.996
		C26.368,161.399,28.605,163.636,28.605,166.396z"/>
	
		<line fill="none" stroke="#58595B" stroke-width="3.0317" stroke-linecap="round" stroke-linejoin="round" stroke-miterlimit="10" x1="37.344" y1="207.983" x2="37.344" y2="149.991"/>
	<defs>
		<filter id="Adobe_OpacityMaskFilter_1_" filterUnits="userSpaceOnUse" x="252.371" y="169.416" width="86.178" height="51.011">
			<feColorMatrix  type="matrix" values="1 0 0 0 0  0 1 0 0 0  0 0 1 0 0  0 0 0 1 0"/>
		</filter>
	</defs>
	<mask maskUnits="userSpaceOnUse" x="252.371" y="169.416" width="86.178" height="51.011" id="SVGID_2_">
		<g filter="url(#Adobe_OpacityMaskFilter_1_)">
			<rect x="250.935" y="169.126" fill="#FFFFFF" width="90.49" height="52.404"/>
			
				<path fill="none" stroke="#000000" stroke-width="8.1855" stroke-linecap="round" stroke-linejoin="round" stroke-miterlimit="10" d="
				M282.366,221.339v-19.145c0-7.32,5.342-13.25,13.246-13.25l0,0c7.318,0,13.248,5.93,13.248,13.25v19.145"/>
		</g>
	</mask>
	<g mask="url(#SVGID_2_)">
		
			<circle fill="none" stroke="#58595B" stroke-width="3.0317" stroke-linecap="round" stroke-linejoin="round" stroke-miterlimit="10" cx="269.054" cy="203.743" r="15.168"/>
		
			<circle fill="none" stroke="#58595B" stroke-width="3.0317" stroke-linecap="round" stroke-linejoin="round" stroke-miterlimit="10" cx="321.864" cy="203.743" r="15.168"/>
		
			<path fill="none" stroke="#58595B" stroke-width="3.0317" stroke-linecap="round" stroke-linejoin="round" stroke-miterlimit="10" d="
			M272.3,203.743c0,1.795-1.454,3.25-3.247,3.25c-1.794,0-3.246-1.455-3.246-3.25c0-1.791,1.452-3.246,3.246-3.246
			C270.846,200.497,272.3,201.952,272.3,203.743z"/>
		
			<circle fill="none" stroke="#58595B" stroke-width="3.0317" stroke-linecap="round" stroke-linejoin="round" stroke-miterlimit="10" cx="294.836" cy="203.743" r="4.956"/>
		
			<circle fill="none" stroke="#58595B" stroke-width="3.0317" stroke-linecap="round" stroke-linejoin="round" stroke-miterlimit="10" cx="321.865" cy="203.575" r="3.247"/>
		
			<line fill="none" stroke="#58595B" stroke-width="3.0317" stroke-linecap="round" stroke-linejoin="round" stroke-miterlimit="10" x1="269.053" y1="200.497" x2="294.837" y2="198.786"/>
		
			<line fill="none" stroke="#58595B" stroke-width="3.0317" stroke-linecap="round" stroke-linejoin="round" stroke-miterlimit="10" x1="269.053" y1="206.993" x2="294.837" y2="208.702"/>
		
			<line fill="none" stroke="#58595B" stroke-width="3.0317" stroke-linecap="round" stroke-linejoin="round" stroke-miterlimit="10" x1="266.114" y1="202.37" x2="279.854" y2="180.448"/>
		
			<polyline fill="none" stroke="#58595B" stroke-width="3.0317" stroke-linecap="round" stroke-linejoin="round" stroke-miterlimit="10" points="
			320.841,200.497 309.632,170.933 302.718,170.933 		"/>
		
			<line fill="none" stroke="#58595B" stroke-width="3.0317" stroke-linecap="round" stroke-linejoin="round" stroke-miterlimit="10" x1="292.611" y1="199.313" x2="277.558" y2="177.052"/>
		
			<line fill="none" stroke="#58595B" stroke-width="3.0317" stroke-linecap="round" stroke-linejoin="round" stroke-miterlimit="10" x1="297.579" y1="199.614" x2="313.302" y2="182.456"/>
		
			<path fill="none" stroke="#58595B" stroke-width="3.0317" stroke-linecap="round" stroke-linejoin="round" stroke-miterlimit="10" d="
			M284.179,174.894c0,1.191-0.965,2.156-2.155,2.156h-7.835c-1.191,0-2.156-0.965-2.156-2.156l0,0c0-1.189,0.965-2.154,2.156-2.154
			h7.835C283.214,172.739,284.179,173.704,284.179,174.894L284.179,174.894z"/>
		
			<line fill="none" stroke="#58595B" stroke-width="3.0317" stroke-linecap="round" stroke-linejoin="round" stroke-miterlimit="10" x1="311.779" y1="176.593" x2="301.974" y2="187.384"/>
		
			<path fill="none" stroke="#58595B" stroke-width="3.0317" stroke-linecap="round" stroke-linejoin="round" stroke-miterlimit="10" d="
			M279.854,180.448c0,0,10.871,18.469,22.119,6.936"/>
		
			<line fill="none" stroke="#58595B" stroke-width="3.0317" stroke-linecap="round" stroke-linejoin="round" stroke-miterlimit="10" x1="294.835" y1="203.743" x2="300.777" y2="213.286"/>
		
			<line fill="none" stroke="#58595B" stroke-width="3.0317" stroke-linecap="round" stroke-linejoin="round" stroke-miterlimit="10" x1="296.944" y1="213.931" x2="304.254" y2="213.931"/>
	</g>
	
		<path fill="none" stroke="#58595B" stroke-width="3.0317" stroke-linecap="round" stroke-linejoin="round" stroke-miterlimit="10" d="
		M309.188,221.271v-19.254c0-7.357-5.965-13.324-13.322-13.324l0,0c-7.949,0-13.32,5.967-13.32,13.324v19.254H309.188z"/>
	
		<path fill="none" stroke="#58595B" stroke-width="3.0317" stroke-linecap="round" stroke-linejoin="round" stroke-miterlimit="10" d="
		M364.732,221.271v-15.06c0-5.754-4.665-10.421-10.419-10.421l0,0c-6.218,0-10.418,4.667-10.418,10.421v15.06"/>
	
		<path fill="none" stroke="#58595B" stroke-width="3.0317" stroke-linecap="round" stroke-linejoin="round" stroke-miterlimit="10" d="
		M389.378,221.271v-12.049c0-4.604-3.732-8.337-8.336-8.337l0,0c-4.975,0-8.335,3.733-8.335,8.337v12.049"/>
</g>
<g id="SOMBRA">
	<polygon fill="#83BB8E" points="74.193,105.761 165.86,105.761 165.082,108.751 74.915,108.751 	"/>
	<rect x="77.415" y="111.751" fill="#C8C8C8" width="84.333" height="3.625"/>
	<rect x="83.698" y="149.626" fill="#C4C4C3" width="20.513" height="2.156"/>
	<rect x="87.448" y="121.751" fill="#DEDDDD" width="12.884" height="0.707"/>
	<rect x="113.212" y="121.751" fill="#DEDDDD" width="12.884" height="0.707"/>
	<rect x="139.947" y="121.751" fill="#DEDDDD" width="12.884" height="0.707"/>
	<rect x="113.212" y="138.146" fill="#DEDDDD" width="12.884" height="0.709"/>
	<rect x="75.624" y="200.231" fill="#A1C4A2" width="17.845" height="2.156"/>
	<polygon fill="#C4C4C3" points="91.717,194.337 66.541,194.337 68.593,193.659 90.18,193.782 	"/>
	<rect x="64.676" y="200.231" fill="#759E7A" width="8.031" height="2.156"/>
	<rect x="109.398" y="149.626" fill="#C4C4C3" width="20.513" height="2.156"/>
	<rect x="136.356" y="149.626" fill="#C4C4C3" width="20.513" height="2.156"/>
	<rect x="123.106" y="204.235" fill="#939393" width="31.423" height="2.156"/>
	<rect x="123.106" y="210.479" fill="#939393" width="31.423" height="2.156"/>
	<rect x="118.104" y="217.479" fill="#939393" width="31.423" height="2.156"/>
	<path fill="#AFCBB1" d="M33.499,212.636l18.583,6.365H30.311C30.311,219.001,30.499,215.46,33.499,212.636z"/>
	<path fill="#AFCBB1" d="M168.491,213.245l16.805,5.756h-19.688C165.609,219.001,165.778,215.798,168.491,213.245z"/>
	<path fill="#83BB8E" d="M193.24,209.421l27.973,9.58h-32.771C188.442,219.001,188.724,213.671,193.24,209.421z"/>
	<g>
		<g>
			<path fill="#E2D3B3" d="M101.273,179.507c-2.8,0-5.08-1.639-5.08-3.66c0,2.021-2.27,3.66-5.07,3.66c-2.81,0-5.08-1.639-5.08-3.66
				c0,2.021-2.27,3.66-5.07,3.66c-2.81,0-5.08-1.639-5.08-3.66c0,2.021-2.28,3.66-5.07,3.66c-2.81,0-5.08-1.639-5.08-3.66
				c0,2.021-2.27,3.66-5.07,3.66c-2.81,0-5.08-1.639-5.08-3.66c0,2.021-2.27,3.66-5.07,3.66"/>
			<rect x="52.082" y="179.507" fill="#E2D3B3" width="48.418" height="2.568"/>
		</g>
	</g>
	<path fill="#52AD6B" d="M181.011,134.376c0,0,41.737,48.26,1.862,57.805C182.874,192.181,212.439,172.644,181.011,134.376z"/>
	<path fill="#AFCBB1" d="M212.686,161.804c0,0,22.405,26.197,1.125,31.697C213.811,193.501,227.999,182.636,212.686,161.804z"/>
	<rect x="87.448" y="133.267" fill="#DEDDDD" width="12.884" height="0.709"/>
	<rect x="139.947" y="128.313" fill="#DEDDDD" width="12.884" height="0.707"/>
</g>
<g id="REFLEXO">
	<polygon fill="#F3E8D3" points="94.005,133.329 96.447,133.329 99.474,141.126 96.912,141.126 	"/>
	<polygon fill="#F3E8D3" points="88.089,133.329 90.531,133.329 93.557,141.126 90.995,141.126 	"/>
	<polygon fill="#F3E8D3" points="143.947,128.313 146.389,128.313 152.036,141.126 149.474,141.126 	"/>
	<polygon fill="#F3E8D3" points="139.959,128.313 140.371,128.313 146.119,141.126 143.557,141.126 139.959,132.794 	"/>
	
		<line fill="none" stroke="#F9F9FA" stroke-width="1.3301" stroke-miterlimit="10" x1="78.124" y1="115.376" x2="78.124" y2="155.677"/>
	
		<line fill="none" stroke="#F9F9FA" stroke-width="0.9201" stroke-miterlimit="10" x1="65.061" y1="200.231" x2="65.061" y2="219.517"/>
	
		<line fill="none" stroke="#F9F9FA" stroke-width="1.0603" stroke-miterlimit="10" x1="52.832" y1="182.075" x2="52.832" y2="207.685"/>
	
		<line fill="none" stroke="#F9F9FA" stroke-width="1.2625" stroke-miterlimit="10" x1="152.332" y1="128.313" x2="152.332" y2="141.126"/>
	
		<line fill="none" stroke="#F9F9FA" stroke-width="1.2625" stroke-miterlimit="10" x1="125.249" y1="138.146" x2="125.249" y2="141.126"/>
	
		<line fill="none" stroke="#F9F9FA" stroke-width="1.2625" stroke-miterlimit="10" x1="99.811" y1="133.329" x2="99.811" y2="141.126"/>
	
		<line fill="none" stroke="#F9F9FA" stroke-width="0.9201" stroke-miterlimit="10" x1="76.124" y1="200.267" x2="76.124" y2="219.552"/>
	<g>
		
			<line fill="none" stroke="#58595B" stroke-width="3.0317" stroke-linecap="round" stroke-linejoin="round" stroke-miterlimit="10" x1="233.321" y1="220.066" x2="233.321" y2="148.986"/>
		
			<polyline fill="none" stroke="#58595B" stroke-width="3.0317" stroke-linecap="round" stroke-linejoin="round" stroke-miterlimit="10" points="
			229.404,155.742 247.055,155.76 247.055,161.465 		"/>
		
			<path fill="#F5E2B0" stroke="#58595B" stroke-width="3.0317" stroke-linecap="round" stroke-linejoin="round" stroke-miterlimit="10" d="
			M242.055,166.461c0,2.762,2.242,5,5,5c2.763,0,4.996-2.238,4.996-5c0-2.76-2.233-4.996-4.996-4.996
			C244.297,161.465,242.055,163.701,242.055,166.461z"/>
		<path fill="none" stroke="#F9F9FA" stroke-width="1.2625" stroke-miterlimit="10" d="M247.939,168.682
			c-1.642,0-2.973-1.332-2.973-2.975"/>
	</g>
	<path fill="none" stroke="#F9F9FA" stroke-width="1.2625" stroke-miterlimit="10" d="M24.354,168.753
		c-1.642,0-2.973-1.332-2.973-2.975"/>
</g>
<g id="PONTOS">
</g>
</svg>
