<svg id="Layer_1" data-name="Layer 1" xmlns="http://www.w3.org/2000/svg" xmlns:xlink="http://www.w3.org/1999/xlink" viewBox="0 0 372.56 173.9"><defs><style>.cls-1{fill:#fff;}.cls-11,.cls-2,.cls-3,.cls-5,.cls-6,.cls-8,.cls-9{fill:none;stroke-linecap:round;stroke-linejoin:round;}.cls-2,.cls-5,.cls-6{stroke:#000;}.cls-2{stroke-width:9.01px;}.cls-3{stroke:#fff;stroke-width:6.01px;}.cls-4{mask:url(#mask);}.cls-5{stroke-width:18px;}.cls-6{stroke-width:12px;}.cls-7{mask:url(#mask-2);}.cls-8{stroke:#e6e6e6;}.cls-11,.cls-8,.cls-9{stroke-width:4px;}.cls-9{stroke:#47b870;}.cls-10{mask:url(#mask-3);}.cls-11{stroke:#828b90;}.cls-12{filter:url(#luminosity-noclip);}</style><mask id="mask" x="26.17" y="74.57" width="263.63" height="154.78" maskUnits="userSpaceOnUse"><g id="SVGID"><g id="_Group_" data-name="&lt;Group&gt;"><path class="cls-1" d="M286.79,77.58V226.35H29.18V77.58Zm-68.32,95.49V142.31L180,173.07Z"/><polygon points="218.47 142.31 218.47 173.07 179.98 173.07 218.47 142.31"/><rect class="cls-3" x="29.18" y="77.58" width="257.62" height="148.77"/></g></g></mask><filter id="luminosity-noclip" x="0.12" y="-9.21" width="372.33" height="260.73" filterUnits="userSpaceOnUse" color-interpolation-filters="sRGB"><feFlood flood-color="#fff" result="bg"/><feBlend in="SourceGraphic" in2="bg"/></filter><mask id="mask-2" x="0.12" y="-9.21" width="372.33" height="260.73" maskUnits="userSpaceOnUse"><g class="cls-12"><g id="SVGID-2" data-name="SVGID"><g id="_Group_2" data-name="&lt;Group&gt;"><path class="cls-1" d="M372.45-9.21V251.52H.12V-9.21ZM19.64,170.12h76c-1.06-12.62-12.45-8.07-12.45-8.07-7.6-12.81-17.58-1.46-17.58-1.46C53.3,141.34,42.79,160,42.79,160,26.18,149.24,19.64,170.12,19.64,170.12Z"/><path d="M95.6,170.12h-76S26.18,149.24,42.79,160c0,0,10.51-18.64,22.78.61,0,0,10-11.35,17.58,1.46C83.15,162.05,94.54,157.5,95.6,170.12Z"/><path class="cls-2" d="M95.6,170.12c-1.06-12.62-12.45-8.07-12.45-8.07-7.6-12.81-17.58-1.46-17.58-1.46C53.3,141.34,42.79,160,42.79,160c-16.61-10.74-23.15,10.14-23.15,10.14Z"/></g></g><g class="cls-4"><circle class="cls-5" cx="143.93" cy="154.19" r="16.16"/><circle class="cls-5" cx="200.2" cy="154.19" r="16.16"/><circle class="cls-5" cx="143.93" cy="154.19" r="3.46"/><circle class="cls-5" cx="171.4" cy="154.19" r="5.28"/><circle class="cls-5" cx="200.2" cy="154.01" r="3.46"/><line class="cls-5" x1="143.93" y1="150.73" x2="171.4" y2="148.91"/><line class="cls-5" x1="143.93" y1="157.65" x2="171.4" y2="159.47"/><line class="cls-5" x1="140.8" y1="152.72" x2="155.44" y2="129.37"/><polyline class="cls-5" points="199.11 150.73 187.16 119.23 179.8 119.23"/><line class="cls-5" x1="169.03" y1="149.47" x2="152.99" y2="125.75"/><line class="cls-5" x1="174.32" y1="149.79" x2="191.07" y2="131.51"/><path class="cls-5" d="M160.05,123.45a2.3,2.3,0,0,1-2.3,2.3H149.4a2.29,2.29,0,0,1-2.29-2.3h0a2.28,2.28,0,0,1,2.29-2.29h8.35a2.29,2.29,0,0,1,2.3,2.29Z"/><line class="cls-5" x1="171.4" y1="154.19" x2="176.8" y2="164.36"/><line class="cls-5" x1="173.66" y1="165.06" x2="180.36" y2="165.06"/><line class="cls-5" x1="189.45" y1="125.26" x2="179.01" y2="136.76"/><path class="cls-5" d="M155.44,129.37S167,149,179,136.76"/><path class="cls-5" d="M204.35,143.21s6,1,7.68,8.52"/><path class="cls-5" d="M140.8,165.17s-6-1-7.68-8.53"/></g><g id="_Group_3" data-name="&lt;Group&gt;"><polygon class="cls-5" points="185.02 172.53 223.51 172.53 223.51 143.17 185.02 172.53"/></g></g></mask><mask id="mask-3" x="123.72" y="105.48" width="104.16" height="77.61" maskUnits="userSpaceOnUse"><polygon class="cls-1" points="227.88 105.48 227.88 183.09 123.72 180.12 123.72 105.48 227.88 105.48"/><path class="cls-6" d="M158.35,170.32V147.53a15.77,15.77,0,0,1,31.53,0v22.79"/></mask></defs><title>Artboard 1</title><g class="cls-7"><g id="City"><polyline class="cls-8" points="178.51 171.77 178.51 126.85 178.51 91.45 214.47 62.26 249.66 90.53 249.66 126.85 249.66 171.77"/><line class="cls-8" x1="249.66" y1="149.11" x2="283.5" y2="149.11"/><circle class="cls-8" cx="214.61" cy="88.94" r="7.11"/><line class="cls-8" x1="352.25" y1="171.77" x2="352.25" y2="119.08"/><line class="cls-8" x1="283.96" y1="119.08" x2="283.96" y2="171.77"/><path class="cls-8" d="M343,144.83a7.22,7.22,0,0,0-7.41-7H308.2a7.22,7.22,0,0,0-7.41,7v26.94H343V144.83Z"/><polyline class="cls-8" points="358.02 114.23 343.52 91.8 291.71 91.8 277.22 114.23"/><path class="cls-8" d="M358,114.23c0,2.68-3,4.85-6.73,4.85s-6.74-2.17-6.74-4.85c0,2.68-3,4.85-6.73,4.85s-6.73-2.17-6.73-4.85c0,2.68-3,4.85-6.73,4.85s-6.73-2.17-6.73-4.85c0,2.68-3,4.85-6.73,4.85s-6.74-2.17-6.74-4.85c0,2.68-3,4.85-6.73,4.85s-6.73-2.17-6.73-4.85c0,2.68-3,4.85-6.73,4.85s-6.73-2.17-6.73-4.85"/><line class="cls-8" x1="317.62" y1="114.23" x2="317.62" y2="91.8"/><line class="cls-8" x1="304.15" y1="114.23" x2="309.84" y2="91.8"/><line class="cls-8" x1="290.69" y1="114.23" x2="300.79" y2="91.8"/><line class="cls-8" x1="331.14" y1="114.25" x2="325.45" y2="91.82"/><line class="cls-8" x1="344.61" y1="114.25" x2="334.5" y2="91.82"/><path class="cls-8" d="M150.24,171.77V8a6,6,0,0,0-6-6H75.08a6,6,0,0,0-6,6V171.77"/><path class="cls-8" d="M96.68,23.14a1.76,1.76,0,0,1-1.76,1.76H79.38a1.76,1.76,0,0,1-1.76-1.76V11.91a1.76,1.76,0,0,1,1.76-1.76H94.92a1.76,1.76,0,0,1,1.76,1.76Z"/><path class="cls-8" d="M96.68,46.43a1.76,1.76,0,0,1-1.76,1.76H79.38a1.76,1.76,0,0,1-1.76-1.76V35.2a1.76,1.76,0,0,1,1.76-1.76H94.92a1.76,1.76,0,0,1,1.76,1.76Z"/><path class="cls-8" d="M96.68,69.71a1.76,1.76,0,0,1-1.76,1.76H79.38a1.76,1.76,0,0,1-1.76-1.76V58.48a1.76,1.76,0,0,1,1.76-1.76H94.92a1.76,1.76,0,0,1,1.76,1.76Z"/><path class="cls-8" d="M96.68,93a1.76,1.76,0,0,1-1.76,1.76H79.38A1.76,1.76,0,0,1,77.62,93V81.77A1.76,1.76,0,0,1,79.38,80H94.92a1.76,1.76,0,0,1,1.76,1.76Z"/><path class="cls-8" d="M96.68,116.28a1.77,1.77,0,0,1-1.76,1.77H79.38a1.77,1.77,0,0,1-1.76-1.77V105.05a1.76,1.76,0,0,1,1.76-1.76H94.92a1.76,1.76,0,0,1,1.76,1.76Z"/><path class="cls-8" d="M35.08,167.57V146.12s-56.57-5,0-75.52"/><path class="cls-8" d="M35.08,146.12s56.57-5,0-75.52"/><line class="cls-8" x1="272.45" y1="141.24" x2="272.45" y2="171.77"/><line class="cls-8" x1="260.72" y1="141.24" x2="260.72" y2="171.77"/></g></g><g id="Elements"><line class="cls-8" x1="370.56" y1="171.9" x2="2" y2="171.9"/><path class="cls-8" d="M95.09,171.37C94,158.75,82.64,163.3,82.64,163.3c-7.6-12.81-17.58-1.46-17.58-1.46-12.27-19.25-22.78-.61-22.78-.61-16.61-10.74-23.14,10.14-23.14,10.14Z"/><path class="cls-8" d="M164.87,59.41a5.38,5.38,0,1,1,10.75,0"/><path class="cls-8" d="M175.62,59.41a5.37,5.37,0,1,1,10.74,0"/><path class="cls-8" d="M196.62,17.53a5.38,5.38,0,1,1,10.75,0"/><path class="cls-8" d="M207.37,17.53a5.38,5.38,0,1,1,10.75,0"/><path class="cls-8" d="M294.46,73.28a5.37,5.37,0,0,1,10.74,0"/><path class="cls-8" d="M305.2,73.28a5.38,5.38,0,0,1,10.75,0"/><line class="cls-8" x1="115.79" y1="171.45" x2="115.79" y2="108.66"/><circle class="cls-8" cx="115.79" cy="102.75" r="5.92"/><line class="cls-8" x1="110.35" y1="111.31" x2="121.3" y2="111.31"/><line class="cls-8" x1="264.26" y1="61.2" x2="264.26" y2="70.81"/><line class="cls-8" x1="264.26" y1="25.56" x2="264.26" y2="35.5"/><line class="cls-8" x1="251.51" y1="48.19" x2="241.64" y2="48.19"/><line class="cls-8" x1="286.89" y1="48.19" x2="277.08" y2="48.19"/><line class="cls-8" x1="273.27" y1="57.2" x2="280.26" y2="64.19"/><line class="cls-8" x1="248.26" y1="32.19" x2="255.12" y2="39.05"/><line class="cls-8" x1="255.16" y1="57.3" x2="248.26" y2="64.19"/><line class="cls-8" x1="280.26" y1="32.19" x2="273.31" y2="39.14"/><circle class="cls-8" cx="264.26" cy="48.19" r="12.1"/></g><g id="Bike"><path class="cls-9" d="M158.35,170.48V147.7a15.77,15.77,0,0,1,15.76-15.77h0a15.77,15.77,0,0,1,15.77,15.77v22.78"/><g class="cls-10"><circle class="cls-11" cx="146.83" cy="152.89" r="16.26"/><path class="cls-11" d="M219.72,152.89a16.27,16.27,0,1,1-16.27-16.26A16.27,16.27,0,0,1,219.72,152.89Z"/><path class="cls-11" d="M150.31,152.89a3.48,3.48,0,1,1-3.48-3.48A3.48,3.48,0,0,1,150.31,152.89Z"/><path class="cls-11" d="M179.79,152.89a5.32,5.32,0,1,1-5.31-5.31A5.31,5.31,0,0,1,179.79,152.89Z"/><circle class="cls-11" cx="203.45" cy="152.71" r="3.48"/><line class="cls-11" x1="146.83" y1="149.41" x2="174.48" y2="147.58"/><line class="cls-11" x1="146.83" y1="156.37" x2="174.48" y2="158.2"/><line class="cls-11" x1="143.68" y1="151.42" x2="158.41" y2="127.91"/><polyline class="cls-11" points="202.35 149.41 190.34 117.71 182.92 117.71"/><line class="cls-11" x1="172.09" y1="148.14" x2="155.95" y2="124.27"/><line class="cls-11" x1="177.41" y1="148.46" x2="194.27" y2="130.07"/><path class="cls-11" d="M163.05,122a2.32,2.32,0,0,1-2.31,2.31h-8.4A2.32,2.32,0,0,1,150,122h0a2.31,2.31,0,0,1,2.32-2.31h8.4a2.31,2.31,0,0,1,2.31,2.31Z"/><line class="cls-11" x1="192.64" y1="123.78" x2="182.13" y2="135.35"/><path class="cls-11" d="M158.41,127.91s11.66,19.8,23.72,7.44"/></g></g></svg>