<?xml version="1.0" encoding="utf-8"?>
<!-- Generator: Adobe Illustrator 22.1.0, SVG Export Plug-In . SVG Version: 6.00 Build 0)  -->
<svg version="1.1" id="Layer_1" xmlns="http://www.w3.org/2000/svg" xmlns:xlink="http://www.w3.org/1999/xlink" x="0px" y="0px"
	 viewBox="0 0 372.6 173.9" style="enable-background:new 0 0 372.6 173.9;" xml:space="preserve">
<style type="text/css">
	.st0{opacity:0.8;}
	.st1{fill:none;stroke:#E6E6E6;stroke-width:4;stroke-linecap:round;stroke-linejoin:round;}
	.st2{fill:none;stroke:#FFFFFF;stroke-width:4;stroke-linecap:round;stroke-linejoin:round;}
</style>
<title>Artboard 1</title>
<g class="st0">
	<g id="City">
		<polyline class="st1" points="178.5,171.8 178.5,126.8 178.5,91.4 214.5,62.3 249.7,90.5 249.7,126.8 249.7,171.8 		"/>
		<line class="st1" x1="249.7" y1="149.1" x2="283.5" y2="149.1"/>
		<circle class="st1" cx="214.6" cy="88.9" r="7.1"/>
		<line class="st1" x1="352.2" y1="171.8" x2="352.2" y2="119.1"/>
		<line class="st1" x1="284" y1="119.1" x2="284" y2="171.8"/>
		<path class="st1" d="M343,144.8c-0.1-4-3.4-7.1-7.4-7h-27.4c-4-0.1-7.3,3-7.4,7v26.9H343V144.8z"/>
		<polyline class="st1" points="358,114.2 343.5,91.8 291.7,91.8 277.2,114.2 		"/>
		<path class="st1" d="M358,114.2c0,2.7-3,4.8-6.7,4.8s-6.7-2.2-6.7-4.8c0,2.7-3,4.8-6.7,4.8s-6.7-2.2-6.7-4.8c0,2.7-3,4.8-6.7,4.8
			s-6.7-2.2-6.7-4.8c0,2.7-3,4.8-6.7,4.8s-6.7-2.2-6.7-4.8c0,2.7-3,4.8-6.7,4.8s-6.7-2.2-6.7-4.8c0,2.7-3,4.8-6.7,4.8
			s-6.7-2.2-6.7-4.8"/>
		<line class="st1" x1="317.6" y1="114.2" x2="317.6" y2="91.8"/>
		<line class="st1" x1="304.1" y1="114.2" x2="309.8" y2="91.8"/>
		<line class="st1" x1="290.7" y1="114.2" x2="300.8" y2="91.8"/>
		<line class="st1" x1="331.1" y1="114.2" x2="325.5" y2="91.8"/>
		<line class="st1" x1="344.6" y1="114.2" x2="334.5" y2="91.8"/>
		<path class="st1" d="M150.2,171.8V8c0-3.3-2.7-6-6-6H75.1c-3.3,0-6,2.7-6,6v163.8"/>
		<path class="st1" d="M96.7,23.1c0,1-0.8,1.8-1.8,1.8l0,0H79.4c-1,0-1.8-0.8-1.8-1.8v0V11.9c0-1,0.8-1.8,1.8-1.8l0,0h15.5
			c1,0,1.8,0.8,1.8,1.8c0,0,0,0,0,0V23.1z"/>
		<path class="st1" d="M96.7,46.4c0,1-0.8,1.8-1.8,1.8l0,0H79.4c-1,0-1.8-0.8-1.8-1.8l0,0V35.2c0-1,0.8-1.8,1.8-1.8l0,0h15.5
			c1,0,1.8,0.8,1.8,1.8l0,0V46.4z"/>
		<path class="st1" d="M96.7,69.7c0,1-0.8,1.8-1.8,1.8c0,0,0,0,0,0H79.4c-1,0-1.8-0.8-1.8-1.8c0,0,0,0,0,0V58.5c0-1,0.8-1.8,1.8-1.8
			l0,0h15.5c1,0,1.8,0.8,1.8,1.8l0,0V69.7z"/>
		<path class="st1" d="M96.7,93c0,1-0.8,1.8-1.8,1.8c0,0,0,0,0,0H79.4c-1,0-1.8-0.8-1.8-1.8V81.8c0-1,0.8-1.8,1.7-1.8c0,0,0,0,0,0
			h15.5c1,0,1.8,0.8,1.8,1.8c0,0,0,0,0,0V93z"/>
		<path class="st1" d="M96.7,116.3c0,1-0.8,1.8-1.8,1.8H79.4c-1,0-1.8-0.8-1.8-1.8v-11.2c0-1,0.8-1.8,1.8-1.8c0,0,0,0,0,0h15.5
			c1,0,1.8,0.8,1.8,1.8c0,0,0,0,0,0V116.3z"/>
		<path class="st1" d="M35.1,167.6v-21.5c0,0-56.6-5,0-75.5"/>
		<path class="st1" d="M35.1,146.1c0,0,56.6-5,0-75.5"/>
		<line class="st1" x1="272.5" y1="141.2" x2="272.5" y2="171.8"/>
		<line class="st1" x1="260.7" y1="141.2" x2="260.7" y2="171.8"/>
	</g>
</g>
<g id="Elements" class="st0">
	<line class="st1" x1="370.6" y1="171.9" x2="2" y2="171.9"/>
	<path class="st1" d="M95.1,171.4c-1.1-12.6-12.4-8.1-12.4-8.1c-7.6-12.8-17.6-1.5-17.6-1.5c-12.3-19.2-22.8-0.6-22.8-0.6
		c-16.6-10.7-23.1,10.1-23.1,10.1H95.1z"/>
	<path class="st1" d="M164.9,59.4c-0.1-3,2.2-5.5,5.1-5.6c3-0.1,5.5,2.2,5.6,5.1c0,0.2,0,0.3,0,0.5"/>
	<path class="st1" d="M175.6,59.4c0-3,2.4-5.4,5.4-5.4c3,0,5.4,2.4,5.4,5.4"/>
	<path class="st1" d="M196.6,17.5c-0.1-3,2.2-5.5,5.1-5.6c3-0.1,5.5,2.2,5.6,5.1c0,0.2,0,0.3,0,0.5"/>
	<path class="st1" d="M207.4,17.5c-0.1-3,2.2-5.5,5.1-5.6c3-0.1,5.5,2.2,5.6,5.1c0,0.2,0,0.3,0,0.5"/>
	<path class="st1" d="M294.5,73.3c0-3,2.4-5.4,5.4-5.4c3,0,5.4,2.4,5.4,5.4"/>
	<path class="st1" d="M305.2,73.3c0.1-3,2.6-5.3,5.6-5.1c2.8,0.1,5,2.4,5.1,5.1"/>
	<line class="st1" x1="115.8" y1="171.4" x2="115.8" y2="108.7"/>
	<circle class="st1" cx="115.8" cy="102.8" r="5.9"/>
	<line class="st1" x1="110.3" y1="111.3" x2="121.3" y2="111.3"/>
	<line class="st1" x1="264.3" y1="61.2" x2="264.3" y2="70.8"/>
	<line class="st1" x1="264.3" y1="25.6" x2="264.3" y2="35.5"/>
	<line class="st1" x1="251.5" y1="48.2" x2="241.6" y2="48.2"/>
	<line class="st1" x1="286.9" y1="48.2" x2="277.1" y2="48.2"/>
	<line class="st1" x1="273.3" y1="57.2" x2="280.3" y2="64.2"/>
	<line class="st1" x1="248.3" y1="32.2" x2="255.1" y2="39"/>
	<line class="st1" x1="255.2" y1="57.3" x2="248.3" y2="64.2"/>
	<line class="st1" x1="280.3" y1="32.2" x2="273.3" y2="39.1"/>
	<circle class="st1" cx="264.3" cy="48.2" r="12.1"/>
</g>
<g id="Bike">
	<path class="st2" d="M158.4,170.5v-22.8c0-8.7,7.1-15.8,15.8-15.8l0,0c8.7,0,15.8,7.1,15.8,15.8l0,0v22.8"/>
	<g>
		<circle class="st2" cx="146.8" cy="152.9" r="16.3"/>
		<path class="st2" d="M219.7,152.9c0,9-7.3,16.3-16.3,16.3s-16.3-7.3-16.3-16.3c0-9,7.3-16.3,16.3-16.3c0,0,0,0,0,0
			C212.4,136.6,219.7,143.9,219.7,152.9z"/>
		<path class="st2" d="M150.3,152.9c0,1.9-1.6,3.5-3.5,3.5c-1.9,0-3.5-1.6-3.5-3.5c0-1.9,1.6-3.5,3.5-3.5c0,0,0,0,0,0
			C148.8,149.4,150.3,151,150.3,152.9z"/>
		<path class="st2" d="M179.8,152.9c0,2.9-2.4,5.3-5.3,5.3s-5.3-2.4-5.3-5.3c0-2.9,2.4-5.3,5.3-5.3c0,0,0,0,0,0
			C177.4,147.6,179.8,150,179.8,152.9z"/>
		<circle class="st2" cx="203.4" cy="152.7" r="3.5"/>
		<line class="st2" x1="146.8" y1="149.4" x2="174.5" y2="147.6"/>
		<line class="st2" x1="146.8" y1="156.4" x2="174.5" y2="158.2"/>
		<line class="st2" x1="143.7" y1="151.4" x2="158.4" y2="127.9"/>
		<polyline class="st2" points="202.4,149.4 190.3,117.7 182.9,117.7 		"/>
		<line class="st2" x1="172.1" y1="148.1" x2="155.9" y2="124.3"/>
		<line class="st2" x1="177.4" y1="148.5" x2="194.3" y2="130.1"/>
		<path class="st2" d="M163.1,122c0,1.3-1,2.3-2.3,2.3h-8.4c-1.3,0-2.3-1-2.3-2.3c0,0,0,0,0,0l0,0c0-1.3,1-2.3,2.3-2.3c0,0,0,0,0,0
			h8.4C162,119.7,163,120.7,163.1,122L163.1,122z"/>
		<line class="st2" x1="192.6" y1="123.8" x2="182.1" y2="135.4"/>
		<path class="st2" d="M158.4,127.9c0,0,11.7,19.8,23.7,7.4"/>
	</g>
</g>
</svg>
