<?xml version="1.0" encoding="utf-8"?>
<!-- Generator: Adobe Illustrator 22.0.1, SVG Export Plug-In . SVG Version: 6.00 Build 0)  -->
<svg version="1.1" id="Layer_1" xmlns="http://www.w3.org/2000/svg" xmlns:xlink="http://www.w3.org/1999/xlink" x="0px" y="0px"
	 viewBox="0 0 372.6 173.9" style="enable-background:new 0 0 372.6 173.9;" xml:space="preserve">
<style type="text/css">
	.st0{display:none;fill:#494949;}
	.st1{filter:url(#Adobe_OpacityMaskFilter);}
	.st2{fill:#FFFFFF;}
	.st3{fill:none;stroke:#000000;stroke-width:9.0129;stroke-linecap:round;stroke-linejoin:round;stroke-miterlimit:10;}
	.st4{filter:url(#Adobe_OpacityMaskFilter_1_);}
	.st5{fill:none;stroke:#FFFFFF;stroke-width:6.0086;stroke-linecap:round;stroke-linejoin:round;stroke-miterlimit:10;}
	.st6{mask:url(#SVGID_3_);}
	.st7{fill:none;stroke:#000000;stroke-width:18;stroke-linecap:round;stroke-linejoin:round;stroke-miterlimit:10;}
	.st8{fill:none;stroke:#B3B3B3;stroke-width:4;stroke-linecap:round;stroke-linejoin:round;stroke-miterlimit:10;}
	.st9{fill:none;stroke:#47B870;stroke-width:4;stroke-linecap:round;stroke-linejoin:round;stroke-miterlimit:10;}
	.st10{filter:url(#Adobe_OpacityMaskFilter_2_);}
	.st11{fill:none;stroke:#000000;stroke-width:9.7343;stroke-linecap:round;stroke-linejoin:round;stroke-miterlimit:10;}
	.st12{mask:url(#SVGID_1_);}
	.st13{fill:none;stroke:#828B90;stroke-width:4;stroke-linecap:round;stroke-linejoin:round;stroke-miterlimit:10;}
</style>
<rect x="-3.7" y="-2.7" class="st0" width="378.5" height="248"/>
<g>
	<defs>
		<filter id="Adobe_OpacityMaskFilter" filterUnits="userSpaceOnUse" x="7.9" y="0" width="352.1" height="173.8">
			<feColorMatrix  type="matrix" values="1 0 0 0 0  0 1 0 0 0  0 0 1 0 0  0 0 0 1 0"/>
		</filter>
	</defs>
	<mask maskUnits="userSpaceOnUse" x="7.9" y="0" width="352.1" height="173.8" id="SVGID_2_">
		<g class="st1">
			<g>
				<g id="XMLID_1_">
					<g>
						<path class="st2" d="M372.4-8.3v260.7H0.1V-8.3H372.4z M19.6,171.1h76c-1.1-12.6-12.5-8.1-12.5-8.1
							c-7.6-12.8-17.6-1.5-17.6-1.5c-12.3-19.3-22.8-0.6-22.8-0.6C26.2,150.2,19.6,171.1,19.6,171.1z"/>
						<path d="M95.6,171.1h-76c0,0,6.5-20.9,23.1-10.1c0,0,10.5-18.6,22.8,0.6c0,0,10-11.4,17.6,1.5C83.1,163,94.5,158.4,95.6,171.1
							z"/>
					</g>
					<g>
						<path class="st3" d="M95.6,171.1c-1.1-12.6-12.5-8.1-12.5-8.1c-7.6-12.8-17.6-1.5-17.6-1.5c-12.3-19.3-22.8-0.6-22.8-0.6
							c-16.6-10.7-23.1,10.1-23.1,10.1H95.6z"/>
					</g>
				</g>
			</g>
		</g>
		<g>
			<defs>
				<filter id="Adobe_OpacityMaskFilter_1_" filterUnits="userSpaceOnUse" x="118.8" y="111.2" width="106.6" height="69.1">
					<feColorMatrix  type="matrix" values="1 0 0 0 0  0 1 0 0 0  0 0 1 0 0  0 0 0 1 0"/>
				</filter>
			</defs>
			<mask maskUnits="userSpaceOnUse" x="118.8" y="111.2" width="106.6" height="69.1" id="SVGID_3_">
				<g class="st4">
					<g>
						<g id="XMLID_5_">
							<g>
								<path class="st2" d="M286.8,78.5v148.8H29.2V78.5C29.2,78.5,286.8,78.5,286.8,78.5z M218.5,174v-30.8L180,174H218.5z"/>
								<polygon points="218.5,143.2 218.5,174 180,174 								"/>
							</g>
							<g>
								<rect x="29.2" y="78.5" class="st5" width="257.6" height="148.8"/>
							</g>
						</g>
					</g>
				</g>
			</mask>
			<g class="st6">
				<circle class="st7" cx="143.9" cy="155.1" r="16.2"/>
				<circle class="st7" cx="200.2" cy="155.1" r="16.2"/>
				<circle class="st7" cx="143.9" cy="155.1" r="3.5"/>
				<circle class="st7" cx="171.4" cy="155.1" r="5.3"/>
				<circle class="st7" cx="200.2" cy="154.9" r="3.5"/>
				<line class="st7" x1="143.9" y1="151.7" x2="171.4" y2="149.8"/>
				<line class="st7" x1="143.9" y1="158.6" x2="171.4" y2="160.4"/>
				<line class="st7" x1="140.8" y1="153.7" x2="155.4" y2="130.3"/>
				<polyline class="st7" points="199.1,151.7 187.2,120.2 179.8,120.2 				"/>
				<line class="st7" x1="169" y1="150.4" x2="153" y2="126.7"/>
				<line class="st7" x1="174.3" y1="150.7" x2="191.1" y2="132.4"/>
				<path class="st7" d="M160,124.4c0,1.3-1,2.3-2.3,2.3h-8.3c-1.3,0-2.3-1-2.3-2.3l0,0c0-1.3,1-2.3,2.3-2.3h8.3
					C159,122.1,160,123.1,160,124.4L160,124.4z"/>
				<line class="st7" x1="171.4" y1="155.1" x2="176.8" y2="165.3"/>
				<line class="st7" x1="173.7" y1="166" x2="180.4" y2="166"/>
				<line class="st7" x1="189.5" y1="126.2" x2="179" y2="137.7"/>
				<path class="st7" d="M155.4,130.3c0,0,11.6,19.7,23.6,7.4"/>
				<path class="st7" d="M204.4,144.1c0,0,6,1,7.7,8.5"/>
				<path class="st7" d="M140.8,166.1c0,0-6-1-7.7-8.5"/>
			</g>
			<g>
				<g id="XMLID_2_">
					<g>
						<polygon class="st7" points="185,173.5 223.5,173.5 223.5,144.1 						"/>
					</g>
				</g>
			</g>
		</g>
	</mask>
	<g>
		<g>
			<polyline class="st8" points="178.5,171.8 178.5,126.8 178.5,91.5 214.5,62.3 249.7,90.5 249.7,126.8 249.7,171.8 			"/>
			<line class="st8" x1="249.7" y1="149.1" x2="283.5" y2="149.1"/>
			<circle class="st8" cx="214.6" cy="88.9" r="7.1"/>
			<g>
				<line class="st8" x1="352.2" y1="171.8" x2="352.2" y2="119.1"/>
				<line class="st8" x1="284" y1="119.1" x2="284" y2="171.8"/>
				<path class="st8" d="M343,144.8c0-3.9-3.3-7-7.4-7h-27.4c-4.1,0-7.4,3.1-7.4,7v26.9H343L343,144.8L343,144.8z"/>
				<g>
					<polyline class="st8" points="358,114.2 343.5,91.8 291.7,91.8 277.2,114.2 					"/>
					<path class="st8" d="M358,114.2c0,2.7-3,4.9-6.7,4.9c-3.7,0-6.7-2.2-6.7-4.9c0,2.7-3,4.9-6.7,4.9c-3.7,0-6.7-2.2-6.7-4.9
						c0,2.7-3,4.9-6.7,4.9s-6.7-2.2-6.7-4.9c0,2.7-3,4.9-6.7,4.9c-3.7,0-6.7-2.2-6.7-4.9c0,2.7-3,4.9-6.7,4.9
						c-3.7,0-6.7-2.2-6.7-4.9c0,2.7-3,4.9-6.7,4.9c-3.7,0-6.7-2.2-6.7-4.9"/>
					<line class="st8" x1="317.6" y1="114.2" x2="317.6" y2="91.8"/>
					<line class="st8" x1="304.2" y1="114.2" x2="309.8" y2="91.8"/>
					<line class="st8" x1="290.7" y1="114.2" x2="300.8" y2="91.8"/>
					<line class="st8" x1="331.1" y1="114.2" x2="325.4" y2="91.8"/>
					<line class="st8" x1="344.6" y1="114.2" x2="334.5" y2="91.8"/>
				</g>
			</g>
			<g>
				<g>
					<path class="st8" d="M150.2,171.8V8c0-3.3-2.7-6-6-6H75.1c-3.3,0-6,2.7-6,6v163.8"/>
					<path class="st8" d="M96.7,23.1c0,1-0.8,1.8-1.8,1.8H79.4c-1,0-1.8-0.8-1.8-1.8V11.9c0-1,0.8-1.8,1.8-1.8h15.5
						c1,0,1.8,0.8,1.8,1.8C96.7,11.9,96.7,23.1,96.7,23.1z"/>
					<path class="st8" d="M96.7,46.4c0,1-0.8,1.8-1.8,1.8H79.4c-1,0-1.8-0.8-1.8-1.8V35.2c0-1,0.8-1.8,1.8-1.8h15.5
						c1,0,1.8,0.8,1.8,1.8C96.7,35.2,96.7,46.4,96.7,46.4z"/>
					<path class="st8" d="M96.7,69.7c0,1-0.8,1.8-1.8,1.8H79.4c-1,0-1.8-0.8-1.8-1.8V58.5c0-1,0.8-1.8,1.8-1.8h15.5
						c1,0,1.8,0.8,1.8,1.8C96.7,58.5,96.7,69.7,96.7,69.7z"/>
					<path class="st8" d="M96.7,93c0,1-0.8,1.8-1.8,1.8H79.4c-1,0-1.8-0.8-1.8-1.8V81.8c0-1,0.8-1.8,1.8-1.8h15.5
						c1,0,1.8,0.8,1.8,1.8C96.7,81.8,96.7,93,96.7,93z"/>
					<path class="st8" d="M96.7,116.3c0,1-0.8,1.8-1.8,1.8H79.4c-1,0-1.8-0.8-1.8-1.8v-11.2c0-1,0.8-1.8,1.8-1.8h15.5
						c1,0,1.8,0.8,1.8,1.8C96.7,105.1,96.7,116.3,96.7,116.3z"/>
				</g>
			</g>
			<g>
				<path class="st8" d="M35.1,167.6v-21.5c0,0-56.6-5,0-75.5"/>
				<path class="st8" d="M35.1,146.1c0,0,56.6-5,0-75.5"/>
			</g>
		</g>
		<line class="st8" x1="272.4" y1="141.2" x2="272.4" y2="171.8"/>
		<line class="st8" x1="260.7" y1="141.2" x2="260.7" y2="171.8"/>
	</g>
	<line class="st8" x1="370.6" y1="171.9" x2="2" y2="171.9"/>
	<path class="st8" d="M95.1,171.4c-1.1-12.6-12.5-8.1-12.5-8.1c-7.6-12.8-17.6-1.5-17.6-1.5c-12.3-19.3-22.8-0.6-22.8-0.6
		c-16.6-10.7-23.1,10.1-23.1,10.1H95.1z"/>
	<g>
		<path class="st8" d="M164.9,59.4c0-3,2.4-5.4,5.4-5.4s5.4,2.4,5.4,5.4"/>
		<path class="st8" d="M175.6,59.4c0-3,2.4-5.4,5.4-5.4c3,0,5.4,2.4,5.4,5.4"/>
	</g>
	<g>
		<path class="st8" d="M196.6,17.5c0-3,2.4-5.4,5.4-5.4s5.4,2.4,5.4,5.4"/>
		<path class="st8" d="M207.4,17.5c0-3,2.4-5.4,5.4-5.4c3,0,5.4,2.4,5.4,5.4"/>
	</g>
	<g>
		<path class="st8" d="M294.5,73.3c0-3,2.4-5.4,5.4-5.4c3,0,5.4,2.4,5.4,5.4"/>
		<path class="st8" d="M305.2,73.3c0-3,2.4-5.4,5.4-5.4s5.4,2.4,5.4,5.4"/>
	</g>
	<g>
		<line class="st8" x1="115.8" y1="171.5" x2="115.8" y2="108.7"/>
		<circle class="st8" cx="115.8" cy="102.7" r="5.9"/>
		<line class="st8" x1="110.3" y1="111.3" x2="121.3" y2="111.3"/>
	</g>
	<g>
		<line class="st8" x1="264.3" y1="61.2" x2="264.3" y2="70.8"/>
		<line class="st8" x1="264.3" y1="25.6" x2="264.3" y2="35.5"/>
		<line class="st8" x1="251.5" y1="48.2" x2="241.6" y2="48.2"/>
		<line class="st8" x1="286.9" y1="48.2" x2="277.1" y2="48.2"/>
		<line class="st8" x1="273.3" y1="57.2" x2="280.3" y2="64.2"/>
		<line class="st8" x1="248.3" y1="32.2" x2="255.1" y2="39"/>
		<line class="st8" x1="255.2" y1="57.3" x2="248.3" y2="64.2"/>
		<line class="st8" x1="280.3" y1="32.2" x2="273.3" y2="39.1"/>
		<circle class="st8" cx="264.3" cy="48.2" r="12.1"/>
		<path class="st8" d="M235,44.3"/>
	</g>
</g>
<g>
	<path class="st9" d="M158.3,170.5v-22.8c0-8.7,7.1-15.8,15.8-15.8l0,0c8.7,0,15.8,7.1,15.8,15.8v22.8"/>
	<defs>
		<filter id="Adobe_OpacityMaskFilter_2_" filterUnits="userSpaceOnUse" x="128.6" y="115.7" width="93.1" height="55.4">
			<feColorMatrix  type="matrix" values="1 0 0 0 0  0 1 0 0 0  0 0 1 0 0  0 0 0 1 0"/>
		</filter>
	</defs>
	<mask maskUnits="userSpaceOnUse" x="128.6" y="115.7" width="93.1" height="55.4" id="SVGID_1_">
		<g class="st10">
			<g id="XMLID_3_">
				<g>
					<polygon class="st2" points="227.9,105.5 227.9,183.1 123.7,180.1 123.7,105.5 					"/>
				</g>
				<g>
					<path class="st11" d="M158.4,170.3v-22.8c0-8.7,7.1-15.8,15.8-15.8c4.4,0,8.3,1.8,11.1,4.6c2.9,2.9,4.6,6.8,4.6,11.1v22.8"/>
					<polygon class="st11" points="227.9,183.1 123.7,180.1 123.7,105.5 227.9,105.5 					"/>
				</g>
			</g>
		</g>
	</mask>
	<g class="st12">
		<circle class="st13" cx="146.8" cy="152.9" r="16.3"/>
		<path class="st13" d="M219.7,152.9c0,9-7.3,16.3-16.3,16.3c-9,0-16.3-7.3-16.3-16.3c0-9,7.3-16.3,16.3-16.3
			C212.4,136.6,219.7,143.9,219.7,152.9z"/>
		<path class="st13" d="M150.3,152.9c0,1.9-1.6,3.5-3.5,3.5c-1.9,0-3.5-1.6-3.5-3.5c0-1.9,1.6-3.5,3.5-3.5
			C148.8,149.4,150.3,151,150.3,152.9z"/>
		<path class="st13" d="M179.8,152.9c0,2.9-2.4,5.3-5.3,5.3c-2.9,0-5.3-2.4-5.3-5.3c0-2.9,2.4-5.3,5.3-5.3
			C177.4,147.6,179.8,150,179.8,152.9z"/>
		<circle class="st13" cx="203.5" cy="152.7" r="3.5"/>
		<line class="st13" x1="146.8" y1="149.4" x2="174.5" y2="147.6"/>
		<line class="st13" x1="146.8" y1="156.4" x2="174.5" y2="158.2"/>
		<line class="st13" x1="143.7" y1="151.4" x2="158.4" y2="127.9"/>
		<polyline class="st13" points="202.4,149.4 190.3,117.7 182.9,117.7 		"/>
		<line class="st13" x1="172.1" y1="148.1" x2="156" y2="124.3"/>
		<line class="st13" x1="177.4" y1="148.5" x2="194.3" y2="130.1"/>
		<path class="st13" d="M163,122c0,1.3-1,2.3-2.3,2.3h-8.4c-1.3,0-2.3-1-2.3-2.3l0,0c0-1.3,1-2.3,2.3-2.3h8.4
			C162,119.6,163,120.7,163,122L163,122z"/>
		<line class="st13" x1="192.6" y1="123.8" x2="182.1" y2="135.4"/>
		<path class="st13" d="M158.4,127.9c0,0,11.7,19.8,23.7,7.4"/>
	</g>
</g>
</svg>
