<?xml version="1.0" encoding="utf-8"?>
<!-- Generator: Adobe Illustrator 22.0.1, SVG Export Plug-In . SVG Version: 6.00 Build 0)  -->
<svg version="1.1" id="Layer_1" xmlns="http://www.w3.org/2000/svg" xmlns:xlink="http://www.w3.org/1999/xlink" x="0px" y="0px"
	 viewBox="0 0 937.4 322.1" style="enable-background:new 0 0 937.4 322.1;" xml:space="preserve">
<style type="text/css">
	.st0{fill:none;stroke:#000333;stroke-width:2.8568;stroke-linecap:round;stroke-linejoin:round;stroke-miterlimit:10;}
	.st1{fill:none;stroke:#B3B3B3;stroke-width:2.8568;stroke-linecap:round;stroke-linejoin:round;stroke-miterlimit:10;}
	.st2{fill:none;stroke:#828B90;stroke-width:2.8568;stroke-linejoin:round;stroke-miterlimit:10;}
	.st3{fill:none;stroke:#828B90;stroke-width:2.8568;stroke-linecap:round;stroke-linejoin:round;stroke-miterlimit:10;}
	.st4{fill:none;stroke:#828B90;stroke-width:2.8568;stroke-linecap:square;stroke-linejoin:round;stroke-miterlimit:10;}
	.st5{fill:#59BC72;stroke:#828B90;stroke-width:2.8568;stroke-linecap:round;stroke-linejoin:round;stroke-miterlimit:10;}
	.st6{filter:url(#Adobe_OpacityMaskFilter);}
	.st7{fill:#FFFFFF;}
	.st8{fill:none;stroke:#000000;stroke-width:10.5061;stroke-linecap:round;stroke-linejoin:round;stroke-miterlimit:10;}
	.st9{mask:url(#SVGID_11_);}
	.st10{filter:url(#Adobe_OpacityMaskFilter_1_);}
	.st11{mask:url(#SVGID_9_);}
	.st12{filter:url(#Adobe_OpacityMaskFilter_2_);}
	.st13{mask:url(#SVGID_7_);}
	.st14{filter:url(#Adobe_OpacityMaskFilter_3_);}
	.st15{fill:none;stroke:#FFFFFF;stroke-width:10.1871;stroke-linecap:round;stroke-linejoin:round;stroke-miterlimit:10;}
	.st16{mask:url(#SVGID_5_);}
	.st17{filter:url(#Adobe_OpacityMaskFilter_4_);}
	.st18{fill:#020202;}
	.st19{fill:none;stroke:#000000;stroke-width:10.1871;stroke-linecap:round;stroke-linejoin:round;stroke-miterlimit:10;}
	.st20{mask:url(#SVGID_1_);}
</style>
<g id="Layer_1_1_">
	<path class="st0" d="M516.8,121.2"/>
	<g>
		<path class="st0" d="M502.3,267.7"/>
		<path class="st0" d="M436.2,171.3"/>
	</g>
</g>
<g id="Birds">
	<g>
		<path class="st1" d="M919.4,48.6c0-3.5-2.8-6.3-6.3-6.3c-3.5,0-6.3,2.8-6.3,6.3"/>
		<path class="st1" d="M906.9,48.6c0-3.5-2.8-6.3-6.3-6.3c-3.5,0-6.3,2.8-6.3,6.3"/>
	</g>
	<g>
		<path class="st1" d="M348.9,70.4c0-3.5-2.8-6.3-6.3-6.3c-3.5,0-6.3,2.8-6.3,6.3"/>
		<path class="st1" d="M336.4,70.4c0-3.5-2.8-6.3-6.3-6.3c-3.5,0-6.3,2.8-6.3,6.3"/>
	</g>
	<g>
		<path class="st1" d="M102.6,115.1c0-3.5-2.8-6.3-6.3-6.3c-3.5,0-6.3,2.8-6.3,6.3"/>
		<path class="st1" d="M90.1,115.1c0-3.5-2.8-6.3-6.3-6.3c-3.5,0-6.3,2.8-6.3,6.3"/>
	</g>
	<g>
		<path class="st1" d="M412.5,145.7c0-3.5-2.8-6.3-6.3-6.3s-6.3,2.8-6.3,6.3"/>
		<path class="st1" d="M400,145.7c0-3.5-2.8-6.3-6.3-6.3c-3.5,0-6.3,2.8-6.3,6.3"/>
	</g>
	<g>
		<path class="st1" d="M596.7,13.7c0-3.5-2.8-6.3-6.3-6.3c-3.5,0-6.3,2.8-6.3,6.3"/>
		<path class="st1" d="M584.2,13.7c0-3.5-2.8-6.3-6.3-6.3s-6.3,2.8-6.3,6.3"/>
	</g>
	<g>
		<path class="st1" d="M825.5,94.2c0-3.5-2.8-6.3-6.3-6.3c-3.5,0-6.3,2.8-6.3,6.3"/>
		<path class="st1" d="M812.9,94.2c0-3.5-2.8-6.3-6.3-6.3c-3.5,0-6.3,2.8-6.3,6.3"/>
	</g>
</g>
<g id="Background">
	<line class="st2" x1="936.2" y1="322.1" x2="-1.2" y2="322.1"/>
	<g>
		<line class="st3" x1="764.3" y1="322" x2="629.4" y2="322"/>
		<path class="st3" d="M629.4,191V73.6c0-4.1,3.1-7.5,6.8-7.5h121.2c3.8,0,6.8,3.3,6.8,7.5v121.3"/>
		<path class="st3" d="M724,94.2c0,4.4-3.6,8-8,8h-67.7c-4.4,0-8-3.6-8-8v-9.4c0-4.4,3.6-8,8-8h67.7c4.4,0,8,3.6,8,8V94.2z"/>
		<path class="st3" d="M724,127.9c0,4.4-3.6,8-8,8h-67.7c-4.4,0-8-3.6-8-8v-9.4c0-4.4,3.6-8,8-8h67.7c4.4,0,8,3.6,8,8V127.9z"/>
		<path class="st3" d="M724,161.6c0,4.4-3.6,8-8,8h-67.7c-4.4,0-8-3.6-8-8v-9.4c0-4.4,3.6-8,8-8h67.7c4.4,0,8,3.6,8,8V161.6z"/>
		<path class="st3" d="M642.5,238.4"/>
		<path class="st3" d="M642.5,247.9"/>
	</g>
	<polyline class="st3" points="488.2,217.4 459.1,193.9 418,226.9 418,269.3 418,321.8 	"/>
	<path class="st3" d="M501.1,228"/>
	<path class="st3" d="M348.2,321.8"/>
	<line class="st3" x1="418" y1="295.3" x2="317.9" y2="295.3"/>
	<line class="st3" x1="381.8" y1="286.1" x2="381.8" y2="321.8"/>
	<line class="st3" x1="393.1" y1="286.1" x2="393.1" y2="321.8"/>
	<line class="st3" x1="404.3" y1="286.1" x2="404.3" y2="321.8"/>
	<line class="st3" x1="359.4" y1="286.1" x2="359.4" y2="321.8"/>
	<line class="st3" x1="336.9" y1="286.1" x2="336.9" y2="321.8"/>
	<line class="st3" x1="347.9" y1="286.1" x2="347.9" y2="321.8"/>
	<line class="st3" x1="325.7" y1="286.1" x2="325.7" y2="321.8"/>
	<line class="st3" x1="370.6" y1="286.1" x2="370.6" y2="321.8"/>
	<circle class="st3" cx="458.9" cy="225" r="8.3"/>
	<path class="st4" d="M492.9,221.3"/>
	<polyline class="st4" points="604,232.3 604,196.4 547.9,150.8 492.9,194.9 492.9,271.3 	"/>
	<path class="st3" d="M533.8,207.1c0,2.8,2.2,5,5,5h19.4c2.8,0,5-2.2,5-5v-19.4c0-2.8-2.2-5-5-5h-19.4c-2.8,0-5,2.2-5,5V207.1z"/>
	<path class="st3" d="M570.4,169v-16.1c0-1.3,1-2.3,2.3-2.3h15.4c1.3,0,2.3,1,2.3,2.3v32.2"/>
	<g>
		<g>
			<path class="st4" d="M138.7,223.4v-92.7c0-3.9,3.1-7,7-7h80.8c3.9,0,7,3.1,7,7v185.5"/>
			<path class="st3" d="M138.7,322"/>
			<path class="st3" d="M201.2,148.3c0,1.1,0.9,2.1,2.1,2.1h18.1c1.1,0,2.1-0.9,2.1-2.1v-13.1c0-1.1-0.9-2.1-2.1-2.1h-18.1
				c-1.1,0-2.1,0.9-2.1,2.1V148.3z"/>
			<path class="st3" d="M201.2,175.5c0,1.1,0.9,2.1,2.1,2.1h18.1c1.1,0,2.1-0.9,2.1-2.1v-13.1c0-1.1-0.9-2.1-2.1-2.1h-18.1
				c-1.1,0-2.1,0.9-2.1,2.1V175.5z"/>
			<path class="st3" d="M201.2,202.7c0,1.1,0.9,2.1,2.1,2.1h18.1c1.1,0,2.1-0.9,2.1-2.1v-13.1c0-1.1-0.9-2.1-2.1-2.1h-18.1
				c-1.1,0-2.1,0.9-2.1,2.1V202.7z"/>
			<path class="st3" d="M201.2,229.9c0,1.1,0.9,2.1,2.1,2.1h18.1c1.1,0,2.1-0.9,2.1-2.1v-13.1c0-1.1-0.9-2.1-2.1-2.1h-18.1
				c-1.1,0-2.1,0.9-2.1,2.1V229.9z"/>
			<path class="st3" d="M201.2,257.2c0,1.1,0.9,2.1,2.1,2.1h18.1c1.1,0,2.1-0.9,2.1-2.1V244c0-1.1-0.9-2.1-2.1-2.1h-18.1
				c-1.1,0-2.1,0.9-2.1,2.1V257.2z"/>
		</g>
		<line class="st3" x1="158.3" y1="122.8" x2="158.3" y2="74.6"/>
		<line class="st3" x1="168.5" y1="85" x2="148" y2="85"/>
		<line class="st3" x1="168.5" y1="107.9" x2="148" y2="107.9"/>
		<line class="st3" x1="174.3" y1="97.6" x2="140.8" y2="97.6"/>
	</g>
	<g>
		<path class="st3" d="M654.2,322.1c0,0-7.6-24.4-27-11.9c0,0-12.3-21.8-26.6,0.7c0,0-11.7-13.3-20.5,1.7c0,0-13.3-5.3-14.5,9.4
			H654.2z"/>
		<path class="st3" d="M827.1,322.1c0,0-7.6-24.4-27-11.9c0,0-12.3-21.8-26.6,0.7c0,0-11.7-13.3-20.5,1.7c0,0-13.3-5.3-14.5,9.4
			H827.1z"/>
	</g>
	<g>
		<path class="st3" d="M796.4,322.2v-36.8c0,0,97.1-8.6,0-129.6"/>
		<path class="st3" d="M796.4,285.4c0,0-97.1-8.6,0-129.6"/>
	</g>
	<g>
		<path class="st3" d="M370.6,310.1v-30.2c0,0,79.7-7.1,0-106.4"/>
		<path class="st3" d="M370.6,279.9c0,0-79.7-7.1,0-106.4"/>
	</g>
	<g>
		<g id="XMLID_27_">
			<g>
				<path class="st3" d="M601.3,241.6c-3.9-6.6-9-14-15.6-22.3"/>
				<line class="st3" x1="585.7" y1="219.3" x2="601.3" y2="241.6"/>
				<path class="st3" d="M585.7,318.6v-22c0,0,11.4-1,19.1-8.5c2.3-2.3,4.3-5.1,5.5-8.7"/>
				<path class="st3" d="M585.7,296.6c0,0-57.9-5.1,0-77.3"/>
				<path class="st3" d="M633.9,289.1c0,0,0.1,0,0.4,0c5.7-0.7,74-10.8,0-103.3c-0.1-0.2-0.2-0.3-0.4-0.5"/>
				<line class="st3" x1="633.9" y1="289.1" x2="633.9" y2="318.6"/>
				<path class="st3" d="M633.9,289.1c0,0-13.6-1.2-23.7-9.7c-8.2-6.8-14.1-18.4-8.9-37.8c0,0,0,0,0,0c3.8-14.2,13.5-32.5,32.6-56.3
					"/>
			</g>
		</g>
	</g>
	<line class="st3" x1="86.6" y1="291.1" x2="86.6" y2="260.4"/>
	<line class="st3" x1="166.4" y1="260.4" x2="166.4" y2="322"/>
	<path class="st3" d="M107.3,290.5c0-4.5,3.9-8.2,8.7-8.2h32c4.8,0,8.7,3.7,8.7,8.2V322h-49.3L107.3,290.5L107.3,290.5z"/>
	<g>
		<polyline class="st3" points="79.9,254.8 96.8,228.6 157.3,228.6 174.3,254.8 		"/>
		<path class="st3" d="M79.9,254.8c0,3.1,3.5,5.7,7.9,5.7c4.3,0,7.9-2.5,7.9-5.7c0,3.1,3.5,5.7,7.9,5.7c4.3,0,7.9-2.5,7.9-5.7
			c0,3.1,3.5,5.7,7.9,5.7c4.3,0,7.9-2.5,7.9-5.7c0,3.1,3.5,5.7,7.9,5.7c4.3,0,7.9-2.5,7.9-5.7c0,3.1,3.5,5.7,7.9,5.7
			c4.3,0,7.9-2.5,7.9-5.7c0,3.1,3.5,5.7,7.9,5.7c4.3,0,7.9-2.5,7.9-5.7"/>
		<line class="st3" x1="127.1" y1="254.8" x2="127.1" y2="228.6"/>
		<line class="st3" x1="142.8" y1="254.8" x2="136.1" y2="228.6"/>
		<line class="st3" x1="158.5" y1="254.8" x2="146.7" y2="228.6"/>
		<line class="st3" x1="111.3" y1="254.8" x2="117.9" y2="228.6"/>
		<line class="st3" x1="95.5" y1="254.8" x2="107.3" y2="228.6"/>
	</g>
	<path class="st5" d="M403.5,316.2"/>
</g>
<g id="Sun">
	<line class="st1" x1="56.9" y1="66.9" x2="56.9" y2="78.4"/>
	<line class="st1" x1="56.9" y1="24.4" x2="56.9" y2="36.3"/>
	<line class="st1" x1="72.1" y1="51.4" x2="83.9" y2="51.4"/>
	<line class="st1" x1="29.9" y1="51.4" x2="41.6" y2="51.4"/>
	<line class="st1" x1="46.2" y1="62.1" x2="37.8" y2="70.5"/>
	<line class="st1" x1="76" y1="32.3" x2="67.8" y2="40.5"/>
	<line class="st1" x1="67.7" y1="62.3" x2="76" y2="70.5"/>
	<line class="st1" x1="37.8" y1="32.3" x2="46.1" y2="40.6"/>
	<path class="st1" d="M42.5,51.4c0,8,6.5,14.4,14.4,14.4c8,0,14.4-6.5,14.4-14.4c0-8-6.5-14.4-14.4-14.4
		C48.9,37,42.5,43.4,42.5,51.4z"/>
	<path class="st1" d="M91.8,46.8"/>
</g>
<g id="Foreground">
	<defs>
		<filter id="Adobe_OpacityMaskFilter" filterUnits="userSpaceOnUse" x="240.8" y="276.4" width="74.8" height="44.4">
			<feColorMatrix  type="matrix" values="1 0 0 0 0  0 1 0 0 0  0 0 1 0 0  0 0 0 1 0"/>
		</filter>
	</defs>
	<mask maskUnits="userSpaceOnUse" x="240.8" y="276.4" width="74.8" height="44.4" id="SVGID_11_">
		<g class="st6">
			<g id="XMLID_14_">
				<g>
					<polygon class="st7" points="281.7,331 228.9,331 228.9,226.7 355.6,226.7 355.6,331 					"/>
				</g>
				<g>
					<line class="st8" x1="281.7" y1="331" x2="281.7" y2="265.2"/>
					<polygon class="st8" points="355.6,226.7 228.9,226.7 228.9,331 281.7,331 355.6,331 					"/>
				</g>
			</g>
		</g>
	</mask>
	<g class="st9">
		<path class="st0" d="M268.5,306.3c0,7.2-5.9,13.1-13.1,13.1c-7.3,0-13.1-5.9-13.1-13.1c0-7.2,5.9-13.1,13.1-13.1
			C262.6,293.1,268.5,299,268.5,306.3z"/>
		<path class="st0" d="M314.2,306.3c0,7.2-5.9,13.1-13.1,13.1c-7.3,0-13.1-5.9-13.1-13.1c0-7.2,5.9-13.1,13.1-13.1
			C308.3,293.1,314.2,299,314.2,306.3z"/>
		<path class="st0" d="M258.2,306.3c0,1.6-1.3,2.8-2.8,2.8c-1.6,0-2.8-1.3-2.8-2.8c0-1.6,1.3-2.8,2.8-2.8
			C256.9,303.5,258.2,304.7,258.2,306.3z"/>
		<circle class="st0" cx="277.7" cy="306.3" r="4.3"/>
		<path class="st0" d="M303.9,306.1c0,1.6-1.3,2.8-2.8,2.8c-1.6,0-2.8-1.3-2.8-2.8c0-1.5,1.3-2.8,2.8-2.8
			C302.6,303.3,303.9,304.6,303.9,306.1z"/>
		<line class="st0" x1="255.4" y1="303.5" x2="277.7" y2="302"/>
		<line class="st0" x1="255.4" y1="309.1" x2="277.7" y2="310.6"/>
		<line class="st0" x1="252.8" y1="305.1" x2="264.7" y2="286.1"/>
		<path class="st0" d="M297.2,283.8c4,0,3.7-3.4,3.7-3.4c0-2.7-4.4-2.5-4.4-2.5h-6l9.7,25.6"/>
		<line class="st0" x1="275.8" y1="302.4" x2="261.8" y2="282"/>
		<line class="st0" x1="280.1" y1="302.7" x2="293.7" y2="287.8"/>
		<path class="st0" d="M268.5,280.1c0,1-0.8,1.9-1.9,1.9h-6.8c-1,0-1.9-0.8-1.9-1.9l0,0c0-1,0.8-1.9,1.9-1.9h6.8
			C267.6,278.3,268.5,279.1,268.5,280.1L268.5,280.1z"/>
		<line class="st0" x1="277.7" y1="306.3" x2="282.1" y2="314.5"/>
		<line class="st0" x1="279.5" y1="315.1" x2="285" y2="315.1"/>
		<line class="st0" x1="264.7" y1="286.1" x2="293.3" y2="286.1"/>
	</g>
	<g>
		<defs>
			<filter id="Adobe_OpacityMaskFilter_1_" filterUnits="userSpaceOnUse" x="660.7" y="277" width="74.8" height="43.8">
				<feColorMatrix  type="matrix" values="1 0 0 0 0  0 1 0 0 0  0 0 1 0 0  0 0 0 1 0"/>
			</filter>
		</defs>
		<mask maskUnits="userSpaceOnUse" x="660.7" y="277" width="74.8" height="43.8" id="SVGID_9_">
			<g class="st10">
				<g id="XMLID_13_">
					<g>
						<path class="st7" d="M776,254.6v107.8H619.8V254.6H776z M713.4,326.6v-23c0-7.4-6-13.5-13.5-13.5h-4.6
							c-7.4,0-13.5,6-13.5,13.5v23H713.4z"/>
						<path d="M713.4,303.6v23h-31.5v-23c0-7.4,6-13.5,13.5-13.5h4.6C707.3,290.1,713.4,296.2,713.4,303.6z"/>
					</g>
				</g>
			</g>
		</mask>
		<g class="st11">
			<path class="st0" d="M688.3,306.3c0,7.2-5.9,13.1-13.1,13.1c-7.2,0-13.1-5.9-13.1-13.1c0-7.2,5.9-13.1,13.1-13.1
				C682.5,293.2,688.3,299,688.3,306.3z"/>
			<circle class="st0" cx="720.9" cy="306.3" r="13.1"/>
			<path class="st0" d="M678,306.3c0,1.6-1.3,2.8-2.8,2.8c-1.5,0-2.8-1.3-2.8-2.8s1.3-2.8,2.8-2.8C676.8,303.5,678,304.7,678,306.3z
				"/>
			<circle class="st0" cx="697.5" cy="306.3" r="4.3"/>
			<path class="st0" d="M723.7,306.1c0,1.6-1.3,2.8-2.8,2.8c-1.6,0-2.8-1.3-2.8-2.8c0-1.5,1.3-2.8,2.8-2.8
				C722.5,303.3,723.7,304.6,723.7,306.1z"/>
			<line class="st0" x1="675.2" y1="303.5" x2="697.5" y2="302"/>
			<line class="st0" x1="675.2" y1="309.1" x2="697.5" y2="310.6"/>
			<line class="st0" x1="672.7" y1="305.1" x2="684.6" y2="286.1"/>
			<line class="st0" x1="720" y1="303.5" x2="710.8" y2="279.5"/>
			<line class="st0" x1="695.6" y1="302.4" x2="682.6" y2="283.2"/>
			<line class="st0" x1="699.9" y1="302.7" x2="713.5" y2="287.9"/>
			<path class="st0" d="M688.3,280.3c0,1-0.8,1.9-1.9,1.9h-6.8c-1,0-1.9-0.8-1.9-1.9l0,0c0-1,0.8-1.9,1.9-1.9h6.8
				C687.5,278.5,688.3,279.3,688.3,280.3L688.3,280.3z"/>
			<line class="st0" x1="697.5" y1="306.3" x2="701.9" y2="314.5"/>
			<line class="st0" x1="699.4" y1="315.1" x2="704.8" y2="315.1"/>
			<line class="st0" x1="710.8" y1="279.5" x2="717.9" y2="279.5"/>
			<line class="st0" x1="684.6" y1="286.1" x2="713.4" y2="286.1"/>
			<path class="st0" d="M723.5,297.9c0,0,4.8,0.8,6.1,6.8"/>
			<path class="st0" d="M672.9,315.4c0,0-4.8-0.8-6.1-6.8"/>
		</g>
		<path class="st0" d="M709.1,321.3v-16.8c0-5.4-4.4-9.8-9.8-9.8h-3.4c-5.4,0-9.8,4.4-9.8,9.8v16.8H709.1"/>
	</g>
	<g>
		<defs>
			<filter id="Adobe_OpacityMaskFilter_2_" filterUnits="userSpaceOnUse" x="17" y="277" width="74.8" height="43.8">
				<feColorMatrix  type="matrix" values="1 0 0 0 0  0 1 0 0 0  0 0 1 0 0  0 0 0 1 0"/>
			</filter>
		</defs>
		<mask maskUnits="userSpaceOnUse" x="17" y="277" width="74.8" height="43.8" id="SVGID_7_">
			<g class="st12">
				<g id="XMLID_12_">
					<g>
						<path class="st7" d="M132.4,254.6v107.8H-23.9V254.6H132.4z M69.7,326.6v-23c0-7.4-6-13.5-13.5-13.5h-4.6
							c-7.4,0-13.5,6-13.5,13.5v23H69.7z"/>
						<path d="M69.7,303.6v23H38.2v-23c0-7.4,6-13.5,13.5-13.5h4.6C63.7,290.1,69.7,296.2,69.7,303.6z"/>
					</g>
				</g>
			</g>
		</mask>
		<g class="st13">
			<path class="st0" d="M44.7,306.3c0,7.2-5.9,13.1-13.1,13.1c-7.2,0-13.1-5.9-13.1-13.1c0-7.2,5.9-13.1,13.1-13.1
				C38.8,293.2,44.7,299,44.7,306.3z"/>
			<circle class="st0" cx="77.3" cy="306.3" r="13.1"/>
			<circle class="st0" cx="31.6" cy="306.3" r="2.8"/>
			<circle class="st0" cx="53.9" cy="306.3" r="4.3"/>
			<path class="st0" d="M80.1,306.1c0,1.6-1.3,2.8-2.8,2.8c-1.6,0-2.8-1.3-2.8-2.8c0-1.5,1.3-2.8,2.8-2.8
				C78.8,303.3,80.1,304.6,80.1,306.1z"/>
			<line class="st0" x1="31.6" y1="303.5" x2="53.9" y2="302"/>
			<line class="st0" x1="31.6" y1="309.1" x2="53.9" y2="310.6"/>
			<line class="st0" x1="29" y1="305.1" x2="40.9" y2="286.1"/>
			<line class="st0" x1="76.4" y1="303.5" x2="67.1" y2="279.5"/>
			<line class="st0" x1="52" y1="302.4" x2="38.9" y2="283.2"/>
			<line class="st0" x1="56.2" y1="302.7" x2="69.9" y2="287.9"/>
			<path class="st0" d="M44.7,280.3c0,1-0.8,1.9-1.9,1.9H36c-1,0-1.9-0.8-1.9-1.9l0,0c0-1,0.8-1.9,1.9-1.9h6.8
				C43.9,278.5,44.7,279.3,44.7,280.3L44.7,280.3z"/>
			<line class="st0" x1="53.9" y1="306.3" x2="58.3" y2="314.5"/>
			<line class="st0" x1="55.7" y1="315.1" x2="61.2" y2="315.1"/>
			<line class="st0" x1="67.1" y1="279.5" x2="74.2" y2="279.5"/>
			<line class="st0" x1="40.9" y1="286.1" x2="69.7" y2="286.1"/>
			<path class="st0" d="M79.8,297.9c0,0,4.8,0.8,6.1,6.8"/>
			<path class="st0" d="M29.3,315.4c0,0-4.8-0.8-6.1-6.8"/>
		</g>
		<path class="st0" d="M65.4,321.3v-16.8c0-5.4-4.4-9.8-9.8-9.8h-3.4c-5.4,0-9.8,4.4-9.8,9.8v16.8H65.4"/>
	</g>
	<g>
		<defs>
			<filter id="Adobe_OpacityMaskFilter_3_" filterUnits="userSpaceOnUse" x="444.7" y="274.8" width="77.1" height="45.7">
				<feColorMatrix  type="matrix" values="1 0 0 0 0  0 1 0 0 0  0 0 1 0 0  0 0 0 1 0"/>
			</filter>
		</defs>
		<mask maskUnits="userSpaceOnUse" x="444.7" y="274.8" width="77.1" height="45.7" id="SVGID_5_">
			<g class="st14">
				<g>
					<g id="XMLID_11_">
						<g>
							<path class="st7" d="M579.5,241.3v124.8h-216V241.3H579.5z M522.2,321.4v-25.8l-32.3,25.8H522.2z"/>
							<polygon points="522.2,295.6 522.2,321.4 489.9,321.4 							"/>
						</g>
						<g>
							<rect x="363.5" y="241.3" class="st15" width="216" height="124.8"/>
						</g>
					</g>
				</g>
			</g>
		</mask>
		<g class="st16">
			<path class="st0" d="M473.3,305.6c0,7.5-6.1,13.6-13.6,13.6c-7.5,0-13.5-6.1-13.5-13.6s6.1-13.6,13.5-13.6
				C467.2,292,473.3,298.1,473.3,305.6z"/>
			<circle class="st0" cx="506.9" cy="305.6" r="13.6"/>
			<path class="st0" d="M462.6,305.6c0,1.6-1.3,2.9-2.9,2.9c-1.6,0-2.9-1.3-2.9-2.9c0-1.6,1.3-2.9,2.9-2.9
				C461.3,302.7,462.6,304,462.6,305.6z"/>
			<path class="st0" d="M487.2,305.6c0,2.4-2,4.4-4.4,4.4c-2.4,0-4.4-2-4.4-4.4c0-2.4,2-4.4,4.4-4.4
				C485.2,301.1,487.2,303.1,487.2,305.6z"/>
			<path class="st0" d="M509.8,305.4c0,1.6-1.3,2.9-2.9,2.9c-1.6,0-2.9-1.3-2.9-2.9c0-1.6,1.3-2.9,2.9-2.9
				C508.5,302.5,509.8,303.8,509.8,305.4z"/>
			<line class="st0" x1="459.7" y1="302.7" x2="482.7" y2="301.1"/>
			<line class="st0" x1="459.7" y1="308.5" x2="482.7" y2="310"/>
			<line class="st0" x1="457.1" y1="304.3" x2="469.4" y2="284.8"/>
			<polyline class="st0" points="506,302.7 496,276.3 489.8,276.3 			"/>
			<line class="st0" x1="480.8" y1="301.6" x2="467.3" y2="281.7"/>
			<line class="st0" x1="485.2" y1="301.9" x2="499.2" y2="286.6"/>
			<path class="st0" d="M473.2,279.8c0,1.1-0.9,1.9-1.9,1.9h-7c-1.1,0-1.9-0.9-1.9-1.9l0,0c0-1.1,0.9-1.9,1.9-1.9h7
				C472.4,277.9,473.2,278.7,473.2,279.8L473.2,279.8z"/>
			<line class="st0" x1="482.7" y1="305.6" x2="487.3" y2="314.1"/>
			<line class="st0" x1="484.6" y1="314.7" x2="490.3" y2="314.7"/>
			<line class="st0" x1="497.9" y1="281.3" x2="489.1" y2="291"/>
			<path class="st0" d="M469.4,284.8c0,0,9.7,16.5,19.8,6.2"/>
			<path class="st0" d="M510.4,296.4c0,0,5,0.8,6.4,7.1"/>
			<path class="st0" d="M457.1,314.8c0,0-5-0.8-6.4-7.1"/>
		</g>
		<g>
			<g id="XMLID_30_">
				<g>
					<polygon class="st0" points="494.2,321 526.4,321 526.4,296.3 					"/>
				</g>
			</g>
		</g>
	</g>
	<path class="st0" d="M252.5,297.5c0,0-4.8,0.8-6.1,6.8"/>
	<path class="st0" d="M303.1,315c0,0,4.8-0.8,6.1-6.8"/>
	<g>
		<line class="st0" x1="282" y1="320.1" x2="282" y2="240"/>
		<path class="st0" d="M275.1,233.1c0,3.8,3.1,6.9,6.9,6.9c3.8,0,6.9-3.1,6.9-6.9s-3.1-6.9-6.9-6.9
			C278.2,226.2,275.1,229.3,275.1,233.1z"/>
		<line class="st0" x1="288.3" y1="243.1" x2="275.6" y2="243.1"/>
	</g>
	<path class="st0" d="M502.6,321.3"/>
	<path class="st0" d="M488.4,316.8"/>
	<defs>
		<filter id="Adobe_OpacityMaskFilter_4_" filterUnits="userSpaceOnUse" x="533.5" y="226.1" width="16.7" height="96.7">
			<feColorMatrix  type="matrix" values="1 0 0 0 0  0 1 0 0 0  0 0 1 0 0  0 0 0 1 0"/>
		</filter>
	</defs>
	<mask maskUnits="userSpaceOnUse" x="533.5" y="226.1" width="16.7" height="96.7" id="SVGID_1_">
		<g class="st17">
			<g id="XMLID_2_">
				<g>
					<path class="st7" d="M-412.2,137.7L-431,381.4H860.5v-257L-412.2,137.7z M655.8,321.5h-88.7c1.2-14.7,14.6-9.4,14.6-9.4
						c8.9-15,20.5-1.7,20.5-1.7c14.3-22.5,26.6-0.7,26.6-0.7C648.2,297.1,655.8,321.5,655.8,321.5z M828.7,321.5H740
						c1.2-14.7,14.6-9.4,14.6-9.4c8.9-15,20.5-1.7,20.5-1.7c14.3-22.5,26.6-0.7,26.6-0.7C821.1,297.1,828.7,321.5,828.7,321.5z"/>
					<path class="st18" d="M567.1,321.5h88.7c0,0-7.6-24.4-27-11.9c0,0-12.3-21.8-26.6,0.7c0,0-11.7-13.3-20.5,1.7
						C581.6,312.1,568.3,306.8,567.1,321.5z"/>
					<path class="st18" d="M740,321.5h88.7c0,0-7.6-24.4-27-11.9c0,0-12.3-21.8-26.6,0.7c0,0-11.7-13.3-20.5,1.7
						C754.5,312.1,741.2,306.8,740,321.5z"/>
				</g>
				<g>
					<path class="st19" d="M655.8,321.5c0,0-7.6-24.4-27-11.9c0,0-12.3-21.8-26.6,0.7c0,0-11.7-13.3-20.5,1.7c0,0-13.3-5.3-14.6,9.4
						L655.8,321.5L655.8,321.5z"/>
					<path class="st19" d="M828.7,321.5c0,0-7.6-24.4-27-11.9c0,0-12.3-21.8-26.6,0.7c0,0-11.7-13.3-20.5,1.7c0,0-13.3-5.3-14.6,9.4
						L828.7,321.5L828.7,321.5z"/>
					<polygon class="st19" points="-431,381.4 860.5,381.4 860.5,124.4 -412.2,137.7 					"/>
				</g>
			</g>
		</g>
	</mask>
	<g class="st20">
		<g>
			<line class="st0" x1="541.9" y1="321.4" x2="541.9" y2="241.3"/>
			<circle class="st0" cx="541.9" cy="234.4" r="6.9"/>
			<line class="st0" x1="548.2" y1="244.4" x2="535.5" y2="244.4"/>
		</g>
	</g>
</g>
</svg>
