<svg id="Layer_1" data-name="Layer 1" xmlns="http://www.w3.org/2000/svg" xmlns:xlink="http://www.w3.org/1999/xlink" viewBox="0 0 853.2 317.7"><defs><style>.cls-1{fill:#fff;}.cls-10,.cls-12,.cls-2,.cls-3,.cls-5,.cls-6,.cls-7,.cls-8{fill:none;stroke-linejoin:round;}.cls-2,.cls-5{stroke:#000;}.cls-10,.cls-12,.cls-2,.cls-3,.cls-5,.cls-6{stroke-linecap:round;}.cls-2{stroke-width:10.51px;}.cls-3{stroke:#fff;}.cls-3,.cls-5{stroke-width:10.19px;}.cls-4{fill:#020202;}.cls-6,.cls-7,.cls-8{stroke:#e6e6e6;}.cls-10,.cls-12,.cls-6,.cls-8{stroke-width:2.86px;}.cls-7{stroke-width:2.73px;}.cls-8{stroke-linecap:square;}.cls-9{mask:url(#mask);}.cls-10{stroke:#828b90;}.cls-11{mask:url(#mask-2);}.cls-12{stroke:#30bb6a;}.cls-13{mask:url(#mask-3);}.cls-14{mask:url(#mask-4);}.cls-15{mask:url(#mask-5);}</style><mask id="mask" x="224.8" y="215.49" width="137.26" height="114.84" maskUnits="userSpaceOnUse"><g id="SVGID"><g id="_Group_" data-name="&lt;Group&gt;"><polygon class="cls-1" points="282.9 325.07 230.05 325.07 230.05 220.74 356.81 220.74 356.81 325.07 282.9 325.07"/><line class="cls-2" x1="282.9" y1="325.07" x2="282.9" y2="259.25"/><polygon class="cls-2" points="356.81 220.74 230.05 220.74 230.05 325.07 282.9 325.07 356.81 325.07 356.81 220.74"/></g></g></mask><mask id="mask-2" x="620.97" y="248.66" width="156.25" height="107.81" maskUnits="userSpaceOnUse"><g id="SVGID-2" data-name="SVGID"><g id="_Group_2" data-name="&lt;Group&gt;"><path class="cls-1" d="M777.22,248.66V356.47H621V248.66Zm-62.66,72v-23a13.45,13.45,0,0,0-13.45-13.46h-4.59a13.46,13.46,0,0,0-13.46,13.46v23Z"/><path d="M714.56,297.63v23h-31.5v-23a13.45,13.45,0,0,1,13.46-13.46h4.59A13.45,13.45,0,0,1,714.56,297.63Z"/></g></g></mask><mask id="mask-3" x="-22.69" y="248.66" width="156.25" height="107.81" maskUnits="userSpaceOnUse"><g id="SVGID-3" data-name="SVGID"><g id="_Group_3" data-name="&lt;Group&gt;"><path class="cls-1" d="M133.56,248.66V356.47H-22.69V248.66Zm-62.65,72v-23a13.45,13.45,0,0,0-13.46-13.46H52.86A13.46,13.46,0,0,0,39.4,297.63v23Z"/><path d="M70.91,297.63v23H39.4v-23a13.45,13.45,0,0,1,13.46-13.46h4.59A13.45,13.45,0,0,1,70.91,297.63Z"/></g></g></mask><mask id="mask-4" x="359.58" y="230.27" width="226.23" height="134.95" maskUnits="userSpaceOnUse"><g id="SVGID-4" data-name="SVGID"><g id="_Group_4" data-name="&lt;Group&gt;"><path class="cls-1" d="M580.71,235.36V360.12h-216V235.36Zm-57.3,80.08v-25.8l-32.27,25.8Z"/><polygon points="523.41 289.64 523.41 315.44 491.14 315.44 523.41 289.64"/><rect class="cls-3" x="364.67" y="235.36" width="216.04" height="124.76"/></g></g></mask><mask id="mask-5" x="-434.85" y="113.35" width="1301.68" height="267.17" maskUnits="userSpaceOnUse"><g id="SVGID-5" data-name="SVGID"><g id="_Group_5" data-name="&lt;Group&gt;"><path class="cls-1" d="M-411,131.72l-18.71,243.7H861.73v-257ZM657,315.56H568.27c1.24-14.74,14.55-9.42,14.55-9.42,8.87-15,20.53-1.71,20.53-1.71,14.35-22.49,26.62-.72,26.62-.72C649.38,291.17,657,315.56,657,315.56Zm172.91,0H741.17c1.24-14.74,14.56-9.42,14.56-9.42,8.87-15,20.53-1.71,20.53-1.71,14.34-22.49,26.62-.72,26.62-.72C822.28,291.17,829.92,315.56,829.92,315.56Z"/><path class="cls-4" d="M568.27,315.56H657s-7.63-24.39-27-11.85c0,0-12.27-21.77-26.62.72,0,0-11.66-13.26-20.53,1.71C582.82,306.14,569.51,300.82,568.27,315.56Z"/><path class="cls-4" d="M741.17,315.56h88.75s-7.64-24.39-27-11.85c0,0-12.28-21.77-26.62.72,0,0-11.66-13.26-20.53,1.71C755.73,306.14,742.41,300.82,741.17,315.56Z"/><path class="cls-5" d="M657,315.56s-7.63-24.39-27-11.85c0,0-12.27-21.77-26.62.72,0,0-11.66-13.26-20.53,1.71,0,0-13.31-5.32-14.55,9.42Z"/><path class="cls-5" d="M829.92,315.56s-7.64-24.39-27-11.85c0,0-12.28-21.77-26.62.72,0,0-11.66-13.26-20.53,1.71,0,0-13.32-5.32-14.56,9.42Z"/><polygon class="cls-5" points="-429.76 375.42 861.73 375.42 861.73 118.44 -411.05 131.72 -429.76 375.42"/></g></g></mask></defs><title>Artboard 1</title><g id="Birds"><path class="cls-6" d="M350.14,64.42a6.28,6.28,0,1,0-12.55,0"/><path class="cls-6" d="M337.59,64.42a6.28,6.28,0,1,0-12.56,0"/><path class="cls-6" d="M103.83,109.14a6.28,6.28,0,0,0-12.55,0"/><path class="cls-6" d="M91.28,109.14a6.28,6.28,0,0,0-12.56,0"/><path class="cls-6" d="M413.72,139.68a6.28,6.28,0,0,0-12.56,0"/><path class="cls-6" d="M401.16,139.68a6.28,6.28,0,0,0-12.55,0"/><path class="cls-6" d="M597.93,7.71a6.28,6.28,0,1,0-12.56,0"/><path class="cls-6" d="M585.37,7.71a6.28,6.28,0,1,0-12.55,0"/><path class="cls-6" d="M826.66,88.21a6.28,6.28,0,1,0-12.55,0"/><path class="cls-6" d="M814.11,88.21a6.28,6.28,0,1,0-12.55,0"/></g><g id="Background"><line class="cls-7" x1="853.2" y1="316.09" y2="316.09"/><line class="cls-6" x1="765.5" y1="316" x2="630.63" y2="316"/><path class="cls-6" d="M630.63,185V67.6c0-4.12,3.07-7.46,6.85-7.46H758.66c3.78,0,6.84,3.34,6.84,7.46V188.9"/><path class="cls-6" d="M725.15,88.24a8,8,0,0,1-8,8H649.38a8,8,0,0,1-8-8V78.82a8,8,0,0,1,8-8h67.74a8,8,0,0,1,8,8Z"/><path class="cls-6" d="M725.15,121.92a8,8,0,0,1-8,8H649.38a8,8,0,0,1-8-8v-9.41a8,8,0,0,1,8-8h67.74a8,8,0,0,1,8,8Z"/><path class="cls-6" d="M725.15,155.6a8,8,0,0,1-8,8H649.38a8,8,0,0,1-8-8v-9.42a8,8,0,0,1,8-8h67.74a8,8,0,0,1,8,8Z"/><polyline class="cls-6" points="489.44 211.44 460.3 187.88 419.19 220.9 419.19 263.35 419.19 315.82"/><line class="cls-6" x1="419.19" y1="289.35" x2="319.12" y2="289.35"/><line class="cls-6" x1="383.03" y1="280.16" x2="383.03" y2="315.82"/><line class="cls-6" x1="394.26" y1="280.16" x2="394.26" y2="315.82"/><line class="cls-6" x1="405.49" y1="280.16" x2="405.49" y2="315.82"/><line class="cls-6" x1="360.58" y1="280.16" x2="360.58" y2="315.82"/><line class="cls-6" x1="338.12" y1="280.16" x2="338.12" y2="315.82"/><line class="cls-6" x1="349.13" y1="280.16" x2="349.13" y2="315.82"/><line class="cls-6" x1="326.9" y1="280.16" x2="326.9" y2="315.82"/><line class="cls-6" x1="371.81" y1="280.16" x2="371.81" y2="315.82"/><circle class="cls-6" cx="460.14" cy="219.05" r="8.3"/><polyline class="cls-8" points="605.23 226.33 605.23 190.4 549.07 144.83 494.13 188.96 494.13 265.32"/><path class="cls-6" d="M535,201.14a5,5,0,0,0,5,5H559.4a5,5,0,0,0,5-5V181.71a5,5,0,0,0-5-5H540a5,5,0,0,0-5,5Z"/><path class="cls-6" d="M571.62,163V146.86a2.32,2.32,0,0,1,2.33-2.32h15.39a2.32,2.32,0,0,1,2.33,2.32v32.23"/><path class="cls-8" d="M139.87,217.42V124.7a7,7,0,0,1,7-7h80.78a7,7,0,0,1,7,7V310.18"/><path class="cls-6" d="M202.44,142.37a2.06,2.06,0,0,0,2.06,2.06h18.15a2.06,2.06,0,0,0,2.06-2.06V129.25a2.06,2.06,0,0,0-2.06-2.06H204.5a2.06,2.06,0,0,0-2.06,2.06Z"/><path class="cls-6" d="M202.44,169.57a2.06,2.06,0,0,0,2.06,2.06h18.15a2.06,2.06,0,0,0,2.06-2.06V156.45a2.06,2.06,0,0,0-2.06-2.06H204.5a2.06,2.06,0,0,0-2.06,2.06Z"/><path class="cls-6" d="M202.44,196.77a2.06,2.06,0,0,0,2.06,2.06h18.15a2.06,2.06,0,0,0,2.06-2.06V183.65a2.06,2.06,0,0,0-2.06-2.06H204.5a2.06,2.06,0,0,0-2.06,2.06Z"/><path class="cls-6" d="M202.44,224A2.06,2.06,0,0,0,204.5,226h18.15a2.06,2.06,0,0,0,2.06-2.06V210.85a2.05,2.05,0,0,0-2.06-2H204.5a2.05,2.05,0,0,0-2.06,2Z"/><path class="cls-6" d="M202.44,251.18a2.06,2.06,0,0,0,2.06,2.06h18.15a2.06,2.06,0,0,0,2.06-2.06V238.06a2.06,2.06,0,0,0-2.06-2.06H204.5a2.06,2.06,0,0,0-2.06,2.06Z"/><line class="cls-6" x1="159.54" y1="116.78" x2="159.54" y2="68.63"/><line class="cls-6" x1="169.68" y1="79.02" x2="149.17" y2="79.02"/><line class="cls-6" x1="169.68" y1="101.93" x2="149.17" y2="101.93"/><line class="cls-6" x1="175.46" y1="91.58" x2="142.03" y2="91.58"/><path class="cls-6" d="M655.38,316.09s-7.64-24.4-27-11.86c0,0-12.28-21.77-26.62.72,0,0-11.66-13.26-20.54,1.71,0,0-13.31-5.31-14.55,9.43Z"/><path class="cls-6" d="M828.28,316.09s-7.63-24.4-27-11.86c0,0-12.28-21.77-26.62.72,0,0-11.66-13.26-20.53,1.71,0,0-13.32-5.31-14.55,9.43Z"/><path class="cls-6" d="M797.61,316.27V279.44s97.11-8.61,0-129.65"/><path class="cls-6" d="M797.61,279.44s-97.11-8.61,0-129.65"/><path class="cls-6" d="M371.81,304.12V273.89s79.68-7.06,0-106.38"/><path class="cls-6" d="M371.81,273.89s-79.69-7.06,0-106.38"/><g id="_Group_6" data-name="&lt;Group&gt;"><path class="cls-6" d="M602.52,235.65a187.49,187.49,0,0,0-15.62-22.29"/><line class="cls-6" x1="586.9" y1="213.36" x2="602.52" y2="235.65"/><path class="cls-6" d="M586.9,312.63v-22s11.43-1,19.05-8.48a21.41,21.41,0,0,0,5.47-8.73"/><path class="cls-6" d="M586.9,290.67s-57.9-5.14,0-77.31"/><path class="cls-6" d="M635.12,283.13l.37,0c5.69-.67,74-10.77,0-103.32-.12-.15-.24-.31-.37-.46"/><line class="cls-6" x1="635.12" y1="283.13" x2="635.12" y2="312.63"/><path class="cls-6" d="M635.12,283.13s-13.57-1.21-23.7-9.67c-8.17-6.82-14.11-18.37-8.9-37.81h0c3.79-14.18,13.51-32.55,32.6-56.35"/></g><line class="cls-6" x1="87.8" y1="285.15" x2="87.8" y2="254.47"/><line class="cls-6" x1="167.59" y1="254.47" x2="167.59" y2="316.02"/><path class="cls-6" d="M108.53,284.55a8.44,8.44,0,0,1,8.65-8.21h32a8.45,8.45,0,0,1,8.66,8.21V316H108.52V284.55Z"/><polyline class="cls-6" points="81.06 248.79 97.99 222.59 158.53 222.59 175.46 248.79"/><path class="cls-6" d="M81.07,248.79c0,3.14,3.52,5.68,7.86,5.68s7.88-2.54,7.88-5.68c0,3.14,3.52,5.68,7.86,5.68s7.86-2.54,7.86-5.68c0,3.14,3.52,5.68,7.87,5.68s7.87-2.54,7.87-5.68c0,3.14,3.51,5.68,7.86,5.68s7.86-2.54,7.86-5.68c0,3.14,3.53,5.68,7.87,5.68s7.86-2.54,7.86-5.68c0,3.14,3.53,5.68,7.87,5.68s7.87-2.54,7.87-5.68"/><line class="cls-6" x1="128.27" y1="248.79" x2="128.27" y2="222.59"/><line class="cls-6" x1="144" y1="248.79" x2="137.34" y2="222.59"/><line class="cls-6" x1="159.73" y1="248.79" x2="147.93" y2="222.59"/><line class="cls-6" x1="112.46" y1="248.82" x2="119.11" y2="222.61"/><line class="cls-6" x1="96.73" y1="248.82" x2="108.54" y2="222.61"/></g><g id="Sun"><line class="cls-6" x1="58.09" y1="60.95" x2="58.09" y2="72.4"/><line class="cls-6" x1="58.09" y1="18.47" x2="58.09" y2="30.31"/><line class="cls-6" x1="73.29" y1="45.44" x2="85.06" y2="45.44"/><line class="cls-6" x1="31.12" y1="45.44" x2="42.8" y2="45.44"/><line class="cls-6" x1="47.35" y1="56.17" x2="39.02" y2="64.51"/><line class="cls-6" x1="77.16" y1="26.36" x2="68.99" y2="34.53"/><line class="cls-6" x1="68.94" y1="56.29" x2="77.16" y2="64.51"/><line class="cls-6" x1="39.02" y1="26.36" x2="47.31" y2="34.65"/><path class="cls-6" d="M43.66,45.44A14.43,14.43,0,1,0,58.09,31,14.43,14.43,0,0,0,43.66,45.44Z"/></g><g id="Foreground"><g class="cls-9"><path class="cls-10" d="M269.71,300.29a13.13,13.13,0,1,1-13.12-13.13A13.12,13.12,0,0,1,269.71,300.29Z"/><path class="cls-10" d="M315.4,300.29a13.12,13.12,0,1,1-13.12-13.13A13.11,13.11,0,0,1,315.4,300.29Z"/><path class="cls-10" d="M259.4,300.29a2.82,2.82,0,1,1-2.81-2.81A2.82,2.82,0,0,1,259.4,300.29Z"/><circle class="cls-10" cx="278.89" cy="300.29" r="4.29"/><path class="cls-10" d="M305.09,300.14a2.81,2.81,0,1,1-2.81-2.81A2.8,2.8,0,0,1,305.09,300.14Z"/><line class="cls-10" x1="256.59" y1="297.48" x2="278.89" y2="296"/><line class="cls-10" x1="256.59" y1="303.1" x2="278.89" y2="304.58"/><line class="cls-10" x1="254.04" y1="299.1" x2="265.93" y2="280.13"/><path class="cls-10" d="M298.4,277.83c4,0,3.74-3.45,3.74-3.45,0-2.74-4.43-2.48-4.43-2.48h-6l9.7,25.58"/><line class="cls-10" x1="276.97" y1="296.46" x2="263.04" y2="276.03"/><line class="cls-10" x1="281.27" y1="296.72" x2="294.87" y2="281.87"/><path class="cls-10" d="M269.67,274.16A1.87,1.87,0,0,1,267.8,276H261a1.85,1.85,0,0,1-1.86-1.87h0A1.85,1.85,0,0,1,261,272.3h6.77a1.87,1.87,0,0,1,1.87,1.86Z"/><line class="cls-10" x1="278.89" y1="300.29" x2="283.28" y2="308.56"/><line class="cls-10" x1="280.72" y1="309.12" x2="286.17" y2="309.12"/><line class="cls-10" x1="265.93" y1="280.13" x2="294.51" y2="280.13"/></g><g class="cls-11"><path class="cls-10" d="M689.54,300.31a13.13,13.13,0,1,1-13.13-13.13A13.12,13.12,0,0,1,689.54,300.31Z"/><circle class="cls-10" cx="722.12" cy="300.31" r="13.12"/><path class="cls-10" d="M679.23,300.31a2.81,2.81,0,1,1-2.81-2.81A2.81,2.81,0,0,1,679.23,300.31Z"/><circle class="cls-10" cx="698.73" cy="300.31" r="4.29"/><path class="cls-10" d="M724.93,300.16a2.81,2.81,0,1,1-2.81-2.81A2.81,2.81,0,0,1,724.93,300.16Z"/><line class="cls-10" x1="676.41" y1="297.5" x2="698.73" y2="296.02"/><line class="cls-10" x1="676.41" y1="303.12" x2="698.73" y2="304.6"/><line class="cls-10" x1="673.88" y1="299.12" x2="685.77" y2="280.15"/><line class="cls-10" x1="721.23" y1="297.5" x2="711.99" y2="273.48"/><line class="cls-10" x1="696.8" y1="296.47" x2="683.78" y2="277.21"/><line class="cls-10" x1="701.1" y1="296.73" x2="714.71" y2="281.89"/><path class="cls-10" d="M689.54,274.36a1.87,1.87,0,0,1-1.86,1.87H680.9a1.87,1.87,0,0,1-1.87-1.87h0a1.87,1.87,0,0,1,1.87-1.86h6.78a1.86,1.86,0,0,1,1.86,1.86Z"/><line class="cls-10" x1="698.73" y1="300.31" x2="703.11" y2="308.57"/><line class="cls-10" x1="700.56" y1="309.14" x2="706.01" y2="309.14"/><line class="cls-10" x1="711.99" y1="273.48" x2="719.07" y2="273.48"/><line class="cls-10" x1="685.77" y1="280.15" x2="714.56" y2="280.15"/><path class="cls-10" d="M724.69,291.92s4.78.77,6.11,6.78"/><path class="cls-10" d="M674.11,309.4s-4.78-.77-6.11-6.79"/></g><path class="cls-12" d="M710.26,315.32V298.49a9.85,9.85,0,0,0-9.85-9.85h-3.36a9.85,9.85,0,0,0-9.85,9.85v16.83h23.06"/><g class="cls-13"><path class="cls-10" d="M45.89,300.31a13.13,13.13,0,1,1-13.13-13.13A13.12,13.12,0,0,1,45.89,300.31Z"/><circle class="cls-10" cx="78.46" cy="300.31" r="13.12"/><circle class="cls-10" cx="32.76" cy="300.31" r="2.81"/><circle class="cls-10" cx="55.07" cy="300.31" r="4.29"/><path class="cls-10" d="M81.27,300.16a2.81,2.81,0,1,1-2.81-2.81A2.81,2.81,0,0,1,81.27,300.16Z"/><line class="cls-10" x1="32.76" y1="297.5" x2="55.07" y2="296.02"/><line class="cls-10" x1="32.76" y1="303.12" x2="55.07" y2="304.6"/><line class="cls-10" x1="30.22" y1="299.12" x2="42.11" y2="280.15"/><line class="cls-10" x1="77.57" y1="297.5" x2="68.34" y2="273.48"/><line class="cls-10" x1="53.15" y1="296.47" x2="40.12" y2="277.21"/><line class="cls-10" x1="57.44" y1="296.73" x2="71.05" y2="281.89"/><path class="cls-10" d="M45.89,274.36A1.87,1.87,0,0,1,44,276.23H37.25a1.87,1.87,0,0,1-1.87-1.87h0a1.86,1.86,0,0,1,1.87-1.86H44a1.87,1.87,0,0,1,1.87,1.86Z"/><line class="cls-10" x1="55.07" y1="300.31" x2="59.46" y2="308.57"/><line class="cls-10" x1="56.9" y1="309.14" x2="62.35" y2="309.14"/><line class="cls-10" x1="68.34" y1="273.48" x2="75.42" y2="273.48"/><line class="cls-10" x1="42.11" y1="280.15" x2="70.9" y2="280.15"/><path class="cls-10" d="M81,291.92s4.78.77,6.11,6.78"/><path class="cls-10" d="M30.45,309.4s-4.79-.77-6.11-6.79"/></g><path class="cls-12" d="M66.6,315.32V298.49a9.85,9.85,0,0,0-9.84-9.85H53.39a9.85,9.85,0,0,0-9.85,9.85v16.83H66.6"/><g class="cls-14"><path class="cls-10" d="M474.45,299.6a13.55,13.55,0,1,1-13.55-13.55A13.54,13.54,0,0,1,474.45,299.6Z"/><circle class="cls-10" cx="508.09" cy="299.6" r="13.55"/><path class="cls-10" d="M463.81,299.6a2.9,2.9,0,1,1-2.91-2.9A2.91,2.91,0,0,1,463.81,299.6Z"/><path class="cls-10" d="M488.37,299.6a4.43,4.43,0,1,1-4.43-4.43A4.44,4.44,0,0,1,488.37,299.6Z"/><path class="cls-10" d="M511,299.45a2.9,2.9,0,1,1-2.9-2.9A2.9,2.9,0,0,1,511,299.45Z"/><line class="cls-10" x1="460.9" y1="296.7" x2="483.94" y2="295.17"/><line class="cls-10" x1="460.9" y1="302.5" x2="483.94" y2="304.03"/><line class="cls-10" x1="458.28" y1="298.37" x2="470.56" y2="278.79"/><polyline class="cls-10" points="507.17 296.7 497.16 270.28 490.98 270.28"/><line class="cls-10" x1="481.95" y1="295.64" x2="468.5" y2="275.75"/><line class="cls-10" x1="486.39" y1="295.91" x2="500.44" y2="280.58"/><path class="cls-10" d="M474.42,273.83a1.92,1.92,0,0,1-1.93,1.92h-7a1.92,1.92,0,0,1-1.92-1.92h0a1.92,1.92,0,0,1,1.92-1.93h7a1.92,1.92,0,0,1,1.93,1.93Z"/><line class="cls-10" x1="483.94" y1="299.6" x2="488.47" y2="308.13"/><line class="cls-10" x1="485.83" y1="308.71" x2="491.46" y2="308.71"/><line class="cls-10" x1="499.08" y1="275.34" x2="490.32" y2="284.99"/><path class="cls-10" d="M470.56,278.79s9.71,16.5,19.76,6.2"/><path class="cls-10" d="M511.57,290.39s5,.81,6.44,7.15"/><path class="cls-10" d="M458.28,308.81s-5-.81-6.44-7.15"/></g><g id="_Group_7" data-name="&lt;Group&gt;"><polygon class="cls-12" points="495.36 314.99 527.63 314.99 527.63 290.37 495.36 314.99"/></g><path class="cls-10" d="M253.73,291.57s-4.77.77-6.1,6.78"/><path class="cls-10" d="M304.32,309.05s4.78-.77,6.11-6.78"/><line class="cls-10" x1="283.19" y1="314.1" x2="283.19" y2="234.06"/><path class="cls-10" d="M276.27,227.14a6.92,6.92,0,1,0,6.92-6.91A6.92,6.92,0,0,0,276.27,227.14Z"/><line class="cls-10" x1="289.54" y1="237.15" x2="276.75" y2="237.15"/><g class="cls-15"><line class="cls-10" x1="543.09" y1="315.39" x2="543.09" y2="235.35"/><circle class="cls-10" cx="543.09" cy="228.43" r="6.92"/><line class="cls-10" x1="549.45" y1="238.44" x2="536.65" y2="238.44"/></g></g></svg>