<svg xmlns="http://www.w3.org/2000/svg" viewBox="0 0 120 120"><defs><style>.cls-1{fill:#fafafa;stroke:#000;stroke-miterlimit:10;}.cls-2{fill:#e7ffe5;}.cls-3{fill:#c8f8d5;}.cls-4{fill:none;stroke:#144f2c;stroke-linecap:round;stroke-linejoin:round;stroke-width:3px;}</style></defs><title>art_tag_strong</title><g id="bg"><rect class="cls-1" x="-47.49" y="-20.31" width="421" height="706.71"/></g><g id="musclo"><circle class="cls-2" cx="60" cy="81.29" r="32.9"/><path class="cls-3" d="M27.76,79.7a20.08,20.08,0,0,0-1.24,4.07,2.69,2.69,0,0,0,1.29,2.7c.23.19.5.38.79.6s.65.5,1,.76c.11.1.09.06.12.08l.07,0L30,88a3.57,3.57,0,0,0,.68.11,11.06,11.06,0,0,0,1.81,0l1-.1.56-.06a4.4,4.4,0,0,1,.8,0,1.43,1.43,0,0,1,.5.09l.3.12a45.06,45.06,0,0,0,5.26,1.59c1.82.45,3.68.82,5.54,1.16,3.74.66,7.52,1.19,11.33,1.75a52.53,52.53,0,0,0,11.35.83,17.64,17.64,0,0,0,5.44-1.22,15.23,15.23,0,0,0,4.67-3c.71-.63,1.37-1.34,2-2.05A15.94,15.94,0,0,0,83.06,85a18.63,18.63,0,0,0,2.32-5,31.7,31.7,0,0,0,1.13-11,40.87,40.87,0,0,0-.71-5.44c-.07-.44-.18-.89-.29-1.34l-.17-.66-.08-.34,0-.17v0l0,.12a2.71,2.71,0,0,0,.36.75,2.52,2.52,0,0,0,.3.35,2.17,2.17,0,0,0,.29.24,2.66,2.66,0,0,0,.52.29l.35.1.22,0c.21,0,.25,0,.24,0l-.43.11a3.31,3.31,0,0,0-.32.1l-.23.08a2.43,2.43,0,0,0-.47.19,8,8,0,0,0-3.17,2.82c-1,1.32-1.78,2.92-2.94,4.78a3.19,3.19,0,0,1-4.38,1,3.24,3.24,0,0,1-1.29-1.58l-.09-.25a11.4,11.4,0,0,0-1-2,10.24,10.24,0,0,0-1.75-2,15.15,15.15,0,0,0-2.61-1.73c-1-.55-2.14-1-3.37-1.56h0a.34.34,0,0,1-.16-.44.46.46,0,0,1,.15-.16,10.74,10.74,0,0,1,4-1.15,11,11,0,0,1,4.36.49,10.43,10.43,0,0,1,4,2.44,9.63,9.63,0,0,1,2.59,4.26l-5.77-.8A52.3,52.3,0,0,1,78,62.31a17.15,17.15,0,0,1,2.58-2.52A11.67,11.67,0,0,1,84,57.94a7.17,7.17,0,0,1,.93-.29l.47-.11.4-.09c.22-.05.55-.12,1-.18a4.91,4.91,0,0,1,1,0,2.59,2.59,0,0,1,.4.06,4.07,4.07,0,0,1,.53.16,2.94,2.94,0,0,1,.68.37,2.49,2.49,0,0,1,.36.3,3.62,3.62,0,0,1,.36.42,2.94,2.94,0,0,1,.44.91c.06.22,0,.19,0,.21v.05l0,.19.07.39.13.77a13.31,13.31,0,0,1,.22,1.56A31.6,31.6,0,0,1,91.2,69,33.94,33.94,0,0,1,88,81a25.79,25.79,0,0,1-3.27,5.28,23.86,23.86,0,0,1-2.11,2.23c-.71.69-1.42,1.39-2.18,2.06A22.27,22.27,0,0,1,75.4,94a27.59,27.59,0,0,1-5.83,2.09A52.16,52.16,0,0,1,57.43,97.4a55.37,55.37,0,0,1-12-1.31,55.2,55.2,0,0,1-5.9-1.58,36.12,36.12,0,0,1-5.81-2.41l.8.22s-.15,0-.31,0l-.54,0-1.18,0a13.76,13.76,0,0,1-2.58-.38,7.09,7.09,0,0,1-1.43-.55,5.16,5.16,0,0,1-.74-.48c-.12-.09-.24-.2-.36-.31l-.28-.31-.64-.74c-.26-.28-.54-.58-.81-.92A6.11,6.11,0,0,1,24.36,86a4.56,4.56,0,0,1,.27-2.83,15.09,15.09,0,0,1,2.63-3.84.3.3,0,0,1,.43,0,.3.3,0,0,1,.08.33Z"/><path class="cls-3" d="M63.62,35.24c.81,1,1.41,2,2.07,2.66a1.83,1.83,0,0,0,.88.58c.23,0,.28-.13.36-.22l0,0,.12,0,.24-.07.52-.15a6,6,0,0,0,.92-.41,7.6,7.6,0,0,0,1.65-1.19,15.27,15.27,0,0,0,1.68-1.83l1.86-2.36c1.32-1.65,2.74-3.21,4.41-5a9.64,9.64,0,0,1,.39,3.63,17.35,17.35,0,0,1-.58,3.47,18.21,18.21,0,0,1-1.28,3.31,12,12,0,0,1-2.42,3.19A9.39,9.39,0,0,1,70.62,43a8.63,8.63,0,0,1-2.24.3c-.37,0-.73,0-1.1-.07l-.57-.11L66.42,43l-.37-.1a4.39,4.39,0,0,1-2.41-1.77,4.73,4.73,0,0,1-.72-2.22A8.2,8.2,0,0,1,63.62,35.24Z"/><path class="cls-3" d="M55.68,84.49a13.24,13.24,0,0,1,4-1.95,32.52,32.52,0,0,1,3.62-.85c1.12-.2,2-.34,3.24-.64A10.39,10.39,0,0,1,71,80.79a12.84,12.84,0,0,1-2.55,3.69,8.29,8.29,0,0,1-4.28,2.13,11,11,0,0,1-4.4-.15A10.26,10.26,0,0,1,55.68,84.49Z"/><path class="cls-4" d="M55.25,60.3c-.66-11.2,3.39-21,4.14-23.41,1.51-.17,3-.3,4.54-.53.34,2.11,1.37,5,3.9,5.28l.66,0c4,0,6.33-3.87,7.62-6,1.6-2.65,3.12-5.39,2.65-7.3-.52-2.1-3.46-3.14-5.18-3.91a41.71,41.71,0,0,0-9.06-3.13c-1.92-.37-5.11-1.09-7-.19a9.39,9.39,0,0,0-3,3.15c-1,1.67-3.22,3.15-4.59,4.57A96.26,96.26,0,0,0,34.43,50C28.63,60.81,27.08,77.73,26.9,80A20,20,0,0,0,25,83.81c-1,2.64.79,4.2,2.06,5.34.29.25.56.5.8.75,1.52,1.6,5.4,2,6.37,2.07,1.26.6,11.29,4.26,26.55,4.26S79.89,93,84.34,88.42c4.7-4.81,7.27-17.79,4.45-29.69a.89.89,0,0,0-1.05-.68,16.82,16.82,0,0,0-10.53,7.67c-1.4-1.32-4.63-3.54-11-4.42C56.75,60,48,71.54,44.71,78.43"/><path class="cls-4" d="M56.24,82.86c7.67,1.18,9.52.7,15.31-3.7"/></g></svg>