<svg xmlns="http://www.w3.org/2000/svg" width="120" height="120" viewBox="0 0 120 120">
  <defs>
    <style>
      .cls-1 {
        fill: #deffed;
      }

      .cls-2, .cls-4 {
        fill: #c8f8d5;
      }

      .cls-3 {
        fill: none;
        stroke-width: 3.5px;
      }

      .cls-3, .cls-4 {
        stroke: #144f2c;
        stroke-linecap: round;
        stroke-linejoin: round;
      }

      .cls-4 {
        stroke-width: 3px;
      }
    </style>
  </defs>
  <title>Artboard 1 copy 84</title>
  <g id="chpeu">
    <path class="cls-1" d="M86.3,28.52c0,4.65.88,8.43-3.78,8.43s-13.08-3.78-13.08-8.43a8.43,8.43,0,1,1,16.86,0Z"/>
    <path class="cls-1" d="M83.21,75.86a33,33,0,1,1-66,0c0-9.12,9.9-31.69,15.87-37.67a33,33,0,0,1,23.35-9.67C74.63,28.52,83.21,57.62,83.21,75.86Z"/>
    <path class="cls-2" d="M36.84,74.24a26.47,26.47,0,0,1-7.36-3.34,34.59,34.59,0,0,1-3.07-2.19c-1-.77-1.9-1.59-2.78-2.44a4.17,4.17,0,0,1-.87-4.79l.42-.87a30.38,30.38,0,0,1,5.41-7.93,26.57,26.57,0,0,1,3.81-3.3,19.76,19.76,0,0,1,4.9-2.62,20.08,20.08,0,0,1-.09,5.56A27.11,27.11,0,0,1,36,57.21a30.4,30.4,0,0,1-4.6,8.43L31,60a35.87,35.87,0,0,1,2,3.12,36.48,36.48,0,0,1,1.71,3.36A26.46,26.46,0,0,1,36.84,74.24Z"/>
    <path class="cls-2" d="M86.83,74.24a32.94,32.94,0,0,1,1.61-3.45c.59-1.1,1.22-2.17,1.87-3.22a69,69,0,0,1,4.24-6l-.23,2.82a60.6,60.6,0,0,1-4.8-8.31,45.36,45.36,0,0,1-1.86-4.48,28.8,28.8,0,0,1-1.3-4.83,28.54,28.54,0,0,1,3.71,3.36,47.47,47.47,0,0,1,3.14,3.69,61.29,61.29,0,0,1,5.22,8.06l.11.2a2.26,2.26,0,0,1-.34,2.63,73.07,73.07,0,0,1-5.31,5.09c-.94.8-1.9,1.59-2.9,2.34A36.94,36.94,0,0,1,86.83,74.24Z"/>
    <path class="cls-3" d="M89.94,72.13l9.31-10.07-14.9-17.7L60.13,35.05,35.92,44.36,21,62.06l9.58,10.33m29.54-3.81c-10.93,0-20,2.32-25.15,6.52-1.56,1.2-2.79,2.75-2.79,3.72,0,4.46,13.44,6.52,27.94,6.52s27.94-2.06,27.94-6.52c0-1-1.23-2.52-2.79-3.72C80.17,70.9,71.06,68.58,60.13,68.58Z"/>
    <path class="cls-4" d="M60.16,45.3l9.28,2.79c-1,7.56-4.75,12.11-9.28,12.11s-8.36-4.55-9.34-12.11Z"/>
  </g>
</svg>
