<svg xmlns="http://www.w3.org/2000/svg" width="156.5" height="156.5" viewBox="0 0 156.5 156.5">
  <defs>
    <style>
      .cls-1 {
        fill: #deffed;
      }

      .cls-2 {
        fill: #c8f8d5;
      }

      .cls-3 {
        fill: none;
        stroke: #144f2c;
        stroke-linecap: round;
        stroke-linejoin: round;
        stroke-width: 3px;
      }

      .cls-4 {
        fill: #144f2c;
      }
    </style>
  </defs>
  <title>Artboard 1 copy 86</title>
  <g id="zolho">
    <path class="cls-1" d="M58.19,84.7c0,9.5,3.35,17-2.67,17s-13-5.37-13-14.87c0-2.87-1.39-9.52-.6-11.9,1.82-5.49,5-4.81,9.17-4.81C57.08,70.16,58.19,75.2,58.19,84.7Z"/>
    <path class="cls-1" d="M131.76,93.55a30,30,0,0,1-4.48,15.82c-5.32,8.61-18.23,9.31-29.09,9.31-5.23,0-19.67-7.67-24-10-9.38-5.12-9-8.34-9-19.78,0-3.75-1.3-7.34,0-10.65,4.31-11.41,10.58-19.52,23.5-19.52C105.33,58.73,131.76,76.88,131.76,93.55Z"/>
    <path class="cls-2" d="M98.84,65.7a41,41,0,0,1,6.22,2.18A10.28,10.28,0,0,1,108.25,70a9.59,9.59,0,0,1,2.13,3.88c.1.36.18.82.25,1.24a9.3,9.3,0,0,1,0,1.4,7.41,7.41,0,0,1-.8,2.73,11.24,11.24,0,0,1-2.77,3.3c-1.78,1.48-3.25,2.43-4.6,3.57l-.72.62A44.29,44.29,0,0,1,97,88.47a26,26,0,0,1-5.21,1A25.51,25.51,0,0,1,95,85.25a43.06,43.06,0,0,1,3.67-3.5l-.72.62a25.92,25.92,0,0,1,4.5-5,9.88,9.88,0,0,0,1.3-1.4c.14-.24.24-.13.26-.68a8.93,8.93,0,0,0-.32-1.83,9.84,9.84,0,0,0-1.36-2.1A21.83,21.83,0,0,1,98.84,65.7Z"/>
    <g>
      <path class="cls-3" d="M67.91,62.69a15.72,15.72,0,1,0,28.7,8.87,15.59,15.59,0,0,0-2.25-8.07"/>
      <path class="cls-4" d="M80.32,58.07c7.44,0,14.68,3,21.53,9A52.06,52.06,0,0,1,109,74.87a53.07,53.07,0,0,1-7.17,7.76c-6.85,6-14.09,9-21.53,9s-14.68-3-21.52-9a51.94,51.94,0,0,1-7.17-7.76,51,51,0,0,1,7.17-7.76c6.84-6,14.08-9,21.52-9m0-3C60.45,55.07,48,74.87,48,74.87S60.45,94.66,80.32,94.66s32.36-19.79,32.36-19.79-12.48-19.8-32.36-19.8Z"/>
      <path class="cls-3" d="M71.36,69.85c1-4.82,3.93-5.76,6.22-5.79"/>
    </g>
  </g>
</svg>
