<svg xmlns="http://www.w3.org/2000/svg" xmlns:xlink="http://www.w3.org/1999/xlink" viewBox="0 0 120 120"><defs><style>.cls-1{fill:#fff;}.cls-2,.cls-3,.cls-5,.cls-7{fill:none;stroke-linecap:round;stroke-linejoin:round;}.cls-2,.cls-3{stroke:#000;}.cls-2{stroke-width:12px;}.cls-3{stroke-width:14.17px;}.cls-4{fill:#e7ffe5;}.cls-5,.cls-7{stroke:#144f2c;}.cls-5{stroke-width:3px;}.cls-6{mask:url(#mask);}.cls-7{stroke-width:2.5px;}</style><mask id="mask" x="-17.39" y="-1.03" width="159.9" height="122.75" maskUnits="userSpaceOnUse"><g id="SVGID"><g id="_Group_" data-name="&lt;Group&gt;"><polygon class="cls-1" points="135.42 6.05 135.42 114.63 -10.31 110.47 -10.31 6.05 135.42 6.05"/><path class="cls-2" d="M45.5,85.78V63.52a15.41,15.41,0,1,1,30.81,0V85.78"/><polygon class="cls-3" points="135.42 114.63 -10.31 110.47 -10.31 6.05 135.42 6.05 135.42 114.63"/></g></g></mask></defs><title>art_tag_racktype copy 3</title><g id="placa"><circle class="cls-4" cx="77.76" cy="55.3" r="39.4"/><line class="cls-5" x1="17.22" y1="88.32" x2="15.36" y2="88.32"/><polyline class="cls-5" points="95.7 88.32 73.68 88.32 21.33 88.32"/><line class="cls-5" x1="107.07" y1="88.32" x2="100.37" y2="88.32"/><path class="cls-5" d="M45.5,88.32V64a15.4,15.4,0,0,1,15.41-15.4h0A15.4,15.4,0,0,1,76.31,64V88.32"/><g class="cls-6"><circle class="cls-7" cx="34.25" cy="68.76" r="15.89"/><circle class="cls-7" cx="89.58" cy="68.76" r="15.89"/><circle class="cls-7" cx="34.25" cy="68.76" r="3.4"/><path class="cls-7" d="M66.45,68.76a5.19,5.19,0,1,1-5.19-5.2A5.19,5.19,0,0,1,66.45,68.76Z"/><circle class="cls-7" cx="89.58" cy="68.58" r="3.4"/><line class="cls-7" x1="34.25" y1="65.35" x2="61.26" y2="63.56"/><line class="cls-7" x1="34.25" y1="72.16" x2="61.26" y2="73.95"/><line class="cls-7" x1="31.17" y1="67.32" x2="45.56" y2="44.35"/><polyline class="cls-7" points="88.5 65.35 76.76 34.38 69.52 34.38"/><line class="cls-7" x1="58.93" y1="64.12" x2="43.16" y2="40.79"/><line class="cls-7" x1="64.13" y1="64.43" x2="80.6" y2="46.45"/><path class="cls-7" d="M50.09,38.53a2.26,2.26,0,0,1-2.26,2.26h-8.2a2.26,2.26,0,0,1-2.26-2.26h0a2.26,2.26,0,0,1,2.26-2.26h8.2a2.26,2.26,0,0,1,2.26,2.26Z"/><line class="cls-7" x1="79.01" y1="40.31" x2="68.74" y2="51.62"/><path class="cls-7" d="M45.56,44.35S57,63.7,68.74,51.62"/></g></g></svg>