<?xml version="1.0" encoding="utf-8"?>
<!-- Generator: Adobe Illustrator 22.1.0, SVG Export Plug-In . SVG Version: 6.00 Build 0)  -->
<svg version="1.1" id="Layer_1" xmlns="http://www.w3.org/2000/svg" xmlns:xlink="http://www.w3.org/1999/xlink" x="0px" y="0px"
	 viewBox="0 0 120 120" style="enable-background:new 0 0 120 120;" xml:space="preserve">
<style type="text/css">
	.st0{fill:#E7FFE5;}
	.st1{fill:#C8F8D5;}
	.st2{fill:none;stroke:#144F2C;stroke-width:3;stroke-linecap:round;stroke-linejoin:round;}
	.st3{fill:#C8F8D5;stroke:#144F2C;stroke-width:3;stroke-linecap:round;stroke-linejoin:round;}
</style>
<title>art_tag_monitored</title>
<g id="chpeu">
	<circle class="st0" cx="49.8" cy="74.2" r="36.5"/>
	<path class="st1" d="M36.8,74.2c-2.6-0.7-5.1-1.9-7.4-3.3c-1.1-0.7-2.1-1.4-3.1-2.2c-1-0.8-1.9-1.6-2.8-2.4
		c-1.3-1.2-1.6-3.2-0.9-4.8l0.4-0.9c1.4-2.9,3.2-5.6,5.4-7.9c1.2-1.2,2.4-2.3,3.8-3.3c1.5-1.1,3.2-2,4.9-2.6
		c0.2,1.8,0.2,3.7-0.1,5.6C37,54,36.6,55.6,36,57.2c-1.1,3-2.6,5.9-4.6,8.4L31,60c0.7,1,1.4,2,2,3.1c0.6,1.1,1.2,2.2,1.7,3.4
		C35.8,68.9,36.5,71.6,36.8,74.2z"/>
	<path class="st1" d="M86.8,74.2c0.5-1.2,1-2.3,1.6-3.4c0.6-1.1,1.2-2.2,1.9-3.2c1.3-2.1,2.7-4.1,4.2-6l-0.2,2.8
		c-1.8-2.6-3.4-5.4-4.8-8.3c-0.7-1.5-1.3-3-1.9-4.5c-0.6-1.6-1-3.2-1.3-4.8c1.3,1,2.6,2.1,3.7,3.4c1.1,1.2,2.2,2.4,3.1,3.7
		c1.9,2.5,3.7,5.2,5.2,8.1l0.1,0.2c0.5,0.9,0.3,1.9-0.3,2.6c-1.7,1.8-3.5,3.5-5.3,5.1c-0.9,0.8-1.9,1.6-2.9,2.3
		C89,72.9,87.9,73.6,86.8,74.2z"/>
	<path class="st2" d="M89.9,72.1l9.3-10.1L84.3,44.4L60.1,35l-24.2,9.3L21,62.1l9.6,10.3 M60.1,68.6c-10.9,0-20,2.3-25.2,6.5
		c-1.6,1.2-2.8,2.8-2.8,3.7c0,4.5,13.4,6.5,27.9,6.5s27.9-2.1,27.9-6.5c0-1-1.2-2.5-2.8-3.7C80.2,70.9,71.1,68.6,60.1,68.6
		L60.1,68.6z"/>
	<path class="st3" d="M60.2,45.3l9.3,2.8c-1,7.6-4.8,12.1-9.3,12.1s-8.4-4.5-9.3-12.1L60.2,45.3z"/>
</g>
</svg>
