<svg xmlns="http://www.w3.org/2000/svg" viewBox="0 0 120 120"><defs><style>.cls-1{fill:#fafafa;stroke:#000;stroke-miterlimit:10;}.cls-2{fill:#e7ffe5;}.cls-3{fill:#c8f8d5;}.cls-4{fill:none;stroke:#144f2c;stroke-linecap:round;stroke-linejoin:round;stroke-width:3px;}.cls-5{fill:#144f2c;}</style></defs><title>art_tag_visible</title><g id="bg"><rect class="cls-1" x="-253.49" y="-196.31" width="421" height="706.71"/></g><g id="zolho"><circle class="cls-2" cx="65.42" cy="77.75" r="30.17"/><path class="cls-3" d="M81.59,47.45a41,41,0,0,1,6.22,2.18A10.28,10.28,0,0,1,91,51.79a9.59,9.59,0,0,1,2.13,3.88c.1.36.18.82.25,1.24a9.3,9.3,0,0,1,0,1.4,7.41,7.41,0,0,1-.8,2.73,11.24,11.24,0,0,1-2.77,3.3c-1.78,1.48-3.25,2.43-4.6,3.57l-.72.62a44.29,44.29,0,0,1-4.78,1.69,26,26,0,0,1-5.21,1A25.51,25.51,0,0,1,77.76,67a43.06,43.06,0,0,1,3.67-3.5l-.72.62a25.92,25.92,0,0,1,4.5-5,9.88,9.88,0,0,0,1.3-1.4c.14-.24.24-.13.26-.68a8.93,8.93,0,0,0-.32-1.83,9.84,9.84,0,0,0-1.36-2.1A21.83,21.83,0,0,1,81.59,47.45Z"/><path class="cls-4" d="M48.82,43.62a16.78,16.78,0,1,0,30.64,9.46,16.59,16.59,0,0,0-2.41-8.6"/><path class="cls-5" d="M62.07,38.48c8,0,15.78,3.27,23.12,9.71A55,55,0,0,1,93,56.62,55,55,0,0,1,85.19,65c-7.34,6.45-15.12,9.71-23.12,9.71S46.3,71.49,39,65a55.35,55.35,0,0,1-7.76-8.42A55.31,55.31,0,0,1,39,48.19c7.35-6.44,15.12-9.71,23.12-9.71m0-3c-21.21,0-34.54,21.14-34.54,21.14S40.86,77.75,62.07,77.75,96.62,56.62,96.62,56.62,83.29,35.48,62.07,35.48Z"/><path class="cls-4" d="M52.5,51.27c1.09-5.15,4.2-6.15,6.64-6.2"/></g></svg>