<?xml version="1.0" encoding="utf-8"?>
<!-- Generator: Adobe Illustrator 22.1.0, SVG Export Plug-In . SVG Version: 6.00 Build 0)  -->
<svg version="1.1" id="Layer_1" xmlns="http://www.w3.org/2000/svg" xmlns:xlink="http://www.w3.org/1999/xlink" x="0px" y="0px"
	 viewBox="0 0 120 120" style="enable-background:new 0 0 120 120;" xml:space="preserve">
<style type="text/css">
	.st0{fill:#DEFFED;}
	.st1{fill:#C8F8D5;}
	.st2{fill:none;stroke:#144F2C;stroke-width:3;stroke-linecap:round;stroke-linejoin:round;}
</style>
<title>Artboard 1 copy 82</title>
<g id="musclo">
	<path class="st0" d="M23.6,43.1c-1.8,2.4-5.3,4.5-7.7,2.6s-0.7-7.2,1.1-9.6c1.8-2.4,5.3-2.8,7.6-1c0,0,0,0,0,0
		C27.1,37,25.5,40.7,23.6,43.1z"/>
	<path class="st0" d="M100.4,64.6c0,11.2-12,28.8-19.4,36.2c-7.6,7.6-17.9,11.9-28.6,11.9c-8.4,0-15.6-6.7-22.1-11.1
		c-10.8-7.3-18.4-15.4-18.4-29.4S20,51.8,30.8,44.5c6.5-4.4,13.2-12.9,21.6-12.9c14,0,33.2,1.6,40.5,12.4
		C97.3,50.5,100.4,56.2,100.4,64.6z"/>
	<g>
		<path class="st1" d="M26.5,79.8c-0.7,1.5-1.2,3-1.5,4.6c-0.2,1.3,0.4,2.5,1.5,3.2c0.3,0.2,0.6,0.4,0.9,0.7s0.7,0.6,1.1,0.9
			c0.1,0.1,0.1,0.1,0.2,0.1h0.1c0.1,0,0.2,0.1,0.3,0.1c0.3,0.1,0.5,0.1,0.8,0.2c0.7,0.1,1.4,0.1,2.1,0l1.2-0.1l0.6-0.1
			c0.3,0,0.6,0,0.9,0c0.2,0,0.4,0,0.5,0.1l0.3,0.1c2,0.7,4,1.4,6,1.8c2.1,0.5,4.2,1,6.3,1.3c4.2,0.8,8.5,1.3,12.8,2
			c4.3,0.7,8.6,1,12.9,0.8c2.1-0.2,4.1-0.7,6.1-1.5c2-0.8,3.8-2,5.3-3.5c0.8-0.7,1.6-1.5,2.3-2.3c0.4-0.4,0.8-0.8,1.1-1.2
			c0.4-0.4,0.7-0.8,1-1.2c1.2-1.8,2.1-3.7,2.7-5.7c1.2-4.1,1.7-8.3,1.4-12.5c-0.1-2.1-0.4-4.2-0.8-6.2c-0.1-0.5-0.2-1-0.3-1.5
			l-0.2-0.8L92,58.7v-0.2l0,0c0,0,0-0.1,0,0.1c0.1,0.3,0.2,0.5,0.4,0.7c0.1,0.1,0.2,0.2,0.3,0.3c0.1,0.1,0.2,0.2,0.3,0.2
			c0.2,0.1,0.3,0.2,0.5,0.3c0.1,0,0.2,0.1,0.3,0.1H94c0.2,0,0.2,0,0.2,0l-0.5,0.1c-0.1,0-0.2,0.1-0.4,0.1L93,60.7
			c-0.2,0.1-0.4,0.1-0.6,0.2c-1.5,0.7-2.8,1.9-3.8,3.3c-1.1,1.5-2,3.3-3.3,5.4c-0.9,1.5-2.9,1.9-4.4,1c0,0,0,0,0,0
			c-0.6-0.4-1.1-0.9-1.3-1.6l-0.1-0.2c-0.3-0.9-0.8-1.7-1.3-2.5c-0.6-0.9-1.3-1.6-2.1-2.3c-1-0.7-2-1.4-3.1-1.9
			c-1.2-0.6-2.4-1-3.8-1.6l0,0c-0.2-0.1-0.2-0.3-0.2-0.4c0-0.1,0.1-0.1,0.2-0.2c1.4-0.6,2.8-1,4.3-1.2c1.6-0.1,3.3,0.1,4.8,0.6
			c1.7,0.6,3.2,1.5,4.4,2.7c1.3,1.3,2.3,2.9,2.8,4.7l-5.8-0.8c1.2-2,2.5-3.9,3.9-5.8c0.8-1,1.8-2,2.8-2.8c1.1-0.9,2.4-1.5,3.7-2
			c0.3-0.1,0.7-0.2,1-0.3l0.5-0.1l0.4-0.1c0.4-0.1,0.7-0.1,1.1-0.2c0.3,0,0.7,0,1,0l0.4,0.1c0.2,0,0.4,0.1,0.5,0.2
			c0.2,0.1,0.5,0.2,0.7,0.4c0.1,0.1,0.2,0.2,0.4,0.3c0.1,0.1,0.2,0.3,0.3,0.4c0.2,0.3,0.4,0.6,0.4,0.9c0.1,0.2,0,0.2,0,0.2l0,0v0.2
			l0.1,0.4l0.3,0.9c0.1,0.6,0.2,1.2,0.2,1.8c0.3,2.3,0.4,4.7,0.2,7.1c-0.3,4.7-1.5,9.3-3.4,13.5c-1,2.1-2.2,4.2-3.6,6
			c-0.7,0.9-1.5,1.7-2.4,2.5c-0.8,0.8-1.6,1.6-2.4,2.3c-1.7,1.6-3.6,2.9-5.7,3.9c-2.1,1-4.3,1.8-6.6,2.3c-4.5,1-9.1,1.4-13.7,1.3
			c-4.6,0-9.1-0.5-13.5-1.5c-2.2-0.5-4.5-1.1-6.7-1.8c-2.2-0.7-4.4-1.6-6.5-2.7l0.8,0.2c-0.1,0-0.3,0-0.4,0h-0.6h-1.3
			c-1,0-1.9-0.2-2.9-0.4c-0.5-0.1-1.1-0.3-1.6-0.6c-0.3-0.1-0.5-0.3-0.8-0.5c-0.1-0.1-0.3-0.2-0.4-0.3L26,91.6l-0.8-0.8
			c-0.3-0.3-0.6-0.7-0.9-1C23.6,89,23.2,88,22.9,87c-0.2-1-0.1-2.1,0.3-3.1c0.7-1.6,1.7-3.1,2.9-4.3c0.1-0.1,0.3-0.1,0.4,0
			c0,0,0,0,0,0C26.5,79.6,26.6,79.7,26.5,79.8z"/>
		<path class="st1" d="M67.1,29.5c0.8,1.1,1.4,2.3,2.2,3.1c0.3,0.3,0.6,0.6,1,0.8c0.2,0.1,0.4,0,0.5-0.1c0.2-0.1,0.7-0.2,1.1-0.3
			c0.4-0.1,0.8-0.3,1.1-0.5c0.7-0.4,1.4-0.9,2-1.4c0.7-0.7,1.4-1.4,1.9-2.2l2.1-2.7c1.4-1.9,3-3.7,4.7-5.8c0.3,1.3,0.4,2.7,0.3,4
			c-0.1,1.3-0.4,2.6-0.8,3.9c-0.4,1.3-0.9,2.5-1.5,3.7c-0.3,0.6-0.7,1.3-1.2,1.9c-0.5,0.6-1,1.2-1.5,1.7c-1.2,1.1-2.6,1.9-4.2,2.4
			c-0.8,0.2-1.6,0.3-2.4,0.3c-0.4,0-0.8,0-1.2-0.1l-0.6-0.1L70.3,38l-0.4-0.1c-1.1-0.3-2-1-2.6-1.9c-0.5-0.7-0.7-1.5-0.8-2.4
			C66.4,32.2,66.6,30.8,67.1,29.5z"/>
		<path class="st1" d="M58.2,85.2c1.4-0.9,2.9-1.6,4.5-2c1.5-0.4,2.9-0.7,4.2-0.9s2.3-0.4,3.7-0.8c1.6-0.5,3.3-0.7,4.9-0.5
			c-0.8,1.5-1.8,2.8-3,4c-1.3,1.2-3,2-4.8,2.3c-1.6,0.3-3.3,0.2-4.9-0.1C61.1,86.9,59.5,86.2,58.2,85.2z"/>
	</g>
	<g>
		<path class="st2" d="M57.7,57.8c-0.8-12.7,3.8-23.7,4.7-26.5c1.7-0.2,3.4-0.3,5.1-0.6c0.4,2.4,1.6,5.7,4.4,6c0.3,0,0.5,0,0.8,0
			c4.5,0,7.2-4.4,8.6-6.8c1.8-3,3.5-6.1,3-8.2c-0.6-2.4-3.9-3.5-5.9-4.4c-3.3-1.5-6.7-2.7-10.2-3.4c-2.2-0.4-5.8-1.2-7.9-0.2
			c-1.5,0.7-3,3-3.4,3.6c-1.2,1.9-3.6,3.6-5.2,5.2c-6.9,7.1-12.9,15.2-17.6,23.9c-6.6,12.2-8.3,31.3-8.5,33.8
			c-0.9,1.4-1.6,2.8-2.2,4.4c-1.1,3,0.9,4.8,2.3,6c0.3,0.3,0.6,0.5,0.9,0.8c1.7,1.8,6.1,2.3,7.2,2.3c1.4,0.7,12.8,4.8,30,4.8
			s21.7-3.6,26.7-8.8c5.3-5.4,8.2-20.1,5-33.6c-0.1-0.5-0.7-0.9-1.2-0.8c-4.9,1.2-9.2,4.3-11.8,8.7c-1.6-1.5-5.2-4-12.4-5
			c-10.8-1.5-20.6,11.6-24.4,19.4"/>
		<path class="st2" d="M58.8,83.4c8.7,1.3,10.8,0.8,17.3-4.2"/>
	</g>
</g>
</svg>
