<?xml version="1.0" encoding="utf-8"?>
<!-- Generator: Adobe Illustrator 22.1.0, SVG Export Plug-In . SVG Version: 6.00 Build 0)  -->
<svg version="1.1" id="Layer_1" xmlns="http://www.w3.org/2000/svg" xmlns:xlink="http://www.w3.org/1999/xlink" x="0px" y="0px"
	 viewBox="0 0 120 120" style="enable-background:new 0 0 120 120;" xml:space="preserve">
<style type="text/css">
	.st0{fill:#E7FFE5;}
	.st1{fill:#C8F8D5;}
	.st2{fill:none;stroke:#144F2C;stroke-width:3;stroke-linecap:round;stroke-linejoin:round;}
</style>
<title>art_tag_bustling</title>
<g id="psoa">
	<circle class="st0" cx="65.4" cy="68.6" r="43.3"/>
	<path class="st1" d="M64,70.7c-0.2,0.8-1.2,2.5-0.8,3.2l9,17.9c0.8,1.6,2.5,2.6,4.3,2.6c0.8,0,1.5-0.2,2.2-0.5
		c2.3-1.2,3.3-4,2.2-6.3c0,0,0,0,0,0L70.2,66.9c-1.4-2.8-3.6-3.9-4.3-0.9L64,70.7z"/>
	<path class="st1" d="M40.9,59.1c0.5,0,1,0,1.5,0c0.4,0,0.9,0,1.3-0.1c0.7-0.1,1.4-0.4,2-0.8c1-0.9,1.7-2.2,2-3.5l0.4-1.3
		c0.2-0.5,0.4-1,0.7-1.5c0.5-1,1.2-1.8,2-2.5c1.5-1.3,3.3-2.3,5.3-2.8c-0.8,1.9-2.1,3.4-2.9,4.8c-0.4,0.7-0.7,1.4-1,2.2
		c-0.1,0.3-0.2,0.7-0.4,1.1l-0.2,0.6c-0.1,0.3-0.1,0.5-0.2,0.8c-0.3,1.1-0.9,2.1-1.6,3c-0.7,1-1.7,1.7-2.9,2.1
		c-1.2,0.4-2.4,0.3-3.5-0.1C42.5,60.5,41.6,59.9,40.9,59.1z"/>
	<path class="st1" d="M65.7,53c0.5,0.6,0.9,1.3,1.2,2c0.3,0.7,0.5,1.4,0.6,2.1c0.3,1.4,0.3,2.8,0,4.2v0.1v0.1
		c-0.4,1.2-0.9,2.4-1.6,3.5c-0.4,0.5-0.8,1.1-1.2,1.6c-0.5,0.5-1,1-1.6,1.4c-0.3-0.7-0.5-1.3-0.7-2.1c-0.1-0.6-0.2-1.3-0.2-1.9
		c0-1.2,0.1-2.5,0.4-3.7v0.2c0.2-1.2,0.5-2.5,0.9-3.6c0.2-0.7,0.5-1.3,0.8-1.9C64.7,54.3,65.1,53.6,65.7,53z"/>
	<path class="st2" d="M65.4,74.5l8.1,16.1c0.7,1.4,2.1,2.2,3.7,2.2c0.7,0,1.3-0.2,1.9-0.4c2-1,2.8-3.4,1.8-5.3c0,0,0,0,0,0
		L68.5,62.8"/>
	<circle class="st2" cx="59.2" cy="24.9" r="6.8"/>
	<path class="st2" d="M75.5,48.8C68,45.7,63.2,37.7,63.1,37.5c-1.2-2.1-3.8-2.8-5.9-1.6c-0.1,0-0.1,0.1-0.2,0.1
		c-0.3,0.2-0.5,0.4-0.8,0.6c-2.8,1.8-9.9,7.4-13.6,19.3c-0.7,2.3,0.6,4.7,2.9,5.4s4.7-0.6,5.4-2.9l0,0c1.1-4.1,3.1-7.8,5.8-11
		c0.6,3.8,0.6,7.7,0,11.5c-2.3,14-15.2,26.6-15.4,26.8c-1.7,1.7-1.7,4.4-0.1,6.1c0.8,0.8,1.9,1.3,3.1,1.3c1.1,0,2.2-0.5,3-1.2
		c0.7-0.6,15.2-14.8,17.7-31.5c0.4-2.2,0.6-4.5,0.6-6.7c1.9,1.4,3.9,2.6,6.1,3.6c0.5,0.2,1.1,0.3,1.7,0.3c1.8,0,3.4-1.1,4.2-2.7
		c1-2.2,0.1-4.8-2.1-5.8C75.6,48.9,75.5,48.9,75.5,48.8z"/>
</g>
</svg>
