<?xml version="1.0" encoding="utf-8"?>
<!-- Generator: Adobe Illustrator 22.1.0, SVG Export Plug-In . SVG Version: 6.00 Build 0)  -->
<svg version="1.1" id="Layer_1" xmlns="http://www.w3.org/2000/svg" xmlns:xlink="http://www.w3.org/1999/xlink" x="0px" y="0px"
	 viewBox="0 0 120 120" style="enable-background:new 0 0 120 120;" xml:space="preserve">
<style type="text/css">
	.st0{fill:#DEFFED;}
	.st1{fill:#C8F8D5;}
	.st2{fill:none;stroke:#144F2C;stroke-width:3;stroke-linecap:round;stroke-linejoin:round;}
	.st3{fill:#144F2C;}
</style>
<title>Artboard 1 copy 86</title>
<g id="zolho">
	<path class="st0" d="M38.9,70.2c0,9.5,3.3,17-2.7,17s-13-5.4-13-14.9c0-2.9-1.4-9.5-0.6-11.9c1.8-5.5,5-4.8,9.2-4.8
		C37.8,55.7,38.9,60.7,38.9,70.2z"/>
	<path class="st0" d="M112.5,79.1c0,5.6-1.5,11.1-4.5,15.8c-5.3,8.6-18.2,9.3-29.1,9.3c-5.2,0-19.7-7.7-24-10c-9.4-5.1-9-8.3-9-19.8
		c0-3.8-1.3-7.3,0-10.7c4.3-11.4,10.6-19.5,23.5-19.5C86.1,44.3,112.5,62.4,112.5,79.1z"/>
	<path class="st1" d="M79.6,51.2c2.1,0.6,4.2,1.3,6.2,2.2c1.2,0.5,2.3,1.2,3.2,2.1c1,1.1,1.7,2.4,2.1,3.9c0.1,0.4,0.2,0.8,0.2,1.2
		c0,0.5,0,0.9,0,1.4c-0.1,1-0.4,1.9-0.8,2.7c-0.7,1.3-1.6,2.4-2.8,3.3c-1.8,1.5-3.2,2.4-4.6,3.6l-0.7,0.6c-1.5,0.7-3.1,1.2-4.7,1.7
		c-1.7,0.5-3.4,0.8-5.2,1c0.9-1.5,2-2.9,3.2-4.2c1.2-1.2,2.4-2.4,3.7-3.5l-0.7,0.6c1.3-1.9,2.8-3.5,4.5-5c0.5-0.4,0.9-0.9,1.3-1.4
		c0.1-0.2,0.2-0.1,0.3-0.7c0-0.6-0.2-1.2-0.3-1.8c-0.4-0.8-0.8-1.5-1.4-2.1C81.6,55.2,80.5,53.3,79.6,51.2z"/>
	<g>
		<path class="st2" d="M48.7,48.2c-4.9,7.2-3.1,17,4.1,21.8c7.2,4.9,17,3.1,21.8-4.1c1.8-2.6,2.7-5.7,2.7-8.9c0-2.8-0.8-5.6-2.2-8.1
			"/>
		<path class="st3" d="M61.1,43.6c7.4,0,14.7,3,21.5,9c2.6,2.4,5,5,7.2,7.8c-2.1,2.8-4.5,5.4-7.2,7.8c-6.8,6-14.1,9-21.5,9
			s-14.7-3-21.5-9c-2.6-2.3-5-4.9-7.2-7.8c2.1-2.8,4.5-5.4,7.2-7.8C46.4,46.6,53.6,43.6,61.1,43.6 M61.1,40.6
			c-19.9,0-32.3,19.8-32.3,19.8s12.5,19.8,32.3,19.8s32.4-19.8,32.4-19.8S80.9,40.6,61.1,40.6L61.1,40.6z"/>
		<path class="st2" d="M52.1,55.4c1-4.8,3.9-5.8,6.2-5.8"/>
	</g>
</g>
</svg>
