<?xml version="1.0" encoding="utf-8"?>
<!-- Generator: Adobe Illustrator 22.1.0, SVG Export Plug-In . SVG Version: 6.00 Build 0)  -->
<svg version="1.1" id="Layer_1" xmlns="http://www.w3.org/2000/svg" xmlns:xlink="http://www.w3.org/1999/xlink" x="0px" y="0px"
	 viewBox="0 0 120 120" style="enable-background:new 0 0 120 120;" xml:space="preserve">
<style type="text/css">
	.st0{fill:#E7FFE5;}
	.st1{fill:#C8F8D5;}
	.st2{fill:none;stroke:#144F2C;stroke-width:3;stroke-linecap:round;stroke-linejoin:round;}
</style>
<title>art_tag_strong</title>
<g id="musclo">
	<circle class="st0" cx="60" cy="81.3" r="32.9"/>
	<path class="st1" d="M27.8,79.7c-0.6,1.3-1,2.7-1.2,4.1c-0.2,1.1,0.4,2.1,1.3,2.7c0.2,0.2,0.5,0.4,0.8,0.6s0.6,0.5,1,0.8
		c0.1,0.1,0.1,0.1,0.1,0.1h0.1L30,88c0.2,0.1,0.5,0.1,0.7,0.1c0.6,0,1.2,0,1.8,0l1-0.1l0.6-0.1c0.3,0,0.5,0,0.8,0
		c0.2,0,0.3,0,0.5,0.1l0.3,0.1c1.7,0.6,3.5,1.2,5.3,1.6c1.8,0.4,3.7,0.8,5.5,1.2c3.7,0.7,7.5,1.2,11.3,1.8c3.7,0.7,7.5,1,11.3,0.8
		c1.9-0.1,3.7-0.5,5.4-1.2c1.7-0.7,3.3-1.7,4.7-3c0.7-0.6,1.4-1.3,2-2.1c0.7-0.7,1.3-1.4,1.8-2.2c1-1.5,1.8-3.2,2.3-5
		c1-3.6,1.4-7.3,1.1-11c-0.1-1.8-0.4-3.6-0.7-5.4c-0.1-0.4-0.2-0.9-0.3-1.3l-0.2-0.7l-0.1-0.3v-0.2l0,0v0.1c0.1,0.3,0.2,0.5,0.4,0.8
		c0.1,0.1,0.2,0.2,0.3,0.3c0.1,0.1,0.2,0.2,0.3,0.2c0.2,0.1,0.3,0.2,0.5,0.3l0.3,0.1h0.2c0.2,0,0.2,0,0.2,0L87.1,63
		c-0.1,0-0.2,0.1-0.3,0.1l-0.2,0.1c-0.2,0-0.3,0.1-0.5,0.2c-1.3,0.6-2.4,1.6-3.2,2.8c-1,1.3-1.8,2.9-2.9,4.8c-0.9,1.5-2.9,1.9-4.4,1
		c-0.6-0.4-1-0.9-1.3-1.6l-0.1-0.2c-0.3-0.7-0.6-1.4-1-2c-0.5-0.7-1.1-1.4-1.8-2c-0.8-0.7-1.7-1.2-2.6-1.7c-1-0.5-2.1-1-3.4-1.6l0,0
		c-0.2-0.1-0.2-0.3-0.2-0.4c0-0.1,0.1-0.1,0.2-0.2c1.2-0.6,2.6-1,4-1.2c1.5-0.1,3,0,4.4,0.5c1.5,0.5,2.9,1.3,4,2.4
		c1.2,1.2,2.1,2.6,2.6,4.3l-5.8-0.8c1-1.8,2.1-3.5,3.3-5.2c0.8-0.9,1.6-1.8,2.6-2.5c1-0.8,2.2-1.4,3.4-1.9c0.3-0.1,0.6-0.2,0.9-0.3
		l0.5-0.1l0.4-0.1c0.2,0,0.6-0.1,1-0.2c0.3,0,0.7,0,1,0c0.1,0,0.3,0,0.4,0.1c0.2,0,0.4,0.1,0.5,0.2c0.2,0.1,0.5,0.2,0.7,0.4
		c0.1,0.1,0.2,0.2,0.4,0.3c0.1,0.1,0.3,0.3,0.4,0.4c0.2,0.3,0.3,0.6,0.4,0.9c0.1,0.2,0,0.2,0,0.2v0v0.2l0.1,0.4l0.1,0.8
		c0.1,0.5,0.2,1,0.2,1.6c0.3,2.1,0.4,4.2,0.2,6.3c-0.3,4.2-1.4,8.2-3.2,12c-0.9,1.9-2,3.7-3.3,5.3c-0.7,0.8-1.4,1.5-2.1,2.2
		c-0.7,0.7-1.4,1.4-2.2,2.1c-1.5,1.4-3.2,2.5-5,3.4c-1.9,0.9-3.8,1.6-5.8,2.1c-4,0.9-8.1,1.4-12.1,1.3c-4,0-8.1-0.4-12-1.3
		c-2-0.4-4-0.9-5.9-1.6c-2-0.6-3.9-1.4-5.8-2.4l0.8,0.2c0,0-0.2,0-0.3,0h-0.5h-1.2c-0.9,0-1.7-0.2-2.6-0.4c-0.5-0.1-1-0.3-1.4-0.6
		c-0.3-0.1-0.5-0.3-0.7-0.5c-0.1-0.1-0.2-0.2-0.4-0.3l-0.3-0.3l-0.6-0.7c-0.3-0.3-0.5-0.6-0.8-0.9C25,87.9,24.6,87,24.4,86
		c-0.2-0.9-0.1-1.9,0.3-2.8c0.7-1.4,1.6-2.7,2.6-3.8c0.1-0.1,0.3-0.1,0.4,0c0,0,0,0,0,0C27.8,79.4,27.8,79.5,27.8,79.7L27.8,79.7z"
		/>
	<path class="st1" d="M63.6,35.2c0.8,1,1.4,2,2.1,2.7c0.2,0.3,0.5,0.5,0.9,0.6c0.2,0,0.3-0.1,0.4-0.2l0,0h0.1l0.2-0.1l0.5-0.2
		c0.3-0.1,0.6-0.2,0.9-0.4c0.6-0.3,1.2-0.7,1.7-1.2c0.6-0.6,1.2-1.2,1.7-1.8l1.9-2.4c1.3-1.6,2.7-3.2,4.4-5c0.4,1.2,0.5,2.4,0.4,3.6
		c-0.1,1.2-0.3,2.3-0.6,3.5c-0.3,1.1-0.7,2.3-1.3,3.3c-0.6,1.2-1.4,2.3-2.4,3.2c-1.1,1-2.4,1.7-3.8,2.1c-0.7,0.2-1.5,0.3-2.2,0.3
		c-0.4,0-0.7,0-1.1-0.1l-0.6-0.1L66.4,43L66,42.9c-1-0.3-1.8-0.9-2.4-1.8c-0.4-0.7-0.7-1.4-0.7-2.2C62.9,37.6,63.1,36.4,63.6,35.2z"
		/>
	<path class="st1" d="M55.7,84.5c1.2-0.9,2.6-1.5,4-1.9c1.2-0.4,2.4-0.6,3.6-0.8c1.1-0.2,2-0.3,3.2-0.6c1.5-0.4,3-0.5,4.5-0.3
		c-0.6,1.4-1.5,2.6-2.6,3.7c-1.2,1.1-2.7,1.9-4.3,2.1c-1.5,0.2-3,0.2-4.4-0.2C58.3,86.1,56.9,85.4,55.7,84.5z"/>
	<path class="st2" d="M55.2,60.3c-0.7-11.2,3.4-21,4.1-23.4c1.5-0.2,3-0.3,4.5-0.5c0.3,2.1,1.4,5,3.9,5.3h0.7c4,0,6.3-3.9,7.6-6
		c1.6-2.7,3.1-5.4,2.7-7.3c-0.5-2.1-3.5-3.1-5.2-3.9c-2.9-1.4-5.9-2.4-9.1-3.1c-1.9-0.4-5.1-1.1-7-0.2c-1.2,0.8-2.3,1.9-3,3.1
		c-1,1.7-3.2,3.1-4.6,4.6C43.8,35.1,38.6,42.3,34.4,50c-5.8,10.8-7.4,27.7-7.5,30c-0.8,1.2-1.4,2.5-1.9,3.8c-1,2.6,0.8,4.2,2.1,5.3
		c0.3,0.2,0.6,0.5,0.8,0.8c1.5,1.6,5.4,2,6.4,2.1c1.3,0.6,11.3,4.3,26.5,4.3s19.1-3.2,23.6-7.8c4.7-4.8,7.3-17.8,4.4-29.7
		c-0.1-0.5-0.6-0.8-1.1-0.7c-4.4,1-8.2,3.8-10.5,7.7c-1.4-1.3-4.6-3.5-11-4.4C56.8,60,48,71.5,44.7,78.4"/>
	<path class="st2" d="M56.2,82.9c7.7,1.2,9.5,0.7,15.3-3.7"/>
</g>
</svg>
