<svg id="oclus" xmlns="http://www.w3.org/2000/svg" width="156.5" height="156.5" viewBox="0 0 156.5 156.5">
  <defs>
    <style>
      .cls-1 {
        fill: #deffed;
      }

      .cls-2 {
        fill: #144f2c;
      }

      .cls-3 {
        fill: #c8f8d5;
      }

      .cls-4 {
        fill: none;
        stroke: #144f2c;
        stroke-miterlimit: 10;
        stroke-width: 3.5px;
      }
    </style>
  </defs>
  <title>Artboard 1 copy 83</title>
  <path class="cls-1" d="M118.89,95.68c0,16.78,2,23.19-12.57,29.34-4.85,2-20.25,7.16-25.84,7.16-6.39,0-12.83-6.87-18.2-9.5-13.45-6.59-20.22-25.52-20.22-41.5,0-22.38,13.95-26,36.32-26a40.48,40.48,0,0,1,40.51,40.5Z"/>
  <path class="cls-1" d="M46.85,111.76c1.56,3.35,4.53,8.29,1.18,9.85s-11.2-4.06-12.75-7.41-1.22-10.7,2.13-12.26S45.29,108.41,46.85,111.76Z"/>
  <g>
    <path class="cls-2" d="M78.24,75.83s0,13.5,9,19.5h0a1.5,1.5,0,0,0,1.7-2.47,17.86,17.86,0,0,1-6.59-9.63,27.75,27.75,0,0,1-1.14-7.15,1.07,1.07,0,0,0,0-.25,1.5,1.5,0,0,0-3,0Z"/>
    <path class="cls-2" d="M41.41,92.86a17.79,17.79,0,0,1-6.58-9.63,27.33,27.33,0,0,1-1.14-7.15,2.11,2.11,0,0,0,0-.25,1.5,1.5,0,0,0-3,0s0,13.5,9,19.5h0a1.5,1.5,0,1,0,1.7-2.47Z"/>
  </g>
  <g>
    <path class="cls-3" d="M66.74,81.92a11.87,11.87,0,0,0-1.84,1,.31.31,0,0,0-.1.43,1.93,1.93,0,0,1,0,.27V84a28.54,28.54,0,0,1-.15,4.17,31.93,31.93,0,0,1-.77,4.26l-.29,1L63.5,94c0,.17-.16.41-.24.62l-.57,1.27A12,12,0,0,1,62,97a14.16,14.16,0,0,1-1.78,2.08c-.32.31-.68.55-1,.83a10.27,10.27,0,0,1-1.06.75,16.62,16.62,0,0,1-4.54,1.9,19.09,19.09,0,0,1-9.11,0v-3l.24.07.13,0h0v2.81h0l-.06,0-.5-.17c-.33-.1-.66-.23-1-.35-.66-.25-1.32-.53-2-.85a21.18,21.18,0,0,1,2-.86c.33-.12.66-.25,1-.35l.5-.17.06,0h0v2.81h0l-.13,0-.24.07v-3a66.12,66.12,0,0,0,7-2.9A14.43,14.43,0,0,0,56.35,93c.13-.18.31-.33.42-.52s.22-.39.34-.58a3.4,3.4,0,0,0,.2-.31l.21-.45.44-.89c.6-1.18,1.19-2.36,1.83-3.54S61,84.34,61.9,83c.1-.17.26-.39.39-.57a6.14,6.14,0,0,1,.56-.6,2.34,2.34,0,0,1,1.63-.6A6.14,6.14,0,0,1,66.74,81.92Z"/>
    <path class="cls-3" d="M113.68,77.84a75.84,75.84,0,0,1-1.42,9.5,36.9,36.9,0,0,1-1.34,4.73,18.58,18.58,0,0,1-2.42,4.67,12.91,12.91,0,0,1-4.24,3.76,16,16,0,0,1-5.18,1.74,26.87,26.87,0,0,1-5.1.36l-2.41-.08-1.18-.07-.59,0h-.22c0,3.85,0-5.25,0-4.31h0l.3,0v4.27a17.78,17.78,0,0,1-2.59-.36,20.31,20.31,0,0,1-2.44-.63,18.94,18.94,0,0,1-4.58-2.14,13.6,13.6,0,0,1-3.65-3.48,10.33,10.33,0,0,1-1.75-4.53,12.27,12.27,0,0,0,2.93,3.46,13.44,13.44,0,0,0,3.74,2.11,22,22,0,0,0,4.15,1.05c.71.1,1.43.17,2.14.22a20.47,20.47,0,0,0,2,0v4.27l-.3,0h0c0,.94,0-8.16,0-4.31h.22l.59,0L91.57,98c.79,0,1.58,0,2.31-.11a34.39,34.39,0,0,0,4.3-.52,11.08,11.08,0,0,0,6.67-3.51,34.1,34.1,0,0,0,4.4-7.54A89,89,0,0,1,113.68,77.84Z"/>
  </g>
  <path class="cls-4" d="M20.87,71.46c0-3,3-3,21-3h12c12,0,9,3,15,3s3-3,15-3h12c18,0,21,0,21,3v3c0,3-2.15.87-3,6-3,18-6,21-21,21h-3s-12,0-15-9c-3.9-11.73-1.71-12-6-12s-2.09.27-6,12c-3,9-15,9-15,9h-3c-15,0-18-3-21-21-.86-5.13-3-3-3-6v-3Z"/>
</svg>
