<svg xmlns="http://www.w3.org/2000/svg" viewBox="0 0 120 120"><defs><style>.cls-1{fill:#fafafa;stroke:#000;}.cls-1,.cls-5{stroke-miterlimit:10;}.cls-2{fill:#e7ffe5;}.cls-3{fill:#144f2c;}.cls-4{fill:#c8f8d5;}.cls-5{fill:none;stroke:#144f2c;stroke-width:3px;}</style></defs><title>art_tag_easyaccess</title><g id="bg"><rect class="cls-1" x="-47.49" y="-196.31" width="421" height="706.71"/></g><g id="oclus"><circle class="cls-2" cx="69.32" cy="62.35" r="40.51"/><path class="cls-3" d="M62.39,51.5s0,11,7.36,16h0a1.24,1.24,0,0,0,1.71-.32,1.22,1.22,0,0,0-.32-1.7,14.64,14.64,0,0,1-5.39-7.88,22.77,22.77,0,0,1-.93-5.85,1.49,1.49,0,0,0,0-.21,1.23,1.23,0,1,0-2.45,0Z"/><path class="cls-3" d="M32.25,65.44a14.59,14.59,0,0,1-5.39-7.88,22.78,22.78,0,0,1-.94-5.85.75.75,0,0,0,0-.21,1.23,1.23,0,1,0-2.45,0s0,11,7.36,16h0a1.23,1.23,0,0,0,1.4-2Z"/><path class="cls-4" d="M51.85,54.13a9.09,9.09,0,0,0-1.61,1,.21.21,0,0,0,0,.36.88.88,0,0,1,.07.23l0,.34a22.25,22.25,0,0,1,0,3.73,27.17,27.17,0,0,1-.63,3.82l-.25.92-.12.47c0,.15-.14.38-.21.56-.17.4-.33.79-.51,1.18a12.1,12.1,0,0,1-.67,1.08,11.5,11.5,0,0,1-1.63,1.91,13.66,13.66,0,0,1-1.91,1.44,14.58,14.58,0,0,1-4.13,1.69A16.41,16.41,0,0,1,32,72.65V69.6l.22.07.11,0h0v2.81h0l-.05,0-.44-.17c-.3-.1-.59-.23-.88-.35a16.78,16.78,0,0,1-1.76-.86A18.91,18.91,0,0,1,31,70.27c.29-.12.58-.25.88-.35l.44-.17.05,0h0v2.81h0l-.11,0-.22.07V69.6c2.15-.89,4.31-1.79,6.11-2.74a13.37,13.37,0,0,0,4.16-3.13c.1-.15.26-.27.35-.43a3.31,3.31,0,0,1,.29-.47,2.36,2.36,0,0,0,.17-.26l.2-.39.39-.79c.55-1,1.09-2.07,1.69-3.1s1.16-2.06,2-3.3l.37-.51a4.67,4.67,0,0,1,.54-.56,2.09,2.09,0,0,1,1.53-.53A5.16,5.16,0,0,1,51.85,54.13Z"/><path class="cls-4" d="M91.56,50.5A60.23,60.23,0,0,1,90.47,59a30.77,30.77,0,0,1-1.16,4.24,16,16,0,0,1-2.15,4.22,11.68,11.68,0,0,1-3.83,3.42,14.53,14.53,0,0,1-4.69,1.58,24.68,24.68,0,0,1-4.57.31l-2.16-.09-1-.06-.52,0h-.2c0,3.85,0-5.25,0-4.31h.31v4.28a15.7,15.7,0,0,1-2.33-.34,18.63,18.63,0,0,1-2.19-.59,16.37,16.37,0,0,1-4.09-2,11.47,11.47,0,0,1-3.23-3.17,9,9,0,0,1-1.49-4.08,11,11,0,0,0,2.67,3,12.09,12.09,0,0,0,3.33,1.8,18.23,18.23,0,0,0,3.66.87c.63.08,1.26.14,1.88.18a17.77,17.77,0,0,0,1.79,0v4.28h-.31c0,.93,0-8.17,0-4.32h.2l.52,0,1-.06c.71,0,1.41-.06,2-.11a31.73,31.73,0,0,0,3.78-.47,9.7,9.7,0,0,0,5.77-3A30.48,30.48,0,0,0,87.46,58,71.14,71.14,0,0,1,91.56,50.5Z"/><path class="cls-5" d="M15.43,47.92c0-2.45,2.46-2.45,17.19-2.45h9.82c9.82,0,7.37,2.45,12.28,2.45S57.17,45.47,67,45.47h9.82c14.74,0,17.19,0,17.19,2.45v2.46c0,2.45-1.75.71-2.45,4.91C89.09,70,86.64,72.48,74.36,72.48H71.9s-9.82,0-12.27-7.37c-3.2-9.6-1.41-9.82-4.91-9.82s-1.71.22-4.91,9.82c-2.46,7.37-12.28,7.37-12.28,7.37H35.07C22.8,72.48,20.34,70,17.89,55.29c-.7-4.2-2.46-2.46-2.46-4.91V47.92Z"/></g></svg>