<svg xmlns="http://www.w3.org/2000/svg" width="156.5" height="156.5" viewBox="0 0 156.5 156.5">
  <defs>
    <style>
      .cls-1 {
        fill: #deffed;
      }

      .cls-2 {
        fill: #c8f8d5;
      }

      .cls-3 {
        fill: none;
        stroke: #144f2c;
        stroke-linecap: round;
        stroke-linejoin: round;
        stroke-width: 3px;
      }
    </style>
  </defs>
  <title>Artboard 1 copy 85</title>
  <g id="psoa">
    <path class="cls-1" d="M47.35,96.08c-1.41,4.78-1.31,10.29-8.59,11.58C37,108,33.66,102.54,33,101c-3.06-7.07,1.94-8,2.83-11.07,1.4-4.78,4.85-8.24,9.63-6.83S48.75,91.29,47.35,96.08Z"/>
    <path class="cls-1" d="M117.54,104.43c0,16.78-6.88,21.17-21.85,26.45-4,1.42-13.6,8-25.24,4.94-13.12-3.44-19.87-7.29-19.87-28.57A38.44,38.44,0,0,1,64.77,77.38C71.4,72,69.77,65.9,79,65.9a38.5,38.5,0,0,1,38.53,38.53Z"/>
    <path class="cls-2" d="M88,90.51c-.21.8-1.22,2.47-.85,3.2l9,17.89a4.8,4.8,0,0,0,4.3,2.58,5.34,5.34,0,0,0,2.23-.52,4.74,4.74,0,0,0,2.15-6.37L94.22,86.68c-1.43-2.77-3.55-3.94-4.34-.92Z"/>
    <path class="cls-2" d="M60.85,76.76a10.85,10.85,0,0,1,1.64,0A7.75,7.75,0,0,0,64,76.75a4.64,4.64,0,0,0,2.27-.86,7.76,7.76,0,0,0,2.43-4l.46-1.5a12.34,12.34,0,0,1,.74-1.66A11.06,11.06,0,0,1,72,65.88a16,16,0,0,1,5.79-3.25c-1,2-2.43,3.65-3.35,5.28a15.4,15.4,0,0,0-1.18,2.42,11.47,11.47,0,0,0-.42,1.25l-.18.64c-.08.28-.14.57-.25.85a10.16,10.16,0,0,1-1.71,3.29,7,7,0,0,1-3.22,2.35,5.79,5.79,0,0,1-3.84,0,7,7,0,0,1-1.56-.83q-.34-.26-.66-.54l-.3-.3A1.31,1.31,0,0,0,60.85,76.76Z"/>
    <path class="cls-2" d="M87.39,68.17a9,9,0,0,1,1.19,2,10.08,10.08,0,0,1,.62,2.08,10.86,10.86,0,0,1,0,4.25l0,.1,0,.11a13.86,13.86,0,0,1-1.51,3.34,13.06,13.06,0,0,1-1.19,1.55,10,10,0,0,1-1.62,1.44A9.08,9.08,0,0,1,84.12,81a12.17,12.17,0,0,1-.23-2,13.82,13.82,0,0,1,.41-3.65l0,.21a18.82,18.82,0,0,1,1-3.64,14.15,14.15,0,0,1,.85-1.89A9.76,9.76,0,0,1,87.39,68.17Z"/>
    <g>
      <path class="cls-3" d="M88,93l9.55,19a4.78,4.78,0,0,0,4.3,2.58,5.32,5.32,0,0,0,2.23-.51,4.74,4.74,0,0,0,2.15-6.37L91.58,79.22"/>
      <circle class="cls-3" cx="80.67" cy="34.54" r="8"/>
      <path class="cls-3" d="M99.85,62.77c-8.78-3.7-14.54-13.16-14.63-13.42a5.12,5.12,0,0,0-7.13-1.81,10.24,10.24,0,0,0-1,.69c-3.27,2.15-11.7,8.69-16,22.8A5.12,5.12,0,0,0,71,74a33.47,33.47,0,0,1,6.88-12.9,41.57,41.57,0,0,1,0,13.51C75.16,91,59.93,105.87,59.76,106.13a5.12,5.12,0,0,0,3.53,8.77,5.22,5.22,0,0,0,3.53-1.46c.77-.69,18-17.47,20.9-37.16a52,52,0,0,0,.69-7.92,35.13,35.13,0,0,0,7.22,4.22,5.85,5.85,0,0,0,2,.34,5.45,5.45,0,0,0,4.91-3.18A5.16,5.16,0,0,0,99.85,62.77Z"/>
    </g>
  </g>
</svg>
