<?xml version="1.0" encoding="utf-8"?>
<!-- Generator: Adobe Illustrator 22.1.0, SVG Export Plug-In . SVG Version: 6.00 Build 0)  -->
<svg version="1.1" id="Layer_1" xmlns="http://www.w3.org/2000/svg" xmlns:xlink="http://www.w3.org/1999/xlink" x="0px" y="0px"
	 viewBox="0 0 120 120" style="enable-background:new 0 0 120 120;" xml:space="preserve">
<style type="text/css">
	.st0{fill:#E7FFE5;}
	.st1{fill:none;stroke:#144F2C;stroke-width:3;stroke-linecap:round;stroke-linejoin:round;}
	.st2{fill:none;stroke:#144F2C;stroke-width:2.5;stroke-linecap:round;stroke-linejoin:round;}
</style>
<title>art_tag_racktype</title>
<g id="chpeu">
	<circle class="st0" cx="75.8" cy="54.6" r="39.4"/>
	<line class="st1" x1="15.3" y1="87.6" x2="13.4" y2="87.6"/>
	<polyline class="st1" points="93.8,87.6 71.8,87.6 19.4,87.6 	"/>
	<line class="st1" x1="105.2" y1="87.6" x2="98.4" y2="87.6"/>
	<path class="st1" d="M43.6,87.6V63.4C43.6,54.9,50.5,48,59,48c0,0,0,0,0,0l0,0c8.5,0,15.4,6.9,15.4,15.4c0,0,0,0,0,0v24.2"/>
	<g>
		<circle class="st2" cx="32.3" cy="68.1" r="15.9"/>
		<circle class="st2" cx="87.7" cy="68.1" r="15.9"/>
		<circle class="st2" cx="32.3" cy="68.1" r="3.4"/>
		<path class="st2" d="M64.5,68.1c0,2.9-2.3,5.2-5.2,5.2c-2.9,0-5.2-2.3-5.2-5.2c0-2.9,2.3-5.2,5.2-5.2c0,0,0,0,0,0
			C62.2,62.9,64.5,65.2,64.5,68.1z"/>
		<circle class="st2" cx="87.7" cy="67.9" r="3.4"/>
		<line class="st2" x1="32.3" y1="64.7" x2="59.3" y2="62.9"/>
		<line class="st2" x1="32.3" y1="71.5" x2="59.3" y2="73.3"/>
		<line class="st2" x1="29.2" y1="66.6" x2="43.6" y2="43.7"/>
		<polyline class="st2" points="86.6,64.7 74.8,33.7 67.6,33.7 		"/>
		<line class="st2" x1="57" y1="63.4" x2="41.2" y2="40.1"/>
		<line class="st2" x1="62.2" y1="63.8" x2="78.7" y2="45.8"/>
		<path class="st2" d="M48.2,37.8c0,1.2-1,2.3-2.3,2.3h-8.2c-1.2,0-2.3-1-2.3-2.3l0,0c0-1.2,1-2.3,2.3-2.3h8.2
			C47.2,35.6,48.2,36.6,48.2,37.8z"/>
		<line class="st2" x1="77.1" y1="39.6" x2="66.8" y2="50.9"/>
		<path class="st2" d="M43.6,43.7c0,0,11.4,19.3,23.2,7.3"/>
	</g>
</g>
</svg>
