<?xml version="1.0" encoding="utf-8"?>
<!-- Generator: Adobe Illustrator 22.1.0, SVG Export Plug-In . SVG Version: 6.00 Build 0)  -->
<svg version="1.1" id="Layer_1" xmlns="http://www.w3.org/2000/svg" xmlns:xlink="http://www.w3.org/1999/xlink" x="0px" y="0px"
	 viewBox="0 0 120 120" style="enable-background:new 0 0 120 120;" xml:space="preserve">
<style type="text/css">
	.st0{fill:#DEFFED;}
	.st1{fill:#C8F8D5;}
	.st2{fill:none;stroke:#144F2C;stroke-width:3;stroke-linecap:round;stroke-linejoin:round;}
</style>
<title>Artboard 1 copy 85</title>
<g id="psoa">
	<path class="st0" d="M27.1,77.8c-1.4,4.8-1.3,10.3-8.6,11.6c-1.8,0.3-5.1-5.1-5.8-6.7c-3.1-7.1,1.9-8,2.8-11.1
		c1.4-4.8,4.8-8.2,9.6-6.8S28.5,73,27.1,77.8z"/>
	<path class="st0" d="M97.3,86.2c0,16.8-6.9,21.2-21.8,26.5c-4,1.4-13.6,8-25.2,4.9c-13.1-3.4-19.9-7.3-19.9-28.6
		c0-11.6,5.2-22.6,14.2-29.9c6.6-5.4,5-11.5,14.2-11.5C80,47.6,97.3,64.9,97.3,86.2C97.3,86.1,97.3,86.2,97.3,86.2L97.3,86.2z"/>
	<path class="st1" d="M67.8,72.3c-0.2,0.8-1.2,2.5-0.8,3.2l9,17.9c0.8,1.6,2.5,2.6,4.3,2.6c0.8,0,1.5-0.2,2.2-0.5
		c2.3-1.2,3.3-4,2.2-6.3c0,0,0,0,0,0L74,68.4c-1.4-2.8-3.6-3.9-4.3-0.9L67.8,72.3z"/>
	<path class="st1" d="M40.6,58.5c0.5,0,1.1,0,1.6,0c0.5,0,1,0,1.5,0c0.8-0.1,1.6-0.4,2.3-0.9c1.2-1.1,2.1-2.4,2.4-4l0.5-1.5
		c0.2-0.6,0.5-1.1,0.7-1.7c0.5-1.1,1.3-2,2.1-2.8c1.7-1.5,3.7-2.6,5.8-3.2c-1,2-2.4,3.7-3.3,5.3c-0.5,0.8-0.9,1.6-1.2,2.4
		c-0.2,0.4-0.3,0.8-0.4,1.2L52.4,54c-0.1,0.3-0.1,0.6-0.2,0.8c-0.4,1.2-0.9,2.3-1.7,3.3c-0.8,1.1-1.9,1.9-3.2,2.3
		c-1.2,0.4-2.6,0.4-3.8,0c-0.6-0.2-1.1-0.5-1.6-0.8c-0.2-0.2-0.4-0.4-0.7-0.5l-0.3-0.3C40.8,58.7,40.7,58.6,40.6,58.5z"/>
	<path class="st1" d="M67.1,49.9c0.5,0.6,0.9,1.3,1.2,2c0.3,0.7,0.5,1.4,0.6,2.1c0.3,1.4,0.3,2.8,0,4.2v0.1v0.1
		c-0.4,1.2-0.9,2.3-1.5,3.3c-0.4,0.5-0.8,1.1-1.2,1.6c-0.5,0.5-1,1-1.6,1.4c-0.3-0.6-0.6-1.3-0.8-2c-0.1-0.7-0.2-1.3-0.2-2
		c0-1.2,0.1-2.5,0.4-3.7v0.2c0.2-1.2,0.5-2.5,1-3.6c0.2-0.6,0.5-1.3,0.8-1.9C66.2,51.1,66.7,50.5,67.1,49.9z"/>
	<g>
		<path class="st2" d="M67.8,74.8l9.6,19c0.8,1.6,2.5,2.6,4.3,2.6c0.8,0,1.5-0.2,2.2-0.5c2.3-1.2,3.3-4,2.2-6.3c0,0,0,0,0,0L71.3,61
			"/>
		<circle class="st2" cx="60.4" cy="16.3" r="8"/>
		<path class="st2" d="M79.6,44.5C70.8,40.8,65.1,31.4,65,31.1c-1.4-2.5-4.5-3.3-7-1.9c0,0-0.1,0.1-0.1,0.1c-0.3,0.2-0.7,0.4-1,0.7
			c-3.3,2.2-11.7,8.7-16,22.8c-0.8,2.7,0.7,5.6,3.5,6.4c2.7,0.8,5.6-0.7,6.4-3.5c1.3-4.8,3.7-9.2,6.9-12.9c0.7,4.5,0.7,9,0,13.5
			c-2.7,16.4-17.9,31.3-18.1,31.5c-2,2-2,5.2-0.1,7.2c0.9,1,2.2,1.5,3.6,1.5c1.3,0,2.6-0.5,3.5-1.5c0.8-0.7,18-17.5,20.9-37.2
			c0.4-2.6,0.7-5.3,0.7-7.9c2.2,1.7,4.7,3.1,7.2,4.2c0.6,0.2,1.3,0.3,2,0.3c2.1,0,4-1.3,4.9-3.2c1.2-2.6,0.1-5.7-2.5-6.9
			C79.8,44.6,79.7,44.6,79.6,44.5z"/>
	</g>
</g>
</svg>
