<svg xmlns="http://www.w3.org/2000/svg" width="156.5" height="156.5" viewBox="0 0 156.5 156.5">
  <defs>
    <style>
      .cls-1 {
        fill: #deffed;
      }

      .cls-2 {
        fill: #c8f8d5;
      }

      .cls-3 {
        fill: #144f2c;
      }

      .cls-4 {
        isolation: isolate;
      }
    </style>
  </defs>
  <title>Artboard 1 copy 87</title>
  <g id="musclo">
    <path class="cls-1" d="M105.68,94.74c0,22.37-9.77,29.32-32.14,29.32-16.29,0-30.33-3-36.76-16.88-2.41-5.18-3.67-7.92-3.67-14,0-7.36.24-6.75,3.67-12.7,7-12.14,10.48-18.72,25.5-18.72,8.39,0,27.87-16.95,34.33-12.58C107.39,56.46,105.68,80.76,105.68,94.74Z"/>
  </g>
  <g id="placa">
    <path class="cls-1" d="M85.38,39c0,4-2.69,7-6.7,7s-7.26-.58-7.26-4.59,3.25-4.58,7.26-4.58S85.38,35,85.38,39Z"/>
    <path class="cls-2" d="M64.73,102.43c5.86.43,11.65.8,17.12,0a27.19,27.19,0,0,0,7.71-2.17,23.21,23.21,0,0,0,6.38-4.49c1-.93,1.86-2,2.79-3l1.37-1.63a18.36,18.36,0,0,0,1.16-1.51,15.79,15.79,0,0,0,2.7-7,18.86,18.86,0,0,0-.81-7.85A38.13,38.13,0,0,0,99.61,67a23,23,0,0,1,5.93,6.76,18.33,18.33,0,0,1,2.52,9.11,17.7,17.7,0,0,1-2.73,9.38,20,20,0,0,1-1.4,2L102.52,96a38,38,0,0,1-3.14,3.38,24,24,0,0,1-8,5.17,26.3,26.3,0,0,1-9.23,1.68A43.72,43.72,0,0,1,64.73,102.43Z"/>
    <path class="cls-3" d="M80.32,56.22A24.27,24.27,0,1,1,56.06,80.48,24.29,24.29,0,0,1,80.32,56.22m0-4a28.27,28.27,0,1,0,28.26,28.26A28.31,28.31,0,0,0,80.32,52.22Z"/>
    <path class="cls-2" d="M92.69,76.71a7.91,7.91,0,0,1,0,5.82,9.56,9.56,0,0,1-4.23,4.65,13.05,13.05,0,0,1-6,1.62H81.06c-.44,0-.88,0-1.31,0-.88,0-1.75-.1-2.63-.18l2.25-2.25a46.84,46.84,0,0,1-.76,5.08l-.16.76a4.13,4.13,0,0,1-.32.85A3.8,3.8,0,0,1,77,94.33a3,3,0,0,1-2.9.41,2.74,2.74,0,0,0,1.6-1.57,2.31,2.31,0,0,0,.12-.88c0-.13,0-.26-.07-.39l-.06-.19-.07-.31a46.84,46.84,0,0,1-.76-5.08l-.19-2,2.44-.2c.88-.08,1.75-.16,2.63-.19.43,0,.87,0,1.31,0h.66l.55,0a14.2,14.2,0,0,0,4.22-.73,9.25,9.25,0,0,0,3.58-2.14A12.53,12.53,0,0,0,92.69,76.71Z"/>
    <g class="cls-4">
      <path class="cls-3" d="M71.09,70.18a3,3,0,0,1,3-3h8.16c6.53,0,10.42,3.83,10.42,9.42v.13c0,6.28-4.89,9.61-11,9.61H77.12v5.4a3,3,0,0,1-6,0ZM81.83,80.92c3,0,4.77-1.82,4.77-4.14v-.06c0-2.7-1.88-4.15-4.9-4.15H77.06v8.35Z"/>
    </g>
  </g>
</svg>
