<?xml version="1.0" encoding="utf-8"?>
<!-- Generator: Adobe Illustrator 22.1.0, SVG Export Plug-In . SVG Version: 6.00 Build 0)  -->
<svg version="1.1" id="oclus" xmlns="http://www.w3.org/2000/svg" xmlns:xlink="http://www.w3.org/1999/xlink" x="0px" y="0px"
	 viewBox="0 0 120 120" style="enable-background:new 0 0 120 120;" xml:space="preserve">
<style type="text/css">
	.st0{fill:#DEFFED;}
	.st1{fill:#144F2C;}
	.st2{fill:#C8F8D5;}
	.st3{fill:none;stroke:#144F2C;stroke-width:3.5;stroke-miterlimit:10;}
</style>
<title>Artboard 1 copy 83</title>
<path class="st0" d="M109.1,71.2c0,16.8,2,23.2-12.6,29.3c-4.8,2-20.2,7.2-25.8,7.2c-6.4,0-12.8-6.9-18.2-9.5
	c-13.5-6.6-20.2-25.5-20.2-41.5c0-22.4,14-26,36.3-26C91,30.7,109.1,48.8,109.1,71.2C109.1,71.2,109.1,71.2,109.1,71.2z"/>
<path class="st0" d="M37.1,87.3c1.6,3.3,4.5,8.3,1.2,9.8s-11.2-4.1-12.8-7.4S24.3,79,27.6,77.5S35.5,83.9,37.1,87.3z"/>
<g>
	<path class="st1" d="M68.5,51.4c0,0,0,13.5,9,19.5l0,0c0.7,0.4,1.6,0.2,2.1-0.5c0.4-0.7,0.3-1.5-0.4-2c-3.2-2.4-5.5-5.8-6.6-9.6
		c-0.7-2.3-1.1-4.7-1.1-7.2c0-0.1,0-0.2,0-0.2c0-0.8-0.7-1.5-1.5-1.5S68.4,50.5,68.5,51.4L68.5,51.4z"/>
	<path class="st1" d="M31.6,68.4c-3.2-2.4-5.5-5.8-6.6-9.6c-0.7-2.3-1.1-4.7-1.1-7.2c0-0.1,0-0.2,0-0.2c0-0.8-0.7-1.5-1.5-1.5
		s-1.5,0.7-1.5,1.5c0,0,0,13.5,9,19.5l0,0c0.7,0.5,1.6,0.3,2.1-0.3C32.5,69.9,32.4,68.9,31.6,68.4C31.7,68.4,31.6,68.4,31.6,68.4
		L31.6,68.4z"/>
</g>
<g>
	<path class="st2" d="M57,57.4c-0.6,0.3-1.3,0.6-1.8,1c-0.1,0.1-0.2,0.3-0.1,0.4c0,0,0,0,0,0c0,0.1,0,0.2,0,0.3v0.4
		c0.1,1.4,0,2.8-0.2,4.2c-0.2,1.4-0.4,2.9-0.8,4.3l-0.3,1l-0.1,0.6c0,0.2-0.2,0.4-0.2,0.6l-0.6,1.3c-0.2,0.4-0.4,0.8-0.7,1.1
		c-0.5,0.7-1.1,1.4-1.8,2.1c-0.3,0.3-0.7,0.6-1,0.8c-0.3,0.3-0.7,0.5-1.1,0.8c-1.4,0.9-2.9,1.5-4.5,1.9c-3,0.7-6.1,0.7-9.1,0v-3
		l0.2,0.1h0.1l0,0V78l0,0H35l-0.5-0.2c-0.3-0.1-0.7-0.2-1-0.3c-0.7-0.2-1.3-0.5-2-0.8c0.7-0.3,1.3-0.6,2-0.9c0.3-0.1,0.7-0.2,1-0.3
		l0.5-0.2h0.1l0,0V78l0,0H35l-0.2,0.1v-3c2.4-0.8,4.7-1.8,7-2.9c1.9-0.9,3.5-2.1,4.8-3.7c0.1-0.2,0.3-0.3,0.4-0.5s0.2-0.4,0.3-0.6
		c0.1-0.1,0.1-0.2,0.2-0.3l0.2-0.4l0.4-0.9c0.6-1.2,1.2-2.4,1.8-3.5s1.2-2.4,2.1-3.7c0.1-0.2,0.3-0.4,0.4-0.6
		c0.2-0.2,0.4-0.4,0.6-0.6c0.4-0.4,1-0.6,1.6-0.6C55.5,56.8,56.3,57.1,57,57.4z"/>
	<path class="st2" d="M103.9,53.4c-0.3,3.2-0.7,6.4-1.4,9.5c-0.3,1.6-0.8,3.2-1.3,4.7c-0.6,1.7-1.4,3.2-2.4,4.7
		c-1.1,1.6-2.6,2.8-4.2,3.8c-1.6,0.9-3.4,1.5-5.2,1.7c-1.7,0.3-3.4,0.4-5.1,0.4L81.8,78L80.6,78H80h-0.2c0,3.8,0-5.2,0-4.3l0,0h0.3
		v4.3c-0.9-0.1-1.7-0.2-2.6-0.4c-0.8-0.2-1.6-0.4-2.4-0.6c-1.6-0.5-3.2-1.2-4.6-2.1c-1.4-0.9-2.7-2.1-3.7-3.5
		c-0.9-1.3-1.5-2.9-1.8-4.5c0.8,1.3,1.7,2.5,2.9,3.5c1.1,0.9,2.4,1.6,3.7,2.1c1.3,0.5,2.7,0.8,4.2,1.1c0.7,0.1,1.4,0.2,2.1,0.2
		c0.7,0,1.3,0,2,0v4.3h-0.3l0,0c0,0.9,0-8.2,0-4.3H80h0.6l1.2-0.1c0.8,0,1.6,0,2.3-0.1c1.4-0.1,2.9-0.3,4.3-0.5
		c2.6-0.4,4.9-1.6,6.7-3.5c1.8-2.3,3.3-4.8,4.4-7.5C100.8,58.9,102.3,56.1,103.9,53.4z"/>
</g>
<path class="st3" d="M11.1,47c0-3,3-3,21-3h12c12,0,9,3,15,3s3-3,15-3h12c18,0,21,0,21,3v3c0,3-2.2,0.9-3,6c-3,18-6,21-21,21h-3
	c0,0-12,0-15-9c-3.9-11.7-1.7-12-6-12s-2.1,0.3-6,12c-3,9-15,9-15,9h-3c-15,0-18-3-21-21c-0.9-5.1-3-3-3-6C11.1,50,11.1,47,11.1,47z
	"/>
</svg>
