<svg xmlns="http://www.w3.org/2000/svg" xmlns:xlink="http://www.w3.org/1999/xlink" width="120" height="120" viewBox="0 0 120 120">
  <defs>
    <style>
      .cls-1 {
        fill: #fff;
      }

      .cls-2, .cls-3, .cls-5, .cls-7 {
        fill: none;
        stroke-linecap: round;
        stroke-linejoin: round;
      }

      .cls-2, .cls-3 {
        stroke: #000;
      }

      .cls-2 {
        stroke-width: 12px;
      }

      .cls-3 {
        stroke-width: 14.17px;
      }

      .cls-4 {
        fill: #deffed;
      }

      .cls-5, .cls-7 {
        stroke: #144f2c;
      }

      .cls-5 {
        stroke-width: 3px;
      }

      .cls-6 {
        mask: url(#mask);
      }

      .cls-7 {
        stroke-width: 2.5px;
      }
    </style>
    <mask id="mask" x="-19.32" y="-1.71" width="159.9" height="122.75" maskUnits="userSpaceOnUse">
      <g id="SVGID">
        <g id="_Group_" data-name="&lt;Group&gt;">
          <polygon class="cls-1" points="133.5 5.37 133.5 113.95 -12.23 109.79 -12.23 5.37 133.5 5.37"/>
          <g>
            <path class="cls-2" d="M43.58,85.1V62.84a15.4,15.4,0,1,1,30.8,0V85.1"/>
            <polygon class="cls-3" points="133.5 113.95 -12.23 109.79 -12.23 5.37 133.5 5.37 133.5 113.95"/>
          </g>
        </g>
      </g>
    </mask>
  </defs>
  <title>Artboard 1 copy 106</title>
  <g id="chpeu">
    <path class="cls-4" d="M107.89,60.2c-4.43,3-8.74,3.21-11.74-1.23S88.43,45,92.87,42s10.49,2.42,13.49,6.85S112.33,57.2,107.89,60.2Z"/>
    <path class="cls-4" d="M51.4,38.64a29,29,0,0,1,27,.8A28.57,28.57,0,0,1,90,51.83C97,66.13,80.41,75,66,82c-7.19,3.5-18.51,8.89-25.51,6.51S27.81,85,24.33,77.84C17.37,63.54,37,45.64,51.4,38.64Z"/>
    <g>
      <line class="cls-5" x1="15.29" y1="87.64" x2="13.43" y2="87.64"/>
      <polyline class="cls-5" points="93.78 87.64 71.76 87.64 19.4 87.64"/>
      <line class="cls-5" x1="105.15" y1="87.64" x2="98.44" y2="87.64"/>
      <path class="cls-5" d="M43.58,87.64V63.36A15.39,15.39,0,0,1,59,48h0a15.4,15.4,0,0,1,15.41,15.4V87.64"/>
    </g>
    <g class="cls-6">
      <g>
        <circle class="cls-7" cx="32.32" cy="68.08" r="15.89"/>
        <circle class="cls-7" cx="87.65" cy="68.08" r="15.89"/>
        <circle class="cls-7" cx="32.32" cy="68.08" r="3.4"/>
        <path class="cls-7" d="M64.53,68.08a5.2,5.2,0,1,1-5.19-5.2A5.2,5.2,0,0,1,64.53,68.08Z"/>
        <circle class="cls-7" cx="87.65" cy="67.9" r="3.4"/>
        <line class="cls-7" x1="32.32" y1="64.67" x2="59.33" y2="62.88"/>
        <line class="cls-7" x1="32.32" y1="71.48" x2="59.33" y2="73.27"/>
        <line class="cls-7" x1="29.24" y1="66.64" x2="43.64" y2="43.67"/>
        <polyline class="cls-7" points="86.58 64.67 74.83 33.7 67.59 33.7"/>
        <line class="cls-7" x1="57" y1="63.44" x2="41.23" y2="40.11"/>
        <line class="cls-7" x1="62.21" y1="63.75" x2="78.68" y2="45.77"/>
        <path class="cls-7" d="M48.17,37.85a2.26,2.26,0,0,1-2.26,2.26H37.7a2.26,2.26,0,0,1-2.26-2.26h0a2.27,2.27,0,0,1,2.26-2.26h8.21a2.26,2.26,0,0,1,2.26,2.26Z"/>
        <line class="cls-7" x1="77.09" y1="39.63" x2="66.81" y2="50.94"/>
        <path class="cls-7" d="M43.64,43.67S55,63,66.81,50.94"/>
      </g>
    </g>
  </g>
</svg>
