<?xml version="1.0" encoding="utf-8"?>
<!-- Generator: Adobe Illustrator 22.1.0, SVG Export Plug-In . SVG Version: 6.00 Build 0)  -->
<svg version="1.1" id="Layer_1" xmlns="http://www.w3.org/2000/svg" xmlns:xlink="http://www.w3.org/1999/xlink" x="0px" y="0px"
	 viewBox="0 0 120 120" style="enable-background:new 0 0 120 120;" xml:space="preserve">
<style type="text/css">
	.st0{fill:#DEFFED;}
	.st1{fill:#C8F8D5;}
	.st2{fill:#144F2C;}
</style>
<title>Artboard 1 copy 87</title>
<g id="musclo">
	<path class="st0" d="M87.4,76.5c0,22.4-9.8,29.3-32.1,29.3c-16.3,0-30.3-3-36.8-16.9c-2.4-5.2-3.7-7.9-3.7-14
		c0-7.4,0.2-6.8,3.7-12.7C25.5,50.1,29,43.5,44,43.5c8.4,0,27.9-17,34.3-12.6C89.1,38.2,87.4,62.5,87.4,76.5z"/>
</g>
<g id="placa">
	<path class="st0" d="M67.1,20.8c0,4-2.7,7-6.7,7s-7.3-0.6-7.3-4.6s3.2-4.6,7.3-4.6S67.1,16.8,67.1,20.8z"/>
	<path class="st1" d="M46.5,84.2c5.9,0.4,11.7,0.8,17.1,0c2.7-0.3,5.3-1.1,7.7-2.2c2.4-1.1,4.5-2.6,6.4-4.5c1-0.9,1.9-2,2.8-3
		l1.4-1.6c0.4-0.5,0.8-1,1.2-1.5c1.4-2.1,2.4-4.5,2.7-7c0.3-2.6,0-5.3-0.8-7.8c-0.9-2.7-2.1-5.3-3.5-7.8c2.4,1.8,4.4,4.1,5.9,6.8
		c1.6,2.8,2.5,5.9,2.5,9.1c0,3.3-1,6.6-2.7,9.4c-0.4,0.7-0.9,1.4-1.4,2l-1.4,1.8c-1,1.2-2,2.3-3.1,3.4c-2.3,2.2-5,4-8,5.2
		c-3,1.1-6.1,1.7-9.2,1.7C57.9,87.9,52,86.6,46.5,84.2z"/>
	<path class="st2" d="M62.1,38c13.4,0,24.3,10.9,24.3,24.3S75.5,86.5,62.1,86.5c-13.4,0-24.3-10.9-24.3-24.3c0,0,0,0,0,0
		C37.8,48.8,48.7,38,62.1,38 M62.1,34c-15.6,0-28.3,12.6-28.3,28.3s12.6,28.3,28.3,28.3c15.6,0,28.3-12.6,28.3-28.3c0,0,0,0,0,0
		C90.3,46.6,77.7,34,62.1,34z"/>
	<path class="st1" d="M74.4,58.5c0.7,1.9,0.7,4,0,5.8c-0.8,2-2.3,3.6-4.2,4.7c-1.8,1-3.9,1.6-6,1.6h-1.4c-0.4,0-0.9,0-1.3,0
		c-0.9,0-1.8-0.1-2.6-0.2l2.2-2.2c-0.2,1.7-0.4,3.4-0.8,5.1L60.2,74c-0.1,0.3-0.2,0.6-0.3,0.8c-0.3,0.5-0.7,0.9-1.1,1.3
		c-0.8,0.6-1.9,0.8-2.9,0.4c0.7-0.3,1.3-0.8,1.6-1.6c0.1-0.3,0.1-0.6,0.1-0.9c0-0.1,0-0.3-0.1-0.4l-0.1-0.2l-0.1-0.3
		c-0.3-1.7-0.6-3.4-0.8-5.1l-0.2-2l2.4-0.2c0.9-0.1,1.8-0.2,2.6-0.2c0.4,0,0.9,0,1.3,0h0.7H64c1.4,0,2.9-0.3,4.2-0.7
		c1.3-0.4,2.6-1.2,3.6-2.1C73,61.6,73.9,60.1,74.4,58.5z"/>
	<g>
		<path class="st2" d="M52.8,51.9c0-1.7,1.3-3,3-3H64c6.5,0,10.4,3.8,10.4,9.4v0.1c0,6.3-4.9,9.6-11,9.6h-4.5v5.4c0,1.7-1.3,3-3,3
			s-3-1.3-3-3L52.8,51.9z M63.6,62.7c3,0,4.8-1.8,4.8-4.1v-0.1c0-2.7-1.9-4.2-4.9-4.2h-4.6v8.3H63.6z"/>
	</g>
</g>
</svg>
