<svg xmlns="http://www.w3.org/2000/svg" viewBox="0 0 120 120"><defs><style>.cls-1{fill:#fafafa;stroke:#000;stroke-miterlimit:10;}.cls-2{fill:#e7ffe5;}.cls-3{fill:#c8f8d5;}.cls-4,.cls-5{fill:#144f2c;}.cls-5{font-size:41.26px;font-family:CoreSansGRounded-Bold, Core Sans G Rounded;font-weight:700;}</style></defs><title>art_tag_spacious</title><g id="bg"><rect class="cls-1" x="-253.49" y="-20.31" width="421" height="706.71"/></g><g id="placa"><circle class="cls-2" cx="50.68" cy="76.49" r="33.22"/><path class="cls-3" d="M44.48,82.18c5.86.43,11.65.8,17.12,0A27.19,27.19,0,0,0,69.31,80a23.21,23.21,0,0,0,6.38-4.49c1-.93,1.86-2,2.79-3l1.37-1.63A18.36,18.36,0,0,0,81,69.39a15.79,15.79,0,0,0,2.7-7,18.86,18.86,0,0,0-.81-7.85,38.13,38.13,0,0,0-3.54-7.8,23,23,0,0,1,5.93,6.76,18.33,18.33,0,0,1,2.52,9.11A17.7,17.7,0,0,1,85.08,72a20,20,0,0,1-1.4,2l-1.41,1.73a38,38,0,0,1-3.14,3.38,24,24,0,0,1-8,5.17A26.3,26.3,0,0,1,61.88,86,43.72,43.72,0,0,1,44.48,82.18Z"/><path class="cls-4" d="M62.07,37A25.27,25.27,0,1,1,36.81,62.23,25.29,25.29,0,0,1,62.07,37m0-3A28.27,28.27,0,1,0,90.33,62.23,28.31,28.31,0,0,0,62.07,34Z"/><path class="cls-3" d="M74.44,58.46a7.91,7.91,0,0,1,0,5.82,9.56,9.56,0,0,1-4.23,4.65,13.05,13.05,0,0,1-6,1.62H62.81c-.44,0-.88,0-1.31,0-.88,0-1.75-.1-2.63-.18l2.25-2.25a46.84,46.84,0,0,1-.76,5.08l-.16.76a4.13,4.13,0,0,1-.32.85,3.8,3.8,0,0,1-1.12,1.32,3,3,0,0,1-2.9.41,2.74,2.74,0,0,0,1.6-1.57,2.31,2.31,0,0,0,.12-.88c0-.13,0-.26-.07-.39l-.06-.19-.07-.31a46.84,46.84,0,0,1-.76-5.08l-.19-2,2.44-.2c.88-.08,1.75-.16,2.63-.19.43,0,.87,0,1.31,0h.66l.55,0a14.2,14.2,0,0,0,4.22-.73,9.25,9.25,0,0,0,3.58-2.14A12.53,12.53,0,0,0,74.44,58.46Z"/><text class="cls-5" transform="translate(50.68 77.49)">P</text></g></svg>