<svg xmlns="http://www.w3.org/2000/svg" width="156.5" height="156.5" viewBox="0 0 156.5 156.5">
  <defs>
    <style>
      .cls-1 {
        fill: #deffed;
      }

      .cls-2, .cls-4 {
        fill: #c8f8d5;
      }

      .cls-3 {
        fill: none;
        stroke-width: 3.5px;
      }

      .cls-3, .cls-4 {
        stroke: #144f2c;
        stroke-linecap: round;
        stroke-linejoin: round;
      }

      .cls-4 {
        stroke-width: 3px;
      }
    </style>
  </defs>
  <title>Artboard 1 copy 84</title>
  <g id="chpeu">
    <path class="cls-1" d="M102.7,46.77c0,4.65.88,8.43-3.77,8.43s-13.08-3.78-13.08-8.43a8.43,8.43,0,1,1,16.85,0Z"/>
    <path class="cls-1" d="M101.46,99.17a36.55,36.55,0,0,1-73.1,0c0-10.1,11-35.08,17.57-41.69A36.41,36.41,0,0,1,71.78,46.77C92,46.77,101.46,79,101.46,99.17Z"/>
    <path class="cls-2" d="M55.09,92.49a26.47,26.47,0,0,1-7.36-3.34A34.59,34.59,0,0,1,44.66,87c-1-.77-1.9-1.59-2.78-2.44A4.17,4.17,0,0,1,41,79.73l.42-.87a30.38,30.38,0,0,1,5.41-7.93,26.57,26.57,0,0,1,3.81-3.3A19.76,19.76,0,0,1,55.55,65a20.08,20.08,0,0,1-.09,5.56,27.11,27.11,0,0,1-1.21,4.89,30.4,30.4,0,0,1-4.6,8.43l-.45-5.66a35.87,35.87,0,0,1,2,3.12,36.48,36.48,0,0,1,1.71,3.36A26.46,26.46,0,0,1,55.09,92.49Z"/>
    <path class="cls-2" d="M105.08,92.49A32.94,32.94,0,0,1,106.69,89c.59-1.1,1.22-2.17,1.87-3.22a69,69,0,0,1,4.24-6l-.23,2.82a60.6,60.6,0,0,1-4.8-8.31,45.36,45.36,0,0,1-1.86-4.48,28.8,28.8,0,0,1-1.3-4.83,28.54,28.54,0,0,1,3.71,3.36,47.47,47.47,0,0,1,3.14,3.69,61.29,61.29,0,0,1,5.22,8.06l.11.2a2.26,2.26,0,0,1-.34,2.63A73.07,73.07,0,0,1,111.14,88c-.94.8-1.9,1.59-2.9,2.34A36.94,36.94,0,0,1,105.08,92.49Z"/>
    <path class="cls-3" d="M108.19,90.38l9.31-10.07-14.9-17.7L78.38,53.3,54.17,62.61,39.26,80.31l9.58,10.33m29.54-3.81c-10.93,0-20,2.32-25.15,6.52-1.56,1.2-2.79,2.75-2.79,3.72,0,4.46,13.44,6.52,27.94,6.52s27.94-2.06,27.94-6.52c0-1-1.23-2.52-2.79-3.72C98.42,89.15,89.31,86.83,78.38,86.83Z"/>
    <path class="cls-4" d="M78.41,63.55l9.28,2.79c-1,7.56-4.75,12.11-9.28,12.11s-8.36-4.55-9.34-12.11Z"/>
  </g>
</svg>
