<?xml version="1.0" encoding="utf-8"?>
<!-- Generator: Adobe Illustrator 22.1.0, SVG Export Plug-In . SVG Version: 6.00 Build 0)  -->
<svg version="1.1" id="Layer_1" xmlns="http://www.w3.org/2000/svg" xmlns:xlink="http://www.w3.org/1999/xlink" x="0px" y="0px"
	 viewBox="0 0 120 120" style="enable-background:new 0 0 120 120;" xml:space="preserve">
<style type="text/css">
	.st0{fill:#E7FFE5;}
	.st1{fill:#144F2C;}
	.st2{fill:#C8F8D5;}
	.st3{fill:none;stroke:#144F2C;stroke-width:3;stroke-miterlimit:10;}
</style>
<title>art_tag_easyaccess</title>
<g id="oclus">
	<circle class="st0" cx="69.3" cy="62.3" r="40.5"/>
	<path class="st1" d="M62.4,51.5c0,0,0,11,7.4,16l0,0c0.6,0.4,1.3,0.2,1.7-0.3c0.4-0.6,0.2-1.3-0.3-1.7c0,0,0,0,0,0
		c-2.6-2-4.5-4.7-5.4-7.9c-0.6-1.9-0.9-3.9-0.9-5.8c0-0.1,0-0.1,0-0.2c0.1-0.7-0.4-1.3-1.1-1.3c-0.7-0.1-1.3,0.4-1.3,1.1
		C62.4,51.4,62.4,51.5,62.4,51.5L62.4,51.5z"/>
	<path class="st1" d="M32.2,65.4c-2.6-1.9-4.5-4.7-5.4-7.9c-0.6-1.9-0.9-3.9-0.9-5.8c0-0.1,0-0.1,0-0.2c0.1-0.7-0.4-1.3-1.1-1.3
		s-1.3,0.4-1.3,1.1c0,0.1,0,0.1,0,0.2c0,0,0,11,7.4,16l0,0c0.6,0.3,1.3,0.1,1.7-0.5C32.8,66.5,32.6,65.9,32.2,65.4L32.2,65.4z"/>
	<path class="st2" d="M51.8,54.1c-0.6,0.3-1.1,0.6-1.6,1c-0.1,0.1-0.1,0.2-0.1,0.3c0,0,0,0.1,0.1,0.1c0,0.1,0.1,0.2,0.1,0.2v0.3
		c0.1,1.2,0.1,2.5,0,3.7c-0.1,1.3-0.3,2.6-0.6,3.8l-0.2,0.9L49.3,65c0,0.2-0.1,0.4-0.2,0.6c-0.2,0.4-0.3,0.8-0.5,1.2
		c-0.2,0.4-0.4,0.7-0.7,1.1c-0.5,0.7-1,1.3-1.6,1.9c-0.6,0.5-1.2,1-1.9,1.4c-1.3,0.8-2.7,1.3-4.1,1.7c-2.7,0.6-5.6,0.6-8.2-0.2v-3.1
		l0.2,0.1h0.1l0,0v2.8l0,0h0l-0.4-0.2c-0.3-0.1-0.6-0.2-0.9-0.3c-0.6-0.3-1.2-0.5-1.8-0.9c0.6-0.3,1.2-0.6,1.8-0.8
		c0.3-0.1,0.6-0.2,0.9-0.3l0.4-0.2h0l0,0v2.8l0,0h-0.1L32,72.6v-3c2.2-0.9,4.3-1.8,6.1-2.7c1.6-0.8,3-1.8,4.2-3.1
		c0.1-0.2,0.3-0.3,0.3-0.4c0.1-0.2,0.2-0.3,0.3-0.5c0.1-0.1,0.1-0.2,0.2-0.3l0.2-0.4l0.4-0.8c0.5-1,1.1-2.1,1.7-3.1s1.2-2.1,2-3.3
		l0.4-0.5c0.2-0.2,0.3-0.4,0.5-0.6c0.4-0.4,1-0.6,1.5-0.5C50.6,53.5,51.2,53.7,51.8,54.1z"/>
	<path class="st2" d="M91.6,50.5c-0.2,2.9-0.5,5.7-1.1,8.5c-0.3,1.4-0.7,2.9-1.2,4.2c-0.5,1.5-1.2,2.9-2.2,4.2
		c-1,1.4-2.3,2.6-3.8,3.4c-1.5,0.8-3,1.3-4.7,1.6c-1.5,0.2-3,0.3-4.6,0.3l-2.2-0.1l-1-0.1h-0.5h-0.2c0,3.8,0-5.2,0-4.3h0.3v4.3
		c-0.8-0.1-1.6-0.2-2.3-0.3c-0.7-0.2-1.5-0.3-2.2-0.6c-1.4-0.5-2.8-1.1-4.1-2c-1.3-0.8-2.4-1.9-3.2-3.2c-0.8-1.2-1.3-2.6-1.5-4.1
		c0.7,1.2,1.6,2.2,2.7,3c1,0.8,2.1,1.4,3.3,1.8c1.2,0.4,2.4,0.7,3.7,0.9c0.6,0.1,1.3,0.1,1.9,0.2c0.6,0,1.2,0,1.8,0v4.3h-0.3
		c0,0.9,0-8.2,0-4.3h0.2h0.5l1-0.1c0.7,0,1.4-0.1,2-0.1c1.3-0.1,2.5-0.2,3.8-0.5c2.2-0.3,4.2-1.4,5.8-3c1.6-2,3-4.2,4-6.6
		C88.7,55.4,90,52.9,91.6,50.5z"/>
	<path class="st3" d="M15.4,47.9c0-2.5,2.5-2.5,17.2-2.5h9.8c9.8,0,7.4,2.5,12.3,2.5s2.4-2.4,12.3-2.4h9.8c14.7,0,17.2,0,17.2,2.5
		v2.5c0,2.5-1.8,0.7-2.4,4.9C89.1,70,86.6,72.5,74.4,72.5h-2.5c0,0-9.8,0-12.3-7.4c-3.2-9.6-1.4-9.8-4.9-9.8s-1.7,0.2-4.9,9.8
		c-2.5,7.4-12.3,7.4-12.3,7.4h-2.5c-12.3,0-14.7-2.5-17.2-17.2c-0.7-4.2-2.5-2.5-2.5-4.9C15.4,50.4,15.4,47.9,15.4,47.9z"/>
</g>
</svg>
