<svg xmlns="http://www.w3.org/2000/svg" width="156.5" height="156.5" viewBox="0 0 156.5 156.5">
  <defs>
    <style>
      .cls-1 {
        fill: #deffed;
      }

      .cls-2 {
        fill: #c8f8d5;
      }

      .cls-3 {
        fill: none;
        stroke: #144f2c;
        stroke-linecap: round;
        stroke-linejoin: round;
        stroke-width: 3px;
      }
    </style>
  </defs>
  <title>Artboard 1 copy 82</title>
  <g id="musclo">
    <path class="cls-1" d="M40.09,73.24c-1.85,2.38-5.34,4.48-7.71,2.64s-.7-7.18,1.14-9.55a5.45,5.45,0,0,1,7.65-1C43.55,67.22,41.94,70.86,40.09,73.24Z"/>
    <path class="cls-1" d="M116.87,94.74c0,11.19-12,28.84-19.36,36.17a40.39,40.39,0,0,1-28.64,11.87c-8.39,0-15.63-6.74-22.09-11.1C36,124.4,28.36,116.25,28.36,102.27S36.5,82,47.28,74.68c6.46-4.37,13.2-12.92,21.59-12.92,14,0,33.23,1.64,40.51,12.42C113.74,80.64,116.87,86.35,116.87,94.74Z"/>
    <g>
      <path class="cls-2" d="M43,110a22.47,22.47,0,0,0-1.5,4.58A3.19,3.19,0,0,0,43,117.77c.27.22.58.45.9.69s.72.58,1.07.87c.12.1.11.08.15.1l.1,0a1.51,1.51,0,0,0,.28.1,5,5,0,0,0,.82.16,13.3,13.3,0,0,0,2.09,0l1.17-.1.64-.06a5.16,5.16,0,0,1,.86,0,1.51,1.51,0,0,1,.53.1l.27.11a49.37,49.37,0,0,0,6,1.85c2.07.53,4.18,1,6.29,1.34,4.25.76,8.53,1.35,12.85,2a59.13,59.13,0,0,0,12.9.8A20.56,20.56,0,0,0,96,124.26a17.81,17.81,0,0,0,5.31-3.48c.8-.71,1.55-1.52,2.31-2.31.37-.4.78-.83,1.09-1.22a10.44,10.44,0,0,0,1-1.24,21.87,21.87,0,0,0,2.69-5.72,36.25,36.25,0,0,0,1.41-12.53,47.52,47.52,0,0,0-.77-6.2c-.08-.51-.2-1-.33-1.53l-.18-.76-.09-.38,0-.19,0,0s0-.07,0,.12a2.48,2.48,0,0,0,.36.73,1.58,1.58,0,0,0,.29.34,2,2,0,0,0,.28.24,2.1,2.1,0,0,0,.52.28,1.79,1.79,0,0,0,.34.11l.2,0c.19,0,.22,0,.19,0l-.52.14a2,2,0,0,0-.36.11l-.29.09a2.87,2.87,0,0,0-.55.22,9.41,9.41,0,0,0-3.78,3.29c-1.13,1.52-2,3.35-3.35,5.42a3.17,3.17,0,0,1-4.38,1,3.11,3.11,0,0,1-1.3-1.6L96,99a11.49,11.49,0,0,0-1.29-2.47,11.27,11.27,0,0,0-2.13-2.27,16.47,16.47,0,0,0-3.07-1.87c-1.16-.58-2.45-1-3.84-1.58h0a.33.33,0,0,1-.18-.42.35.35,0,0,1,.17-.17A12.27,12.27,0,0,1,90,89.07a12.4,12.4,0,0,1,4.81.64,11.46,11.46,0,0,1,4.43,2.73,10.76,10.76,0,0,1,2.83,4.67l-5.77-.8a59.15,59.15,0,0,1,3.89-5.75,18.84,18.84,0,0,1,2.84-2.8,13.26,13.26,0,0,1,3.71-2,8,8,0,0,1,1-.32l.52-.13.45-.1a9.92,9.92,0,0,1,1.1-.19,4.56,4.56,0,0,1,1,0l.41.07a2.22,2.22,0,0,1,.54.16,2.83,2.83,0,0,1,.7.37c.13.1.24.19.37.31a2.89,2.89,0,0,1,.35.42,2.81,2.81,0,0,1,.45.92c.06.22,0,.2,0,.22v0l0,.22.08.43L114,89a17.14,17.14,0,0,1,.25,1.75,36.25,36.25,0,0,1,.2,7.06A38.44,38.44,0,0,1,111,111.32a28.92,28.92,0,0,1-3.64,6A27.33,27.33,0,0,1,105,119.8c-.8.78-1.6,1.57-2.45,2.33a24.78,24.78,0,0,1-5.7,3.92,30.28,30.28,0,0,1-6.56,2.31,58.77,58.77,0,0,1-13.68,1.32,65.94,65.94,0,0,1-13.54-1.51,64.48,64.48,0,0,1-6.65-1.76,42.33,42.33,0,0,1-6.53-2.67l.8.22a1.76,1.76,0,0,0-.38,0H49.7l-1.32,0a14.38,14.38,0,0,1-2.87-.41,7.24,7.24,0,0,1-1.57-.59,5.94,5.94,0,0,1-.8-.51c-.13-.1-.26-.22-.39-.34l-.3-.33-.75-.84c-.3-.31-.61-.65-.91-1a6.6,6.6,0,0,1-1.44-2.74,5,5,0,0,1,.28-3.12,17.14,17.14,0,0,1,2.88-4.35.3.3,0,0,1,.43,0A.33.33,0,0,1,43,110Z"/>
      <path class="cls-2" d="M83.59,59.7c.84,1.11,1.45,2.27,2.16,3.07a2.47,2.47,0,0,0,1,.77.6.6,0,0,0,.54-.11c.19-.09.74-.17,1.12-.29a7.6,7.6,0,0,0,1.13-.45,8.61,8.61,0,0,0,2-1.42,17.31,17.31,0,0,0,1.94-2.15l2.07-2.73c1.44-1.91,3-3.72,4.72-5.79a11.47,11.47,0,0,1,.26,4,21.61,21.61,0,0,1-.76,3.86,20.87,20.87,0,0,1-1.49,3.68A16.35,16.35,0,0,1,97.11,64a15.05,15.05,0,0,1-1.52,1.7,10.55,10.55,0,0,1-4.21,2.38,8.87,8.87,0,0,1-2.44.34c-.41,0-.81,0-1.21-.06l-.62-.11-.31-.07-.4-.09a4.69,4.69,0,0,1-2.6-1.89,5.21,5.21,0,0,1-.82-2.4A9.85,9.85,0,0,1,83.59,59.7Z"/>
      <path class="cls-2" d="M74.61,115.4a16.25,16.25,0,0,1,4.5-2c1.47-.39,2.87-.66,4.15-.89s2.3-.43,3.73-.82a12.37,12.37,0,0,1,4.93-.52,15.58,15.58,0,0,1-3,4,9.54,9.54,0,0,1-4.77,2.31,13.12,13.12,0,0,1-4.93-.11A12.17,12.17,0,0,1,74.61,115.4Z"/>
    </g>
    <g>
      <path class="cls-3" d="M74.13,88c-.75-12.66,3.83-23.7,4.68-26.48,1.71-.19,3.44-.34,5.13-.6.39,2.39,1.55,5.68,4.41,6,.26,0,.5,0,.75,0,4.51,0,7.16-4.38,8.62-6.79,1.81-3,3.53-6.09,3-8.25-.58-2.37-3.91-3.55-5.86-4.43A47,47,0,0,0,84.61,44c-2.17-.42-5.77-1.24-7.87-.22-1.54.74-3,3-3.36,3.56-1.17,1.89-3.64,3.57-5.19,5.18A109,109,0,0,0,50.58,76.44c-6.56,12.18-8.31,31.31-8.52,33.83a22.65,22.65,0,0,0-2.19,4.36c-1.08,3,.9,4.75,2.34,6a12.12,12.12,0,0,1,.89.84c1.72,1.81,6.11,2.26,7.21,2.34,1.42.69,12.77,4.82,30,4.82S102,125,107,119.84c5.31-5.44,8.21-20.13,5-33.58a1,1,0,0,0-1.19-.76A19,19,0,0,0,99,94.16c-1.58-1.49-5.23-4-12.39-5C75.82,87.67,66,100.75,62.21,108.54"/>
      <path class="cls-3" d="M75.25,113.55c8.67,1.34,10.77.8,17.31-4.18"/>
    </g>
  </g>
</svg>
