<svg xmlns="http://www.w3.org/2000/svg" width="120" height="120" viewBox="0 0 120 120">
  <defs>
    <style>
      .cls-1 {
        fill: #deffed;
      }

      .cls-2 {
        fill: #c8f8d5;
      }

      .cls-3 {
        fill: none;
        stroke: #144f2c;
        stroke-linecap: round;
        stroke-linejoin: round;
        stroke-width: 3px;
      }

      .cls-4 {
        fill: #144f2c;
      }
    </style>
  </defs>
  <title>Artboard 1 copy 86</title>
  <g id="zolho">
    <path class="cls-1" d="M39.94,66.45c0,9.5,3.35,17-2.67,17s-13-5.37-13-14.87c0-2.87-1.39-9.52-.6-11.9,1.82-5.49,5-4.81,9.17-4.81C38.83,51.91,39.94,57,39.94,66.45Z"/>
    <path class="cls-1" d="M113.51,75.3A30,30,0,0,1,109,91.12c-5.32,8.61-18.23,9.31-29.09,9.31-5.23,0-19.67-7.67-23.95-10-9.38-5.12-9-8.34-9-19.78,0-3.75-1.3-7.34,0-10.65,4.31-11.41,10.58-19.52,23.5-19.52C87.08,40.48,113.51,58.63,113.51,75.3Z"/>
    <path class="cls-2" d="M81.59,47.45a41,41,0,0,1,6.22,2.18A10.28,10.28,0,0,1,91,51.79a9.59,9.59,0,0,1,2.13,3.88c.1.36.18.82.25,1.24a9.3,9.3,0,0,1,0,1.4,7.41,7.41,0,0,1-.8,2.73,11.24,11.24,0,0,1-2.77,3.3c-1.78,1.48-3.25,2.43-4.6,3.57l-.72.62a44.29,44.29,0,0,1-4.78,1.69,26,26,0,0,1-5.21,1A25.51,25.51,0,0,1,77.76,67a43.06,43.06,0,0,1,3.67-3.5l-.72.62a25.92,25.92,0,0,1,4.5-5,9.88,9.88,0,0,0,1.3-1.4c.14-.24.24-.13.26-.68a8.93,8.93,0,0,0-.32-1.83,9.84,9.84,0,0,0-1.36-2.1A21.83,21.83,0,0,1,81.59,47.45Z"/>
    <g>
      <path class="cls-3" d="M48.82,43.62a16.78,16.78,0,1,0,30.64,9.46,16.59,16.59,0,0,0-2.41-8.6"/>
      <path class="cls-4" d="M62.07,38.48c8,0,15.78,3.27,23.12,9.71A55,55,0,0,1,93,56.62,55,55,0,0,1,85.19,65c-7.34,6.45-15.12,9.71-23.12,9.71S46.3,71.49,39,65a55.35,55.35,0,0,1-7.76-8.42A55.31,55.31,0,0,1,39,48.19c7.35-6.44,15.12-9.71,23.12-9.71m0-3c-21.21,0-34.54,21.14-34.54,21.14S40.86,77.75,62.07,77.75,96.62,56.62,96.62,56.62,83.29,35.48,62.07,35.48Z"/>
      <path class="cls-3" d="M52.5,51.27c1.09-5.15,4.2-6.15,6.64-6.2"/>
    </g>
  </g>
</svg>
