<?xml version="1.0" encoding="utf-8"?>
<!-- Generator: Adobe Illustrator 22.1.0, SVG Export Plug-In . SVG Version: 6.00 Build 0)  -->
<svg version="1.1" id="Layer_1" xmlns="http://www.w3.org/2000/svg" xmlns:xlink="http://www.w3.org/1999/xlink" x="0px" y="0px"
	 viewBox="0 0 120 120" style="enable-background:new 0 0 120 120;" xml:space="preserve">
<style type="text/css">
	.st0{fill:#DEFFED;}
	.st1{fill:none;stroke:#144F2C;stroke-width:3;stroke-linecap:round;stroke-linejoin:round;}
	.st2{fill:none;stroke:#144F2C;stroke-width:2.5;stroke-linecap:round;stroke-linejoin:round;}
</style>
<title>Artboard 1 copy 106</title>
<g id="chpeu">
	<path class="st0" d="M108.5,93.6c-5.2,1.9-10.5-0.4-8.7-7.3c2-7.7-2.7-21.3,2.4-23.1s9.1,7.7,10.5,14.7
		C114.2,84.9,113.7,91.7,108.5,93.6z"/>
	<path class="st0" d="M41.8,49.2c11.4-5.6,24.9-5.2,35.9,1.1c6.7,3.8,12.1,9.6,15.5,16.5c9.3,19-12.8,30.9-32,40.2
		c-9.6,4.7-24.7,11.8-34,8.7s-16.9-4.7-21.6-14.2C-3.5,82.4,22.7,58.5,41.8,49.2z"/>
	<g>
		<line class="st1" x1="15.3" y1="87.6" x2="13.4" y2="87.6"/>
		<polyline class="st1" points="93.8,87.6 71.8,87.6 19.4,87.6 		"/>
		<line class="st1" x1="105.2" y1="87.6" x2="98.4" y2="87.6"/>
		<path class="st1" d="M43.6,87.6V63.4C43.6,54.9,50.5,48,59,48c0,0,0,0,0,0l0,0c8.5,0,15.4,6.9,15.4,15.4c0,0,0,0,0,0v24.3"/>
	</g>
	<g>
		<g>
			<circle class="st2" cx="32.3" cy="68.1" r="15.9"/>
			<circle class="st2" cx="87.7" cy="68.1" r="15.9"/>
			<circle class="st2" cx="32.3" cy="68.1" r="3.4"/>
			<path class="st2" d="M64.5,68.1c0,2.9-2.3,5.2-5.2,5.2c-2.9,0-5.2-2.3-5.2-5.2c0-2.9,2.3-5.2,5.2-5.2c0,0,0,0,0,0
				C62.2,62.9,64.5,65.2,64.5,68.1z"/>
			<circle class="st2" cx="87.7" cy="67.9" r="3.4"/>
			<line class="st2" x1="32.3" y1="64.7" x2="59.3" y2="62.9"/>
			<line class="st2" x1="32.3" y1="71.5" x2="59.3" y2="73.3"/>
			<line class="st2" x1="29.2" y1="66.6" x2="43.6" y2="43.7"/>
			<polyline class="st2" points="86.6,64.7 74.8,33.7 67.6,33.7 			"/>
			<line class="st2" x1="57" y1="63.4" x2="41.2" y2="40.1"/>
			<line class="st2" x1="62.2" y1="63.8" x2="78.7" y2="45.8"/>
			<path class="st2" d="M48.2,37.8c0,1.2-1,2.3-2.3,2.3l0,0h-8.2c-1.2,0-2.3-1-2.3-2.3l0,0c0-1.2,1-2.3,2.3-2.3H46
				C47.2,35.6,48.2,36.6,48.2,37.8L48.2,37.8L48.2,37.8z"/>
			<line class="st2" x1="77.1" y1="39.6" x2="66.8" y2="50.9"/>
			<path class="st2" d="M43.6,43.7c0,0,11.4,19.3,23.2,7.3"/>
		</g>
	</g>
</g>
</svg>
