<?xml version="1.0" encoding="utf-8"?>
<!-- Generator: Adobe Illustrator 22.1.0, SVG Export Plug-In . SVG Version: 6.00 Build 0)  -->
<svg version="1.1" id="Layer_1" xmlns="http://www.w3.org/2000/svg" xmlns:xlink="http://www.w3.org/1999/xlink" x="0px" y="0px"
	 viewBox="0 0 120 120" style="enable-background:new 0 0 120 120;" xml:space="preserve">
<style type="text/css">
	.st0{fill:#E7FFE5;}
	.st1{fill:#C8F8D5;}
	.st2{fill:none;stroke:#144F2C;stroke-width:3;stroke-linecap:round;stroke-linejoin:round;}
	.st3{fill:#144F2C;}
</style>
<title>art_tag_visible</title>
<g id="zolho">
	<circle class="st0" cx="65.4" cy="77.8" r="30.2"/>
	<path class="st1" d="M81.6,47.5c2.1,0.6,4.2,1.3,6.2,2.2c1.2,0.5,2.3,1.2,3.2,2.2c1,1.1,1.7,2.4,2.1,3.9c0.1,0.4,0.2,0.8,0.2,1.2
		c0,0.5,0,0.9,0,1.4c-0.1,1-0.4,1.9-0.8,2.7c-0.7,1.3-1.6,2.4-2.8,3.3c-1.8,1.5-3.2,2.4-4.6,3.6l-0.7,0.6c-1.6,0.7-3.2,1.2-4.8,1.7
		c-1.7,0.5-3.4,0.8-5.2,1c0.9-1.5,2-2.9,3.3-4.2c1.2-1.2,2.4-2.4,3.7-3.5l-0.7,0.6c1.3-1.9,2.8-3.5,4.5-5c0.5-0.4,0.9-0.9,1.3-1.4
		c0.1-0.2,0.2-0.1,0.3-0.7c0-0.6-0.2-1.2-0.3-1.8c-0.4-0.8-0.8-1.5-1.4-2.1C83.6,51.4,82.5,49.5,81.6,47.5z"/>
	<path class="st2" d="M48.8,43.6c-5.2,7.7-3.3,18.1,4.4,23.3s18.1,3.3,23.3-4.4c1.9-2.8,2.9-6.1,2.9-9.5c0-3-0.8-6-2.4-8.6"/>
	<path class="st3" d="M62.1,38.5c8,0,15.8,3.3,23.1,9.7c2.9,2.5,5.5,5.4,7.8,8.4c-2.3,3.1-4.9,5.9-7.8,8.4
		c-7.3,6.4-15.1,9.7-23.1,9.7S46.3,71.5,39,65c-2.9-2.5-5.5-5.4-7.8-8.4c2.3-3.1,4.9-5.9,7.8-8.4C46.3,41.8,54.1,38.5,62.1,38.5
		 M62.1,35.5c-21.2,0-34.5,21.1-34.5,21.1s13.3,21.1,34.5,21.1s34.6-21.1,34.6-21.1S83.3,35.5,62.1,35.5L62.1,35.5z"/>
	<path class="st2" d="M52.5,51.3c1.1-5.2,4.2-6.2,6.6-6.2"/>
</g>
</svg>
