<?xml version="1.0" encoding="utf-8"?>
<!-- Generator: Adobe Illustrator 22.1.0, SVG Export Plug-In . SVG Version: 6.00 Build 0)  -->
<svg version="1.1" id="Layer_1" xmlns="http://www.w3.org/2000/svg" xmlns:xlink="http://www.w3.org/1999/xlink" x="0px" y="0px"
	 viewBox="0 0 120 120" style="enable-background:new 0 0 120 120;" xml:space="preserve">
<style type="text/css">
	.st0{fill:#E7FFE5;}
	.st1{fill:#C8F8D5;}
	.st2{fill:#144F2C;}
	.st3{font-family:'CoreSansG-Bold';}
	.st4{font-size:41.26px;}
</style>
<title>art_tag_spacious</title>
<g id="placa">
	<circle class="st0" cx="50.7" cy="76.5" r="33.2"/>
	<path class="st1" d="M44.5,82.2c5.9,0.4,11.6,0.8,17.1,0c2.7-0.3,5.3-1.1,7.7-2.2c2.4-1.1,4.5-2.6,6.4-4.5c1-0.9,1.9-2,2.8-3
		l1.4-1.6c0.4-0.5,0.8-1,1.2-1.5c1.4-2.1,2.4-4.5,2.7-7c0.3-2.6,0-5.3-0.8-7.8c-0.9-2.7-2.1-5.3-3.5-7.8c2.4,1.8,4.4,4.1,5.9,6.8
		c1.6,2.8,2.5,5.9,2.5,9.1c0,3.3-0.9,6.6-2.7,9.4c-0.4,0.7-0.9,1.4-1.4,2l-1.4,1.7c-1,1.2-2,2.3-3.1,3.4c-2.3,2.2-5,4-8,5.2
		c-3,1.1-6.1,1.7-9.2,1.7C55.9,85.9,50,84.6,44.5,82.2z"/>
	<path class="st2" d="M62.1,37c14,0,25.3,11.3,25.3,25.3S76,87.5,62.1,87.5c-14,0-25.3-11.3-25.3-25.3c0,0,0,0,0,0
		C36.8,48.3,48.1,37,62.1,37 M62.1,34c-15.6,0-28.3,12.6-28.3,28.3c0,15.6,12.6,28.3,28.3,28.3c15.6,0,28.3-12.6,28.3-28.3
		c0,0,0,0,0,0C90.3,46.6,77.7,34,62.1,34z"/>
	<path class="st1" d="M74.4,58.5c0.7,1.9,0.7,4,0,5.8c-0.8,2-2.3,3.6-4.2,4.7c-1.8,1-3.9,1.6-6,1.6h-1.4c-0.4,0-0.9,0-1.3,0
		c-0.9,0-1.8-0.1-2.6-0.2l2.2-2.2c-0.2,1.7-0.4,3.4-0.8,5.1L60.2,74c-0.1,0.3-0.2,0.6-0.3,0.8c-0.3,0.5-0.7,1-1.1,1.3
		c-0.8,0.6-1.9,0.8-2.9,0.4c0.7-0.3,1.3-0.8,1.6-1.6c0.1-0.3,0.1-0.6,0.1-0.9c0-0.1,0-0.3-0.1-0.4l-0.1-0.2l-0.1-0.3
		c-0.3-1.7-0.6-3.4-0.8-5.1l-0.2-2l2.4-0.2c0.9-0.1,1.8-0.2,2.6-0.2c0.4,0,0.9,0,1.3,0h0.7H64c1.4,0,2.9-0.3,4.2-0.7
		c1.3-0.4,2.6-1.2,3.6-2.1C73,61.6,73.9,60.1,74.4,58.5z"/>
	<text transform="matrix(1 0 0 1 50.68 77.49)" class="st2 st3 st4">P</text>
</g>
</svg>
