<svg xmlns="http://www.w3.org/2000/svg" xmlns:xlink="http://www.w3.org/1999/xlink" width="156.5" height="156.5" viewBox="0 0 156.5 156.5">
  <defs>
    <style>
      .cls-1 {
        fill: #fff;
      }

      .cls-2, .cls-3, .cls-5, .cls-7 {
        fill: none;
        stroke-linecap: round;
        stroke-linejoin: round;
      }

      .cls-2, .cls-3 {
        stroke: #000;
      }

      .cls-2 {
        stroke-width: 10px;
      }

      .cls-3 {
        stroke-width: 14.17px;
      }

      .cls-4 {
        fill: #deffed;
      }

      .cls-5, .cls-7 {
        stroke: #144f2c;
      }

      .cls-5 {
        stroke-width: 3px;
      }

      .cls-6 {
        mask: url(#mask);
      }

      .cls-7 {
        stroke-width: 2.5px;
      }
    </style>
    <mask id="mask" x="-1.07" y="16.54" width="159.9" height="122.75" maskUnits="userSpaceOnUse">
      <g id="SVGID">
        <g id="_Group_" data-name="&lt;Group&gt;">
          <polygon class="cls-1" points="151.75 23.62 151.75 132.2 6.02 128.04 6.02 23.62 151.75 23.62"/>
          <g>
            <path class="cls-2" d="M61.83,103.35V81.09a15.4,15.4,0,1,1,30.8,0v22.26"/>
            <polygon class="cls-3" points="151.75 132.2 6.02 128.04 6.02 23.62 151.75 23.62 151.75 132.2"/>
          </g>
        </g>
      </g>
    </mask>
  </defs>
  <title>Artboard 1 copy 106</title>
  <g id="chpeu">
    <path class="cls-4" d="M133.74,113.09c-5.17,1.38-9.31.16-10.7-5s-2.72-15.7,2.45-17.08,9.13,5.72,10.51,10.89S138.91,111.7,133.74,113.09Z"/>
    <path class="cls-4" d="M65.06,77.15A38.57,38.57,0,0,1,101,78.22a38.06,38.06,0,0,1,15.52,16.5c9.27,19-12.83,30.87-32,40.2-9.57,4.66-24.65,11.83-33.95,8.66S33.65,138.84,29,129.33C19.75,110.31,45.92,86.48,65.06,77.15Z"/>
    <g>
      <line class="cls-5" x1="33.54" y1="105.89" x2="31.68" y2="105.89"/>
      <polyline class="cls-5" points="112.03 105.89 90.01 105.89 37.65 105.89"/>
      <line class="cls-5" x1="123.4" y1="105.89" x2="116.69" y2="105.89"/>
      <path class="cls-5" d="M61.83,105.89V81.61a15.39,15.39,0,0,1,15.4-15.4h0a15.4,15.4,0,0,1,15.41,15.4v24.28"/>
    </g>
    <g class="cls-6">
      <g>
        <circle class="cls-7" cx="50.57" cy="86.33" r="15.89"/>
        <circle class="cls-7" cx="105.9" cy="86.33" r="15.89"/>
        <circle class="cls-7" cx="50.57" cy="86.33" r="3.4"/>
        <path class="cls-7" d="M82.78,86.33a5.2,5.2,0,1,1-5.19-5.2A5.2,5.2,0,0,1,82.78,86.33Z"/>
        <circle class="cls-7" cx="105.9" cy="86.15" r="3.4"/>
        <line class="cls-7" x1="50.57" y1="82.92" x2="77.58" y2="81.13"/>
        <line class="cls-7" x1="50.57" y1="89.73" x2="77.58" y2="91.52"/>
        <line class="cls-7" x1="47.49" y1="84.89" x2="61.89" y2="61.92"/>
        <polyline class="cls-7" points="104.83 82.92 93.08 51.95 85.84 51.95"/>
        <line class="cls-7" x1="75.25" y1="81.69" x2="59.48" y2="58.36"/>
        <line class="cls-7" x1="80.46" y1="82" x2="96.93" y2="64.02"/>
        <path class="cls-7" d="M66.42,56.1a2.26,2.26,0,0,1-2.26,2.26H56a2.26,2.26,0,0,1-2.26-2.26h0A2.27,2.27,0,0,1,56,53.84h8.21a2.26,2.26,0,0,1,2.26,2.26Z"/>
        <line class="cls-7" x1="95.34" y1="57.88" x2="85.06" y2="69.19"/>
        <path class="cls-7" d="M61.89,61.92s11.39,19.35,23.17,7.27"/>
      </g>
    </g>
  </g>
</svg>
