<svg xmlns="http://www.w3.org/2000/svg" width="120" height="120" viewBox="0 0 120 120">
  <defs>
    <style>
      .cls-1 {
        fill: #deffed;
      }

      .cls-2 {
        fill: #c8f8d5;
      }

      .cls-3 {
        fill: none;
        stroke: #144f2c;
        stroke-linecap: round;
        stroke-linejoin: round;
        stroke-width: 3px;
      }
    </style>
  </defs>
  <title>Artboard 1 copy 85</title>
  <g id="psoa">
    <path class="cls-1" d="M25.62,77.11C24.21,81.89,24.31,87.4,17,88.69c-1.8.32-5.1-5.12-5.78-6.69-3.06-7.07,1.94-8,2.83-11.07,1.41-4.78,4.85-8.24,9.64-6.83S27,72.32,25.62,77.11Z"/>
    <path class="cls-1" d="M96.53,76.69c0,16.78-6.88,21.16-21.85,26.45-4,1.42-13.6,8-25.24,4.94-13.13-3.44-19.87-7.29-19.87-28.57A38.43,38.43,0,0,1,43.75,49.64c6.64-5.42,5-11.48,14.24-11.48A38.5,38.5,0,0,1,96.53,76.69Z"/>
    <path class="cls-2" d="M64,70.68c-.2.8-1.22,2.47-.85,3.21l9,17.88a4.8,4.8,0,0,0,4.3,2.58,5.26,5.26,0,0,0,2.24-.52,4.74,4.74,0,0,0,2.15-6.36L70.22,66.86c-1.43-2.78-3.55-3.94-4.34-.92Z"/>
    <path class="cls-2" d="M40.93,59.11a9.19,9.19,0,0,1,1.48,0,8.8,8.8,0,0,0,1.3-.1,4.11,4.11,0,0,0,1.95-.82,7,7,0,0,0,2-3.51l.42-1.35a11.83,11.83,0,0,1,.67-1.5,9.89,9.89,0,0,1,2-2.54,13.43,13.43,0,0,1,5.3-2.79c-.84,1.89-2.08,3.37-2.86,4.82a14.86,14.86,0,0,0-1,2.15c-.14.35-.25.72-.36,1.09l-.15.56c-.07.26-.13.52-.22.77a9.36,9.36,0,0,1-1.57,3A6.37,6.37,0,0,1,47,61a5.34,5.34,0,0,1-3.52-.1A7.16,7.16,0,0,1,40.93,59.11Z"/>
    <path class="cls-2" d="M65.66,53a8.78,8.78,0,0,1,1.19,2,9.9,9.9,0,0,1,.62,2.08,10.86,10.86,0,0,1,0,4.25l0,.1,0,.1A13.38,13.38,0,0,1,65.86,65a13.06,13.06,0,0,1-1.19,1.55,8.8,8.8,0,0,1-1.62,1.43,8.92,8.92,0,0,1-.66-2.06,12.05,12.05,0,0,1-.23-1.94,13.77,13.77,0,0,1,.41-3.65l0,.2a18.17,18.17,0,0,1,.94-3.63A13.6,13.6,0,0,1,64.32,55,9.76,9.76,0,0,1,65.66,53Z"/>
    <g>
      <path class="cls-3" d="M65.42,74.5l8.09,16.14a4.07,4.07,0,0,0,3.65,2.19,4.54,4.54,0,0,0,1.9-.44A4,4,0,0,0,80.88,87L68.47,62.79"/>
      <circle class="cls-3" cx="59.21" cy="24.89" r="6.79"/>
      <path class="cls-3" d="M75.48,48.83C68,45.69,63.15,37.67,63.08,37.45A4.33,4.33,0,0,0,57,35.92a7.91,7.91,0,0,0-.8.58c-2.77,1.83-9.92,7.37-13.57,19.34A4.34,4.34,0,1,0,51,58.32a28.6,28.6,0,0,1,5.84-11,35.22,35.22,0,0,1,0,11.46C54.54,72.76,41.63,85.39,41.48,85.61a4.35,4.35,0,0,0-.07,6.12,4.3,4.3,0,0,0,3.06,1.32,4.39,4.39,0,0,0,3-1.24c.66-.59,15.25-14.81,17.73-31.52a44.72,44.72,0,0,0,.59-6.72,29.49,29.49,0,0,0,6.13,3.58,4.7,4.7,0,0,0,1.67.29,4.62,4.62,0,0,0,4.16-2.7A4.38,4.38,0,0,0,75.48,48.83Z"/>
    </g>
  </g>
</svg>
