<?xml version="1.0" encoding="utf-8"?>
<!-- Generator: Adobe Illustrator 16.0.0, SVG Export Plug-In . SVG Version: 6.00 Build 0)  -->
<!DOCTYPE svg PUBLIC "-//W3C//DTD SVG 1.1//EN" "http://www.w3.org/Graphics/SVG/1.1/DTD/svg11.dtd">
<svg version="1.1" id="Layer_1" xmlns="http://www.w3.org/2000/svg" xmlns:xlink="http://www.w3.org/1999/xlink" x="0px" y="0px"
	 width="703.667px" height="459.167px" viewBox="0 0 703.667 459.167" enable-background="new 0 0 703.667 459.167"
	 xml:space="preserve">
<g>
	
		<path fill="none" stroke="#FFFFFF" stroke-width="4.252" stroke-linecap="round" stroke-linejoin="round" stroke-miterlimit="10" d="
		M312.456,112.121c0-5.6,4.541-10.14,10.141-10.14s10.139,4.54,10.139,10.14"/>
	
		<path fill="none" stroke="#FFFFFF" stroke-width="4.252" stroke-linecap="round" stroke-linejoin="round" stroke-miterlimit="10" d="
		M332.735,112.121c0-5.6,4.541-10.14,10.141-10.14s10.139,4.54,10.139,10.14"/>
</g>
<g>
	
		<path fill="none" stroke="#FFFFFF" stroke-width="4.252" stroke-linecap="round" stroke-linejoin="round" stroke-miterlimit="10" d="
		M372.376,33.09c0-5.6,4.539-10.14,10.139-10.14s10.139,4.54,10.139,10.14"/>
	
		<path fill="none" stroke="#FFFFFF" stroke-width="4.252" stroke-linecap="round" stroke-linejoin="round" stroke-miterlimit="10" d="
		M392.653,33.09c0-5.6,4.541-10.14,10.141-10.14s10.139,4.54,10.139,10.14"/>
</g>
<g>
	
		<path fill="none" stroke="#FFFFFF" stroke-width="4.252" stroke-linecap="round" stroke-linejoin="round" stroke-miterlimit="10" d="
		M556.987,138.303c0-5.6,4.539-10.14,10.139-10.14s10.141,4.54,10.141,10.14"/>
	
		<path fill="none" stroke="#FFFFFF" stroke-width="4.252" stroke-linecap="round" stroke-linejoin="round" stroke-miterlimit="10" d="
		M577.267,138.303c0-5.6,4.539-10.14,10.139-10.14s10.139,4.54,10.139,10.14"/>
</g>
<g>
	
		<line fill="none" stroke="#FFFFFF" stroke-width="4.252" stroke-linecap="round" stroke-linejoin="round" stroke-miterlimit="10" x1="500.013" y1="48.257" x2="500.013" y2="133.645"/>
	
		<line fill="none" stroke="#FFFFFF" stroke-width="4.252" stroke-linecap="round" stroke-linejoin="round" stroke-miterlimit="10" x1="542.706" y1="90.95" x2="457.319" y2="90.95"/>
	
		<line fill="none" stroke="#FFFFFF" stroke-width="4.252" stroke-linecap="round" stroke-linejoin="round" stroke-miterlimit="10" x1="469.823" y1="60.762" x2="530.202" y2="121.14"/>
	
		<line fill="none" stroke="#FFFFFF" stroke-width="4.252" stroke-linecap="round" stroke-linejoin="round" stroke-miterlimit="10" x1="530.202" y1="60.762" x2="469.823" y2="121.14"/>
	
		<circle fill="#30bb6a" stroke="#FFFFFF" stroke-width="4.252" stroke-linecap="round" stroke-linejoin="round" stroke-miterlimit="10" cx="500.013" cy="90.952" r="22.842"/>
</g>
<g>
	<g>
		
			<path fill="none" stroke="#FFFFFF" stroke-width="4.252" stroke-linecap="round" stroke-linejoin="round" stroke-miterlimit="10" d="
			M284.601,15.143c0-6.27-5.084-11.353-11.354-11.353h-130.48c-6.27,0-11.352,5.083-11.352,11.353v309.007h153.186V15.143z"/>
		
			<path fill="none" stroke="#FFFFFF" stroke-width="4.252" stroke-linecap="round" stroke-linejoin="round" stroke-miterlimit="10" d="
			M183.532,43.687c0,1.834-1.488,3.323-3.324,3.323H150.89c-1.836,0-3.324-1.489-3.324-3.323V22.494
			c0-1.834,1.488-3.323,3.324-3.323h29.318c1.836,0,3.324,1.489,3.324,3.323V43.687z"/>
		
			<path fill="none" stroke="#FFFFFF" stroke-width="4.252" stroke-linecap="round" stroke-linejoin="round" stroke-miterlimit="10" d="
			M183.532,87.628c0,1.834-1.488,3.323-3.324,3.323H150.89c-1.836,0-3.324-1.489-3.324-3.323V66.436
			c0-1.834,1.488-3.323,3.324-3.323h29.318c1.836,0,3.324,1.489,3.324,3.323V87.628z"/>
		
			<path fill="none" stroke="#FFFFFF" stroke-width="4.252" stroke-linecap="round" stroke-linejoin="round" stroke-miterlimit="10" d="
			M183.532,131.567c0,1.834-1.488,3.323-3.324,3.323H150.89c-1.836,0-3.324-1.489-3.324-3.323v-21.192
			c0-1.834,1.488-3.323,3.324-3.323h29.318c1.836,0,3.324,1.489,3.324,3.323V131.567z"/>
		
			<path fill="none" stroke="#FFFFFF" stroke-width="4.252" stroke-linecap="round" stroke-linejoin="round" stroke-miterlimit="10" d="
			M183.532,175.507c0,1.834-1.488,3.323-3.324,3.323H150.89c-1.836,0-3.324-1.489-3.324-3.323v-21.192
			c0-1.834,1.488-3.323,3.324-3.323h29.318c1.836,0,3.324,1.489,3.324,3.323V175.507z"/>
		
			<path fill="none" stroke="#FFFFFF" stroke-width="4.252" stroke-linecap="round" stroke-linejoin="round" stroke-miterlimit="10" d="
			M183.532,219.447c0,1.834-1.488,3.323-3.324,3.323H150.89c-1.836,0-3.324-1.489-3.324-3.323v-21.192
			c0-1.834,1.488-3.323,3.324-3.323h29.318c1.836,0,3.324,1.489,3.324,3.323V219.447z"/>
	</g>
</g>
<g>
	
		<line fill="none" stroke="#FFFFFF" stroke-width="4.252" stroke-linecap="round" stroke-linejoin="round" stroke-miterlimit="10" x1="219.839" y1="323.559" x2="219.839" y2="205.067"/>
	
		<circle fill="none" stroke="#FFFFFF" stroke-width="4.252" stroke-linecap="round" stroke-linejoin="round" stroke-miterlimit="10" cx="219.839" cy="193.9" r="11.167"/>
	
		<line fill="none" stroke="#FFFFFF" stroke-width="4.252" stroke-linecap="round" stroke-linejoin="round" stroke-miterlimit="10" x1="209.563" y1="210.066" x2="230.23" y2="210.066"/>
</g>
<g>
	
		<polyline fill="none" stroke="#FFFFFF" stroke-width="4.252" stroke-linecap="round" stroke-linejoin="round" stroke-miterlimit="10" points="
		337.952,324.149 337.952,239.389 337.952,172.59 405.81,117.507 472.21,170.845 472.21,239.389 472.21,324.149 	"/>
	
		<path fill="none" stroke="#FFFFFF" stroke-width="4.252" stroke-linecap="round" stroke-linejoin="round" stroke-miterlimit="10" d="
		M360.96,316.892"/>
	
		<line fill="none" stroke="#FFFFFF" stroke-width="4.252" stroke-linecap="round" stroke-linejoin="round" stroke-miterlimit="10" x1="317.769" y1="324.149" x2="581.481" y2="324.149"/>
	
		<path fill="none" stroke="#FFFFFF" stroke-width="4.252" stroke-linecap="round" stroke-linejoin="round" stroke-miterlimit="10" d="
		M444.813,83.611"/>
	
		<line fill="none" stroke="#FFFFFF" stroke-width="4.252" stroke-linecap="round" stroke-linejoin="round" stroke-miterlimit="10" x1="472.21" y1="281.399" x2="592.485" y2="281.399"/>
	
		<line fill="none" stroke="#FFFFFF" stroke-width="4.252" stroke-linecap="round" stroke-linejoin="round" stroke-miterlimit="10" x1="537.608" y1="266.55" x2="537.608" y2="324.149"/>
	
		<line fill="none" stroke="#FFFFFF" stroke-width="4.252" stroke-linecap="round" stroke-linejoin="round" stroke-miterlimit="10" x1="516.478" y1="266.55" x2="516.478" y2="324.149"/>
	
		<line fill="none" stroke="#FFFFFF" stroke-width="4.252" stroke-linecap="round" stroke-linejoin="round" stroke-miterlimit="10" x1="494.347" y1="266.55" x2="494.347" y2="324.149"/>
	
		<line fill="none" stroke="#FFFFFF" stroke-width="4.252" stroke-linecap="round" stroke-linejoin="round" stroke-miterlimit="10" x1="579.118" y1="266.55" x2="579.118" y2="324.149"/>
	
		<line fill="none" stroke="#FFFFFF" stroke-width="4.252" stroke-linecap="round" stroke-linejoin="round" stroke-miterlimit="10" x1="556.987" y1="266.55" x2="556.987" y2="324.149"/>
	
		<circle fill="none" stroke="#FFFFFF" stroke-width="4.252" stroke-linecap="round" stroke-linejoin="round" stroke-miterlimit="10" cx="406.065" cy="167.844" r="13.412"/>
</g>
<g>
	
		<polyline fill="#30bb6a" stroke="#FFFFFF" stroke-width="4.252" stroke-linecap="round" stroke-linejoin="round" stroke-miterlimit="10" points="
		536.925,224.734 536.925,324.149 665.796,324.149 665.796,224.734 	"/>
	
		<path fill="#30bb6a" stroke="#FFFFFF" stroke-width="4.252" stroke-linecap="round" stroke-linejoin="round" stroke-miterlimit="10" d="
		M648.317,273.318c0-7.323-6.26-13.259-13.982-13.259h-51.662c-7.723,0-13.982,5.936-13.982,13.259v50.831h79.627V273.318z"/>
	<g>
		
			<polyline fill="#30bb6a" stroke="#FFFFFF" stroke-width="4.252" stroke-linecap="round" stroke-linejoin="round" stroke-miterlimit="10" points="
			676.687,215.569 649.339,173.246 551.569,173.246 524.22,215.569 		"/>
		
			<path fill="#30bb6a" stroke="#FFFFFF" stroke-width="4.252" stroke-linecap="round" stroke-linejoin="round" stroke-miterlimit="10" d="
			M676.671,215.569c0,5.062-5.689,9.165-12.705,9.165s-12.703-4.104-12.703-9.165c0,5.062-5.689,9.165-12.705,9.165
			s-12.705-4.104-12.705-9.165c0,5.062-5.688,9.165-12.703,9.165s-12.705-4.104-12.705-9.165c0,5.062-5.688,9.165-12.703,9.165
			s-12.705-4.104-12.705-9.165c0,5.062-5.688,9.165-12.703,9.165c-7.018,0-12.705-4.104-12.705-9.165
			c0,5.062-5.688,9.165-12.703,9.165c-7.018,0-12.705-4.104-12.705-9.165"/>
		
			<line fill="#30bb6a" stroke="#FFFFFF" stroke-width="4.252" stroke-linecap="round" stroke-linejoin="round" stroke-miterlimit="10" x1="600.444" y1="215.569" x2="600.444" y2="173.246"/>
		
			<line fill="#30bb6a" stroke="#FFFFFF" stroke-width="4.252" stroke-linecap="round" stroke-linejoin="round" stroke-miterlimit="10" x1="575.036" y1="215.569" x2="585.782" y2="173.246"/>
		
			<line fill="#30bb6a" stroke="#FFFFFF" stroke-width="4.252" stroke-linecap="round" stroke-linejoin="round" stroke-miterlimit="10" x1="549.628" y1="215.569" x2="568.69" y2="173.246"/>
		
			<line fill="#30bb6a" stroke="#FFFFFF" stroke-width="4.252" stroke-linecap="round" stroke-linejoin="round" stroke-miterlimit="10" x1="625.97" y1="215.608" x2="615.226" y2="173.285"/>
		
			<line fill="#30bb6a" stroke="#FFFFFF" stroke-width="4.252" stroke-linecap="round" stroke-linejoin="round" stroke-miterlimit="10" x1="651.378" y1="215.608" x2="632.317" y2="173.285"/>
	</g>
</g>
<path fill="#59BC72" stroke="#FFFFFF" stroke-width="7.0866" stroke-linecap="round" stroke-linejoin="round" stroke-miterlimit="10" d="
	M476.765,315.044"/>
<g>
	
		<path fill="#30bb6a" stroke="#FFFFFF" stroke-width="4.252" stroke-linecap="round" stroke-linejoin="round" stroke-miterlimit="10" d="
		M67.286,316.236v-40.492c0,0-106.744-9.461,0-142.512"/>
	
		<path fill="#30bb6a" stroke="#FFFFFF" stroke-width="4.252" stroke-linecap="round" stroke-linejoin="round" stroke-miterlimit="10" d="
		M67.286,275.744c0,0,106.744-9.461,0-142.512"/>
</g>
<path fill="#FFFFFF" stroke="#30bb6a" stroke-width="11.3386" stroke-miterlimit="10" d="M37.878,324.149
	c0,0,12.333-39.402,43.666-19.149c0,0,19.834-35.162,43,1.165c0,0,18.834-21.418,33.167,2.759c0,0,21.5-8.586,23.5,15.226H37.878z"
	/>
<path fill="#30bb6a" stroke="#FFFFFF" stroke-width="4.252" stroke-linecap="round" stroke-linejoin="round" stroke-miterlimit="10" d="
	M37.878,324.149c0,0,12.333-39.402,43.666-19.149c0,0,19.834-35.162,43,1.165c0,0,18.834-21.418,33.167,2.759
	c0,0,21.5-8.586,23.5,15.226H37.878z"/>
<line fill="none" stroke="#FFFFFF" stroke-width="4.252" stroke-linecap="round" stroke-linejoin="round" stroke-miterlimit="10" x1="701.669" y1="324.149" x2="3.004" y2="324.149"/>
<g>
	
		<path fill="none" stroke="#30bb6a" stroke-width="14.1732" stroke-linecap="round" stroke-linejoin="round" stroke-miterlimit="10" d="
		M250.624,288.47c0-56.396,45.723-102.112,102.119-102.112s102.119,45.716,102.119,102.112"/>
	
		<path fill="none" stroke="#30bb6a" stroke-width="14.1732" stroke-linecap="round" stroke-linejoin="round" stroke-miterlimit="10" d="
		M454.862,288.47c6.311,95.307-102.119,165.158-102.119,165.158s-108.43-69.852-102.119-165.158"/>
</g>
<g>
	<g id="XMLID_135_">
		<g>
			<path fill="#FFFFFF" d="M454.37,288.47c6.311,95.308-102.119,165.158-102.119,165.158s-108.43-69.851-102.119-165.158
				c0-56.396,45.724-102.111,102.119-102.111C408.647,186.358,454.37,232.074,454.37,288.47z M441.469,291.422
				c0-49.495-40.121-89.616-89.616-89.616c-49.502,0-89.624,40.121-89.624,89.616s40.122,89.624,89.624,89.624
				C401.348,381.046,441.469,340.917,441.469,291.422z"/>
			<path fill="#30bb6a" d="M351.853,201.806c49.495,0,89.616,40.121,89.616,89.616s-40.121,89.624-89.616,89.624
				c-49.502,0-89.624-40.129-89.624-89.624S302.351,201.806,351.853,201.806z"/>
		</g>
		<g>
			
				<path fill="none" stroke="#FFFFFF" stroke-width="7.0866" stroke-linecap="round" stroke-linejoin="round" stroke-miterlimit="10" d="
				M250.132,288.47c0-56.396,45.724-102.111,102.119-102.111c56.396,0,102.119,45.716,102.119,102.111"/>
			
				<path fill="none" stroke="#FFFFFF" stroke-width="7.0866" stroke-linecap="round" stroke-linejoin="round" stroke-miterlimit="10" d="
				M454.37,288.47c6.311,95.308-102.119,165.158-102.119,165.158s-108.43-69.851-102.119-165.158"/>
			
				<path fill="none" stroke="#FFFFFF" stroke-width="7.0866" stroke-linecap="round" stroke-linejoin="round" stroke-miterlimit="10" d="
				M441.469,291.422c0,49.495-40.121,89.624-89.616,89.624c-49.502,0-89.624-40.129-89.624-89.624s40.122-89.616,89.624-89.616
				C401.348,201.806,441.469,241.927,441.469,291.422z"/>
		</g>
	</g>
</g>
<g>
	
		<circle fill="none" stroke="#FFFFFF" stroke-width="3.6104" stroke-linecap="round" stroke-linejoin="round" stroke-miterlimit="10" cx="314.502" cy="299.097" r="21.452"/>
	
		<circle fill="none" stroke="#FFFFFF" stroke-width="3.6104" stroke-linecap="round" stroke-linejoin="round" stroke-miterlimit="10" cx="389.195" cy="299.097" r="21.452"/>
	
		<path fill="none" stroke="#FFFFFF" stroke-width="3.6104" stroke-linecap="round" stroke-linejoin="round" stroke-miterlimit="10" d="
		M319.095,299.097c0,2.534-2.057,4.59-4.593,4.59s-4.591-2.056-4.591-4.59c0-2.539,2.055-4.593,4.591-4.593
		S319.095,296.558,319.095,299.097z"/>
	
		<path fill="none" stroke="#FFFFFF" stroke-width="3.6104" stroke-linecap="round" stroke-linejoin="round" stroke-miterlimit="10" d="
		M357.979,299.097c0,3.868-3.141,7.009-7.012,7.009s-7.01-3.141-7.01-7.009c0-3.874,3.139-7.012,7.01-7.012
		S357.979,295.223,357.979,299.097z"/>
	
		<circle fill="none" stroke="#FFFFFF" stroke-width="3.6104" stroke-linecap="round" stroke-linejoin="round" stroke-miterlimit="10" cx="389.196" cy="298.859" r="4.592"/>
	
		<line fill="none" stroke="#FFFFFF" stroke-width="3.6104" stroke-linecap="round" stroke-linejoin="round" stroke-miterlimit="10" x1="314.502" y1="294.504" x2="350.968" y2="292.085"/>
	
		<line fill="none" stroke="#FFFFFF" stroke-width="3.6104" stroke-linecap="round" stroke-linejoin="round" stroke-miterlimit="10" x1="314.502" y1="303.687" x2="350.968" y2="306.105"/>
	
		<line fill="none" stroke="#FFFFFF" stroke-width="3.6104" stroke-linecap="round" stroke-linejoin="round" stroke-miterlimit="10" x1="310.345" y1="297.151" x2="329.78" y2="266.147"/>
	
		<polyline fill="none" stroke="#FFFFFF" stroke-width="3.6104" stroke-linecap="round" stroke-linejoin="round" stroke-miterlimit="10" points="
		387.747,294.503 371.894,252.688 362.114,252.688 	"/>
	
		<line fill="none" stroke="#FFFFFF" stroke-width="3.6104" stroke-linecap="round" stroke-linejoin="round" stroke-miterlimit="10" x1="347.821" y1="292.83" x2="326.531" y2="261.342"/>
	
		<line fill="none" stroke="#FFFFFF" stroke-width="3.6104" stroke-linecap="round" stroke-linejoin="round" stroke-miterlimit="10" x1="354.847" y1="293.254" x2="377.085" y2="268.989"/>
	
		<path fill="none" stroke="#FFFFFF" stroke-width="3.6104" stroke-linecap="round" stroke-linejoin="round" stroke-miterlimit="10" d="
		M335.896,258.293c0,1.685-1.365,3.049-3.051,3.049h-11.081c-1.683,0-3.049-1.364-3.049-3.049l0,0c0-1.685,1.366-3.051,3.049-3.051
		h11.081C334.53,255.242,335.896,256.608,335.896,258.293L335.896,258.293z"/>
	
		<line fill="none" stroke="#FFFFFF" stroke-width="3.6104" stroke-linecap="round" stroke-linejoin="round" stroke-miterlimit="10" x1="350.968" y1="299.096" x2="358.138" y2="312.604"/>
	
		<line fill="none" stroke="#FFFFFF" stroke-width="3.6104" stroke-linecap="round" stroke-linejoin="round" stroke-miterlimit="10" x1="353.962" y1="313.521" x2="362.864" y2="313.521"/>
	
		<line fill="none" stroke="#FFFFFF" stroke-width="3.6104" stroke-linecap="round" stroke-linejoin="round" stroke-miterlimit="10" x1="374.931" y1="260.695" x2="361.065" y2="275.959"/>
	
		<path fill="none" stroke="#FFFFFF" stroke-width="3.6104" stroke-linecap="round" stroke-linejoin="round" stroke-miterlimit="10" d="
		M329.78,266.147c0,0,15.375,26.119,31.285,9.812"/>
	
		<path fill="none" stroke="#FFFFFF" stroke-width="3.6104" stroke-linecap="round" stroke-linejoin="round" stroke-miterlimit="10" d="
		M394.71,284.518c0,0,7.977,1.282,10.191,11.316"/>
	
		<path fill="none" stroke="#FFFFFF" stroke-width="3.6104" stroke-linecap="round" stroke-linejoin="round" stroke-miterlimit="10" d="
		M310.344,313.674c0,0-7.978-1.282-10.192-11.318"/>
</g>
<g>
	<g>
		
			<polyline fill="#30bb6a" stroke="#30bb6a" stroke-width="11.3386" stroke-linecap="round" stroke-linejoin="round" stroke-miterlimit="10" points="
			414.483,320.547 414.483,282.525 365.575,321.677 		"/>
	</g>
</g>
<g>
	<g id="XMLID_134_">
		<g>
			<polygon fill="#30bb6a" points="414.637,282.316 414.637,323.153 363.545,323.153 			"/>
		</g>
		<g>
			
				<polygon fill="none" stroke="#FFFFFF" stroke-width="4.0015" stroke-linecap="round" stroke-linejoin="round" stroke-miterlimit="10" points="
				363.545,323.153 414.637,323.153 414.637,282.316 			"/>
		</g>
	</g>
</g>
<line fill="none" stroke="#FFFFFF" stroke-width="4.252" stroke-linecap="round" stroke-linejoin="round" stroke-miterlimit="10" x1="284.014" y1="323.502" x2="420.448" y2="323.502"/>
</svg>
