<?xml version="1.0" encoding="utf-8"?>
<!-- Generator: Adobe Illustrator 16.0.0, SVG Export Plug-In . SVG Version: 6.00 Build 0)  -->
<!DOCTYPE svg PUBLIC "-//W3C//DTD SVG 1.1//EN" "http://www.w3.org/Graphics/SVG/1.1/DTD/svg11.dtd">
<svg version="1.1" xmlns="http://www.w3.org/2000/svg" xmlns:xlink="http://www.w3.org/1999/xlink" x="0px" y="0px"
	 width="702.599px" height="459.167px" viewBox="0 0 702.599 459.167" enable-background="new 0 0 702.599 459.167"
	 xml:space="preserve">
<g id="camada_4">
</g>
<g id="bibicletinha">
</g>
<g id="bicicletario">
</g>
<g id="camada_3">
</g>
<g id="camada_2">
</g>
<g id="camada_1">
	<g>
		<g>
			<defs>
				<filter id="Adobe_OpacityMaskFilter" filterUnits="userSpaceOnUse" x="16.404" y="1.664" width="661.094" height="324.611">
					<feColorMatrix  type="matrix" values="1 0 0 0 0  0 1 0 0 0  0 0 1 0 0  0 0 0 1 0"/>
				</filter>
			</defs>
			<mask maskUnits="userSpaceOnUse" x="16.404" y="1.664" width="661.094" height="324.611" id="SVGID_1_">
				<g filter="url(#Adobe_OpacityMaskFilter)">
					<g>
						<g id="XMLID_3_">
							<g>
								<path fill="#FFFFFF" d="M700.353-15.002v492.005H-2.245V-15.002H700.353z M349.512,453.628
									c0,0,108.43-69.851,102.119-165.158c0-54.661-42.956-99.292-96.945-101.979c-1.713-0.089-3.439-0.133-5.174-0.133
									c-1.765,0-3.514,0.044-5.256,0.133c-53.989,2.687-96.945,47.317-96.945,101.979C241,383.777,349.43,453.628,349.43,453.628
									s0.016-0.008,0.045-0.029C349.496,453.62,349.512,453.628,349.512,453.628z M34.599,323.402h143.334
									c-2.001-23.81-23.501-15.226-23.501-15.226c-14.325-24.172-33.161-2.753-33.161-2.753c-23.168-36.328-43-1.167-43-1.167
									C46.933,284.005,34.599,323.402,34.599,323.402z"/>
								<path fill="#FFFFFF" d="M451.631,288.47c6.311,95.308-102.119,165.158-102.119,165.158s-0.016-0.008-0.037-0.029
									c2.487-1.617,108.312-70.943,102.075-165.129c0-54.632-42.912-99.24-96.864-101.979
									C408.675,189.178,451.631,233.809,451.631,288.47z"/>
								<path d="M451.55,288.47c6.236,94.186-99.588,163.512-102.075,165.129c-2.281-1.477-108.327-70.848-102.083-165.129
									c0-54.632,42.912-99.24,96.864-101.979c1.742-0.089,3.491-0.133,5.256-0.133c1.734,0,3.461,0.044,5.174,0.133
									C408.638,189.229,451.55,233.838,451.55,288.47z M438.729,291.422c0-49.495-40.122-89.616-89.617-89.616
									c-49.502,0-89.623,40.121-89.623,89.616s40.121,89.624,89.623,89.624C398.607,381.046,438.729,340.917,438.729,291.422z"/>
								<path d="M349.112,201.806c49.495,0,89.617,40.121,89.617,89.616s-40.122,89.624-89.617,89.624
									c-49.502,0-89.623-40.129-89.623-89.624S299.61,201.806,349.112,201.806z"/>
								<path fill="#58BC72" d="M349.475,453.599c-0.029,0.021-0.045,0.029-0.045,0.029S241,383.777,247.311,288.47
									c0-54.661,42.956-99.292,96.945-101.979c-53.952,2.738-96.864,47.347-96.864,101.979
									C241.147,382.751,347.193,452.122,349.475,453.599z"/>
								<path d="M177.933,323.402H34.599c0,0,12.334-39.397,43.672-19.146c0,0,19.832-35.161,43,1.167
									c0,0,18.836-21.419,33.161,2.753C154.432,308.177,175.932,299.593,177.933,323.402z"/>
							</g>
							<g>
								
									<path fill="none" stroke="#000000" stroke-width="17.0079" stroke-linecap="round" stroke-linejoin="round" stroke-miterlimit="10" d="
									M247.311,288.47c0-54.661,42.956-99.292,96.945-101.979"/>
								
									<path fill="none" stroke="#000000" stroke-width="17.0079" stroke-linecap="round" stroke-linejoin="round" stroke-miterlimit="10" d="
									M349.475,453.599c-0.029,0.021-0.045,0.029-0.045,0.029S241,383.777,247.311,288.47"/>
								
									<path fill="none" stroke="#000000" stroke-width="17.0079" stroke-linecap="round" stroke-linejoin="round" stroke-miterlimit="10" d="
									M247.392,288.47c0-54.632,42.912-99.24,96.864-101.979c1.742-0.089,3.491-0.133,5.256-0.133
									c1.734,0,3.461,0.044,5.174,0.133c53.989,2.687,96.945,47.317,96.945,101.979"/>
								
									<path fill="none" stroke="#000000" stroke-width="17.0079" stroke-linecap="round" stroke-linejoin="round" stroke-miterlimit="10" d="
									M451.631,288.47c6.311,95.308-102.119,165.158-102.119,165.158s-0.016-0.008-0.037-0.029
									c-2.281-1.477-108.327-70.848-102.083-165.129"/>
								
									<path fill="none" stroke="#000000" stroke-width="17.0079" stroke-linecap="round" stroke-linejoin="round" stroke-miterlimit="10" d="
									M438.729,291.422c0,49.495-40.122,89.624-89.617,89.624c-49.502,0-89.623-40.129-89.623-89.624s40.121-89.616,89.623-89.616
									C398.607,201.806,438.729,241.927,438.729,291.422z"/>
								
									<path fill="none" stroke="#000000" stroke-width="17.0079" stroke-linecap="round" stroke-linejoin="round" stroke-miterlimit="10" d="
									M177.933,323.402c-2.001-23.81-23.501-15.226-23.501-15.226c-14.325-24.172-33.161-2.753-33.161-2.753
									c-23.168-36.328-43-1.167-43-1.167c-31.338-20.252-43.672,19.146-43.672,19.146H177.933z"/>
							</g>
						</g>
					</g>
				</g>
			</mask>
			<g mask="url(#SVGID_1_)">
				<g>
					
						<polyline fill="none" stroke="#FFFFFF" stroke-width="4.252" stroke-linecap="round" stroke-linejoin="round" stroke-miterlimit="10" points="
						336.638,324.149 336.638,239.388 336.638,172.589 404.495,117.507 470.896,170.845 470.896,239.388 470.896,324.149 					"/>
					
						<line fill="none" stroke="#FFFFFF" stroke-width="4.252" stroke-linecap="round" stroke-linejoin="round" stroke-miterlimit="10" x1="470.896" y1="281.399" x2="534.761" y2="281.399"/>
					
						<circle fill="none" stroke="#FFFFFF" stroke-width="4.252" stroke-linecap="round" stroke-linejoin="round" stroke-miterlimit="10" cx="404.751" cy="167.843" r="13.412"/>
					<g>
						
							<line fill="none" stroke="#FFFFFF" stroke-width="4.252" stroke-linecap="round" stroke-linejoin="round" stroke-miterlimit="10" x1="664.481" y1="324.149" x2="664.481" y2="224.733"/>
						
							<line fill="none" stroke="#FFFFFF" stroke-width="4.252" stroke-linecap="round" stroke-linejoin="round" stroke-miterlimit="10" x1="535.61" y1="224.733" x2="535.61" y2="324.149"/>
						
							<path fill="none" stroke="#FFFFFF" stroke-width="4.252" stroke-linecap="round" stroke-linejoin="round" stroke-miterlimit="10" d="
							M647.003,273.317c0-7.322-6.26-13.258-13.982-13.258h-51.662c-7.723,0-13.982,5.936-13.982,13.258v50.832h79.627V273.317z"/>
						<g>
							
								<polyline fill="none" stroke="#FFFFFF" stroke-width="4.252" stroke-linecap="round" stroke-linejoin="round" stroke-miterlimit="10" points="
								675.372,215.569 648.024,173.245 550.255,173.245 522.905,215.569 							"/>
							
								<path fill="none" stroke="#FFFFFF" stroke-width="4.252" stroke-linecap="round" stroke-linejoin="round" stroke-miterlimit="10" d="
								M675.356,215.569c0,5.061-5.689,9.164-12.705,9.164s-12.703-4.104-12.703-9.164c0,5.061-5.689,9.164-12.705,9.164
								s-12.705-4.104-12.705-9.164c0,5.061-5.688,9.164-12.703,9.164s-12.705-4.104-12.705-9.164c0,5.061-5.688,9.164-12.703,9.164
								s-12.705-4.104-12.705-9.164c0,5.061-5.688,9.164-12.703,9.164c-7.018,0-12.705-4.104-12.705-9.164
								c0,5.061-5.688,9.164-12.703,9.164c-7.018,0-12.705-4.104-12.705-9.164"/>
							
								<line fill="none" stroke="#FFFFFF" stroke-width="4.252" stroke-linecap="round" stroke-linejoin="round" stroke-miterlimit="10" x1="599.13" y1="215.569" x2="599.13" y2="173.245"/>
							
								<line fill="none" stroke="#FFFFFF" stroke-width="4.252" stroke-linecap="round" stroke-linejoin="round" stroke-miterlimit="10" x1="573.722" y1="215.569" x2="584.468" y2="173.245"/>
							
								<line fill="none" stroke="#FFFFFF" stroke-width="4.252" stroke-linecap="round" stroke-linejoin="round" stroke-miterlimit="10" x1="548.313" y1="215.569" x2="567.376" y2="173.245"/>
							
								<line fill="none" stroke="#FFFFFF" stroke-width="4.252" stroke-linecap="round" stroke-linejoin="round" stroke-miterlimit="10" x1="624.655" y1="215.608" x2="613.911" y2="173.284"/>
							
								<line fill="none" stroke="#FFFFFF" stroke-width="4.252" stroke-linecap="round" stroke-linejoin="round" stroke-miterlimit="10" x1="650.063" y1="215.608" x2="631.003" y2="173.284"/>
						</g>
					</g>
					<g>
						<g>
							
								<path fill="none" stroke="#FFFFFF" stroke-width="4.252" stroke-linecap="round" stroke-linejoin="round" stroke-miterlimit="10" d="
								M283.286,324.149V15.142c0-6.27-5.084-11.352-11.354-11.352h-130.48c-6.27,0-11.352,5.082-11.352,11.352v309.008"/>
							
								<path fill="none" stroke="#FFFFFF" stroke-width="4.252" stroke-linecap="round" stroke-linejoin="round" stroke-miterlimit="10" d="
								M182.218,43.687c0,1.834-1.488,3.322-3.324,3.322h-29.318c-1.836,0-3.324-1.488-3.324-3.322V22.493
								c0-1.834,1.488-3.322,3.324-3.322h29.318c1.836,0,3.324,1.488,3.324,3.322V43.687z"/>
							
								<path fill="none" stroke="#FFFFFF" stroke-width="4.252" stroke-linecap="round" stroke-linejoin="round" stroke-miterlimit="10" d="
								M182.218,87.628c0,1.834-1.488,3.322-3.324,3.322h-29.318c-1.836,0-3.324-1.488-3.324-3.322V66.435
								c0-1.834,1.488-3.322,3.324-3.322h29.318c1.836,0,3.324,1.488,3.324,3.322V87.628z"/>
							
								<path fill="none" stroke="#FFFFFF" stroke-width="4.252" stroke-linecap="round" stroke-linejoin="round" stroke-miterlimit="10" d="
								M182.218,131.567c0,1.834-1.488,3.322-3.324,3.322h-29.318c-1.836,0-3.324-1.488-3.324-3.322v-21.193
								c0-1.834,1.488-3.322,3.324-3.322h29.318c1.836,0,3.324,1.488,3.324,3.322V131.567z"/>
							
								<path fill="none" stroke="#FFFFFF" stroke-width="4.252" stroke-linecap="round" stroke-linejoin="round" stroke-miterlimit="10" d="
								M182.218,175.507c0,1.834-1.488,3.322-3.324,3.322h-29.318c-1.836,0-3.324-1.488-3.324-3.322v-21.193
								c0-1.834,1.488-3.322,3.324-3.322h29.318c1.836,0,3.324,1.488,3.324,3.322V175.507z"/>
							
								<path fill="none" stroke="#FFFFFF" stroke-width="4.252" stroke-linecap="round" stroke-linejoin="round" stroke-miterlimit="10" d="
								M182.218,219.446c0,1.834-1.488,3.324-3.324,3.324h-29.318c-1.836,0-3.324-1.49-3.324-3.324v-21.191
								c0-1.834,1.488-3.324,3.324-3.324h29.318c1.836,0,3.324,1.49,3.324,3.324V219.446z"/>
						</g>
					</g>
					<g>
						
							<path fill="none" stroke="#FFFFFF" stroke-width="4.252" stroke-linecap="round" stroke-linejoin="round" stroke-miterlimit="10" d="
							M65.972,316.235v-40.492c0,0-106.744-9.461,0-142.512"/>
						
							<path fill="none" stroke="#FFFFFF" stroke-width="4.252" stroke-linecap="round" stroke-linejoin="round" stroke-miterlimit="10" d="
							M65.972,275.743c0,0,106.744-9.461,0-142.512"/>
					</g>
				</g>
				
					<line fill="none" stroke="#FFFFFF" stroke-width="4.252" stroke-linecap="round" stroke-linejoin="round" stroke-miterlimit="10" x1="513.894" y1="266.55" x2="513.894" y2="324.149"/>
				
					<line fill="none" stroke="#FFFFFF" stroke-width="4.252" stroke-linecap="round" stroke-linejoin="round" stroke-miterlimit="10" x1="491.763" y1="266.55" x2="491.763" y2="324.149"/>
			</g>
			<g>
				<defs>
					
						<filter id="Adobe_OpacityMaskFilter_1_" filterUnits="userSpaceOnUse" x="287.671" y="250.533" width="121.849" height="72.111">
						<feColorMatrix  type="matrix" values="1 0 0 0 0  0 1 0 0 0  0 0 1 0 0  0 0 0 1 0"/>
					</filter>
				</defs>
				<mask maskUnits="userSpaceOnUse" x="287.671" y="250.533" width="121.849" height="72.111" id="SVGID_2_">
					<g filter="url(#Adobe_OpacityMaskFilter_1_)">
						<g>
							<g id="XMLID_5_">
								<g>
									<path fill="#FFFFFF" d="M500.901,197.356v197.5h-342v-197.5H500.901z M410.192,324.125v-40.837l-51.092,40.837H410.192z"/>
									<polygon points="410.192,283.288 410.192,324.125 359.101,324.125 									"/>
								</g>
								<g>
									
										<rect x="158.901" y="197.356" fill="none" stroke="#FFFFFF" stroke-width="11.3386" stroke-linecap="round" stroke-linejoin="round" stroke-miterlimit="10" width="342" height="197.5"/>
								</g>
							</g>
						</g>
					</g>
				</mask>
				<g mask="url(#SVGID_2_)">
					
						<circle fill="none" stroke="#FFFFFF" stroke-width="4.252" stroke-linecap="round" stroke-linejoin="round" stroke-miterlimit="10" cx="311.248" cy="299.067" r="21.452"/>
					
						<circle fill="none" stroke="#FFFFFF" stroke-width="4.252" stroke-linecap="round" stroke-linejoin="round" stroke-miterlimit="10" cx="385.941" cy="299.067" r="21.452"/>
					
						<path fill="none" stroke="#FFFFFF" stroke-width="4.252" stroke-linecap="round" stroke-linejoin="round" stroke-miterlimit="10" d="
						M315.841,299.067c0,2.535-2.057,4.59-4.594,4.59c-2.535,0-4.59-2.055-4.59-4.59c0-2.539,2.055-4.592,4.59-4.592
						C313.784,294.476,315.841,296.528,315.841,299.067z"/>
					
						<circle fill="none" stroke="#FFFFFF" stroke-width="4.252" stroke-linecap="round" stroke-linejoin="round" stroke-miterlimit="10" cx="347.715" cy="299.067" r="7.011"/>
					
						<path fill="none" stroke="#FFFFFF" stroke-width="4.252" stroke-linecap="round" stroke-linejoin="round" stroke-miterlimit="10" d="
						M390.534,298.831c0,2.535-2.057,4.59-4.592,4.59c-2.537,0-4.592-2.055-4.592-4.59c0-2.539,2.055-4.596,4.592-4.596
						C388.478,294.235,390.534,296.292,390.534,298.831z"/>
					
						<line fill="none" stroke="#FFFFFF" stroke-width="4.252" stroke-linecap="round" stroke-linejoin="round" stroke-miterlimit="10" x1="311.247" y1="294.476" x2="347.714" y2="292.056"/>
					
						<line fill="none" stroke="#FFFFFF" stroke-width="4.252" stroke-linecap="round" stroke-linejoin="round" stroke-miterlimit="10" x1="311.247" y1="303.657" x2="347.714" y2="306.077"/>
					
						<line fill="none" stroke="#FFFFFF" stroke-width="4.252" stroke-linecap="round" stroke-linejoin="round" stroke-miterlimit="10" x1="307.091" y1="297.122" x2="326.526" y2="266.118"/>
					
						<polyline fill="none" stroke="#FFFFFF" stroke-width="4.252" stroke-linecap="round" stroke-linejoin="round" stroke-miterlimit="10" points="
						384.493,294.474 368.64,252.659 358.86,252.659 					"/>
					
						<line fill="none" stroke="#FFFFFF" stroke-width="4.252" stroke-linecap="round" stroke-linejoin="round" stroke-miterlimit="10" x1="344.567" y1="292.802" x2="323.276" y2="261.313"/>
					
						<line fill="none" stroke="#FFFFFF" stroke-width="4.252" stroke-linecap="round" stroke-linejoin="round" stroke-miterlimit="10" x1="351.593" y1="293.226" x2="373.831" y2="268.96"/>
					
						<path fill="none" stroke="#FFFFFF" stroke-width="4.252" stroke-linecap="round" stroke-linejoin="round" stroke-miterlimit="10" d="
						M332.642,258.265c0,1.684-1.365,3.049-3.051,3.049h-11.082c-1.682,0-3.049-1.365-3.049-3.049l0,0
						c0-1.686,1.367-3.051,3.049-3.051h11.082C331.276,255.214,332.642,256.579,332.642,258.265L332.642,258.265z"/>
					
						<line fill="none" stroke="#FFFFFF" stroke-width="4.252" stroke-linecap="round" stroke-linejoin="round" stroke-miterlimit="10" x1="347.714" y1="299.067" x2="354.884" y2="312.575"/>
					
						<line fill="none" stroke="#FFFFFF" stroke-width="4.252" stroke-linecap="round" stroke-linejoin="round" stroke-miterlimit="10" x1="350.708" y1="313.493" x2="359.61" y2="313.493"/>
					
						<line fill="none" stroke="#FFFFFF" stroke-width="4.252" stroke-linecap="round" stroke-linejoin="round" stroke-miterlimit="10" x1="371.677" y1="260.667" x2="357.812" y2="275.931"/>
					
						<path fill="none" stroke="#FFFFFF" stroke-width="4.252" stroke-linecap="round" stroke-linejoin="round" stroke-miterlimit="10" d="
						M326.526,266.118c0,0,15.375,26.119,31.285,9.813"/>
					
						<path fill="none" stroke="#FFFFFF" stroke-width="4.252" stroke-linecap="round" stroke-linejoin="round" stroke-miterlimit="10" d="
						M391.456,284.489c0,0,7.977,1.281,10.191,11.316"/>
					
						<path fill="none" stroke="#FFFFFF" stroke-width="4.252" stroke-linecap="round" stroke-linejoin="round" stroke-miterlimit="10" d="
						M307.089,313.646c0,0-7.977-1.283-10.191-11.318"/>
				</g>
				<g>
					<g id="XMLID_6_">
						<g>
							
								<polygon fill="none" stroke="#FFFFFF" stroke-width="4.252" stroke-linecap="round" stroke-linejoin="round" stroke-miterlimit="10" points="
								365.793,323.405 416.885,323.405 416.885,284.439 							"/>
						</g>
					</g>
				</g>
			</g>
			<defs>
				<filter id="Adobe_OpacityMaskFilter_2_" filterUnits="userSpaceOnUse" x="1.422" y="322.279" width="699.752" height="4.252">
					<feColorMatrix  type="matrix" values="1 0 0 0 0  0 1 0 0 0  0 0 1 0 0  0 0 0 1 0"/>
				</filter>
			</defs>
			<mask maskUnits="userSpaceOnUse" x="1.422" y="322.279" width="699.752" height="4.252" id="SVGID_3_">
				<g filter="url(#Adobe_OpacityMaskFilter_2_)">
					<g>
						<g id="XMLID_7_">
							<g>
								<path fill="#FFFFFF" d="M919.896,76.935v515.579H-104.103V76.935H919.896z M349.183,453.882
									c0,0,108.431-69.851,102.12-165.157c0-56.396-45.724-102.112-102.12-102.112c-56.396,0-102.119,45.716-102.119,102.112
									C240.753,384.031,349.183,453.882,349.183,453.882z"/>
								<path d="M451.303,288.725c6.311,95.307-102.12,165.157-102.12,165.157s-108.43-69.851-102.119-165.157
									c0-56.396,45.724-102.112,102.119-102.112C405.579,186.612,451.303,232.328,451.303,288.725z M438.401,291.677
									c0-49.495-40.122-89.617-89.617-89.617c-49.502,0-89.624,40.122-89.624,89.617s40.122,89.624,89.624,89.624
									C398.279,381.301,438.401,341.172,438.401,291.677z"/>
								<path fill="#FFFFFF" d="M348.784,202.06c49.495,0,89.617,40.122,89.617,89.617s-40.122,89.624-89.617,89.624
									c-49.502,0-89.624-40.129-89.624-89.624S299.282,202.06,348.784,202.06z"/>
							</g>
							<g>
								
									<path fill="none" stroke="#000000" stroke-width="17.0079" stroke-linecap="round" stroke-linejoin="round" stroke-miterlimit="10" d="
									M247.063,288.725c0-56.396,45.724-102.112,102.119-102.112c56.396,0,102.12,45.716,102.12,102.112"/>
								
									<path fill="none" stroke="#000000" stroke-width="17.0079" stroke-linecap="round" stroke-linejoin="round" stroke-miterlimit="10" d="
									M451.303,288.725c6.311,95.307-102.12,165.157-102.12,165.157s-108.43-69.851-102.119-165.157"/>
								
									<path fill="none" stroke="#000000" stroke-width="17.0079" stroke-linecap="round" stroke-linejoin="round" stroke-miterlimit="10" d="
									M438.401,291.677c0,49.495-40.122,89.624-89.617,89.624c-49.502,0-89.624-40.129-89.624-89.624s40.122-89.617,89.624-89.617
									C398.279,202.06,438.401,242.182,438.401,291.677z"/>
								
									<rect x="-104.103" y="76.935" fill="none" stroke="#000000" stroke-width="17.0079" stroke-linecap="round" stroke-linejoin="round" stroke-miterlimit="10" width="1023.998" height="515.579"/>
							</g>
						</g>
					</g>
				</g>
			</mask>
			
				<line mask="url(#SVGID_3_)" fill="none" stroke="#FFFFFF" stroke-width="4.252" stroke-linecap="round" stroke-linejoin="round" stroke-miterlimit="10" x1="699.048" y1="324.405" x2="3.548" y2="324.405"/>
			<g>
				<g id="XMLID_4_">
					<g>
						<path fill="#FFFFFF" d="M452.141,288.47c6.311,95.308-102.119,165.158-102.119,165.158s-108.43-69.851-102.119-165.158
							c0-56.396,45.724-102.111,102.119-102.111C406.418,186.358,452.141,232.074,452.141,288.47z M439.239,291.422
							c0-49.495-40.121-89.616-89.616-89.616c-49.502,0-89.624,40.121-89.624,89.616s40.122,89.624,89.624,89.624
							C399.118,381.046,439.239,340.917,439.239,291.422z"/>
					</g>
					<g>
						
							<path fill="none" stroke="#FFFFFF" stroke-width="7.0866" stroke-linecap="round" stroke-linejoin="round" stroke-miterlimit="10" d="
							M247.902,288.47c0-56.396,45.724-102.111,102.119-102.111c56.396,0,102.119,45.716,102.119,102.111"/>
						
							<path fill="none" stroke="#FFFFFF" stroke-width="7.0866" stroke-linecap="round" stroke-linejoin="round" stroke-miterlimit="10" d="
							M452.141,288.47c6.311,95.308-102.119,165.158-102.119,165.158s-108.43-69.851-102.119-165.158"/>
						
							<path fill="none" stroke="#FFFFFF" stroke-width="7.0866" stroke-linecap="round" stroke-linejoin="round" stroke-miterlimit="10" d="
							M439.239,291.422c0,49.495-40.121,89.624-89.616,89.624c-49.502,0-89.624-40.129-89.624-89.624s40.122-89.616,89.624-89.616
							C399.118,201.806,439.239,241.927,439.239,291.422z"/>
					</g>
				</g>
			</g>
			
				<path fill="none" stroke="#FFFFFF" stroke-width="4.252" stroke-linecap="round" stroke-linejoin="round" stroke-miterlimit="10" d="
				M179.216,323.405c-2-23.813-23.5-15.227-23.5-15.227c-14.332-24.176-33.166-2.758-33.166-2.758c-23.166-36.328-43-1.166-43-1.166
				c-31.334-20.252-43.666,19.15-43.666,19.15H179.216z"/>
			<g>
				
					<path fill="none" stroke="#FFFFFF" stroke-width="4.252" stroke-linecap="round" stroke-linejoin="round" stroke-miterlimit="10" d="
					M310.894,112.12c0-5.6,4.541-10.139,10.141-10.139s10.139,4.539,10.139,10.139"/>
				
					<path fill="none" stroke="#FFFFFF" stroke-width="4.252" stroke-linecap="round" stroke-linejoin="round" stroke-miterlimit="10" d="
					M331.173,112.12c0-5.6,4.541-10.139,10.141-10.139s10.139,4.539,10.139,10.139"/>
			</g>
			<g>
				
					<path fill="none" stroke="#FFFFFF" stroke-width="4.252" stroke-linecap="round" stroke-linejoin="round" stroke-miterlimit="10" d="
					M370.813,33.089c0-5.6,4.539-10.139,10.139-10.139s10.139,4.539,10.139,10.139"/>
				
					<path fill="none" stroke="#FFFFFF" stroke-width="4.252" stroke-linecap="round" stroke-linejoin="round" stroke-miterlimit="10" d="
					M391.091,33.089c0-5.6,4.541-10.139,10.141-10.139s10.139,4.539,10.139,10.139"/>
			</g>
			<g>
				
					<path fill="none" stroke="#FFFFFF" stroke-width="4.252" stroke-linecap="round" stroke-linejoin="round" stroke-miterlimit="10" d="
					M555.425,138.302c0-5.6,4.539-10.139,10.139-10.139s10.141,4.539,10.141,10.139"/>
				
					<path fill="none" stroke="#FFFFFF" stroke-width="4.252" stroke-linecap="round" stroke-linejoin="round" stroke-miterlimit="10" d="
					M575.704,138.302c0-5.6,4.539-10.139,10.139-10.139s10.139,4.539,10.139,10.139"/>
			</g>
			<g>
				
					<line fill="none" stroke="#FFFFFF" stroke-width="4.252" stroke-linecap="round" stroke-linejoin="round" stroke-miterlimit="10" x1="218.276" y1="323.558" x2="218.276" y2="205.067"/>
				
					<circle fill="none" stroke="#FFFFFF" stroke-width="4.252" stroke-linecap="round" stroke-linejoin="round" stroke-miterlimit="10" cx="218.275" cy="193.899" r="11.167"/>
				
					<line fill="none" stroke="#FFFFFF" stroke-width="4.252" stroke-linecap="round" stroke-linejoin="round" stroke-miterlimit="10" x1="208.001" y1="210.065" x2="228.667" y2="210.065"/>
			</g>
			<g>
				
					<line fill="none" stroke="#FFFFFF" stroke-width="4.252" stroke-linecap="round" stroke-linejoin="round" stroke-miterlimit="10" x1="498.45" y1="115.499" x2="498.45" y2="133.644"/>
				
					<line fill="none" stroke="#FFFFFF" stroke-width="4.252" stroke-linecap="round" stroke-linejoin="round" stroke-miterlimit="10" x1="498.45" y1="48.257" x2="498.45" y2="66.999"/>
				
					<line fill="none" stroke="#FFFFFF" stroke-width="4.252" stroke-linecap="round" stroke-linejoin="round" stroke-miterlimit="10" x1="474.388" y1="90.95" x2="455.757" y2="90.95"/>
				
					<line fill="none" stroke="#FFFFFF" stroke-width="4.252" stroke-linecap="round" stroke-linejoin="round" stroke-miterlimit="10" x1="541.144" y1="90.95" x2="522.642" y2="90.95"/>
				
					<line fill="none" stroke="#FFFFFF" stroke-width="4.252" stroke-linecap="round" stroke-linejoin="round" stroke-miterlimit="10" x1="515.446" y1="107.946" x2="528.64" y2="121.14"/>
				
					<line fill="none" stroke="#FFFFFF" stroke-width="4.252" stroke-linecap="round" stroke-linejoin="round" stroke-miterlimit="10" x1="468.261" y1="60.761" x2="481.194" y2="73.694"/>
				
					<line fill="none" stroke="#FFFFFF" stroke-width="4.252" stroke-linecap="round" stroke-linejoin="round" stroke-miterlimit="10" x1="481.269" y1="108.132" x2="468.261" y2="121.14"/>
				
					<line fill="none" stroke="#FFFFFF" stroke-width="4.252" stroke-linecap="round" stroke-linejoin="round" stroke-miterlimit="10" x1="528.64" y1="60.761" x2="515.519" y2="73.882"/>
				
					<path fill="none" stroke="#FFFFFF" stroke-width="4.252" stroke-linecap="round" stroke-linejoin="round" stroke-miterlimit="10" d="
					M521.292,90.952c0,12.613-10.227,22.84-22.842,22.84s-22.842-10.227-22.842-22.84c0-12.617,10.227-22.842,22.842-22.842
					S521.292,78.335,521.292,90.952z"/>
				
					<path fill="none" stroke="#FFFFFF" stroke-width="4.252" stroke-linecap="round" stroke-linejoin="round" stroke-miterlimit="10" d="
					M443.251,83.61"/>
			</g>
		</g>
	</g>
</g>
<g id="LINHA_DO_CHÃO">
</g>
</svg>
