<?xml version="1.0" encoding="utf-8"?>
<!-- Generator: Adobe Illustrator 16.0.0, SVG Export Plug-In . SVG Version: 6.00 Build 0)  -->
<!DOCTYPE svg PUBLIC "-//W3C//DTD SVG 1.1//EN" "http://www.w3.org/Graphics/SVG/1.1/DTD/svg11.dtd">
<svg version="1.1" id="Layer_1" xmlns="http://www.w3.org/2000/svg" xmlns:xlink="http://www.w3.org/1999/xlink" x="0px" y="0px"
	 width="378.5px" height="248px" viewBox="0 0 378.5 248" enable-background="new 0 0 378.5 248" xml:space="preserve">
<g>
	<g>
		<defs>
			<filter id="Adobe_OpacityMaskFilter" filterUnits="userSpaceOnUse" x="12.479" y="3.612" width="350.332" height="172.02">
				<feColorMatrix  type="matrix" values="1 0 0 0 0  0 1 0 0 0  0 0 1 0 0  0 0 0 1 0"/>
			</filter>
		</defs>
		<mask maskUnits="userSpaceOnUse" x="12.479" y="3.612" width="350.332" height="172.02" id="SVGID_1_">
			<g filter="url(#Adobe_OpacityMaskFilter)">
				<g>
					<g id="XMLID_10_">
						<g>
							<path fill="#FFFFFF" d="M374.924-5.217V255.51H2.598V-5.217H374.924z M189.003,243.123c0,0,57.459-37.016,54.116-87.521
								c0-28.967-22.764-52.618-51.374-54.042c-0.908-0.047-1.823-0.07-2.742-0.07c-0.935,0-1.862,0.023-2.785,0.07
								c-28.61,1.424-51.374,25.075-51.374,54.042c-3.344,50.506,54.116,87.521,54.116,87.521s0.008-0.004,0.023-0.016
								C188.996,243.119,189.003,243.123,189.003,243.123z M22.123,174.113h75.956c-1.06-12.618-12.453-8.069-12.453-8.069
								c-7.592-12.809-17.573-1.459-17.573-1.459c-12.277-19.251-22.787-0.618-22.787-0.618
								C28.658,153.235,22.123,174.113,22.123,174.113z"/>
							<path fill="#FFFFFF" d="M243.119,155.602c3.344,50.506-54.116,87.521-54.116,87.521s-0.008-0.004-0.02-0.016
								c1.318-0.856,57.397-37.595,54.093-87.506c0-28.951-22.74-52.59-51.331-54.042
								C220.355,102.984,243.119,126.635,243.119,155.602z"/>
							<path d="M243.076,155.602c3.305,49.911-52.774,86.649-54.093,87.506c-1.208-0.782-57.405-37.544-54.096-87.506
								c0-28.951,22.74-52.59,51.331-54.042c0.923-0.047,1.85-0.07,2.785-0.07c0.919,0,1.834,0.023,2.742,0.07
								C220.336,103.011,243.076,126.65,243.076,155.602z M236.282,157.166c0-26.229-21.262-47.49-47.49-47.49
								c-26.232,0-47.494,21.262-47.494,47.49s21.262,47.494,47.494,47.494C215.021,204.66,236.282,183.395,236.282,157.166z"/>
							<path d="M188.792,109.676c26.229,0,47.49,21.262,47.49,47.49s-21.262,47.494-47.49,47.494
								c-26.232,0-47.494-21.266-47.494-47.494S162.56,109.676,188.792,109.676z"/>
							<path fill="#58BC72" d="M188.983,243.107c-0.016,0.012-0.023,0.016-0.023,0.016s-57.459-37.016-54.116-87.521
								c0-28.967,22.764-52.618,51.374-54.042c-28.591,1.451-51.331,25.09-51.331,54.042
								C131.579,205.563,187.775,242.325,188.983,243.107z"/>
							<path d="M98.079,174.113H22.123c0,0,6.536-20.878,23.143-10.146c0,0,10.509-18.633,22.787,0.618
								c0,0,9.981-11.35,17.573,1.459C85.625,166.044,97.019,161.496,98.079,174.113z"/>
						</g>
						<g>
							
								<path fill="none" stroke="#000000" stroke-width="9.0129" stroke-linecap="round" stroke-linejoin="round" stroke-miterlimit="10" d="
								M134.844,155.602c0-28.967,22.764-52.618,51.374-54.042"/>
							
								<path fill="none" stroke="#000000" stroke-width="9.0129" stroke-linecap="round" stroke-linejoin="round" stroke-miterlimit="10" d="
								M188.983,243.107c-0.016,0.012-0.023,0.016-0.023,0.016s-57.459-37.016-54.116-87.521"/>
							
								<path fill="none" stroke="#000000" stroke-width="9.0129" stroke-linecap="round" stroke-linejoin="round" stroke-miterlimit="10" d="
								M134.887,155.602c0-28.951,22.74-52.59,51.331-54.042c0.923-0.047,1.85-0.07,2.785-0.07c0.919,0,1.834,0.023,2.742,0.07
								c28.61,1.424,51.374,25.075,51.374,54.042"/>
							
								<path fill="none" stroke="#000000" stroke-width="9.0129" stroke-linecap="round" stroke-linejoin="round" stroke-miterlimit="10" d="
								M243.119,155.602c3.344,50.506-54.116,87.521-54.116,87.521s-0.008-0.004-0.02-0.016
								c-1.208-0.782-57.405-37.544-54.096-87.506"/>
							
								<path fill="none" stroke="#000000" stroke-width="9.0129" stroke-linecap="round" stroke-linejoin="round" stroke-miterlimit="10" d="
								M236.282,157.166c0,26.229-21.262,47.494-47.49,47.494c-26.232,0-47.494-21.266-47.494-47.494s21.262-47.49,47.494-47.49
								C215.021,109.676,236.282,130.938,236.282,157.166z"/>
							
								<path fill="none" stroke="#000000" stroke-width="9.0129" stroke-linecap="round" stroke-linejoin="round" stroke-miterlimit="10" d="
								M98.079,174.113c-1.06-12.618-12.453-8.069-12.453-8.069c-7.592-12.809-17.573-1.459-17.573-1.459
								c-12.277-19.251-22.787-0.618-22.787-0.618c-16.607-10.732-23.143,10.146-23.143,10.146H98.079z"/>
						</g>
					</g>
				</g>
			</g>
		</mask>
		<g mask="url(#SVGID_1_)">
			<g>
				
					<polyline fill="none" stroke="#FFFFFF" stroke-width="2.2532" stroke-linecap="round" stroke-linejoin="round" stroke-miterlimit="10" points="
					182.179,174.505 182.179,129.587 182.179,94.19 218.138,65 253.326,93.265 253.326,129.587 253.326,174.505 				"/>
				
					<line fill="none" stroke="#FFFFFF" stroke-width="2.2532" stroke-linecap="round" stroke-linejoin="round" stroke-miterlimit="10" x1="253.326" y1="151.851" x2="287.169" y2="151.851"/>
				
					<circle fill="none" stroke="#FFFFFF" stroke-width="2.2532" stroke-linecap="round" stroke-linejoin="round" stroke-miterlimit="10" cx="218.275" cy="91.674" r="7.107"/>
				<g>
					
						<line fill="none" stroke="#FFFFFF" stroke-width="2.2532" stroke-linecap="round" stroke-linejoin="round" stroke-miterlimit="10" x1="355.913" y1="174.505" x2="355.913" y2="121.822"/>
					
						<line fill="none" stroke="#FFFFFF" stroke-width="2.2532" stroke-linecap="round" stroke-linejoin="round" stroke-miterlimit="10" x1="287.621" y1="121.822" x2="287.621" y2="174.505"/>
					
						<path fill="none" stroke="#FFFFFF" stroke-width="2.2532" stroke-linecap="round" stroke-linejoin="round" stroke-miterlimit="10" d="
						M346.65,147.569c0-3.881-3.316-7.026-7.409-7.026h-27.378c-4.092,0-7.408,3.146-7.408,7.026v26.937h42.195V147.569z"/>
					<g>
						
							<polyline fill="none" stroke="#FFFFFF" stroke-width="2.2532" stroke-linecap="round" stroke-linejoin="round" stroke-miterlimit="10" points="
							361.684,116.966 347.191,94.537 295.381,94.537 280.888,116.966 						"/>
						
							<path fill="none" stroke="#FFFFFF" stroke-width="2.2532" stroke-linecap="round" stroke-linejoin="round" stroke-miterlimit="10" d="
							M361.675,116.966c0,2.682-3.015,4.855-6.732,4.855c-3.717,0-6.732-2.174-6.732-4.855c0,2.682-3.014,4.855-6.732,4.855
							c-3.717,0-6.732-2.174-6.732-4.855c0,2.682-3.014,4.855-6.731,4.855s-6.733-2.174-6.733-4.855c0,2.682-3.014,4.855-6.73,4.855
							c-3.719,0-6.733-2.174-6.733-4.855c0,2.682-3.015,4.855-6.731,4.855c-3.719,0-6.733-2.174-6.733-4.855
							c0,2.682-3.014,4.855-6.731,4.855c-3.719,0-6.732-2.174-6.732-4.855"/>
						
							<line fill="none" stroke="#FFFFFF" stroke-width="2.2532" stroke-linecap="round" stroke-linejoin="round" stroke-miterlimit="10" x1="321.281" y1="116.966" x2="321.281" y2="94.537"/>
						
							<line fill="none" stroke="#FFFFFF" stroke-width="2.2532" stroke-linecap="round" stroke-linejoin="round" stroke-miterlimit="10" x1="307.817" y1="116.966" x2="313.511" y2="94.537"/>
						
							<line fill="none" stroke="#FFFFFF" stroke-width="2.2532" stroke-linecap="round" stroke-linejoin="round" stroke-miterlimit="10" x1="294.352" y1="116.966" x2="304.455" y2="94.537"/>
						
							<line fill="none" stroke="#FFFFFF" stroke-width="2.2532" stroke-linecap="round" stroke-linejoin="round" stroke-miterlimit="10" x1="334.808" y1="116.987" x2="329.115" y2="94.558"/>
						
							<line fill="none" stroke="#FFFFFF" stroke-width="2.2532" stroke-linecap="round" stroke-linejoin="round" stroke-miterlimit="10" x1="348.272" y1="116.987" x2="338.171" y2="94.558"/>
					</g>
				</g>
				<g>
					<g>
						
							<path fill="none" stroke="#FFFFFF" stroke-width="2.2532" stroke-linecap="round" stroke-linejoin="round" stroke-miterlimit="10" d="
							M153.907,174.505V10.754c0-3.322-2.694-6.016-6.017-6.016H78.746c-3.322,0-6.016,2.693-6.016,6.016v163.751"/>
						
							<path fill="none" stroke="#FFFFFF" stroke-width="2.2532" stroke-linecap="round" stroke-linejoin="round" stroke-miterlimit="10" d="
							M100.348,25.88c0,0.973-0.788,1.761-1.761,1.761H83.05c-0.973,0-1.762-0.788-1.762-1.761V14.65
							c0-0.972,0.789-1.762,1.762-1.762h15.537c0.973,0,1.761,0.79,1.761,1.762V25.88z"/>
						
							<path fill="none" stroke="#FFFFFF" stroke-width="2.2532" stroke-linecap="round" stroke-linejoin="round" stroke-miterlimit="10" d="
							M100.348,49.166c0,0.973-0.788,1.762-1.761,1.762H83.05c-0.973,0-1.762-0.789-1.762-1.762v-11.23
							c0-0.972,0.789-1.76,1.762-1.76h15.537c0.973,0,1.761,0.788,1.761,1.76V49.166z"/>
						
							<path fill="none" stroke="#FFFFFF" stroke-width="2.2532" stroke-linecap="round" stroke-linejoin="round" stroke-miterlimit="10" d="
							M100.348,72.452c0,0.972-0.788,1.76-1.761,1.76H83.05c-0.973,0-1.762-0.788-1.762-1.76V61.22c0-0.972,0.789-1.761,1.762-1.761
							h15.537c0.973,0,1.761,0.789,1.761,1.761V72.452z"/>
						
							<path fill="none" stroke="#FFFFFF" stroke-width="2.2532" stroke-linecap="round" stroke-linejoin="round" stroke-miterlimit="10" d="
							M100.348,95.736c0,0.972-0.788,1.76-1.761,1.76H83.05c-0.973,0-1.762-0.788-1.762-1.76v-11.23
							c0-0.973,0.789-1.761,1.762-1.761h15.537c0.973,0,1.761,0.788,1.761,1.761V95.736z"/>
						
							<path fill="none" stroke="#FFFFFF" stroke-width="2.2532" stroke-linecap="round" stroke-linejoin="round" stroke-miterlimit="10" d="
							M100.348,119.021c0,0.971-0.788,1.762-1.761,1.762H83.05c-0.973,0-1.762-0.791-1.762-1.762v-11.23
							c0-0.973,0.789-1.762,1.762-1.762h15.537c0.973,0,1.761,0.789,1.761,1.762V119.021z"/>
					</g>
				</g>
				<g>
					
						<path fill="none" stroke="#FFFFFF" stroke-width="2.2532" stroke-linecap="round" stroke-linejoin="round" stroke-miterlimit="10" d="
						M38.747,170.312v-21.458c0,0-56.567-5.014,0-75.521"/>
					
						<path fill="none" stroke="#FFFFFF" stroke-width="2.2532" stroke-linecap="round" stroke-linejoin="round" stroke-miterlimit="10" d="
						M38.747,148.854c0,0,56.566-5.014,0-75.521"/>
				</g>
			</g>
			
				<line fill="none" stroke="#FFFFFF" stroke-width="2.2532" stroke-linecap="round" stroke-linejoin="round" stroke-miterlimit="10" x1="276.113" y1="143.982" x2="276.113" y2="174.505"/>
			
				<line fill="none" stroke="#FFFFFF" stroke-width="2.2532" stroke-linecap="round" stroke-linejoin="round" stroke-miterlimit="10" x1="264.384" y1="143.982" x2="264.384" y2="174.505"/>
		</g>
		<g>
			<defs>
				<filter id="Adobe_OpacityMaskFilter_1_" filterUnits="userSpaceOnUse" x="156.23" y="135.494" width="64.571" height="38.214">
					<feColorMatrix  type="matrix" values="1 0 0 0 0  0 1 0 0 0  0 0 1 0 0  0 0 0 1 0"/>
				</filter>
			</defs>
			<mask maskUnits="userSpaceOnUse" x="156.23" y="135.494" width="64.571" height="38.214" id="SVGID_2_">
				<g filter="url(#Adobe_OpacityMaskFilter_1_)">
					<g>
						<g id="XMLID_9_">
							<g>
								<path fill="#FFFFFF" d="M269.229,107.318v104.66H87.994v-104.66H269.229z M221.16,174.497v-21.641l-27.075,21.641H221.16z"
									/>
								<polygon points="221.16,152.856 221.16,174.497 194.085,174.497 								"/>
							</g>
							<g>
								
									<rect x="87.994" y="107.318" fill="none" stroke="#FFFFFF" stroke-width="6.0086" stroke-linecap="round" stroke-linejoin="round" stroke-miterlimit="10" width="181.235" height="104.66"/>
							</g>
						</g>
					</g>
				</g>
			</mask>
			<g mask="url(#SVGID_2_)">
				
					<circle fill="none" stroke="#FFFFFF" stroke-width="2.2532" stroke-linecap="round" stroke-linejoin="round" stroke-miterlimit="10" cx="168.725" cy="161.213" r="11.368"/>
				
					<circle fill="none" stroke="#FFFFFF" stroke-width="2.2532" stroke-linecap="round" stroke-linejoin="round" stroke-miterlimit="10" cx="208.307" cy="161.213" r="11.368"/>
				
					<circle fill="none" stroke="#FFFFFF" stroke-width="2.2532" stroke-linecap="round" stroke-linejoin="round" stroke-miterlimit="10" cx="168.725" cy="161.213" r="2.433"/>
				
					<circle fill="none" stroke="#FFFFFF" stroke-width="2.2532" stroke-linecap="round" stroke-linejoin="round" stroke-miterlimit="10" cx="188.05" cy="161.213" r="3.715"/>
				
					<circle fill="none" stroke="#FFFFFF" stroke-width="2.2532" stroke-linecap="round" stroke-linejoin="round" stroke-miterlimit="10" cx="208.308" cy="161.088" r="2.433"/>
				
					<line fill="none" stroke="#FFFFFF" stroke-width="2.2532" stroke-linecap="round" stroke-linejoin="round" stroke-miterlimit="10" x1="168.724" y1="158.781" x2="188.049" y2="157.499"/>
				
					<line fill="none" stroke="#FFFFFF" stroke-width="2.2532" stroke-linecap="round" stroke-linejoin="round" stroke-miterlimit="10" x1="168.724" y1="163.646" x2="188.049" y2="164.929"/>
				
					<line fill="none" stroke="#FFFFFF" stroke-width="2.2532" stroke-linecap="round" stroke-linejoin="round" stroke-miterlimit="10" x1="166.522" y1="160.183" x2="176.821" y2="143.753"/>
				
					<polyline fill="none" stroke="#FFFFFF" stroke-width="2.2532" stroke-linecap="round" stroke-linejoin="round" stroke-miterlimit="10" points="
					207.54,158.78 199.138,136.621 193.956,136.621 				"/>
				
					<line fill="none" stroke="#FFFFFF" stroke-width="2.2532" stroke-linecap="round" stroke-linejoin="round" stroke-miterlimit="10" x1="186.382" y1="157.894" x2="175.099" y2="141.207"/>
				
					<line fill="none" stroke="#FFFFFF" stroke-width="2.2532" stroke-linecap="round" stroke-linejoin="round" stroke-miterlimit="10" x1="190.104" y1="158.118" x2="201.889" y2="145.259"/>
				
					<path fill="none" stroke="#FFFFFF" stroke-width="2.2532" stroke-linecap="round" stroke-linejoin="round" stroke-miterlimit="10" d="
					M180.062,139.591c0,0.893-0.724,1.615-1.617,1.615h-5.872c-0.892,0-1.616-0.723-1.616-1.615l0,0
					c0-0.894,0.724-1.616,1.616-1.616h5.872C179.338,137.975,180.062,138.698,180.062,139.591L180.062,139.591z"/>
				
					<line fill="none" stroke="#FFFFFF" stroke-width="2.2532" stroke-linecap="round" stroke-linejoin="round" stroke-miterlimit="10" x1="188.049" y1="161.213" x2="191.849" y2="168.373"/>
				
					<line fill="none" stroke="#FFFFFF" stroke-width="2.2532" stroke-linecap="round" stroke-linejoin="round" stroke-miterlimit="10" x1="189.636" y1="168.859" x2="194.353" y2="168.859"/>
				
					<line fill="none" stroke="#FFFFFF" stroke-width="2.2532" stroke-linecap="round" stroke-linejoin="round" stroke-miterlimit="10" x1="200.748" y1="140.865" x2="193.4" y2="148.953"/>
				
					<path fill="none" stroke="#FFFFFF" stroke-width="2.2532" stroke-linecap="round" stroke-linejoin="round" stroke-miterlimit="10" d="
					M176.821,143.753c0,0,8.147,13.841,16.579,5.199"/>
				
					<path fill="none" stroke="#FFFFFF" stroke-width="2.2532" stroke-linecap="round" stroke-linejoin="round" stroke-miterlimit="10" d="
					M211.229,153.488c0,0,4.228,0.68,5.401,5.997"/>
				
					<path fill="none" stroke="#FFFFFF" stroke-width="2.2532" stroke-linecap="round" stroke-linejoin="round" stroke-miterlimit="10" d="
					M166.521,168.939c0,0-4.227-0.68-5.401-5.998"/>
			</g>
			<g>
				<g id="XMLID_2_">
					<g>
					</g>
					<g>
						
							<polygon fill="none" stroke="#FFFFFF" stroke-width="2.2532" stroke-linecap="round" stroke-linejoin="round" stroke-miterlimit="10" points="
							197.632,174.114 224.707,174.114 224.707,153.465 						"/>
					</g>
				</g>
			</g>
		</g>
		<defs>
			<filter id="Adobe_OpacityMaskFilter_2_" filterUnits="userSpaceOnUse" x="4.54" y="173.515" width="370.817" height="2.253">
				<feColorMatrix  type="matrix" values="1 0 0 0 0  0 1 0 0 0  0 0 1 0 0  0 0 0 1 0"/>
			</filter>
		</defs>
		<mask maskUnits="userSpaceOnUse" x="4.54" y="173.515" width="370.817" height="2.253" id="SVGID_3_">
			<g filter="url(#Adobe_OpacityMaskFilter_2_)">
				<g>
					<g id="XMLID_5_">
						<g>
							<path fill="#FFFFFF" d="M491.265,43.503v273.219H-51.379V43.503H491.265z M188.829,243.258c0,0,57.46-37.016,54.116-87.521
								c0-29.886-24.23-54.112-54.116-54.112s-54.116,24.226-54.116,54.112C131.369,206.242,188.829,243.258,188.829,243.258z"/>
							<path d="M242.945,155.736c3.344,50.506-54.116,87.521-54.116,87.521s-57.46-37.016-54.116-87.521
								c0-29.886,24.23-54.112,54.116-54.112S242.945,125.851,242.945,155.736z M236.108,157.301c0-26.229-21.262-47.49-47.49-47.49
								c-26.233,0-47.494,21.262-47.494,47.49s21.261,47.494,47.494,47.494C214.847,204.795,236.108,183.529,236.108,157.301z"/>
							<path fill="#FFFFFF" d="M188.618,109.811c26.229,0,47.49,21.262,47.49,47.49s-21.262,47.494-47.49,47.494
								c-26.233,0-47.494-21.266-47.494-47.494S162.385,109.811,188.618,109.811z"/>
						</g>
						<g>
							
								<path fill="none" stroke="#000000" stroke-width="9.0129" stroke-linecap="round" stroke-linejoin="round" stroke-miterlimit="10" d="
								M134.713,155.736c0-29.886,24.23-54.112,54.116-54.112s54.116,24.226,54.116,54.112"/>
							
								<path fill="none" stroke="#000000" stroke-width="9.0129" stroke-linecap="round" stroke-linejoin="round" stroke-miterlimit="10" d="
								M242.945,155.736c3.344,50.506-54.116,87.521-54.116,87.521s-57.46-37.016-54.116-87.521"/>
							
								<path fill="none" stroke="#000000" stroke-width="9.0129" stroke-linecap="round" stroke-linejoin="round" stroke-miterlimit="10" d="
								M236.108,157.301c0,26.229-21.262,47.494-47.49,47.494c-26.233,0-47.494-21.266-47.494-47.494s21.261-47.49,47.494-47.49
								C214.847,109.811,236.108,131.072,236.108,157.301z"/>
							
								<rect x="-51.379" y="43.503" fill="none" stroke="#000000" stroke-width="9.0129" stroke-linecap="round" stroke-linejoin="round" stroke-miterlimit="10" width="542.645" height="273.219"/>
						</g>
					</g>
				</g>
			</g>
		</mask>
		
			<line mask="url(#SVGID_3_)" fill="none" stroke="#FFFFFF" stroke-width="2.2532" stroke-linecap="round" stroke-linejoin="round" stroke-miterlimit="10" x1="374.23" y1="174.641" x2="5.666" y2="174.641"/>
		
			<path fill="none" stroke="#FFFFFF" stroke-width="2.2532" stroke-linecap="round" stroke-linejoin="round" stroke-miterlimit="10" d="
			M98.758,174.111c-1.061-12.619-12.454-8.068-12.454-8.068c-7.595-12.812-17.575-1.462-17.575-1.462
			c-12.276-19.251-22.787-0.617-22.787-0.617c-16.605-10.732-23.14,10.147-23.14,10.147H98.758z"/>
		<g>
			
				<path fill="none" stroke="#FFFFFF" stroke-width="2.2532" stroke-linecap="round" stroke-linejoin="round" stroke-miterlimit="10" d="
				M168.537,62.146c0-2.967,2.406-5.373,5.374-5.373s5.373,2.406,5.373,5.373"/>
			
				<path fill="none" stroke="#FFFFFF" stroke-width="2.2532" stroke-linecap="round" stroke-linejoin="round" stroke-miterlimit="10" d="
				M179.284,62.146c0-2.967,2.406-5.373,5.374-5.373c2.968,0,5.373,2.406,5.373,5.373"/>
		</g>
		<g>
			
				<path fill="none" stroke="#FFFFFF" stroke-width="2.2532" stroke-linecap="round" stroke-linejoin="round" stroke-miterlimit="10" d="
				M200.29,20.265c0-2.968,2.405-5.373,5.373-5.373c2.968,0,5.374,2.405,5.374,5.373"/>
			
				<path fill="none" stroke="#FFFFFF" stroke-width="2.2532" stroke-linecap="round" stroke-linejoin="round" stroke-miterlimit="10" d="
				M211.037,20.265c0-2.968,2.405-5.373,5.373-5.373c2.967,0,5.373,2.405,5.373,5.373"/>
		</g>
		<g>
			
				<path fill="none" stroke="#FFFFFF" stroke-width="2.2532" stroke-linecap="round" stroke-linejoin="round" stroke-miterlimit="10" d="
				M298.121,76.02c0-2.968,2.405-5.372,5.373-5.372c2.967,0,5.373,2.404,5.373,5.372"/>
			
				<path fill="none" stroke="#FFFFFF" stroke-width="2.2532" stroke-linecap="round" stroke-linejoin="round" stroke-miterlimit="10" d="
				M308.867,76.02c0-2.968,2.406-5.372,5.373-5.372s5.373,2.404,5.373,5.372"/>
		</g>
		<g>
			
				<line fill="none" stroke="#FFFFFF" stroke-width="2.2532" stroke-linecap="round" stroke-linejoin="round" stroke-miterlimit="10" x1="119.457" y1="174.193" x2="119.457" y2="111.402"/>
			
				<circle fill="none" stroke="#FFFFFF" stroke-width="2.2532" stroke-linecap="round" stroke-linejoin="round" stroke-miterlimit="10" cx="119.456" cy="105.483" r="5.918"/>
			
				<line fill="none" stroke="#FFFFFF" stroke-width="2.2532" stroke-linecap="round" stroke-linejoin="round" stroke-miterlimit="10" x1="114.012" y1="114.05" x2="124.963" y2="114.05"/>
		</g>
		<g>
			
				<line fill="none" stroke="#FFFFFF" stroke-width="2.2532" stroke-linecap="round" stroke-linejoin="round" stroke-miterlimit="10" x1="267.928" y1="63.935" x2="267.928" y2="73.55"/>
			
				<line fill="none" stroke="#FFFFFF" stroke-width="2.2532" stroke-linecap="round" stroke-linejoin="round" stroke-miterlimit="10" x1="267.928" y1="28.302" x2="267.928" y2="38.235"/>
			
				<line fill="none" stroke="#FFFFFF" stroke-width="2.2532" stroke-linecap="round" stroke-linejoin="round" stroke-miterlimit="10" x1="255.177" y1="50.927" x2="245.304" y2="50.927"/>
			
				<line fill="none" stroke="#FFFFFF" stroke-width="2.2532" stroke-linecap="round" stroke-linejoin="round" stroke-miterlimit="10" x1="290.552" y1="50.927" x2="280.748" y2="50.927"/>
			
				<line fill="none" stroke="#FFFFFF" stroke-width="2.2532" stroke-linecap="round" stroke-linejoin="round" stroke-miterlimit="10" x1="276.935" y1="59.934" x2="283.927" y2="66.925"/>
			
				<line fill="none" stroke="#FFFFFF" stroke-width="2.2532" stroke-linecap="round" stroke-linejoin="round" stroke-miterlimit="10" x1="251.93" y1="34.929" x2="258.784" y2="41.783"/>
			
				<line fill="none" stroke="#FFFFFF" stroke-width="2.2532" stroke-linecap="round" stroke-linejoin="round" stroke-miterlimit="10" x1="258.824" y1="60.033" x2="251.93" y2="66.925"/>
			
				<line fill="none" stroke="#FFFFFF" stroke-width="2.2532" stroke-linecap="round" stroke-linejoin="round" stroke-miterlimit="10" x1="283.927" y1="34.929" x2="276.973" y2="41.882"/>
			
				<circle fill="none" stroke="#FFFFFF" stroke-width="2.2532" stroke-linecap="round" stroke-linejoin="round" stroke-miterlimit="10" cx="267.928" cy="50.928" r="12.104"/>
			
				<path fill="none" stroke="#FFFFFF" stroke-width="2.2532" stroke-linecap="round" stroke-linejoin="round" stroke-miterlimit="10" d="
				M238.677,47.039"/>
		</g>
	</g>
</g>
<g>
	<g>
		<g id="XMLID_4_">
			<g>
				<path fill="#FFFFFF" d="M146.916,117.063c23.582-23.605,61.856-23.605,85.438,0c23.594,23.594,23.594,61.845,0,85.45
					l-42.708,42.719l-42.73-42.719C123.321,178.908,123.321,140.657,146.916,117.063z M220.718,190.406
					c17.655-17.621,17.655-46.234,0-63.867c-17.632-17.632-46.234-17.632-63.878,0c-17.621,17.632-17.621,46.246,0,63.867
					C174.483,208.073,203.085,208.073,220.718,190.406z"/>
			</g>
			<g>
			</g>
		</g>
	</g>
</g>
</svg>
