<?xml version="1.0" encoding="utf-8"?>
<!-- Generator: Adobe Illustrator 16.0.0, SVG Export Plug-In . SVG Version: 6.00 Build 0)  -->
<!DOCTYPE svg PUBLIC "-//W3C//DTD SVG 1.1//EN" "http://www.w3.org/Graphics/SVG/1.1/DTD/svg11.dtd">
<svg version="1.1" id="Layer_1" xmlns="http://www.w3.org/2000/svg" xmlns:xlink="http://www.w3.org/1999/xlink" x="0px" y="0px"
	 width="223.438px" height="233.975px" viewBox="0 0 223.438 233.975" enable-background="new 0 0 223.438 233.975"
	 xml:space="preserve">
<g>
	<rect fill="#47B970" width="223.438" height="233.975"/>
	<g>
		<circle fill="#FFFFFF" cx="106.695" cy="121.178" r="8.738"/>
		
			<path fill="none" stroke="#FFFFFF" stroke-width="5.6693" stroke-linecap="round" stroke-linejoin="round" stroke-miterlimit="10" stroke-dasharray="113.3858,9.9213" d="
			M81.724,97.848c12.128,16.68,8.439,40.033-8.242,52.162c-16.678,12.125-40.031,8.432-52.159-8.248
			c-12.125-16.678-8.436-40.029,8.243-52.156C46.246,77.477,69.598,81.168,81.724,97.848z"/>
		
			<circle fill="none" stroke="#FFFFFF" stroke-width="5.6693" stroke-linecap="round" stroke-linejoin="round" stroke-miterlimit="10" stroke-dasharray="113.3858,9.9213" cx="168.94" cy="119.808" r="37.34"/>
		
			<line fill="none" stroke="#FFFFFF" stroke-width="5.6693" stroke-linecap="round" stroke-linejoin="round" stroke-miterlimit="10" x1="144.262" y1="72.31" x2="81.752" y2="72.31"/>
		
			<path fill="none" stroke="#FFFFFF" stroke-width="5.6693" stroke-linecap="round" stroke-linejoin="round" stroke-miterlimit="10" d="
			M77.386,60.844"/>
		
			<path fill="none" stroke="#FFFFFF" stroke-width="5.6693" stroke-linecap="round" stroke-linejoin="round" stroke-miterlimit="10" d="
			M81.752,72.31"/>
		
			<line fill="none" stroke="#FFFFFF" stroke-width="5.6693" stroke-linecap="round" stroke-linejoin="round" stroke-miterlimit="10" x1="138.55" y1="59.166" x2="168.938" y2="120.521"/>
		
			<line fill="none" stroke="#FFFFFF" stroke-width="5.6693" stroke-linecap="round" stroke-linejoin="round" stroke-miterlimit="10" x1="138.55" y1="59.166" x2="154.83" y2="59.166"/>
		
			<polyline fill="none" stroke="#FFFFFF" stroke-width="5.6693" stroke-linecap="round" stroke-linejoin="round" stroke-miterlimit="10" points="
			145.687,73.575 106.695,120.521 81.752,72.31 51.525,120.521 106.695,120.521 		"/>
		<polygon stroke="#FFFFFF" stroke-width="5.6693" stroke-linecap="round" stroke-linejoin="round" stroke-miterlimit="10" points="
			69.223,60.266 91.656,60.266 77.832,65.42 		"/>
		
			<path fill="none" stroke="#FFFFFF" stroke-width="5.6693" stroke-linecap="round" stroke-linejoin="round" stroke-miterlimit="10" d="
			M51.525,120.521"/>
		
			<line fill="none" stroke="#FFFFFF" stroke-width="5.6693" stroke-linecap="round" stroke-linejoin="round" stroke-miterlimit="10" x1="106.695" y1="120.521" x2="77.386" y2="63.603"/>
	</g>
</g>
</svg>
