
<svg xmlns="http://www.w3.org/2000/svg" xmlns:xlink="http://www.w3.org/1999/xlink" version="1.1" x="0px" y="0px" viewBox="10.447 2.25 90 90" enable-background="new 10.447 2.25 90 90" xml:space="preserve">
	<g>
	<g>
		<path fill="#fff" d="M97.271,13.929h-4.23v-3.151h-2.164v3.151h-4.461c-0.934,0-1.695,0.76-1.695,1.697v14.143    c0,0.936,0.762,1.698,1.695,1.698h4.461v35.708h2.164V31.467h4.23c0.937,0,1.698-0.763,1.698-1.698V15.626    C98.969,14.688,98.208,13.929,97.271,13.929z M98.543,29.769c0,0.703-0.567,1.272-1.272,1.272H86.416    c-0.703,0-1.271-0.569-1.271-1.272V15.626c0-0.703,0.568-1.272,1.271-1.272h10.855c0.705,0,1.272,0.57,1.272,1.272V29.769z"/>
		<path fill="#fff" d="M97.271,14.775H86.416c-0.466,0-0.847,0.38-0.847,0.851v14.143c0,0.467,0.381,0.848,0.847,0.848h10.855    c0.467,0,0.848-0.38,0.848-0.848V15.626C98.12,15.156,97.739,14.775,97.271,14.775z M95.279,27.139h-6.868v-9.047h6.767v1.673    h-4.778v1.937h4.385v1.547h-4.385v2.218h4.88V27.139z"/>
		<path fill="#fff" d="M89.659,57.154c0-1.128-0.456-1.765-0.839-2.099c-0.495-0.433-1.167-0.651-1.993-0.651c-0.842,0-1.841,0.246-2.839,0.677    c-0.114-0.377-0.236-0.745-0.374-1.091c-0.992-2.489-2.511-3.917-4.28-4.015c-0.47-0.029-0.93,0.042-1.375,0.2    c-0.051-0.449-0.264-0.93-0.646-1.264v-0.405c0-0.005,0-0.01,0-0.016v-2.262l5.42,0.035c0.002,0,0.004,0,0.006,0    c0.567,0,1.026-0.456,1.03-1.023c0.003-0.569-0.455-1.031-1.024-1.036l-12.464-0.079c-0.003,0-0.004,0-0.007,0    c-0.565,0-1.025,0.456-1.03,1.022c-0.003,0.569,0.456,1.032,1.023,1.035l4.988,0.032v1.467l-8.47,1.87V49.01l2.77-0.616    l0.097-0.265c0.117-0.314,0.285-0.9,0.092-1.303c-0.085-0.177-0.231-0.307-0.412-0.365c-0.105-0.037-0.299-0.076-0.863-0.076    c-0.646,0-2.61,0.061-6.853,0.62l-0.447,0.059v1.803l3.558,0.207v2.446c-0.443,0-0.838,0.285-0.977,0.708l-0.137,0.41    c-0.554-0.26-1.14-0.426-1.754-0.486c-4.824-0.458-9.203,5.742-10.012,14.07c-0.059,0.601-0.094,1.192-0.113,1.776h-0.836V57.154    c0-1.129-0.457-1.765-0.84-2.1c-0.494-0.433-1.165-0.651-1.994-0.651c-0.816,0-1.778,0.231-2.746,0.639    c-0.111-0.363-0.229-0.718-0.361-1.052c-0.993-2.49-2.512-3.917-4.283-4.015c-0.469-0.029-0.928,0.042-1.374,0.2    c-0.052-0.45-0.263-0.93-0.645-1.264v-2.683l5.417,0.035c0.004,0,0.006,0,0.008,0c0.565,0,1.026-0.456,1.028-1.023    c0.004-0.569-0.454-1.031-1.022-1.036l-12.465-0.079c-0.002,0-0.004,0-0.006,0c-0.565,0-1.026,0.456-1.03,1.022    c-0.003,0.569,0.456,1.032,1.024,1.035l4.986,0.032v1.468l-8.47,1.87v-0.544l2.769-0.615l0.098-0.266    c0.116-0.313,0.283-0.9,0.091-1.302c-0.085-0.177-0.231-0.307-0.412-0.365c-0.105-0.036-0.299-0.076-0.862-0.076    c-0.647,0-2.611,0.06-6.853,0.62l-0.449,0.059v1.803l3.558,0.207v2.446c-0.443,0-0.836,0.285-0.976,0.708l-0.136,0.41    c-0.554-0.259-1.14-0.425-1.754-0.485c-4.823-0.458-9.203,5.742-10.012,14.07c-0.812,8.355,2.313,15.267,7.116,15.733    c0.168,0.017,0.338,0.025,0.505,0.025c2.955,0,5.685-2.459,7.479-6.32h24.469c1.219,3.604,3.431,6.026,6.204,6.295    c0.17,0.017,0.338,0.025,0.504,0.025c2.955,0,5.685-2.459,7.48-6.32h13.658l4.805-2.402h-5.208v-0.234    c0.872-0.553,1.667-1.452,2.34-2.623h7.641l4.805-2.404h-5.331L89.659,57.154L89.659,57.154z M46.064,62.159    c0.12-2.085-0.035-4.102-0.427-5.888c0.839-0.379,1.689-0.604,2.427-0.604c0.354,0,0.842,0.059,1.165,0.338    c0.269,0.236,0.405,0.623,0.405,1.149v10.844h-4.672C45.549,66.307,45.94,64.321,46.064,62.159z M44.008,62.04    c-0.215,3.75-1.308,6.74-2.566,8.321v-7.707c0.003,0,0.005-0.001,0.008-0.002c0.028-0.005,0.058-0.009,0.086-0.017    c0.015-0.004,0.027-0.011,0.041-0.016c0.03-0.009,0.058-0.021,0.086-0.032c0.029-0.012,0.059-0.022,0.085-0.037    c0.051-0.026,0.1-0.057,0.146-0.091c0.016-0.012,0.03-0.026,0.045-0.04c0.033-0.028,0.065-0.057,0.094-0.089    c0.013-0.015,0.024-0.03,0.037-0.045c0.027-0.034,0.053-0.069,0.076-0.106c0.01-0.017,0.02-0.034,0.029-0.052    c0.02-0.036,0.037-0.074,0.052-0.112c0.008-0.022,0.017-0.044,0.024-0.067c0.004-0.012,0.01-0.022,0.013-0.034    c0.005-0.019,0.005-0.039,0.009-0.058c0.009-0.039,0.016-0.077,0.02-0.115c0.003-0.03,0.004-0.061,0.004-0.09    c0-0.037,0-0.074-0.004-0.111c-0.003-0.032-0.009-0.064-0.015-0.097c-0.005-0.022-0.005-0.045-0.011-0.068L41.8,59.606    c0.404-0.792,1.116-1.565,1.964-2.213C44.014,58.821,44.103,60.402,44.008,62.04z M40.478,52.027l0.079,0.002    c0.911,0.052,1.817,1.044,2.486,2.723c0.161,0.403,0.298,0.84,0.421,1.293c-0.801,0.538-1.534,1.184-2.104,1.901l-1.53-5.77    C40.049,52.08,40.266,52.027,40.478,52.027z M25.963,56.136c0.05,0.067,0.098,0.136,0.147,0.206L22.981,66.49l-0.41-0.122    L25.963,56.136z M20.503,79.908c-3.531-0.344-5.943-6.52-5.266-13.486c0.655-6.745,4-12.233,7.457-12.233    c0.101,0,0.205,0.003,0.306,0.013c0.453,0.044,0.887,0.186,1.299,0.411l-4.017,12.119c-0.001,0.003-0.001,0.006-0.002,0.009    c-0.002,0.007-0.007,0.014-0.009,0.021c-0.011,0.04-0.016,0.079-0.022,0.119c-0.004,0.022-0.01,0.043-0.013,0.065    c-0.004,0.044-0.003,0.089-0.002,0.133c0.001,0.023-0.001,0.047,0.001,0.07c0.004,0.042,0.013,0.082,0.021,0.123    c0.006,0.024,0.009,0.05,0.016,0.074c0.011,0.038,0.027,0.073,0.042,0.109c0.011,0.026,0.019,0.051,0.032,0.075    c0.017,0.032,0.038,0.062,0.058,0.092c0.017,0.025,0.032,0.051,0.05,0.075c0.021,0.026,0.046,0.049,0.069,0.073    c0.023,0.024,0.045,0.049,0.07,0.07c0.024,0.02,0.05,0.037,0.076,0.054c0.03,0.021,0.06,0.044,0.093,0.063    c0.023,0.013,0.049,0.022,0.074,0.033c0.033,0.015,0.064,0.033,0.099,0.044c0.008,0.002,0.015,0.002,0.023,0.005    c0.003,0.001,0.006,0.003,0.01,0.004l2.387,0.703c0.002,0.001,0.004,0.002,0.007,0.003c0.034,0.011,0.068,0.016,0.103,0.022    c0.011,0.003,0.021,0.006,0.031,0.007c0.007,0.001,0.015,0.003,0.022,0.004c0.046,0.006,0.092,0.009,0.138,0.009    c0.002,0,0.005,0,0.008,0c0,0,0.001,0,0.001,0s0,0,0.001,0c0.001,0,0.002,0,0.003,0c0.05,0,0.099-0.004,0.149-0.011    c0.003-0.001,0.007-0.001,0.011-0.001c0.003,0,0.006-0.001,0.01-0.002c0.016-0.002,0.032-0.004,0.048-0.008l4.368-0.963    C27.553,74.696,24.055,80.248,20.503,79.908z M25.169,66.379l2.258-7.321c0.636,1.875,0.985,4.159,0.952,6.613L25.169,66.379z     M29.184,51.94c-0.143-0.193-0.346-0.326-0.573-0.385l7.357-1.624c0.001,0.153,0.02,0.297,0.047,0.424l-4.524,12.531l-2.702-8.245    l0.55-1.786C29.436,52.542,29.377,52.203,29.184,51.94z M29.224,73.259c0.527-1.641,0.905-3.449,1.092-5.373    c0.018-0.183,0.031-0.363,0.045-0.544l1.304-0.288c0.023-0.005,0.045-0.013,0.068-0.019c0.011-0.003,0.021-0.004,0.031-0.008    c0.003-0.001,0.005-0.002,0.008-0.003c0.059-0.02,0.114-0.044,0.167-0.074c0.011-0.006,0.022-0.014,0.033-0.02    c0.048-0.029,0.094-0.061,0.136-0.097c0.004-0.003,0.009-0.005,0.013-0.009c0.042-0.038,0.081-0.079,0.117-0.124    c0.011-0.013,0.021-0.027,0.031-0.04c0.033-0.044,0.063-0.089,0.087-0.138c0.005-0.01,0.009-0.021,0.014-0.031    c0.015-0.03,0.029-0.062,0.041-0.093l1.486-4.117c-0.063,2.485,0.245,4.736,0.843,6.568l-3.107,1.554h3.731    c0.667,1.354,1.533,2.345,2.544,2.856H29.224z M35.987,61.581c0.135-2.349,0.614-4.4,1.263-5.994l1.247,5.351    c-0.114,0.528,0.2,1.06,0.73,1.207l0.952,0.263v9.03c-0.225,0.102-0.447,0.157-0.664,0.157l-0.078-0.001    C37.541,71.484,35.658,67.344,35.987,61.581z M41.442,73.259v-0.171c0.912-0.547,1.743-1.47,2.442-2.685h7.886    c0.063,0.994,0.183,1.95,0.359,2.856H41.442L41.442,73.259z M64.624,56.136c0.049,0.067,0.098,0.135,0.146,0.205L61.64,66.49    l-0.41-0.122L64.624,56.136z M59.161,79.908c-3.531-0.344-5.943-6.52-5.265-13.486c0.656-6.745,4-12.233,7.456-12.233    c0.102,0,0.205,0.003,0.308,0.013c0.453,0.044,0.887,0.186,1.299,0.411L58.94,66.731c-0.001,0.006-0.002,0.011-0.004,0.017    c-0.001,0.005-0.004,0.009-0.006,0.014c-0.008,0.026-0.009,0.053-0.015,0.08c-0.008,0.038-0.017,0.074-0.021,0.112    c-0.003,0.03-0.001,0.058-0.001,0.087c0,0.039-0.003,0.077,0.001,0.115c0.003,0.029,0.009,0.056,0.015,0.084    c0.007,0.038,0.013,0.075,0.024,0.111c0.007,0.027,0.02,0.053,0.03,0.079c0.014,0.035,0.027,0.07,0.044,0.103    c0.013,0.025,0.03,0.048,0.045,0.072c0.02,0.032,0.039,0.063,0.063,0.093c0.018,0.022,0.04,0.041,0.059,0.063    c0.026,0.027,0.051,0.055,0.08,0.08c0.021,0.018,0.045,0.033,0.068,0.049c0.033,0.023,0.064,0.047,0.099,0.066    c0.022,0.012,0.046,0.021,0.07,0.031c0.033,0.016,0.065,0.034,0.101,0.045c0.008,0.003,0.016,0.003,0.023,0.006    c0.004,0.001,0.006,0.003,0.01,0.004l2.386,0.704c0.003,0,0.005,0.002,0.007,0.002c0.036,0.012,0.071,0.018,0.107,0.024    c0.009,0.003,0.018,0.005,0.027,0.006c0.008,0.001,0.016,0.003,0.023,0.004c0.048,0.007,0.096,0.01,0.143,0.01    c0.001,0,0.002,0,0.003,0c0,0,0,0,0,0l0,0c0,0,0.001,0,0.001,0c0.051,0,0.102-0.004,0.153-0.012c0.003,0,0.007,0,0.011-0.001    c0.002,0,0.005-0.001,0.008-0.002c0.016-0.002,0.033-0.004,0.049-0.008l4.368-0.963C66.211,74.696,62.713,80.248,59.161,79.908z     M63.829,66.379l2.257-7.321c0.636,1.875,0.984,4.159,0.952,6.613L63.829,66.379z M67.843,51.94    c-0.142-0.193-0.346-0.326-0.573-0.385l7.358-1.624c0.001,0.153,0.02,0.298,0.046,0.424l-4.525,12.53l-2.701-8.245l0.551-1.785    C68.093,52.542,68.038,52.203,67.843,51.94z M73.152,67.999h-4.188c0.004-0.038,0.009-0.075,0.013-0.113    c0.018-0.183,0.031-0.363,0.045-0.544l1.304-0.288c0.026-0.005,0.051-0.014,0.076-0.021c0.006-0.002,0.015-0.003,0.021-0.005    c0.002-0.001,0.004-0.002,0.005-0.003c0.061-0.02,0.119-0.045,0.174-0.077c0.008-0.004,0.016-0.009,0.024-0.015    c0.105-0.063,0.198-0.143,0.275-0.238c0.008-0.01,0.017-0.02,0.024-0.03c0.035-0.047,0.066-0.095,0.093-0.147    c0.003-0.006,0.006-0.014,0.009-0.021c0.016-0.032,0.031-0.065,0.043-0.099l1.486-4.116    C72.503,64.395,72.718,66.338,73.152,67.999z M67.884,73.259c0.291-0.904,0.536-1.859,0.728-2.856h5.414    c0.666,1.354,1.532,2.345,2.543,2.856H67.884z M74.645,61.581c0.134-2.349,0.614-4.399,1.263-5.993l1.246,5.349    c-0.112,0.528,0.201,1.061,0.73,1.207l1.057,0.291v8.951c-0.259,0.136-0.517,0.208-0.768,0.208l-0.078-0.001    C76.198,71.484,74.316,67.344,74.645,61.581z M80.044,58.047l-1.556-5.87c0.219-0.098,0.437-0.15,0.649-0.15l0.079,0.002    c0.91,0.053,1.816,1.044,2.484,2.723c0.168,0.421,0.312,0.876,0.438,1.352C81.335,56.655,80.604,57.315,80.044,58.047z     M82.667,62.04c-0.209,3.649-1.25,6.577-2.464,8.189v-7.596c0.012-0.003,0.022-0.009,0.034-0.013    c0.029-0.009,0.059-0.021,0.087-0.032c0.027-0.012,0.056-0.022,0.083-0.036c0.052-0.027,0.102-0.058,0.148-0.094    c0.012-0.009,0.022-0.02,0.033-0.029c0.039-0.032,0.074-0.065,0.108-0.102c0.01-0.011,0.019-0.023,0.029-0.035    c0.031-0.038,0.059-0.077,0.085-0.119c0.008-0.013,0.015-0.026,0.023-0.04c0.022-0.041,0.042-0.083,0.058-0.126    c0.007-0.018,0.013-0.035,0.019-0.053c0.005-0.014,0.011-0.026,0.015-0.04c0.006-0.022,0.006-0.044,0.011-0.067    c0.007-0.033,0.014-0.066,0.017-0.1c0.004-0.036,0.005-0.071,0.005-0.107c0-0.031,0-0.062-0.003-0.093    c-0.003-0.04-0.011-0.078-0.019-0.115c-0.004-0.019-0.004-0.038-0.009-0.056l-0.433-1.634c0.375-0.81,1.084-1.606,1.939-2.276    C82.675,58.875,82.76,60.429,82.667,62.04z M84.723,62.159c0.119-2.069-0.032-4.069-0.417-5.843    c0.869-0.405,1.755-0.649,2.521-0.649c0.353,0,0.842,0.059,1.163,0.338c0.271,0.237,0.407,0.624,0.407,1.149v10.845h-4.775    C84.208,66.307,84.599,64.321,84.723,62.159z"/>
</g>
</g>
</svg>