<?xml version="1.0" encoding="utf-8"?>
<!-- Generator: Adobe Illustrator 21.1.0, SVG Export Plug-In . SVG Version: 6.00 Build 0)  -->
<svg version="1.1" id="Layer_1" xmlns="http://www.w3.org/2000/svg" xmlns:xlink="http://www.w3.org/1999/xlink" x="0px" y="0px"
	 viewBox="0 0 739 432.8" style="enable-background:new 0 0 739 432.8;" xml:space="preserve">
<style type="text/css">
	.st0{fill:none;stroke:#30BB6A;stroke-width:15.0058;stroke-linecap:round;stroke-linejoin:round;stroke-miterlimit:10;}
</style>
<g>
	<path class="st0" d="M271.7,293.2c0,72.9-59.1,132.1-132.1,132.1c-72.9,0-132.1-59.1-132.1-132.1c0-72.9,59.1-132.1,132.1-132.1
		C212.5,161.1,271.7,220.3,271.7,293.2z"/>
	<path class="st0" d="M731.5,293.2c0,72.9-59.1,132.1-132.1,132.1c-72.9,0-132.1-59.1-132.1-132.1c0-72.9,59.1-132.1,132.1-132.1
		C672.4,161.1,731.5,220.3,731.5,293.2z"/>
	<path class="st0" d="M167.8,293.2c0,15.6-12.7,28.3-28.3,28.3c-15.6,0-28.3-12.7-28.3-28.3c0-15.6,12.7-28.3,28.3-28.3
		C155.2,264.9,167.8,277.6,167.8,293.2z"/>
	<path class="st0" d="M407.2,293.2c0,23.8-19.3,43.2-43.2,43.2c-23.8,0-43.2-19.3-43.2-43.2c0-23.9,19.3-43.2,43.2-43.2
		C387.9,250.1,407.2,269.4,407.2,293.2z"/>
	<path class="st0" d="M627.7,291.8c0,15.6-12.7,28.3-28.3,28.3c-15.6,0-28.3-12.7-28.3-28.3c0-15.6,12.7-28.3,28.3-28.3
		C615.1,263.5,627.7,276.1,627.7,291.8z"/>
	<line class="st0" x1="139.6" y1="264.9" x2="364.1" y2="250.1"/>
	<line class="st0" x1="139.6" y1="321.5" x2="364.1" y2="336.4"/>
	<line class="st0" x1="114" y1="281.3" x2="233.6" y2="90.4"/>
	<polyline class="st0" points="590.5,264.9 492.9,7.5 432.7,7.5 	"/>
	<line class="st0" x1="344.7" y1="254.7" x2="213.6" y2="60.8"/>
	<line class="st0" x1="388" y1="257.2" x2="524.9" y2="107.9"/>
	<path class="st0" d="M271.3,42c0,10.4-8.4,18.8-18.8,18.8h-68.2c-10.4,0-18.8-8.4-18.8-18.8l0,0c0-10.4,8.4-18.8,18.8-18.8h68.2
		C262.9,23.2,271.3,31.6,271.3,42L271.3,42z"/>
	<line class="st0" x1="364.1" y1="293.2" x2="408.2" y2="376.4"/>
	<line class="st0" x1="382.5" y1="382" x2="437.3" y2="382"/>
	<line class="st0" x1="511.6" y1="56.8" x2="426.2" y2="150.8"/>
	<path class="st0" d="M233.6,90.4c0,0,94.7,160.8,192.6,60.4"/>
	<path class="st0" d="M633.4,203.5c0,0,49.1,7.9,62.8,69.7"/>
	<path class="st0" d="M114,383c0,0-49.1-7.9-62.8-69.7"/>
</g>
</svg>
