<?xml version="1.0" encoding="utf-8"?>
<!-- Generator: Adobe Illustrator 16.0.0, SVG Export Plug-In . SVG Version: 6.00 Build 0)  -->
<!DOCTYPE svg PUBLIC "-//W3C//DTD SVG 1.1//EN" "http://www.w3.org/Graphics/SVG/1.1/DTD/svg11.dtd">
<svg version="1.1" id="Layer_1" xmlns="http://www.w3.org/2000/svg" xmlns:xlink="http://www.w3.org/1999/xlink" x="0px" y="0px"
	 width="86.5px" height="86.5px" viewBox="0 0 86.5 86.5" enable-background="new 0 0 86.5 86.5" xml:space="preserve">
<g>
	<g>
		<g>
			<path fill="#FFFFFF" stroke="#FFFFFF" stroke-width="1.0582" stroke-miterlimit="10" d="M85.805,43.235
				c0,23.419-18.983,42.403-42.401,42.403c-17.506,0-32.536-10.609-39.009-25.752C2.209,54.775,1,49.146,1,43.235
				C1,19.818,19.983,0.833,43.403,0.833C66.821,0.833,85.805,19.818,85.805,43.235"/>
		</g>
	</g>
	<g>
		<g>
			<path fill="#533FB4" d="M73.736,43.236c0,16.753-13.581,30.334-30.334,30.334c-12.523,0-23.275-7.589-27.906-18.422
				c-1.563-3.655-2.428-7.685-2.428-11.912c0-16.752,13.581-30.335,30.334-30.335S73.736,26.484,73.736,43.236"/>
		</g>
	</g>
</g>
</svg>
