<?xml version="1.0" encoding="utf-8"?>
<!-- Generator: Adobe Illustrator 16.0.0, SVG Export Plug-In . SVG Version: 6.00 Build 0)  -->
<!DOCTYPE svg PUBLIC "-//W3C//DTD SVG 1.1//EN" "http://www.w3.org/Graphics/SVG/1.1/DTD/svg11.dtd">
<svg version="1.1" id="Layer_1" xmlns="http://www.w3.org/2000/svg" xmlns:xlink="http://www.w3.org/1999/xlink" x="0px" y="0px"
	 width="265.309px" height="265.309px" viewBox="0 0 265.309 265.309" enable-background="new 0 0 265.309 265.309"
	 xml:space="preserve">
<g>
	<circle fill="#CF4D4E" cx="132.654" cy="132.655" r="132.654"/>
	<g>
		<g>
			<g>
				<g>
					<path fill="#FFFFFF" d="M44.7,161.209c1.261,1.608,1.313,1.773,1.694,3.073c0.656,2.235-0.642,2.943-2.023,4.119
						c-1.592,1.385-2.767,3.112,0,4.08c1.938,0.692,4.702,0.277,6.709,0.417c2.352,0.138,4.771,0.206,7.123,0.206
						c1.176,0,5.742,0.346,4.219-2.143c-0.415-0.762-1.729-1.315-2.421-1.8c-1.383-0.898-2.56-1.591-4.219-2.005
						c-1.59-0.416-3.112-0.969-4.495-1.867c-1.037-0.693-1.866-1.799-3.042-2.214c-0.417-0.207-0.969-0.139-1.316-0.277
						c-0.415-0.207-1.497-0.897-1.912-1.175"/>
				</g>
				<g>
					<path fill="#FFFFFF" d="M102.344,161.235c-1.264,1.607-1.314,1.773-1.695,3.072c-0.656,2.236,0.639,2.945,2.021,4.12
						c1.593,1.383,2.768,3.111,0,4.081c-1.936,0.691-4.703,0.276-6.708,0.414c-2.352,0.139-4.772,0.208-7.123,0.208
						c-1.178,0-5.74,0.346-4.219-2.145c0.414-0.76,1.727-1.314,2.42-1.798c1.382-0.899,2.559-1.591,4.219-2.005
						c1.591-0.416,3.111-0.969,4.497-1.867c1.035-0.691,1.867-1.8,3.043-2.214c0.413-0.208,0.967-0.14,1.313-0.277
						c0.416-0.207,1.498-0.898,1.913-1.174"/>
				</g>
			</g>
		</g>
	</g>
	<g>
		<g>
			<g>
				<g>
					<path fill="#FFFFFF" d="M162.098,161.209c1.261,1.608,1.313,1.773,1.694,3.073c0.655,2.235-0.642,2.943-2.023,4.119
						c-1.591,1.385-2.767,3.112,0,4.08c1.937,0.692,4.702,0.277,6.708,0.417c2.354,0.138,4.772,0.206,7.123,0.206
						c1.176,0,5.742,0.346,4.221-2.143c-0.416-0.762-1.73-1.315-2.422-1.8c-1.383-0.898-2.56-1.591-4.219-2.005
						c-1.59-0.416-3.112-0.969-4.495-1.867c-1.037-0.693-1.866-1.799-3.042-2.214c-0.417-0.207-0.969-0.139-1.316-0.277
						c-0.414-0.207-1.498-0.897-1.912-1.175"/>
				</g>
				<g>
					<path fill="#FFFFFF" d="M219.74,161.235c-1.263,1.607-1.313,1.773-1.694,3.072c-0.656,2.236,0.639,2.945,2.021,4.12
						c1.593,1.383,2.769,3.111,0,4.081c-1.936,0.691-4.702,0.276-6.708,0.414c-2.352,0.139-4.773,0.208-7.123,0.208
						c-1.178,0-5.74,0.346-4.219-2.145c0.414-0.76,1.727-1.314,2.42-1.798c1.382-0.899,2.559-1.591,4.219-2.005
						c1.591-0.416,3.111-0.969,4.496-1.867c1.037-0.691,1.867-1.8,3.043-2.214c0.414-0.208,0.968-0.14,1.313-0.277
						c0.415-0.207,1.498-0.898,1.913-1.174"/>
				</g>
			</g>
		</g>
	</g>
	<text transform="matrix(1 0 0 1 93.6094 218.355)" fill="#FFFFFF" font-family="'Raleway-Light'" font-size="36">Ops!</text>
	<g>
		<circle fill="#FFFFFF" cx="128.676" cy="135.844" r="8.738"/>
		
			<path fill="none" stroke="#FFFFFF" stroke-width="4.252" stroke-linecap="round" stroke-linejoin="round" stroke-miterlimit="10" d="
			M81.968,98.106c20.087,4.676,32.58,24.749,27.903,44.836c-4.677,20.083-24.752,32.573-44.838,27.895
			c-20.083-4.674-32.573-24.747-27.897-44.831C41.813,105.919,61.885,93.429,81.968,98.106z"/>
		
			<path fill="none" stroke="#FFFFFF" stroke-width="4.252" stroke-linecap="round" stroke-linejoin="round" stroke-miterlimit="10" d="
			M182.218,170.784c-20.055-4.806-32.418-24.959-27.612-45.015c4.807-20.053,24.961-32.413,45.016-27.607
			c20.053,4.806,32.414,24.959,27.609,45.011C222.425,163.229,202.271,175.59,182.218,170.784z"/>
		
			<line fill="none" stroke="#FFFFFF" stroke-width="4.252" stroke-linecap="round" stroke-linejoin="round" stroke-miterlimit="10" x1="166.241" y1="86.976" x2="103.732" y2="86.976"/>
		
			<path fill="none" stroke="#FFFFFF" stroke-width="4.252" stroke-linecap="round" stroke-linejoin="round" stroke-miterlimit="10" d="
			M99.365,75.51"/>
		
			<path fill="none" stroke="#FFFFFF" stroke-width="4.252" stroke-linecap="round" stroke-linejoin="round" stroke-miterlimit="10" d="
			M103.732,86.976"/>
		
			<line fill="none" stroke="#FFFFFF" stroke-width="4.252" stroke-linecap="round" stroke-linejoin="round" stroke-miterlimit="10" x1="160.529" y1="73.832" x2="190.918" y2="135.188"/>
		
			<line fill="none" stroke="#FFFFFF" stroke-width="4.252" stroke-linecap="round" stroke-linejoin="round" stroke-miterlimit="10" x1="160.529" y1="73.832" x2="176.811" y2="73.832"/>
		
			<polyline fill="none" stroke="#FFFFFF" stroke-width="4.252" stroke-linecap="round" stroke-linejoin="round" stroke-miterlimit="10" points="
			167.666,88.241 128.676,135.188 103.732,86.976 73.504,135.188 128.676,135.188 		"/>
		
			<polygon fill="none" stroke="#FFFFFF" stroke-width="4.252" stroke-linecap="round" stroke-linejoin="round" stroke-miterlimit="10" points="
			91.201,74.932 113.637,74.932 99.811,80.086 		"/>
		
			<path fill="none" stroke="#FFFFFF" stroke-width="4.252" stroke-linecap="round" stroke-linejoin="round" stroke-miterlimit="10" d="
			M73.504,135.188"/>
		
			<line fill="none" stroke="#FFFFFF" stroke-width="4.252" stroke-linecap="round" stroke-linejoin="round" stroke-miterlimit="10" x1="128.676" y1="135.188" x2="99.365" y2="78.269"/>
	</g>
	<rect x="37.379" y="172.146" fill="#CF4D4E" width="190.551" height="13.416"/>
</g>
</svg>
