<?xml version="1.0" encoding="utf-8"?>
<!-- Generator: Adobe Illustrator 22.1.0, SVG Export Plug-In . SVG Version: 6.00 Build 0)  -->
<svg version="1.1" id="Layer_1" xmlns="http://www.w3.org/2000/svg" xmlns:xlink="http://www.w3.org/1999/xlink" x="0px" y="0px"
	 viewBox="0 0 72 68.6" style="enable-background:new 0 0 72 68.6;" xml:space="preserve">
<style type="text/css">
	.st0{fill:#30bb6a;}
</style>
<path class="st0" d="M70.6,30L53.3,43.2l6.1,20.5c0.6,2-0.5,4.1-2.5,4.7c-1.1,0.3-2.2,0.1-3.1-0.4L36,55.8L18.2,68
	c-0.9,0.5-2,0.8-3.1,0.5c-2-0.6-3.1-2.7-2.5-4.6l6.1-20.6L1.4,30C0.6,29.3,0,28.3,0,27.1c0-2,1.6-3.6,3.6-3.6L25.3,23l7.3-20.7v0
	c0.4-1,1.1-1.7,2.2-2.1c1.9-0.7,3.9,0.3,4.6,2.2c0,0,0,0,0,0L46.7,23l21.8,0.6c2,0,3.6,1.6,3.6,3.6C72,28.3,71.4,29.4,70.6,30
	L70.6,30z"/>
</svg>
