<?xml version="1.0" encoding="utf-8"?>
<!-- Generator: Adobe Illustrator 22.1.0, SVG Export Plug-In . SVG Version: 6.00 Build 0)  -->
<svg version="1.1" id="Layer_1" xmlns="http://www.w3.org/2000/svg" xmlns:xlink="http://www.w3.org/1999/xlink" x="0px" y="0px"
	 viewBox="0 0 303.5 303.5" style="enable-background:new 0 0 303.5 303.5;" xml:space="preserve">
<style type="text/css">
	.st0{filter:url(#Adobe_OpacityMaskFilter);}
	.st1{fill:#FFFFFF;}
	.st2{fill:none;stroke:#000000;stroke-width:30.3639;stroke-linecap:round;stroke-linejoin:round;stroke-miterlimit:10;}
	.st3{mask:url(#SVGID_2_);}
	.st4{fill:none;stroke:#81878A;stroke-width:8.4387;stroke-linecap:round;stroke-linejoin:round;stroke-miterlimit:10;}
	.st5{fill:none;stroke:#47B870;stroke-width:12.1456;stroke-linecap:round;stroke-linejoin:round;stroke-miterlimit:10;}
</style>
<g>
	<defs>
		<filter id="Adobe_OpacityMaskFilter" filterUnits="userSpaceOnUse" x="61.4" y="15.7" width="168.9" height="286.5">
			<feColorMatrix  type="matrix" values="1 0 0 0 0  0 1 0 0 0  0 0 1 0 0  0 0 0 1 0"/>
		</filter>
	</defs>
	<mask maskUnits="userSpaceOnUse" x="61.4" y="15.7" width="168.9" height="286.5" id="SVGID_2_">
		<g class="st0">
			<g id="XMLID_1_">
				<g>
					<path class="st1" d="M25-69.1h226.3v427.8H25V-69.1z M234.5,3.4h-84.6l84.6,105.9V3.4L234.5,3.4z"/>
				</g>
				<g>
					<polygon class="st2" points="234.5,109.2 234.5,3.4 149.9,3.4 					"/>
					<rect x="25" y="-69.1" class="st2" width="226.3" height="427.8"/>
				</g>
			</g>
		</g>
	</mask>
	<g class="st3">
		<path class="st4" d="M175.4,196.5c28,0,50.7,22.7,50.7,50.7c0,28-22.7,50.7-50.7,50.7c-28,0-50.7-22.7-50.7-50.7
			C124.7,219.2,147.4,196.5,175.4,196.5z"/>
		<path class="st4" d="M175.4,19.9c28,0,50.7,22.7,50.7,50.7c0,28-22.7,50.7-50.7,50.7c-28,0-50.7-22.7-50.7-50.7
			C124.7,42.6,147.4,19.9,175.4,19.9z"/>
		<circle class="st4" cx="175.4" cy="247.2" r="10.9"/>
		<path class="st4" d="M175.4,144.4c9.1,0,16.6,7.4,16.6,16.6s-7.4,16.6-16.6,16.6c-9.2,0-16.6-7.4-16.6-16.6
			C158.8,151.9,166.2,144.4,175.4,144.4z"/>
		<path class="st4" d="M174.8,59.8c6,0,10.9,4.9,10.9,10.9c0,6-4.9,10.9-10.9,10.9c-6,0-10.9-4.9-10.9-10.9
			C163.9,64.6,168.8,59.8,174.8,59.8z"/>
		<line class="st4" x1="164.5" y1="247.2" x2="158.8" y2="161"/>
		<line class="st4" x1="186.2" y1="247.2" x2="191.9" y2="161"/>
		<line class="st4" x1="170.8" y1="257.1" x2="97.5" y2="211.1"/>
		<polyline class="st4" points="164.5,74 65.7,111.5 65.7,134.7 		"/>
		<line class="st4" x1="160.6" y1="168.5" x2="86.1" y2="218.8"/>
		<line class="st4" x1="161.6" y1="151.8" x2="104.2" y2="99.3"/>
		<path class="st4" d="M78.9,196.7c4,0,7.2,3.2,7.2,7.2v26.2c0,4-3.2,7.2-7.2,7.2l0,0c-4,0-7.2-3.2-7.2-7.2v-26.2
			C71.7,199.9,74.9,196.7,78.9,196.7L78.9,196.7z"/>
		<line class="st4" x1="84.6" y1="104.3" x2="120.7" y2="137.1"/>
		<path class="st4" d="M97.5,211.1c0,0,61.7-36.4,23.2-74"/>
	</g>
	<g>
		<polygon class="st5" points="236.4,113.3 236.4,7.4 151.8,7.4 		"/>
	</g>
</g>
</svg>
