<?xml version="1.0" encoding="utf-8"?>
<!-- Generator: Adobe Illustrator 16.0.0, SVG Export Plug-In . SVG Version: 6.00 Build 0)  -->
<!DOCTYPE svg PUBLIC "-//W3C//DTD SVG 1.1//EN" "http://www.w3.org/Graphics/SVG/1.1/DTD/svg11.dtd">
<svg version="1.1" id="Layer_1" xmlns="http://www.w3.org/2000/svg" xmlns:xlink="http://www.w3.org/1999/xlink" x="0px" y="0px"
	 width="339.288px" height="251.27px" viewBox="0 0 339.288 251.27" enable-background="new 0 0 339.288 251.27"
	 xml:space="preserve">
<path fill="#58595B" d="M307.815,0H31.476C14.093,0,0,14.092,0,31.497v188.231c0,17.45,14.093,31.542,31.476,31.542h276.34
	c17.382,0,31.473-14.092,31.473-31.542V31.497C339.288,14.092,325.198,0,307.815,0z M298.272,28.625l-128.55,91.089L41.524,28.625
	H298.272z M307.815,222.644H31.476c-1.569,0-2.873-1.325-2.873-2.916V54.335l133.323,94.403c4.837,3.313,11.22,3.313,16.058,0
	l132.681-93.917v164.906C310.664,221.319,309.382,222.644,307.815,222.644z"/>
</svg>
