
<svg xmlns="http://www.w3.org/2000/svg" xmlns:xlink="http://www.w3.org/1999/xlink" version="1.1" x="0px" y="0px" viewBox="10 -10 120 120" style="enable-background:new 10 -10 120 120;" xml:space="preserve">
	<style type="text/css"> .st0{fill:#fff;}</style>
	<g>
		<path class="st0" d="M71.8,12.2l-38,33.7c-1.6,1.6-4.2,1.6-5.8,0c-1.6-1.6-1.6-4.2,0-5.8L65.9,6.4c1.6-1.6,4.2-1.6,5.8,0   C73.4,7.9,73.4,10.6,71.8,12.2z"/>
		<path class="st0" d="M72.5,6L111,40.3c1.6,1.6,1.6,4.3,0,5.9c-1.6,1.6-4.3,1.6-5.9,0L66.5,11.9c-1.6-1.6-1.6-4.3,0-5.9   C68.2,4.4,70.8,4.4,72.5,6z"/>
		<path class="st0" d="M44.7,51.2V91c0,2.3-1.9,4.2-4.2,4.2s-4.2-1.9-4.2-4.2V51.2c0-2.3,1.9-4.2,4.2-4.2   C42.7,47.1,44.7,49,44.7,51.2z"/>
		<path class="st0" d="M103.3,51.2V91c0,2.3-1.9,4.2-4.2,4.2c-2.3,0-4.2-1.9-4.2-4.2V51.2c0-2.3,1.9-4.2,4.2-4.2   C101.4,47.1,103.3,49,103.3,51.2z"/>
		<path class="st0" d="M84.5,65.9V91c0,2.3-1.9,4.2-4.2,4.2c-2.3,0-4.2-1.9-4.2-4.2V65.9c0-2.3,1.9-4.2,4.2-4.2   C82.6,61.7,84.5,63.6,84.5,65.9z"/>
		<path class="st0" d="M63.5,65.9V91c0,2.3-1.9,4.2-4.2,4.2s-4.2-1.9-4.2-4.2V65.9c0-2.3,1.9-4.2,4.2-4.2   C61.6,61.7,63.5,63.6,63.5,65.9z"/>
		<path class="st0" d="M80.2,70.1H59.4c-2.3,0-4.2-1.9-4.2-4.2c0-2.3,1.9-4.2,4.2-4.2h20.9c2.3,0,4.2,1.9,4.2,4.2   S82.6,70.1,80.2,70.1z"/>
		<path class="st0" d="M59.3,95.2H40.5c-2.3,0-4.2-1.9-4.2-4.2c0-2.3,1.9-4.2,4.2-4.2h18.8c2.3,0,4.2,1.9,4.2,4.2   C63.5,93.3,61.6,95.2,59.3,95.2z"/>
		<path class="st0" d="M99.1,95.2H80.3c-2.3,0-4.2-1.9-4.2-4.2c0-2.3,1.9-4.2,4.2-4.2h18.8c2.3,0,4.2,1.9,4.2,4.2   C103.3,93.3,101.4,95.2,99.1,95.2z"/>
	</g>
</svg>