<svg xmlns="http://www.w3.org/2000/svg" xmlns:xlink="http://www.w3.org/1999/xlink" viewBox="0 0 141.73 141.73"><defs><style>.cls-1,.cls-2,.cls-4{fill:none;stroke-linecap:round;stroke-linejoin:round;}.cls-1{stroke:#000;stroke-width:20px;}.cls-2{stroke:#47b970;stroke-width:5.67px;}.cls-3{mask:url(#mask);}.cls-4{stroke:#39b66a;stroke-width:5.67px;}.cls-5{filter:url(#luminosity-noclip);}</style><filter id="luminosity-noclip" x="-3.57" y="26.07" width="153.55" height="118.68" filterUnits="userSpaceOnUse" color-interpolation-filters="sRGB"><feFlood flood-color="#fff" result="bg"/><feBlend in="SourceGraphic" in2="bg"/></filter><mask id="mask" x="-3.57" y="26.07" width="153.55" height="118.68" maskUnits="userSpaceOnUse"><g class="cls-5"><line class="cls-1" x1="97.14" y1="105.17" x2="97.14" y2="134.62"/><line class="cls-1" x1="6.43" y1="134.62" x2="6.43" y2="105.17"/><line class="cls-1" x1="6.43" y1="134.75" x2="139.98" y2="134.75"/><line class="cls-1" x1="6.43" y1="113.06" x2="139.98" y2="112.93"/><line class="cls-1" x1="127.05" y1="104.95" x2="127.05" y2="134.24"/><line class="cls-1" x1="112.09" y1="104.95" x2="112.09" y2="134.24"/><line class="cls-1" x1="82.19" y1="104.95" x2="82.19" y2="134.24"/><line class="cls-1" x1="67.23" y1="104.95" x2="67.23" y2="134.24"/><line class="cls-1" x1="52.28" y1="104.95" x2="52.28" y2="134.24"/><line class="cls-1" x1="37.32" y1="104.95" x2="37.32" y2="134.24"/><line class="cls-1" x1="22.37" y1="104.95" x2="22.37" y2="134.24"/></g></mask></defs><title>icon_private</title><g id="Layer_2" data-name="Layer 2"><line class="cls-2" x1="95.34" y1="101.59" x2="95.34" y2="137.57"/><line class="cls-2" x1="4.64" y1="137.72" x2="138.19" y2="137.72"/><line class="cls-2" x1="4.64" y1="111.23" x2="138.19" y2="111.07"/><line class="cls-2" x1="125.25" y1="101.32" x2="125.25" y2="137.11"/><line class="cls-2" x1="138.19" y1="101.32" x2="138.19" y2="137.11"/><line class="cls-2" x1="4.64" y1="101.32" x2="4.64" y2="137.11"/><line class="cls-2" x1="110.3" y1="101.32" x2="110.3" y2="137.11"/><line class="cls-2" x1="80.39" y1="101.32" x2="80.39" y2="137.11"/><line class="cls-2" x1="65.44" y1="101.32" x2="65.44" y2="137.11"/><line class="cls-2" x1="50.48" y1="101.32" x2="50.48" y2="137.11"/><line class="cls-2" x1="35.53" y1="101.32" x2="35.53" y2="137.11"/><line class="cls-2" x1="20.58" y1="101.32" x2="20.58" y2="137.11"/><g class="cls-3"><path class="cls-2" d="M62.74,122.1V34.18c0-2.8,2.78-5.08,6.24-5.11l44.46-.17c3.53,0,6.41,2.26,6.41,5.11v88.26"/></g><rect class="cls-4" x="76.5" y="45.78" width="9.67" height="9.67" rx="1.78" ry="1.78"/><rect class="cls-4" x="76.5" y="64.07" width="9.67" height="9.67" rx="1.78" ry="1.78"/><rect class="cls-4" x="96.41" y="45.78" width="9.67" height="9.67" rx="1.78" ry="1.78"/><rect class="cls-4" x="96.41" y="64.07" width="9.67" height="9.67" rx="1.78" ry="1.78"/></g></svg>