<svg xmlns="http://www.w3.org/2000/svg" xmlns:xlink="http://www.w3.org/1999/xlink" viewBox="0 0 64 64" version="1.1" xml:space="preserve" style="" x="0px" y="0px" fill-rule="evenodd" clip-rule="evenodd" stroke-linejoin="round" stroke-miterlimit="1.41421"><rect x="0" y="0" width="64" height="64" style="" fill="none"/><path d="M48.379,13.5l-8.379,0l-0.084,-0.002c-0.084,-0.007 -0.167,-0.017 -0.25,-0.036c-0.191,-0.043 -0.374,-0.125 -0.534,-0.239c-0.417,-0.295 -0.658,-0.797 -0.63,-1.307c0.008,-0.14 0.036,-0.279 0.082,-0.411c0.056,-0.159 0.138,-0.309 0.243,-0.44c0.123,-0.154 0.275,-0.283 0.447,-0.378c0.148,-0.081 0.309,-0.138 0.475,-0.166c0.074,-0.012 0.092,-0.012 0.167,-0.019c4.039,-0.113 8.084,-0.113 12.123,-0.001l0.017,0l0.012,0.001l0.016,0c0.014,0.002 0.028,0.003 0.042,0.004l0.042,0.003c0.098,0.015 0.124,0.016 0.22,0.042c0.032,0.009 0.063,0.018 0.094,0.028l0.013,0.005l0.029,0.011l0.026,0.009l0.024,0.01l0.015,0.007c0.073,0.031 0.142,0.067 0.209,0.109c0.127,0.08 0.241,0.178 0.339,0.292c0.047,0.055 0.09,0.113 0.129,0.174l0.003,0.005c0.045,0.071 0.084,0.146 0.117,0.225c0.039,0.095 0.066,0.191 0.085,0.29l0.003,0.015c0.004,0.024 0.008,0.047 0.011,0.07c0.005,0.038 0.009,0.076 0.013,0.115c0.113,4.026 0.002,8.056 0.002,12.084c-0.002,0.075 -0.001,0.094 -0.009,0.168c-0.019,0.167 -0.067,0.331 -0.14,0.483c-0.085,0.177 -0.205,0.337 -0.351,0.467c-0.105,0.094 -0.223,0.173 -0.349,0.233c-0.487,0.235 -1.078,0.185 -1.519,-0.128c-0.137,-0.097 -0.258,-0.218 -0.355,-0.355c-0.13,-0.183 -0.218,-0.395 -0.256,-0.617c-0.014,-0.083 -0.019,-0.166 -0.021,-0.251l0,-8.379l-19.439,19.44c-0.073,0.067 -0.09,0.087 -0.17,0.146c-0.121,0.089 -0.254,0.159 -0.396,0.209c-0.176,0.062 -0.364,0.09 -0.551,0.083c-0.491,-0.018 -0.953,-0.285 -1.214,-0.701c-0.08,-0.127 -0.14,-0.265 -0.179,-0.41c-0.039,-0.144 -0.056,-0.295 -0.05,-0.444c0.01,-0.262 0.089,-0.52 0.229,-0.742c0.06,-0.096 0.132,-0.18 0.209,-0.263l19.44,-19.439Z"/><path d="M30.142,14.507c0.125,0.018 0.158,0.018 0.28,0.054c0.275,0.08 0.524,0.24 0.711,0.456c0.094,0.108 0.172,0.229 0.231,0.359c0.06,0.13 0.1,0.269 0.121,0.41c0.061,0.427 -0.068,0.869 -0.351,1.196c-0.125,0.144 -0.277,0.264 -0.446,0.351c-0.169,0.087 -0.355,0.142 -0.545,0.16c-0.047,0.005 -0.095,0.005 -0.142,0.007c-1.052,0 -2.104,0.001 -3.156,0.005c-1.699,0.01 -3.399,0.023 -5.096,0.116c-0.943,0.051 -1.887,0.126 -2.821,0.271c-0.253,0.039 -0.506,0.084 -0.757,0.136c-0.171,0.036 -0.341,0.075 -0.51,0.119c-0.782,0.202 -1.573,0.5 -2.187,1.042c-0.116,0.102 -0.224,0.213 -0.325,0.331c-0.306,0.357 -0.532,0.776 -0.705,1.211c-0.209,0.524 -0.349,1.075 -0.455,1.628c-0.151,0.781 -0.239,1.573 -0.301,2.364c-0.107,1.341 -0.143,2.686 -0.164,4.031c-0.018,1.205 -0.022,2.411 -0.023,3.617c-0.001,1.086 -0.001,2.172 0,3.258c0.001,1.526 0.007,3.053 0.045,4.579c0.034,1.336 0.088,2.676 0.24,4.005c0.04,0.35 0.088,0.698 0.146,1.045c0.108,0.636 0.251,1.272 0.479,1.877c0.188,0.499 0.439,0.981 0.795,1.382c0.7,0.79 1.733,1.164 2.735,1.397c0.208,0.048 0.418,0.091 0.628,0.129c0.266,0.048 0.534,0.089 0.802,0.124c1.367,0.182 2.75,0.242 4.127,0.281c1.625,0.045 3.252,0.05 4.878,0.051c1.082,0.001 2.165,0.001 3.248,0c1.312,-0.001 2.623,-0.006 3.935,-0.031c1.314,-0.025 2.629,-0.066 3.939,-0.182c0.77,-0.068 1.541,-0.161 2.298,-0.32c0.64,-0.135 1.279,-0.315 1.865,-0.61c0.347,-0.174 0.673,-0.392 0.953,-0.663c0.697,-0.674 1.046,-1.62 1.27,-2.544c0.042,-0.174 0.08,-0.35 0.115,-0.526c0.051,-0.258 0.094,-0.518 0.132,-0.779c0.053,-0.366 0.095,-0.734 0.131,-1.102c0.114,-1.177 0.162,-2.361 0.192,-3.544c0.052,-2.065 0.045,-4.132 0.046,-6.199l0.007,-0.142c0.007,-0.047 0.011,-0.095 0.02,-0.142c0.036,-0.187 0.108,-0.366 0.212,-0.527c0.077,-0.12 0.171,-0.229 0.279,-0.322c0.327,-0.283 0.769,-0.412 1.196,-0.351c0.142,0.021 0.28,0.061 0.41,0.121c0.173,0.079 0.331,0.191 0.462,0.329c0.198,0.208 0.333,0.471 0.387,0.752c0.024,0.125 0.021,0.157 0.027,0.284c-0.001,1.054 -0.001,2.108 -0.006,3.162c-0.006,1.037 -0.015,2.074 -0.041,3.111c-0.018,0.708 -0.043,1.416 -0.083,2.123c-0.03,0.546 -0.069,1.091 -0.122,1.635c-0.032,0.335 -0.07,0.669 -0.115,1.003c-0.032,0.237 -0.067,0.474 -0.107,0.71c-0.251,1.48 -0.678,2.973 -1.558,4.209c-0.133,0.188 -0.276,0.368 -0.428,0.54c-0.238,0.269 -0.5,0.519 -0.78,0.744c-0.413,0.332 -0.866,0.612 -1.342,0.844c-1.07,0.521 -2.244,0.802 -3.415,0.985c-0.845,0.132 -1.698,0.213 -2.551,0.27c-0.893,0.061 -1.789,0.094 -2.684,0.116c-1.287,0.033 -2.575,0.041 -3.862,0.045c-1.345,0.004 -2.689,0.003 -4.034,0.001c-1.546,-0.001 -3.093,-0.006 -4.639,-0.044c-1.423,-0.035 -2.849,-0.093 -4.264,-0.253c-0.324,-0.037 -0.648,-0.079 -0.97,-0.129c-1.557,-0.242 -3.141,-0.663 -4.443,-1.586c-0.187,-0.132 -0.368,-0.275 -0.54,-0.426c-0.246,-0.217 -0.474,-0.452 -0.684,-0.704c-0.147,-0.176 -0.284,-0.361 -0.412,-0.552c-0.807,-1.204 -1.206,-2.631 -1.446,-4.046c-0.053,-0.318 -0.099,-0.636 -0.139,-0.956c-0.042,-0.339 -0.077,-0.68 -0.107,-1.02c-0.05,-0.554 -0.086,-1.108 -0.113,-1.663c-0.042,-0.83 -0.066,-1.66 -0.082,-2.49c-0.02,-1.073 -0.027,-2.145 -0.03,-3.218c-0.005,-1.348 -0.004,-2.696 -0.002,-4.044c0.001,-1.442 0.006,-2.884 0.036,-4.326c0.017,-0.816 0.043,-1.633 0.087,-2.448c0.029,-0.546 0.067,-1.091 0.119,-1.635c0.039,-0.416 0.087,-0.831 0.146,-1.244c0.033,-0.234 0.07,-0.467 0.112,-0.7c0.252,-1.4 0.674,-2.807 1.505,-3.98c0.133,-0.187 0.275,-0.367 0.427,-0.539c0.238,-0.27 0.499,-0.519 0.78,-0.745c0.438,-0.353 0.922,-0.646 1.431,-0.886c0.975,-0.458 2.032,-0.723 3.091,-0.9c0.743,-0.124 1.492,-0.206 2.242,-0.266c0.763,-0.061 1.528,-0.099 2.294,-0.126c1.108,-0.039 2.217,-0.055 3.326,-0.063c1.301,-0.011 2.602,-0.009 3.902,-0.01c0.048,0.002 0.095,0.004 0.143,0.007Z" style="" fill-rule="nonzero"/></svg>