<?xml version="1.0" encoding="utf-8"?>
<!-- Generator: Adobe Illustrator 16.0.0, SVG Export Plug-In . SVG Version: 6.00 Build 0)  -->
<!DOCTYPE svg PUBLIC "-//W3C//DTD SVG 1.1//EN" "http://www.w3.org/Graphics/SVG/1.1/DTD/svg11.dtd">
<svg version="1.1" id="Layer_1" xmlns="http://www.w3.org/2000/svg" xmlns:xlink="http://www.w3.org/1999/xlink" x="0px" y="0px"
	 width="286.667px" height="181.75px" viewBox="7.833 121.75 286.667 181.75" enable-background="new 7.833 121.75 286.667 181.75"
	 xml:space="preserve">
<g>
	<g>
		<g>
			
				<line fill="none" stroke="#47B870" stroke-width="16.8764" stroke-linecap="round" stroke-linejoin="round" stroke-miterlimit="10" x1="152.041" y1="294.441" x2="151.072" y2="294.441"/>
		</g>
		
			<path fill="none" stroke="#47B870" stroke-width="16.8764" stroke-linecap="round" stroke-linejoin="round" stroke-miterlimit="10" d="
			M116.132,190.561c0,0-1.905-39.019,36.679-37.117c38.588,1.897,36.24,38.736,36.24,38.736s-0.648,14.35-12.26,24.909
			c-11.617,10.562-23.378,20.675-25.555,31.908c-2.17,11.239-0.891,23.481-0.891,23.481"/>
	</g>
	<defs>
		<filter id="Adobe_OpacityMaskFilter" filterUnits="userSpaceOnUse" x="7.816" y="122.372" width="286.51" height="168.904">
			<feColorMatrix  type="matrix" values="1 0 0 0 0  0 1 0 0 0  0 0 1 0 0  0 0 0 1 0"/>
		</filter>
	</defs>
	<mask maskUnits="userSpaceOnUse" x="7.816" y="122.372" width="286.51" height="168.904" id="SVGID_1_">
		<g filter="url(#Adobe_OpacityMaskFilter)">
			<g id="XMLID_8_">
				<g>
					<rect x="-16.904" y="57.479" fill="#FFFFFF" width="366.876" height="265.115"/>
				</g>
				<g>
					
						<line fill="none" stroke="#000000" stroke-width="36.4368" stroke-linecap="round" stroke-linejoin="round" stroke-miterlimit="10" x1="152.041" y1="296.436" x2="151.057" y2="296.436"/>
					
						<path fill="none" stroke="#000000" stroke-width="36.4368" stroke-linecap="round" stroke-linejoin="round" stroke-miterlimit="10" d="
						M116.114,190.563c0,0-1.886-39.013,36.677-37.127c38.604,1.906,36.248,38.733,36.248,38.733s-0.643,14.354-12.254,24.915
						c-11.611,10.563-23.373,20.674-25.559,31.921c-2.164,11.226-0.899,23.479-0.899,23.479"/>
					
						<rect x="-16.904" y="57.479" fill="none" stroke="#000000" stroke-width="36.4368" stroke-linecap="round" stroke-linejoin="round" stroke-miterlimit="10" width="366.876" height="265.115"/>
				</g>
			</g>
		</g>
	</mask>
	<g mask="url(#SVGID_1_)">
		
			<circle fill="none" stroke="#E5E5E5" stroke-width="8.4382" stroke-linecap="round" stroke-linejoin="round" stroke-miterlimit="10" cx="62.761" cy="236.33" r="50.727"/>
		
			<path fill="none" stroke="#E5E5E5" stroke-width="8.4382" stroke-linecap="round" stroke-linejoin="round" stroke-miterlimit="10" d="
			M290.107,236.33c0,28.013-22.711,50.725-50.727,50.725c-28.017,0-50.729-22.712-50.729-50.725
			c0-28.018,22.713-50.729,50.729-50.729C267.396,185.604,290.107,208.313,290.107,236.33z"/>
		
			<path fill="none" stroke="#E5E5E5" stroke-width="8.4382" stroke-linecap="round" stroke-linejoin="round" stroke-miterlimit="10" d="
			M73.619,236.33c0,5.995-4.862,10.855-10.859,10.855c-6,0-10.857-4.86-10.857-10.855c0-6,4.857-10.86,10.857-10.86
			C68.757,225.47,73.619,230.33,73.619,236.33z"/>
		
			<path fill="none" stroke="#E5E5E5" stroke-width="8.4382" stroke-linecap="round" stroke-linejoin="round" stroke-miterlimit="10" d="
			M165.564,236.33c0,9.148-7.424,16.577-16.574,16.577c-9.159,0-16.577-7.429-16.577-16.577c0-9.161,7.418-16.579,16.577-16.579
			C158.143,219.751,165.564,227.169,165.564,236.33z"/>
		
			<circle fill="none" stroke="#E5E5E5" stroke-width="8.4382" stroke-linecap="round" stroke-linejoin="round" stroke-miterlimit="10" cx="239.382" cy="235.767" r="10.858"/>
		
			<line fill="none" stroke="#E5E5E5" stroke-width="8.4382" stroke-linecap="round" stroke-linejoin="round" stroke-miterlimit="10" x1="62.76" y1="225.47" x2="148.99" y2="219.751"/>
		
			<line fill="none" stroke="#E5E5E5" stroke-width="8.4382" stroke-linecap="round" stroke-linejoin="round" stroke-miterlimit="10" x1="62.76" y1="247.188" x2="148.99" y2="252.907"/>
		
			<line fill="none" stroke="#E5E5E5" stroke-width="8.4382" stroke-linecap="round" stroke-linejoin="round" stroke-miterlimit="10" x1="52.933" y1="231.732" x2="98.885" y2="158.421"/>
		
			<polyline fill="none" stroke="#E5E5E5" stroke-width="8.4382" stroke-linecap="round" stroke-linejoin="round" stroke-miterlimit="10" points="
			235.955,225.47 198.47,126.591 175.348,126.591 		"/>
		
			<line fill="none" stroke="#E5E5E5" stroke-width="8.4382" stroke-linecap="round" stroke-linejoin="round" stroke-miterlimit="10" x1="141.547" y1="221.516" x2="91.206" y2="147.056"/>
		
			<line fill="none" stroke="#E5E5E5" stroke-width="8.4382" stroke-linecap="round" stroke-linejoin="round" stroke-miterlimit="10" x1="158.158" y1="222.516" x2="210.746" y2="165.139"/>
		
			<path fill="none" stroke="#E5E5E5" stroke-width="8.4382" stroke-linecap="round" stroke-linejoin="round" stroke-miterlimit="10" d="
			M113.344,139.845c0,3.98-3.226,7.21-7.209,7.21H79.934c-3.983,0-7.211-3.229-7.211-7.21l0,0c0-3.98,3.228-7.209,7.211-7.209
			h26.201C110.118,132.636,113.344,135.863,113.344,139.845L113.344,139.845z"/>
		
			<line fill="none" stroke="#E5E5E5" stroke-width="8.4382" stroke-linecap="round" stroke-linejoin="round" stroke-miterlimit="10" x1="205.654" y1="145.526" x2="172.861" y2="181.62"/>
		
			<path fill="none" stroke="#E5E5E5" stroke-width="8.4382" stroke-linecap="round" stroke-linejoin="round" stroke-miterlimit="10" d="
			M98.885,158.421c0,0,36.355,61.763,73.977,23.199"/>
	</g>
</g>
</svg>
