<?xml version="1.0" encoding="utf-8"?>
<!-- Generator: Adobe Illustrator 22.1.0, SVG Export Plug-In . SVG Version: 6.00 Build 0)  -->
<svg version="1.1" id="Layer_1" xmlns="http://www.w3.org/2000/svg" xmlns:xlink="http://www.w3.org/1999/xlink" x="0px" y="0px"
	 viewBox="0 0 283.5 283.5" style="enable-background:new 0 0 283.5 283.5;" xml:space="preserve">
<style type="text/css">
	.st0{fill:none;stroke:#82878A;stroke-width:15;stroke-linecap:round;stroke-linejoin:round;stroke-miterlimit:10;}
</style>
<g>
	<path class="st0" d="M156.8,272.7c-72.2,7.9-137.2-44.3-145.1-116.6C3.9,83.9,56,18.9,128.3,11.1c72.2-7.9,137.2,44.3,145.1,116.6
		C281.2,199.9,229.1,264.9,156.8,272.7z"/>
</g>
<g>
	<path class="st0" d="M183.4,130.7c0,20.7-17.6,37.4-39.2,37.4c-21.7,0-39.3-16.7-39.3-37.4s17.6-37.5,39.3-37.5
		C165.8,93.2,183.4,109.9,183.4,130.7z"/>
</g>
<path class="st0" d="M54.7,236.9c18.8-45.7,52.1-67.1,89.4-67.1s69,18.6,87.4,63.4"/>
</svg>
