<svg xmlns="http://www.w3.org/2000/svg" xmlns:xlink="http://www.w3.org/1999/xlink" version="1.1" x="0px" y="0px" viewBox="0 0 841.9 744.125" enable-background="new 0 0 841.9 595.3" xml:space="preserve"><path fill="#fafafa" d="M363,141.9L254.7,250.2l0,0l0,0l0,0c-1.2,1.2-1.8,2.4-3,3.6c-0.6,0.6-0.6,1.2-1.2,1.8  c-0.6,0.6-0.6,1.8-1.2,2.4s-0.6,1.8-0.6,2.4c0,0.6-0.6,1.2-0.6,2.4c0,1.2-0.6,3-0.6,4.2c0,0,0,0,0,0.6l0,0c0,1.2,0,3,0.6,4.2  c0,0.6,0.6,1.2,0.6,1.8s0.6,1.8,0.6,2.4c0.6,0.6,0.6,1.8,1.2,2.4c0.6,0.6,0.6,1.2,1.2,1.8c0.6,1.2,1.8,2.4,3,3.6c0,0,0,0,0,0.6  L363,391.9c9.5,9.5,24.4,9.5,33.9,0c4.8-4.8,7.1-10.7,7.1-16.7c0-6-2.4-11.9-7.1-16.7l-67.9-67.9h174.4c13.1,0,23.8-10.7,23.8-23.8  s-10.7-23.8-23.8-23.8H329.1l67.9-67.9c4.8-4.8,7.1-10.7,7.1-16.7c0-6-2.4-11.9-7.1-16.7C387.4,132.3,372.5,132.3,363,141.9z"/></svg>