<?xml version="1.0" encoding="utf-8"?>
<!-- Generator: Adobe Illustrator 16.0.0, SVG Export Plug-In . SVG Version: 6.00 Build 0)  -->
<!DOCTYPE svg PUBLIC "-//W3C//DTD SVG 1.1//EN" "http://www.w3.org/Graphics/SVG/1.1/DTD/svg11.dtd">
<svg version="1.1" id="Layer_1" xmlns="http://www.w3.org/2000/svg" xmlns:xlink="http://www.w3.org/1999/xlink" x="0px" y="0px"
	 width="300px" height="233.75px" viewBox="0 0 300 233.75" enable-background="new 0 0 300 233.75" xml:space="preserve">
<g>
	<g>
		
			<line fill="none" stroke="#47B870" stroke-width="12.1456" stroke-linecap="round" stroke-linejoin="round" stroke-miterlimit="10" x1="134.738" y1="227.538" x2="134.738" y2="7.058"/>
		
			<line fill="none" stroke="#47B870" stroke-width="12.1456" stroke-linecap="round" stroke-linejoin="round" stroke-miterlimit="10" x1="21.316" y1="7.058" x2="21.316" y2="226.768"/>
		
			<line fill="none" stroke="#47B870" stroke-width="12.4921" stroke-linecap="round" stroke-linejoin="round" stroke-miterlimit="10" x1="48.548" y1="7.058" x2="48.548" y2="227.536"/>
		
			<line fill="none" stroke="#47B870" stroke-width="12.4921" stroke-linecap="round" stroke-linejoin="round" stroke-miterlimit="10" x1="76.57" y1="7.058" x2="76.57" y2="227.536"/>
		
			<line fill="none" stroke="#47B870" stroke-width="12.4921" stroke-linecap="round" stroke-linejoin="round" stroke-miterlimit="10" x1="105.479" y1="7.058" x2="105.479" y2="227.536"/>
		
			<line fill="none" stroke="#47B870" stroke-width="12.6019" stroke-linecap="round" stroke-linejoin="round" stroke-miterlimit="10" x1="148.636" y1="39.322" x2="7.776" y2="39.322"/>
	</g>
	<defs>
		<filter id="Adobe_OpacityMaskFilter" filterUnits="userSpaceOnUse" x="13.934" y="52.537" width="286.512" height="168.906">
			<feColorMatrix  type="matrix" values="1 0 0 0 0  0 1 0 0 0  0 0 1 0 0  0 0 0 1 0"/>
		</filter>
	</defs>
	<mask maskUnits="userSpaceOnUse" x="13.934" y="52.537" width="286.512" height="168.906" id="SVGID_1_">
		<g filter="url(#Adobe_OpacityMaskFilter)">
			<g id="XMLID_10_">
				<g>
					<path fill="#E5E5E5" d="M-72.962-27.89v279.938h428.469V-27.89H-72.962z M7.739,224.905V1.396h141.395v223.509H7.739z"/>
				</g>
			</g>
		</g>
	</mask>
	<g mask="url(#SVGID_1_)">
		
			<circle fill="none" stroke="#81878A" stroke-width="8.4387" stroke-linecap="round" stroke-linejoin="round" stroke-miterlimit="10" cx="245.501" cy="166.494" r="50.726"/>
		
			<path fill="none" stroke="#81878A" stroke-width="8.4387" stroke-linecap="round" stroke-linejoin="round" stroke-miterlimit="10" d="
			M18.153,166.493c0,28.014,22.713,50.729,50.726,50.729c28.017,0,50.729-22.716,50.729-50.729
			c0-28.015-22.712-50.725-50.729-50.725C40.866,115.769,18.153,138.479,18.153,166.493z"/>
		
			<path fill="none" stroke="#81878A" stroke-width="8.4387" stroke-linecap="round" stroke-linejoin="round" stroke-miterlimit="10" d="
			M234.644,166.493c0,5.994,4.861,10.857,10.857,10.857c6,0,10.854-4.863,10.854-10.857c0-6.002-4.854-10.859-10.854-10.859
			C239.505,155.634,234.644,160.491,234.644,166.493z"/>
		
			<path fill="none" stroke="#81878A" stroke-width="8.4387" stroke-linecap="round" stroke-linejoin="round" stroke-miterlimit="10" d="
			M142.697,166.493c0,9.15,7.422,16.576,16.575,16.576c9.159,0,16.578-7.426,16.578-16.576c0-9.16-7.419-16.578-16.578-16.578
			C150.119,149.917,142.697,157.333,142.697,166.493z"/>
		
			<circle fill="none" stroke="#81878A" stroke-width="8.4387" stroke-linecap="round" stroke-linejoin="round" stroke-miterlimit="10" cx="68.879" cy="165.932" r="10.858"/>
		
			<line fill="none" stroke="#81878A" stroke-width="8.4387" stroke-linecap="round" stroke-linejoin="round" stroke-miterlimit="10" x1="245.501" y1="155.634" x2="159.272" y2="149.917"/>
		
			<line fill="none" stroke="#81878A" stroke-width="8.4387" stroke-linecap="round" stroke-linejoin="round" stroke-miterlimit="10" x1="245.501" y1="177.352" x2="159.272" y2="183.069"/>
		
			<line fill="none" stroke="#81878A" stroke-width="8.4387" stroke-linecap="round" stroke-linejoin="round" stroke-miterlimit="10" x1="255.331" y1="161.898" x2="209.38" y2="88.587"/>
		
			<polyline fill="none" stroke="#81878A" stroke-width="8.4387" stroke-linecap="round" stroke-linejoin="round" stroke-miterlimit="10" points="
			72.304,155.634 109.792,56.757 132.915,56.757 		"/>
		
			<line fill="none" stroke="#81878A" stroke-width="8.4387" stroke-linecap="round" stroke-linejoin="round" stroke-miterlimit="10" x1="166.716" y1="151.682" x2="217.058" y2="77.225"/>
		
			<line fill="none" stroke="#81878A" stroke-width="8.4387" stroke-linecap="round" stroke-linejoin="round" stroke-miterlimit="10" x1="150.104" y1="152.68" x2="97.516" y2="95.304"/>
		
			<path fill="none" stroke="#81878A" stroke-width="8.4387" stroke-linecap="round" stroke-linejoin="round" stroke-miterlimit="10" d="
			M194.919,70.009c0,3.981,3.228,7.209,7.207,7.209h26.203c3.983,0,7.209-3.228,7.209-7.209l0,0c0-3.979-3.226-7.209-7.209-7.209
			h-26.203C198.144,62.8,194.919,66.031,194.919,70.009L194.919,70.009z"/>
		
			<line fill="none" stroke="#81878A" stroke-width="8.4387" stroke-linecap="round" stroke-linejoin="round" stroke-miterlimit="10" x1="102.607" y1="75.692" x2="135.4" y2="111.785"/>
		
			<path fill="none" stroke="#81878A" stroke-width="8.4387" stroke-linecap="round" stroke-linejoin="round" stroke-miterlimit="10" d="
			M209.38,88.587c0,0-36.355,61.761-73.979,23.197"/>
	</g>
</g>
</svg>
