<svg xmlns="http://www.w3.org/2000/svg" xmlns:xlink="http://www.w3.org/1999/xlink" version="1.1" x="0px" y="0px" viewBox="0 0 100 100" style="enable-background:new 0 0 100 100;" xml:space="preserve">
	<g>
		<path stroke="#47B970" fill="#47B970" d="M25,37.9c-7.1,0-12.9,5.8-12.9,12.9S17.9,63.7,25,63.7s12.9-5.8,12.9-12.9S32.2,37.9,25,37.9z M25,58.7   c-4.4,0-7.9-3.6-7.9-7.9c0-4.4,3.6-7.9,7.9-7.9s7.9,3.6,7.9,7.9C32.9,55.2,29.4,58.7,25,58.7z"/>
		<path stroke="#47B970" fill="#47B970" d="M75,31.1c7.1,0,12.9-5.8,12.9-12.9S82.1,5.3,75,5.3s-12.9,5.8-12.9,12.9S67.8,31.1,75,31.1z M75,10.3   c4.4,0,7.9,3.6,7.9,7.9c0,4.4-3.6,7.9-7.9,7.9s-7.9-3.6-7.9-7.9C67.1,13.8,70.6,10.3,75,10.3z"/>
		<path stroke="#47B970" fill="#47B970" d="M75,68.9c-7.1,0-12.9,5.8-12.9,12.9S67.8,94.7,75,94.7s12.9-5.8,12.9-12.9S82.1,68.9,75,68.9z M75,89.7   c-4.4,0-7.9-3.6-7.9-7.9c0-4.4,3.6-7.9,7.9-7.9s7.9,3.6,7.9,7.9C82.9,86.2,79.3,89.7,75,89.7z"/>
		<path stroke="#47B970" fill="#47B970" d="M63.2,28.2c-1.1-1.3-2-2.7-2.6-4.3L38.3,41c1,1.4,1.8,2.9,2.4,4.5L63.2,28.2z"/>
		<path stroke="#47B970" fill="#47B970" d="M41,55.7l-3.1,4l22.4,17.2c0.6-1.6,1.4-3.1,2.4-4.5L41,55.7z"/>
	</g>
</svg>