
<svg xmlns="http://www.w3.org/2000/svg" xmlns:xlink="http://www.w3.org/1999/xlink" version="1.1" x="0px" y="0px" viewBox="0 0 30.925 30.925" style="enable-background:new 0 0 30.925 28.525;" xml:space="preserve">
	<g fill="#fff">
		<path d="M28.925,24.354h-8c-1.104,0-2-0.896-2-2s0.896-2,2-2h8c1.104,0,2,0.896,2,2S30.029,24.354,28.925,24.354z"/>
		<path d="M24.925,28.354c-1.104,0-2-0.896-2-2v-8c0-1.104,0.896-2,2-2s2,0.896,2,2v8C26.925,27.458,26.029,28.354,24.925,28.354z"/>
		<path d="M10.188,28.525c0,0,10.188-8.15,10.188-18.338C20.375,4.561,15.814,0,10.188,0S0,4.561,0,10.188   C0,20.375,10.188,28.525,10.188,28.525z M6.112,10.188c0-2.25,1.824-4.075,4.075-4.075s4.075,1.825,4.075,4.075   s-1.824,4.075-4.075,4.075S6.112,12.438,6.112,10.188z"/>
	</g>
</svg>