<?xml version="1.0" encoding="utf-8"?>
<!-- Generator: Adobe Illustrator 22.1.0, SVG Export Plug-In . SVG Version: 6.00 Build 0)  -->
<svg version="1.1" id="Layer_1" xmlns="http://www.w3.org/2000/svg" xmlns:xlink="http://www.w3.org/1999/xlink" x="0px" y="0px"
	 viewBox="0 0 100 100" style="enable-background:new 0 0 100 100;" xml:space="preserve">
<style type="text/css">
	.st0{fill:none;stroke:#828B90;stroke-width:6.6136;stroke-linecap:round;stroke-linejoin:round;stroke-miterlimit:10;}
</style>
<title>Artboard 3</title>
<path class="st0" d="M37.5,59.8c0,9.2-7.4,16.6-16.6,16.6c-9.2,0-16.6-7.4-16.6-16.6c0-9.2,7.4-16.6,16.6-16.6
	C30,43.2,37.5,50.6,37.5,59.8z"/>
<path class="st0" d="M95.3,59.8c0,9.2-7.4,16.6-16.6,16.6c-9.2,0-16.6-7.4-16.6-16.6c0-9.2,7.4-16.6,16.6-16.6
	C87.9,43.2,95.3,50.6,95.3,59.8z"/>
<line class="st0" x1="21" y1="59.4" x2="32.7" y2="34.3"/>
<line class="st0" x1="77.6" y1="56.3" x2="67.1" y2="28.6"/>
<path class="st0" d="M49.1,59.8"/>
<path class="st0" d="M58.3,71"/>
<polyline class="st0" points="21,59.8 49.1,59.4 69.3,36.5 "/>
<path class="st0" d="M9.7,62.4"/>
<path class="st0" d="M17.6,71.1"/>
<path class="st0" d="M28.9,30.1"/>
<path class="st0" d="M36.5,30.1"/>
<line class="st0" x1="33.5" y1="34.3" x2="49.1" y2="59.4"/>
<line class="st0" x1="26.9" y1="27.3" x2="38.1" y2="27.3"/>
<line class="st0" x1="54.8" y1="27.3" x2="66.1" y2="27.3"/>
</svg>
