<svg xmlns="http://www.w3.org/2000/svg" xmlns:xlink="http://www.w3.org/1999/xlink" viewBox="0 0 141.73 141.73"><defs><style>.cls-1,.cls-3,.cls-4{fill:none;stroke-linecap:round;stroke-linejoin:round;}.cls-1{stroke:#000;stroke-width:20px;filter:url(#luminosity-noclip);}.cls-2{mask:url(#mask);}.cls-3{stroke:#828b90;stroke-width:3.94px;}.cls-4{stroke:#47b870;stroke-width:5.67px;}</style><filter id="luminosity-noclip" x="0.48" y="56.64" width="147.61" height="91.68" filterUnits="userSpaceOnUse" color-interpolation-filters="sRGB"><feFlood flood-color="#fff" result="bg"/><feBlend in="SourceGraphic" in2="bg"/></filter><mask id="mask" x="0.48" y="56.64" width="147.61" height="91.68" maskUnits="userSpaceOnUse"><polygon class="cls-1" points="101.73 138.32 138.09 138.32 138.09 109.26 101.73 138.32"/></mask></defs><title>Icon_guide_deroda</title><g id="Layer_2" data-name="Layer 2"><g class="cls-2"><path class="cls-3" d="M49.81,109.83A23.68,23.68,0,1,1,26.13,86.15,23.68,23.68,0,0,1,49.81,109.83Z"/><path class="cls-3" d="M132.25,109.83a23.68,23.68,0,1,1-23.68-23.68A23.68,23.68,0,0,1,132.25,109.83Z"/><path class="cls-3" d="M31.2,109.83a5.07,5.07,0,1,1-5.07-5.07A5.07,5.07,0,0,1,31.2,109.83Z"/><path class="cls-3" d="M74.12,109.83a7.74,7.74,0,1,1-7.74-7.74A7.75,7.75,0,0,1,74.12,109.83Z"/><path class="cls-3" d="M113.64,109.57a5.07,5.07,0,1,1-5.07-5.07A5.07,5.07,0,0,1,113.64,109.57Z"/><line class="cls-3" x1="26.13" y1="104.76" x2="66.38" y2="102.09"/><line class="cls-3" x1="26.13" y1="114.9" x2="66.38" y2="117.57"/><line class="cls-3" x1="21.54" y1="107.68" x2="42.99" y2="73.46"/><polyline class="cls-3" points="106.97 104.76 89.48 58.61 78.68 58.61"/><line class="cls-3" x1="62.91" y1="102.91" x2="39.41" y2="68.16"/><line class="cls-3" x1="70.66" y1="103.38" x2="95.21" y2="76.6"/><path class="cls-3" d="M49.74,64.79a3.36,3.36,0,0,1-3.36,3.37H34.15a3.37,3.37,0,0,1-3.37-3.37h0a3.36,3.36,0,0,1,3.37-3.36H46.38a3.35,3.35,0,0,1,3.36,3.36Z"/><line class="cls-3" x1="92.83" y1="67.45" x2="77.52" y2="84.29"/><path class="cls-3" d="M43,73.46s17,28.83,34.53,10.83"/></g><polygon class="cls-4" points="101.73 138.32 138.09 138.32 138.09 109.26 101.73 138.32"/></g></svg>