<?xml version="1.0" encoding="utf-8"?>
<!-- Generator: Adobe Illustrator 16.0.0, SVG Export Plug-In . SVG Version: 6.00 Build 0)  -->
<!DOCTYPE svg PUBLIC "-//W3C//DTD SVG 1.1//EN" "http://www.w3.org/Graphics/SVG/1.1/DTD/svg11.dtd">
<svg version="1.1" id="Layer_1" xmlns="http://www.w3.org/2000/svg" xmlns:xlink="http://www.w3.org/1999/xlink" x="0px" y="0px"
	 width="65.965px" height="51.396px" viewBox="0 0 65.965 51.396" enable-background="new 0 0 65.965 51.396" xml:space="preserve">
<g>
	<path fill="#58595B" d="M11.772,5.887c0,3.252-2.637,5.886-5.887,5.886C2.639,11.772,0,9.139,0,5.887C0,2.639,2.639,0,5.886,0
		C9.136,0,11.772,2.639,11.772,5.887z"/>
	
		<line fill="none" stroke="#58595B" stroke-width="11.7846" stroke-linecap="round" stroke-linejoin="round" stroke-miterlimit="10" x1="27.253" y1="5.891" x2="59.923" y2="5.891"/>
	<path fill="#58595B" d="M11.772,25.695c0,3.254-2.637,5.889-5.887,5.889C2.639,31.584,0,28.949,0,25.695
		c0-3.25,2.639-5.883,5.886-5.883C9.136,19.813,11.772,22.445,11.772,25.695z"/>
	
		<line fill="none" stroke="#58595B" stroke-width="11.7846" stroke-linecap="round" stroke-linejoin="round" stroke-miterlimit="10" x1="27.253" y1="25.701" x2="59.923" y2="25.701"/>
	<path fill="#58595B" d="M11.772,45.512c0,3.25-2.637,5.885-5.887,5.885C2.639,51.396,0,48.762,0,45.512
		c0-3.249,2.639-5.89,5.886-5.89C9.136,39.622,11.772,42.263,11.772,45.512z"/>
	
		<line fill="none" stroke="#58595B" stroke-width="11.7846" stroke-linecap="round" stroke-linejoin="round" stroke-miterlimit="10" x1="27.253" y1="45.512" x2="59.923" y2="45.512"/>
</g>
</svg>
