<?xml version="1.0" encoding="utf-8"?>
<!-- Generator: Adobe Illustrator 22.0.0, SVG Export Plug-In . SVG Version: 6.00 Build 0)  -->
<svg version="1.1" id="Layer_1" xmlns="http://www.w3.org/2000/svg" xmlns:xlink="http://www.w3.org/1999/xlink" x="0px" y="0px"
	 viewBox="0 0 279.7 264.4" style="enable-background:new 0 0 279.7 264.4;" xml:space="preserve">
<style type="text/css">
	.st0{fill:#333333;}
</style>
<path class="st0" d="M115.5,7.2L7.2,115.5l0,0l0,0l0,0c-1.2,1.2-1.8,2.4-3,3.6c-0.6,0.6-0.6,1.2-1.2,1.8c-0.6,0.6-0.6,1.8-1.2,2.4
	s-0.6,1.8-0.6,2.4s-0.6,1.2-0.6,2.4c0,1.2-0.6,3-0.6,4.2c0,0,0,0,0,0.6l0,0c0,1.2,0,3,0.6,4.2c0,0.6,0.6,1.2,0.6,1.8
	s0.6,1.8,0.6,2.4c0.6,0.6,0.6,1.8,1.2,2.4c0.6,0.6,0.6,1.2,1.2,1.8c0.6,1.2,1.8,2.4,3,3.6c0,0,0,0,0,0.6l108.3,107.5
	c9.5,9.5,24.4,9.5,33.9,0c4.8-4.8,7.1-10.7,7.1-16.7s-2.4-11.9-7.1-16.7l-67.9-67.9h174.4c13.1,0,23.8-10.7,23.8-23.8
	s-10.7-23.8-23.8-23.8H81.6l67.9-67.9c4.8-4.8,7.1-10.7,7.1-16.7s-2.4-11.9-7.1-16.7C139.9-2.4,125-2.4,115.5,7.2z"/>
</svg>
