<?xml version="1.0" encoding="utf-8"?>
<!-- Generator: Adobe Illustrator 16.0.0, SVG Export Plug-In . SVG Version: 6.00 Build 0)  -->
<!DOCTYPE svg PUBLIC "-//W3C//DTD SVG 1.1//EN" "http://www.w3.org/Graphics/SVG/1.1/DTD/svg11.dtd">
<svg version="1.1" id="Layer_1" xmlns="http://www.w3.org/2000/svg" xmlns:xlink="http://www.w3.org/1999/xlink" x="0px" y="0px"
	 width="361px" height="213.667px" viewBox="0 0 361 213.667" enable-background="new 0 0 361 213.667" xml:space="preserve">
<defs>
	<filter id="Adobe_OpacityMaskFilter" filterUnits="userSpaceOnUse" x="0.897" y="0.766" width="360.508" height="212.479">
		<feColorMatrix  type="matrix" values="1 0 0 0 0  0 1 0 0 0  0 0 1 0 0  0 0 0 1 0"/>
	</filter>
</defs>
<mask maskUnits="userSpaceOnUse" x="0.897" y="0.766" width="360.508" height="212.479" id="SVGID_1_">
	<g filter="url(#Adobe_OpacityMaskFilter)">
		<g id="XMLID_2_">
			<g>
				<polygon fill="#FFFFFF" points="408.018,-70.361 408.018,259.591 -34.821,246.949 -34.821,-70.361 				"/>
			</g>
			<g>
				
					<path fill="none" stroke="#000000" stroke-width="25.5118" stroke-linecap="round" stroke-linejoin="round" stroke-miterlimit="10" d="
					M112.402,205.311v-98.665c0-37.667,30.542-68.239,68.239-68.239c18.863,0,35.916,7.65,48.267,20.001
					c12.352,12.351,19.973,29.404,19.973,48.237v98.665"/>
				
					<polygon fill="none" stroke="#000000" stroke-width="25.5118" stroke-linecap="round" stroke-linejoin="round" stroke-miterlimit="10" points="
					408.018,259.591 -34.821,246.949 -34.821,-70.361 408.018,-70.361 				"/>
			</g>
		</g>
	</g>
</mask>
<g mask="url(#SVGID_1_)">
	
		<path fill="none" stroke="#82878A" stroke-width="10.5141" stroke-linecap="round" stroke-linejoin="round" stroke-miterlimit="10" d="
		M133.845,144.142c0,35.26-28.587,63.846-63.845,63.846c-35.26,0-63.846-28.586-63.846-63.846S34.74,80.296,70,80.296
		C105.258,80.296,133.845,108.882,133.845,144.142z"/>
	
		<path fill="none" stroke="#82878A" stroke-width="10.5141" stroke-linecap="round" stroke-linejoin="round" stroke-miterlimit="10" d="
		M356.148,144.142c0,35.26-28.586,63.846-63.845,63.846c-35.265,0-63.851-28.586-63.851-63.846s28.586-63.846,63.851-63.846
		C327.563,80.296,356.148,108.882,356.148,144.142z"/>
	
		<path fill="none" stroke="#82878A" stroke-width="10.5141" stroke-linecap="round" stroke-linejoin="round" stroke-miterlimit="10" d="
		M83.667,144.142c0,7.547-6.12,13.666-13.667,13.666c-7.553,0-13.667-6.119-13.667-13.666c0-7.553,6.114-13.666,13.667-13.666
		C77.547,130.476,83.667,136.589,83.667,144.142z"/>
	
		<path fill="none" stroke="#82878A" stroke-width="10.5141" stroke-linecap="round" stroke-linejoin="round" stroke-miterlimit="10" d="
		M199.393,144.142c0,11.518-9.343,20.865-20.86,20.865c-11.528,0-20.866-9.348-20.866-20.865c0-11.529,9.338-20.866,20.866-20.866
		C190.05,123.276,199.393,132.613,199.393,144.142z"/>
	
		<circle fill="none" stroke="#82878A" stroke-width="10.5141" stroke-linecap="round" stroke-linejoin="round" stroke-miterlimit="10" cx="292.304" cy="143.437" r="13.667"/>
	
		<line fill="none" stroke="#82878A" stroke-width="10.5141" stroke-linecap="round" stroke-linejoin="round" stroke-miterlimit="10" x1="70" y1="130.476" x2="178.532" y2="123.276"/>
	
		<line fill="none" stroke="#82878A" stroke-width="10.5141" stroke-linecap="round" stroke-linejoin="round" stroke-miterlimit="10" x1="70" y1="157.808" x2="178.532" y2="165.007"/>
	
		<line fill="none" stroke="#82878A" stroke-width="10.5141" stroke-linecap="round" stroke-linejoin="round" stroke-miterlimit="10" x1="57.629" y1="138.359" x2="115.466" y2="46.085"/>
	
		<polyline fill="none" stroke="#82878A" stroke-width="10.5141" stroke-linecap="round" stroke-linejoin="round" stroke-miterlimit="10" points="
		287.991,130.476 240.809,6.023 211.706,6.023 	"/>
	
		<line fill="none" stroke="#82878A" stroke-width="10.5141" stroke-linecap="round" stroke-linejoin="round" stroke-miterlimit="10" x1="169.163" y1="125.5" x2="105.802" y2="31.782"/>
	
		<line fill="none" stroke="#82878A" stroke-width="10.5141" stroke-linecap="round" stroke-linejoin="round" stroke-miterlimit="10" x1="190.07" y1="126.757" x2="256.259" y2="54.539"/>
	
		<path fill="none" stroke="#82878A" stroke-width="10.5141" stroke-linecap="round" stroke-linejoin="round" stroke-miterlimit="10" d="
		M133.667,22.702c0,5.014-4.06,9.074-9.074,9.074h-32.98c-5.014,0-9.074-4.061-9.074-9.074l0,0c0-5.009,4.061-9.074,9.074-9.074
		h32.979C129.606,13.627,133.667,17.693,133.667,22.702L133.667,22.702z"/>
	
		<line fill="none" stroke="#82878A" stroke-width="10.5141" stroke-linecap="round" stroke-linejoin="round" stroke-miterlimit="10" x1="253.5" y1="44.084" x2="114.119" y2="44.084"/>
</g>
<path fill="none" stroke="#B7B7B7" stroke-width="16.8964" stroke-linecap="round" stroke-linejoin="round" stroke-miterlimit="10" d="
	M112.688,205.091v-98.876c0-37.782,30.63-68.421,68.41-68.421l0,0c37.783,0,68.412,30.639,68.412,68.421v98.876"/>
<defs>
	<filter id="Adobe_OpacityMaskFilter_1_" filterUnits="userSpaceOnUse" x="70" y="57.542" width="66.212" height="66.211">
		<feColorMatrix  type="matrix" values="1 0 0 0 0  0 1 0 0 0  0 0 1 0 0  0 0 0 1 0"/>
	</filter>
</defs>
<mask maskUnits="userSpaceOnUse" x="70" y="57.542" width="66.212" height="66.211" id="SVGID_2_">
	<g filter="url(#Adobe_OpacityMaskFilter_1_)">
		<rect x="57.111" y="45.084" fill="#FFFFFF" width="112.833" height="85.667"/>
		<path d="M134.189,76.298c0,0-7.203,11.286-7.62,16.203c-0.282,3.325-37.896-19.688-37.896-19.688s7.144-12.282,10.64-16.369
			c2.991-3.496,18.61-3.381,18.61-3.381L134.189,76.298z"/>
		<path d="M86.611,73.914c0,0-8.917-2.828-13.367-1.592c-3.467,0.963-4.904,15.936-4.904,15.936s8.667-0.13,12.729,1.12
			S86.611,73.914,86.611,73.914z"/>
	</g>
</mask>
<path mask="url(#SVGID_2_)" fill="#47B870" d="M103.105,123.753C84.851,123.753,70,108.902,70,90.648
	c0-18.255,14.851-33.106,33.105-33.106c18.255,0,33.107,14.852,33.107,33.106S121.36,123.753,103.105,123.753z M103.105,67.148
	c-12.957,0-23.499,10.542-23.499,23.5c0,12.957,10.542,23.5,23.499,23.5c12.958,0,23.501-10.543,23.501-23.5
	C126.606,77.69,116.063,67.148,103.105,67.148z"/>
</svg>
