<?xml version="1.0" encoding="utf-8"?>
<!-- Generator: Adobe Illustrator 22.1.0, SVG Export Plug-In . SVG Version: 6.00 Build 0)  -->
<svg version="1.1" id="Layer_1" xmlns="http://www.w3.org/2000/svg" xmlns:xlink="http://www.w3.org/1999/xlink" x="0px" y="0px"
	 viewBox="0 0 1205 1205" style="enable-background:new 0 0 1205 1205;" xml:space="preserve">
<style type="text/css">
	.st0{fill:none;stroke:#828B90;stroke-width:6.6136;stroke-linecap:round;stroke-linejoin:round;stroke-miterlimit:10;}
</style>
<title>Artboard 3</title>
<path class="st0" d="M615.2,612.3c0,9.2,7.4,16.6,16.6,16.6s16.6-7.4,16.6-16.6s-7.4-16.6-16.6-16.6c-2.3,0-4.5,0.5-6.4,1.3"/>
<path class="st0" d="M559.4,612.3c0,9.2,7.4,16.6,16.6,16.6s16.6-7.4,16.6-16.6s-7.4-16.6-16.6-16.6S559.4,603.1,559.4,612.3z"/>
<line class="st0" x1="631.7" y1="611.9" x2="620" y2="586.8"/>
<path class="st0" d="M603.6,612.3"/>
<path class="st0" d="M596.4,623.5"/>
<line class="st0" x1="631.7" y1="612.3" x2="592.6" y2="611.9"/>
<path class="st0" d="M643,614.9"/>
<path class="st0" d="M635.1,623.6"/>
<path class="st0" d="M623.8,582.6"/>
<path class="st0" d="M616.2,582.6"/>
<line class="st0" x1="625.9" y1="576.2" x2="603.6" y2="611.9"/>
<path class="st0" d="M591.6,586.8"/>
<line class="st0" x1="591.6" y1="586.8" x2="613.3" y2="596.4"/>
<line class="st0" x1="598.5" y1="575.9" x2="576" y2="611.9"/>
<line class="st0" x1="629.7" y1="575.9" x2="618.5" y2="575.9"/>
<line class="st0" x1="598.1" y1="575.9" x2="583.9" y2="575.9"/>
<path class="st0" d="M762.6,612.3c0,9.2,7.4,16.6,16.6,16.6s16.6-7.4,16.6-16.6s-7.4-16.6-16.6-16.6c-2.3,0-4.5,0.5-6.4,1.3"/>
<path class="st0" d="M706.8,612.3c0,9.2,7.4,16.6,16.6,16.6c9.2,0,16.6-7.4,16.6-16.6s-7.4-16.6-16.6-16.6
	C714.2,595.7,706.8,603.1,706.8,612.3z"/>
<line class="st0" x1="779.1" y1="611.9" x2="767.4" y2="586.8"/>
<path class="st0" d="M751,612.3"/>
<path class="st0" d="M743.8,623.5"/>
<line class="st0" x1="779.1" y1="612.3" x2="740" y2="611.9"/>
<path class="st0" d="M790.4,614.9"/>
<path class="st0" d="M782.5,623.6"/>
<path class="st0" d="M771.2,582.6"/>
<path class="st0" d="M763.6,582.6"/>
<line class="st0" x1="773.3" y1="576.2" x2="751" y2="611.9"/>
<path class="st0" d="M739,586.8"/>
<line class="st0" x1="739" y1="586.8" x2="767.4" y2="586.8"/>
<line class="st0" x1="745.9" y1="575.9" x2="723.4" y2="611.9"/>
<line class="st0" x1="777.1" y1="575.9" x2="765.9" y2="575.9"/>
<line class="st0" x1="745.5" y1="575.9" x2="735.4" y2="575.9"/>
<path class="st0" d="M467.2,612.3c0,9.2,7.4,16.6,16.6,16.6c9.2,0,16.6-7.4,16.6-16.6s-7.4-16.6-16.6-16.6c-2.3,0-4.4,0.5-6.4,1.3"
	/>
<path class="st0" d="M411.4,612.3c0,9.2,7.4,16.6,16.6,16.6c9.2,0,16.6-7.4,16.6-16.6s-7.4-16.6-16.6-16.6
	C418.8,595.7,411.4,603.1,411.4,612.3z"/>
<line class="st0" x1="483.7" y1="611.9" x2="472" y2="586.8"/>
<path class="st0" d="M455.6,612.3"/>
<path class="st0" d="M448.4,623.5"/>
<line class="st0" x1="483.7" y1="612.3" x2="444.6" y2="611.9"/>
<path class="st0" d="M495,614.9"/>
<path class="st0" d="M487.1,623.6"/>
<path class="st0" d="M475.8,582.6"/>
<path class="st0" d="M468.2,582.6"/>
<line class="st0" x1="477.9" y1="576.2" x2="455.6" y2="611.9"/>
<path class="st0" d="M443.6,586.8"/>
<line class="st0" x1="443.6" y1="586.8" x2="472" y2="586.8"/>
<line class="st0" x1="450.5" y1="575.9" x2="428" y2="611.9"/>
<line class="st0" x1="481.7" y1="575.9" x2="470.5" y2="575.9"/>
<line class="st0" x1="450.1" y1="575.9" x2="435.9" y2="575.9"/>
<path class="st0" d="M471,766.3c0,9.2,7.4,16.6,16.6,16.6c9.2,0,16.6-7.4,16.6-16.6s-7.4-16.6-16.6-16.6c-2.3,0-4.5,0.5-6.4,1.3"/>
<path class="st0" d="M415.2,766.3c0,9.2,7.4,16.6,16.6,16.6c9.2,0,16.6-7.4,16.6-16.6s-7.4-16.6-16.6-16.6
	C422.6,749.7,415.2,757.1,415.2,766.3z"/>
<line class="st0" x1="487.5" y1="765.9" x2="475.8" y2="740.8"/>
<path class="st0" d="M459.4,766.3"/>
<path class="st0" d="M452.2,777.5"/>
<line class="st0" x1="487.5" y1="766.3" x2="448.4" y2="765.9"/>
<path class="st0" d="M490.9,777.6"/>
<path class="st0" d="M479.6,736.6"/>
<path class="st0" d="M472,736.6"/>
<line class="st0" x1="484.8" y1="724.3" x2="459.4" y2="765.9"/>
<path class="st0" d="M447.4,740.8"/>
<line class="st0" x1="447.4" y1="740.8" x2="475.8" y2="740.8"/>
<line class="st0" x1="457.4" y1="723.9" x2="431.8" y2="765.9"/>
<line class="st0" x1="488.6" y1="723.9" x2="477.4" y2="723.9"/>
<line class="st0" x1="457" y1="723.9" x2="442.8" y2="723.9"/>
</svg>
