<svg xmlns="http://www.w3.org/2000/svg" xmlns:xlink="http://www.w3.org/1999/xlink" version="1.1" x="0px" y="0px" viewBox="0 0 100 100" style="enable-background:new 0 0 100 100;" xml:space="preserve"><style type="text/css">
	.st0{fill:none;stroke:#333;stroke-width:2;stroke-miterlimit:10;}
</style><g><path d="M85.3,13.5l-11,11c-7.5-3.1-15.7-4.9-24.3-4.9c-17.5,0-33.2,7.1-44.7,18.5l5,5C20.5,32.9,34.5,26.6,50,26.6   c6.6,0,13,1.2,18.9,3.3L60,38.8c-3.2-0.7-6.6-1.1-10-1.1c-12.5,0-23.8,5.1-31.9,13.2l5,5C30,48.9,39.5,44.7,50,44.7   c1.3,0,2.6,0.1,3.9,0.2L41.8,57c-4.2,1.3-7.9,3.6-11,6.7l2.2,2.2l-17,17l3.7,3.7l69.3-69.3L85.3,13.5z"/><path d="M43.6,76.4l5,5c0.4-0.4,0.9-0.6,1.4-0.6c0.5,0,1,0.2,1.4,0.6l5-5c-1.6-1.6-3.9-2.6-6.4-2.6C47.5,73.7,45.3,74.8,43.6,76.4z   "/><path d="M49.5,62.7c0.2,0,0.3,0,0.5,0c5.5,0,10.5,2.2,14.2,5.9l5-5c-3.6-3.6-8.1-6.1-13.2-7.3L49.5,62.7z"/><path d="M64.7,47.6c4.6,1.9,8.8,4.7,12.3,8.2l5-5c-3.5-3.5-7.5-6.4-11.9-8.6L64.7,47.6z"/><path d="M83.2,29l-5.1,5.1c4.2,2.5,8.2,5.5,11.6,8.9l5-5C91.2,34.6,87.4,31.6,83.2,29z"/></g></svg>