<?xml version="1.0" encoding="utf-8"?>
<!-- Generator: Adobe Illustrator 22.1.0, SVG Export Plug-In . SVG Version: 6.00 Build 0)  -->
<svg version="1.1" id="Layer_1" xmlns="http://www.w3.org/2000/svg" xmlns:xlink="http://www.w3.org/1999/xlink" x="0px" y="0px"
	 viewBox="0 0 283.5 283.5" style="enable-background:new 0 0 283.5 283.5;" xml:space="preserve">
<style type="text/css">
	.st0{fill:none;stroke:#333333;stroke-width:25.9677;stroke-linecap:round;stroke-linejoin:round;stroke-miterlimit:10;}
	.st1{enable-background:new    ;}
	.st2{fill:#333333;}
</style>
<path class="st0" d="M157.1,268.5c-70,7.6-133-43-140.6-113s43-133,113-140.6s133,43,140.6,113S227.1,260.9,157.1,268.5z"/>
<g class="st1">
	<path class="st2" d="M130.3,97.6c-3.6-3.6-5.4-7.9-5.4-13c0-5.1,1.8-9.4,5.4-12.9c3.6-3.5,7.9-5.3,13-5.3c5.1,0,9.4,1.8,13,5.3
		c3.6,3.5,5.4,7.8,5.4,12.9c0,5.1-1.8,9.4-5.4,12.9c-3.6,3.5-7.9,5.3-13,5.3C138.2,102.8,133.9,101.1,130.3,97.6z M127.5,200.6
		v-66.8c0-4.4,1.5-8.1,4.6-11.2c3.1-3.1,6.8-4.6,11.2-4.6c4.4,0,8.1,1.5,11.2,4.6c3.1,3.1,4.6,6.8,4.6,11.2v66.8
		c0,4.4-1.5,8.1-4.6,11.2c-3.1,3.1-6.8,4.6-11.2,4.6c-4.4,0-8.1-1.5-11.2-4.6C129,208.7,127.5,205,127.5,200.6z"/>
</g>
</svg>
