<?xml version="1.0" encoding="utf-8"?>
<!-- Generator: Adobe Illustrator 16.0.0, SVG Export Plug-In . SVG Version: 6.00 Build 0)  -->
<!DOCTYPE svg PUBLIC "-//W3C//DTD SVG 1.1//EN" "http://www.w3.org/Graphics/SVG/1.1/DTD/svg11.dtd">
<svg version="1.1" id="Layer_1" xmlns="http://www.w3.org/2000/svg" xmlns:xlink="http://www.w3.org/1999/xlink" x="0px" y="0px"
	 width="140.834px" height="147.25px" viewBox="0 0 140.834 147.25" enable-background="new 0 0 140.834 147.25"
	 xml:space="preserve">
<g>
	<g>
		<defs>
			<filter id="Adobe_OpacityMaskFilter" filterUnits="userSpaceOnUse" x="20.154" y="80.374" width="101.758" height="59.986">
				<feColorMatrix  type="matrix" values="1 0 0 0 0  0 1 0 0 0  0 0 1 0 0  0 0 0 1 0"/>
			</filter>
		</defs>
		<mask maskUnits="userSpaceOnUse" x="20.154" y="80.374" width="101.758" height="59.986" id="SVGID_1_">
			<g filter="url(#Adobe_OpacityMaskFilter)">
				<rect x="17.014" y="75.648" fill="#FFFFFF" width="106.904" height="68.479"/>
				<rect x="62.742" y="91.754" fill="#020202" width="15" height="52.374"/>
			</g>
		</mask>
		<g mask="url(#SVGID_1_)">
			<g>
				
					<circle fill="none" stroke="#E5E5E5" stroke-width="2.9969" stroke-linecap="round" stroke-linejoin="round" stroke-miterlimit="10" cx="39.668" cy="120.846" r="18.016"/>
				
					<circle fill="none" stroke="#E5E5E5" stroke-width="2.9969" stroke-linecap="round" stroke-linejoin="round" stroke-miterlimit="10" cx="102.397" cy="120.846" r="18.017"/>
				
					<circle fill="none" stroke="#E5E5E5" stroke-width="2.9969" stroke-linecap="round" stroke-linejoin="round" stroke-miterlimit="10" cx="39.668" cy="120.846" r="3.856"/>
				
					<circle fill="none" stroke="#E5E5E5" stroke-width="2.9969" stroke-linecap="round" stroke-linejoin="round" stroke-miterlimit="10" cx="70.293" cy="120.846" r="5.887"/>
				
					<circle fill="none" stroke="#E5E5E5" stroke-width="2.9969" stroke-linecap="round" stroke-linejoin="round" stroke-miterlimit="10" cx="102.398" cy="120.646" r="3.856"/>
				
					<line fill="none" stroke="#E5E5E5" stroke-width="2.9969" stroke-linecap="round" stroke-linejoin="round" stroke-miterlimit="10" x1="39.668" y1="116.99" x2="70.294" y2="114.958"/>
				
					<line fill="none" stroke="#E5E5E5" stroke-width="2.9969" stroke-linecap="round" stroke-linejoin="round" stroke-miterlimit="10" x1="39.668" y1="124.703" x2="70.294" y2="126.734"/>
				
					<line fill="none" stroke="#E5E5E5" stroke-width="2.9969" stroke-linecap="round" stroke-linejoin="round" stroke-miterlimit="10" x1="36.177" y1="119.215" x2="52.498" y2="93.177"/>
				
					<polyline fill="none" stroke="#E5E5E5" stroke-width="2.9969" stroke-linecap="round" stroke-linejoin="round" stroke-miterlimit="10" points="
					101.182,116.99 87.867,81.872 79.654,81.872 				"/>
				
					<line fill="none" stroke="#E5E5E5" stroke-width="2.9969" stroke-linecap="round" stroke-linejoin="round" stroke-miterlimit="10" x1="67.65" y1="115.586" x2="49.771" y2="89.141"/>
				
					<line fill="none" stroke="#E5E5E5" stroke-width="2.9969" stroke-linecap="round" stroke-linejoin="round" stroke-miterlimit="10" x1="73.551" y1="115.94" x2="92.228" y2="95.562"/>
				
					<path fill="none" stroke="#E5E5E5" stroke-width="2.9969" stroke-linecap="round" stroke-linejoin="round" stroke-miterlimit="10" d="
					M57.633,86.578c0,1.415-1.146,2.561-2.561,2.561h-9.306c-1.415,0-2.561-1.146-2.561-2.561l0,0c0-1.413,1.146-2.561,2.561-2.561
					h9.306C56.487,84.018,57.633,85.165,57.633,86.578L57.633,86.578z"/>
				
					<line fill="none" stroke="#E5E5E5" stroke-width="2.9969" stroke-linecap="round" stroke-linejoin="round" stroke-miterlimit="10" x1="90.419" y1="88.596" x2="78.772" y2="101.416"/>
				
					<path fill="none" stroke="#E5E5E5" stroke-width="2.9969" stroke-linecap="round" stroke-linejoin="round" stroke-miterlimit="10" d="
					M52.498,93.177c0,0,12.913,21.935,26.275,8.239"/>
			</g>
		</g>
		
			<line fill="none" stroke="#46B770" stroke-width="5.9332" stroke-linejoin="round" stroke-miterlimit="10" x1="70.619" y1="40.976" x2="70.619" y2="145.503"/>
		
			<path fill="none" stroke="#47B870" stroke-width="5.6693" stroke-linecap="round" stroke-linejoin="round" stroke-miterlimit="10" d="
			M117.406,39.175c0-15.898-21.117-28.786-47.167-28.786c-26.049,0-47.167,12.888-47.167,28.786H117.406z"/>
	</g>
	<g>
		
			<line fill="none" stroke="#46B770" stroke-width="5.828" stroke-linecap="round" stroke-linejoin="round" stroke-miterlimit="10" x1="137.932" y1="144.281" x2="3.306" y2="144.281"/>
	</g>
</g>
</svg>
