<?xml version="1.0" encoding="utf-8"?>
<!-- Generator: Adobe Illustrator 16.0.0, SVG Export Plug-In . SVG Version: 6.00 Build 0)  -->
<!DOCTYPE svg PUBLIC "-//W3C//DTD SVG 1.1//EN" "http://www.w3.org/Graphics/SVG/1.1/DTD/svg11.dtd">
<svg version="1.1" id="Layer_1" xmlns="http://www.w3.org/2000/svg" xmlns:xlink="http://www.w3.org/1999/xlink" x="0px" y="0px"
	 width="285.5px" height="291.5px" viewBox="0 0 285.5 291.5" enable-background="new 0 0 285.5 291.5" xml:space="preserve">
<path fill="#47B970" d="M51.868,109.633l15.803,0.013l4.996-15.996l-0.123,0.387c0.708-2.205,2.151-2.813,3.761-2.813
	c1.491,0,3.129,0.567,3.786,2.896l-0.146-0.47l5.05,15.996l0.185,0.018h16.302h-0.496c2.421-0.066,3.445,1.328,3.892,2.752
	c0.48,1.535,0.339,3.091-1.558,4.431l0.349-0.267l-13.103,9.917l-0.057,0.144l5.512,16.92l-0.151-0.475
	c0.806,2.288-0.2,3.691-1.419,4.554c-1.314,0.932-2.84,1.271-4.695-0.124l0.328,0.249l-13.555-10.419l-13.646,10.486l0.329-0.247
	c-1.856,1.392-3.381,1.053-4.698,0.121c-1.217-0.862-2.223-2.267-1.417-4.546l-0.154,0.47l5.448-17.156h0.103l-12.798-9.898
	l0.334,0.241c-1.895-1.34-2.035-2.896-1.556-4.434c0.444-1.422,1.472-2.813,3.895-2.749"/>
<path fill="#47B970" d="M116.785,109.633l15.803,0.013l4.996-15.996l-0.126,0.387c0.708-2.205,2.153-2.813,3.761-2.813
	c1.494,0,3.132,0.567,3.789,2.896l-0.148-0.47l5.049,15.996l0.188,0.018h16.301h-0.498c2.419-0.066,3.448,1.328,3.895,2.752
	c0.48,1.535,0.339,3.091-1.558,4.431l0.349-0.267l-13.107,9.917l-0.052,0.144l5.512,16.92l-0.154-0.475
	c0.81,2.288-0.202,3.691-1.419,4.554c-1.314,0.932-2.84,1.271-4.693-0.124l0.326,0.249l-13.549-10.419l-13.649,10.486l0.326-0.247
	c-1.856,1.392-3.381,1.053-4.695,0.121c-1.217-0.862-2.229-2.267-1.42-4.546l-0.151,0.47l5.445-17.156h0.105l-12.8-9.898
	l0.336,0.241c-1.895-1.34-2.038-2.896-1.556-4.434c0.444-1.422,1.474-2.813,3.895-2.749"/>
<path fill="#47B970" d="M183.504,109.633l15.806,0.013l4.993-15.996l-0.126,0.387c0.711-2.205,2.154-2.813,3.761-2.813
	c1.494,0,3.13,0.567,3.789,2.896l-0.148-0.47l5.052,15.996l0.185,0.018h16.302h-0.498c2.423-0.066,3.447,1.328,3.896,2.752
	c0.48,1.535,0.339,3.091-1.561,4.431l0.349-0.267l-13.103,9.917l-0.056,0.144l5.514,16.92l-0.154-0.475
	c0.807,2.288-0.202,3.691-1.419,4.554c-1.317,0.932-2.842,1.271-4.695-0.124l0.328,0.249l-13.552-10.419l-13.649,10.486l0.329-0.247
	c-1.858,1.392-3.384,1.053-4.698,0.121c-1.217-0.862-2.228-2.267-1.419-4.546l-0.152,0.47l5.445-17.156h0.105l-12.797-9.898
	l0.333,0.241c-1.896-1.34-2.038-2.896-1.558-4.434c0.446-1.422,1.474-2.813,3.896-2.749"/>
<path fill="none" stroke="#47B970" stroke-width="15" stroke-linecap="round" stroke-linejoin="round" stroke-miterlimit="10" d="
	M108.111,234.703c10.948,2.605,22.475,3.994,34.378,3.994c71.723,0,129.867-50.541,129.867-112.868
	c0-62.35-58.145-112.88-129.867-112.88c-71.728,0-129.862,50.531-129.862,112.88c0,32.952,16.25,62.607,42.165,83.246v69.461
	L108.111,234.703z"/>
</svg>
