<?xml version="1.0" encoding="utf-8"?>
<!-- Generator: Adobe Illustrator 22.1.0, SVG Export Plug-In . SVG Version: 6.00 Build 0)  -->
<svg version="1.1" id="Layer_1" xmlns="http://www.w3.org/2000/svg" xmlns:xlink="http://www.w3.org/1999/xlink" x="0px" y="0px"
	 viewBox="0 0 100 100" style="enable-background:new 0 0 100 100;" xml:space="preserve">
<g>
	<path d="M77.6,91.7l-17.5-34c-0.2-0.4-0.9-0.3-1,0.1c-0.9,4.5-2.4,8.8-4.2,12.9c-0.2,0.4-0.2,0.9,0,1.4l12.6,24.6c1,1.9,2.9,3,5,3
		c0.9,0,1.7-0.2,2.6-0.6C77.9,97.8,78.9,94.4,77.6,91.7z"/>
	<circle cx="47.9" cy="9.3" r="9.3"/>
	<path d="M70.2,39.4c-10.2-4.3-16.9-15.3-17-15.6c-1.7-2.9-5.4-3.9-8.3-2.1c-0.4,0.2-0.8,0.6-1.1,0.8C40,25,30.2,32.6,25.2,49
		c-1,3.1,0.8,6.4,4,7.4c3.1,1,6.4-0.8,7.4-4c2.1-7,5.2-11.9,8-15c0.7,4.1,1,9.6,0,15.7c-3.1,19.1-20.8,36.4-21,36.7
		c-2.3,2.3-2.4,6-0.1,8.4c1.2,1.2,2.7,1.8,4.2,1.8c1.4,0,3-0.6,4.1-1.7c0.9-0.8,20.9-20.3,24.3-43.2c0.6-3.2,0.7-6.3,0.8-9.2
		c2.6,1.9,5.3,3.6,8.4,4.9c0.8,0.3,1.6,0.4,2.3,0.4c2.3,0,4.7-1.4,5.7-3.7C74.8,44.3,73.3,40.8,70.2,39.4z"/>
</g>
</svg>
