<?xml version="1.0" encoding="utf-8"?>
<!-- Generator: Adobe Illustrator 22.0.1, SVG Export Plug-In . SVG Version: 6.00 Build 0)  -->
<svg version="1.1" id="Layer_1" xmlns="http://www.w3.org/2000/svg" xmlns:xlink="http://www.w3.org/1999/xlink" x="0px" y="0px"
	 viewBox="0 0 339.3 339.3" style="enable-background:new 0 0 339.3 339.3;" xml:space="preserve">
<style type="text/css">
	.st0{fill:#58595B;}
</style>
<path class="st0" d="M307.8,44H31.5C14.1,44,0,58.1,0,75.5v188.2c0,17.4,14.1,31.5,31.5,31.5h276.3c17.4,0,31.5-14.1,31.5-31.5V75.5
	C339.3,58.1,325.2,44,307.8,44z M298.3,72.6l-128.6,91.1L41.5,72.6H298.3z M307.8,266.7H31.5c-1.6,0-2.9-1.3-2.9-2.9V98.3
	l133.3,94.4c4.8,3.3,11.2,3.3,16.1,0l132.7-93.9v164.9C310.7,265.3,309.4,266.7,307.8,266.7z"/>
</svg>
