<svg xmlns="http://www.w3.org/2000/svg" xmlns:xlink="http://www.w3.org/1999/xlink" version="1.1" x="0px" y="0px" viewBox="0 0 100 100" enable-background="new 0 0 100 100" xml:space="preserve"><path stroke="#fff" fill="#fff" d="M89.613,48.892L52.229,7.617C51.566,6.904,50.638,6.5,49.666,6.5s-1.901,0.404-2.563,1.117l-38.592,41.5  c-0.948,1.02-1.202,2.504-0.646,3.782C8.422,54.174,9.682,55,11.074,55H21v30c0,3.313,2.592,6,5.906,6H30h2h0.667H34  c2.209,0,4-1.791,4-4V72c0-2.209,1.791-4,4-4h14c2.209,0,4,1.791,4,4v15c0,2.209,1.791,4,4,4h6.905C74.219,91,77,88.313,77,85V55  h10.259c0.008,0.001,0.015,0,0.02,0c1.934,0,3.5-1.566,3.5-3.5C90.778,50.464,90.328,49.533,89.613,48.892z"/></svg>