<?xml version="1.0" encoding="utf-8"?>
<!-- Generator: Adobe Illustrator 16.0.0, SVG Export Plug-In . SVG Version: 6.00 Build 0)  -->
<!DOCTYPE svg PUBLIC "-//W3C//DTD SVG 1.1//EN" "http://www.w3.org/Graphics/SVG/1.1/DTD/svg11.dtd">
<svg version="1.1" id="Layer_1" xmlns="http://www.w3.org/2000/svg" xmlns:xlink="http://www.w3.org/1999/xlink" x="0px" y="0px"
	 width="286.667px" height="181.75px" viewBox="0 0 286.667 181.75" enable-background="new 0 0 286.667 181.75"
	 xml:space="preserve">
<g>
	<g>
		<g>
			
				<line fill="none" stroke="#47B870" stroke-width="16.8764" stroke-linecap="round" stroke-linejoin="round" stroke-miterlimit="10" x1="145.519" y1="172.741" x2="144.55" y2="172.741"/>
		</g>
		
			<path fill="none" stroke="#47B870" stroke-width="16.8764" stroke-linecap="round" stroke-linejoin="round" stroke-miterlimit="10" d="
			M109.61,68.865c0,0-1.905-39.019,36.681-37.117c38.588,1.897,36.239,38.736,36.239,38.736s-0.647,14.351-12.26,24.905
			c-11.617,10.562-23.377,20.675-25.557,31.908c-2.17,11.239-0.892,23.481-0.892,23.481"/>
	</g>
	<defs>
		<filter id="Adobe_OpacityMaskFilter" filterUnits="userSpaceOnUse" x="1.293" y="0.675" width="286.511" height="168.904">
			<feColorMatrix  type="matrix" values="1 0 0 0 0  0 1 0 0 0  0 0 1 0 0  0 0 0 1 0"/>
		</filter>
	</defs>
	<mask maskUnits="userSpaceOnUse" x="1.293" y="0.675" width="286.511" height="168.904" id="SVGID_1_">
		<g filter="url(#Adobe_OpacityMaskFilter)">
			<g id="XMLID_8_">
				<g>
					<rect x="-23.426" y="-64.217" fill="#FFFFFF" width="366.877" height="265.11"/>
				</g>
				<g>
					
						<line fill="none" stroke="#000000" stroke-width="36.4368" stroke-linecap="round" stroke-linejoin="round" stroke-miterlimit="10" x1="145.519" y1="174.735" x2="144.536" y2="174.735"/>
					
						<path fill="none" stroke="#000000" stroke-width="36.4368" stroke-linecap="round" stroke-linejoin="round" stroke-miterlimit="10" d="
						M109.592,68.867c0,0-1.886-39.013,36.678-37.127c38.604,1.906,36.248,38.733,36.248,38.733s-0.644,14.354-12.254,24.911
						c-11.611,10.563-23.373,20.674-25.561,31.921c-2.165,11.226-0.898,23.479-0.898,23.479"/>
					
						<rect x="-23.426" y="-64.217" fill="none" stroke="#000000" stroke-width="36.4368" stroke-linecap="round" stroke-linejoin="round" stroke-miterlimit="10" width="366.877" height="265.11"/>
				</g>
			</g>
		</g>
	</mask>
	<g mask="url(#SVGID_1_)">
		
			<circle fill="none" stroke="#81878A" stroke-width="8.4387" stroke-linecap="round" stroke-linejoin="round" stroke-miterlimit="10" cx="56.239" cy="114.632" r="50.724"/>
		
			<path fill="none" stroke="#81878A" stroke-width="8.4387" stroke-linecap="round" stroke-linejoin="round" stroke-miterlimit="10" d="
			M283.586,114.63c0,28.013-22.711,50.725-50.727,50.725c-28.019,0-50.729-22.712-50.729-50.725
			c0-28.015,22.714-50.724,50.729-50.724C260.875,63.908,283.586,86.615,283.586,114.63z"/>
		
			<path fill="none" stroke="#81878A" stroke-width="8.4387" stroke-linecap="round" stroke-linejoin="round" stroke-miterlimit="10" d="
			M67.097,114.63c0,5.995-4.862,10.855-10.859,10.855c-6,0-10.857-4.86-10.857-10.855c0-6,4.857-10.86,10.857-10.86
			C62.235,103.77,67.097,108.63,67.097,114.63z"/>
		
			<path fill="none" stroke="#81878A" stroke-width="8.4387" stroke-linecap="round" stroke-linejoin="round" stroke-miterlimit="10" d="
			M159.043,114.63c0,9.148-7.424,16.577-16.576,16.577c-9.159,0-16.577-7.429-16.577-16.577c0-9.161,7.418-16.579,16.577-16.579
			C151.623,98.051,159.043,105.469,159.043,114.63z"/>
		
			<circle fill="none" stroke="#81878A" stroke-width="8.4387" stroke-linecap="round" stroke-linejoin="round" stroke-miterlimit="10" cx="232.862" cy="114.067" r="10.858"/>
		
			<line fill="none" stroke="#81878A" stroke-width="8.4387" stroke-linecap="round" stroke-linejoin="round" stroke-miterlimit="10" x1="56.238" y1="103.77" x2="142.468" y2="98.051"/>
		
			<line fill="none" stroke="#81878A" stroke-width="8.4387" stroke-linecap="round" stroke-linejoin="round" stroke-miterlimit="10" x1="56.238" y1="125.487" x2="142.468" y2="131.207"/>
		
			<line fill="none" stroke="#81878A" stroke-width="8.4387" stroke-linecap="round" stroke-linejoin="round" stroke-miterlimit="10" x1="46.411" y1="110.032" x2="92.363" y2="36.725"/>
		
			<polyline fill="none" stroke="#81878A" stroke-width="8.4387" stroke-linecap="round" stroke-linejoin="round" stroke-miterlimit="10" points="
			229.434,103.77 191.95,4.895 168.828,4.895 		"/>
		
			<line fill="none" stroke="#81878A" stroke-width="8.4387" stroke-linecap="round" stroke-linejoin="round" stroke-miterlimit="10" x1="135.025" y1="99.815" x2="84.684" y2="25.361"/>
		
			<line fill="none" stroke="#81878A" stroke-width="8.4387" stroke-linecap="round" stroke-linejoin="round" stroke-miterlimit="10" x1="151.637" y1="100.815" x2="204.225" y2="43.443"/>
		
			<path fill="none" stroke="#81878A" stroke-width="8.4387" stroke-linecap="round" stroke-linejoin="round" stroke-miterlimit="10" d="
			M106.822,18.149c0,3.98-3.226,7.21-7.209,7.21H73.412c-3.983,0-7.211-3.229-7.211-7.21l0,0c0-3.979,3.228-7.209,7.211-7.209
			h26.201C103.596,10.94,106.822,14.167,106.822,18.149L106.822,18.149z"/>
		
			<line fill="none" stroke="#81878A" stroke-width="8.4387" stroke-linecap="round" stroke-linejoin="round" stroke-miterlimit="10" x1="199.133" y1="23.83" x2="166.34" y2="59.924"/>
		
			<path fill="none" stroke="#81878A" stroke-width="8.4387" stroke-linecap="round" stroke-linejoin="round" stroke-miterlimit="10" d="
			M92.363,36.725c0,0,36.355,61.758,73.979,23.199"/>
	</g>
</g>
</svg>
