<?xml version="1.0" encoding="utf-8"?>
<!-- Generator: Adobe Illustrator 22.1.0, SVG Export Plug-In . SVG Version: 6.00 Build 0)  -->
<svg version="1.1" id="Layer_1" xmlns="http://www.w3.org/2000/svg" xmlns:xlink="http://www.w3.org/1999/xlink" x="0px" y="0px"
	 viewBox="0 0 100 100" style="enable-background:new 0 0 100 100;" xml:space="preserve">
<path d="M85.7,49.6c-0.1-0.5-0.6-0.9-1.2-0.8c-5.2,1.1-8.7,4.3-11.1,7.5c-0.5,0.6-1.3,0.7-1.9,0.3c-2-1.4-5.5-3.3-11.3-4.1
	C50.8,51.2,42,61.2,37.5,69c-0.4,0.7-1.6,0.3-1.3-0.5c3.7-11.4,11.7-15.8,11.7-17.1c-0.7-12.5,3.7-23.4,4.7-26.4
	c0-0.1,0.1-0.1,0.2-0.1c1.6-0.2,3.2-0.3,4.8-0.6c0.1,0,0.2,0,0.2,0.1c0.4,2.4,1.6,5.5,4.4,5.8c0.3,0,0.5,0,0.7,0
	c4.5,0,7.2-4.4,8.6-6.8c1.8-3,3.5-6.1,3-8.3c-0.6-2.4-3.9-3.5-5.9-4.4C65.3,9.4,61.8,8,58.3,7.3c-2.2-0.4-5.8-1.2-7.9-0.2
	c-1.5,0.7-3,3-3.4,3.6c-1.2,1.9-3.6,3.6-5.2,5.2C34.9,23.1,29,31,24.3,39.8C17.7,51.9,16,71,15.8,73.6c0,0,0,0,0,0.1
	c-0.4,0.6-1.4,2.3-2.2,4.3c-1.1,3,0.9,4.7,2.3,6c0.3,0.3,0.6,0.6,0.9,0.8c1.7,1.8,6,2.2,7.2,2.3c0,0,0,0,0,0C25.5,88,36.9,92,54,92
	c17.2,0,21.7-3.7,26.7-8.8C86,77.8,88.9,63.1,85.7,49.6z"/>
</svg>
