<svg xmlns="http://www.w3.org/2000/svg" viewBox="0 0 141.73 141.73"><defs><style>.cls-1,.cls-2,.cls-3{fill:none;stroke-linecap:round;stroke-linejoin:round;}.cls-1,.cls-2{stroke:#39b66a;}.cls-1{stroke-width:7px;}.cls-2{stroke-width:5.83px;}.cls-3{stroke:#b3b4b4;stroke-width:3.94px;}</style></defs><title>icon_covered</title><g id="Layer_2" data-name="Layer 2"><path class="cls-1" d="M133.69,43.5,72.79,15.77a5.54,5.54,0,0,0-4.61,0L7.28,43.5"/><line class="cls-2" x1="138.26" y1="138.1" x2="3.63" y2="138.1"/><circle class="cls-3" cx="29.72" cy="109.49" r="23.68" transform="translate(-83.67 113.26) rotate(-76.72)"/><path class="cls-3" d="M135.84,109.49a23.68,23.68,0,1,1-23.68-23.67A23.68,23.68,0,0,1,135.84,109.49Z"/><path class="cls-3" d="M34.79,109.49a5.07,5.07,0,1,1-5.07-5.06A5.07,5.07,0,0,1,34.79,109.49Z"/><path class="cls-3" d="M77.71,109.49A7.74,7.74,0,1,1,70,101.76,7.74,7.74,0,0,1,77.71,109.49Z"/><path class="cls-3" d="M117.23,109.23a5.07,5.07,0,1,1-5.07-5.07A5.07,5.07,0,0,1,117.23,109.23Z"/><line class="cls-3" x1="29.72" y1="104.43" x2="69.97" y2="101.76"/><line class="cls-3" x1="29.72" y1="114.56" x2="69.97" y2="117.23"/><line class="cls-3" x1="25.13" y1="107.35" x2="46.58" y2="73.13"/><polyline class="cls-3" points="110.56 104.43 93.07 58.27 82.27 58.27"/><line class="cls-3" x1="66.5" y1="102.58" x2="43" y2="67.82"/><line class="cls-3" x1="74.25" y1="103.05" x2="98.8" y2="76.26"/><path class="cls-3" d="M53.33,64.46A3.35,3.35,0,0,1,50,67.82H37.74a3.36,3.36,0,0,1-3.37-3.36h0a3.37,3.37,0,0,1,3.37-3.37H50a3.36,3.36,0,0,1,3.36,3.37Z"/><line class="cls-3" x1="96.42" y1="67.11" x2="81.11" y2="83.96"/><path class="cls-3" d="M46.58,73.13S63.55,102,81.11,84"/></g></svg>