<?xml version="1.0" encoding="utf-8"?>
<!-- Generator: Adobe Illustrator 16.0.0, SVG Export Plug-In . SVG Version: 6.00 Build 0)  -->
<!DOCTYPE svg PUBLIC "-//W3C//DTD SVG 1.1//EN" "http://www.w3.org/Graphics/SVG/1.1/DTD/svg11.dtd">
<svg version="1.1" id="Layer_1" xmlns="http://www.w3.org/2000/svg" xmlns:xlink="http://www.w3.org/1999/xlink" x="0px" y="0px"
	 width="181.334px" height="303.5px" viewBox="0 0 181.334 303.5" enable-background="new 0 0 181.334 303.5" xml:space="preserve">
<g>
	<defs>
		<filter id="Adobe_OpacityMaskFilter" filterUnits="userSpaceOnUse" x="0.347" y="15.671" width="168.902" height="286.513">
			<feColorMatrix  type="matrix" values="1 0 0 0 0  0 1 0 0 0  0 0 1 0 0  0 0 0 1 0"/>
		</filter>
	</defs>
	<mask maskUnits="userSpaceOnUse" x="0.347" y="15.671" width="168.902" height="286.513" id="SVGID_1_">
		<g filter="url(#Adobe_OpacityMaskFilter)">
			<g id="XMLID_7_">
				<g>
					<path fill="#FFFFFF" d="M-36.038-69.11h226.335v427.763H-36.038V-69.11z M173.417,3.365H88.774l84.643,105.875V3.365z"/>
				</g>
				<g>
					
						<polygon fill="none" stroke="#000000" stroke-width="30.3639" stroke-linecap="round" stroke-linejoin="round" stroke-miterlimit="10" points="
						173.417,109.24 173.417,3.365 88.774,3.365 					"/>
					
						<rect x="-36.038" y="-69.11" fill="none" stroke="#000000" stroke-width="30.3639" stroke-linecap="round" stroke-linejoin="round" stroke-miterlimit="10" width="226.335" height="427.763"/>
				</g>
			</g>
		</g>
	</mask>
	<g mask="url(#SVGID_1_)">
		
			<path fill="none" stroke="#81878A" stroke-width="8.4387" stroke-linecap="round" stroke-linejoin="round" stroke-miterlimit="10" d="
			M114.282,196.51c28.016,0,50.727,22.711,50.727,50.727c0,28.017-22.711,50.728-50.727,50.728
			c-28.013,0-50.715-22.711-50.715-50.728C63.567,219.221,86.269,196.51,114.282,196.51z"/>
		
			<path fill="none" stroke="#81878A" stroke-width="8.4387" stroke-linecap="round" stroke-linejoin="round" stroke-miterlimit="10" d="
			M114.282,19.89c28.019,0,50.729,22.712,50.729,50.73c0,28.014-22.711,50.726-50.729,50.726c-28.014,0-50.713-22.712-50.713-50.726
			C63.571,42.602,86.27,19.89,114.282,19.89z"/>
		
			<circle fill="none" stroke="#81878A" stroke-width="8.4387" stroke-linecap="round" stroke-linejoin="round" stroke-miterlimit="10" cx="114.282" cy="247.238" r="10.858"/>
		
			<path fill="none" stroke="#81878A" stroke-width="8.4387" stroke-linecap="round" stroke-linejoin="round" stroke-miterlimit="10" d="
			M114.282,144.435c9.149,0,16.58,7.424,16.58,16.579c0,9.155-7.431,16.575-16.58,16.575c-9.155,0-16.575-7.42-16.575-16.575
			C97.707,151.858,105.127,144.435,114.282,144.435z"/>
		
			<path fill="none" stroke="#81878A" stroke-width="8.4387" stroke-linecap="round" stroke-linejoin="round" stroke-miterlimit="10" d="
			M113.724,59.757c5.995,0,10.858,4.859,10.858,10.858c0,5.997-4.863,10.861-10.858,10.861c-6,0-10.855-4.864-10.855-10.861
			C102.866,64.616,107.724,59.757,113.724,59.757z"/>
		
			<line fill="none" stroke="#81878A" stroke-width="8.4387" stroke-linecap="round" stroke-linejoin="round" stroke-miterlimit="10" x1="103.427" y1="247.239" x2="97.707" y2="161.014"/>
		
			<line fill="none" stroke="#81878A" stroke-width="8.4387" stroke-linecap="round" stroke-linejoin="round" stroke-miterlimit="10" x1="125.143" y1="247.239" x2="130.862" y2="161.014"/>
		
			<line fill="none" stroke="#81878A" stroke-width="8.4387" stroke-linecap="round" stroke-linejoin="round" stroke-miterlimit="10" x1="109.687" y1="257.066" x2="36.401" y2="211.114"/>
		
			<polyline fill="none" stroke="#81878A" stroke-width="8.4387" stroke-linecap="round" stroke-linejoin="round" stroke-miterlimit="10" points="
			103.423,74.043 4.572,111.527 4.572,134.651 		"/>
		
			<line fill="none" stroke="#81878A" stroke-width="8.4387" stroke-linecap="round" stroke-linejoin="round" stroke-miterlimit="10" x1="99.469" y1="168.452" x2="25.037" y2="218.796"/>
		
			<line fill="none" stroke="#81878A" stroke-width="8.4387" stroke-linecap="round" stroke-linejoin="round" stroke-miterlimit="10" x1="100.472" y1="151.841" x2="43.115" y2="99.253"/>
		
			<path fill="none" stroke="#81878A" stroke-width="8.4387" stroke-linecap="round" stroke-linejoin="round" stroke-miterlimit="10" d="
			M17.825,196.652c3.981,0,7.21,3.228,7.21,7.212v26.2c0,3.982-3.229,7.211-7.21,7.211l0,0c-3.983,0-7.211-3.229-7.211-7.211v-26.2
			C10.614,199.88,13.842,196.652,17.825,196.652L17.825,196.652z"/>
		
			<line fill="none" stroke="#81878A" stroke-width="8.4387" stroke-linecap="round" stroke-linejoin="round" stroke-miterlimit="10" x1="23.509" y1="104.347" x2="59.589" y2="137.138"/>
		
			<path fill="none" stroke="#81878A" stroke-width="8.4387" stroke-linecap="round" stroke-linejoin="round" stroke-miterlimit="10" d="
			M36.401,211.114c0,0,61.737-36.357,23.188-73.979"/>
	</g>
	<g>
		
			<polygon fill="none" stroke="#47B870" stroke-width="12.1456" stroke-linecap="round" stroke-linejoin="round" stroke-miterlimit="10" points="
			175.328,113.267 175.328,7.376 90.685,7.376 		"/>
	</g>
</g>
</svg>
