<svg xmlns="http://www.w3.org/2000/svg" xmlns:xlink="http://www.w3.org/1999/xlink" viewBox="0 0 141.73 141.73"><defs><style>.cls-1,.cls-3,.cls-4{fill:none;stroke-linecap:round;stroke-linejoin:round;}.cls-1{stroke:#000;stroke-width:20px;filter:url(#luminosity-noclip);}.cls-2{mask:url(#mask);}.cls-3{stroke:#828b90;stroke-width:3.94px;}.cls-4{stroke:#47b870;stroke-width:5.67px;}</style><filter id="luminosity-noclip" x="3.82" y="55.92" width="133.74" height="88.81" filterUnits="userSpaceOnUse" color-interpolation-filters="sRGB"><feFlood flood-color="#fff" result="bg"/><feBlend in="SourceGraphic" in2="bg"/></filter><mask id="mask" x="3.82" y="55.92" width="133.74" height="88.81" maskUnits="userSpaceOnUse"><path class="cls-1" d="M46.23,134.72V101.55a23,23,0,0,1,23-23h0a23,23,0,0,1,23,23v33.17"/></mask></defs><title>Icon_guide_uinvertido</title><g id="Layer_2" data-name="Layer 2"><g class="cls-2"><circle class="cls-3" cx="29.46" cy="109.11" r="23.68"/><path class="cls-3" d="M135.58,109.11a23.68,23.68,0,1,1-23.67-23.68A23.68,23.68,0,0,1,135.58,109.11Z"/><path class="cls-3" d="M34.53,109.11A5.07,5.07,0,1,1,29.46,104,5.07,5.07,0,0,1,34.53,109.11Z"/><path class="cls-3" d="M77.45,109.11a7.74,7.74,0,1,1-7.74-7.74A7.75,7.75,0,0,1,77.45,109.11Z"/><path class="cls-3" d="M117,108.85a5.07,5.07,0,1,1-5.07-5.07A5.07,5.07,0,0,1,117,108.85Z"/><line class="cls-3" x1="29.46" y1="104.04" x2="69.71" y2="101.37"/><line class="cls-3" x1="29.46" y1="114.18" x2="69.71" y2="116.85"/><line class="cls-3" x1="24.88" y1="106.97" x2="46.32" y2="72.75"/><polyline class="cls-3" points="110.31 104.04 92.81 57.89 82.02 57.89"/><line class="cls-3" x1="66.24" y1="102.2" x2="42.74" y2="67.44"/><line class="cls-3" x1="73.99" y1="102.66" x2="98.54" y2="75.88"/><path class="cls-3" d="M53.07,64.07a3.36,3.36,0,0,1-3.36,3.37H37.48a3.37,3.37,0,0,1-3.37-3.37h0a3.37,3.37,0,0,1,3.37-3.36H49.71a3.36,3.36,0,0,1,3.36,3.36Z"/><line class="cls-3" x1="96.16" y1="66.73" x2="80.86" y2="83.57"/><path class="cls-3" d="M46.32,72.75s17,28.82,34.54,10.82"/></g><path class="cls-4" d="M46.23,134.72V101.55a23,23,0,0,1,23-23h0a23,23,0,0,1,23,23v33.17"/></g></svg>