<?xml version="1.0" encoding="utf-8"?>
<!-- Generator: Adobe Illustrator 16.0.0, SVG Export Plug-In . SVG Version: 6.00 Build 0)  -->
<!DOCTYPE svg PUBLIC "-//W3C//DTD SVG 1.1//EN" "http://www.w3.org/Graphics/SVG/1.1/DTD/svg11.dtd">
<svg version="1.1" id="Layer_1" xmlns="http://www.w3.org/2000/svg" xmlns:xlink="http://www.w3.org/1999/xlink" x="0px" y="0px"
	 width="286.333px" height="175.5px" viewBox="8.167 122.75 286.333 175.5" enable-background="new 8.167 122.75 286.333 175.5"
	 xml:space="preserve">
<g>
	
		<path fill="none" stroke="#47B870" stroke-width="12.1456" stroke-linecap="round" stroke-linejoin="round" stroke-miterlimit="10" d="
		M98.998,292.23v-71.075c0-27.158,22.018-49.183,49.174-49.183l0,0c27.16,0,49.178,22.023,49.178,49.183v71.075"/>
	<defs>
		<filter id="Adobe_OpacityMaskFilter" filterUnits="userSpaceOnUse" x="8.128" y="123.403" width="286.513" height="168.9">
			<feColorMatrix  type="matrix" values="1 0 0 0 0  0 1 0 0 0  0 0 1 0 0  0 0 0 1 0"/>
		</filter>
	</defs>
	<mask maskUnits="userSpaceOnUse" x="8.128" y="123.403" width="286.513" height="168.9" id="SVGID_1_">
		<g filter="url(#Adobe_OpacityMaskFilter)">
			<g id="XMLID_11_">
				<g>
					<polygon fill="#FFFFFF" points="315.898,89.47 315.898,331.555 -9.009,322.279 -9.009,89.47 					"/>
				</g>
				<g>
					
						<path fill="none" stroke="#000000" stroke-width="30.3639" stroke-linecap="round" stroke-linejoin="round" stroke-miterlimit="10" d="
						M99.009,291.729v-71.082c0-27.145,22.002-49.168,49.167-49.168c13.582,0,25.879,5.506,34.77,14.397
						c8.893,8.912,14.396,21.188,14.396,34.771v71.082"/>
					
						<polygon fill="none" stroke="#000000" stroke-width="30.3639" stroke-linecap="round" stroke-linejoin="round" stroke-miterlimit="10" points="
						315.898,331.555 -9.009,322.279 -9.009,89.47 315.898,89.47 					"/>
				</g>
			</g>
		</g>
	</mask>
	<g mask="url(#SVGID_1_)">
		
			<circle fill="none" stroke="#E5E5E5" stroke-width="8.4382" stroke-linecap="round" stroke-linejoin="round" stroke-miterlimit="10" cx="63.073" cy="237.358" r="50.726"/>
		
			<path fill="none" stroke="#E5E5E5" stroke-width="8.4382" stroke-linecap="round" stroke-linejoin="round" stroke-miterlimit="10" d="
			M290.422,237.357c0,28.015-22.713,50.727-50.727,50.727c-28.019,0-50.73-22.712-50.73-50.727c0-28.014,22.713-50.727,50.73-50.727
			C267.709,186.631,290.422,209.344,290.422,237.357z"/>
		
			<path fill="none" stroke="#E5E5E5" stroke-width="8.4382" stroke-linecap="round" stroke-linejoin="round" stroke-miterlimit="10" d="
			M73.932,237.357c0,5.996-4.863,10.857-10.859,10.857c-6,0-10.857-4.861-10.857-10.857c0-6,4.857-10.857,10.857-10.857
			C69.068,226.5,73.932,231.357,73.932,237.357z"/>
		
			<path fill="none" stroke="#E5E5E5" stroke-width="8.4382" stroke-linecap="round" stroke-linejoin="round" stroke-miterlimit="10" d="
			M165.877,237.357c0,9.15-7.424,16.578-16.574,16.578c-9.16,0-16.578-7.428-16.578-16.578c0-9.157,7.418-16.577,16.578-16.577
			C158.453,220.78,165.877,228.2,165.877,237.357z"/>
		
			<circle fill="none" stroke="#E5E5E5" stroke-width="8.4382" stroke-linecap="round" stroke-linejoin="round" stroke-miterlimit="10" cx="239.695" cy="236.797" r="10.857"/>
		
			<line fill="none" stroke="#E5E5E5" stroke-width="8.4382" stroke-linecap="round" stroke-linejoin="round" stroke-miterlimit="10" x1="63.072" y1="226.5" x2="149.303" y2="220.78"/>
		
			<line fill="none" stroke="#E5E5E5" stroke-width="8.4382" stroke-linecap="round" stroke-linejoin="round" stroke-miterlimit="10" x1="63.072" y1="248.215" x2="149.303" y2="253.936"/>
		
			<line fill="none" stroke="#E5E5E5" stroke-width="8.4382" stroke-linecap="round" stroke-linejoin="round" stroke-miterlimit="10" x1="53.244" y1="232.764" x2="99.195" y2="159.45"/>
		
			<polyline fill="none" stroke="#E5E5E5" stroke-width="8.4382" stroke-linecap="round" stroke-linejoin="round" stroke-miterlimit="10" points="
			236.268,226.5 198.781,127.622 175.658,127.622 		"/>
		
			<line fill="none" stroke="#E5E5E5" stroke-width="8.4382" stroke-linecap="round" stroke-linejoin="round" stroke-miterlimit="10" x1="141.857" y1="222.545" x2="91.518" y2="148.086"/>
		
			<line fill="none" stroke="#E5E5E5" stroke-width="8.4382" stroke-linecap="round" stroke-linejoin="round" stroke-miterlimit="10" x1="158.471" y1="223.545" x2="211.057" y2="166.167"/>
		
			<path fill="none" stroke="#E5E5E5" stroke-width="8.4382" stroke-linecap="round" stroke-linejoin="round" stroke-miterlimit="10" d="
			M113.656,140.872c0,3.984-3.227,7.211-7.209,7.211H80.244c-3.982,0-7.209-3.227-7.209-7.211l0,0c0-3.978,3.227-7.208,7.209-7.208
			h26.203C110.43,133.664,113.656,136.894,113.656,140.872L113.656,140.872z"/>
		
			<line fill="none" stroke="#E5E5E5" stroke-width="8.4382" stroke-linecap="round" stroke-linejoin="round" stroke-miterlimit="10" x1="205.967" y1="146.555" x2="173.174" y2="182.648"/>
		
			<path fill="none" stroke="#E5E5E5" stroke-width="8.4382" stroke-linecap="round" stroke-linejoin="round" stroke-miterlimit="10" d="
			M99.195,159.45c0,0,36.357,61.762,73.979,23.198"/>
	</g>
</g>
</svg>
