<?xml version="1.0" encoding="utf-8"?>
<!-- Generator: Adobe Illustrator 22.1.0, SVG Export Plug-In . SVG Version: 6.00 Build 0)  -->
<svg version="1.1" id="Layer_1" xmlns="http://www.w3.org/2000/svg" xmlns:xlink="http://www.w3.org/1999/xlink" x="0px" y="0px"
	 viewBox="0 0 956.7 1071.6" style="enable-background:new 0 0 956.7 1071.6;" xml:space="preserve">
<style type="text/css">
	.st0{fill:#FFFFFF;}
</style>
<path class="st0" d="M143,0h670.8c78.6,0,142.9,64.3,142.9,142.9v785.8c0,78.6-64.3,142.9-142.9,142.9H142.9
	C64.3,1071.6,0,1007.3,0,928.7V142.9C0.1,64.3,64.4,0,143,0z M71.5,142.9v71.4h335V71.4H142.9C103.7,71.4,71.5,103.6,71.5,142.9z
	 M406.7,214.3V71.4h47.4v142.9L406.7,214.3L406.7,214.3z M454.9,261.9V1000h-48.2V261.9H454.9z M813.8,71.4H454.3v142.9h431v-71.4
	C885.3,103.6,853.1,71.4,813.8,71.4z M885.3,928.6V261.9H454.4V1000h359.4C853.1,1000.1,885.3,968,885.3,928.6z M143,1000.1h264.3
	V261.9H71.6v666.7C71.5,967.9,103.7,1000.1,143,1000.1z M796.7,416.8c0-13.1-10.7-23.8-23.8-23.8h-196c-13.1,0-23.8,10.7-23.8,23.8
	c0,13.1,10.7,23.8,23.8,23.8h196C785.9,440.5,796.7,429.8,796.7,416.8z M553,630.5c0,13.1,10.7,23.8,23.8,23.8h196
	c13.1,0,23.8-10.7,23.8-23.8s-10.7-23.8-23.8-23.8h-196C563.8,606.6,553,617.3,553,630.5z M553,835.3c0,13.1,10.7,23.8,23.8,23.8
	h196c13.1,0,23.8-10.7,23.8-23.8s-10.7-23.8-23.8-23.8h-196C563.8,811.5,553,822.2,553,835.3z M305.2,416.8
	c0-13.1-10.7-23.8-23.8-23.8h-84.8c-13.1,0-23.8,10.7-23.8,23.8c0,13.1,10.7,23.8,23.8,23.8h84.8
	C294.4,440.5,305.2,429.8,305.2,416.8z M172.7,630.5c0,13.1,10.7,23.8,23.8,23.8h84.8c13.1,0,23.8-10.7,23.8-23.8
	s-10.7-23.8-23.8-23.8h-84.8C183.5,606.6,172.7,617.3,172.7,630.5z M172.7,835.3c0,13.1,10.7,23.8,23.8,23.8h84.8
	c13.1,0,23.8-10.7,23.8-23.8s-10.7-23.8-23.8-23.8h-84.8C183.5,811.5,172.7,822.2,172.7,835.3z"/>
</svg>
