<?xml version="1.0" encoding="utf-8"?>
<!-- Generator: Adobe Illustrator 16.0.0, SVG Export Plug-In . SVG Version: 6.00 Build 0)  -->
<!DOCTYPE svg PUBLIC "-//W3C//DTD SVG 1.1//EN" "http://www.w3.org/Graphics/SVG/1.1/DTD/svg11.dtd">
<svg version="1.1" id="Layer_1" xmlns="http://www.w3.org/2000/svg" xmlns:xlink="http://www.w3.org/1999/xlink" x="0px" y="0px"
	 width="300px" height="233.75px" viewBox="0 69.75 300 233.75" enable-background="new 0 69.75 300 233.75" xml:space="preserve">
<g>
	<g>
		
			<line fill="none" stroke="#47B870" stroke-width="12.1456" stroke-linecap="round" stroke-linejoin="round" stroke-miterlimit="10" x1="134.088" y1="297.182" x2="134.088" y2="76.699"/>
		
			<line fill="none" stroke="#47B870" stroke-width="12.1456" stroke-linecap="round" stroke-linejoin="round" stroke-miterlimit="10" x1="20.666" y1="76.699" x2="20.666" y2="296.411"/>
		
			<line fill="none" stroke="#47B870" stroke-width="12.4921" stroke-linecap="round" stroke-linejoin="round" stroke-miterlimit="10" x1="47.898" y1="76.699" x2="47.898" y2="297.18"/>
		
			<line fill="none" stroke="#47B870" stroke-width="12.4921" stroke-linecap="round" stroke-linejoin="round" stroke-miterlimit="10" x1="75.92" y1="76.699" x2="75.92" y2="297.18"/>
		
			<line fill="none" stroke="#47B870" stroke-width="12.4921" stroke-linecap="round" stroke-linejoin="round" stroke-miterlimit="10" x1="104.828" y1="76.699" x2="104.828" y2="297.18"/>
		
			<line fill="none" stroke="#47B870" stroke-width="12.6019" stroke-linecap="round" stroke-linejoin="round" stroke-miterlimit="10" x1="147.986" y1="108.964" x2="7.126" y2="108.964"/>
	</g>
	<defs>
		<filter id="Adobe_OpacityMaskFilter" filterUnits="userSpaceOnUse" x="13.284" y="122.18" width="286.51" height="168.903">
			<feColorMatrix  type="matrix" values="1 0 0 0 0  0 1 0 0 0  0 0 1 0 0  0 0 0 1 0"/>
		</filter>
	</defs>
	<mask maskUnits="userSpaceOnUse" x="13.284" y="122.18" width="286.51" height="168.903" id="SVGID_1_">
		<g filter="url(#Adobe_OpacityMaskFilter)">
			<g id="XMLID_10_">
				<g>
					<path fill="#E5E5E5" d="M-73.613,41.752v279.94h428.468V41.752H-73.613z M7.089,294.549V71.038h141.395v223.511H7.089z"/>
				</g>
			</g>
		</g>
	</mask>
	<g mask="url(#SVGID_1_)">
		
			<circle fill="none" stroke="#E5E5E5" stroke-width="8.4382" stroke-linecap="round" stroke-linejoin="round" stroke-miterlimit="10" cx="244.85" cy="236.137" r="50.726"/>
		
			<path fill="none" stroke="#E5E5E5" stroke-width="8.4382" stroke-linecap="round" stroke-linejoin="round" stroke-miterlimit="10" d="
			M17.503,236.137c0,28.014,22.713,50.728,50.726,50.728c28.017,0,50.729-22.714,50.729-50.728
			c0-28.015-22.712-50.726-50.729-50.726C40.216,185.411,17.503,208.122,17.503,236.137z"/>
		
			<path fill="none" stroke="#E5E5E5" stroke-width="8.4382" stroke-linecap="round" stroke-linejoin="round" stroke-miterlimit="10" d="
			M233.992,236.137c0,5.994,4.861,10.857,10.857,10.857c6,0,10.856-4.863,10.856-10.857c0-6.002-4.856-10.859-10.856-10.859
			C238.854,225.277,233.992,230.135,233.992,236.137z"/>
		
			<path fill="none" stroke="#E5E5E5" stroke-width="8.4382" stroke-linecap="round" stroke-linejoin="round" stroke-miterlimit="10" d="
			M142.047,236.137c0,9.15,7.422,16.576,16.574,16.576c9.159,0,16.578-7.426,16.578-16.576c0-9.16-7.419-16.578-16.578-16.578
			C149.469,219.561,142.047,226.977,142.047,236.137z"/>
		
			<circle fill="none" stroke="#E5E5E5" stroke-width="8.4382" stroke-linecap="round" stroke-linejoin="round" stroke-miterlimit="10" cx="68.229" cy="235.575" r="10.858"/>
		
			<line fill="none" stroke="#E5E5E5" stroke-width="8.4382" stroke-linecap="round" stroke-linejoin="round" stroke-miterlimit="10" x1="244.85" y1="225.277" x2="158.621" y2="219.561"/>
		
			<line fill="none" stroke="#E5E5E5" stroke-width="8.4382" stroke-linecap="round" stroke-linejoin="round" stroke-miterlimit="10" x1="244.85" y1="246.995" x2="158.621" y2="252.713"/>
		
			<line fill="none" stroke="#E5E5E5" stroke-width="8.4382" stroke-linecap="round" stroke-linejoin="round" stroke-miterlimit="10" x1="254.68" y1="231.542" x2="208.729" y2="158.229"/>
		
			<polyline fill="none" stroke="#E5E5E5" stroke-width="8.4382" stroke-linecap="round" stroke-linejoin="round" stroke-miterlimit="10" points="
			71.654,225.277 109.141,126.399 132.264,126.399 		"/>
		
			<line fill="none" stroke="#E5E5E5" stroke-width="8.4382" stroke-linecap="round" stroke-linejoin="round" stroke-miterlimit="10" x1="166.064" y1="221.325" x2="216.406" y2="146.866"/>
		
			<line fill="none" stroke="#E5E5E5" stroke-width="8.4382" stroke-linecap="round" stroke-linejoin="round" stroke-miterlimit="10" x1="149.453" y1="222.323" x2="96.865" y2="164.945"/>
		
			<path fill="none" stroke="#E5E5E5" stroke-width="8.4382" stroke-linecap="round" stroke-linejoin="round" stroke-miterlimit="10" d="
			M194.268,139.651c0,3.982,3.226,7.209,7.207,7.209h26.203c3.983,0,7.209-3.227,7.209-7.209l0,0c0-3.979-3.226-7.21-7.209-7.21
			h-26.203C197.492,132.441,194.268,135.673,194.268,139.651L194.268,139.651z"/>
		
			<line fill="none" stroke="#E5E5E5" stroke-width="8.4382" stroke-linecap="round" stroke-linejoin="round" stroke-miterlimit="10" x1="101.957" y1="145.334" x2="134.75" y2="181.427"/>
		
			<path fill="none" stroke="#E5E5E5" stroke-width="8.4382" stroke-linecap="round" stroke-linejoin="round" stroke-miterlimit="10" d="
			M208.729,158.229c0,0-36.357,61.761-73.979,23.197"/>
	</g>
</g>
</svg>
