<svg width="58" height="48" viewBox="0 0 58 48" fill="none" xmlns="http://www.w3.org/2000/svg">
<path fill-rule="evenodd" clip-rule="evenodd" d="M0 1.78829C0 0.800643 0.796972 0 1.78009 0H49.2515C50.2346 0 51.0316 0.800643 51.0316 1.78829V27.8057C51.0316 28.7934 50.2346 29.594 49.2515 29.594C48.2684 29.594 47.4714 28.7934 47.4714 27.8057V3.57657H3.56017V38.3603H37.9886C38.9717 38.3603 39.7686 39.1609 39.7686 40.1486C39.7686 41.1362 38.9717 41.9368 37.9886 41.9368H1.78009C0.796972 41.9368 0 41.1362 0 40.1486V1.78829Z" fill="#56CCF2"/>
<path fill-rule="evenodd" clip-rule="evenodd" d="M14.4613 14.5544C15.1651 13.9735 16.1936 14.0192 16.8433 14.6602L29.0477 26.7029L37.5043 20.4776C38.0735 20.0586 38.8365 20.0163 39.4485 20.3698L50.1409 26.5468C50.9924 27.0387 51.2844 28.1286 50.793 28.981C50.3016 29.8335 49.213 30.1258 48.3615 29.6338L38.6764 24.0388L29.9337 30.4746C29.2291 30.9933 28.2525 30.9228 27.6296 30.3081L15.4874 18.3268L2.91248 28.7058C2.15393 29.3318 1.03203 29.2238 0.40665 28.4644C-0.218734 27.705 -0.110782 26.5818 0.647767 25.9557L14.4613 14.5544Z" fill="#56CCF2"/>
<path fill-rule="evenodd" clip-rule="evenodd" d="M29.5581 9.62273C27.8287 9.62273 26.432 10.9694 26.432 12.6293C26.432 14.2916 27.8312 15.6405 29.5581 15.6405C31.283 15.6405 32.6837 14.2912 32.6837 12.6293C32.6837 10.9698 31.2852 9.62273 29.5581 9.62273ZM22.7368 12.6293C22.7368 9.00015 25.7914 6.06317 29.5581 6.06317C33.3217 6.06317 36.3789 8.99976 36.3789 12.6293C36.3789 16.257 33.3239 19.2 29.5581 19.2C25.7896 19.2 22.7368 16.2567 22.7368 12.6293Z" fill="#56CCF2"/>
<path fill-rule="evenodd" clip-rule="evenodd" d="M49.2632 32.3369C50.2398 32.3369 51.0316 33.1415 51.0316 34.134V46.2028C51.0316 47.1954 50.2398 48 49.2632 48C48.2865 48 47.4948 47.1954 47.4948 46.2028V34.134C47.4948 33.1415 48.2865 32.3369 49.2632 32.3369Z" fill="#56CCF2"/>
<path fill-rule="evenodd" clip-rule="evenodd" d="M41.9368 40.1684C41.9368 39.1917 42.7299 38.4 43.7083 38.4H55.3233C56.3016 38.4 57.0947 39.1917 57.0947 40.1684C57.0947 41.1451 56.3016 41.9368 55.3233 41.9368H43.7083C42.7299 41.9368 41.9368 41.1451 41.9368 40.1684Z" fill="#56CCF2"/>
</svg>
