<?xml version="1.0" encoding="utf-8"?>
<!-- Generator: Adobe Illustrator 16.0.0, SVG Export Plug-In . SVG Version: 6.00 Build 0)  -->
<!DOCTYPE svg PUBLIC "-//W3C//DTD SVG 1.1//EN" "http://www.w3.org/Graphics/SVG/1.1/DTD/svg11.dtd">
<svg version="1.1" id="Layer_1" xmlns="http://www.w3.org/2000/svg" xmlns:xlink="http://www.w3.org/1999/xlink" x="0px" y="0px"
	 width="300px" height="181.25px" viewBox="0 122.25 300 181.25" enable-background="new 0 122.25 300 181.25" xml:space="preserve"
	>
<g>
	<defs>
		<filter id="Adobe_OpacityMaskFilter" filterUnits="userSpaceOnUse" x="1.488" y="122.912" width="286.513" height="168.902">
			<feColorMatrix  type="matrix" values="1 0 0 0 0  0 1 0 0 0  0 0 1 0 0  0 0 0 1 0"/>
		</filter>
	</defs>
	<mask maskUnits="userSpaceOnUse" x="1.488" y="122.912" width="286.513" height="168.902" id="SVGID_1_">
		<g filter="url(#Adobe_OpacityMaskFilter)">
			<g id="XMLID_12_">
				<g>
					<path fill="#FFFFFF" d="M372.773,86.515v226.36H-54.988V86.515H372.773z M300.299,295.994V211.35l-105.875,84.645H300.299z"/>
				</g>
				<g>
					
						<polygon fill="none" stroke="#000000" stroke-width="30.3639" stroke-linecap="round" stroke-linejoin="round" stroke-miterlimit="10" points="
						194.424,295.994 300.299,295.994 300.299,211.35 					"/>
					
						<rect x="-54.988" y="86.515" fill="none" stroke="#000000" stroke-width="30.3639" stroke-linecap="round" stroke-linejoin="round" stroke-miterlimit="10" width="427.763" height="226.36"/>
				</g>
			</g>
		</g>
	</mask>
	<g mask="url(#SVGID_1_)">
		
			<path fill="none" stroke="#E5E5E5" stroke-width="8.4382" stroke-linecap="round" stroke-linejoin="round" stroke-miterlimit="10" d="
			M107.162,236.868c0,28.015-22.712,50.726-50.73,50.726c-28.013,0-50.725-22.711-50.725-50.726
			c0-28.017,22.712-50.728,50.725-50.728C84.45,186.141,107.162,208.852,107.162,236.868z"/>
		
			<circle fill="none" stroke="#E5E5E5" stroke-width="8.4382" stroke-linecap="round" stroke-linejoin="round" stroke-miterlimit="10" cx="233.055" cy="236.868" r="50.727"/>
		
			<path fill="none" stroke="#E5E5E5" stroke-width="8.4382" stroke-linecap="round" stroke-linejoin="round" stroke-miterlimit="10" d="
			M67.292,236.868c0,5.996-4.862,10.856-10.86,10.856c-5.994,0-10.856-4.86-10.856-10.856c0-6,4.862-10.858,10.856-10.858
			C62.43,226.009,67.292,230.868,67.292,236.868z"/>
		
			<path fill="none" stroke="#E5E5E5" stroke-width="8.4382" stroke-linecap="round" stroke-linejoin="round" stroke-miterlimit="10" d="
			M159.236,236.868c0,9.151-7.42,16.577-16.576,16.577s-16.577-7.426-16.577-16.577c0-9.158,7.421-16.576,16.577-16.576
			S159.236,227.709,159.236,236.868z"/>
		
			<circle fill="none" stroke="#E5E5E5" stroke-width="8.4382" stroke-linecap="round" stroke-linejoin="round" stroke-miterlimit="10" cx="233.055" cy="236.307" r="10.86"/>
		
			<line fill="none" stroke="#E5E5E5" stroke-width="8.4382" stroke-linecap="round" stroke-linejoin="round" stroke-miterlimit="10" x1="56.432" y1="226.009" x2="142.66" y2="220.292"/>
		
			<line fill="none" stroke="#E5E5E5" stroke-width="8.4382" stroke-linecap="round" stroke-linejoin="round" stroke-miterlimit="10" x1="56.432" y1="247.725" x2="142.66" y2="253.445"/>
		
			<line fill="none" stroke="#E5E5E5" stroke-width="8.4382" stroke-linecap="round" stroke-linejoin="round" stroke-miterlimit="10" x1="46.604" y1="232.27" x2="92.559" y2="158.958"/>
		
			<polyline fill="none" stroke="#E5E5E5" stroke-width="8.4382" stroke-linecap="round" stroke-linejoin="round" stroke-miterlimit="10" points="
			229.629,226.006 192.145,127.131 169.021,127.131 		"/>
		
			<line fill="none" stroke="#E5E5E5" stroke-width="8.4382" stroke-linecap="round" stroke-linejoin="round" stroke-miterlimit="10" x1="135.222" y1="222.051" x2="84.877" y2="147.596"/>
		
			<line fill="none" stroke="#E5E5E5" stroke-width="8.4382" stroke-linecap="round" stroke-linejoin="round" stroke-miterlimit="10" x1="151.83" y1="223.055" x2="204.419" y2="165.678"/>
		
			<path fill="none" stroke="#E5E5E5" stroke-width="8.4382" stroke-linecap="round" stroke-linejoin="round" stroke-miterlimit="10" d="
			M107.02,140.383c0,3.982-3.227,7.209-7.212,7.209H73.606c-3.984,0-7.212-3.227-7.212-7.209l0,0c0-3.984,3.228-7.21,7.212-7.21
			h26.201C103.793,133.173,107.02,136.399,107.02,140.383L107.02,140.383z"/>
		
			<line fill="none" stroke="#E5E5E5" stroke-width="8.4382" stroke-linecap="round" stroke-linejoin="round" stroke-miterlimit="10" x1="199.324" y1="146.069" x2="166.534" y2="182.159"/>
		
			<path fill="none" stroke="#E5E5E5" stroke-width="8.4382" stroke-linecap="round" stroke-linejoin="round" stroke-miterlimit="10" d="
			M92.559,158.958c0,0,36.357,61.765,73.976,23.201"/>
	</g>
	<g>
		
			<polygon fill="none" stroke="#47B870" stroke-width="12.1456" stroke-linecap="round" stroke-linejoin="round" stroke-miterlimit="10" points="
			188.406,297.909 294.294,297.909 294.294,213.268 		"/>
	</g>
</g>
</svg>
