<?xml version="1.0" encoding="utf-8"?>
<!-- Generator: Adobe Illustrator 22.1.0, SVG Export Plug-In . SVG Version: 6.00 Build 0)  -->
<svg version="1.1"
	 id="Layer_1" xmlns:cc="http://creativecommons.org/ns#" xmlns:dc="http://purl.org/dc/elements/1.1/" xmlns:inkscape="http://www.inkscape.org/namespaces/inkscape" xmlns:rdf="http://www.w3.org/1999/02/22-rdf-syntax-ns#" xmlns:sodipodi="http://sodipodi.sourceforge.net/DTD/sodipodi-0.dtd" xmlns:svg="http://www.w3.org/2000/svg"
	 xmlns="http://www.w3.org/2000/svg" xmlns:xlink="http://www.w3.org/1999/xlink" x="0px" y="0px" viewBox="0 0 100 100"
	 style="enable-background:new 0 0 100 100;" xml:space="preserve">
<g transform="translate(0,-952.36218)">
	<path d="M49.4,975.6l-24.9,9.6c-0.3,0.1-0.5,0.3-0.7,0.5L9,1003.1c-0.6,0.7-0.6,1.7,0.1,2.4l8.9,9.6c0.6,0.7,1.7,0.7,2.4,0.2
		c0,0,0,0,0,0c0,0,0.1-0.1,0.1-0.1l0,0c6.7-5.5,17.2-7.8,29.4-7.8s22.7,2.4,29.4,7.8l0,0c0,0,0.1,0.1,0.1,0.1c0,0,0,0,0,0
		c0.7,0.6,1.8,0.5,2.4-0.2l8.9-9.6c0.6-0.7,0.6-1.7,0.1-2.4l-14.7-17.4c-0.2-0.2-0.4-0.4-0.7-0.5l-24.9-9.6
		C50.2,975.5,49.8,975.5,49.4,975.6z M50.4,986.5l8.4,2.5c0.7,0.2,1.1,0.9,1,1.6c-1.3,7.4-5.2,11.7-9.8,11.7
		c-4.6,0-8.5-4.4-9.8-11.7c-0.1-0.7,0.3-1.4,1-1.6l8.4-2.5C49.9,986.4,50.2,986.4,50.4,986.5z M50,1011.4c-11.7,0-21.5,2.5-27,7
		c-1.7,1.3-3,3-3,4c0,4.8,14.4,7,30,7s30-2.2,30-7c0-1-1.3-2.7-3-4C71.5,1013.9,61.7,1011.4,50,1011.4z"/>
</g>
</svg>
