<?xml version="1.0" encoding="utf-8"?>
<!-- Generator: Adobe Illustrator 22.0.0, SVG Export Plug-In . SVG Version: 6.00 Build 0)  -->
<svg version="1.1" id="Layer_1" xmlns="http://www.w3.org/2000/svg" xmlns:xlink="http://www.w3.org/1999/xlink" x="0px" y="0px"
	 viewBox="0 0 85.2 85.2" style="enable-background:new 0 0 85.2 85.2;" xml:space="preserve">
<g>
	<path fill="#828b90" d="M42.6,68.1c23,0,41-22.1,41.7-23c1.2-1.5,1.2-3.5,0-5c-0.7-0.9-18.7-23-41.7-23s-41,22.1-41.7,23c-1.2,1.5-1.2,3.5,0,5
		C1.6,46,19.6,68.1,42.6,68.1z M42.6,29.6c6.9,0,12.5,5.8,12.5,13s-5.6,13-12.5,13s-12.5-5.8-12.5-13S35.7,29.6,42.6,29.6z
		 M75.9,42.6C72.7,46,66.4,52,58.4,56c2.9-3.6,4.7-8.3,4.7-13.4s-1.8-9.8-4.7-13.4C66.3,33.2,72.7,39.2,75.9,42.6z M26.8,29.2
		c-3,3.6-4.7,8.3-4.7,13.4s1.8,9.8,4.7,13.4c-8-4-14.3-10-17.5-13.4C12.5,39.2,18.9,33.2,26.8,29.2z"/>
</g>
</svg>
