<?xml version="1.0" encoding="utf-8"?>
<!-- Generator: Adobe Illustrator 21.1.0, SVG Export Plug-In . SVG Version: 6.00 Build 0)  -->
<svg version="1.1" xmlns="http://www.w3.org/2000/svg" xmlns:xlink="http://www.w3.org/1999/xlink" x="0px" y="0px"
	 viewBox="0 0 30.9 30.9" style="enable-background:new 0 0 30.9 30.9;" xml:space="preserve">
<style type="text/css">
	.st0{display:none;}
	.st1{display:inline;fill:#2D2D2D;}
	.st2{fill:#FFFFFF;}
</style>
<g id="Layer_2" class="st0">
	<rect class="st1" width="30.9" height="30.9"/>
</g>
<g id="Layer_1">
	<g>
		<path class="st2" d="M28.9,24.4h-8c-1.1,0-2-0.9-2-2s0.9-2,2-2h8c1.1,0,2,0.9,2,2S30,24.4,28.9,24.4z"/>
		<path class="st2" d="M24.9,28.4c-1.1,0-2-0.9-2-2v-8c0-1.1,0.9-2,2-2s2,0.9,2,2v8C26.9,27.5,26,28.4,24.9,28.4z"/>
	</g>
	<g id="New_Symbol_7_1_">
		<g>
			<g>
				<g id="XMLID_12_">
					<g>
						<path class="st2" d="M18.1,3.1c4.1,4.1,4.1,10.8,0,15l-7.5,7.5l-7.5-7.5C-1,14-1,7.2,3.1,3.1C7.2-1,14-1,18.1,3.1z M13.5,13.6
							c1.6-1.6,1.6-4.3,0-5.9C11.9,6,9.2,6,7.6,7.7C6,9.3,6,12,7.6,13.6C9.2,15.2,11.9,15.2,13.5,13.6z"/>
					</g>
				</g>
			</g>
		</g>
	</g>
</g>
</svg>
