<svg xmlns="http://www.w3.org/2000/svg" xmlns:xlink="http://www.w3.org/1999/xlink" version="1.1" x="0px" y="0px" viewBox="0 0 100 100" enable-background="new 0 0 100 100" xml:space="preserve"><g display="none"><path display="inline" fill-rule="evenodd" clip-rule="evenodd" d="M44.658,10.798c0.628-2.807,1.827-7.195,5.558-6.902   c3.221,0.255,4.528,4.239,5.124,6.899c1.244,5.546,2.483,11.092,3.725,16.638c0.333,1.479,1.639,8.232,2.895,9.144   c1.245,0.905,7.907,0.085,9.384-0.056c0.069-0.006,0.138-0.015,0.207-0.021c5.657-0.533,11.314-1.066,16.972-1.6   c2.862-0.27,7.406-0.486,8.281,3.152c0.533,2.215-0.946,4.002-2.531,5.3c-0.753,0.615-1.608,1.21-2.448,1.705   c-4.89,2.897-9.779,5.792-14.669,8.687c-1.304,0.773-7.321,4.102-7.8,5.575c-0.479,1.477,2.432,7.708,3.032,9.1   c2.254,5.215,4.509,10.433,6.765,15.647c1.14,2.64,2.75,6.894-0.441,8.851c-2.754,1.688-6.157-0.771-8.202-2.572   c-4.264-3.756-8.528-7.512-12.791-11.268c-1.138-1.002-6.166-5.695-7.717-5.695c-1.519,0-6.281,4.433-7.387,5.405   c-0.11,0.097-0.217,0.196-0.327,0.293c-4.264,3.756-8.527,7.512-12.791,11.268c-2.156,1.901-5.706,4.746-8.553,2.317   c-2.455-2.098-1.172-6.094-0.089-8.596c2.257-5.215,4.51-10.433,6.765-15.647c0.601-1.392,3.51-7.62,3.031-9.097   s-6.498-4.805-7.802-5.575c-4.891-2.897-9.781-5.789-14.672-8.684c-2.473-1.465-6.277-3.961-4.846-7.418   c1.235-2.982,5.436-3,8.15-2.742c5.656,0.539,11.313,1.063,16.969,1.597l0.031,0.003c1.507,0.141,8.306,0.981,9.56,0.07   s2.563-7.664,2.895-9.144C42.175,21.887,43.416,16.341,44.658,10.798L44.658,10.798z M50,24.269c-0.828,0-1.5,0.671-1.5,1.5   s0.672,1.5,1.5,1.5c0.829,0,1.5-0.671,1.5-1.5S50.829,24.269,50,24.269L50,24.269z M14.114,41.34   c-0.255,0.788,0.176,1.635,0.964,1.89c0.788,0.258,1.635-0.176,1.89-0.961c0.256-0.788-0.174-1.635-0.962-1.893   C15.217,40.121,14.372,40.552,14.114,41.34L14.114,41.34z M39.794,49.684c-0.256,0.788,0.174,1.635,0.962,1.89   s1.635-0.176,1.89-0.961c0.256-0.788-0.174-1.638-0.962-1.893S40.049,48.896,39.794,49.684L39.794,49.684z M31.234,46.903   c-0.255,0.788,0.176,1.635,0.964,1.89c0.787,0.255,1.633-0.176,1.89-0.964s-0.174-1.635-0.962-1.89S31.49,46.115,31.234,46.903   L31.234,46.903z M22.675,44.12c-0.256,0.788,0.176,1.635,0.964,1.893c0.787,0.255,1.633-0.176,1.89-0.964s-0.176-1.635-0.964-1.89   C23.778,42.904,22.93,43.335,22.675,44.12L22.675,44.12z M27.822,83.524c0.671,0.486,1.608,0.34,2.095-0.331   c0.488-0.671,0.338-1.608-0.331-2.095c-0.671-0.486-1.608-0.34-2.095,0.331C27.003,82.101,27.151,83.038,27.822,83.524   L27.822,83.524z M43.692,61.681c0.669,0.486,1.608,0.34,2.095-0.331s0.338-1.608-0.331-2.095c-0.671-0.486-1.608-0.34-2.096,0.331   C42.874,60.257,43.021,61.194,43.692,61.681L43.692,61.681z M38.403,68.961c0.669,0.489,1.607,0.34,2.095-0.331   c0.488-0.668,0.338-1.608-0.333-2.095c-0.669-0.486-1.608-0.337-2.095,0.331C37.584,67.537,37.732,68.475,38.403,68.961   L38.403,68.961z M33.112,76.244c0.669,0.486,1.608,0.337,2.096-0.331c0.486-0.671,0.337-1.608-0.333-2.098   c-0.669-0.486-1.608-0.337-2.096,0.334C32.293,74.817,32.442,75.758,33.112,76.244L33.112,76.244z M72.178,83.524   c0.671-0.486,0.819-1.424,0.333-2.095c-0.488-0.671-1.425-0.817-2.096-0.331c-0.669,0.486-0.819,1.424-0.331,2.095   C70.569,83.861,71.508,84.011,72.178,83.524L72.178,83.524z M56.308,61.681c0.669-0.486,0.819-1.424,0.333-2.095   c-0.488-0.671-1.425-0.817-2.096-0.331c-0.669,0.486-0.819,1.424-0.331,2.095C54.699,62.021,55.637,62.167,56.308,61.681   L56.308,61.681z M61.599,68.961c0.669-0.486,0.817-1.424,0.331-2.095c-0.486-0.668-1.425-0.817-2.095-0.331   c-0.671,0.486-0.819,1.427-0.333,2.095C59.989,69.301,60.928,69.45,61.599,68.961L61.599,68.961z M66.888,76.244   c0.669-0.486,0.819-1.427,0.331-2.095c-0.486-0.671-1.425-0.82-2.095-0.334c-0.671,0.489-0.819,1.427-0.333,2.098   C65.28,76.581,66.217,76.73,66.888,76.244L66.888,76.244z M85.884,41.34c-0.256-0.788-1.102-1.219-1.89-0.964   c-0.788,0.258-1.219,1.104-0.962,1.893c0.255,0.785,1.102,1.219,1.89,0.961C85.708,42.975,86.141,42.128,85.884,41.34L85.884,41.34   z M60.206,49.684c-0.256-0.788-1.102-1.219-1.89-0.964s-1.219,1.102-0.964,1.893c0.256,0.785,1.103,1.216,1.891,0.961   S60.462,50.472,60.206,49.684L60.206,49.684z M68.765,46.903c-0.255-0.788-1.102-1.219-1.89-0.964s-1.219,1.102-0.962,1.89   s1.102,1.219,1.89,0.964S69.022,47.691,68.765,46.903L68.765,46.903z M77.325,44.12c-0.256-0.785-1.102-1.216-1.89-0.961   s-1.22,1.102-0.964,1.89s1.103,1.219,1.89,0.964C77.149,45.755,77.58,44.908,77.325,44.12L77.325,44.12z M50,15.269   c-0.828,0-1.5,0.671-1.5,1.5s0.672,1.5,1.5,1.5c0.829,0,1.5-0.671,1.5-1.5S50.829,15.269,50,15.269L50,15.269z M50,51.5   c-0.828,0-1.5,0.671-1.5,1.5s0.672,1.5,1.5,1.5c0.829,0,1.5-0.671,1.5-1.5S50.829,51.5,50,51.5L50,51.5z M50,42.269   c-0.828,0-1.5,0.671-1.5,1.5s0.672,1.5,1.5,1.5c0.829,0,1.5-0.671,1.5-1.5S50.829,42.269,50,42.269L50,42.269z M50,33.269   c-0.828,0-1.5,0.671-1.5,1.5s0.672,1.5,1.5,1.5c0.829,0,1.5-0.671,1.5-1.5S50.829,33.269,50,33.269z"/></g><g display="none"><path display="inline" fill-rule="evenodd" clip-rule="evenodd" d="M10.439,71.003l-1.969,7.348c-0.215,0.8,0.26,1.623,1.061,1.837   c0.399,0.105,0.805,0.041,1.138-0.149l3.444-1.989C22.189,90.081,35.92,98,51.5,98s29.311-7.919,37.387-19.951l3.444,1.989   c0.331,0.19,0.737,0.255,1.137,0.149c0.8-0.214,1.274-1.037,1.061-1.837l0,0l-0.011-0.038l-1.958-7.31   c-0.214-0.8-1.037-1.274-1.837-1.061l-7.348,1.969c-0.8,0.214-1.275,1.037-1.061,1.837c0.107,0.398,0.366,0.718,0.699,0.911   l3.27,1.887l0,0C78.99,87.295,66.849,94.487,53,94.974V29h13.5c0.828,0,1.5-0.671,1.5-1.5S67.328,26,66.5,26H53v-9.152   c3.422-0.694,6-3.721,6-7.348C59,5.357,55.643,2,51.5,2S44,5.357,44,9.5c0,3.627,2.576,6.653,6,7.348V26H36.498   C35.671,26,35,26.671,35,27.5s0.671,1.5,1.498,1.5H50v65.974c-13.849-0.486-25.992-7.679-33.283-18.428h-0.001l3.27-1.887   c0.333-0.193,0.592-0.513,0.7-0.911c0.214-0.8-0.262-1.623-1.061-1.837l0,0l-0.038-0.012l-7.312-1.957   C11.477,69.729,10.654,70.203,10.439,71.003L10.439,71.003z M51.5,14c-2.486,0-4.5-2.016-4.5-4.5S49.014,5,51.5,5   C53.984,5,56,7.016,56,9.5S53.984,14,51.5,14z"/></g><g display="none"><path display="inline" fill-rule="evenodd" clip-rule="evenodd" d="M50,80c-16.569,0-30-13.433-30-30c0-16.57,13.431-30,30-30   s30,13.43,30,30C80,66.567,66.569,80,50,80L50,80z M10.48,25.452l7.794,4.5c0.716,0.413,0.962,1.33,0.549,2.048   c-0.415,0.718-1.332,0.964-2.049,0.548l-7.794-4.5C8.262,27.635,8.016,26.718,8.431,26C8.844,25.282,9.762,25.036,10.48,25.452   L10.48,25.452z M25.451,89.519l4.5-7.793c0.415-0.718,1.332-0.964,2.049-0.548c0.718,0.413,0.964,1.33,0.549,2.048l-4.5,7.796   c-0.415,0.715-1.332,0.961-2.049,0.548C25.282,91.153,25.036,90.236,25.451,89.519L25.451,89.519z M67.451,16.774l4.5-7.796   C72.365,8.264,73.282,8.018,74,8.431s0.964,1.33,0.549,2.048l-4.5,7.796c-0.415,0.718-1.332,0.961-2.049,0.548   S67.036,17.492,67.451,16.774L67.451,16.774z M83.226,67.449l7.794,4.5c0.718,0.416,0.964,1.333,0.549,2.051   s-1.332,0.964-2.049,0.548l-7.794-4.5c-0.718-0.413-0.962-1.33-0.548-2.048C81.591,67.282,82.509,67.036,83.226,67.449   L83.226,67.449z M28.049,8.979l4.5,7.796c0.415,0.718,0.168,1.635-0.549,2.048s-1.635,0.17-2.049-0.548l-4.5-7.796   C25.036,9.761,25.282,8.844,26,8.431S27.635,8.264,28.049,8.979L28.049,8.979z M8.98,71.949l7.794-4.5   c0.718-0.413,1.635-0.167,2.049,0.551c0.413,0.718,0.167,1.635-0.549,2.048l-7.794,4.5C9.762,74.964,8.844,74.718,8.431,74   C8.016,73.282,8.262,72.365,8.98,71.949L8.98,71.949z M81.726,29.952l7.794-4.5c0.718-0.416,1.635-0.17,2.049,0.548   s0.168,1.635-0.549,2.048l-7.794,4.5c-0.716,0.416-1.635,0.17-2.048-0.548C80.763,31.282,81.008,30.365,81.726,29.952   L81.726,29.952z M70.049,81.726l4.5,7.793c0.415,0.718,0.168,1.635-0.549,2.051c-0.718,0.413-1.635,0.167-2.049-0.548l-4.5-7.796   c-0.415-0.718-0.168-1.635,0.549-2.048C68.718,80.762,69.635,81.008,70.049,81.726L70.049,81.726z M51.5,3.5v9   c0,0.829-0.671,1.5-1.5,1.5c-0.828,0-1.5-0.671-1.5-1.5v-9C48.5,2.671,49.172,2,50,2C50.829,2,51.5,2.671,51.5,3.5L51.5,3.5z    M3.5,48.5h9c0.829,0,1.5,0.671,1.5,1.5s-0.671,1.5-1.5,1.5h-9C2.672,51.5,2,50.829,2,50S2.672,48.5,3.5,48.5L3.5,48.5z M87.5,48.5   h9c0.829,0,1.5,0.671,1.5,1.5s-0.671,1.5-1.5,1.5h-9c-0.828,0-1.5-0.671-1.5-1.5S86.672,48.5,87.5,48.5L87.5,48.5z M51.5,87.5v9   c0,0.829-0.671,1.5-1.5,1.5c-0.828,0-1.5-0.671-1.5-1.5v-9c0-0.829,0.672-1.5,1.5-1.5C50.829,86,51.5,86.671,51.5,87.5L51.5,87.5z    M50,29c-11.599,0-21,9.401-21,21c0,0.829,0.671,1.5,1.5,1.5S32,50.829,32,50c0-9.94,8.06-18,18-18c0.829,0,1.5-0.671,1.5-1.5   S50.829,29,50,29z"/></g><g display="none"><path display="inline" fill-rule="evenodd" clip-rule="evenodd" d="M26,95h12.297c-2.817-7.28-4.759-19.541-1.868-39.82   C42.077,15.582,60.175,2,60.175,2s13.582,18.1,7.934,57.697C65.558,77.586,61.137,88.435,56.877,95H74c0.829,0,1.5,0.671,1.5,1.5   S74.829,98,74,98H26c-0.829,0-1.5-0.671-1.5-1.5S25.171,95,26,95L26,95z M41.331,95.267c7.585-1.919,15.814-26.32,9.85-50.818   c-4.084-16.778,6.189-23.432,13.778-21c-0.205-1.093-0.434-2.18-0.684-3.261c-5.048-0.946-10.102,1.096-13.286,5.118   c-4.411,5.572-4.326,13.271-2.723,19.852c2.647,10.872,2.681,23.335-0.278,34.157c-0.952,3.48-2.423,7.532-4.544,10.485   c-0.438,0.609-1.898,2.426-2.9,2.587c0.3,0.896,0.631,1.77,0.996,2.613L41.331,95.267L41.331,95.267z M66.493,39.966   c-0.902-0.563-2.042-0.993-3.48-1.195c-7.92-1.131-12.05,11.546-2.823,19.799c2.361,2.112,3.439,5.016,3.684,8.262   c0.461-2.376,0.845-4.688,1.167-6.876l-0.097-0.173c-0.724-1.301-1.646-2.458-2.755-3.451c-2.522-2.256-4.314-5.382-4.273-8.833   c0.023-1.951,0.759-4.459,2.616-5.438c0.645-0.337,1.339-0.425,2.057-0.322c1.84,0.264,3.198,1.002,3.855,2.687   C66.488,42.942,66.506,41.454,66.493,39.966z"/></g><g display="none"><path display="inline" fill-rule="evenodd" clip-rule="evenodd" d="M50,2c-2.182,0-4.263,0.1-6.227,0.387   C43.921,3.236,44,4.109,44,5c0,8.285-6.717,15-15,15c-0.624,0-1.238-0.038-1.842-0.111C26.707,21.734,26.319,23.765,26,26   c-3,21-3,27-3,30c0,10.157,11.974,13.866,21.891,14.766L44,77c-3,21-3,21,6,21s9,0,6-21l-0.891-6.234   C65.025,69.866,77,66.157,77,56c0-3,0-9-3-30S62,2,50,2L50,2z M47.905,70.959C48.626,70.985,49.328,71,50,71   s1.374-0.015,2.095-0.041l1.591,11.142C55.528,95,55.528,95,50,95s-5.528,0-3.686-12.899L47.905,70.959L47.905,70.959z M50,62   c-0.829,0-1.5-0.671-1.5-1.5S49.171,59,50,59c2.693,0,5.676-0.325,8.303-0.899c1.162-0.255,4.408-1.078,5.912-2.399l0,0   c0.625-0.542,1.573-0.478,2.117,0.149c0.543,0.624,0.477,1.57-0.148,2.115c-0.055,0.047-0.111,0.091-0.172,0.129   C62.105,61.303,53.496,62,50,62z"/></g><g display="none"><path display="inline" fill-rule="evenodd" clip-rule="evenodd" d="M5,26c0,19.752,6,18,9,54c0.996,11.959,6,18,15,18s15-3,15-15   s-6-27-3-39c2.463-9.85,15.396-42-6-42C14,2,5,14,5,26L5,26z M95.121,26c0,19.752-6,18-9,54c-0.996,11.959-6,18-15,18s-15-3-15-15   s6-27,3-39c-2.462-9.85-15.396-42,6-42C86.121,2,95.121,14,95.121,26L95.121,26z M68.56,14.439   c0.673-0.296,1.248-0.387,1.942-0.152C97.785,23.463,85.698,35.337,83.121,62c0,0.826-0.672,1.5-1.5,1.5s-1.5-0.674-1.5-1.5   c0-0.047,0.004-0.097,0.008-0.141l0.006-0.149c0.383-3.946,1.002-7.849,1.761-11.736c0.627-3.214,1.354-6.401,2.004-9.606   c0.782-3.867,1.84-9.196,0.489-13.025c-1.813-5.136-8.463-8.051-13.645-9.82c-1.227-0.416-0.977-0.463-2.152,0.091   c-3.003,1.415-6.303,3.592-7.058,6.712c-0.854,3.524,1.343,9.196,2.474,12.539c2.332,6.905,4.142,13.254,4.113,20.637   c0,0.826-0.672,1.5-1.5,1.5c-0.827,0-1.5-0.674-1.5-1.5C65.213,35.557,47.812,23.642,68.56,14.439L68.56,14.439z M31.561,14.439   C52.312,23.642,34.909,35.557,35,57.5c0,0.826-0.671,1.5-1.5,1.5c-0.828,0-1.5-0.674-1.5-1.5   c-0.029-7.383,1.781-13.731,4.113-20.637c1.129-3.343,3.326-9.015,2.475-12.539c-0.756-3.12-4.057-5.297-7.059-6.712   c-1.178-0.554-0.927-0.507-2.151-0.091c-5.183,1.77-11.83,4.685-13.646,9.82c-1.35,3.829-0.294,9.158,0.49,13.025   c0.646,3.205,1.377,6.393,2.004,9.606c0.758,3.888,1.378,7.79,1.759,11.736l0.007,0.149C19.997,61.903,20,61.953,20,62   c0,0.826-0.672,1.5-1.5,1.5c-0.829,0-1.5-0.674-1.5-1.5C14.422,35.337,2.336,23.463,29.618,14.287   C30.313,14.053,30.89,14.144,31.561,14.439z"/></g><g><path fill-rule="evenodd" clip-rule="evenodd" d="M2,35c0-3,3-3,21-3c0,0,9.018,0,12,0c11.998,0,9,3,15,3c5.998,0,3-3,15-3   c2.982,0,12,0,12,0c17.998,0,21,0,21,3v3c0,3-2.145,0.87-3.002,6C92,62,89,65,73.998,65C69.094,65,71,65,71,65s-12,0-15.002-9   C52.089,44.267,54.286,44,50,44s-2.089,0.267-6,12c-3,9-15.002,9-15.002,9s1.908,0-2.998,0C10.998,65,8,62,5,44   c-0.855-5.13-3-3-3-6V35L2,35z M59,39.5c0,0,0,13.5,9,19.5l0,0l0,0c0.682,0.469,1.615,0.296,2.086-0.384   c0.469-0.683,0.297-1.617-0.384-2.086c-3.328-2.291-5.402-5.833-6.585-9.627c-0.511-1.641-1.246-5.317-1.141-7.146   C61.991,39.676,62,39.588,62,39.5c0-0.829-0.672-1.5-1.5-1.5C59.671,38,59,38.671,59,39.5L59,39.5z M21.702,56.53   c-3.328-2.291-5.402-5.833-6.585-9.627c-0.511-1.641-1.246-5.317-1.141-7.146C13.991,39.676,14,39.588,14,39.5   c0-0.829-0.672-1.5-1.5-1.5c-0.829,0-1.502,0.671-1.502,1.5c0,0,0,13.5,9,19.5l0,0c0.684,0.469,1.617,0.296,2.088-0.384   C22.555,57.934,22.383,56.999,21.702,56.53z"/></g><g display="none"><path display="inline" fill-rule="evenodd" clip-rule="evenodd" d="M77,29H66.523l2.109-16.163   c0.642-4.928,5.159-8.402,10.088-7.761l14.874,1.939l0.388-2.974L79.109,2.103C72.537,1.244,66.515,5.879,65.658,12.45L63.499,29   H40.931c-0.757-8.411-7.824-15-16.431-15C15.387,14,8,21.386,8,30.5C8,39.611,15.387,47,24.5,47c0.284,0,0.565-0.009,0.845-0.021   L32,98h22.499h3.025H68L77,29L77,29z M66.132,32h7.45l-1.956,15h-7.45L66.132,32L66.132,32z M61.15,47H28.373l-0.057-0.445   C35.117,44.946,40.288,39.128,40.931,32h22.176L61.15,47L61.15,47z M11.352,27.427c0.691-2.3,3.145-0.967,3.297-0.882l0.006,0.003   h0.001L21.5,30.5l-6.844,3.952h-0.001l-0.006,0.003c-0.152,0.085-2.603,1.415-3.296-0.879C11.122,32.589,11,31.558,11,30.5   S11.122,28.414,11.352,27.427L11.352,27.427z M16.149,23.946c-0.149-0.088-2.493-1.526-0.921-3.255   c1.504-1.424,3.335-2.505,5.372-3.117c2.325-0.539,2.398,2.241,2.401,2.417v0.006V20v7.901l-6.844-3.949l-0.001-0.003   L16.149,23.946L16.149,23.946z M15.23,40.312c-1.553-1.702,0.694-3.123,0.91-3.252l0.009-0.006l0.006-0.003l0.001-0.003l7.34-4.236   l1.459,11.18C24.805,43.997,24.652,44,24.5,44C20.91,44,17.649,42.597,15.23,40.312L15.23,40.312z M37.644,27.412   c0.122,0.519,0.212,1.049,0.272,1.588h-7.819l4.247-2.452h0.001l0.006-0.003C34.503,26.46,36.947,25.133,37.644,27.412   L37.644,27.412z M32.851,23.946l-0.006,0.003l-0.001,0.003L26,27.901V20v-0.003v-0.006c0.003-0.176,0.075-2.959,2.404-2.417   c2.036,0.615,3.87,1.696,5.376,3.123C35.337,22.426,33,23.858,32.851,23.946L32.851,23.946z M27.925,43.561L26.416,32h11.5   C37.297,37.599,33.254,42.169,27.925,43.561L27.925,43.561z M45.5,71c2.484,0,4.5,2.016,4.5,4.5S47.984,80,45.5,80   c-2.486,0-4.5-2.016-4.5-4.5S43.014,71,45.5,71L45.5,71z M46.927,75.037c0.255,0.788-0.176,1.632-0.964,1.89   c-0.788,0.255-1.633-0.176-1.89-0.964s0.176-1.635,0.964-1.89C45.824,73.818,46.67,74.249,46.927,75.037L46.927,75.037z M51.5,53   c2.484,0,4.5,2.016,4.5,4.5S53.984,62,51.5,62c-2.486,0-4.5-2.016-4.5-4.5S49.014,53,51.5,53L51.5,53z M52.927,57.037   c0.255,0.788-0.176,1.632-0.964,1.89c-0.788,0.255-1.633-0.176-1.89-0.964s0.176-1.635,0.964-1.89   C51.824,55.815,52.67,56.249,52.927,57.037L52.927,57.037z M52.927,90.037c0.255,0.785-0.176,1.632-0.964,1.887   c-0.788,0.258-1.633-0.173-1.89-0.961s0.176-1.635,0.962-1.89C51.824,88.815,52.67,89.246,52.927,90.037L52.927,90.037z    M64.927,72.037c0.256,0.788-0.174,1.635-0.962,1.89s-1.635-0.176-1.891-0.964c-0.255-0.788,0.176-1.635,0.964-1.89   S64.67,71.249,64.927,72.037L64.927,72.037z M35.5,55.238l1.551,11.897c0.107,0.823-0.472,1.576-1.293,1.682   c-0.822,0.108-1.575-0.472-1.682-1.292l-1.551-11.9c-0.107-0.82,0.472-1.573,1.293-1.679C34.638,53.838,35.391,54.415,35.5,55.238z   "/></g><g display="none"><path display="inline" fill-rule="evenodd" clip-rule="evenodd" fill="#000000" d="M28.5,58.668L28.5,58.668   c0.828,0,1.5,0.671,1.5,1.5c0,0.827-0.672,1.5-1.5,1.5s-1.5-0.673-1.5-1.5C27,59.339,27.672,58.668,28.5,58.668"/><g display="inline"><path fill-rule="evenodd" clip-rule="evenodd" d="M74,92c-6,0-6,3-12,3s-6-3-12-3s-6,3-12,3s-6-3-12-3s-6,3-12,3s-6-3-12-3v3    c6,0,6,3,12,3s6-3,12-3s6,3,12,3s6-3,12-3s6,3,12,3s6-3,12-3s6,3,12,3s6-3,12-3v-3c-6,0-6,3-12,3S80,92,74,92z"/><path fill-rule="evenodd" clip-rule="evenodd" d="M86.501,82.993L89,68H59v-3c8.681-2.895,17.363-2.995,25.091-0.702    c0.255,0.175,0.551,0.263,0.848,0.263c0.384,0,0.768-0.146,1.061-0.439c0.586-0.586,0.586-1.535,0-2.121    c-0.035-0.036-0.073-0.067-0.11-0.1C84.058,60.229,59,36.793,59,5V3.5C59,2.671,58.328,2,57.5,2S56,2.671,56,3.5V5    C29,17,14,44,20,65c9-3,27-3,36,0v3H17l8.019,12.029C19.981,80.335,19.653,83,14,83c-6,0-6-3-12-3v3c6,0,6,3,12,3s6-3,12-3    s6,3,12,3s6-3,12-3s6,3,12,3s6-3,12-3s6,3,12,3s6-3,12-3v-3C92.171,80,92.004,82.83,86.501,82.993z M84.459,77H26.605l-2-3h60.353    L84.459,77z"/></g></g><g display="none"><path display="inline" fill-rule="evenodd" clip-rule="evenodd" d="M98,98l-6-9L63.803,46.704l6.693-10.04   c0.458-0.69,0.272-1.62-0.416-2.08C69.39,34.124,68.46,34.31,68,35l-6,8.999l-4.197-6.295l6.693-10.04   c0.458-0.69,0.272-1.62-0.416-2.08S62.458,25.31,62,26l-6,8.999l-4.197-6.295l6.693-10.04c0.46-0.69,0.272-1.62-0.416-2.08   C57.39,16.124,56.46,16.312,56,17l-6,8.999L44,17c-0.46-0.688-1.392-0.876-2.08-0.416s-0.876,1.39-0.416,2.08l6.693,10.04L8,89   l-6,9h12h3.606H26H98 M16,95H7.606l2.875-4.313l0.015-0.022L50,31.408l0,0l0,0l4.197,6.296L16,95L16,95z M62,49.408l27.504,41.256   l0.015,0.022L92.394,95H50H31.606l16.812-25.22L62,49.408z"/></g><g display="none"><path display="inline" fill-rule="evenodd" clip-rule="evenodd" d="M2,56c6,0,6,3,12,3s6-3,12-3s6,3,12,3   c1.948,0,3.264-0.316,4.357-0.743c-0.57-5.703-2-11.365-4.357-17.257c14.938,0,25.283,6.429,30.529,16.237   C69.872,56.585,71.352,56,74,56c6,0,6,3,12,3s6-3,12-3v3c-6,0-6,3-12,3s-6-3-12-3c-1.906,0-3.205,0.304-4.285,0.715   c-0.065-0.157-0.135-0.313-0.203-0.469c1.225,2.749,2.08,5.726,2.555,8.874l-0.006,0.002C72.633,68.044,73.271,68,74,68   c6,0,6,3,12,3s6-3,12-3v3c-6,0-6,3-12,3s-6-3-12-3s-6,3-12,3s-6-3-12-3s-6,3-12,3s-6-3-12-3s-6,3-12,3s-6-3-12-3v-3c6,0,6,3,12,3   s6-3,12-3s6,3,12,3c1.931,0,3.238-0.311,4.326-0.731c0.309-3.083,0.395-6.104,0.248-9.1C41.437,61.64,40.078,62,38,62   c-6,0-6-3-12-3s-6,3-12,3s-6-3-12-3V56L2,56z M68.94,58.036c0.064,0.127,0.128,0.256,0.188,0.385   C69.068,58.292,69.005,58.163,68.94,58.036L68.94,58.036z M69.222,58.614c0.067,0.145,0.134,0.287,0.199,0.43   C69.355,58.9,69.289,58.759,69.222,58.614L69.222,58.614z M2,80c6,0,6,3,12,3s6-3,12-3s6,3,12,3s6-3,12-3s6,3,12,3s6-3,12-3   s6,3,12,3s6-3,12-3v3c-6,0-6,3-12,3s-6-3-12-3s-6,3-12,3s-6-3-12-3s-6,3-12,3s-6-3-12-3s-6,3-12,3s-6-3-12-3V80z"/></g><g display="none"><path display="inline" fill-rule="evenodd" clip-rule="evenodd" d="M2,92c6,0,6,3,12,3s6-3,12-3s6,3,12,3s6-3,12-3s6,3,12,3   s6-3,12-3s6,3,12,3s6-3,12-3v3c-6,0-6,3-12,3s-6-3-12-3s-6,3-12,3s-6-3-12-3s-6,3-12,3s-6-3-12-3s-6,3-12,3s-6-3-12-3V92L2,92z    M59,8l6-6h3l6,6v3v6l0.162,1.958l1.358,16.279l0.325,3.916l2.836,34.043l0.149,1.779c6.868,1.254,13.33,3.676,19.169,7.053V83v3   c-6,0-6,3-12,3s-6-3-12-3s-6,3-12,3s-6-3-12-3s-6,3-12,3s-6-3-12-3s-6,3-12,3s-6-3-12-3v-3c6,0,6,3,12,3s6-3,12-3   c3.807,0,5.197,1.207,7.238,2.091c6.189-4.408,13.252-7.669,20.877-9.477l1.34-16.069l0.385-4.629l1.604-19.239l0.385-4.627L59,17   v-6V8L59,8z M69.756,8l-2.998-3h-0.516l-3,3H65h3H69.756L69.756,8z M68,11v6h3.1v-6H68L68,11z M65,17v-6h-3v6H65L65,17z    M74.289,56.589l-1.223-14.657L58.738,56.261l-1.443,17.322L74.289,56.589L74.289,56.589z M68.879,20H61.76l-0.646,7.765L68.879,20   L68.879,20z M94.408,83.478C86.513,79.343,77.53,77,68,77c-11.316,0-21.861,3.298-30.729,8.982l-0.165-0.006   C37.389,85.991,37.686,86,38,86c6,0,6-3,12-3s6,3,12,3s6-3,12-3s6,3,12,3C90.484,86,91.616,84.323,94.408,83.478L94.408,83.478z    M37.024,85.971c-0.135-0.009-0.267-0.018-0.396-0.029C36.758,85.953,36.889,85.962,37.024,85.971z"/></g><g display="none"><path display="inline" fill-rule="evenodd" clip-rule="evenodd" d="M23,35c18,0,21,6,27,6c5.998,0,9-6,27-6c15,0,21,3,21,6   s-2.145,0.87-3.002,6C92,65,83,68,73.998,68C62,68,59,59,55.998,53C54.352,49.701,53,47,50,47c-3.002,0-4.359,2.786-6,6.044   C41,59,37.998,68,26,68c-9,0-18-3-21-21c-0.855-5.13-3-3-3-6S8,35,23,35z"/></g><g display="none"><path display="inline" fill-rule="evenodd" clip-rule="evenodd" d="M2,38c0-3,3-3,21-3c0,0,9.018,0,12,0c12,0,9,3,15,3s3-3,15-3   c2.982,0,12,0,12,0c18,0,21,0,21,3v3c0,3-2.145,0.868-3,6c-3,18-6,21-21,21c-4.906,0-3,0-3,0s-12,0-15-9   c-3.911-11.735-1.714-12-6-12s-2.089,0.265-6,12c-3,9-15,9-15,9s1.906,0-3,0C11,68,8,65,5,47c-0.855-5.132-3-3-3-6V38L2,38z    M6.5,38C5.671,38,5,38.671,5,39.5C5,40.327,5.671,41,6.5,41C7.328,41,8,40.327,8,39.5C8,38.671,7.328,38,6.5,38L6.5,38z M93.5,38   c-0.829,0-1.5,0.671-1.5,1.5c0,0.827,0.671,1.5,1.5,1.5s1.5-0.673,1.5-1.5C95,38.671,94.329,38,93.5,38z"/></g><g display="none"><path display="inline" fill-rule="evenodd" clip-rule="evenodd" d="M10.756,19.241c-0.586-0.586-0.586-1.537,0-2.123l6.364-6.363   c0.585-0.586,1.534-0.586,2.12,0l1.326,1.326C28.695,5.765,38.906,2,50,2c11.092,0,21.303,3.765,29.432,10.081l1.327-1.326   c0.586-0.586,1.536-0.586,2.121,0l6.364,6.363c0.585,0.586,0.585,1.537,0,2.123l-1.326,1.327C94.236,28.695,98,38.908,98,50   s-3.765,21.305-10.082,29.432l1.326,1.327c0.585,0.586,0.585,1.535,0,2.121l-6.364,6.363c-0.585,0.586-1.535,0.586-2.121,0   l-1.327-1.327C71.305,94.235,61.092,98,50,98c-11.094,0-21.305-3.765-29.434-10.084l-1.326,1.327c-0.586,0.586-1.535,0.586-2.12,0   l-6.364-6.363c-0.586-0.586-0.586-1.535,0-2.121l1.326-1.327C5.764,71.305,2,61.092,2,50s3.764-21.305,10.082-29.432L10.756,19.241   L10.756,19.241z M37.809,29.323l0.523,0.523c0.585,0.586,0.585,1.537,0,2.123l-6.364,6.363c-0.585,0.586-1.535,0.586-2.121,0   l-0.521-0.523C27.213,41.382,26,45.548,26,50c0,4.45,1.213,8.618,3.325,12.19l0.521-0.523c0.586-0.586,1.536-0.586,2.121,0   l6.364,6.363c0.585,0.586,0.585,1.537,0,2.123l-0.523,0.523C41.383,72.787,45.549,74,50,74c4.45,0,8.617-1.213,12.19-3.323   l-0.524-0.523c-0.584-0.586-0.584-1.537,0-2.123l6.365-6.363c0.586-0.586,1.536-0.586,2.121,0l0.522,0.523   C72.787,58.618,74,54.45,74,50c0-4.452-1.213-8.618-3.325-12.19l-0.522,0.523c-0.585,0.586-1.535,0.586-2.121,0l-6.365-6.363   c-0.584-0.586-0.584-1.537,0-2.123l0.524-0.523C58.617,27.213,54.45,26,50,26C45.549,26,41.383,27.213,37.809,29.323L37.809,29.323   z M64.85,69.093l16.97,16.969l4.242-4.242l-16.97-16.971L64.85,69.093L64.85,69.093z M64.85,30.907l4.242,4.244l16.97-16.973   l-4.242-4.242L64.85,30.907L64.85,30.907z M13.938,18.179l16.97,16.973l4.243-4.244l-16.97-16.971L13.938,18.179L13.938,18.179z    M13.938,81.819l4.243,4.242l16.97-16.969l-4.243-4.244L13.938,81.819z"/></g><g display="none"><path display="inline" fill-rule="evenodd" clip-rule="evenodd" d="M50,16.849v0.181C71.671,17.82,89,35.634,89,57.5   C89,79.868,70.867,98,48.5,98C26.132,98,8,79.868,8,57.5c0-21.866,17.328-39.68,38.998-40.471v-0.181   C43.576,16.155,41,13.128,41,9.5C41,5.357,44.357,2,48.5,2s7.498,3.357,7.498,7.5C55.998,13.128,53.422,16.155,50,16.849L50,16.849   z M48.5,8c-0.829,0-1.502,0.673-1.502,1.5c0,0.829,0.673,1.5,1.502,1.5c0.828,0,1.5-0.671,1.5-1.5C50,8.673,49.328,8,48.5,8L48.5,8   z M48.5,5C46.014,5,44,7.016,44,9.5c0,2.485,2.014,4.5,4.5,4.5c2.484,0,4.5-2.015,4.5-4.5C53,7.016,50.984,5,48.5,5L48.5,5z    M40.014,51.136L30.469,75.53l24.395-9.545L40.014,51.136L40.014,51.136z M56.984,63.863l9.547-24.394l-24.396,9.545L56.984,63.863   L56.984,63.863z M50,24.5c0-0.829-0.672-1.5-1.5-1.5c-0.829,0-1.502,0.671-1.502,1.5v1.536C30.796,26.796,17.795,39.796,17.037,56   h-1.539C14.671,56,14,56.671,14,57.5c0,0.827,0.671,1.5,1.498,1.5h1.539c0.758,16.202,13.759,29.203,29.961,29.964V90.5   c0,0.829,0.673,1.5,1.502,1.5c0.828,0,1.5-0.671,1.5-1.5v-1.536C66.203,88.203,79.203,75.202,79.962,59H81.5   c0.828,0,1.5-0.673,1.5-1.5c0-0.829-0.672-1.5-1.5-1.5h-1.538C79.203,39.796,66.203,26.796,50,26.036V24.5L50,24.5z M50,29.04v1.46   c0,0.827-0.672,1.5-1.5,1.5c-0.829,0-1.502-0.673-1.502-1.5v-1.46C32.453,29.792,20.793,41.454,20.038,56H21.5   c0.828,0,1.5,0.671,1.5,1.5c0,0.827-0.672,1.5-1.5,1.5h-1.462c0.755,14.546,12.415,26.206,26.96,26.96V84.5   c0-0.827,0.673-1.5,1.502-1.5c0.828,0,1.5,0.673,1.5,1.5v1.46C64.546,85.206,76.206,73.546,76.961,59H75.5   c-0.829,0-1.5-0.673-1.5-1.5c0-0.829,0.671-1.5,1.5-1.5h1.461C76.206,41.454,64.546,29.792,50,29.04z"/></g><g display="none"><path display="inline" fill-rule="evenodd" clip-rule="evenodd" d="M50,17.04c10.484,0.512,19.623,6.141,24.977,14.441l5.472-3.16   c-0.34-1.82,0.478-3.739,2.174-4.718c2.153-1.243,4.905-0.505,6.147,1.646c1.242,2.153,0.506,4.904-1.647,6.146   c-1.696,0.979-3.767,0.729-5.174-0.476l-5.466,3.154C78.729,38.417,80,43.344,80,48.569c0,5.182-1.251,10.072-3.465,14.386   l5.413,3.124c1.407-1.203,3.478-1.455,5.174-0.476c2.153,1.242,2.89,3.993,1.647,6.146c-1.242,2.151-3.994,2.89-6.147,1.646   c-1.696-0.979-2.514-2.897-2.174-4.72l-5.407-3.12C69.697,73.912,60.526,79.584,50,80.1v6.157c1.746,0.616,3,2.285,3,4.243   c0,2.484-2.016,4.5-4.5,4.5S44,92.984,44,90.5c0-1.958,1.252-3.627,3-4.243v-6.152c-10.562-0.473-19.77-6.131-25.143-14.49   l-5.306,3.063c0.339,1.822-0.478,3.741-2.175,4.72c-2.152,1.243-4.904,0.505-6.148-1.646c-1.242-2.153-0.504-4.904,1.648-6.146   c1.697-0.979,3.766-0.728,5.175,0.476l5.304-3.063c-2.232-4.328-3.493-9.24-3.493-14.447c0-5.249,1.282-10.2,3.55-14.554   l-5.36-3.095c-1.409,1.205-3.478,1.455-5.175,0.476c-2.152-1.242-2.891-3.993-1.648-6.146c1.244-2.151,3.996-2.89,6.148-1.646   c1.697,0.979,2.514,2.897,2.175,4.718l5.37,3.102C27.304,23.118,36.482,17.504,47,17.034v-6.291c-1.748-0.617-3-2.285-3-4.243   C44,4.016,46.016,2,48.5,2S53,4.016,53,6.5c0,1.958-1.254,3.626-3,4.243V17.04L50,17.04z M50,38.106   c2.729,0.392,5.119,1.83,6.75,3.898l10.443-6.029C63.415,30.349,57.166,26.522,50,26.052V38.106L50,38.106z M58.252,44.603   C58.734,45.806,59,47.123,59,48.5s-0.266,2.692-0.748,3.897l10.443,6.031C70.171,55.435,71,52.063,71,48.5   s-0.829-6.935-2.305-9.929L58.252,44.603L58.252,44.603z M56.75,54.995c-1.631,2.068-4.021,3.507-6.75,3.898v12.055   c7.166-0.471,13.415-4.299,17.193-9.924L56.75,54.995L56.75,54.995z M47,58.894c-2.73-0.392-5.119-1.83-6.75-3.898l-10.444,6.029   c3.778,5.625,10.028,9.453,17.194,9.924V58.894L47,58.894z M38.747,52.397C38.266,51.192,38,49.877,38,48.5   s0.266-2.694,0.747-3.897l-10.442-6.031C26.829,41.565,26,44.937,26,48.5s0.829,6.935,2.305,9.929L38.747,52.397L38.747,52.397z    M40.25,42.005c1.631-2.068,4.02-3.507,6.75-3.898V26.052c-7.166,0.471-13.416,4.297-17.194,9.924L40.25,42.005L40.25,42.005z    M48.5,44c-2.484,0-4.5,2.015-4.5,4.5c0,2.484,2.016,4.5,4.5,4.5s4.5-2.016,4.5-4.5C53,46.015,50.984,44,48.5,44z"/></g><g display="none"><path display="inline" fill-rule="evenodd" clip-rule="evenodd" d="M5,50h12h3h3c0,3.313,2.687,6,6,6s6-2.687,6-6h3h45h3h9h3   c0,26.509-21.49,48-48,48C23.489,98,2,76.509,2,50H5L5,50z M42.205,54.5c-0.414-0.718-3.93,0.536-4.647,0.95   c-0.716,0.415-0.962,1.332-0.548,2.05s1.332,0.964,2.049,0.55C39.775,57.635,42.62,55.216,42.205,54.5L42.205,54.5z M20.513,53   h-3.376C18.652,69.819,32.785,83,50,83c17.213,0,31.346-13.181,32.862-30H37.487c-1.236,3.495-4.569,6-8.487,6   S21.749,56.495,20.513,53L20.513,53z M31.813,60.5c-0.413-0.718-3.929,0.536-4.646,0.95c-0.718,0.415-0.964,1.332-0.549,2.05   c0.414,0.716,1.332,0.962,2.049,0.548C29.384,63.635,32.227,61.218,31.813,60.5L31.813,60.5z M39.5,68.187   c-0.718-0.415-3.135,2.43-3.549,3.147c-0.415,0.718-0.169,1.635,0.549,2.048c0.718,0.414,1.635,0.168,2.048-0.548   C38.963,72.116,40.217,68.601,39.5,68.187L39.5,68.187z M57.793,54.5c-0.413,0.716,2.43,3.135,3.148,3.55   c0.717,0.414,1.635,0.168,2.049-0.55s0.168-1.635-0.549-2.05C61.725,55.036,58.207,53.782,57.793,54.5L57.793,54.5z M68.186,60.5   c-0.412,0.718,2.431,3.135,3.146,3.548c0.719,0.414,1.637,0.168,2.05-0.548c0.415-0.718,0.169-1.635-0.548-2.05   C72.116,61.036,68.601,59.782,68.186,60.5L68.186,60.5z M60.5,68.187c-0.718,0.414,0.536,3.93,0.951,4.647   c0.414,0.716,1.331,0.962,2.049,0.548c0.718-0.413,0.963-1.33,0.548-2.048C63.635,70.616,61.217,67.771,60.5,68.187L60.5,68.187z    M50,59c-0.829,0-1.502,3.673-1.502,4.5c0,0.829,0.673,1.5,1.502,1.5c0.828,0,1.5-0.671,1.5-1.5C51.5,62.673,50.828,59,50,59L50,59   z M50,71c-0.829,0-1.502,3.673-1.502,4.5S49.171,77,50,77c0.828,0,1.5-0.673,1.5-1.5S50.828,71,50,71z"/></g><g display="none"><path display="inline" fill-rule="evenodd" clip-rule="evenodd" d="M20.188,5L26,98h54l5.813-93H87.5C88.328,5,89,4.327,89,3.5   C89,2.671,88.328,2,87.5,2H86H20h-1.5C17.671,2,17,2.671,17,3.5C17,4.327,17.671,5,18.5,5H20.188L20.188,5z M30.5,59h45   c0.828,0,1.5,0.671,1.5,1.5c0,0.827-0.672,1.5-1.5,1.5h-45c-0.829,0-1.5-0.673-1.5-1.5C29,59.671,29.671,59,30.5,59L30.5,59z    M30.5,50h45c0.828,0,1.5,0.671,1.5,1.5c0,0.827-0.672,1.5-1.5,1.5h-45c-0.829,0-1.5-0.673-1.5-1.5C29,50.671,29.671,50,30.5,50   L30.5,50z M30.5,41h45c0.828,0,1.5,0.671,1.5,1.5c0,0.827-0.672,1.5-1.5,1.5h-45c-0.829,0-1.5-0.673-1.5-1.5   C29,41.671,29.671,41,30.5,41z"/></g><g display="none"><path display="inline" fill-rule="evenodd" clip-rule="evenodd" d="M50,26c0-6,3-6,3-12s-3-6-3-12h3c0,6,3,6,3,12s-3,6-3,12H50   L50,26z M77.464,81.904L76.436,80H23.563L14.27,97.214l0,0c-0.394,0.728-1.305,1-2.033,0.605c-0.728-0.394-1-1.305-0.606-2.033   h-0.001l16.651-30.834C18.589,59.083,11.46,49.409,8.97,38H91.03c-2.492,11.409-9.62,21.083-19.31,26.953l8.382,15.524   C81.011,80.169,81.986,80,83,80c4.97,0,9,4.03,9,9s-4.03,9-9,9s-9-4.03-9-9C74,86.117,75.355,83.552,77.464,81.904L77.464,81.904z    M74.816,77l-5.717-10.587C63.37,69.347,56.879,71,50,71s-13.371-1.653-19.1-4.587L25.183,77H74.816L74.816,77z M91.572,35   C91.852,33.04,92,31.038,92,29h-3H11H8c0,2.038,0.148,4.04,0.428,6H91.572L91.572,35z M26,26c0-6,3-6,3-12s-3-6-3-12h3   c0,6,3,6,3,12s-3,6-3,12H26L26,26z M74,26c0-6,3-6,3-12s-3-6-3-12h3c0,6,3,6,3,12s-3,6-3,12H74z"/></g><g display="none"><path display="inline" fill-rule="evenodd" clip-rule="evenodd" stroke="#000000" stroke-width="0.216" stroke-miterlimit="22.9256" d="   M62,20c21,0,30,15,30,30v6c0,3.843-1.643,8.231-4.456,12H96.5c0.828,0,1.5,0.673,1.5,1.5S97.328,71,96.5,71H84.91   c-3.647,3.534-8.471,6-13.91,6H50c0-6.627-5.373-12-12-12c-6.563,0-11.893,5.268-11.997,11.804C14.227,75.948,2,72.782,2,62   C2,44,35,20,62,20L62,20z M38,86c4.971,0,9-4.03,9-9s-4.029-9-9-9s-9,4.03-9,9S33.029,86,38,86L38,86z M38,80c1.656,0,3-1.343,3-3   s-1.344-3-3-3s-3,1.343-3,3S36.344,80,38,80L38,80z M59,71h12V41c0-3.315-2.687-6-6-6c-3.314,0-6,2.685-6,6V71L59,71z M65,38   c-1.656,0-3,1.343-3,3s1.344,3,3,3s3-1.343,3-3S66.656,38,65,38L65,38z M74,41c0-4.97-4.029-9-9-9c-4.972,0-9,4.03-9,9v33h15   c1.022,0,2.024-0.105,3-0.305V41L74,41z M50,39.5c0-0.827-0.671-1.5-1.5-1.5h-21c-0.829,0-1.5,0.673-1.5,1.5v12   c0,0.827,0.671,1.5,1.5,1.5h21c0.829,0,1.5-0.673,1.5-1.5V39.5z"/></g><g display="none"><path display="inline" fill-rule="evenodd" clip-rule="evenodd" d="M90.605,66.394c5.859,5.857,5.859,15.355,0,21.213   C87.678,90.535,83.838,92,79.998,92H79.98h-0.007L56,92.001c-9,0-21,0-24-6.001c2.985-5.971,8.945-11.941,23.789-11.999L32,50.214   V62c0,21-9,33-15,36c-6-3-12-9-12-30V17.023C4.994,13.177,6.459,9.329,9.393,6.395c5.858-5.859,15.355-5.859,21.213,0   L90.605,66.394L90.605,66.394z M48.498,86h9C58.328,86,59,85.329,59,84.5S58.328,83,57.498,83h-9C47.671,83,47,83.671,47,84.5   S47.671,86,48.498,86L48.498,86z M70.998,89c-0.559-0.422-1.097-0.885-1.606-1.394L58.787,77H56   c-8.197,0-16.029,1.711-20.441,8.777C39.447,89.286,51.674,89,56,89H70.998L70.998,89z M11,39.5v12c0,0.829,0.671,1.5,1.5,1.5   c0.828,0,1.5-0.671,1.5-1.5v-12c0-0.827-0.672-1.5-1.5-1.5C11.671,38,11,38.673,11,39.5L11,39.5z M29,47.212L9.393,27.606   C8.885,27.097,8.42,26.562,8,26.001V68c0,6.38,0.523,14.59,3.432,20.408c1.359,2.718,3.078,4.64,5.51,6.134   c3.012-2.133,5.623-6.131,7.125-9.134C27.641,78.26,29,69.931,29,62V47.212L29,47.212z M14.697,11.697   c-0.586,0.585-0.586,1.535,0,2.121L17.879,17l-3.182,3.182c-0.586,0.586-0.586,1.535,0,2.121c0.584,0.586,1.535,0.586,2.119,0   L20,19.121l3.182,3.182c0.586,0.586,1.535,0.586,2.121,0s0.586-1.535,0-2.121L22.121,17l3.182-3.182   c0.586-0.586,0.586-1.536,0-2.121c-0.586-0.586-1.535-0.586-2.121,0L20,14.879l-3.184-3.182   C16.232,11.111,15.281,11.111,14.697,11.697z"/></g><g display="none"><path display="inline" fill-rule="evenodd" clip-rule="evenodd" d="M97.121,79.651c1.172,1.172,1.17,3.072,0,4.242l-4.244,4.242   c-1.172,1.174-3.07,1.174-4.242,0L37.818,37.319l-4.244,4.242l-3.373,30.361c-7.84-4.931-15.255-10.808-22.081-17.634   c-2.134-2.134-4.171-4.33-6.12-6.574c4.689-4.676,15.549-15.583,25.211-25.245c4.95-4.949,5.658-5.657,10.607-10.607   c1.172-1.17,3.07-1.17,4.242,0c2.828,2.829,5.657,5.658,8.486,8.486c1.172,1.172,1.172,3.07,0,4.242l-4.244,4.244L97.121,79.651   L97.121,79.651z M35.695,35.198l0.034-0.034l0.1-0.1l0.1-0.099l0.1-0.101l0.099-0.099l0.101-0.1l0.1-0.1l0.099-0.1l0.1-0.098   l0.101-0.102l0.099-0.098l0.1-0.1l0.1-0.1l0.098-0.1l0.102-0.1l0.1-0.1l0.098-0.1l0.1-0.1l0.1-0.1l0.1-0.098l0.1-0.102l0.1-0.098   l0,0l4.242-4.244l0.066-0.066l0.166-0.165l0.166-0.165l0.166-0.166l0.165-0.166l0.331-0.332l0.166-0.166l0.165-0.165l0.165-0.165   l0.168-0.166l0.165-0.166l0.231-0.23l0,0l4.244-4.244c-2.829-2.828-5.658-5.657-8.486-8.486c-3.536,3.537-7.07,7.071-10.607,10.607   C21.59,32.334,13.869,40.103,6.121,47.839c1.338,1.476,2.711,2.922,4.119,4.329c5.385,5.384,11.246,10.261,17.521,14.562   l2.95-26.544l0.742-0.745L35.695,35.198z"/></g><g display="none"><path display="inline" fill-rule="evenodd" clip-rule="evenodd" d="M81.2,31.541c-0.547,3.459-1.806,6.774-3.716,9.757   c-2.206,3.441-5.183,6.297-8.725,8.339c-1.649,0.952-3.141,2.132-4.433,3.504c-0.829,0.88-1.579,1.84-2.235,2.87   c-1.003,1.565-1.752,3.225-2.257,4.928c-2.412,8.115,0.698,17.225,8.16,22.003c9.026,5.78,21.149,3.123,26.932-5.905   c2.115-3.303,3.127-7.127,3.071-11.039c-0.12-8.4-2.619-17.188-7.008-24.361C88.903,38.222,85.289,33.619,81.2,31.541L81.2,31.541z    M64.327,53.141l4.74,2.736l0,0c7.793,4.5,9.293,1.901,13.189,4.151c3.589,2.071,4.816,6.658,2.745,10.245   s-6.657,4.816-10.243,2.745c-0.824-0.475-1.355-0.932-1.754-1.397c-0.612-0.659-1.092-1.417-1.427-2.228   c-0.81-1.265-2.153-2.8-5.868-4.944c0,0-0.217-0.165-0.56-0.44l-5.315-3.07L4.251,28.848c-2.152-1.242-2.891-3.994-1.646-6.146   c1.242-2.152,3.994-2.891,6.146-1.646L64.327,53.141z"/></g><g display="none"><path display="inline" fill-rule="evenodd" clip-rule="evenodd" d="M60.441,85.228l-0.08,0.004   c0.212-0.326,0.414-0.655,0.605-0.983C63.775,79.426,65,73.54,65,68s-1.225-11.426-4.033-16.248   c-1.859-3.193-4.706-6.321-8.365-7.378C52.879,46.245,53,48.148,53,50c0,3.847-0.536,8.13-1.972,11.72   C49.832,64.712,47.595,68,44,68s-5.832-3.288-7.028-6.28c-0.34-0.85-0.63-1.738-0.873-2.65C35.346,62.023,35,65.085,35,68   c0,5.54,1.223,11.426,4.034,16.248c0.34,0.586,0.716,1.172,1.124,1.741l-0.082,0.004h-1.528   c-10.86,0.217-21.231-6.181-25.559-16.845c-5.607-13.816,1.047-29.561,14.862-35.166C40.543,28.833,45.949,12.945,38.008,2   C62.006,2,89,23,89,50C89,67.331,76.752,81.799,60.441,85.228L60.441,85.228z M2.012,84.904c-0.1,0.814,0.473,1.558,1.283,1.669   v0.001l0.022,0.001l34.349,4.218L3.32,95.011H3.317c-0.822,0.101-1.406,0.85-1.305,1.672c0.1,0.822,0.848,1.406,1.671,1.306   l46.291-5.684l46.292,5.684c0.822,0.101,1.57-0.483,1.672-1.306c0.101-0.822-0.484-1.571-1.307-1.672h-0.002l-34.346-4.218   l34.371-4.219v-0.001c0.81-0.111,1.383-0.854,1.283-1.669s-0.837-1.396-1.65-1.308v-0.002l-0.02,0.003l-0.005,0.001l-46.289,5.683   L3.686,83.599l-0.004-0.001l-0.021-0.003v0.002C2.847,83.509,2.111,84.09,2.012,84.904z"/></g><g display="none"><path display="inline" fill-rule="evenodd" clip-rule="evenodd" d="M62,74c6,0,6-3,12-3s6,3,12,3s6-3,12-3v3c-6,0-6,3-12,3   s-6-3-12-3s-6,3-12,3v12c6,0,6-3,12-3s6,3,12,3s6-3,12-3v3c-6,0-6,3-12,3s-6-3-12-3s-6,3-12,3s-6-3-12-3s-6,3-12,3s-6-3-12-3   s-6,3-12,3s-6-3-12-3v-3c6,0,6,3,12,3s6-3,12-3s6,3,12,3c3,0,4.5-0.75,6-1.5v-12c-1.5,0.75-3,1.5-6,1.5c-6,0-6-3-12-3s-6,3-12,3   s-6-3-12-3v-3c6,0,6,3,12,3s6-3,12-3s6,3,12,3c3,0,4.5-0.75,6-1.5V68c0-1.657,1.343-3,3-3v-5.684C43.755,60.09,42.789,62,38,62   c-6,0-6-3-12-3s-6,3-12,3s-6-3-12-3v-3c6,0,6,3,12,3s6-3,12-3s6,3,12,3c4.789,0,5.755-1.911,9-2.683v-3.566   c-1.175-0.197-2.31-0.508-3.397-0.922c-2.665,1.021-5.558,1.582-8.583,1.582C25.968,53.411,18.088,48.399,14,41l36-19.89V11   c0-4.97,4.03-9,9-9c4.972,0,9,4.03,9,9h4.5c0.829,0,1.5,0.671,1.5,1.5c0,0.827-0.671,1.5-1.5,1.5H68v21   c0,6.662-3.62,12.479-9,15.592v8.091C59.822,58.878,60.789,59,62,59c6,0,6-3,12-3s6,3,12,3s6-3,12-3v3c-6,0-6,3-12,3s-6-3-12-3   s-6,3-12,3c-1.211,0-2.178-0.123-3-0.317V65c1.657,0,3,1.343,3,3V74L62,74z M56,51.975C54.124,52.637,52.104,53,50,53v3   c3,0,4.5,0.75,6,1.5V51.975L56,51.975z M56,60.5c-1.5-0.75-3-1.5-6-1.5v6h6V60.5L56,60.5z M60.5,8C59.671,8,59,8.671,59,9.5   c0,0.827,0.671,1.5,1.5,1.5c0.828,0,1.5-0.673,1.5-1.5C62,8.671,61.328,8,60.5,8z"/></g><g display="none"><path display="inline" fill-rule="evenodd" clip-rule="evenodd" d="M2,68c6,0,6,3,12,3c5.807,0,5.994-2.812,11.44-2.989   c-2.736-2.852-4.617-6.526-5.227-10.617C18.639,58.177,17.143,59,14,59c-6,0-6-3-12-3v-3c6,0,6,3,12,3c3.002,0,4.5-0.75,6.002-1.5   l0,0c0-3.823,1.1-7.389,3.001-10.397C23.057,47.369,25.721,50,29.002,50h10.5c1.678,0,2.975-0.46,4.004-1.261   c-3.279-1.775-5.508-5.248-5.508-9.239c0-5.8,4.703-10.5,10.502-10.5c5.44,0,9.914,4.137,10.447,9.437   c1.914,0.906,3.607-0.434,4.553-0.437c1.27-0.04,1.52,0.626,1.5,1.5c0,1.192-2.898,5.003-7.152,4.788   c-0.504,0.983-1.159,1.874-1.934,2.647c2.925,2.162,5.033,5.366,5.784,9.062C61.798,55.999,61.897,56,62,56c6,0,6-3,12-3   s6,3,11.998,3C92,56,92,53,98,53v3c-6,0-6,3-12.002,3C80,59,80,56,74,56s-6,3-12,3c0,4.372-1.871,8.308-4.855,11.05   C58.34,70.577,59.747,71,62,71c6,0,6-3,12-3s6,3,11.998,3C92,71,92,68,98,68v3c-6,0-6,3-12.002,3C80,74,80,71,74,71s-6,3-12,3   c-6.002,0-6.002-3-12-3c-6,0-6,3-12.002,3C32,74,32,71,26,71c-6.002,0-6.002,3-12,3c-6,0-6-3-12-3V68L2,68z M2,83c6,0,6,3,12,3   c5.998,0,5.998-3,12-3c6,0,6,3,11.998,3C44,86,44,83,50,83c5.998,0,5.998,3,12,3c6,0,6-3,12-3s6,3,11.998,3C92,86,92,83,98,83v3   c-6,0-6,3-12.002,3C80,89,80,86,74,86s-6,3-12,3c-6.002,0-6.002-3-12-3c-6,0-6,3-12.002,3C32,89,32,86,26,86c-6.002,0-6.002,3-12,3   c-6,0-6-3-12-3V83L2,83z M50,35c-1.656,0-3.002,1.343-3.002,3s1.346,3,3.002,3s3-1.343,3-3S51.656,35,50,35z"/></g><g display="none"><g display="inline"><path fill-rule="evenodd" clip-rule="evenodd" d="M2,29c0-3.313,2.687-6,6-6h6.573l1.547-6.756    c0.74-3.229,3.958-5.247,7.188-4.509L72.482,23H80h0.149h0.009l0.146,0.009h0.003l0.128,0.006l0.048,0.003l0.022,0.003l0.1,0.009    h0.008l0.002,0.003l0.139,0.015h0.01l0.039,0.006l0.098,0.015h0.014l0.023,0.006l0.102,0.015l0.023,0.006l0.033,0.006l0.097,0.018    l0.017,0.003l0.08,0.018l0.066,0.015l0.01,0.003l0.114,0.029l0.019,0.003l0.006,0.003l0.131,0.035l0.008,0.003l0.024,0.006    l0.094,0.026l0.023,0.009l0.017,0.006l0.102,0.032l0.022,0.009l0.021,0.006l0.117,0.041l0,0l0.117,0.044l0.021,0.009l0.017,0.006    l0.113,0.047l0.014,0.006l0.114,0.05l0.011,0.006l0.013,0.006l0.106,0.05l0.031,0.015l0.098,0.05l0.016,0.006l0.008,0.003    l0.105,0.059l0.029,0.015l0.111,0.062l0.005,0.003l0.082,0.05l0.012,0.006l0.056,0.035l0.015,0.009l0.079,0.05h0.002l0.115,0.076    l0.006,0.003l0.091,0.064l0.023,0.015l0.001,0.003l0.034,0.023l0.064,0.047l0.018,0.015l0.035,0.026l0.075,0.056l0.006,0.006    l0.068,0.056l0.018,0.012l0.049,0.041l0.007,0.006l0.071,0.062l0.01,0.006l0.021,0.021l0.066,0.059l0.019,0.018l0.026,0.023    l0.068,0.064l0.011,0.012l0.019,0.018l0.063,0.062l0.021,0.021l0.021,0.021l0.066,0.07l0.014,0.012l0.021,0.023l0.057,0.062    l0.02,0.021l0.018,0.021l0.063,0.07l0.049,0.056l0.014,0.015l0.045,0.056l0.016,0.018l0.059,0.076l0.017,0.021l0.042,0.053    l0.022,0.029l0.035,0.047l0,0l0.056,0.076l0.002,0.003l0.035,0.047c0.042,0.062,0.083,0.123,0.124,0.185l0.018,0.029l0.017,0.023    l0.039,0.064l0.027,0.044l0,0l8.354,1.913C96.721,28.552,98.74,31.769,98,35l-9.378,40.939c-0.739,3.231-3.958,5.247-7.188,4.509    L66.377,77H8c-3.313,0-6-2.687-6-6V29L2,29z M85.332,26.246L85.332,26.246l-0.002-0.003l-0.002-0.003l-0.002-0.003l-0.002-0.006    l0.002,0.006l0.002,0.003l0.002,0.003L85.332,26.246L85.332,26.246L85.332,26.246z M85.332,26.246l0.002,0.003l0,0L85.332,26.246    L85.332,26.246z M85.334,26.249l0.001,0.003l0,0L85.334,26.249L85.334,26.249z M85.335,26.252l0.001,0.006h0.002L85.335,26.252    L85.335,26.252z M85.338,26.258l0.002,0.003l0,0L85.338,26.258L85.338,26.258z M85.352,26.284L85.352,26.284l-0.002-0.003    l-0.002-0.003l-0.001-0.006l-0.003-0.003l0,0l-0.002-0.003l-0.001-0.003l-0.001-0.003L85.352,26.284L85.352,26.284z     M85.352,26.284l0.001,0.003l0,0L85.352,26.284L85.352,26.284z M85.81,27.497v-0.003l-0.001-0.006l-0.004-0.009v-0.003    l-0.03-0.114l0.035,0.132V27.497L85.81,27.497L85.81,27.497z M85.82,27.535l0.014,0.059l-0.021-0.088L85.811,27.5l0,0    l-0.001-0.003L85.82,27.535L85.82,27.535z M85.84,27.62L85.84,27.62v0.003V27.62L85.84,27.62z M58.991,26    C58.815,26.003,56,26.094,56,29v42c0,2.906,2.815,2.997,2.991,3H80c1.658,0,3-1.342,3-3V29c0-1.658-1.342-3-3-3H59h-0.003H58.991    L58.991,26z M44,47h-8.436c-3.591-4.377-9.995-12-11.064-12c0,0-1.5,0-1.5,1.5c0,1.017,2.75,6.841,4.525,10.5h-6.612    c-1.882-2.619-4.493-6-5.413-6c0,0-1.5,0-1.5,1.5s3,7.5,3,7.5s-3,6-3,7.5c0,0,0,1.5,1.5,1.5c0.92,0,3.53-3.384,5.413-6h6.612    C25.75,56.659,23,62.483,23,63.5c0,0,0,1.5,1.5,1.5c1.069,0,7.474-7.623,11.064-12H44c1.656,0,3-1.342,3-3S45.656,47,44,47L44,47z     M17.65,23h41.395l-36.407-8.338c-1.616-0.372-3.224,0.639-3.593,2.253L17.65,23L17.65,23z M85.285,26.155l0.002,0.006    L85.285,26.155L85.285,26.155z M85.287,26.161l0.001,0.003L85.287,26.161L85.287,26.161z M85.288,26.164l0.003,0.003    L85.288,26.164L85.288,26.164z M85.291,26.167l0.002,0.003L85.291,26.167L85.291,26.167z M85.293,26.17l0.031,0.062l-0.029-0.053    l-0.001-0.006L85.293,26.17L85.293,26.17z M85.341,26.264l0.011,0.021l-0.002-0.003l-0.002-0.003l-0.001-0.006l-0.003-0.003l0,0    l-0.002-0.003L85.341,26.264L85.341,26.264z M85.354,26.29l0.004,0.006L85.354,26.29l-0.001-0.003L85.354,26.29L85.354,26.29z     M85.357,26.296l0.001,0.003L85.357,26.296L85.357,26.296z M85.358,26.299l0.001,0.003L85.358,26.299L85.358,26.299z     M85.359,26.302l0.002,0.003L85.359,26.302L85.359,26.302z M85.361,26.305l0.002,0.003l0.002,0.003L85.361,26.305L85.361,26.305z     M85.365,26.311l0.002,0.006L85.365,26.311L85.365,26.311z M85.367,26.316l0.002,0.003L85.367,26.316L85.367,26.316z     M85.369,26.319l0.001,0.003L85.369,26.319L85.369,26.319z M85.37,26.322l0.005,0.006L85.37,26.322L85.37,26.322z M85.375,26.328    l0.001,0.006L85.375,26.328L85.375,26.328z M85.376,26.334l0.001,0.003L85.376,26.334L85.376,26.334z M85.377,26.337l0.002,0.003    L85.377,26.337L85.377,26.337z M85.379,26.34l0.003,0.003L85.379,26.34L85.379,26.34z M85.382,26.343v0.003V26.343L85.382,26.343z     M85.382,26.346l0.003,0.003L85.382,26.346L85.382,26.346z M85.385,26.349l0.004,0.012L85.385,26.349L85.385,26.349z     M85.389,26.36l0.002,0.003L85.389,26.36L85.389,26.36z M85.391,26.363l0.003,0.003L85.391,26.363L85.391,26.363z M85.394,26.366    l0.001,0.006L85.394,26.366L85.394,26.366z M85.395,26.372l0.002,0.003L85.395,26.372L85.395,26.372z M85.396,26.375l0.002,0.003    L85.396,26.375L85.396,26.375z M85.811,27.5l0.01,0.035l-0.002-0.003l-0.002-0.006v-0.003l-0.001-0.006l-0.001-0.003v-0.006    l-0.002-0.003L85.811,27.5L85.811,27.5L85.811,27.5z M85.84,27.623l0.002,0.006L85.84,27.623L85.84,27.623z M85.842,27.629    l0.002,0.003L85.842,27.629L85.842,27.629z M86,29.173V71c0,3.313-2.687,6-6,6h-0.185l2.288,0.524    c1.617,0.369,3.225-0.639,3.595-2.256l9.378-40.939c0.369-1.614-0.639-3.223-2.256-3.592L86,29.173L86,29.173z M65,69.5v-3    c0-0.829-0.672-1.5-1.5-1.5S62,65.671,62,66.5v3c0,0.829,0.672,1.5,1.5,1.5S65,70.329,65,69.5L65,69.5z M65,60.5v-3    c0-0.829-0.672-1.5-1.5-1.5S62,56.671,62,57.5v3c0,0.829,0.672,1.5,1.5,1.5S65,61.329,65,60.5L65,60.5z M65,51.5v-3    c0-0.829-0.672-1.5-1.5-1.5S62,47.671,62,48.5v3c0,0.829,0.672,1.5,1.5,1.5S65,52.329,65,51.5L65,51.5z M65,42.5v-3    c0-0.829-0.672-1.5-1.5-1.5S62,38.671,62,39.5v3c0,0.829,0.672,1.5,1.5,1.5S65,43.329,65,42.5L65,42.5z M65,33.5v-3    c0-0.829-0.672-1.5-1.5-1.5S62,29.671,62,30.5v3c0,0.829,0.672,1.5,1.5,1.5S65,34.329,65,33.5z"/></g></g><g display="none"><path display="inline" fill-rule="evenodd" clip-rule="evenodd" d="M50,2c15.555,0,28.345,11.839,29.851,27H98l-9,54   c-3,15-18,15-18,15c-14,0-28,0-42,0c0,0-15,0-18-15L2,29h18.148C21.654,13.839,34.445,2,50,2L50,2z M76.833,29   C75.34,15.5,63.896,5,50,5C36.102,5,24.66,15.5,23.167,29H76.833L76.833,29z M71,89c-0.829,0-1.5,0.671-1.5,1.5S70.171,92,71,92h3   c0.829,0,1.5-0.671,1.5-1.5S74.829,89,74,89H71L71,89z M56,89c-0.829,0-1.5,0.671-1.5,1.5S55.171,92,56,92h3   c0.828,0,1.5-0.671,1.5-1.5S59.828,89,59,89H56L56,89z M41,89c-0.829,0-1.5,0.671-1.5,1.5S40.171,92,41,92h3   c0.828,0,1.5-0.671,1.5-1.5S44.828,89,44,89H41L41,89z M26,89c-0.829,0-1.5,0.671-1.5,1.5S25.171,92,26,92h3   c0.828,0,1.5-0.671,1.5-1.5S29.828,89,29,89H26L26,89z M74,80c-0.829,0-1.5,0.671-1.5,1.5S73.171,83,74,83h3   c0.828,0,1.5-0.671,1.5-1.5S77.828,80,77,80H74L74,80z M59,80c-0.829,0-1.502,0.671-1.502,1.5S58.171,83,59,83h3   c0.828,0,1.5-0.671,1.5-1.5S62.828,80,62,80H59L59,80z M44,80c-0.829,0-1.5,0.671-1.5,1.5S43.171,83,44,83h3   c0.829,0,1.498-0.671,1.498-1.5S47.829,80,47,80H44L44,80z M29,80c-0.829,0-1.5,0.671-1.5,1.5S28.171,83,29,83h3   c0.828,0,1.5-0.671,1.5-1.5S32.828,80,32,80H29L29,80z M14,80c-0.155,0-0.307,0.023-0.448,0.067l0.398,2.391   c0.038,0.182,0.077,0.363,0.118,0.542H17c0.828,0,1.5-0.671,1.5-1.5S17.828,80,17,80H14L14,80z M86,71c-0.829,0-1.5,0.671-1.5,1.5   S85.171,74,86,74h1.457l0.502-3H86L86,71z M71,71c-0.829,0-1.5,0.671-1.5,1.5S70.171,74,71,74h3c0.829,0,1.5-0.671,1.5-1.5   S74.829,71,74,71H71L71,71z M56,71c-0.829,0-1.5,0.671-1.5,1.5S55.171,74,56,74h3c0.828,0,1.5-0.671,1.5-1.5S59.828,71,59,71H56   L56,71z M41,71c-0.829,0-1.5,0.671-1.5,1.5S40.171,74,41,74h3c0.828,0,1.5-0.671,1.5-1.5S44.828,71,44,71H41L41,71z M26,71   c-0.829,0-1.5,0.671-1.5,1.5S25.171,74,26,74h3c0.828,0,1.5-0.671,1.5-1.5S29.828,71,29,71H26L26,71z M12.041,71l0.5,3H14   c0.828,0,1.5-0.671,1.5-1.5S14.828,71,14,71H12.041L12.041,71z M83,62c-0.829,0-1.5,0.671-1.5,1.5S82.171,65,83,65h3   c0.828,0,1.5-0.671,1.5-1.5S86.828,62,86,62H83L83,62z M68,62c-0.829,0-1.5,0.671-1.5,1.5S67.171,65,68,65h3   c0.828,0,1.5-0.671,1.5-1.5S71.828,62,71,62H68L68,62z M53,62c-0.829,0-1.5,0.671-1.5,1.5S52.171,65,53,65h3   c0.829,0,1.498-0.671,1.498-1.5S56.829,62,56,62H53L53,62z M38,62c-0.828,0-1.5,0.671-1.5,1.5S37.172,65,38,65h3   c0.828,0,1.5-0.671,1.5-1.5S41.828,62,41,62H38L38,62z M23,62c-0.829,0-1.5,0.671-1.5,1.5S22.171,65,23,65h3   c0.828,0,1.5-0.671,1.5-1.5S26.828,62,26,62H23L23,62z M10.541,62l0.5,3c0.809-0.023,1.459-0.686,1.459-1.5   c0-0.829-0.672-1.5-1.5-1.5H10.541L10.541,62z M86,53c-0.829,0-1.5,0.671-1.5,1.5S85.171,56,86,56h3c0.828,0,1.5-0.671,1.5-1.5   S89.828,53,89,53H86L86,53z M71,53c-0.829,0-1.5,0.671-1.5,1.5S70.171,56,71,56h3c0.829,0,1.5-0.671,1.5-1.5S74.829,53,74,53H71   L71,53z M56,53c-0.829,0-1.5,0.671-1.5,1.5S55.171,56,56,56h3c0.828,0,1.5-0.671,1.5-1.5S59.828,53,59,53H56L56,53z M41,53   c-0.829,0-1.5,0.671-1.5,1.5S40.171,56,41,56h3c0.828,0,1.5-0.671,1.5-1.5S44.828,53,44,53H41L41,53z M26,53   c-0.829,0-1.5,0.671-1.5,1.5S25.171,56,26,56h3c0.828,0,1.5-0.671,1.5-1.5S29.828,53,29,53H26L26,53z M11,53   c-0.829,0-1.5,0.671-1.5,1.5S10.171,56,11,56h3c0.828,0,1.5-0.671,1.5-1.5S14.828,53,14,53H11L11,53z M89,44   c-0.829,0-1.5,0.671-1.5,1.5S88.171,47,89,47h2.957l0.49-2.933C92.307,44.023,92.155,44,92,44H89L89,44z M74,44   c-0.829,0-1.5,0.671-1.5,1.5S73.171,47,74,47h3c0.828,0,1.5-0.671,1.5-1.5S77.828,44,77,44H74L74,44z M59,44   c-0.829,0-1.502,0.671-1.502,1.5S58.171,47,59,47h3c0.828,0,1.5-0.671,1.5-1.5S62.828,44,62,44H59L59,44z M44,44   c-0.829,0-1.5,0.671-1.5,1.5S43.171,47,44,47h3c0.829,0,1.498-0.671,1.498-1.5S47.829,44,47,44H44L44,44z M29,44   c-0.829,0-1.5,0.671-1.5,1.5S28.171,47,29,47h3c0.828,0,1.5-0.671,1.5-1.5S32.828,44,32,44H29L29,44z M14,44   c-0.829,0-1.5,0.671-1.5,1.5S13.171,47,14,47h3c0.828,0,1.5-0.671,1.5-1.5S17.828,44,17,44H14L14,44z M86,35   c-0.829,0-1.5,0.671-1.5,1.5S85.171,38,86,38h3c0.828,0,1.5-0.671,1.5-1.5S89.828,35,89,35H86L86,35z M71,35   c-0.829,0-1.5,0.671-1.5,1.5S70.171,38,71,38h3c0.829,0,1.5-0.671,1.5-1.5S74.829,35,74,35H71L71,35z M56,35   c-0.829,0-1.5,0.671-1.5,1.5S55.171,38,56,38h3c0.828,0,1.5-0.671,1.5-1.5S59.828,35,59,35H56L56,35z M41,35   c-0.829,0-1.5,0.671-1.5,1.5S40.171,38,41,38h3c0.828,0,1.5-0.671,1.5-1.5S44.828,35,44,35H41L41,35z M26,35   c-0.829,0-1.5,0.671-1.5,1.5S25.171,38,26,38h3c0.828,0,1.5-0.671,1.5-1.5S29.828,35,29,35H26L26,35z M11,35   c-0.829,0-1.5,0.671-1.5,1.5S10.171,38,11,38h3c0.828,0,1.5-0.671,1.5-1.5S14.828,35,14,35H11z"/></g><g display="none"><path display="inline" fill-rule="evenodd" clip-rule="evenodd" d="M5,86c0,6.627,5.373,12,12,12h66c6.627,0,12-5.373,12-12V41v-3   h-3H56V5c0-1.658-1.344-3-3-3h-6c-1.656,0-3,1.342-3,3v33H8H5v3V86L5,86z M53,38h-6V5h6V38L53,38z M15.5,44   c0.828,0,1.5,0.671,1.5,1.5S16.328,47,15.5,47h-3c-0.828,0-1.5-0.671-1.5-1.5s0.672-1.5,1.5-1.5H15.5L15.5,44z M84.5,89h3   c0.828,0,1.5,0.671,1.5,1.5S88.328,92,87.5,92h-3c-0.829,0-1.5-0.671-1.5-1.5S83.671,89,84.5,89L84.5,89z M84.5,80h3   c0.828,0,1.5,0.671,1.5,1.5S88.328,83,87.5,83h-3c-0.829,0-1.5-0.671-1.5-1.5S83.671,80,84.5,80L84.5,80z M84.5,71h3   c0.828,0,1.5,0.671,1.5,1.5S88.328,74,87.5,74h-3c-0.829,0-1.5-0.671-1.5-1.5S83.671,71,84.5,71L84.5,71z M84.5,62h3   c0.828,0,1.5,0.671,1.5,1.5S88.328,65,87.5,65h-3c-0.829,0-1.5-0.671-1.5-1.5S83.671,62,84.5,62L84.5,62z M84.5,53h3   c0.828,0,1.5,0.671,1.5,1.5S88.328,56,87.5,56h-3c-0.829,0-1.5-0.671-1.5-1.5S83.671,53,84.5,53L84.5,53z M84.5,44h3   c0.828,0,1.5,0.671,1.5,1.5S88.328,47,87.5,47h-3c-0.829,0-1.5-0.671-1.5-1.5S83.671,44,84.5,44L84.5,44z M72.5,89h3   c0.828,0,1.5,0.671,1.5,1.5S76.328,92,75.5,92h-3c-0.829,0-1.5-0.671-1.5-1.5S71.671,89,72.5,89L72.5,89z M60.5,89h3   c0.828,0,1.5,0.671,1.5,1.5S64.328,92,63.5,92h-3c-0.829,0-1.5-0.671-1.5-1.5S59.671,89,60.5,89L60.5,89z M48.5,89h3   c0.828,0,1.5,0.671,1.5,1.5S52.328,92,51.5,92h-3c-0.829,0-1.5-0.671-1.5-1.5S47.671,89,48.5,89L48.5,89z M72.5,80h3   c0.828,0,1.5,0.671,1.5,1.5S76.328,83,75.5,83h-3c-0.829,0-1.5-0.671-1.5-1.5S71.671,80,72.5,80L72.5,80z M60.5,80h3   c0.828,0,1.5,0.671,1.5,1.5S64.328,83,63.5,83h-3c-0.829,0-1.5-0.671-1.5-1.5S59.671,80,60.5,80L60.5,80z M48.5,80h3   c0.828,0,1.5,0.671,1.5,1.5S52.328,83,51.5,83h-3c-0.829,0-1.5-0.671-1.5-1.5S47.671,80,48.5,80L48.5,80z M72.5,71h3   c0.828,0,1.5,0.671,1.5,1.5S76.328,74,75.5,74h-3c-0.829,0-1.5-0.671-1.5-1.5S71.671,71,72.5,71L72.5,71z M60.5,71h3   c0.828,0,1.5,0.671,1.5,1.5S64.328,74,63.5,74h-3c-0.829,0-1.5-0.671-1.5-1.5S59.671,71,60.5,71L60.5,71z M48.5,71h3   c0.828,0,1.5,0.671,1.5,1.5S52.328,74,51.5,74h-3c-0.829,0-1.5-0.671-1.5-1.5S47.671,71,48.5,71L48.5,71z M72.5,62h3   c0.828,0,1.5,0.671,1.5,1.5S76.328,65,75.5,65h-3c-0.829,0-1.5-0.671-1.5-1.5S71.671,62,72.5,62L72.5,62z M60.5,62h3   c0.828,0,1.5,0.671,1.5,1.5S64.328,65,63.5,65h-3c-0.829,0-1.5-0.671-1.5-1.5S59.671,62,60.5,62L60.5,62z M48.5,62h3   c0.828,0,1.5,0.671,1.5,1.5S52.328,65,51.5,65h-3c-0.829,0-1.5-0.671-1.5-1.5S47.671,62,48.5,62L48.5,62z M72.5,53h3   c0.828,0,1.5,0.671,1.5,1.5S76.328,56,75.5,56h-3c-0.829,0-1.5-0.671-1.5-1.5S71.671,53,72.5,53L72.5,53z M60.5,53h3   c0.828,0,1.5,0.671,1.5,1.5S64.328,56,63.5,56h-3c-0.829,0-1.5-0.671-1.5-1.5S59.671,53,60.5,53L60.5,53z M48.5,53h3   c0.828,0,1.5,0.671,1.5,1.5S52.328,56,51.5,56h-3c-0.829,0-1.5-0.671-1.5-1.5S47.671,53,48.5,53L48.5,53z M72.5,44h3   c0.828,0,1.5,0.671,1.5,1.5S76.328,47,75.5,47h-3c-0.829,0-1.5-0.671-1.5-1.5S71.671,44,72.5,44L72.5,44z M60.5,44h3   c0.828,0,1.5,0.671,1.5,1.5S64.328,47,63.5,47h-3c-0.829,0-1.5-0.671-1.5-1.5S59.671,44,60.5,44L60.5,44z M48.5,44h3   c0.828,0,1.5,0.671,1.5,1.5S52.328,47,51.5,47h-3c-0.829,0-1.5-0.671-1.5-1.5S47.671,44,48.5,44L48.5,44z M36.498,89H39.5   c0.829,0,1.498,0.671,1.498,1.5S40.329,92,39.5,92h-3.002C35.671,92,35,91.329,35,90.5S35.671,89,36.498,89L36.498,89z M24.5,89h3   c0.828,0,1.5,0.671,1.5,1.5S28.328,92,27.5,92h-3c-0.829,0-1.5-0.671-1.5-1.5S23.671,89,24.5,89L24.5,89z M12.5,89h3   c0.828,0,1.5,0.671,1.5,1.5S16.328,92,15.5,92h-3c-0.828,0-1.5-0.671-1.5-1.5S11.672,89,12.5,89L12.5,89z M36.498,80H39.5   c0.829,0,1.498,0.671,1.498,1.5S40.329,83,39.5,83h-3.002C35.671,83,35,82.329,35,81.5S35.671,80,36.498,80L36.498,80z M24.5,80h3   c0.828,0,1.5,0.671,1.5,1.5S28.328,83,27.5,83h-3c-0.829,0-1.5-0.671-1.5-1.5S23.671,80,24.5,80L24.5,80z M12.5,80h3   c0.828,0,1.5,0.671,1.5,1.5S16.328,83,15.5,83h-3c-0.828,0-1.5-0.671-1.5-1.5S11.672,80,12.5,80L12.5,80z M36.498,71H39.5   c0.829,0,1.498,0.671,1.498,1.5S40.329,74,39.5,74h-3.002C35.671,74,35,73.329,35,72.5S35.671,71,36.498,71L36.498,71z M24.5,71h3   c0.828,0,1.5,0.671,1.5,1.5S28.328,74,27.5,74h-3c-0.829,0-1.5-0.671-1.5-1.5S23.671,71,24.5,71L24.5,71z M12.5,71h3   c0.828,0,1.5,0.671,1.5,1.5S16.328,74,15.5,74h-3c-0.828,0-1.5-0.671-1.5-1.5S11.672,71,12.5,71L12.5,71z M36.498,62H39.5   c0.829,0,1.498,0.671,1.498,1.5S40.329,65,39.5,65h-3.002C35.671,65,35,64.329,35,63.5S35.671,62,36.498,62L36.498,62z M24.5,62h3   c0.828,0,1.5,0.671,1.5,1.5S28.328,65,27.5,65h-3c-0.829,0-1.5-0.671-1.5-1.5S23.671,62,24.5,62L24.5,62z M12.5,62h3   c0.828,0,1.5,0.671,1.5,1.5S16.328,65,15.5,65h-3c-0.828,0-1.5-0.671-1.5-1.5S11.672,62,12.5,62L12.5,62z M36.498,53H39.5   c0.829,0,1.498,0.671,1.498,1.5S40.329,56,39.5,56h-3.002C35.671,56,35,55.329,35,54.5S35.671,53,36.498,53L36.498,53z M24.5,53h3   c0.828,0,1.5,0.671,1.5,1.5S28.328,56,27.5,56h-3c-0.829,0-1.5-0.671-1.5-1.5S23.671,53,24.5,53L24.5,53z M12.5,53h3   c0.828,0,1.5,0.671,1.5,1.5S16.328,56,15.5,56h-3c-0.828,0-1.5-0.671-1.5-1.5S11.672,53,12.5,53L12.5,53z M36.498,44H39.5   c0.829,0,1.498,0.671,1.498,1.5S40.329,47,39.5,47h-3.002C35.671,47,35,46.329,35,45.5S35.671,44,36.498,44L36.498,44z M24.5,44h3   c0.828,0,1.5,0.671,1.5,1.5S28.328,47,27.5,47h-3c-0.829,0-1.5-0.671-1.5-1.5S23.671,44,24.5,44z"/></g><g display="none"><path display="inline" fill-rule="evenodd" clip-rule="evenodd" d="M47,2c18.226,0,33,14.774,33,33c0,0,0,0,0,1.5S78.5,38,78.5,38   H77c-2.376,0-4.282-0.472-6.089-1.038C70.969,37.298,71,37.646,71,38c0,3.313-2.687,6-6,6c-1.657,0-3,1.343-3,3s1.343,3,3,3   c3.313,0,6,2.687,6,6s-2.687,6-6,6c-1.657,0-3,1.343-3,3s1.343,3,3,3c3.313,0,6,2.687,6,6s-2.687,6-6,6c-1.657,0-3,1.343-3,3   s1.343,3,3,3c3.313,0,6,2.687,6,6s-2.687,6-6,6v-3c1.657,0,3-1.343,3-3s-1.343-3-3-3c-3.313,0-6-2.687-6-6s2.687-6,6-6   c1.657,0,3-1.343,3-3s-1.343-3-3-3c-3.313,0-6-2.687-6-6s2.687-6,6-6c1.657,0,3-1.343,3-3s-1.343-3-3-3c-3.313,0-6-2.687-6-6   s2.687-6,6-6c1.657,0,3-1.343,3-3c0-0.929-0.422-1.757-1.083-2.308C65.448,35.292,63.869,35,62,35c-3.699,0-6.258,1.14-9.081,2.015   C52.972,37.335,53,37.665,53,38c0,3.313-2.687,6-6,6c-1.657,0-3,1.343-3,3s1.343,3,3,3c3.313,0,6,2.687,6,6s-2.687,6-6,6   c-1.657,0-3,1.343-3,3s1.343,3,3,3c3.313,0,6,2.687,6,6s-2.687,6-6,6c-1.657,0-3,1.343-3,3s1.343,3,3,3c3.313,0,6,2.687,6,6   s-2.687,6-6,6v-3c1.657,0,3-1.343,3-3s-1.343-3-3-3c-3.313,0-6-2.687-6-6s2.687-6,6-6c1.657,0,3-1.343,3-3s-1.343-3-3-3   c-3.313,0-6-2.687-6-6s2.687-6,6-6c1.657,0,3-1.343,3-3s-1.343-3-3-3c-3.313,0-6-2.687-6-6s2.687-6,6-6c1.657,0,3-1.343,3-3   c0-0.087-0.003-0.173-0.012-0.258C49.067,37.901,48.083,38,47,38c-5.19,0-8.136-2.244-12.719-2.851C34.739,35.997,35,36.969,35,38   c0,3.313-2.687,6-6,6c-1.657,0-3,1.343-3,3s1.343,3,3,3c3.313,0,6,2.687,6,6s-2.687,6-6,6c-1.657,0-3,1.343-3,3s1.343,3,3,3   c3.313,0,6,2.687,6,6s-2.687,6-6,6c-1.657,0-3,1.343-3,3s1.343,3,3,3c3.313,0,6,2.687,6,6s-2.687,6-6,6v-3c1.657,0,3-1.343,3-3   s-1.343-3-3-3c-3.313,0-6-2.687-6-6s2.687-6,6-6c1.657,0,3-1.343,3-3s-1.343-3-3-3c-3.313,0-6-2.687-6-6s2.687-6,6-6   c1.657,0,3-1.343,3-3s-1.343-3-3-3c-3.313,0-6-2.687-6-6s2.687-6,6-6c1.657,0,3-1.343,3-3c0-1.354-0.895-2.496-2.125-2.871   C25.202,35.704,22.249,38,17,38h-1.5c0,0-1.5,0-1.5-1.5s0-1.5,0-1.5C14,16.774,28.774,2,47,2L47,2z M65.943,26   c-0.828,0-1.499,0.671-1.499,1.5s0.671,1.5,1.499,1.5c0.829,0,1.5-0.671,1.5-1.5S66.772,26,65.943,26L65.943,26z M64.624,20   c-0.828,0-1.5,0.671-1.5,1.5c0,0.827,0.672,1.5,1.5,1.5s1.5-0.673,1.5-1.5C66.124,20.671,65.451,20,64.624,20L64.624,20z    M62.316,14c-0.829,0-1.501,0.673-1.501,1.5s0.672,1.5,1.501,1.5c0.828,0,1.499-0.673,1.499-1.5S63.144,14,62.316,14L62.316,14z    M58.451,8c-0.828,0-1.5,0.671-1.5,1.5s0.672,1.5,1.5,1.5s1.5-0.671,1.5-1.5S59.278,8,58.451,8L58.451,8z M28.057,26   c-0.829,0-1.5,0.671-1.5,1.5s0.671,1.5,1.5,1.5c0.828,0,1.5-0.671,1.5-1.5S28.884,26,28.057,26L28.057,26z M29.376,20   c-0.828,0-1.5,0.671-1.5,1.5c0,0.827,0.672,1.5,1.5,1.5c0.829,0,1.5-0.673,1.5-1.5C30.876,20.671,30.206,20,29.376,20L29.376,20z    M31.685,14c-0.828,0-1.5,0.673-1.5,1.5s0.672,1.5,1.5,1.5s1.5-0.673,1.5-1.5S32.513,14,31.685,14L31.685,14z M35.549,8   c-0.828,0-1.5,0.671-1.5,1.5s0.672,1.5,1.5,1.5s1.5-0.671,1.5-1.5S36.377,8,35.549,8L35.549,8z M47,20c-0.829,0-1.5,0.671-1.5,1.5   c0,0.827,0.671,1.5,1.5,1.5c0.828,0,1.5-0.673,1.5-1.5C48.5,20.671,47.828,20,47,20L47,20z M47,26c-0.829,0-1.5,0.671-1.5,1.5   S46.171,29,47,29c0.828,0,1.5-0.671,1.5-1.5S47.828,26,47,26L47,26z M47,8c-0.829,0-1.5,0.671-1.5,1.5S46.171,11,47,11   c0.828,0,1.5-0.671,1.5-1.5S47.828,8,47,8L47,8z M47,14c-0.829,0-1.5,0.673-1.5,1.5S46.171,17,47,17c0.828,0,1.5-0.673,1.5-1.5   S47.828,14,47,14z"/></g><g display="none"><path display="inline" fill-rule="evenodd" clip-rule="evenodd" d="M13.247,67.7c-1.547-7.736-3.158-15.451-4.62-23.207   c-1.156-6.136-2.288-12.361-3.062-18.556c-0.276-2.215-0.533-4.52-0.563-6.752c-0.021-1.633,0.034-3.776,1.265-5.007   c0.816-0.817,1.817-1.353,2.98-1.45c3.419-0.29,5.654,3.261,9.072,3.261c0.956,0,1.994-0.095,2.861-0.54   c0.729-0.375,1.354-0.948,2.1-1.344c0.857-0.455,1.748-0.677,2.721-0.677c0.971,0,1.859,0.222,2.717,0.677   c0.747,0.396,1.371,0.969,2.101,1.344c0.866,0.445,1.904,0.54,2.862,0.54c3.418,0,5.651-3.551,9.07-3.261   c1.163,0.098,2.165,0.633,2.982,1.45c1.229,1.23,1.285,3.374,1.263,5.007c-0.029,2.232-0.284,4.537-0.562,6.752   c-0.774,6.194-1.905,12.42-3.063,18.556c-1.461,7.756-3.072,15.471-4.62,23.207c-0.563,2.813-1.095,5.86-1.934,8.598   c-0.591,1.922-1.413,3.799-3.138,4.963c-2.142,1.449-5.197,1.3-7.68,1.3c-2.486,0-5.541,0.149-7.682-1.3   c-1.727-1.164-2.549-3.041-3.139-4.963C14.34,73.561,13.811,70.514,13.247,67.7L13.247,67.7z M61.248,67.7   c-1.548-7.736-3.16-15.451-4.621-23.207c-1.156-6.136-2.287-12.361-3.062-18.556c-0.276-2.215-0.533-4.52-0.563-6.752   c-0.021-1.633,0.032-3.776,1.265-5.007c0.816-0.817,1.817-1.353,2.98-1.45c3.419-0.29,5.654,3.261,9.07,3.261   c0.958,0,1.996-0.095,2.863-0.54c0.73-0.375,1.354-0.948,2.1-1.344c0.857-0.455,1.748-0.677,2.719-0.677s1.861,0.222,2.719,0.677   c0.746,0.396,1.371,0.969,2.101,1.344c0.864,0.445,1.904,0.54,2.862,0.54c3.416,0,5.651-3.551,9.072-3.261   c1.161,0.098,2.163,0.633,2.98,1.45c1.229,1.23,1.283,3.374,1.263,5.007c-0.029,2.232-0.286,4.537-0.563,6.752   c-0.773,6.194-1.905,12.42-3.062,18.556c-1.461,7.756-3.073,15.471-4.62,23.207c-0.563,2.813-1.095,5.86-1.934,8.598   c-0.589,1.922-1.413,3.799-3.138,4.963c-2.142,1.449-5.197,1.3-7.682,1.3s-5.54,0.149-7.682-1.3   c-1.725-1.164-2.547-3.041-3.138-4.963C62.342,73.561,61.811,70.514,61.248,67.7L61.248,67.7z M79.1,47.908   c-0.049,0.706,0.486,1.317,1.19,1.364c0.704,0.048,1.315-0.486,1.364-1.191c0.658-9.788,1.32-19.581,1.981-29.372   c0.047-0.704-0.486-1.316-1.192-1.363c-0.705-0.047-1.315,0.486-1.362,1.191C80.42,28.326,79.758,38.117,79.1,47.908L79.1,47.908z    M64.34,18.711c0.66,9.789,1.322,19.582,1.981,29.37c0.048,0.705,0.659,1.239,1.364,1.191c0.704-0.047,1.238-0.658,1.191-1.364   l-1.982-29.37c-0.047-0.706-0.658-1.239-1.363-1.19C64.826,17.395,64.293,18.005,64.34,18.711L64.34,18.711z M84.242,67.197   C86.803,54.396,74,54.396,74,54.396s-12.801,0-10.24,12.802C66.318,80,66.318,80,74,80S81.682,80,84.242,67.197L84.242,67.197z    M31.098,47.908c-0.047,0.706,0.486,1.317,1.192,1.364c0.706,0.048,1.315-0.486,1.362-1.191c0.66-9.788,1.324-19.581,1.983-29.372   c0.047-0.704-0.486-1.316-1.19-1.363c-0.707-0.047-1.317,0.486-1.364,1.191C32.422,28.326,31.76,38.117,31.098,47.908   L31.098,47.908z M16.34,18.711c0.66,9.789,1.322,19.582,1.981,29.37c0.048,0.705,0.659,1.239,1.365,1.191   c0.704-0.047,1.237-0.658,1.189-1.364l-1.981-29.37c-0.047-0.706-0.658-1.239-1.363-1.19C16.826,17.395,16.293,18.005,16.34,18.711   L16.34,18.711z M36.242,67.197c2.561-12.802-10.24-12.802-10.24-12.802s-12.805,0-10.242,12.802C18.32,80,18.32,80,26.002,80   C33.682,80,33.682,80,36.242,67.197z"/></g><g display="none"><path display="inline" fill-rule="evenodd" clip-rule="evenodd" d="M55.097,65.843c0.63,0.334,2.402,0.347,3.04,0.322   c1.996-0.078,4.092-0.492,5.998-1.078c2.153-0.661,6.133-2.295,7.216-4.438c0.396-0.782,0.688-2.391,0.851-3.256   c0.359-1.908,0.614-3.849,0.84-5.775c0.372-3.186,0.666-6.406,0.888-9.611c-1.804-0.881-6.134-1.773-7.481-2.023   c-5.152-0.965-10.521-1.515-15.752-1.796C48.467,38.065,46.234,38,44.002,38c-2.23,0-4.465,0.065-6.694,0.188   c-5.231,0.281-10.6,0.831-15.753,1.796c-1.348,0.25-5.678,1.143-7.479,2.023c0.222,3.205,0.515,6.426,0.888,9.611   c0.226,1.927,0.482,3.867,0.838,5.775c0.162,0.865,0.459,2.474,0.852,3.256c1.084,2.143,5.063,3.776,7.215,4.438   c1.906,0.586,4.006,1,5.999,1.078c0.639,0.024,2.411,0.012,3.04-0.322c0.273-0.345,0.555-0.816,0.805-1.17   c0.607-0.856,1.259-1.659,2.016-2.387C38.02,60.084,40.824,59,44.002,59c3.179,0,5.98,1.084,8.273,3.286   c0.759,0.728,1.41,1.53,2.016,2.387C54.541,65.026,54.822,65.498,55.097,65.843L55.097,65.843z M65.002,80c0-1.657,1.342-3,3-3h9   c1.655,0,3,1.343,3,3c0,0,0,3.448-2.616,5.116C78.242,87.386,80.433,89,83.002,89c3.313,0,6-2.687,6-6V2h9v81   c0,8.285-6.717,15-15,15c-7.455,0-13.638-5.438-14.801-12.563C65.002,83.943,65.002,80,65.002,80L65.002,80z M78.534,56   c-0.382,2.661-0.948,5.608-1.828,7.351c-1.962,3.889-6.829,6.249-10.808,7.473c-3.971,1.22-11.709,2.608-15.018-0.702   c-0.986-0.984-1.604-2.353-2.656-3.405C47.031,65.522,45.692,65,44.002,65c-1.689,0-3.031,0.522-4.223,1.716   c-1.054,1.053-1.67,2.421-2.656,3.405c-3.311,3.311-11.048,1.922-15.018,0.702c-3.98-1.224-8.848-3.584-10.809-7.473   C10.418,61.608,9.852,58.661,9.47,56H5.002C3.344,56,2,54.657,2,53v-9c0-1.657,1.344-3,3.002-3h3c0-2.419,2.086-3.8,4.063-4.644   c2.012-0.86,4.325-1.431,6.463-1.887c5.972-1.276,12.367-1.946,18.461-2.273C39.322,32.068,41.664,32,44.002,32   c2.34,0,4.679,0.068,7.016,0.196c6.092,0.327,12.487,0.997,18.458,2.273c2.138,0.456,4.453,1.026,6.464,1.887   c1.977,0.844,4.063,2.225,4.063,4.644h3c1.656,0,3,1.343,3,3v9c0,1.657-1.344,3-3,3H78.534L78.534,56z M44.002,62   c-6.002,0-7.919,4.919-9,6c-3,3-18,0-21.026-6C12.074,58.229,11,41,11,41c0-3,18-6,33.002-6c15,0,33,3,33,6   c0,0-1.07,17.229-2.973,21C71.002,68,56,71,53.002,68C51.921,66.919,50.002,62,44.002,62z"/></g><g display="none"><path display="inline" fill-rule="evenodd" clip-rule="evenodd" d="M38.791,46.433c-0.495-3.745-0.684-7.642-0.76-11.371L37.968,32   H62V14c0-3.07,1.172-6.143,3.516-8.484c4.685-4.688,12.283-4.688,16.969,0l4.03,4.028L90.97,14L95,18.029l-2.121,2.121l-4.03-4.029   l-4.456-4.456l-4.03-4.028C78.736,6.008,76.486,5,74,5c-4.97,0-9,4.029-9,9v18h16.507l0.886,1.383C86.728,40.149,89,47.964,89,56   c0,23.196-18.804,42-42,42C23.806,98,5,79.196,5,56c0-8.036,2.272-15.851,6.606-22.617L12.493,32h22.395l0.226,2.756   c0.3,3.681,1.261,7.688,3.17,10.884C38.438,45.898,38.608,46.165,38.791,46.433z"/></g><g display="none"><path display="inline" fill-rule="evenodd" clip-rule="evenodd" d="M48.5,2C55.956,2,62,8.044,62,15.5   c0,0.604-0.04,1.197-0.117,1.778C68.788,18.623,74,24.702,74,32c0,2.354-0.543,4.582-1.509,6.565C80.259,40.561,86,47.609,86,56   c0,9.942-8.06,18-18,18H56.066H53v19.5c0,2.485-2.014,4.5-4.5,4.5S44,95.985,44,93.5V74h-6h-9c-9.942,0-18-8.058-18-18   c0-8.391,5.741-15.439,13.509-17.435C23.543,36.582,23,34.354,23,32c0-7.298,5.212-13.377,12.117-14.722   C35.04,16.697,35,16.104,35,15.5C35,8.044,41.044,2,48.5,2L48.5,2z M50,93.5v-4.243V74V43.121l3-3l7.061-7.061   c0.586-0.586,0.586-1.535,0-2.121s-1.535-0.586-2.121,0L50,38.879V24.5c0-0.828-0.672-1.5-1.5-1.5c-0.829,0-1.5,0.672-1.5,1.5   v44.379l-3-3L30.061,51.939c-0.586-0.586-1.535-0.586-2.121,0s-0.586,1.535,0,2.121L47,73.121V74v15.257V93.5   c0,0.827,0.671,1.5,1.5,1.5C49.328,95,50,94.327,50,93.5z"/></g><g display="none"><path display="inline" fill-rule="evenodd" clip-rule="evenodd" d="M98,98l-6-9L63.803,46.704l6.693-10.04   c0.46-0.69,0.272-1.62-0.416-2.08C69.39,34.124,68.46,34.31,68,35l-6,8.999l-4.197-6.295l6.693-10.04   c0.46-0.69,0.272-1.62-0.416-2.08S62.46,25.31,62,26l-6,8.999l-4.197-6.295l6.693-10.04c0.458-0.69,0.272-1.62-0.416-2.08   S56.46,16.312,56,17l-6,8.999L44,17c-0.46-0.688-1.39-0.876-2.08-0.416c-0.688,0.46-0.876,1.39-0.416,2.08l6.693,10.04L8,89l-6,9   h12h3.606H26h3.606H50C61.509,98,72.922,98,98,98L98,98z M28,95h-8.394l22.812-34.22L56,40.408l4.197,6.296L28,95z"/></g></svg>