<svg xmlns:dc="http://purl.org/dc/elements/1.1/" xmlns:cc="http://creativecommons.org/ns#" xmlns:rdf="http://www.w3.org/1999/02/22-rdf-syntax-ns#" xmlns:svg="http://www.w3.org/2000/svg" xmlns="http://www.w3.org/2000/svg" xmlns:sodipodi="http://sodipodi.sourceforge.net/DTD/sodipodi-0.dtd" xmlns:inkscape="http://www.inkscape.org/namespaces/inkscape" version="1.1" x="0px" y="0px" viewBox="0 0 100 100"><g transform="translate(0,-952.36218)"><path style="opacity:1;color:#000000;fill:#000000;stroke:none;stroke-width:3.99999976000000010;stroke-linecap:round;stroke-linejoin:round;stroke-miterlimit:4;stroke-opacity:1;stroke-dasharray:none;stroke-dashoffset:0;marker:none;visibility:visible;display:inline;overflow:visible;enable-background:accumulate" d="M 50 23 L 24 33 L 8 52 L 19.1875 64 C 19.589018 63.621531 20.020585 63.25377 20.46875 62.90625 C 20.50473 62.87825 20.52623 62.8405 20.5625 62.8125 L 20.59375 62.84375 C 27.323154 57.36725 37.758661 55 50 55 C 62.24134 55 72.676846 57.36725 79.40625 62.84375 L 79.4375 62.8125 C 79.47377 62.8405 79.49527 62.87825 79.53125 62.90625 C 79.979415 63.25377 80.410982 63.621531 80.8125 64 L 92 52 L 76 33 L 50 23 z M 50.03125 34 L 60 37 C 58.941409 45.1159 54.899587 50 50.03125 50 C 45.162913 50 41.058592 45.1159 40 37 L 50.03125 34 z M 50 59 C 38.260635 59 28.479169 61.4887 23 66 C 21.317387 67.2847 20 68.9565 20 70 C 20 74.7798 34.429636 77 50 77 C 65.570365 77 80 74.7798 80 70 C 80 68.9565 78.682613 67.2847 77 66 C 71.520831 61.4887 61.739366 59 50 59 z " transform="translate(0,952.36218)"/></g></svg>