<svg width="35" height="33" viewBox="0 0 35 33" fill="none" xmlns="http://www.w3.org/2000/svg">
<path d="M29 14.2647C29 22.1428 22.5081 28.5293 14.5 28.5293C6.49187 28.5293 0 22.1428 0 14.2647C0 6.38651 6.49187 0 14.5 0C22.5081 0 29 6.38651 29 14.2647Z" fill="#BDBDBD"/>
<path d="M14.5 33L10.3026 25.7931H18.3158L14.5 33Z" fill="#BDBDBD"/>
<circle cx="25.5" cy="19.5" r="9.5" fill="white"/>
<path d="M30.112 18.112C30.496 18.112 30.816 18.24 31.072 18.496C31.328 18.736 31.456 19.048 31.456 19.432C31.456 19.816 31.328 20.136 31.072 20.392C30.816 20.632 30.496 20.752 30.112 20.752H26.752V23.896C26.752 24.344 26.6 24.712 26.296 25C26.008 25.288 25.64 25.432 25.192 25.432C24.744 25.432 24.368 25.288 24.064 25C23.776 24.712 23.632 24.344 23.632 23.896V20.752H20.344C19.96 20.752 19.64 20.624 19.384 20.368C19.128 20.112 19 19.792 19 19.408C19 19.024 19.128 18.712 19.384 18.472C19.64 18.232 19.96 18.112 20.344 18.112H23.632V14.536C23.632 14.088 23.776 13.72 24.064 13.432C24.368 13.144 24.752 13 25.216 13C25.664 13 26.032 13.144 26.32 13.432C26.608 13.72 26.752 14.088 26.752 14.536V18.112H30.112Z" fill="#828282"/>
</svg>
