<?xml version="1.0" encoding="utf-8"?>
<!-- Generator: Adobe Illustrator 16.0.0, SVG Export Plug-In . SVG Version: 6.00 Build 0)  -->
<!DOCTYPE svg PUBLIC "-//W3C//DTD SVG 1.1//EN" "http://www.w3.org/Graphics/SVG/1.1/DTD/svg11.dtd">
<svg version="1.1" id="Layer_1" xmlns="http://www.w3.org/2000/svg" xmlns:xlink="http://www.w3.org/1999/xlink" x="0px" y="0px"
	 width="300px" height="181.25px" viewBox="0 0 300 181.25" enable-background="new 0 0 300 181.25" xml:space="preserve">
<g>
	<defs>
		<filter id="Adobe_OpacityMaskFilter" filterUnits="userSpaceOnUse" x="1.784" y="1.017" width="286.514" height="168.903">
			<feColorMatrix  type="matrix" values="1 0 0 0 0  0 1 0 0 0  0 0 1 0 0  0 0 0 1 0"/>
		</filter>
	</defs>
	<mask maskUnits="userSpaceOnUse" x="1.784" y="1.017" width="286.514" height="168.903" id="SVGID_1_">
		<g filter="url(#Adobe_OpacityMaskFilter)">
			<g id="XMLID_12_">
				<g>
					<path fill="#FFFFFF" d="M373.072-35.379v226.36H-54.692v-226.36H373.072z M300.598,174.1V89.455l-105.875,84.646L300.598,174.1
						L300.598,174.1z"/>
				</g>
				<g>
					
						<polygon fill="none" stroke="#000000" stroke-width="30.3639" stroke-linecap="round" stroke-linejoin="round" stroke-miterlimit="10" points="
						194.723,174.1 300.598,174.1 300.598,89.455 					"/>
					
						<rect x="-54.692" y="-35.379" fill="none" stroke="#000000" stroke-width="30.3639" stroke-linecap="round" stroke-linejoin="round" stroke-miterlimit="10" width="427.766" height="226.36"/>
				</g>
			</g>
		</g>
	</mask>
	<g mask="url(#SVGID_1_)">
		
			<path fill="none" stroke="#81878A" stroke-width="8.4387" stroke-linecap="round" stroke-linejoin="round" stroke-miterlimit="10" d="
			M107.458,114.974c0,28.015-22.712,50.726-50.73,50.726c-28.013,0-50.725-22.711-50.725-50.726
			c0-28.017,22.712-50.728,50.725-50.728C84.746,64.246,107.458,86.957,107.458,114.974z"/>
		
			<circle fill="none" stroke="#81878A" stroke-width="8.4387" stroke-linecap="round" stroke-linejoin="round" stroke-miterlimit="10" cx="233.354" cy="114.973" r="50.727"/>
		
			<path fill="none" stroke="#81878A" stroke-width="8.4387" stroke-linecap="round" stroke-linejoin="round" stroke-miterlimit="10" d="
			M67.588,114.974c0,5.996-4.862,10.856-10.86,10.856c-5.994,0-10.856-4.86-10.856-10.856c0-6,4.862-10.858,10.856-10.858
			C62.726,104.114,67.588,108.974,67.588,114.974z"/>
		
			<path fill="none" stroke="#81878A" stroke-width="8.4387" stroke-linecap="round" stroke-linejoin="round" stroke-miterlimit="10" d="
			M159.535,114.974c0,9.151-7.422,16.577-16.579,16.577c-9.156,0-16.577-7.426-16.577-16.577c0-9.158,7.421-16.576,16.577-16.576
			C152.113,98.397,159.535,105.814,159.535,114.974z"/>
		
			<circle fill="none" stroke="#81878A" stroke-width="8.4387" stroke-linecap="round" stroke-linejoin="round" stroke-miterlimit="10" cx="233.354" cy="114.413" r="10.86"/>
		
			<line fill="none" stroke="#81878A" stroke-width="8.4387" stroke-linecap="round" stroke-linejoin="round" stroke-miterlimit="10" x1="56.728" y1="104.114" x2="142.956" y2="98.397"/>
		
			<line fill="none" stroke="#81878A" stroke-width="8.4387" stroke-linecap="round" stroke-linejoin="round" stroke-miterlimit="10" x1="56.728" y1="125.83" x2="142.956" y2="131.551"/>
		
			<line fill="none" stroke="#81878A" stroke-width="8.4387" stroke-linecap="round" stroke-linejoin="round" stroke-miterlimit="10" x1="46.9" y1="110.375" x2="92.855" y2="37.063"/>
		
			<polyline fill="none" stroke="#81878A" stroke-width="8.4387" stroke-linecap="round" stroke-linejoin="round" stroke-miterlimit="10" points="
			229.928,104.111 192.443,5.236 169.32,5.236 		"/>
		
			<line fill="none" stroke="#81878A" stroke-width="8.4387" stroke-linecap="round" stroke-linejoin="round" stroke-miterlimit="10" x1="135.518" y1="100.156" x2="85.173" y2="25.701"/>
		
			<line fill="none" stroke="#81878A" stroke-width="8.4387" stroke-linecap="round" stroke-linejoin="round" stroke-miterlimit="10" x1="152.127" y1="101.16" x2="204.718" y2="43.783"/>
		
			<path fill="none" stroke="#81878A" stroke-width="8.4387" stroke-linecap="round" stroke-linejoin="round" stroke-miterlimit="10" d="
			M107.316,18.488c0,3.982-3.227,7.209-7.212,7.209H73.902c-3.984,0-7.212-3.227-7.212-7.209l0,0c0-3.984,3.228-7.21,7.212-7.21
			h26.201C104.089,11.278,107.316,14.504,107.316,18.488L107.316,18.488z"/>
		
			<line fill="none" stroke="#81878A" stroke-width="8.4387" stroke-linecap="round" stroke-linejoin="round" stroke-miterlimit="10" x1="199.623" y1="24.174" x2="166.833" y2="60.265"/>
		
			<path fill="none" stroke="#81878A" stroke-width="8.4387" stroke-linecap="round" stroke-linejoin="round" stroke-miterlimit="10" d="
			M92.855,37.063c0,0,36.357,61.765,73.979,23.201"/>
	</g>
	<g>
		
			<polygon fill="none" stroke="#47B870" stroke-width="12.1456" stroke-linecap="round" stroke-linejoin="round" stroke-miterlimit="10" points="
			188.705,176.015 294.593,176.015 294.593,91.373 		"/>
	</g>
</g>
</svg>
