<?xml version="1.0" encoding="utf-8"?>
<!-- Generator: Adobe Illustrator 22.1.0, SVG Export Plug-In . SVG Version: 6.00 Build 0)  -->
<svg version="1.1" id="Layer_1" xmlns:sketch="http://www.bohemiancoding.com/sketch/ns"
	 xmlns="http://www.w3.org/2000/svg" xmlns:xlink="http://www.w3.org/1999/xlink" x="0px" y="0px" viewBox="0 0 95 95"
	 style="enable-background:new 0 0 95 95;" xml:space="preserve">
<style type="text/css">
	.st0{fill:#FFFFFF;}
</style>
<title>Eye</title>
<desc>Created with Sketch.</desc>
<g sketch:type="MSPage">
	<g sketch:type="MSArtboardGroup">
		<path sketch:type="MSShapeGroup" d="M64.8,33.3c10,5.7,16.4,14.2,16.4,14.2S66.7,66.7,47.5,66.7S13.8,47.5,13.8,47.5
			S21,38,32,32.3c-2.1,3.1-3.4,6.9-3.4,11c0,10.8,8.7,19.5,19.5,19.5s19.5-8.7,19.5-19.5C67.6,39.7,66.6,36.3,64.8,33.3z M47.5,73.5
			c26.1,0,42.5-26,42.5-26s-16.4-26-42.5-26S5,47.5,5,47.5S21.4,73.5,47.5,73.5z M44.6,30.7c-5.1-0.1-10,3.8-10.3,9.4
			c-0.1,1.3,0.9,2.4,2.2,2.5s2.4-0.9,2.5-2.2c0.1-2.9,2.8-5,5.5-4.9c1.3,0,2.4-1,2.4-2.3S45.9,30.7,44.6,30.7z"/>
	</g>
</g>
<path class="st0" d="M44.6,30.7c-5.1-0.1-10,3.8-10.3,9.4c-0.1,1.3,0.9,2.4,2.2,2.5s2.4-0.9,2.5-2.2c0.1-2.9,2.8-5,5.5-4.9
	c1.3,0,2.4-1,2.4-2.3S45.9,30.7,44.6,30.7z"/>
</svg>
