<?xml version="1.0" encoding="utf-8"?>
<!-- Generator: Adobe Illustrator 22.1.0, SVG Export Plug-In . SVG Version: 6.00 Build 0)  -->
<svg version="1.1" id="Layer_1" xmlns="http://www.w3.org/2000/svg" xmlns:xlink="http://www.w3.org/1999/xlink" x="0px" y="0px"
	 viewBox="0 0 70.5 70.5" style="enable-background:new 0 0 70.5 70.5;" xml:space="preserve">
<style type="text/css">
	.st0{fill:#828B90;}
</style>
<path class="st0" d="M42.6,28.5h5.2c0-4.6-4.2-8.3-10-9.2v-3.1h-5.2v3.1c-9,0.9-10,6.7-10,9.3s1,8.3,10,9.3v8.3
	c-4.3-0.5-4.8-2.2-4.8-4h-5.2c0,4.5,2.3,6.7,4.3,7.8c1.5,0.8,3.3,1.3,5.7,1.5v2.7h5.2v-2.9c6.3-0.7,10-4,10-9.2c0-2.6-1-8.3-10-9.3
	v-8.1C40.7,25.3,42.6,27,42.6,28.5z M27.8,28.5c0-0.9,0-3.3,4.8-4v8C27.8,31.9,27.8,29.5,27.8,28.5z M42.6,42.1c0,2.2-1.6,3.5-4.8,4
	v-8C42.6,38.7,42.6,41.1,42.6,42.1z M35.2,2.5c-18,0-32.7,14.7-32.7,32.7s14.7,32.7,32.7,32.7s32.7-14.7,32.7-32.7
	S53.2,2.5,35.2,2.5z M35.2,62.6c-15.1,0-27.4-12.3-27.4-27.4S20.1,7.8,35.2,7.8s27.4,12.3,27.4,27.4S50.3,62.6,35.2,62.6z"/>
</svg>
