<?xml version="1.0" encoding="utf-8"?>
<!-- Generator: Adobe Illustrator 16.0.0, SVG Export Plug-In . SVG Version: 6.00 Build 0)  -->
<!DOCTYPE svg PUBLIC "-//W3C//DTD SVG 1.1//EN" "http://www.w3.org/Graphics/SVG/1.1/DTD/svg11.dtd">
<svg version="1.1" id="Layer_1" xmlns="http://www.w3.org/2000/svg" xmlns:xlink="http://www.w3.org/1999/xlink" x="0px" y="0px"
	 width="283.465px" height="283.465px" viewBox="0 0 283.465 283.465" enable-background="new 0 0 283.465 283.465"
	 xml:space="preserve">
<g>
	
		<path fill="none" stroke="#30bb6a" stroke-width="17.9984" stroke-linecap="round" stroke-linejoin="round" stroke-miterlimit="10" d="
		M247.784,64.567c17.747-8.767,25.301,9.254,25.301,22.086c0,110.578,0,0,0,110.578c0,19.406-10.771,38.696-21.772,44.202
		c-65.97,32.988-65.97,32.988-65.97,32.988l-87.742-43.858c0,0-0.156-0.314-54.957,27.481c-15.411,7.811-32.753-6.446-32.753-18.803
		c0-41.073,0,0,0-114.324c0-11.521,2.564-30.089,22.313-40.283c10.585-5.464,7.196-3.749,14.636-7.539"/>
	
		<line fill="none" stroke="#30bb6a" stroke-width="17.9984" stroke-linecap="round" stroke-linejoin="round" stroke-miterlimit="10" x1="97.601" y1="171.742" x2="97.601" y2="230.563"/>
	
		<line fill="none" stroke="#30bb6a" stroke-width="17.9984" stroke-linecap="round" stroke-linejoin="round" stroke-miterlimit="10" x1="185.343" y1="190.126" x2="185.343" y2="274.422"/>
	
		<path fill="none" stroke="#30bb6a" stroke-width="17.9984" stroke-linecap="round" stroke-linejoin="round" stroke-miterlimit="10" d="
		M199.011,132.729c27.853-28.3,27.853-74.175,0-102.461c-27.827-28.3-72.979-28.3-100.776,0c-27.866,28.287-27.866,74.162,0,102.461
		l50.401,51.195L199.011,132.729z"/>
	
		<path fill="none" stroke="#30bb6a" stroke-width="17.9984" stroke-linecap="round" stroke-linejoin="round" stroke-miterlimit="10" d="
		M176.912,78.19c0,15.801-12.821,28.604-28.607,28.604c-15.799,0-28.602-12.803-28.602-28.604c0-15.799,12.802-28.602,28.602-28.602
		C164.091,49.588,176.912,62.391,176.912,78.19z"/>
</g>
</svg>
