<svg xmlns="http://www.w3.org/2000/svg" xmlns:xlink="http://www.w3.org/1999/xlink" viewBox="0 0 141.73 141.73"><defs><style>.cls-1,.cls-12{fill:#fff;}.cls-10,.cls-11,.cls-14,.cls-16,.cls-2,.cls-4,.cls-6,.cls-9{fill:none;}.cls-10,.cls-11,.cls-2,.cls-4,.cls-6,.cls-8,.cls-9{stroke:#000;}.cls-2{stroke-miterlimit:10;}.cls-10,.cls-2{stroke-width:9.92px;}.cls-3{mask:url(#mask);}.cls-10,.cls-11,.cls-12,.cls-14,.cls-16,.cls-20,.cls-4,.cls-6,.cls-8,.cls-9{stroke-linecap:round;stroke-linejoin:round;}.cls-4,.cls-6,.cls-9{stroke-width:7px;}.cls-4{filter:url(#luminosity-noclip);}.cls-5{mask:url(#mask-2);}.cls-7{mask:url(#mask-3);}.cls-20,.cls-8{fill:#47b870;}.cls-8{stroke-width:12px;}.cls-9{filter:url(#luminosity-noclip-3);}.cls-11{stroke-width:11.34px;}.cls-12,.cls-16,.cls-20{stroke:#47b870;}.cls-12{stroke-width:5.67px;}.cls-13{mask:url(#mask-4);}.cls-14{stroke:#828b90;stroke-width:3.94px;}.cls-15{mask:url(#mask-6);}.cls-16{stroke-width:3px;}.cls-17{mask:url(#mask-7);}.cls-18{mask:url(#mask-8);}.cls-19{mask:url(#mask-9);}.cls-20{stroke-width:4.94px;}.cls-21{filter:url(#luminosity-noclip-2);}</style><mask id="mask" x="0.87" y="0" width="141.73" height="141.73" maskUnits="userSpaceOnUse"><rect class="cls-1" x="0.87" width="141.73" height="141.73"/><line class="cls-2" x1="83.7" y1="83.2" x2="123.37" y2="63.37"/></mask><filter id="luminosity-noclip" x="52.3" y="67.28" width="55.25" height="50.54" filterUnits="userSpaceOnUse" color-interpolation-filters="sRGB"><feFlood flood-color="#fff" result="bg"/><feBlend in="SourceGraphic" in2="bg"/></filter><mask id="mask-2" x="52.3" y="67.28" width="55.25" height="50.54" maskUnits="userSpaceOnUse"><path class="cls-4" d="M93.4,107.38c1.32-.29,1.81-1.15,1.86-2.95l.06-31.26"/></mask><mask id="mask-3" x="32.5" y="22.09" width="111.28" height="110.2" maskUnits="userSpaceOnUse"><polygon class="cls-1" points="143.36 132.29 32.94 131.85 32.5 22.09 142.91 22.54 143.36 132.29"/></mask><filter id="luminosity-noclip-2" x="2.27" y="45.69" width="141.51" height="89.41" filterUnits="userSpaceOnUse" color-interpolation-filters="sRGB"><feFlood flood-color="#fff" result="bg"/><feBlend in="SourceGraphic" in2="bg"/></filter><mask id="mask-4" x="2.27" y="45.69" width="141.51" height="89.41" maskUnits="userSpaceOnUse"><g class="cls-21"><g class="cls-3"><g class="cls-5"><path class="cls-6" d="M104,70.78,104,92.11c0,2-1.76,2.93-3.09,3.23L62.61,108.57c-3.85,1.74-5.37,2.38-6.81,5.76"/></g><path class="cls-6" d="M56.55,112.82c-1.68,3.09-1.33,5.33,2.36,4.49L93.4,104.38c1.32-.29,1.81-1.15,1.86-2.95l.06-31.26"/></g><g class="cls-7"><polyline class="cls-8" points="80.34 78.63 132.07 51.91 135.63 59.7 83.78 86.62"/><path class="cls-8" d="M137.33,57.93a4.32,4.32,0,1,1-1.94-5.77A4.3,4.3,0,0,1,137.33,57.93Z"/><path class="cls-8" d="M86.11,84.43a4.32,4.32,0,1,1-1.93-5.76A4.3,4.3,0,0,1,86.11,84.43Z"/></g></g></mask><filter id="luminosity-noclip-3" x="54.3" y="69.28" width="51.25" height="46.54" filterUnits="userSpaceOnUse" color-interpolation-filters="sRGB"><feFlood flood-color="#fff" result="bg"/><feBlend in="SourceGraphic" in2="bg"/></filter><mask id="mask-6" x="54.3" y="69.28" width="51.25" height="46.54" maskUnits="userSpaceOnUse"><path class="cls-9" d="M93.4,107.38c1.32-.29,1.81-1.15,1.86-2.95l.06-31.26"/></mask><mask id="mask-7" x="-1.15" y="0" width="151.18" height="141.73" maskUnits="userSpaceOnUse"><rect class="cls-1" x="-0.13" width="141.73" height="141.73"/><circle class="cls-10" cx="27.49" cy="109.2" r="23.68" transform="translate(-69.16 51.42) rotate(-45)"/><path class="cls-10" d="M133.61,109.2a23.68,23.68,0,1,1-23.67-23.68A23.68,23.68,0,0,1,133.61,109.2Z"/><path class="cls-10" d="M32.56,109.2a5.07,5.07,0,1,1-5.07-5.07A5.07,5.07,0,0,1,32.56,109.2Z"/><path class="cls-10" d="M75.48,109.2a7.74,7.74,0,1,1-7.74-7.74A7.75,7.75,0,0,1,75.48,109.2Z"/><path class="cls-10" d="M115,108.94a5.07,5.07,0,1,1-5.06-5.07A5.06,5.06,0,0,1,115,108.94Z"/><line class="cls-10" x1="27.49" y1="104.13" x2="67.74" y2="101.46"/><line class="cls-10" x1="27.49" y1="114.27" x2="67.74" y2="116.94"/><line class="cls-10" x1="22.9" y1="107.05" x2="44.35" y2="72.83"/><polyline class="cls-10" points="108.34 104.13 90.84 57.98 80.05 57.98"/><line class="cls-10" x1="64.27" y1="102.28" x2="40.77" y2="67.53"/><line class="cls-10" x1="72.02" y1="102.75" x2="96.57" y2="75.97"/><path class="cls-10" d="M51.1,64.16a3.36,3.36,0,0,1-3.36,3.37H35.51a3.37,3.37,0,0,1-3.37-3.37h0a3.36,3.36,0,0,1,3.37-3.36H47.74a3.35,3.35,0,0,1,3.36,3.36Z"/><line class="cls-10" x1="94.19" y1="66.81" x2="78.89" y2="83.66"/><path class="cls-10" d="M44.35,72.83s17,28.83,34.54,10.83"/><line class="cls-11" x1="74.37" y1="86.52" x2="144.37" y2="50.7"/></mask><mask id="mask-8" x="3.27" y="-18.87" width="147.4" height="147.4" maskUnits="userSpaceOnUse"><rect class="cls-12" x="6.1" y="-16.04" width="141.73" height="141.73"/><line class="cls-11" x1="123.85" y1="60.31" x2="123.85" y2="98.48"/></mask><mask id="mask-9" x="31.5" y="22.09" width="110.87" height="110.2" maskUnits="userSpaceOnUse"><polygon class="cls-1" points="142.36 132.29 31.94 131.85 31.5 22.09 141.91 22.54 142.36 132.29"/></mask></defs><title>Icon_guide_pente</title><g id="M"><g class="cls-13"><circle class="cls-14" cx="27.92" cy="109.45" r="23.68"/><path class="cls-14" d="M134,109.45a23.68,23.68,0,1,1-23.68-23.67A23.68,23.68,0,0,1,134,109.45Z"/><path class="cls-14" d="M33,109.45a5.07,5.07,0,1,1-5.06-5.07A5.07,5.07,0,0,1,33,109.45Z"/><path class="cls-14" d="M75.9,109.45a7.74,7.74,0,1,1-7.73-7.74A7.74,7.74,0,0,1,75.9,109.45Z"/><path class="cls-14" d="M115.43,109.19a5.07,5.07,0,1,1-5.07-5.07A5.07,5.07,0,0,1,115.43,109.19Z"/><line class="cls-14" x1="27.92" y1="104.38" x2="68.17" y2="101.71"/><line class="cls-14" x1="27.92" y1="114.52" x2="68.17" y2="117.19"/><line class="cls-14" x1="23.33" y1="107.31" x2="44.78" y2="73.09"/><polyline class="cls-14" points="108.76 104.39 91.26 58.23 80.47 58.23"/><line class="cls-14" x1="64.69" y1="102.54" x2="41.19" y2="67.78"/><line class="cls-14" x1="72.45" y1="103.01" x2="96.99" y2="76.22"/><path class="cls-14" d="M51.53,64.42a3.36,3.36,0,0,1-3.37,3.36H35.93a3.35,3.35,0,0,1-3.36-3.36h0a3.36,3.36,0,0,1,3.36-3.37H48.16a3.37,3.37,0,0,1,3.37,3.37Z"/><line class="cls-14" x1="94.62" y1="67.07" x2="79.31" y2="83.92"/><path class="cls-14" d="M44.78,73.09s17,28.83,34.53,10.83"/></g><g class="cls-3"><g class="cls-15"><path class="cls-16" d="M104,70.78,104,92.11c0,2-1.76,2.93-3.09,3.23L62.61,108.57c-3.85,1.74-5.37,2.38-6.81,5.76"/></g><path class="cls-16" d="M56.55,112.82c-1.68,3.09-1.33,5.33,2.36,4.49L93.4,104.38c1.32-.29,1.81-1.15,1.86-2.95l.06-31.26"/></g><g class="cls-17"><g class="cls-18"><path class="cls-16" d="M132.47,55.53l-.09,17.55c0,2-1.76,2.92-3.09,3.22l-22,7.62"/></g><path class="cls-16" d="M105.06,94.63l16.76-6.28c1.33-.3,1.81-1.15,1.86-2.95l.07-25.13"/></g></g><g id="Isolation_Mode" data-name="Isolation Mode"><g class="cls-19"><polyline class="cls-20" points="79.34 78.63 131.07 51.91 134.63 59.7 82.78 86.62"/><path class="cls-20" d="M136.33,57.93a4.32,4.32,0,1,1-1.94-5.77A4.3,4.3,0,0,1,136.33,57.93Z"/><path class="cls-20" d="M85.11,84.43a4.32,4.32,0,1,1-1.93-5.76A4.3,4.3,0,0,1,85.11,84.43Z"/></g></g></svg>