<svg xmlns="http://www.w3.org/2000/svg" viewBox="0 0 141.73 141.73"><defs><style>.cls-1,.cls-2,.cls-3{fill:none;stroke-linecap:round;stroke-linejoin:round;}.cls-1{stroke:#47b870;stroke-width:5.83px;}.cls-2{stroke:#b3b4b4;stroke-width:3.94px;}.cls-3{stroke:#47b970;stroke-width:5.67px;}</style></defs><title>icon_uncovered</title><g id="Layer_2" data-name="Layer 2"><line class="cls-1" x1="138.28" y1="138.12" x2="3.66" y2="138.12"/><circle class="cls-2" cx="32.16" cy="108.6" r="23.68" transform="translate(-80.92 114.95) rotate(-76.72)"/><path class="cls-2" d="M138.28,108.6A23.68,23.68,0,1,1,114.6,84.92,23.68,23.68,0,0,1,138.28,108.6Z"/><path class="cls-2" d="M37.23,108.6a5.07,5.07,0,1,1-5.07-5.07A5.07,5.07,0,0,1,37.23,108.6Z"/><path class="cls-2" d="M80.15,108.6a7.74,7.74,0,1,1-7.74-7.74A7.75,7.75,0,0,1,80.15,108.6Z"/><path class="cls-2" d="M119.67,108.34a5.07,5.07,0,1,1-5.07-5.07A5.07,5.07,0,0,1,119.67,108.34Z"/><line class="cls-2" x1="32.16" y1="103.53" x2="72.41" y2="100.86"/><line class="cls-2" x1="32.16" y1="113.67" x2="72.41" y2="116.34"/><line class="cls-2" x1="27.57" y1="106.45" x2="49.02" y2="72.23"/><polyline class="cls-2" points="113 103.53 95.51 57.38 84.71 57.38"/><line class="cls-2" x1="68.94" y1="101.68" x2="45.44" y2="66.93"/><line class="cls-2" x1="76.69" y1="102.15" x2="101.24" y2="75.37"/><path class="cls-2" d="M55.77,63.56a3.36,3.36,0,0,1-3.36,3.37H40.18a3.37,3.37,0,0,1-3.37-3.37h0a3.36,3.36,0,0,1,3.37-3.36H52.41a3.35,3.35,0,0,1,3.36,3.36Z"/><line class="cls-2" x1="98.86" y1="66.21" x2="83.55" y2="83.06"/><path class="cls-2" d="M49,72.23s17,28.83,34.53,10.83"/><path class="cls-3" d="M73.5,26.67A9.86,9.86,0,0,0,58.89,14.86a14.66,14.66,0,0,0-28.67.71,7.06,7.06,0,0,0-8.72,11.1Z"/><path class="cls-3" d="M121.08,39.37a10.59,10.59,0,0,0,1.2-4.86A10.69,10.69,0,0,0,101.49,31a6.45,6.45,0,0,0-9.58,8.39Z"/></g></svg>