<?xml version="1.0" encoding="utf-8"?>
<!-- Generator: Adobe Illustrator 22.1.0, SVG Export Plug-In . SVG Version: 6.00 Build 0)  -->
<svg version="1.1" id="Layer_1" xmlns="http://www.w3.org/2000/svg" xmlns:xlink="http://www.w3.org/1999/xlink" x="0px" y="0px"
	 viewBox="0 0 95.6 95.6" style="enable-background:new 0 0 95.6 95.6;" xml:space="preserve">
<style type="text/css">
	.st0{fill:none;stroke:#828B90;stroke-width:6.6136;stroke-linecap:round;stroke-linejoin:round;stroke-miterlimit:10;}
</style>
<path class="st0" d="M36.5,57.7c0,9.2-7.4,16.6-16.6,16.6S3.3,66.9,3.3,57.7s7.4-16.6,16.6-16.6c2.3,0,4.4,0.5,6.4,1.3"/>
<path class="st0" d="M92.3,57.7c0,9.2-7.4,16.6-16.6,16.6s-16.6-7.4-16.6-16.6s7.4-16.6,16.6-16.6S92.3,48.5,92.3,57.7z"/>
<line class="st0" x1="20" y1="57.3" x2="31.7" y2="32.2"/>
<path class="st0" d="M48.1,57.7"/>
<path class="st0" d="M55.3,68.9"/>
<line class="st0" x1="20" y1="57.7" x2="59.1" y2="57.3"/>
<path class="st0" d="M8.7,60.3"/>
<path class="st0" d="M16.6,69"/>
<path class="st0" d="M27.9,28"/>
<path class="st0" d="M35.5,28"/>
<line class="st0" x1="25.8" y1="21.6" x2="48.1" y2="57.3"/>
<path class="st0" d="M60.1,32.2"/>
<line class="st0" x1="60.1" y1="32.2" x2="31.7" y2="32.2"/>
<line class="st0" x1="53.2" y1="21.3" x2="75.7" y2="57.3"/>
<line class="st0" x1="22" y1="21.3" x2="33.2" y2="21.3"/>
<line class="st0" x1="53.6" y1="21.3" x2="67.8" y2="21.3"/>
</svg>
