<svg xmlns="http://www.w3.org/2000/svg" xmlns:xlink="http://www.w3.org/1999/xlink" viewBox="0 0 141.73 141.73"><defs><style>.cls-1{stroke:#000;stroke-width:20px;filter:url(#luminosity-noclip);}.cls-1,.cls-4,.cls-5{stroke-miterlimit:10;}.cls-2,.cls-4,.cls-5{fill:none;stroke:#39b66a;}.cls-2,.cls-5{stroke-linecap:round;}.cls-2{stroke-linejoin:round;stroke-width:5.67px;}.cls-3{mask:url(#mask);}.cls-4,.cls-5{stroke-width:5px;}</style><filter id="luminosity-noclip" x="12.48" y="-7.95" width="113.54" height="148.83" filterUnits="userSpaceOnUse" color-interpolation-filters="sRGB"><feFlood flood-color="#fff" result="bg"/><feBlend in="SourceGraphic" in2="bg"/></filter><mask id="mask" x="12.48" y="-7.95" width="113.54" height="148.83" maskUnits="userSpaceOnUse"><path class="cls-1" d="M56.27,8c76,94.77,0,101.51,0,101.51S-19.76,102.8,56.27,8Z"/></mask></defs><title>icon_public</title><g id="Layer_2" data-name="Layer 2"><line class="cls-2" x1="135.6" y1="138.38" x2="5.73" y2="138.38"/><g class="cls-3"><path class="cls-4" d="M103.59,55.64c46,58.79-2,63-2,63s-48-4.23-2-63A2.57,2.57,0,0,1,103.59,55.64Z"/><line class="cls-5" x1="101.57" y1="138.38" x2="101.57" y2="96.37"/><line class="cls-5" x1="101.57" y1="107.07" x2="107.93" y2="100.72"/><line class="cls-5" x1="101.57" y1="107.07" x2="95.22" y2="100.72"/></g><path class="cls-4" d="M58.27,10.56c72.68,92.36-2,99-2,99s-74.68-6.62-2-99A2.55,2.55,0,0,1,58.27,10.56Z"/><line class="cls-5" x1="56.27" y1="138.38" x2="56.27" y2="77.18"/><line class="cls-5" x1="56.27" y1="78.4" x2="63.17" y2="71.5"/><line class="cls-5" x1="56.27" y1="78.4" x2="49.37" y2="71.5"/><line class="cls-5" x1="56.27" y1="96.37" x2="67.92" y2="84.72"/><line class="cls-5" x1="56.27" y1="96.37" x2="44.62" y2="84.72"/></g></svg>