<svg xmlns="http://www.w3.org/2000/svg" xmlns:xlink="http://www.w3.org/1999/xlink" viewBox="0 0 141.73 141.73"><defs><style>.cls-1,.cls-3,.cls-4{fill:none;stroke-linecap:round;stroke-linejoin:round;}.cls-1{stroke:#000;stroke-width:20px;filter:url(#luminosity-noclip);}.cls-2{mask:url(#mask);}.cls-3{stroke:#828b90;stroke-width:3.94px;}.cls-4{stroke:#47b870;stroke-width:5.67px;}</style><filter id="luminosity-noclip" x="3.95" y="27.93" width="133.74" height="116.41" filterUnits="userSpaceOnUse" color-interpolation-filters="sRGB"><feFlood flood-color="#fff" result="bg"/><feBlend in="SourceGraphic" in2="bg"/></filter><mask id="mask" x="3.95" y="27.93" width="133.74" height="116.41" maskUnits="userSpaceOnUse"><line class="cls-1" x1="53.18" y1="134.34" x2="53.18" y2="37.93"/></mask></defs><title>Icon_guide_trave</title><g id="Layer_2" data-name="Layer 2"><g class="cls-2"><path class="cls-3" d="M53.28,109.1A23.68,23.68,0,1,1,29.6,85.42,23.68,23.68,0,0,1,53.28,109.1Z"/><path class="cls-3" d="M135.72,109.1a23.68,23.68,0,1,1-23.67-23.68A23.68,23.68,0,0,1,135.72,109.1Z"/><path class="cls-3" d="M34.67,109.1A5.07,5.07,0,1,1,29.6,104,5.07,5.07,0,0,1,34.67,109.1Z"/><path class="cls-3" d="M77.59,109.1a7.74,7.74,0,1,1-7.74-7.74A7.75,7.75,0,0,1,77.59,109.1Z"/><path class="cls-3" d="M117.11,108.84a5.07,5.07,0,1,1-5.06-5.07A5.07,5.07,0,0,1,117.11,108.84Z"/><line class="cls-3" x1="29.6" y1="104.03" x2="69.85" y2="101.36"/><line class="cls-3" x1="29.6" y1="114.17" x2="69.85" y2="116.84"/><line class="cls-3" x1="25.01" y1="106.96" x2="46.46" y2="72.74"/><polyline class="cls-3" points="110.45 104.03 92.95 57.88 82.16 57.88"/><line class="cls-3" x1="66.38" y1="102.19" x2="42.88" y2="67.43"/><line class="cls-3" x1="74.13" y1="102.65" x2="98.68" y2="75.87"/><path class="cls-3" d="M53.21,64.06a3.36,3.36,0,0,1-3.36,3.37H37.62a3.37,3.37,0,0,1-3.37-3.37h0a3.37,3.37,0,0,1,3.37-3.36H49.85a3.36,3.36,0,0,1,3.36,3.36Z"/><line class="cls-3" x1="96.3" y1="66.72" x2="81" y2="83.56"/><path class="cls-3" d="M46.46,72.74s17,28.82,34.54,10.82"/></g><line class="cls-4" x1="53.18" y1="134.34" x2="53.18" y2="37.93"/><path class="cls-4" d="M68,23.12A14.81,14.81,0,1,1,53.18,8.31,14.81,14.81,0,0,1,68,23.12Z"/></g></svg>