<svg xmlns="http://www.w3.org/2000/svg" xmlns:xlink="http://www.w3.org/1999/xlink" version="1.1" x="0px" y="0px" viewBox="0 0 66 66" style="enable-background:new 0 0 66 66;" xml:space="preserve"><g><path d="M10.1,33l12.1-13.9c0.9-1,0.8-2.5-0.2-3.4c-1-0.9-2.5-0.8-3.4,0.2L5.1,31.4c-0.8,0.9-0.8,2.3,0,3.2l13.5,15.5   c0.5,0.5,1.1,0.8,1.8,0.8c0.6,0,1.2-0.2,1.6-0.6c0.5-0.4,0.8-1,0.8-1.7c0-0.6-0.2-1.3-0.6-1.8L10.1,33z"/><path d="M47.4,15.9c-0.4-0.5-1-0.8-1.7-0.8c-0.6,0-1.3,0.2-1.8,0.6c-1,0.9-1.1,2.4-0.2,3.4L55.9,33L43.8,46.9   c-0.4,0.5-0.6,1.1-0.6,1.8c0,0.6,0.3,1.2,0.8,1.7c0.4,0.4,1,0.6,1.6,0.6c0.7,0,1.4-0.3,1.8-0.8l13.5-15.5c0.8-0.9,0.8-2.3,0-3.2   L47.4,15.9z"/><path d="M37.3,11.3c-1.3-0.3-2.6,0.6-2.9,1.9l-7.7,38.6c-0.3,1.3,0.6,2.6,1.9,2.9c0.2,0,0.3,0,0.5,0c1.2,0,2.2-0.8,2.4-2l7.7-38.6   C39.5,12.8,38.7,11.6,37.3,11.3z"/></g></svg>