<?xml version="1.0" encoding="utf-8"?>
<!-- Generator: Adobe Illustrator 16.0.0, SVG Export Plug-In . SVG Version: 6.00 Build 0)  -->
<!DOCTYPE svg PUBLIC "-//W3C//DTD SVG 1.1//EN" "http://www.w3.org/Graphics/SVG/1.1/DTD/svg11.dtd">
<svg version="1.1" id="Layer_1" xmlns="http://www.w3.org/2000/svg" xmlns:xlink="http://www.w3.org/1999/xlink" x="0px" y="0px"
	 width="286.333px" height="175.5px" viewBox="0 0 286.333 175.5" enable-background="new 0 0 286.333 175.5" xml:space="preserve">
<g>
	
		<path fill="none" stroke="#47B870" stroke-width="12.1456" stroke-linecap="round" stroke-linejoin="round" stroke-miterlimit="10" d="
		M90.907,170.055V98.979c0-27.158,22.018-49.183,49.173-49.183l0,0c27.158,0,49.176,22.021,49.176,49.183v71.075"/>
	<defs>
		<filter id="Adobe_OpacityMaskFilter" filterUnits="userSpaceOnUse" x="0.036" y="1.227" width="286.514" height="168.901">
			<feColorMatrix  type="matrix" values="1 0 0 0 0  0 1 0 0 0  0 0 1 0 0  0 0 0 1 0"/>
		</filter>
	</defs>
	<mask maskUnits="userSpaceOnUse" x="0.036" y="1.227" width="286.514" height="168.901" id="SVGID_1_">
		<g filter="url(#Adobe_OpacityMaskFilter)">
			<g id="XMLID_11_">
				<g>
					<polygon fill="#FFFFFF" points="307.804,-32.706 307.804,209.379 -17.1,200.104 -17.1,-32.706 					"/>
				</g>
				<g>
					
						<path fill="none" stroke="#000000" stroke-width="30.3639" stroke-linecap="round" stroke-linejoin="round" stroke-miterlimit="10" d="
						M90.918,169.553V98.471c0-27.145,22.002-49.168,49.167-49.168c13.58,0,25.877,5.506,34.768,14.397
						c8.893,8.912,14.396,21.188,14.396,34.771v71.082"/>
					
						<polygon fill="none" stroke="#000000" stroke-width="30.3639" stroke-linecap="round" stroke-linejoin="round" stroke-miterlimit="10" points="
						307.804,209.379 -17.1,200.104 -17.1,-32.706 307.804,-32.706 					"/>
				</g>
			</g>
		</g>
	</mask>
	<g mask="url(#SVGID_1_)">
		
			<circle fill="none" stroke="#81878A" stroke-width="8.4387" stroke-linecap="round" stroke-linejoin="round" stroke-miterlimit="10" cx="54.982" cy="115.182" r="50.726"/>
		
			<path fill="none" stroke="#81878A" stroke-width="8.4387" stroke-linecap="round" stroke-linejoin="round" stroke-miterlimit="10" d="
			M282.329,115.182c0,28.015-22.713,50.727-50.729,50.727c-28.02,0-50.729-22.712-50.729-50.727
			c0-28.016,22.713-50.729,50.729-50.729C259.616,64.455,282.329,87.168,282.329,115.182z"/>
		
			<path fill="none" stroke="#81878A" stroke-width="8.4387" stroke-linecap="round" stroke-linejoin="round" stroke-miterlimit="10" d="
			M65.841,115.182c0,5.996-4.863,10.855-10.859,10.855c-6,0-10.857-4.859-10.857-10.855c0-6,4.857-10.857,10.857-10.857
			C60.977,104.324,65.841,109.182,65.841,115.182z"/>
		
			<path fill="none" stroke="#81878A" stroke-width="8.4387" stroke-linecap="round" stroke-linejoin="round" stroke-miterlimit="10" d="
			M157.784,115.182c0,9.148-7.424,16.578-16.573,16.578c-9.159,0-16.577-7.43-16.577-16.578c0-9.157,7.418-16.577,16.577-16.577
			C150.36,98.604,157.784,106.024,157.784,115.182z"/>
		
			<circle fill="none" stroke="#81878A" stroke-width="8.4387" stroke-linecap="round" stroke-linejoin="round" stroke-miterlimit="10" cx="231.601" cy="114.621" r="10.857"/>
		
			<line fill="none" stroke="#81878A" stroke-width="8.4387" stroke-linecap="round" stroke-linejoin="round" stroke-miterlimit="10" x1="54.981" y1="104.324" x2="141.211" y2="98.604"/>
		
			<line fill="none" stroke="#81878A" stroke-width="8.4387" stroke-linecap="round" stroke-linejoin="round" stroke-miterlimit="10" x1="54.981" y1="126.039" x2="141.211" y2="131.76"/>
		
			<line fill="none" stroke="#81878A" stroke-width="8.4387" stroke-linecap="round" stroke-linejoin="round" stroke-miterlimit="10" x1="45.153" y1="110.588" x2="91.104" y2="37.274"/>
		
			<polyline fill="none" stroke="#81878A" stroke-width="8.4387" stroke-linecap="round" stroke-linejoin="round" stroke-miterlimit="10" points="
			228.174,104.324 190.688,5.446 167.565,5.446 		"/>
		
			<line fill="none" stroke="#81878A" stroke-width="8.4387" stroke-linecap="round" stroke-linejoin="round" stroke-miterlimit="10" x1="133.766" y1="100.369" x2="83.427" y2="25.91"/>
		
			<line fill="none" stroke="#81878A" stroke-width="8.4387" stroke-linecap="round" stroke-linejoin="round" stroke-miterlimit="10" x1="150.377" y1="101.369" x2="202.963" y2="43.991"/>
		
			<path fill="none" stroke="#81878A" stroke-width="8.4387" stroke-linecap="round" stroke-linejoin="round" stroke-miterlimit="10" d="
			M105.565,18.696c0,3.983-3.227,7.211-7.209,7.211H72.153c-3.982,0-7.209-3.228-7.209-7.211l0,0c0-3.978,3.227-7.208,7.209-7.208
			h26.203C102.339,11.488,105.565,14.719,105.565,18.696L105.565,18.696z"/>
		
			<line fill="none" stroke="#81878A" stroke-width="8.4387" stroke-linecap="round" stroke-linejoin="round" stroke-miterlimit="10" x1="197.874" y1="24.379" x2="165.081" y2="60.473"/>
		
			<path fill="none" stroke="#81878A" stroke-width="8.4387" stroke-linecap="round" stroke-linejoin="round" stroke-miterlimit="10" d="
			M91.104,37.274c0,0,36.357,61.762,73.977,23.198"/>
	</g>
</g>
</svg>
