<?xml version="1.0" encoding="utf-8"?>
<!-- Generator: Adobe Illustrator 16.0.0, SVG Export Plug-In . SVG Version: 6.00 Build 0)  -->
<!DOCTYPE svg PUBLIC "-//W3C//DTD SVG 1.1//EN" "http://www.w3.org/Graphics/SVG/1.1/DTD/svg11.dtd">
<svg version="1.1" id="Layer_1" xmlns="http://www.w3.org/2000/svg" xmlns:xlink="http://www.w3.org/1999/xlink" x="0px" y="0px"
	 width="566.929px" height="566.929px" viewBox="0 0 566.929 566.929" enable-background="new 0 0 566.929 566.929"
	 xml:space="preserve">
<g>
	
		<path fill="none" stroke="#47B970" stroke-width="34.9529" stroke-linecap="round" stroke-linejoin="round" stroke-miterlimit="10" d="
		M438.781,481.636c0,15.109-12.213,27.324-27.339,27.324H155.027c-15.111,0-27.366-12.215-27.366-27.324v-300.86
		c0-15.11,12.255-27.338,27.366-27.338h256.415c15.126,0,27.339,12.228,27.339,27.338V481.636z"/>
	
		<path fill="none" stroke="#47B970" stroke-width="34.9529" stroke-linecap="round" stroke-linejoin="round" stroke-miterlimit="10" d="
		M224.686,94.672V71.971c0-15.109,12.258-27.324,27.338-27.324h63.362c15.082,0,27.367,12.215,27.367,27.324v25.118"/>
	
		<line fill="none" stroke="#47B970" stroke-width="34.9529" stroke-linecap="round" stroke-linejoin="round" stroke-miterlimit="10" x1="128.139" y1="97.089" x2="439.273" y2="97.089"/>
	
		<line fill="none" stroke="#47B970" stroke-width="34.9529" stroke-linecap="round" stroke-linejoin="round" stroke-miterlimit="10" x1="229.985" y1="242.902" x2="229.985" y2="428.042"/>
	
		<line fill="none" stroke="#47B970" stroke-width="34.9529" stroke-linecap="round" stroke-linejoin="round" stroke-miterlimit="10" x1="329.328" y1="242.902" x2="329.328" y2="428.042"/>
</g>
</svg>
