<?xml version="1.0" encoding="utf-8"?>
<!-- Generator: Adobe Illustrator 16.0.0, SVG Export Plug-In . SVG Version: 6.00 Build 0)  -->
<!DOCTYPE svg PUBLIC "-//W3C//DTD SVG 1.1//EN" "http://www.w3.org/Graphics/SVG/1.1/DTD/svg11.dtd">
<svg version="1.1" id="Layer_1" xmlns="http://www.w3.org/2000/svg" xmlns:xlink="http://www.w3.org/1999/xlink" x="0px" y="0px"
	 width="283.465px" height="283.465px" viewBox="0 0 283.465 283.465" enable-background="new 0 0 283.465 283.465"
	 xml:space="preserve">
<g>
	
		<path fill="none" stroke="#82878A" stroke-width="19.5735" stroke-linecap="round" stroke-linejoin="round" stroke-miterlimit="10" d="
		M156.783,272.749c-72.23,7.878-137.196-44.338-145.078-116.583C3.864,83.893,56.042,18.939,128.292,11.092
		C200.537,3.214,265.522,55.431,273.38,127.66C281.241,199.92,229.06,264.87,156.783,272.749z"/>
</g>
<g>
	
		<path fill="none" stroke="#82878A" stroke-width="19.5735" stroke-linecap="round" stroke-linejoin="round" stroke-miterlimit="10" d="
		M183.354,130.663c0,20.659-17.553,37.364-39.244,37.364c-21.681,0-39.267-16.705-39.267-37.364
		c0-20.726,17.586-37.463,39.267-37.463C165.799,93.2,183.354,109.937,183.354,130.663z"/>
</g>
<path fill="none" stroke="#82878A" stroke-width="19.5735" stroke-linecap="round" stroke-linejoin="round" stroke-miterlimit="10" d="
	M54.741,236.892c18.823-45.663,52.07-67.113,89.369-67.113c37.336,0,68.996,18.559,87.365,63.449"/>
</svg>
