<?xml version="1.0" encoding="utf-8"?>
<!-- Generator: Adobe Illustrator 16.0.0, SVG Export Plug-In . SVG Version: 6.00 Build 0)  -->
<!DOCTYPE svg PUBLIC "-//W3C//DTD SVG 1.1//EN" "http://www.w3.org/Graphics/SVG/1.1/DTD/svg11.dtd">
<svg version="1.1" id="Layer_1" xmlns="http://www.w3.org/2000/svg" xmlns:xlink="http://www.w3.org/1999/xlink" x="0px" y="0px"
	 width="140.834px" height="147.25px" viewBox="158.251 0 140.834 147.25" enable-background="new 158.251 0 140.834 147.25"
	 xml:space="preserve">
<g>
	<g>
		<defs>
			<filter id="Adobe_OpacityMaskFilter" filterUnits="userSpaceOnUse" x="175.23" y="80.185" width="103.853" height="61.222">
				<feColorMatrix  type="matrix" values="1 0 0 0 0  0 1 0 0 0  0 0 1 0 0  0 0 0 1 0"/>
			</filter>
		</defs>
		<mask maskUnits="userSpaceOnUse" x="175.23" y="80.185" width="103.853" height="61.222" id="SVGID_1_">
			<g filter="url(#Adobe_OpacityMaskFilter)">
				<rect x="173.635" y="32.302" fill="#FFFFFF" width="108.715" height="112.986"/>
			</g>
		</mask>
		<g mask="url(#SVGID_1_)">
			
				<circle fill="none" stroke="#E5E5E5" stroke-width="3.0586" stroke-linecap="round" stroke-linejoin="round" stroke-miterlimit="10" cx="195.146" cy="121.49" r="18.387"/>
			
				<circle fill="none" stroke="#E5E5E5" stroke-width="3.0586" stroke-linecap="round" stroke-linejoin="round" stroke-miterlimit="10" cx="259.167" cy="121.49" r="18.388"/>
			
				<circle fill="none" stroke="#E5E5E5" stroke-width="3.0586" stroke-linecap="round" stroke-linejoin="round" stroke-miterlimit="10" cx="195.147" cy="121.49" r="3.936"/>
			
				<circle fill="none" stroke="#E5E5E5" stroke-width="3.0586" stroke-linecap="round" stroke-linejoin="round" stroke-miterlimit="10" cx="226.402" cy="121.49" r="6.008"/>
			
				<circle fill="none" stroke="#E5E5E5" stroke-width="3.0586" stroke-linecap="round" stroke-linejoin="round" stroke-miterlimit="10" cx="259.167" cy="121.287" r="3.936"/>
			
				<line fill="none" stroke="#E5E5E5" stroke-width="3.0586" stroke-linecap="round" stroke-linejoin="round" stroke-miterlimit="10" x1="195.146" y1="117.555" x2="226.402" y2="115.481"/>
			
				<line fill="none" stroke="#E5E5E5" stroke-width="3.0586" stroke-linecap="round" stroke-linejoin="round" stroke-miterlimit="10" x1="195.146" y1="125.426" x2="226.402" y2="127.499"/>
			
				<line fill="none" stroke="#E5E5E5" stroke-width="3.0586" stroke-linecap="round" stroke-linejoin="round" stroke-miterlimit="10" x1="191.584" y1="119.825" x2="208.24" y2="93.251"/>
			
				<polyline fill="none" stroke="#E5E5E5" stroke-width="3.0586" stroke-linecap="round" stroke-linejoin="round" stroke-miterlimit="10" points="
				257.926,117.555 244.338,81.714 235.956,81.714 			"/>
			
				<line fill="none" stroke="#E5E5E5" stroke-width="3.0586" stroke-linecap="round" stroke-linejoin="round" stroke-miterlimit="10" x1="223.704" y1="116.121" x2="205.457" y2="89.132"/>
			
				<line fill="none" stroke="#E5E5E5" stroke-width="3.0586" stroke-linecap="round" stroke-linejoin="round" stroke-miterlimit="10" x1="229.726" y1="116.483" x2="248.787" y2="95.686"/>
			
				<path fill="none" stroke="#E5E5E5" stroke-width="3.0586" stroke-linecap="round" stroke-linejoin="round" stroke-miterlimit="10" d="
				M213.482,86.517c0,1.444-1.17,2.613-2.613,2.613h-9.498c-1.443,0-2.613-1.169-2.613-2.613l0,0c0-1.441,1.17-2.613,2.613-2.613
				h9.498C212.313,83.903,213.482,85.075,213.482,86.517L213.482,86.517z"/>
			
				<line fill="none" stroke="#E5E5E5" stroke-width="3.0586" stroke-linecap="round" stroke-linejoin="round" stroke-miterlimit="10" x1="246.941" y1="88.577" x2="235.055" y2="101.659"/>
			
				<path fill="none" stroke="#E5E5E5" stroke-width="3.0586" stroke-linecap="round" stroke-linejoin="round" stroke-miterlimit="10" d="
				M208.24,93.251c0,0,13.179,22.387,26.814,8.408"/>
		</g>
		<g>
			
				<line fill="none" stroke="#46B770" stroke-width="5.828" stroke-linecap="round" stroke-linejoin="round" stroke-miterlimit="10" x1="295.914" y1="143.812" x2="161.289" y2="143.812"/>
		</g>
	</g>
	<g>
		
			<path fill="none" stroke="#47B870" stroke-width="5.6693" stroke-linecap="round" stroke-linejoin="round" stroke-miterlimit="10" d="
			M224.921,38.205h32.216c0-8.897-7.211-16.106-16.109-16.106c-3.322,0-6.41,1.006-8.975,2.729"/>
		
			<path fill="none" stroke="#47B870" stroke-width="5.6693" stroke-linecap="round" stroke-linejoin="round" stroke-miterlimit="10" d="
			M232.053,24.828c-4.038-5.303-10.42-8.729-17.6-8.729c-12.209,0-22.104,9.893-22.104,22.105h44.207"/>
	</g>
	
		<line fill="none" stroke="#46B770" stroke-width="5.828" stroke-linecap="round" stroke-linejoin="round" stroke-miterlimit="10" x1="204.887" y1="49.359" x2="201.387" y2="57.609"/>
	
		<line fill="none" stroke="#46B770" stroke-width="5.828" stroke-linecap="round" stroke-linejoin="round" stroke-miterlimit="10" x1="223.67" y1="49.391" x2="221.465" y2="57.577"/>
	
		<line fill="none" stroke="#46B770" stroke-width="5.828" stroke-linecap="round" stroke-linejoin="round" stroke-miterlimit="10" x1="243.029" y1="49.359" x2="240.611" y2="57.609"/>
</g>
</svg>
