<?xml version="1.0" encoding="utf-8"?>
<!-- Generator: Adobe Illustrator 16.0.0, SVG Export Plug-In . SVG Version: 6.00 Build 0)  -->
<!DOCTYPE svg PUBLIC "-//W3C//DTD SVG 1.1//EN" "http://www.w3.org/Graphics/SVG/1.1/DTD/svg11.dtd">
<svg version="1.1" id="Layer_1" xmlns="http://www.w3.org/2000/svg" xmlns:xlink="http://www.w3.org/1999/xlink" x="0px" y="0px"
	 width="181.334px" height="303.5px" viewBox="52.5 0 181.334 303.5" enable-background="new 52.5 0 181.334 303.5"
	 xml:space="preserve">
<g>
	<defs>
		<filter id="Adobe_OpacityMaskFilter" filterUnits="userSpaceOnUse" x="53.114" y="15.671" width="168.902" height="286.512">
			<feColorMatrix  type="matrix" values="1 0 0 0 0  0 1 0 0 0  0 0 1 0 0  0 0 0 1 0"/>
		</filter>
	</defs>
	<mask maskUnits="userSpaceOnUse" x="53.114" y="15.671" width="168.902" height="286.512" id="SVGID_1_">
		<g filter="url(#Adobe_OpacityMaskFilter)">
			<g id="XMLID_7_">
				<g>
					<path fill="#FFFFFF" d="M16.723-69.11h226.36v427.763H16.723V-69.11z M226.202,3.365h-84.644l84.644,105.875V3.365z"/>
				</g>
				<g>
					
						<polygon fill="none" stroke="#000000" stroke-width="30.3639" stroke-linecap="round" stroke-linejoin="round" stroke-miterlimit="10" points="
						226.202,109.24 226.202,3.365 141.558,3.365 					"/>
					
						<rect x="16.723" y="-69.11" fill="none" stroke="#000000" stroke-width="30.3639" stroke-linecap="round" stroke-linejoin="round" stroke-miterlimit="10" width="226.36" height="427.763"/>
				</g>
			</g>
		</g>
	</mask>
	<g mask="url(#SVGID_1_)">
		
			<circle fill="none" stroke="#E5E5E5" stroke-width="8.4382" stroke-linecap="round" stroke-linejoin="round" stroke-miterlimit="10" cx="167.068" cy="247.237" r="50.727"/>
		
			<path fill="none" stroke="#E5E5E5" stroke-width="8.4382" stroke-linecap="round" stroke-linejoin="round" stroke-miterlimit="10" d="
			M167.068,19.89c28.018,0,50.729,22.712,50.729,50.73c0,28.014-22.711,50.726-50.729,50.726c-28.016,0-50.725-22.712-50.725-50.726
			C116.344,42.602,139.053,19.89,167.068,19.89z"/>
		
			<circle fill="none" stroke="#E5E5E5" stroke-width="8.4382" stroke-linecap="round" stroke-linejoin="round" stroke-miterlimit="10" cx="167.068" cy="247.238" r="10.858"/>
		
			<path fill="none" stroke="#E5E5E5" stroke-width="8.4382" stroke-linecap="round" stroke-linejoin="round" stroke-miterlimit="10" d="
			M167.068,144.435c9.15,0,16.58,7.424,16.58,16.579c0,9.155-7.43,16.575-16.58,16.575c-9.156,0-16.576-7.42-16.576-16.575
			C150.492,151.858,157.912,144.435,167.068,144.435z"/>
		
			<path fill="none" stroke="#E5E5E5" stroke-width="8.4382" stroke-linecap="round" stroke-linejoin="round" stroke-miterlimit="10" d="
			M166.509,59.757c5.995,0,10.858,4.859,10.858,10.858c0,5.997-4.863,10.861-10.858,10.861c-6,0-10.856-4.864-10.856-10.861
			C155.652,64.616,160.509,59.757,166.509,59.757z"/>
		
			<line fill="none" stroke="#E5E5E5" stroke-width="8.4382" stroke-linecap="round" stroke-linejoin="round" stroke-miterlimit="10" x1="156.212" y1="247.239" x2="150.492" y2="161.014"/>
		
			<line fill="none" stroke="#E5E5E5" stroke-width="8.4382" stroke-linecap="round" stroke-linejoin="round" stroke-miterlimit="10" x1="177.928" y1="247.239" x2="183.648" y2="161.014"/>
		
			<line fill="none" stroke="#E5E5E5" stroke-width="8.4382" stroke-linecap="round" stroke-linejoin="round" stroke-miterlimit="10" x1="162.471" y1="257.066" x2="89.162" y2="211.114"/>
		
			<polyline fill="none" stroke="#E5E5E5" stroke-width="8.4382" stroke-linecap="round" stroke-linejoin="round" stroke-miterlimit="10" points="
			156.208,74.043 57.333,111.527 57.333,134.651 		"/>
		
			<line fill="none" stroke="#E5E5E5" stroke-width="8.4382" stroke-linecap="round" stroke-linejoin="round" stroke-miterlimit="10" x1="152.254" y1="168.452" x2="77.798" y2="218.796"/>
		
			<line fill="none" stroke="#E5E5E5" stroke-width="8.4382" stroke-linecap="round" stroke-linejoin="round" stroke-miterlimit="10" x1="153.257" y1="151.841" x2="95.878" y2="99.253"/>
		
			<path fill="none" stroke="#E5E5E5" stroke-width="8.4382" stroke-linecap="round" stroke-linejoin="round" stroke-miterlimit="10" d="
			M70.586,196.652c3.981,0,7.21,3.228,7.21,7.212v26.2c0,3.984-3.229,7.211-7.21,7.211l0,0c-3.983,0-7.211-3.227-7.211-7.211v-26.2
			C63.375,199.88,66.603,196.652,70.586,196.652L70.586,196.652z"/>
		
			<line fill="none" stroke="#E5E5E5" stroke-width="8.4382" stroke-linecap="round" stroke-linejoin="round" stroke-miterlimit="10" x1="76.27" y1="104.347" x2="112.361" y2="137.138"/>
		
			<path fill="none" stroke="#E5E5E5" stroke-width="8.4382" stroke-linecap="round" stroke-linejoin="round" stroke-miterlimit="10" d="
			M89.162,211.114c0,0,61.762-36.357,23.199-73.978"/>
	</g>
	<g>
		
			<polygon fill="none" stroke="#47B870" stroke-width="12.1456" stroke-linecap="round" stroke-linejoin="round" stroke-miterlimit="10" points="
			228.113,113.267 228.113,7.376 143.47,7.376 		"/>
	</g>
</g>
</svg>
