<?xml version="1.0" encoding="utf-8"?>
<!-- Generator: Adobe Illustrator 16.0.0, SVG Export Plug-In . SVG Version: 6.00 Build 0)  -->
<!DOCTYPE svg PUBLIC "-//W3C//DTD SVG 1.1//EN" "http://www.w3.org/Graphics/SVG/1.1/DTD/svg11.dtd">
<svg version="1.1" id="Layer_1" xmlns="http://www.w3.org/2000/svg" xmlns:xlink="http://www.w3.org/1999/xlink" x="0px" y="0px"
	 width="283.465px" height="283.465px" viewBox="0 0 283.465 283.465" enable-background="new 0 0 283.465 283.465"
	 xml:space="preserve">
<g>
	
		<path fill="none" stroke="#82878A" stroke-width="25.598" stroke-linecap="round" stroke-linejoin="round" stroke-miterlimit="10" d="
		M212.931,203.976v46.376c0,10.048-8.131,18.151-18.133,18.151H88.665c-10.019,0-18.131-8.104-18.131-18.151V33.088
		c0-10.023,8.112-18.126,18.131-18.126h106.133c10.002,0,18.133,8.103,18.133,18.126v48.479V203.976"/>
	
		<path fill="none" stroke="#82878A" stroke-width="25.598" stroke-linecap="round" stroke-linejoin="round" stroke-miterlimit="10" d="
		M145.542,232.578c0,1.058-0.852,1.92-1.906,1.92c-1.047,0-1.904-0.862-1.904-1.92c0-1.036,0.857-1.898,1.904-1.898
		C144.69,230.68,145.542,231.542,145.542,232.578z"/>
	
		<line fill="none" stroke="#82878A" stroke-width="25.598" stroke-linecap="round" stroke-linejoin="round" stroke-miterlimit="10" x1="70.534" y1="51.226" x2="212.931" y2="51.226"/>
	
		<line fill="none" stroke="#82878A" stroke-width="25.598" stroke-linecap="round" stroke-linejoin="round" stroke-miterlimit="10" x1="74.803" y1="203.976" x2="212.931" y2="203.976"/>
</g>
</svg>
