<svg id="Layer_1" data-name="Layer 1" xmlns="http://www.w3.org/2000/svg" viewBox="0 0 95.61 59.61"><defs><style>.cls-1{fill:none;stroke:#828b90;stroke-linecap:round;stroke-linejoin:round;stroke-width:6.61px;}</style></defs><title>icon_bike</title><path class="cls-1" d="M36.51,39.71a16.6,16.6,0,1,1-16.6-16.6,17,17,0,0,1,6.4,1.3"/><path class="cls-1" d="M92.31,39.71a16.6,16.6,0,1,1-16.6-16.6A16.56,16.56,0,0,1,92.31,39.71Z"/><line class="cls-1" x1="20.01" y1="39.31" x2="31.71" y2="14.21"/><path class="cls-1" d="M48.11,39.71"/><path class="cls-1" d="M55.31,50.91"/><line class="cls-1" x1="20.01" y1="39.71" x2="59.11" y2="39.31"/><path class="cls-1" d="M8.71,42.31"/><path class="cls-1" d="M16.61,51"/><path class="cls-1" d="M27.91,10"/><path class="cls-1" d="M35.51,10"/><line class="cls-1" x1="25.81" y1="3.61" x2="48.11" y2="39.31"/><path class="cls-1" d="M60.11,14.21"/><line class="cls-1" x1="60.11" y1="14.21" x2="31.71" y2="14.21"/><line class="cls-1" x1="53.21" y1="3.31" x2="75.71" y2="39.31"/><line class="cls-1" x1="22.01" y1="3.31" x2="33.21" y2="3.31"/><line class="cls-1" x1="53.61" y1="3.31" x2="67.81" y2="3.31"/></svg>