<?xml version="1.0" encoding="utf-8"?>
<!-- Generator: Adobe Illustrator 22.1.0, SVG Export Plug-In . SVG Version: 6.00 Build 0)  -->
<svg version="1.1" id="Layer_1" xmlns="http://www.w3.org/2000/svg" xmlns:xlink="http://www.w3.org/1999/xlink" x="0px" y="0px"
	 viewBox="0 0 167.8 167.8" style="enable-background:new 0 0 167.8 167.8;" xml:space="preserve">
<style type="text/css">
	.st0{fill:none;stroke:#82878A;stroke-width:7;stroke-miterlimit:10;}
	.st1{fill:none;stroke:#828B90;stroke-width:7;stroke-miterlimit:10;}
</style>
<symbol  id="_x30_3_pin_verde_borda_2" viewBox="-36.8 -43.2 73.5 86.5">
	<g id="Deleted_Symbol_2_">
		<g>
			<path class="st0" d="M0-39.8c-0.5,0-1.1,0.2-1.5,0.6l-22,22c-13,13-13,34.1,0,47.1c6.3,6.3,14.6,9.8,23.5,9.8s17.3-3.5,23.5-9.8
				c13-13,13-34.1,0-47.1l-22-22C1.1-39.7,0.5-39.8,0-39.8z"/>
		</g>
		<path class="st1" d="M10.9-4.7C4.8-10.8-5-10.8-11-4.7c-6.1,6.1-6.1,15.9,0,21.9c6.1,6.1,15.9,6.1,21.9,0
			C16.9,11.2,16.9,1.3,10.9-4.7z"/>
	</g>
</symbol>
<use xlink:href="#_x30_3_pin_verde_borda_2"  width="73.5" height="86.5" id="XMLID_210_" x="-36.8" y="-43.2" transform="matrix(1.7974 0 0 -1.7974 84.0944 85.8391)" style="overflow:visible;"/>
</svg>
