<?xml version="1.0" encoding="utf-8"?>
<!-- Generator: Adobe Illustrator 16.0.0, SVG Export Plug-In . SVG Version: 6.00 Build 0)  -->
<!DOCTYPE svg PUBLIC "-//W3C//DTD SVG 1.1//EN" "http://www.w3.org/Graphics/SVG/1.1/DTD/svg11.dtd">
<svg version="1.1" id="Layer_1" xmlns="http://www.w3.org/2000/svg" xmlns:xlink="http://www.w3.org/1999/xlink" x="0px" y="0px"
	 width="566.929px" height="566.929px" viewBox="0 0 566.929 566.929" enable-background="new 0 0 566.929 566.929"
	 xml:space="preserve">
<g>
	
		<path fill="none" stroke="#82878A" stroke-width="43.6404" stroke-linecap="round" stroke-linejoin="round" stroke-miterlimit="10" d="
		M428.314,411.731"/>
	
		<path fill="none" stroke="#82878A" stroke-width="43.6404" stroke-linecap="round" stroke-linejoin="round" stroke-miterlimit="10" d="
		M428.314,355.437v151.829c0,20.701-16.758,37.384-37.352,37.384H172.356c-20.625,0-37.342-16.683-37.342-37.384V59.736
		c0-20.674,16.716-37.325,37.342-37.325h218.607c20.594,0,37.352,16.65,37.352,37.325V355.437"/>
	
		<path fill="none" stroke="#82878A" stroke-width="43.6404" stroke-linecap="round" stroke-linejoin="round" stroke-miterlimit="10" d="
		M289.486,470.61c0,2.215-1.728,3.987-3.899,3.987c-2.129,0-3.907-1.772-3.907-3.987c0-2.107,1.778-3.899,3.907-3.899
		C287.759,466.71,289.486,468.502,289.486,470.61z"/>
	
		<line fill="none" stroke="#82878A" stroke-width="43.6404" stroke-linecap="round" stroke-linejoin="round" stroke-miterlimit="10" x1="135.014" y1="97.121" x2="428.314" y2="97.121"/>
	
		<line fill="none" stroke="#82878A" stroke-width="43.6404" stroke-linecap="round" stroke-linejoin="round" stroke-miterlimit="10" x1="143.828" y1="411.731" x2="428.314" y2="411.731"/>
	
		<rect x="229.698" y="195.241" fill="none" stroke="#82878A" stroke-width="44.1845" stroke-miterlimit="10" width="6.179" height="12.36"/>
	
		<rect x="327.455" y="195.241" fill="none" stroke="#82878A" stroke-width="44.1845" stroke-miterlimit="10" width="6.192" height="12.36"/>
	
		<rect x="229.698" y="299.057" fill="none" stroke="#82878A" stroke-width="44.1845" stroke-miterlimit="10" width="6.179" height="12.359"/>
</g>
</svg>
