<?xml version="1.0" encoding="utf-8"?>
<!-- Generator: Adobe Illustrator 16.0.0, SVG Export Plug-In . SVG Version: 6.00 Build 0)  -->
<!DOCTYPE svg PUBLIC "-//W3C//DTD SVG 1.1//EN" "http://www.w3.org/Graphics/SVG/1.1/DTD/svg11.dtd">
<svg version="1.1" id="Layer_1" xmlns="http://www.w3.org/2000/svg" xmlns:xlink="http://www.w3.org/1999/xlink" x="0px" y="0px"
	 width="103.042px" height="103.5px" viewBox="0 0 103.042 103.5" enable-background="new 0 0 103.042 103.5" xml:space="preserve">
<path fill="none" stroke="#e6e6e6" stroke-width="8.5039" stroke-linecap="round" stroke-linejoin="round" stroke-miterlimit="10" d="
	M10.365,34.767l26.208,0.021l8.281-26.529l-0.208,0.646c1.178-3.662,3.571-4.66,6.24-4.66c2.475,0,5.188,0.938,6.281,4.8
	l-0.246-0.786l8.373,26.529l0.311,0.023l27.03,0.005l-0.824-0.001c4.014-0.109,5.718,2.199,6.458,4.561
	c0.797,2.547,0.561,5.129-2.583,7.348l0.576-0.438L74.532,62.732l-0.093,0.234l9.143,28.059l-0.252-0.784
	c1.337,3.786-0.337,6.116-2.357,7.546c-2.179,1.541-4.709,2.108-7.786-0.201l0.544,0.408L51.261,80.713L28.626,98.109l0.544-0.408
	c-3.077,2.31-5.606,1.742-7.786,0.201c-2.02-1.43-3.694-3.76-2.357-7.546l-0.252,0.784l9.033-28.448l0,0L6.759,46.281l0.556,0.393
	c-3.144-2.219-3.38-4.801-2.583-7.348c0.74-2.361,2.444-4.67,6.458-4.561"/>
</svg>
