<?xml version="1.0" encoding="utf-8"?>
<!-- Generator: Adobe Illustrator 16.0.0, SVG Export Plug-In . SVG Version: 6.00 Build 0)  -->
<!DOCTYPE svg PUBLIC "-//W3C//DTD SVG 1.1//EN" "http://www.w3.org/Graphics/SVG/1.1/DTD/svg11.dtd">
<svg version="1.1" id="Layer_1" xmlns="http://www.w3.org/2000/svg" xmlns:xlink="http://www.w3.org/1999/xlink" x="0px" y="0px"
	 width="300px" height="274.5px" viewBox="0 18.25 300 274.5" enable-background="new 0 18.25 300 274.5" xml:space="preserve">
<g>
	<defs>
		<filter id="Adobe_OpacityMaskFilter" filterUnits="userSpaceOnUse" x="7.09" y="122.277" width="286.512" height="168.902">
			<feColorMatrix  type="matrix" values="1 0 0 0 0  0 1 0 0 0  0 0 1 0 0  0 0 0 1 0"/>
		</filter>
	</defs>
	<mask maskUnits="userSpaceOnUse" x="7.09" y="122.277" width="286.512" height="168.902" id="SVGID_1_">
		<g filter="url(#Adobe_OpacityMaskFilter)">
			<g id="XMLID_9_">
				<g>
					<path fill="#E5E5E5" d="M371.534,56.142v267.792H-8.84L-25.25,56.142H371.534z M135.876,293.214V76.837H89.451v216.377H135.876
						z"/>
					<rect x="89.451" y="76.837" width="46.425" height="216.377"/>
				</g>
			</g>
		</g>
	</mask>
	<g mask="url(#SVGID_1_)">
		
			<circle fill="none" stroke="#E5E5E5" stroke-width="8.4382" stroke-linecap="round" stroke-linejoin="round" stroke-miterlimit="10" cx="62.035" cy="236.232" r="50.726"/>
		
			<circle fill="none" stroke="#E5E5E5" stroke-width="8.4382" stroke-linecap="round" stroke-linejoin="round" stroke-miterlimit="10" cx="238.655" cy="236.232" r="50.728"/>
		
			<path fill="none" stroke="#E5E5E5" stroke-width="8.4382" stroke-linecap="round" stroke-linejoin="round" stroke-miterlimit="10" d="
			M72.893,236.232c0,5.996-4.862,10.857-10.858,10.857c-6,0-10.857-4.861-10.857-10.857c0-6,4.857-10.858,10.857-10.858
			C68.031,225.374,72.893,230.232,72.893,236.232z"/>
		
			<path fill="none" stroke="#E5E5E5" stroke-width="8.4382" stroke-linecap="round" stroke-linejoin="round" stroke-miterlimit="10" d="
			M164.838,236.232c0,9.149-7.423,16.578-16.574,16.578c-9.159,0-16.578-7.429-16.578-16.578c0-9.158,7.419-16.578,16.578-16.578
			C157.416,219.654,164.838,227.074,164.838,236.232z"/>
		
			<circle fill="none" stroke="#E5E5E5" stroke-width="8.4382" stroke-linecap="round" stroke-linejoin="round" stroke-miterlimit="10" cx="238.656" cy="235.672" r="10.857"/>
		
			<line fill="none" stroke="#E5E5E5" stroke-width="8.4382" stroke-linecap="round" stroke-linejoin="round" stroke-miterlimit="10" x1="62.035" y1="225.374" x2="148.264" y2="219.654"/>
		
			<line fill="none" stroke="#E5E5E5" stroke-width="8.4382" stroke-linecap="round" stroke-linejoin="round" stroke-miterlimit="10" x1="62.035" y1="247.09" x2="148.264" y2="252.811"/>
		
			<line fill="none" stroke="#E5E5E5" stroke-width="8.4382" stroke-linecap="round" stroke-linejoin="round" stroke-miterlimit="10" x1="52.207" y1="231.639" x2="98.158" y2="158.325"/>
		
			<polyline fill="none" stroke="#E5E5E5" stroke-width="8.4382" stroke-linecap="round" stroke-linejoin="round" stroke-miterlimit="10" points="
			235.229,225.374 197.743,126.496 174.621,126.496 		"/>
		
			<line fill="none" stroke="#E5E5E5" stroke-width="8.4382" stroke-linecap="round" stroke-linejoin="round" stroke-miterlimit="10" x1="140.821" y1="221.419" x2="90.478" y2="146.961"/>
		
			<line fill="none" stroke="#E5E5E5" stroke-width="8.4382" stroke-linecap="round" stroke-linejoin="round" stroke-miterlimit="10" x1="157.432" y1="222.419" x2="210.02" y2="165.041"/>
		
			<path fill="none" stroke="#E5E5E5" stroke-width="8.4382" stroke-linecap="round" stroke-linejoin="round" stroke-miterlimit="10" d="
			M112.619,139.747c0,3.983-3.226,7.21-7.209,7.21H79.208c-3.983,0-7.209-3.227-7.209-7.21l0,0c0-3.978,3.226-7.209,7.209-7.209
			h26.202C109.393,132.538,112.619,135.769,112.619,139.747L112.619,139.747z"/>
		
			<line fill="none" stroke="#E5E5E5" stroke-width="8.4382" stroke-linecap="round" stroke-linejoin="round" stroke-miterlimit="10" x1="204.927" y1="145.429" x2="172.135" y2="181.523"/>
		
			<path fill="none" stroke="#E5E5E5" stroke-width="8.4382" stroke-linecap="round" stroke-linejoin="round" stroke-miterlimit="10" d="
			M98.158,158.325c0,0,36.357,61.761,73.978,23.198"/>
	</g>
	<g>
		
			<line fill="none" stroke="#47B870" stroke-width="26.1942" stroke-linecap="round" stroke-linejoin="round" stroke-miterlimit="10" x1="112.542" y1="278.995" x2="112.542" y2="32.065"/>
	</g>
</g>
</svg>
