
<svg xmlns="http://www.w3.org/2000/svg" viewBox="0 0 100 100" x="0px" y="0px">
	<path fill="#fff" d="M57.1 29.9c0-2.6.7-5 1.9-7.1-2.8-1.2-5.9-1.8-9-1.8-6.2 0-12 2.4-16.4 6.8-6.3 6.4-8.4 15.6-5.5 24.1C32.9 65.8 44.3 75 49 78.2l1.1.8.9-.7C53.6 76.5 66.5 67 71.8 52l.1-.2c.9-2.6 1.3-5.3 1.3-7.9-.6.1-1.3.1-1.9.1-7.9.1-14.2-6.3-14.2-14.1zM55.4 51c-1.4 1.4-3.3 2.2-5.3 2.2s-3.9-.8-5.3-2.2c-2.9-2.9-2.9-7.7 0-10.7 1.4-1.4 3.3-2.2 5.3-2.2s3.9.8 5.3 2.2c2.9 2.9 2.9 7.7 0 10.7z"/>
	<path fill="#fff" d="M71.3 19.7c-5.6 0-10.2 4.6-10.2 10.2s4.6 10.2 10.2 10.2 10.2-4.6 10.2-10.2c-.1-5.6-4.6-10.2-10.2-10.2zm4.2 12h-2.3V34c0 1.1-.9 2-2 2s-2-.9-2-2v-2.3H67c-1.1 0-2-.9-2-2s.9-2 2-2h2.3v-2.3c0-1.1.9-2 2-2s2 .9 2 2v2.3h2.3c1.1 0 2 .9 2 2s-1 2-2.1 2z"/>
</svg>