<?xml version="1.0" encoding="utf-8"?>
<!-- Generator: Adobe Illustrator 16.0.0, SVG Export Plug-In . SVG Version: 6.00 Build 0)  -->
<!DOCTYPE svg PUBLIC "-//W3C//DTD SVG 1.1//EN" "http://www.w3.org/Graphics/SVG/1.1/DTD/svg11.dtd">
<svg version="1.1" id="Layer_1" xmlns="http://www.w3.org/2000/svg" xmlns:xlink="http://www.w3.org/1999/xlink" x="0px" y="0px"
	 width="182.063px" height="171.807px" viewBox="0 0 182.063 171.807" enable-background="new 0 0 182.063 171.807"
	 xml:space="preserve">
<defs>
	<filter id="Adobe_OpacityMaskFilter" filterUnits="userSpaceOnUse" x="0" y="0" width="140.332" height="169.417">
		<feColorMatrix  type="matrix" values="1 0 0 0 0  0 1 0 0 0  0 0 1 0 0  0 0 0 1 0"/>
	</filter>
</defs>
<mask maskUnits="userSpaceOnUse" x="0" y="0" width="140.332" height="169.417" id="SVGID_1_">
	<g filter="url(#Adobe_OpacityMaskFilter)">
		<rect x="-154.474" y="-83.559" fill="#FFFFFF" width="388.493" height="326.236"/>
		<path d="M191.907,130.565c0,27.789-22.517,50.283-50.284,50.283c-27.77,0-50.278-22.494-50.278-50.283
			c0-27.758,22.51-50.285,50.278-50.285S191.907,102.807,191.907,130.565z"/>
	</g>
</mask>
<g mask="url(#SVGID_1_)">
	<g id="XMLID_1_">
		<g>
			<path fill="#FFFFFF" d="M119.768,20.558c27.42,27.39,27.42,71.83,0,99.23l-49.59,49.63l-49.62-49.63
				c-27.41-27.4-27.41-71.84,0-99.23C47.938-6.852,92.378-6.852,119.768,20.558z M89.318,89.828c10.74-10.72,10.74-28.1,0-38.84
				c-10.71-10.7-28.11-10.7-38.81,0c-10.74,10.74-10.74,28.12,0,38.84C61.208,100.557,78.598,100.557,89.318,89.828z"/>
		</g>
	</g>
</g>
<g>
	
		<line fill="none" stroke="#FFFFFF" stroke-width="20.1003" stroke-linecap="round" stroke-linejoin="round" stroke-miterlimit="10" x1="143.513" y1="104.606" x2="143.513" y2="160.479"/>
	
		<line fill="none" stroke="#FFFFFF" stroke-width="20.1003" stroke-linecap="round" stroke-linejoin="round" stroke-miterlimit="10" x1="115.576" y1="132.534" x2="171.44" y2="132.534"/>
</g>
</svg>
