<svg xmlns="http://www.w3.org/2000/svg" xmlns:xlink="http://www.w3.org/1999/xlink" viewBox="0 0 141.73 141.73"><defs><style>.cls-1,.cls-2,.cls-4{fill:none;stroke-linecap:round;stroke-linejoin:round;}.cls-1{stroke:#000;stroke-width:10px;filter:url(#luminosity-noclip);}.cls-2{stroke:#828b90;stroke-width:3.94px;}.cls-3{mask:url(#mask);}.cls-4{stroke:#47b870;stroke-width:6px;}</style><filter id="luminosity-noclip" x="48.76" y="2.01" width="29.46" height="68.69" filterUnits="userSpaceOnUse" color-interpolation-filters="sRGB"><feFlood flood-color="#fff" result="bg"/><feBlend in="SourceGraphic" in2="bg"/></filter><mask id="mask" x="48.76" y="2.01" width="29.46" height="68.69" maskUnits="userSpaceOnUse"><path class="cls-1" d="M73,65.69a19.28,19.28,0,0,1-6.3-37.49"/></mask></defs><title>Icon_guide_suspenso</title><g id="Layer_2" data-name="Layer 2"><path class="cls-2" d="M73,94.25a19.27,19.27,0,1,1-19.27,19.27A19.27,19.27,0,0,1,73,94.25Z"/><path class="cls-2" d="M73,27.15A19.27,19.27,0,1,1,53.76,46.42,19.27,19.27,0,0,1,73,27.15Z"/><path class="cls-2" d="M73,109.4a4.13,4.13,0,1,1-4.13,4.12A4.12,4.12,0,0,1,73,109.4Z"/><path class="cls-2" d="M73,74.46a6.3,6.3,0,1,1-6.3,6.3A6.31,6.31,0,0,1,73,74.46Z"/><path class="cls-2" d="M72.82,42.29a4.13,4.13,0,1,1-4.13,4.13A4.13,4.13,0,0,1,72.82,42.29Z"/><line class="cls-2" x1="68.9" y1="113.52" x2="66.73" y2="80.76"/><line class="cls-2" x1="77.15" y1="113.52" x2="79.33" y2="80.76"/><line class="cls-2" x1="71.28" y1="117.26" x2="43.43" y2="99.8"/><polyline class="cls-2" points="68.9 47.72 31.34 61.96 31.34 70.75"/><line class="cls-2" x1="67.4" y1="83.59" x2="39.11" y2="102.72"/><line class="cls-2" x1="67.78" y1="77.28" x2="45.98" y2="57.3"/><path class="cls-2" d="M36.37,94.3A2.74,2.74,0,0,1,39.11,97v10a2.74,2.74,0,0,1-2.74,2.74h0A2.74,2.74,0,0,1,33.63,107V97a2.74,2.74,0,0,1,2.74-2.74Z"/><line class="cls-2" x1="38.53" y1="59.24" x2="52.24" y2="71.69"/><path class="cls-2" d="M43.43,99.8S66.89,86,52.24,71.69"/><g class="cls-3"><path class="cls-4" d="M59.36,23.4v3.05s0,8.06,8,8.06c8.4,0,7.88-8.42,7.88-8.42L75.18,5"/></g></g></svg>