<?xml version="1.0" encoding="utf-8"?>
<!-- Generator: Adobe Illustrator 22.1.0, SVG Export Plug-In . SVG Version: 6.00 Build 0)  -->
<svg version="1.1" id="Layer_1" xmlns="http://www.w3.org/2000/svg" xmlns:xlink="http://www.w3.org/1999/xlink" x="0px" y="0px"
	 viewBox="0 0 283.5 283.5" style="enable-background:new 0 0 283.5 283.5;" xml:space="preserve">
<style type="text/css">
	.st0{fill:none;stroke:#fff;stroke-width:22;stroke-linecap:round;stroke-linejoin:round;stroke-miterlimit:10;}
</style>
<g>
	<path class="st0" d="M155.6,269c-70.3,7.7-133.5-43.1-141.2-113.4C6.8,85.3,57.6,22.1,127.9,14.4C198.2,6.8,261.4,57.6,269,127.9
		C276.7,198.2,225.9,261.4,155.6,269z"/>
</g>
<g>
	<path class="st0" d="M181.4,130.8c0,20.1-17.1,36.4-38.2,36.4c-21.1,0-38.2-16.3-38.2-36.4c0-20.2,17.1-36.4,38.2-36.4
		C164.4,94.3,181.4,110.6,181.4,130.8z"/>
</g>
<path class="st0" d="M56.3,234.1c18.3-44.4,50.7-65.3,86.9-65.3c36.3,0,67.1,18.1,85,61.7"/>
</svg>
