<svg xmlns="http://www.w3.org/2000/svg" xmlns:xlink="http://www.w3.org/1999/xlink" viewBox="0 0 141.73 141.73"><defs><style>.cls-1{fill:#231f20;stroke:#000;stroke-miterlimit:10;stroke-width:20px;filter:url(#luminosity-noclip);}.cls-2{mask:url(#mask);}.cls-3{fill:none;stroke:#828b90;stroke-linecap:round;stroke-linejoin:round;stroke-width:3.94px;}.cls-4{fill:#2bb673;}</style><filter id="luminosity-noclip" x="3.56" y="53.83" width="133.74" height="96.71" filterUnits="userSpaceOnUse" color-interpolation-filters="sRGB"><feFlood flood-color="#fff" result="bg"/><feBlend in="SourceGraphic" in2="bg"/></filter><mask id="mask" x="3.56" y="53.83" width="133.74" height="96.71" maskUnits="userSpaceOnUse"><path class="cls-1" d="M62.73,118.15v-2.47c0-16.39,18.74-18.42,18.74-32.56,0-6.86-5.78-12.33-14-12.33A21.72,21.72,0,0,0,56.62,73.9c-1.39.75-2.79.75-3.64-.64L52.12,72c-1.07-1.39-1-2.68.53-3.64a28,28,0,0,1,15.11-4.5c12.21,0,21.43,7.82,21.43,19,0,17.47-18.75,19.29-19.18,33.21l-.11,2.58a2.14,2.14,0,0,1-2.46,2.25h-2A2.43,2.43,0,0,1,62.73,118.15Zm-.54,16.6a2.35,2.35,0,0,1,2.57-2.68H68a2.36,2.36,0,0,1,2.58,2.68v3.11A2.36,2.36,0,0,1,68,140.54H64.76a2.35,2.35,0,0,1-2.57-2.68Z"/></mask></defs><title>Icon_guide_other</title><g id="Layer_2" data-name="Layer 2"><g class="cls-2"><path class="cls-3" d="M52.89,108.36A23.68,23.68,0,1,1,29.21,84.68,23.68,23.68,0,0,1,52.89,108.36Z"/><path class="cls-3" d="M135.33,108.36a23.68,23.68,0,1,1-23.68-23.68A23.68,23.68,0,0,1,135.33,108.36Z"/><path class="cls-3" d="M34.28,108.36a5.07,5.07,0,1,1-5.07-5.07A5.07,5.07,0,0,1,34.28,108.36Z"/><path class="cls-3" d="M77.2,108.36a7.74,7.74,0,1,1-7.74-7.74A7.75,7.75,0,0,1,77.2,108.36Z"/><path class="cls-3" d="M116.72,108.1a5.07,5.07,0,1,1-5.07-5.07A5.07,5.07,0,0,1,116.72,108.1Z"/><line class="cls-3" x1="29.21" y1="103.29" x2="69.46" y2="100.62"/><line class="cls-3" x1="29.21" y1="113.43" x2="69.46" y2="116.1"/><line class="cls-3" x1="24.62" y1="106.22" x2="46.07" y2="72"/><polyline class="cls-3" points="110.05 103.29 92.56 57.14 81.76 57.14"/><line class="cls-3" x1="65.99" y1="101.45" x2="42.49" y2="66.69"/><line class="cls-3" x1="73.74" y1="101.91" x2="98.29" y2="75.13"/><path class="cls-3" d="M52.82,63.32a3.36,3.36,0,0,1-3.36,3.37H37.23a3.37,3.37,0,0,1-3.37-3.37h0A3.37,3.37,0,0,1,37.23,60H49.46a3.36,3.36,0,0,1,3.36,3.36Z"/><line class="cls-3" x1="95.91" y1="65.98" x2="80.6" y2="82.82"/><path class="cls-3" d="M46.07,72S63,100.82,80.6,82.82"/></g><path class="cls-4" d="M62.73,118.15v-2.47c0-16.39,18.74-18.42,18.74-32.56,0-6.86-5.78-12.33-14-12.33A21.72,21.72,0,0,0,56.62,73.9c-1.39.75-2.79.75-3.64-.64L52.12,72c-1.07-1.39-1-2.68.53-3.64a28,28,0,0,1,15.11-4.5c12.21,0,21.43,7.82,21.43,19,0,17.47-18.75,19.29-19.18,33.21l-.11,2.58a2.14,2.14,0,0,1-2.46,2.25h-2A2.43,2.43,0,0,1,62.73,118.15Zm-.54,16.6a2.35,2.35,0,0,1,2.57-2.68H68a2.36,2.36,0,0,1,2.58,2.68v3.11A2.36,2.36,0,0,1,68,140.54H64.76a2.35,2.35,0,0,1-2.57-2.68Z"/></g></svg>