<?xml version="1.0" encoding="utf-8"?>
<!-- Generator: Adobe Illustrator 16.0.0, SVG Export Plug-In . SVG Version: 6.00 Build 0)  -->
<!DOCTYPE svg PUBLIC "-//W3C//DTD SVG 1.1//EN" "http://www.w3.org/Graphics/SVG/1.1/DTD/svg11.dtd">
<svg version="1.1" id="Layer_1" xmlns="http://www.w3.org/2000/svg" xmlns:xlink="http://www.w3.org/1999/xlink" x="0px" y="0px"
	 width="300px" height="274.5px" viewBox="0 0 300 274.5" enable-background="new 0 0 300 274.5" xml:space="preserve">
<g>
	<defs>
		<filter id="Adobe_OpacityMaskFilter" filterUnits="userSpaceOnUse" x="7.09" y="105.818" width="286.513" height="168.902">
			<feColorMatrix  type="matrix" values="1 0 0 0 0  0 1 0 0 0  0 0 1 0 0  0 0 0 1 0"/>
		</filter>
	</defs>
	<mask maskUnits="userSpaceOnUse" x="7.09" y="105.818" width="286.513" height="168.902" id="SVGID_1_">
		<g filter="url(#Adobe_OpacityMaskFilter)">
			<g id="XMLID_9_">
				<g>
					<path fill="#E5E5E5" d="M371.534,39.685V307.47H-8.84L-25.25,39.685H371.534z M135.876,276.75V60.38H89.451v216.37H135.876z"/>
					<rect x="89.451" y="60.38" width="46.425" height="216.37"/>
				</g>
			</g>
		</g>
	</mask>
	<g mask="url(#SVGID_1_)">
		
			<circle fill="none" stroke="#81878A" stroke-width="8.4387" stroke-linecap="round" stroke-linejoin="round" stroke-miterlimit="10" cx="62.035" cy="219.768" r="50.726"/>
		
			<circle fill="none" stroke="#81878A" stroke-width="8.4387" stroke-linecap="round" stroke-linejoin="round" stroke-miterlimit="10" cx="238.655" cy="219.768" r="50.728"/>
		
			<path fill="none" stroke="#81878A" stroke-width="8.4387" stroke-linecap="round" stroke-linejoin="round" stroke-miterlimit="10" d="
			M72.893,219.769c0,5.996-4.862,10.855-10.858,10.855c-6,0-10.857-4.859-10.857-10.855c0-6,4.857-10.858,10.857-10.858
			C68.031,208.91,72.893,213.769,72.893,219.769z"/>
		
			<path fill="none" stroke="#81878A" stroke-width="8.4387" stroke-linecap="round" stroke-linejoin="round" stroke-miterlimit="10" d="
			M164.838,219.769c0,9.147-7.423,16.578-16.574,16.578c-9.159,0-16.578-7.431-16.578-16.578c0-9.158,7.419-16.578,16.578-16.578
			C157.416,203.19,164.838,210.61,164.838,219.769z"/>
		
			<circle fill="none" stroke="#81878A" stroke-width="8.4387" stroke-linecap="round" stroke-linejoin="round" stroke-miterlimit="10" cx="238.656" cy="219.208" r="10.857"/>
		
			<line fill="none" stroke="#81878A" stroke-width="8.4387" stroke-linecap="round" stroke-linejoin="round" stroke-miterlimit="10" x1="62.035" y1="208.91" x2="148.264" y2="203.19"/>
		
			<line fill="none" stroke="#81878A" stroke-width="8.4387" stroke-linecap="round" stroke-linejoin="round" stroke-miterlimit="10" x1="62.035" y1="230.626" x2="148.264" y2="236.347"/>
		
			<line fill="none" stroke="#81878A" stroke-width="8.4387" stroke-linecap="round" stroke-linejoin="round" stroke-miterlimit="10" x1="52.207" y1="215.175" x2="98.158" y2="141.861"/>
		
			<polyline fill="none" stroke="#81878A" stroke-width="8.4387" stroke-linecap="round" stroke-linejoin="round" stroke-miterlimit="10" points="
			235.229,208.91 197.743,110.039 174.621,110.039 		"/>
		
			<line fill="none" stroke="#81878A" stroke-width="8.4387" stroke-linecap="round" stroke-linejoin="round" stroke-miterlimit="10" x1="140.821" y1="204.955" x2="90.478" y2="130.5"/>
		
			<line fill="none" stroke="#81878A" stroke-width="8.4387" stroke-linecap="round" stroke-linejoin="round" stroke-miterlimit="10" x1="157.432" y1="205.955" x2="210.02" y2="148.577"/>
		
			<path fill="none" stroke="#81878A" stroke-width="8.4387" stroke-linecap="round" stroke-linejoin="round" stroke-miterlimit="10" d="
			M112.619,123.29c0,3.981-3.226,7.206-7.209,7.206H79.208c-3.983,0-7.209-3.225-7.209-7.206l0,0c0-3.978,3.226-7.208,7.209-7.208
			h26.202C109.393,116.081,112.619,119.312,112.619,123.29L112.619,123.29z"/>
		
			<line fill="none" stroke="#81878A" stroke-width="8.4387" stroke-linecap="round" stroke-linejoin="round" stroke-miterlimit="10" x1="204.927" y1="128.969" x2="172.135" y2="165.06"/>
		
			<path fill="none" stroke="#81878A" stroke-width="8.4387" stroke-linecap="round" stroke-linejoin="round" stroke-miterlimit="10" d="
			M98.158,141.861c0,0,36.357,61.761,73.978,23.198"/>
	</g>
	<g>
		
			<line fill="none" stroke="#47B870" stroke-width="26.1942" stroke-linecap="round" stroke-linejoin="round" stroke-miterlimit="10" x1="112.542" y1="262.531" x2="112.542" y2="15.608"/>
	</g>
</g>
</svg>
