<?xml version="1.0" encoding="utf-8"?>
<!-- Generator: Adobe Illustrator 22.1.0, SVG Export Plug-In . SVG Version: 6.00 Build 0)  -->
<svg version="1.1" id="Layer_1" xmlns:sketch="http://www.bohemiancoding.com/sketch/ns"
	 xmlns="http://www.w3.org/2000/svg" xmlns:xlink="http://www.w3.org/1999/xlink" x="0px" y="0px" viewBox="0 0 95 95"
	 style="enable-background:new 0 0 95 95;" xml:space="preserve">
<style type="text/css">
	.st0{fill:#FFFFFF;}
</style>
<title>Eye</title>
<desc>Created with Sketch.</desc>
<g sketch:type="MSPage">
	<g sketch:type="MSArtboardGroup">
		<path sketch:type="MSShapeGroup" d="M64.8,33.3c10,5.7,16.4,14.2,16.4,14.2S66.7,66.7,47.5,66.7S13.8,47.5,13.8,47.5
			S21,38,32,32.3c-2.9,4.3-4.3,10.1-2.7,16.1c2,7.6,8.5,13.3,16.2,14.3c12,1.5,22.1-7.7,22.1-19.3C67.6,39.7,66.6,36.3,64.8,33.3z
			 M47.5,73.5c22.1,0,37.2-18.6,41.3-24.3c0.7-1,0.7-2.3,0-3.3c-4.2-5.7-19.3-24.3-41.3-24.3S10.3,40.1,6.2,45.8
			c-0.7,1-0.7,2.3,0,3.3C10.3,54.9,25.4,73.5,47.5,73.5z M44.6,30.7c-5.1-0.1-10,3.8-10.3,9.4c-0.1,1.3,0.9,2.4,2.2,2.5
			s2.4-0.9,2.5-2.2c0.1-2.9,2.8-5,5.5-4.9c1.3,0,2.4-1,2.4-2.3S45.9,30.7,44.6,30.7z"/>
	</g>
</g>
<path class="st0" d="M44.6,30.7c-5.1-0.1-10,3.8-10.3,9.4c-0.1,1.3,0.9,2.4,2.2,2.5s2.4-0.9,2.5-2.2c0.1-2.9,2.8-5,5.5-4.9
	c1.3,0,2.4-1,2.4-2.3S45.9,30.7,44.6,30.7z"/>
</svg>
