<svg width="255" height="29" viewBox="0 0 255 29" fill="none" xmlns="http://www.w3.org/2000/svg">
<path d="M7.38 18.532C7.38 19.54 7.716 20.332 8.388 20.908C9.06 21.46 9.768 21.736 10.512 21.736C11.28 21.736 11.988 21.52 12.636 21.088C13.308 20.632 13.848 20.404 14.256 20.404C14.976 20.404 15.852 21.04 16.884 22.312C17.436 23.008 17.712 23.632 17.712 24.184C17.712 25.096 17.052 25.948 15.732 26.74C14.364 27.7 12.684 28.18 10.692 28.18C8.46 28.18 6.312 27.376 4.248 25.768C3.264 25 2.46 23.98 1.836 22.708C1.212 21.412 0.9 19.996 0.9 18.46C0.9 16.9 1.212 15.496 1.836 14.248C2.46 12.976 3.264 11.956 4.248 11.188C6.24 9.604 8.364 8.812 10.62 8.812C11.532 8.812 12.42 8.944 13.284 9.208C14.148 9.448 14.784 9.688 15.192 9.928L15.768 10.288C16.2 10.576 16.536 10.804 16.776 10.972C17.4 11.452 17.712 12.004 17.712 12.628C17.712 13.228 17.46 13.912 16.956 14.68C16.092 16 15.264 16.66 14.472 16.66C14.016 16.66 13.368 16.396 12.528 15.868C12.096 15.46 11.472 15.256 10.656 15.256C9.864 15.256 9.12 15.544 8.424 16.12C7.728 16.696 7.38 17.5 7.38 18.532ZM20.0377 12.196C20.0377 11.644 20.0497 11.236 20.0737 10.972C20.1217 10.684 20.2297 10.36 20.3977 10C20.7337 9.376 21.6697 9.064 23.2057 9.064C24.3577 9.064 25.1737 9.268 25.6537 9.676C26.0617 10.012 26.2777 10.528 26.3017 11.224C26.3257 11.464 26.3377 11.812 26.3377 12.268V24.868C26.3377 25.42 26.3137 25.84 26.2657 26.128C26.2417 26.392 26.1337 26.704 25.9417 27.064C25.6297 27.688 24.7057 28 23.1697 28C21.6577 28 20.7337 27.676 20.3977 27.028C20.2297 26.668 20.1217 26.356 20.0737 26.092C20.0497 25.828 20.0377 25.408 20.0377 24.832V12.196ZM25.9417 5.536C25.7737 5.872 25.4617 6.112 25.0057 6.256C24.5497 6.4 23.9377 6.472 23.1697 6.472C22.4257 6.472 21.8257 6.4 21.3697 6.256C20.9137 6.112 20.5897 5.86 20.3977 5.5C20.2297 5.14 20.1217 4.828 20.0737 4.564C20.0497 4.276 20.0377 3.856 20.0377 3.304C20.0377 2.752 20.0497 2.344 20.0737 2.08C20.1217 1.792 20.2297 1.48 20.3977 1.144C20.7337 0.495998 21.6697 0.171998 23.2057 0.171998C24.7177 0.171998 25.6297 0.495998 25.9417 1.144C26.1337 1.504 26.2417 1.828 26.2657 2.116C26.3137 2.38 26.3377 2.788 26.3377 3.34C26.3377 3.892 26.3137 4.312 26.2657 4.6C26.2417 4.864 26.1337 5.176 25.9417 5.536ZM41.9214 1.144C42.1134 0.783998 42.4374 0.531999 42.8934 0.387999C43.3494 0.243998 43.9494 0.171998 44.6934 0.171998C45.4614 0.171998 46.0734 0.243998 46.5294 0.387999C46.9854 0.531999 47.2974 0.783998 47.4654 1.144C47.6574 1.504 47.7654 1.828 47.7894 2.116C47.8374 2.38 47.8614 2.788 47.8614 3.34V24.832C47.8614 25.384 47.8374 25.804 47.7894 26.092C47.7654 26.356 47.6574 26.656 47.4654 26.992C47.1054 27.64 46.0854 27.964 44.4054 27.964C42.7494 27.964 41.8254 27.376 41.6334 26.2C40.6254 27.352 39.2214 27.928 37.4214 27.928C35.2614 27.928 33.2934 26.992 31.5174 25.12C29.7414 23.224 28.8534 21.028 28.8534 18.532C28.8534 16.012 29.7414 13.804 31.5174 11.908C33.3174 10.012 35.2854 9.064 37.4214 9.064C39.1974 9.064 40.5774 9.664 41.5614 10.864V3.304C41.5614 2.752 41.5734 2.344 41.5974 2.08C41.6454 1.792 41.7534 1.48 41.9214 1.144ZM36.0894 20.692C36.7134 21.34 37.4694 21.664 38.3574 21.664C39.2454 21.664 39.9774 21.34 40.5534 20.692C41.1534 20.044 41.4534 19.336 41.4534 18.568C41.4534 17.776 41.1654 17.044 40.5894 16.372C40.0374 15.7 39.2814 15.364 38.3214 15.364C37.3614 15.364 36.5934 15.7 36.0174 16.372C35.4414 17.02 35.1534 17.74 35.1534 18.532C35.1534 19.324 35.4654 20.044 36.0894 20.692ZM63.0411 11.044C63.1851 9.7 64.1331 9.028 65.8851 9.028C66.8211 9.028 67.5171 9.1 67.9731 9.244C68.4291 9.388 68.7411 9.64 68.9091 10C69.1011 10.36 69.2091 10.684 69.2331 10.972C69.2811 11.236 69.3051 11.644 69.3051 12.196V24.796C69.3051 25.348 69.2811 25.768 69.2331 26.056C69.2091 26.32 69.1131 26.632 68.9451 26.992C68.6091 27.616 67.7811 27.928 66.4611 27.928C65.1651 27.928 64.2891 27.772 63.8331 27.46C63.4011 27.124 63.1491 26.644 63.0771 26.02C62.1891 27.292 60.7011 27.928 58.6131 27.928C56.5491 27.928 54.6291 26.98 52.8531 25.084C51.0771 23.188 50.1891 20.992 50.1891 18.496C50.1891 15.976 51.0771 13.78 52.8531 11.908C54.6531 10.012 56.6211 9.064 58.7571 9.064C59.5731 9.064 60.3171 9.208 60.9891 9.496C61.6611 9.784 62.1291 10.06 62.3931 10.324C62.6571 10.564 62.8731 10.804 63.0411 11.044ZM56.4891 18.532C56.4891 19.324 56.8011 20.044 57.4251 20.692C58.0491 21.316 58.8051 21.628 59.6931 21.628C60.5811 21.628 61.3131 21.304 61.8891 20.656C62.4891 20.008 62.7891 19.3 62.7891 18.532C62.7891 17.74 62.5011 17.008 61.9251 16.336C61.3731 15.664 60.6171 15.328 59.6571 15.328C58.7211 15.328 57.9531 15.664 57.3531 16.336C56.7771 17.008 56.4891 17.74 56.4891 18.532ZM84.8824 1.144C85.0744 0.783998 85.3984 0.531999 85.8544 0.387999C86.3104 0.243998 86.9104 0.171998 87.6544 0.171998C88.4224 0.171998 89.0344 0.243998 89.4904 0.387999C89.9464 0.531999 90.2584 0.783998 90.4264 1.144C90.6184 1.504 90.7264 1.828 90.7504 2.116C90.7984 2.38 90.8224 2.788 90.8224 3.34V24.832C90.8224 25.384 90.7984 25.804 90.7504 26.092C90.7264 26.356 90.6184 26.656 90.4264 26.992C90.0664 27.64 89.0464 27.964 87.3664 27.964C85.7104 27.964 84.7864 27.376 84.5944 26.2C83.5864 27.352 82.1824 27.928 80.3824 27.928C78.2224 27.928 76.2544 26.992 74.4784 25.12C72.7024 23.224 71.8144 21.028 71.8144 18.532C71.8144 16.012 72.7024 13.804 74.4784 11.908C76.2784 10.012 78.2464 9.064 80.3824 9.064C82.1584 9.064 83.5384 9.664 84.5224 10.864V3.304C84.5224 2.752 84.5344 2.344 84.5584 2.08C84.6064 1.792 84.7144 1.48 84.8824 1.144ZM79.0504 20.692C79.6744 21.34 80.4304 21.664 81.3184 21.664C82.2064 21.664 82.9384 21.34 83.5144 20.692C84.1144 20.044 84.4144 19.336 84.4144 18.568C84.4144 17.776 84.1264 17.044 83.5504 16.372C82.9984 15.7 82.2424 15.364 81.2824 15.364C80.3224 15.364 79.5544 15.7 78.9784 16.372C78.4024 17.02 78.1144 17.74 78.1144 18.532C78.1144 19.324 78.4264 20.044 79.0504 20.692ZM111.978 16.264C111.978 17.728 111.606 18.82 110.862 19.54C110.142 20.236 109.338 20.584 108.45 20.584H99.918C99.918 21.256 100.314 21.82 101.106 22.276C101.898 22.732 102.69 22.96 103.482 22.96C104.874 22.96 105.966 22.816 106.758 22.528L107.154 22.384C107.73 22.12 108.21 21.988 108.594 21.988C109.362 21.988 110.022 22.528 110.574 23.608C110.886 24.256 111.042 24.808 111.042 25.264C111.042 27.4 108.486 28.468 103.374 28.468C101.598 28.468 100.014 28.168 98.622 27.568C97.254 26.944 96.186 26.128 95.418 25.12C93.906 23.176 93.15 21.004 93.15 18.604C93.15 15.58 94.122 13.168 96.066 11.368C98.034 9.544 100.482 8.632 103.41 8.632C106.746 8.632 109.194 9.808 110.754 12.16C111.57 13.408 111.978 14.776 111.978 16.264ZM104.382 17.308C105.294 17.308 105.75 16.924 105.75 16.156C105.75 15.604 105.534 15.16 105.102 14.824C104.694 14.488 104.094 14.32 103.302 14.32C102.534 14.32 101.766 14.644 100.998 15.292C100.23 15.916 99.846 16.588 99.846 17.308H104.382ZM129.372 18.532C129.372 19.54 129.708 20.332 130.38 20.908C131.052 21.46 131.76 21.736 132.504 21.736C133.272 21.736 133.98 21.52 134.628 21.088C135.3 20.632 135.84 20.404 136.248 20.404C136.968 20.404 137.844 21.04 138.876 22.312C139.428 23.008 139.704 23.632 139.704 24.184C139.704 25.096 139.044 25.948 137.724 26.74C136.356 27.7 134.676 28.18 132.684 28.18C130.452 28.18 128.304 27.376 126.24 25.768C125.256 25 124.452 23.98 123.828 22.708C123.204 21.412 122.892 19.996 122.892 18.46C122.892 16.9 123.204 15.496 123.828 14.248C124.452 12.976 125.256 11.956 126.24 11.188C128.232 9.604 130.356 8.812 132.612 8.812C133.524 8.812 134.412 8.944 135.276 9.208C136.14 9.448 136.776 9.688 137.184 9.928L137.76 10.288C138.192 10.576 138.528 10.804 138.768 10.972C139.392 11.452 139.704 12.004 139.704 12.628C139.704 13.228 139.452 13.912 138.948 14.68C138.084 16 137.256 16.66 136.464 16.66C136.008 16.66 135.36 16.396 134.52 15.868C134.088 15.46 133.464 15.256 132.648 15.256C131.856 15.256 131.112 15.544 130.416 16.12C129.72 16.696 129.372 17.5 129.372 18.532ZM142.03 12.196C142.03 11.644 142.042 11.236 142.066 10.972C142.114 10.684 142.222 10.36 142.39 10C142.726 9.376 143.662 9.064 145.198 9.064C146.35 9.064 147.166 9.268 147.646 9.676C148.054 10.012 148.27 10.528 148.294 11.224C148.318 11.464 148.33 11.812 148.33 12.268V24.868C148.33 25.42 148.306 25.84 148.258 26.128C148.234 26.392 148.126 26.704 147.934 27.064C147.622 27.688 146.698 28 145.162 28C143.65 28 142.726 27.676 142.39 27.028C142.222 26.668 142.114 26.356 142.066 26.092C142.042 25.828 142.03 25.408 142.03 24.832V12.196ZM147.934 5.536C147.766 5.872 147.454 6.112 146.998 6.256C146.542 6.4 145.93 6.472 145.162 6.472C144.418 6.472 143.818 6.4 143.362 6.256C142.906 6.112 142.582 5.86 142.39 5.5C142.222 5.14 142.114 4.828 142.066 4.564C142.042 4.276 142.03 3.856 142.03 3.304C142.03 2.752 142.042 2.344 142.066 2.08C142.114 1.792 142.222 1.48 142.39 1.144C142.726 0.495998 143.662 0.171998 145.198 0.171998C146.71 0.171998 147.622 0.495998 147.934 1.144C148.126 1.504 148.234 1.828 148.258 2.116C148.306 2.38 148.33 2.788 148.33 3.34C148.33 3.892 148.306 4.312 148.258 4.6C148.234 4.864 148.126 5.176 147.934 5.536ZM157.146 18.532C157.146 19.54 157.482 20.332 158.154 20.908C158.826 21.46 159.534 21.736 160.278 21.736C161.046 21.736 161.754 21.52 162.402 21.088C163.074 20.632 163.614 20.404 164.022 20.404C164.742 20.404 165.618 21.04 166.65 22.312C167.202 23.008 167.478 23.632 167.478 24.184C167.478 25.096 166.818 25.948 165.498 26.74C164.13 27.7 162.45 28.18 160.458 28.18C158.226 28.18 156.078 27.376 154.014 25.768C153.03 25 152.226 23.98 151.602 22.708C150.978 21.412 150.666 19.996 150.666 18.46C150.666 16.9 150.978 15.496 151.602 14.248C152.226 12.976 153.03 11.956 154.014 11.188C156.006 9.604 158.13 8.812 160.386 8.812C161.298 8.812 162.186 8.944 163.05 9.208C163.914 9.448 164.55 9.688 164.958 9.928L165.534 10.288C165.966 10.576 166.302 10.804 166.542 10.972C167.166 11.452 167.478 12.004 167.478 12.628C167.478 13.228 167.226 13.912 166.722 14.68C165.858 16 165.03 16.66 164.238 16.66C163.782 16.66 163.134 16.396 162.294 15.868C161.862 15.46 161.238 15.256 160.422 15.256C159.63 15.256 158.886 15.544 158.19 16.12C157.494 16.696 157.146 17.5 157.146 18.532ZM169.803 3.268C169.803 2.716 169.815 2.308 169.839 2.044C169.887 1.756 169.995 1.432 170.163 1.072C170.499 0.423999 171.435 0.0999987 172.971 0.0999987C174.435 0.0999987 175.347 0.423999 175.707 1.072C175.899 1.432 176.007 1.756 176.031 2.044C176.079 2.332 176.103 2.752 176.103 3.304V19.972C176.103 20.836 176.175 21.388 176.319 21.628C176.463 21.844 176.775 21.952 177.255 21.952C177.759 21.952 178.095 21.976 178.263 22.024C178.431 22.048 178.635 22.144 178.875 22.312C179.355 22.624 179.595 23.476 179.595 24.868C179.595 26.38 179.355 27.304 178.875 27.64C178.251 28.072 176.763 28.144 174.411 27.856C172.563 27.616 171.363 27.004 170.811 26.02C170.139 24.844 169.803 22.972 169.803 20.404V3.268ZM193.893 11.044C194.037 9.7 194.985 9.028 196.737 9.028C197.673 9.028 198.369 9.1 198.825 9.244C199.281 9.388 199.593 9.64 199.761 10C199.953 10.36 200.061 10.684 200.085 10.972C200.133 11.236 200.157 11.644 200.157 12.196V24.796C200.157 25.348 200.133 25.768 200.085 26.056C200.061 26.32 199.965 26.632 199.797 26.992C199.461 27.616 198.633 27.928 197.313 27.928C196.017 27.928 195.141 27.772 194.685 27.46C194.253 27.124 194.001 26.644 193.929 26.02C193.041 27.292 191.553 27.928 189.465 27.928C187.401 27.928 185.481 26.98 183.705 25.084C181.929 23.188 181.041 20.992 181.041 18.496C181.041 15.976 181.929 13.78 183.705 11.908C185.505 10.012 187.473 9.064 189.609 9.064C190.425 9.064 191.169 9.208 191.841 9.496C192.513 9.784 192.981 10.06 193.245 10.324C193.509 10.564 193.725 10.804 193.893 11.044ZM189.681 7.264L188.601 7.516C187.881 7.516 187.293 6.808 186.837 5.392C186.645 4.816 186.549 4.324 186.549 3.916C186.549 3.508 186.621 3.196 186.765 2.98C187.005 2.668 187.449 2.416 188.097 2.224L194.037 0.387999C194.661 0.219999 195.021 0.135998 195.117 0.135998C195.837 0.135998 196.413 0.843998 196.845 2.26C197.037 2.836 197.133 3.328 197.133 3.736C197.133 4.12 197.061 4.42 196.917 4.636C196.677 4.948 196.233 5.2 195.585 5.392L189.681 7.264ZM187.341 18.532C187.341 19.324 187.653 20.044 188.277 20.692C188.901 21.316 189.657 21.628 190.545 21.628C191.433 21.628 192.165 21.304 192.741 20.656C193.341 20.008 193.641 19.3 193.641 18.532C193.641 17.74 193.353 17.008 192.777 16.336C192.225 15.664 191.469 15.328 190.509 15.328C189.573 15.328 188.805 15.664 188.205 16.336C187.629 17.008 187.341 17.74 187.341 18.532ZM221.615 9.46C222.863 10.204 223.487 10.996 223.487 11.836C223.487 12.316 223.247 12.976 222.767 13.816L215.315 26.596C215.075 27.004 214.691 27.376 214.163 27.712C213.635 28.024 213.107 28.18 212.579 28.18C212.075 28.18 211.583 28.06 211.103 27.82C210.647 27.556 210.323 27.292 210.131 27.028L209.807 26.632L202.319 13.816C201.839 13.024 201.599 12.376 201.599 11.872C201.599 11.008 202.223 10.204 203.471 9.46C204.383 8.932 205.103 8.668 205.631 8.668C206.159 8.668 206.567 8.836 206.855 9.172C207.167 9.484 207.491 9.964 207.827 10.612L212.543 19.684L217.259 10.612C217.523 10.156 217.715 9.832 217.835 9.64C217.979 9.424 218.195 9.22 218.483 9.028C218.771 8.812 219.155 8.704 219.635 8.704C220.115 8.704 220.775 8.956 221.615 9.46ZM242.654 16.264C242.654 17.728 242.282 18.82 241.538 19.54C240.818 20.236 240.014 20.584 239.126 20.584H230.594C230.594 21.256 230.99 21.82 231.782 22.276C232.574 22.732 233.366 22.96 234.158 22.96C235.55 22.96 236.642 22.816 237.434 22.528L237.83 22.384C238.406 22.12 238.886 21.988 239.27 21.988C240.038 21.988 240.698 22.528 241.25 23.608C241.562 24.256 241.718 24.808 241.718 25.264C241.718 27.4 239.162 28.468 234.05 28.468C232.274 28.468 230.69 28.168 229.298 27.568C227.93 26.944 226.862 26.128 226.094 25.12C224.582 23.176 223.826 21.004 223.826 18.604C223.826 15.58 224.798 13.168 226.742 11.368C228.71 9.544 231.158 8.632 234.086 8.632C237.422 8.632 239.87 9.808 241.43 12.16C242.246 13.408 242.654 14.776 242.654 16.264ZM235.058 17.308C235.97 17.308 236.426 16.924 236.426 16.156C236.426 15.604 236.21 15.16 235.778 14.824C235.37 14.488 234.77 14.32 233.978 14.32C233.21 14.32 232.442 14.644 231.674 15.292C230.906 15.916 230.522 16.588 230.522 17.308H235.058ZM245.003 3.268C245.003 2.716 245.015 2.308 245.039 2.044C245.087 1.756 245.195 1.432 245.363 1.072C245.699 0.423999 246.635 0.0999987 248.171 0.0999987C249.635 0.0999987 250.547 0.423999 250.907 1.072C251.099 1.432 251.207 1.756 251.231 2.044C251.279 2.332 251.303 2.752 251.303 3.304V19.972C251.303 20.836 251.375 21.388 251.519 21.628C251.663 21.844 251.975 21.952 252.455 21.952C252.959 21.952 253.295 21.976 253.463 22.024C253.631 22.048 253.835 22.144 254.075 22.312C254.555 22.624 254.795 23.476 254.795 24.868C254.795 26.38 254.555 27.304 254.075 27.64C253.451 28.072 251.963 28.144 249.611 27.856C247.763 27.616 246.563 27.004 246.011 26.02C245.339 24.844 245.003 22.972 245.003 20.404V3.268Z" fill="white"/>
</svg>
