<?xml version="1.0" encoding="utf-8"?>
<!-- Generator: Adobe Illustrator 16.0.0, SVG Export Plug-In . SVG Version: 6.00 Build 0)  -->
<!DOCTYPE svg PUBLIC "-//W3C//DTD SVG 1.1//EN" "http://www.w3.org/Graphics/SVG/1.1/DTD/svg11.dtd">
<svg version="1.1" id="Layer_1" xmlns="http://www.w3.org/2000/svg" xmlns:xlink="http://www.w3.org/1999/xlink" x="0px" y="0px"
	 width="202.009px" height="30.01px" viewBox="0 0 202.009 30.01" enable-background="new 0 0 202.009 30.01" xml:space="preserve">
<g>
	<path fill="#39B66A" d="M4.915,10.016l0.252,0.126c0.56-0.699,1.26-1.239,2.1-1.617c0.84-0.378,1.792-0.566,2.856-0.566
		c1.54,0,2.87,0.245,3.99,0.734c1.12,0.49,2.044,1.177,2.772,2.059c0.728,0.882,1.274,1.918,1.638,3.108
		c0.364,1.19,0.546,2.499,0.546,3.928v2.436c0,1.316-0.189,2.556-0.567,3.718s-0.959,2.185-1.743,3.066
		c-0.784,0.882-1.758,1.582-2.919,2.1c-1.162,0.519-2.527,0.777-4.095,0.777c-1.625,0-3.045-0.21-4.264-0.63
		s-2.233-1.008-3.045-1.765c-0.813-0.756-1.421-1.645-1.827-2.667C0.203,23.801,0,22.688,0,21.483V2.791
		c0-0.504,0.231-0.959,0.693-1.365C1.155,1.021,1.764,0.816,2.52,0.816c0.728,0,1.309,0.204,1.743,0.609
		c0.434,0.406,0.651,0.861,0.651,1.365V10.016z M9.325,12.536c-1.232,0-2.262,0.343-3.087,1.029
		c-0.827,0.687-1.268,1.771-1.323,3.255v4.831c0,1.26,0.462,2.184,1.386,2.772c0.924,0.588,2.072,0.882,3.444,0.882
		c1.316,0,2.373-0.448,3.171-1.345c0.798-0.896,1.197-2.085,1.197-3.57v-2.52c0-1.736-0.441-3.06-1.323-3.97
		C11.908,12.991,10.753,12.536,9.325,12.536z"/>
	<path fill="#39B66A" d="M22.739,2.396c0-0.5,0.231-0.951,0.693-1.354c0.462-0.402,1.071-0.604,1.828-0.604
		c0.728,0,1.309,0.202,1.743,0.604c0.434,0.402,0.651,0.854,0.651,1.354v0.999c0,0.5-0.217,0.952-0.651,1.354
		c-0.435,0.402-1.016,0.604-1.743,0.604c-0.756,0-1.365-0.201-1.828-0.604c-0.462-0.402-0.693-0.854-0.693-1.354V2.396z
		 M22.739,9.932c0-0.504,0.231-0.959,0.693-1.365c0.462-0.405,1.071-0.608,1.828-0.608c0.728,0,1.309,0.203,1.743,0.608
		c0.434,0.406,0.651,0.861,0.651,1.365v17.895c0,0.504-0.217,0.959-0.651,1.364c-0.435,0.406-1.016,0.609-1.743,0.609
		c-0.756,0-1.365-0.203-1.828-0.609c-0.462-0.405-0.693-0.86-0.693-1.364V9.932z"/>
	<path fill="#39B66A" d="M34.08,2.791c0-0.504,0.231-0.959,0.693-1.365c0.462-0.405,1.071-0.609,1.827-0.609
		c0.728,0,1.309,0.204,1.743,0.609c0.434,0.406,0.651,0.861,0.651,1.365v13.147h1.932l6.091-7.393
		c0.392-0.364,0.924-0.553,1.596-0.567c0.672-0.014,1.274,0.231,1.807,0.735c0.476,0.532,0.665,1.12,0.567,1.764
		c-0.099,0.645-0.343,1.135-0.735,1.471l-5.418,5.965l6.679,8.358c0.336,0.393,0.448,0.882,0.336,1.471
		c-0.112,0.588-0.49,1.106-1.134,1.554c-0.561,0.392-1.142,0.546-1.743,0.462c-0.603-0.084-1.058-0.322-1.365-0.714l-6.763-8.821
		h-1.848v7.562c0,0.504-0.217,0.959-0.651,1.364c-0.434,0.406-1.015,0.609-1.743,0.609c-0.756,0-1.365-0.203-1.827-0.609
		c-0.462-0.405-0.693-0.86-0.693-1.364V2.791z"/>
	<path fill="#39B66A" d="M71.976,16.484c0,1.316-0.252,2.241-0.756,2.772c-0.504,0.532-1.344,0.798-2.521,0.798h-9.955v1.093
		c0,1.344,0.413,2.422,1.239,3.234c0.826,0.813,1.995,1.218,3.507,1.218c0.756,0,1.449-0.049,2.079-0.147
		c0.63-0.098,1.127-0.23,1.491-0.398c0.392-0.196,0.77-0.393,1.134-0.588c0.364-0.196,0.7-0.295,1.008-0.295
		c0.56,0,0.994,0.168,1.302,0.505c0.308,0.336,0.476,0.771,0.504,1.302c0,0.448-0.196,0.896-0.588,1.344
		c-0.393,0.448-0.924,0.854-1.596,1.219c-0.672,0.364-1.463,0.665-2.373,0.903c-0.91,0.237-1.884,0.356-2.919,0.356
		c-1.428,0-2.73-0.225-3.906-0.672c-1.176-0.447-2.191-1.05-3.045-1.807c-0.854-0.756-1.52-1.645-1.995-2.667
		c-0.477-1.021-0.714-2.106-0.714-3.255v-4.453c0-1.231,0.231-2.394,0.693-3.486c0.462-1.092,1.099-2.044,1.911-2.856
		c0.812-0.812,1.778-1.455,2.898-1.932c1.12-0.476,2.352-0.714,3.696-0.714c1.596,0,2.954,0.259,4.074,0.776
		c1.12,0.519,2.037,1.19,2.751,2.017c0.714,0.826,1.239,1.743,1.575,2.751C71.808,14.511,71.976,15.505,71.976,16.484z
		 M63.029,12.032c-1.26,0-2.262,0.398-3.003,1.197c-0.742,0.798-1.169,1.855-1.281,3.171h8.569v-0.63
		c0-1.148-0.399-2.059-1.197-2.73C65.318,12.368,64.289,12.032,63.029,12.032z"/>
	<path fill="#39B66A" d="M92.832,7.916c1.148,0,2.164,0.23,3.045,0.692c0.882,0.462,1.603,1.016,2.164,1.659l0.294-0.042V2.539
		c0-0.504,0.216-0.959,0.651-1.365c0.434-0.405,1.001-0.609,1.701-0.609c0.784,0,1.4,0.204,1.848,0.609
		c0.448,0.406,0.672,0.861,0.672,1.365v18.104c0,1.317-0.196,2.535-0.588,3.654c-0.392,1.121-0.973,2.087-1.743,2.898
		c-0.771,0.813-1.736,1.449-2.898,1.911c-1.163,0.463-2.514,0.693-4.054,0.693c-1.652,0-3.087-0.252-4.305-0.756
		c-1.218-0.504-2.234-1.19-3.045-2.059c-0.813-0.867-1.422-1.883-1.827-3.045c-0.406-1.162-0.609-2.401-0.609-3.718v-2.73
		c0-1.315,0.168-2.555,0.504-3.717c0.336-1.162,0.854-2.177,1.554-3.046c0.699-0.867,1.596-1.554,2.688-2.058
		S91.292,7.916,92.832,7.916z M93.924,25.222c1.232,0,2.275-0.35,3.129-1.051c0.854-0.699,1.281-1.819,1.281-3.36v-4.032
		c-0.057-1.483-0.511-2.568-1.365-3.255c-0.854-0.687-1.869-1.029-3.045-1.029c-1.457,0-2.625,0.435-3.507,1.302
		c-0.882,0.869-1.323,2.045-1.323,3.528v3.066c0,1.485,0.441,2.661,1.323,3.528C91.299,24.788,92.467,25.222,93.924,25.222z"/>
	<path fill="#39B66A" d="M125.644,16.484c0,1.316-0.252,2.241-0.756,2.772c-0.504,0.532-1.344,0.798-2.521,0.798h-9.955v1.093
		c0,1.344,0.413,2.422,1.239,3.234c0.826,0.813,1.995,1.218,3.507,1.218c0.756,0,1.449-0.049,2.079-0.147
		c0.63-0.098,1.127-0.23,1.491-0.398c0.392-0.196,0.77-0.393,1.134-0.588c0.364-0.196,0.7-0.295,1.008-0.295
		c0.56,0,0.994,0.168,1.302,0.505c0.308,0.336,0.476,0.771,0.504,1.302c0,0.448-0.196,0.896-0.588,1.344
		c-0.393,0.448-0.924,0.854-1.596,1.219c-0.672,0.364-1.463,0.665-2.373,0.903c-0.91,0.237-1.884,0.356-2.919,0.356
		c-1.428,0-2.73-0.225-3.906-0.672c-1.176-0.447-2.191-1.05-3.045-1.807c-0.854-0.756-1.52-1.645-1.995-2.667
		c-0.477-1.021-0.714-2.106-0.714-3.255v-4.453c0-1.231,0.231-2.394,0.693-3.486c0.462-1.092,1.099-2.044,1.911-2.856
		c0.812-0.812,1.778-1.455,2.898-1.932c1.12-0.476,2.352-0.714,3.696-0.714c1.596,0,2.954,0.259,4.074,0.776
		c1.12,0.519,2.037,1.19,2.751,2.017c0.714,0.826,1.239,1.743,1.575,2.751C125.476,14.511,125.644,15.505,125.644,16.484z
		 M116.697,12.032c-1.26,0-2.262,0.398-3.003,1.197c-0.742,0.798-1.169,1.855-1.281,3.171h8.569v-0.63
		c0-1.148-0.399-2.059-1.197-2.73C118.986,12.368,117.958,12.032,116.697,12.032z"/>
	<path fill="#39B66A" d="M143.603,10.016l0.252,0.126c0.56-0.699,1.26-1.239,2.1-1.617c0.84-0.378,1.792-0.566,2.856-0.566
		c1.54,0,2.87,0.245,3.99,0.734c1.12,0.49,2.044,1.177,2.772,2.059c0.728,0.882,1.274,1.918,1.638,3.108
		c0.364,1.19,0.546,2.499,0.546,3.928v2.436c0,1.316-0.189,2.556-0.567,3.718s-0.959,2.185-1.743,3.066
		c-0.784,0.882-1.758,1.582-2.919,2.1c-1.162,0.519-2.527,0.777-4.095,0.777c-1.625,0-3.045-0.21-4.264-0.63
		s-2.233-1.008-3.045-1.765c-0.813-0.756-1.421-1.645-1.827-2.667c-0.406-1.021-0.609-2.135-0.609-3.339V2.791
		c0-0.504,0.231-0.959,0.693-1.365c0.462-0.405,1.071-0.609,1.827-0.609c0.728,0,1.309,0.204,1.743,0.609
		c0.434,0.406,0.651,0.861,0.651,1.365V10.016z M148.013,12.536c-1.232,0-2.262,0.343-3.087,1.029
		c-0.827,0.687-1.268,1.771-1.323,3.255v4.831c0,1.26,0.462,2.184,1.386,2.772c0.924,0.588,2.072,0.882,3.444,0.882
		c1.316,0,2.373-0.448,3.171-1.345c0.798-0.896,1.197-2.085,1.197-3.57v-2.52c0-1.736-0.441-3.06-1.323-3.97
		C150.596,12.991,149.441,12.536,148.013,12.536z"/>
	<path fill="#39B66A" d="M161.377,17.576c0-1.315,0.189-2.555,0.567-3.717c0.378-1.162,0.952-2.185,1.722-3.066
		c0.77-0.882,1.757-1.575,2.961-2.079c1.204-0.504,2.632-0.756,4.284-0.756c1.624,0,3.038,0.252,4.243,0.756
		c1.204,0.504,2.198,1.197,2.982,2.079c0.784,0.882,1.365,1.904,1.743,3.066c0.378,1.162,0.567,2.401,0.567,3.717v2.898
		c0,1.261-0.189,2.451-0.567,3.57c-0.378,1.121-0.959,2.101-1.743,2.94c-0.784,0.841-1.778,1.506-2.982,1.995
		c-1.205,0.49-2.619,0.735-4.243,0.735c-1.652,0-3.081-0.245-4.284-0.735c-1.205-0.489-2.192-1.154-2.961-1.995
		c-0.771-0.84-1.344-1.819-1.722-2.94c-0.378-1.119-0.567-2.31-0.567-3.57V17.576z M166.333,20.517c0,1.541,0.406,2.73,1.218,3.57
		c0.812,0.841,1.932,1.261,3.36,1.261s2.548-0.42,3.36-1.261c0.812-0.84,1.218-2.029,1.218-3.57v-3.024
		c0-1.68-0.406-2.954-1.218-3.822c-0.813-0.867-1.932-1.302-3.36-1.302s-2.548,0.435-3.36,1.302
		c-0.813,0.868-1.218,2.143-1.218,3.822V20.517z"/>
	<path fill="#39B66A" d="M199.49,30.01c-0.7,0-1.267-0.203-1.701-0.608c-0.435-0.406-0.651-0.861-0.651-1.365v-0.673l-0.378-0.126
		c-0.252,0.364-0.525,0.7-0.819,1.009s-0.651,0.581-1.071,0.818c-0.42,0.238-0.917,0.421-1.491,0.547
		c-0.575,0.126-1.281,0.188-2.122,0.188c-1.344,0-2.52-0.245-3.528-0.735c-1.008-0.489-1.834-1.127-2.478-1.911
		c-0.645-0.783-1.128-1.68-1.449-2.688c-0.322-1.009-0.483-2.044-0.483-3.108v-3.696c0-1.177,0.21-2.338,0.63-3.487
		c0.42-1.147,1.036-2.184,1.848-3.107c0.812-0.925,1.834-1.674,3.066-2.248c1.232-0.573,2.674-0.86,4.326-0.86
		c1.54,0,2.87,0.21,3.991,0.63c1.12,0.42,2.037,1.001,2.751,1.743c0.714,0.742,1.239,1.617,1.575,2.625
		c0.336,1.008,0.504,2.115,0.504,3.318v11.762c0,0.504-0.225,0.959-0.672,1.365C200.89,29.807,200.274,30.01,199.49,30.01z
		 M197.138,16.358c0-1.399-0.343-2.387-1.029-2.961c-0.687-0.574-1.659-0.861-2.919-0.861c-0.729,0-1.386,0.133-1.974,0.399
		c-0.588,0.266-1.092,0.63-1.512,1.092c-0.42,0.462-0.75,0.987-0.987,1.575c-0.238,0.588-0.357,1.218-0.357,1.89v4.033
		c0,1.008,0.378,1.876,1.134,2.604c0.756,0.729,1.694,1.093,2.814,1.093c0.616,0,1.211-0.105,1.785-0.315
		c0.574-0.21,1.085-0.518,1.533-0.924c0.448-0.405,0.812-0.917,1.092-1.533c0.279-0.615,0.42-1.33,0.42-2.143V16.358z"/>
</g>
</svg>
