<?xml version="1.0" encoding="utf-8"?>
<!-- Generator: Adobe Illustrator 22.1.0, SVG Export Plug-In . SVG Version: 6.00 Build 0)  -->
<svg version="1.1" id="Layer_1" xmlns="http://www.w3.org/2000/svg" xmlns:xlink="http://www.w3.org/1999/xlink" x="0px" y="0px"
	 viewBox="0 0 359.7 79.4" style="enable-background:new 0 0 359.7 79.4;" xml:space="preserve">
<style type="text/css">
	.st0{enable-background:new    ;}
	.st1{fill:#FFF;}
</style>
<title>Artboard 1</title>
<g class="st0">
	<path class="st1" d="M20.8,24.5c4.3,0,8.2,1.9,11.8,5.7c3.6,3.8,5.4,8.2,5.4,13.2s-1.8,9.4-5.3,13.2c-3.6,3.8-7.4,5.7-11.4,5.7
		c-4.1,0-7-1.2-8.7-3.5c-0.4,2.4-2.4,3.5-6.2,3.5c-3,0-4.9-0.6-5.5-1.9c-0.3-0.7-0.5-1.4-0.6-1.9C0,57.9,0,57.1,0,56V13
		c0-1.1,0-1.9,0.1-2.5C0.2,10,0.4,9.4,0.7,8.7c0.7-1.3,2.5-1.9,5.6-1.9c3,0,4.8,0.6,5.5,1.9c0.4,0.7,0.6,1.4,0.7,1.9
		c0.1,0.6,0.1,1.4,0.1,2.5v15C14.5,25.7,17.3,24.5,20.8,24.5z M14.5,47.8c1.2,1.3,2.7,1.9,4.4,1.9c1.8,0,3.3-0.6,4.5-1.9
		c1.2-1.3,1.9-2.7,1.9-4.3s-0.6-3-1.7-4.4c-1.2-1.3-2.7-2-4.6-2c-1.9,0-3.4,0.7-4.6,2c-1.1,1.3-1.7,2.8-1.7,4.4
		C12.7,45.1,13.3,46.5,14.5,47.8z"/>
	<path class="st1" d="M41.3,30.8c0-1.1,0-1.9,0.1-2.5c0.1-0.6,0.3-1.2,0.6-1.9c0.7-1.2,2.5-1.9,5.6-1.9c2.3,0,3.9,0.4,4.9,1.2
		c0.8,0.7,1.2,1.7,1.3,3.1c0,0.5,0.1,1.2,0.1,2.1v25.2c0,1.1,0,1.9-0.1,2.5c-0.1,0.6-0.3,1.2-0.7,1.9c-0.6,1.2-2.5,1.9-5.5,1.9
		c-3,0-4.9-0.6-5.5-1.9c-0.3-0.7-0.5-1.3-0.6-1.9c-0.1-0.5-0.1-1.4-0.1-2.5V30.8z"/>
</g>
<g class="st0">
	<path class="st1" d="M79.7,43.4l9.6,7.9c1.2,1,2,1.8,2.3,2.3c0.3,0.5,0.5,1,0.5,1.5c0,1.2-0.7,2.7-2.2,4.7c-1.6,2-3.1,3-4.3,3
		c-1.1,0-2.5-0.7-4.4-2.1l-0.7-0.5c-1.1-0.9-2.8-2.5-5.1-4.8c-2.3-2.3-4.1-3.9-5.3-4.9v5.5c0,1.1,0,1.9-0.1,2.5
		c-0.1,0.6-0.3,1.2-0.7,1.9c-0.6,1.2-2.5,1.9-5.5,1.9c-3,0-4.9-0.6-5.5-1.9c-0.3-0.7-0.5-1.4-0.6-1.9c-0.1-0.6-0.1-1.4-0.1-2.5V12.9
		c0-1.1,0-1.9,0.1-2.5c0.1-0.6,0.3-1.2,0.6-1.9c0.7-1.3,2.5-1.9,5.6-1.9c2.3,0,3.9,0.4,4.9,1.2c0.8,0.7,1.2,1.7,1.3,3.2
		c0,0.4,0.1,1.1,0.1,2v22.8c0.9-0.7,2.2-1.9,3.9-3.7c1.8-1.7,3.1-3,3.9-3.7l0.9-0.6c1.7-1.3,3.1-1.9,4.3-1.9c1.2,0,2.6,1,4.1,2.9
		c1.6,1.9,2.3,3.5,2.3,4.6c0,1.1-0.9,2.4-2.7,3.9L79.7,43.4z"/>
</g>
<g class="st0">
	<path class="st1" d="M128.6,38.9c0,3-0.7,5.1-2.2,6.6c-1.5,1.4-3.1,2.1-4.9,2.1h-17.1c0,1.3,0.8,2.5,2.4,3.4
		c1.6,0.9,3.2,1.4,4.8,1.4c2.8,0,5-0.3,6.6-0.9l0.8-0.3c1.2-0.5,2.1-0.8,2.9-0.8c1.5,0,2.9,1.1,4,3.2c0.6,1.3,0.9,2.4,0.9,3.3
		c0,4.3-5.1,6.4-15.3,6.4c-3.6,0-6.7-0.6-9.5-1.8c-2.8-1.2-4.9-2.8-6.4-4.9c-3-3.9-4.5-8.2-4.5-13c0-6,2-10.9,5.9-14.5
		c3.9-3.6,8.8-5.4,14.7-5.4c6.7,0,11.6,2.4,14.7,7.1C127.8,33.2,128.6,35.9,128.6,38.9z M113.4,41c1.8,0,2.7-0.8,2.7-2.3
		c0-1.1-0.4-2-1.3-2.7c-0.8-0.7-2-1-3.6-1c-1.6,0-3.1,0.6-4.6,1.9c-1.5,1.3-2.3,2.6-2.3,4.1H113.4z"/>
</g>
<g class="st0">
</g>
<g class="st0">
	<path class="st1" d="M170.5,8.6c0.4-0.7,1-1.2,1.9-1.5c0.9-0.3,2.1-0.4,3.6-0.4c1.5,0,2.7,0.1,3.6,0.4c0.9,0.3,1.5,0.8,1.9,1.5
		c0.4,0.7,0.6,1.4,0.6,1.9s0.1,1.4,0.1,2.5v43c0,1.1,0,1.9-0.1,2.5s-0.3,1.2-0.7,1.8c-0.7,1.3-2.7,1.9-6.1,1.9s-5.2-1.2-5.6-3.5
		c-2,2.3-4.8,3.5-8.4,3.5c-4.3,0-8.3-1.9-11.8-5.7c-3.6-3.8-5.3-8.2-5.3-13.2s1.8-9.4,5.4-13.2c3.6-3.8,7.5-5.7,11.8-5.7
		c3.6,0,6.3,1.2,8.3,3.6V13c0-1.1,0-1.9,0.1-2.5C169.9,10,170.1,9.3,170.5,8.6z M158.8,47.8c1.2,1.3,2.8,1.9,4.5,1.9
		c1.8,0,3.3-0.6,4.4-1.9c1.2-1.3,1.8-2.7,1.8-4.3c0-1.6-0.6-3-1.7-4.4s-2.7-2-4.6-2c-1.9,0-3.5,0.7-4.6,2c-1.2,1.3-1.7,2.8-1.7,4.4
		S157.5,46.5,158.8,47.8z"/>
	<path class="st1" d="M222.6,38.9c0,3-0.7,5.1-2.2,6.6c-1.5,1.4-3.1,2.1-4.9,2.1h-17.1c0,1.3,0.8,2.5,2.4,3.4
		c1.6,0.9,3.2,1.4,4.8,1.4c2.8,0,5-0.3,6.6-0.9l0.8-0.3c1.2-0.5,2.1-0.8,2.9-0.8c1.5,0,2.9,1.1,4,3.2c0.6,1.3,0.9,2.4,0.9,3.3
		c0,4.3-5.1,6.4-15.3,6.4c-3.6,0-6.7-0.6-9.5-1.8c-2.8-1.2-4.9-2.8-6.4-4.9c-3-3.9-4.5-8.2-4.5-13c0-6,2-10.9,5.9-14.5
		c3.9-3.6,8.8-5.4,14.7-5.4c6.7,0,11.6,2.4,14.7,7.1C221.7,33.2,222.6,35.9,222.6,38.9z M207.4,41c1.8,0,2.7-0.8,2.7-2.3
		c0-1.1-0.4-2-1.3-2.7c-0.8-0.7-2-1-3.6-1c-1.6,0-3.1,0.6-4.6,1.9c-1.5,1.3-2.3,2.6-2.3,4.1H207.4z"/>
</g>
<g class="st0">
</g>
<g class="st0">
	<path class="st1" d="M260.1,24.5c4.3,0,8.2,1.9,11.8,5.7c3.6,3.8,5.4,8.2,5.4,13.2s-1.8,9.4-5.3,13.2c-3.6,3.8-7.4,5.7-11.4,5.7
		c-4.1,0-7-1.2-8.7-3.5c-0.4,2.4-2.4,3.5-6.2,3.5c-3,0-4.9-0.6-5.5-1.9c-0.3-0.7-0.5-1.4-0.6-1.9s-0.1-1.4-0.1-2.5V13
		c0-1.1,0-1.9,0.1-2.5c0.1-0.6,0.3-1.2,0.6-1.8c0.7-1.3,2.5-1.9,5.6-1.9c3,0,4.8,0.6,5.5,1.9c0.4,0.7,0.6,1.4,0.7,1.9
		c0.1,0.6,0.1,1.4,0.1,2.5v15C253.8,25.7,256.5,24.5,260.1,24.5z M253.8,47.8c1.2,1.3,2.7,1.9,4.4,1.9c1.8,0,3.3-0.6,4.5-1.9
		s1.9-2.7,1.9-4.3s-0.6-3-1.7-4.4c-1.2-1.3-2.7-2-4.6-2c-1.9,0-3.4,0.7-4.6,2c-1.1,1.3-1.7,2.8-1.7,4.4
		C252,45.1,252.6,46.5,253.8,47.8z"/>
	<path class="st1" d="M285.5,29.2c4-3.7,8.6-5.6,13.8-5.6s9.8,1.9,13.8,5.6s6,8.5,6,14.2c0,4-1,7.5-3.1,10.6
		c-2.1,3.1-4.6,5.4-7.5,6.8c-3,1.5-6,2.2-9.2,2.2s-6.2-0.8-9.2-2.3c-3-1.6-5.5-3.9-7.5-6.9s-3.1-6.5-3.1-10.3
		C279.4,37.7,281.4,32.9,285.5,29.2z M294.5,48.6c1.5,1.2,3.1,1.8,4.7,1.8s3.2-0.6,4.8-1.8c1.6-1.2,2.4-3,2.4-5.3
		c0-2.4-0.7-4.1-2.2-5.3c-1.5-1.2-3.1-1.7-4.8-1.7c-1.7,0-3.3,0.6-4.8,1.8c-1.5,1.2-2.2,3-2.2,5.3C292.2,45.7,292.9,47.4,294.5,48.6
		z"/>
	<path class="st1" d="M347,28.5c0.3-2.7,2.2-4,5.7-4c1.9,0,3.3,0.1,4.2,0.4c0.9,0.3,1.5,0.8,1.9,1.5c0.4,0.7,0.6,1.4,0.6,1.9
		c0.1,0.6,0.1,1.4,0.1,2.5V56c0,1.1,0,1.9-0.1,2.5c-0.1,0.6-0.3,1.2-0.6,1.9c-0.7,1.2-2.3,1.9-4.9,1.9c-2.6,0-4.4-0.3-5.3-1
		c-0.9-0.6-1.4-1.6-1.5-2.8c-1.8,2.5-4.7,3.8-8.9,3.8c-4.2,0-8-1.9-11.6-5.7c-3.6-3.8-5.3-8.2-5.3-13.2c0-5,1.8-9.4,5.4-13.2
		c3.6-3.8,7.5-5.7,11.8-5.7c1.6,0,3.1,0.3,4.5,0.9s2.3,1.1,2.8,1.6C346.2,27.5,346.6,28,347,28.5z M333.9,43.5c0,1.6,0.6,3,1.9,4.3
		c1.2,1.3,2.8,1.9,4.5,1.9s3.3-0.6,4.4-1.9c1.2-1.3,1.8-2.7,1.8-4.3s-0.6-3-1.7-4.4c-1.1-1.3-2.6-2-4.5-2c-1.9,0-3.4,0.7-4.6,2
		C334.4,40.4,333.9,41.9,333.9,43.5z"/>
</g>
<circle class="st1" cx="47.6" cy="13" r="6.7"/>
</svg>
