<?xml version="1.0" encoding="utf-8"?>
<!-- Generator: Adobe Illustrator 22.1.0, SVG Export Plug-In . SVG Version: 6.00 Build 0)  -->
<svg version="1.1" id="Layer_1" xmlns="http://www.w3.org/2000/svg" xmlns:xlink="http://www.w3.org/1999/xlink" x="0px" y="0px"
	 viewBox="0 0 139.8 20" style="enable-background:new 0 0 139.8 20;" xml:space="preserve">
<style type="text/css">
	.st0{fill:#30BB6A;}
</style>
<g>
	<path class="st0" d="M0,17.9V2c0-0.6,0.2-1,0.6-1.4S1.4,0,2,0s1,0.2,1.4,0.6C3.8,1,4,1.5,4,2v7.1c0.4-0.5,0.9-1,1.6-1.3
		C6.3,7.5,7,7.3,7.9,7.3c1.6,0,3,0.6,4.2,1.8s1.7,2.7,1.7,4.5c0,1.8-0.6,3.3-1.7,4.5S9.5,20,7.9,20c-0.8,0-1.6-0.2-2.3-0.5
		c-0.7-0.4-1.2-0.8-1.6-1.3c0,0.5-0.2,1-0.6,1.3S2.5,20,2,20c-0.6,0-1-0.2-1.4-0.6S0,18.5,0,17.9z M4.9,11.6c-0.5,0.6-0.8,1.2-0.8,2
		c0,0.8,0.3,1.5,0.8,2s1.2,0.8,2,0.8s1.4-0.3,2-0.8s0.8-1.2,0.8-2c0-0.8-0.3-1.5-0.8-2c-0.5-0.6-1.2-0.8-2-0.8S5.5,11.1,4.9,11.6z"
		/>
	<path class="st0" d="M16.4,4.6c-0.5-0.5-0.7-1-0.7-1.7s0.2-1.2,0.7-1.7c0.5-0.5,1-0.7,1.6-0.7c0.6,0,1.2,0.2,1.6,0.7
		c0.5,0.5,0.7,1,0.7,1.7s-0.2,1.2-0.7,1.7c-0.5,0.5-1,0.7-1.6,0.7C17.4,5.3,16.9,5.1,16.4,4.6z M16.1,17.9V9.3c0-0.6,0.2-1,0.6-1.4
		c0.4-0.4,0.9-0.6,1.4-0.6c0.6,0,1,0.2,1.4,0.6c0.4,0.4,0.6,0.9,0.6,1.4v8.6c0,0.6-0.2,1-0.6,1.4c-0.4,0.4-0.9,0.6-1.4,0.6
		c-0.6,0-1-0.2-1.4-0.6C16.3,19,16.1,18.5,16.1,17.9z"/>
	<path class="st0" d="M22.9,17.9V2c0-0.6,0.2-1,0.6-1.4S24.4,0,24.9,0s1,0.2,1.4,0.6C26.7,1,26.9,1.5,26.9,2v10.2l4.6-4.4
		c0.4-0.4,0.8-0.6,1.3-0.6c0.5,0,0.9,0.2,1.3,0.5s0.5,0.8,0.5,1.3c0,0.5-0.2,0.9-0.5,1.3L31,13.3l3.5,3.5c0.3,0.3,0.5,0.8,0.5,1.3
		c0,0.5-0.2,1-0.5,1.3c-0.3,0.4-0.8,0.5-1.3,0.5c-0.5,0-1-0.2-1.4-0.6l-4.9-5v3.5c0,0.6-0.2,1-0.6,1.4c-0.4,0.4-0.9,0.6-1.4,0.6
		s-1-0.2-1.4-0.6S22.9,18.5,22.9,17.9z"/>
	<path class="st0" d="M49.1,12.9c0.1,0.5-0.1,1-0.4,1.3c-0.3,0.3-0.7,0.5-1.2,0.5h-7.1c0.4,1.2,1.3,1.8,2.6,1.8
		c0.8,0,1.5-0.2,2.2-0.7c0.4-0.3,0.8-0.4,1.2-0.4c0.5,0,0.9,0.2,1.3,0.5c0.3,0.3,0.5,0.8,0.5,1.3c0,0.6-0.3,1.1-0.8,1.5
		C46.3,19.5,44.8,20,43,20c-2,0-3.6-0.6-4.9-1.8c-1.3-1.2-1.9-2.7-1.9-4.6c0-1.8,0.6-3.3,1.9-4.5s2.8-1.8,4.6-1.8
		c1.6,0,3.1,0.5,4.3,1.6C48.2,9.9,48.9,11.3,49.1,12.9z M40.4,12.1h4.8c-0.2-0.5-0.5-0.8-0.9-1.1c-0.4-0.3-0.9-0.4-1.5-0.4
		c-0.6,0-1.1,0.1-1.5,0.4C40.9,11.2,40.6,11.6,40.4,12.1z"/>
	<path class="st0" d="M71.7,2v15.9c0,0.6-0.2,1-0.6,1.4c-0.4,0.4-0.9,0.6-1.4,0.6c-0.5,0-1-0.2-1.4-0.5s-0.6-0.8-0.6-1.3
		c-0.4,0.5-0.9,1-1.6,1.3c-0.7,0.4-1.5,0.5-2.3,0.5c-1.6,0-3-0.6-4.2-1.8s-1.7-2.7-1.7-4.5c0-1.8,0.6-3.3,1.7-4.5s2.5-1.8,4.2-1.8
		c0.8,0,1.6,0.2,2.3,0.5c0.7,0.4,1.2,0.8,1.6,1.3V2c0-0.6,0.2-1,0.6-1.4S69.1,0,69.7,0s1,0.2,1.4,0.6C71.5,1,71.7,1.5,71.7,2z
		 M66.7,15.6c0.5-0.6,0.8-1.2,0.8-2c0-0.8-0.3-1.5-0.8-2c-0.5-0.6-1.2-0.8-2-0.8c-0.8,0-1.4,0.3-2,0.8c-0.5,0.6-0.8,1.2-0.8,2
		c0,0.8,0.3,1.5,0.8,2c0.5,0.6,1.2,0.8,2,0.8C65.6,16.5,66.2,16.2,66.7,15.6z"/>
	<path class="st0" d="M86.6,12.9c0.1,0.5-0.1,1-0.4,1.3c-0.3,0.3-0.7,0.5-1.2,0.5H78c0.4,1.2,1.3,1.8,2.6,1.8c0.8,0,1.5-0.2,2.2-0.7
		c0.4-0.3,0.8-0.4,1.2-0.4c0.5,0,0.9,0.2,1.3,0.5c0.3,0.3,0.5,0.8,0.5,1.3c0,0.6-0.3,1.1-0.8,1.5c-1.1,0.9-2.6,1.4-4.4,1.4
		c-2,0-3.6-0.6-4.9-1.8c-1.3-1.2-1.9-2.7-1.9-4.6c0-1.8,0.6-3.3,1.9-4.5s2.8-1.8,4.6-1.8c1.6,0,3.1,0.5,4.3,1.6
		C85.8,9.9,86.5,11.3,86.6,12.9z M78,12.1h4.8c-0.2-0.5-0.5-0.8-0.9-1.1c-0.4-0.3-0.9-0.4-1.5-0.4c-0.6,0-1.1,0.1-1.5,0.4
		C78.5,11.2,78.2,11.6,78,12.1z"/>
	<path class="st0" d="M96.1,17.9V2c0-0.6,0.2-1,0.6-1.4S97.5,0,98.1,0c0.6,0,1,0.2,1.4,0.6c0.4,0.4,0.6,0.9,0.6,1.4v7.1
		c0.4-0.5,0.9-1,1.6-1.3s1.5-0.5,2.3-0.5c1.6,0,3,0.6,4.2,1.8c1.1,1.2,1.7,2.7,1.7,4.5c0,1.8-0.6,3.3-1.7,4.5
		c-1.1,1.2-2.5,1.8-4.2,1.8c-0.8,0-1.6-0.2-2.3-0.5s-1.2-0.8-1.6-1.3c0,0.5-0.2,1-0.6,1.3S98.6,20,98.1,20c-0.6,0-1-0.2-1.4-0.6
		S96.1,18.5,96.1,17.9z M101,11.6c-0.5,0.6-0.8,1.2-0.8,2c0,0.8,0.3,1.5,0.8,2c0.5,0.6,1.2,0.8,2,0.8s1.4-0.3,2-0.8s0.8-1.2,0.8-2
		c0-0.8-0.3-1.5-0.8-2c-0.5-0.6-1.2-0.8-2-0.8S101.5,11.1,101,11.6z"/>
	<path class="st0" d="M122.6,9.1c1.3,1.2,1.9,2.7,1.9,4.5s-0.6,3.3-1.9,4.5c-1.3,1.2-2.8,1.8-4.6,1.8s-3.4-0.6-4.6-1.8
		c-1.3-1.2-1.9-2.7-1.9-4.5s0.6-3.3,1.9-4.5c1.3-1.2,2.8-1.8,4.6-1.8S121.3,7.9,122.6,9.1z M119.7,15.5c0.5-0.5,0.8-1.1,0.8-1.9
		c0-0.8-0.3-1.4-0.8-1.9c-0.5-0.5-1.1-0.7-1.8-0.7s-1.3,0.2-1.8,0.7c-0.5,0.5-0.8,1.1-0.8,1.9c0,0.8,0.3,1.4,0.8,1.9
		s1.1,0.7,1.8,0.7S119.2,16,119.7,15.5z"/>
	<path class="st0" d="M139.8,9.3v8.6c0,0.6-0.2,1-0.6,1.4s-0.9,0.6-1.4,0.6c-0.5,0-1-0.2-1.4-0.5s-0.6-0.8-0.6-1.3
		c-0.4,0.5-0.9,1-1.6,1.3c-0.7,0.4-1.5,0.5-2.3,0.5c-1.6,0-3-0.6-4.2-1.8s-1.7-2.7-1.7-4.5c0-1.8,0.6-3.3,1.7-4.5s2.5-1.8,4.2-1.8
		c0.8,0,1.6,0.2,2.3,0.5c0.7,0.4,1.2,0.8,1.6,1.3c0-0.5,0.2-1,0.6-1.3s0.8-0.5,1.4-0.5c0.6,0,1,0.2,1.4,0.6
		C139.6,8.3,139.8,8.7,139.8,9.3z M134.9,15.6c0.5-0.6,0.8-1.2,0.8-2c0-0.8-0.3-1.5-0.8-2c-0.5-0.6-1.2-0.8-2-0.8s-1.4,0.3-2,0.8
		c-0.5,0.6-0.8,1.2-0.8,2c0,0.8,0.3,1.5,0.8,2c0.5,0.6,1.2,0.8,2,0.8S134.3,16.2,134.9,15.6z"/>
</g>
</svg>
