<?xml version="1.0" encoding="utf-8"?>
<!-- Generator: Adobe Illustrator 16.0.0, SVG Export Plug-In . SVG Version: 6.00 Build 0)  -->
<!DOCTYPE svg PUBLIC "-//W3C//DTD SVG 1.1//EN" "http://www.w3.org/Graphics/SVG/1.1/DTD/svg11.dtd">
<svg version="1.1" id="Layer_1" xmlns="http://www.w3.org/2000/svg" xmlns:xlink="http://www.w3.org/1999/xlink" x="0px" y="0px"
	 width="129.156px" height="155.838px" viewBox="0 0 129.156 155.838" enable-background="new 0 0 129.156 155.838"
	 xml:space="preserve">
<g id="New_Symbol_6_1_">
	<g>
		<g>
			<g id="XMLID_5_">
				<g>
					<path fill="none" stroke="#AE3736" stroke-width="5.6693" stroke-miterlimit="10" d="M-20.903,20.897
						c-24.09-24.1-63.17-24.1-87.26,0c-24.1,24.1-24.1,63.17,0,87.28l43.64,43.64l43.62-43.64
						C3.197,84.067,3.197,44.997-20.903,20.897z"/>
				</g>
			</g>
		</g>
	</g>
</g>
<g id="New_Symbol_7_1_">
	<g>
		<g>
			<g id="XMLID_12_">
				<g>
					<path fill="#82878A" d="M108.238,20.897c24.101,24.1,24.101,63.17,0,87.28l-43.62,43.64l-43.64-43.64
						c-24.1-24.11-24.1-63.18,0-87.28C45.068-3.203,84.158-3.203,108.238,20.897z M86.089,86.457c12-11.99,12-31.43,0-43.41
						c-11.98-11.99-31.42-11.99-43.41,0c-11.98,11.98-11.98,31.42,0,43.41C54.669,98.457,74.108,98.457,86.089,86.457z"/>
					<path fill="#FFFFFF" d="M86.089,43.047c12,11.98,12,31.42,0,43.41c-11.98,12-31.42,12-43.41,0
						c-11.98-11.99-11.98-31.43,0-43.41C54.669,31.057,74.108,31.057,86.089,43.047z"/>
				</g>
			</g>
		</g>
	</g>
</g>
</svg>
