<?xml version="1.0" encoding="utf-8"?>
<!-- Generator: Adobe Illustrator 22.1.0, SVG Export Plug-In . SVG Version: 6.00 Build 0)  -->
<svg version="1.1" id="Layer_1" xmlns="http://www.w3.org/2000/svg" xmlns:xlink="http://www.w3.org/1999/xlink" x="0px" y="0px"
	 viewBox="0 0 130.9 152.7" style="enable-background:new 0 0 130.9 152.7;" xml:space="preserve">
<style type="text/css">
	.st0{fill:url(#SVGID_1_);stroke:#FFFFFF;stroke-width:3;stroke-miterlimit:10;}
	.st1{fill:#FFFFFF;}
</style>
<symbol  id="_x30_3_pin_verde_borda_2" viewBox="-32.7 -37.1 65.3 76.1">
	<g id="Deleted_Symbol_2_">
		<linearGradient id="SVGID_1_" gradientUnits="userSpaceOnUse" x1="28.4392" y1="19.4471" x2="-25.5187" y2="-11.7056">
			<stop  offset="0" style="stop-color:#30BB6A"/>
			<stop  offset="1" style="stop-color:#2CD978"/>
		</linearGradient>
		<path class="st0" d="M0,37.5c8,0,16-3,22-9.1c12.2-12.2,12.2-31.9,0-44.1L3.5-34.1c-1.9-1.9-5.1-1.9-7,0L-22-15.6
			c-12.2,12.2-12.2,31.9,0,44.1C-16,34.5-8,37.5,0,37.5"/>
		<path class="st1" d="M10.9-4.7C4.8-10.8-5-10.8-11-4.7c-6.1,6.1-6.1,15.9,0,21.9c6.1,6.1,15.9,6.1,21.9,0
			C16.9,11.2,16.9,1.3,10.9-4.7z"/>
	</g>
</symbol>
<use xlink:href="#_x30_3_pin_verde_borda_2"  width="65.3" height="76.1" id="XMLID_210_" x="-32.7" y="-37.1" transform="matrix(2.0052 0 0 -2.0052 65.4699 78.3032)" style="overflow:visible;"/>
</svg>
