<?xml version="1.0" encoding="utf-8"?>
<!-- Generator: Adobe Illustrator 16.0.0, SVG Export Plug-In . SVG Version: 6.00 Build 0)  -->
<!DOCTYPE svg PUBLIC "-//W3C//DTD SVG 1.1//EN" "http://www.w3.org/Graphics/SVG/1.1/DTD/svg11.dtd">
<svg version="1.1" id="Layer_1" xmlns="http://www.w3.org/2000/svg" xmlns:xlink="http://www.w3.org/1999/xlink" x="0px" y="0px"
	 width="129.156px" height="155.838px" viewBox="0 0 129.156 155.838" enable-background="new 0 0 129.156 155.838"
	 xml:space="preserve">

<g id="New_Symbol_6_1_">
	<g>
		<g>
			<g id="XMLID_5_">
				<g>
					<path fill="#FF8265" d="M42.693,86.457c11.989,12,31.43,12,43.41,0c12-11.99,12-31.43,0-43.41
						c-11.98-11.98-31.421-11.98-43.41,0C30.713,55.027,30.713,74.467,42.693,86.457z M108.253,20.897
						c24.101,24.1,24.101,63.17,0,87.28l-43.62,43.64l-43.64-43.64c-24.1-24.11-24.1-63.18,0-87.28
						C45.083-3.203,84.163-3.203,108.253,20.897z"/>
					<path fill="#FFFFFF" d="M86.104,43.047c12,11.98,12,31.42,0,43.41c-11.98,12-31.421,12-43.41,0
						c-11.98-11.99-11.98-31.43,0-43.41C54.683,31.067,74.123,31.067,86.104,43.047z"/>
				</g>
			</g>
		</g>
	</g>
</g>
</svg>
