<?xml version="1.0" encoding="utf-8"?>
<!-- Generator: Adobe Illustrator 16.0.0, SVG Export Plug-In . SVG Version: 6.00 Build 0)  -->
<!DOCTYPE svg PUBLIC "-//W3C//DTD SVG 1.1//EN" "http://www.w3.org/Graphics/SVG/1.1/DTD/svg11.dtd">
<svg version="1.1" id="Layer_1" xmlns="http://www.w3.org/2000/svg" xmlns:xlink="http://www.w3.org/1999/xlink" x="0px" y="0px"
	 width="177.268px" height="177.278px" viewBox="208.603 -79.393 177.268 177.278"
	 enable-background="new 208.603 -79.393 177.268 177.278" xml:space="preserve">
<g id="New_Symbol_4_2_">
</g>
<g id="New_Symbol_4_1_">
</g>
<g id="New_Symbol_5_1_">
</g>
<g id="New_Symbol_6_1_">
</g>
<g id="New_Symbol_7_1_">
</g>
<g id="New_Symbol_4">
	<g id="XMLID_1_">
		<g>
			<g>
				<g>
					<path fill="#39B66A" d="M297.23,86.547c-42.618,0-77.29-34.677-77.29-77.301s34.672-77.3,77.29-77.3
						c42.624,0,77.302,34.677,77.302,77.3S339.854,86.547,297.23,86.547z"/>
					<path fill="#FFFFFF" d="M297.23-56.716c36.371,0,65.963,29.591,65.963,65.962s-29.591,65.962-65.963,65.962
						c-36.365,0-65.951-29.591-65.951-65.962S260.865-56.716,297.23-56.716 M297.23-79.393c-48.87,0-88.628,39.763-88.628,88.639
						s39.758,88.639,88.628,88.639c48.876,0,88.64-39.763,88.64-88.639S346.106-79.393,297.23-79.393L297.23-79.393z"/>
				</g>
			</g>
		</g>
	</g>
</g>
<g id="New_Symbol_5">
</g>
<g id="New_Symbol_6">
</g>
<g id="New_Symbol_7">
</g>
</svg>
