<svg width="40" height="49" viewBox="0 0 40 49" fill="none" xmlns="http://www.w3.org/2000/svg">
<ellipse cx="20" cy="47" rx="7" ry="2" fill="#C4C4C4" fill-opacity="0.5"/>
<path d="M40 20.0388C40 31.1059 30.8639 39.5 19.8182 39.5C8.77249 39.5 0 31.1059 0 20.0388C0 8.97166 8.95431 0 20 0C31.0457 0 40 8.97166 40 20.0388Z" fill="white"/>
<path d="M20 46L13.8182 35.4341H25.8182L20 46Z" fill="white"/>
<path d="M39 19.8034C39 30.1883 30.4934 38.6068 20 38.6068C9.50659 38.6068 1 30.1883 1 19.8034C1 9.41858 9.50659 1 20 1C30.4934 1 39 9.41858 39 19.8034Z" fill="#27AE60"/>
<path d="M20 44.5L14.5 35H25L20 44.5Z" fill="#27AE60"/>
<path fill-rule="evenodd" clip-rule="evenodd" d="M20 11.6272C16.976 11.6272 14.5241 14.0467 14.5241 17.031V26.8264C14.5241 27.2757 14.1549 27.64 13.6995 27.64C13.2442 27.64 12.875 27.2757 12.875 26.8264V17.031C12.875 13.1481 16.0651 10 20 10C23.9349 10 27.125 13.1481 27.125 17.031V26.8264C27.125 27.2757 26.7558 27.64 26.3005 27.64C25.8451 27.64 25.4759 27.2757 25.4759 26.8264V17.031C25.4759 14.0467 23.024 11.6272 20 11.6272Z" fill="white"/>
<path fill-rule="evenodd" clip-rule="evenodd" d="M8 27.46C8 27.1618 8.25184 26.92 8.5625 26.92H31.4375C31.7482 26.92 32 27.1618 32 27.46C32 27.7582 31.7482 28 31.4375 28H8.5625C8.25184 28 8 27.7582 8 27.46Z" fill="white"/>
</svg>
