<?xml version="1.0" encoding="utf-8"?>
<!-- Generator: Adobe Illustrator 16.0.0, SVG Export Plug-In . SVG Version: 6.00 Build 0)  -->
<!DOCTYPE svg PUBLIC "-//W3C//DTD SVG 1.1//EN" "http://www.w3.org/Graphics/SVG/1.1/DTD/svg11.dtd">
<svg version="1.1" id="Layer_1" xmlns="http://www.w3.org/2000/svg" xmlns:xlink="http://www.w3.org/1999/xlink" x="0px" y="0px"
	 width="142.001px" height="168px" viewBox="141.96 -8.025 142.001 168" enable-background="new 141.96 -8.025 142.001 168"
	 xml:space="preserve">
<symbol  id="_x30_3_pin_amarelo_borda" viewBox="-35.41 -41.888 70.82 83.775">
	<g id="Deleted_Symbol_2_1_">
		<g>
			<path fill="#F6C913" d="M0.006-39.762c-0.544,0-1.088,0.207-1.503,0.622l-22.048,22.042c-6.292,6.292-9.757,14.656-9.757,23.552
				s3.465,17.259,9.757,23.552c6.285,6.291,14.647,9.756,23.546,9.756c8.897,0,17.26-3.465,23.546-9.757
				C36.531,17.02,36.531-4.111,23.546-17.097L1.51-39.139C1.094-39.554,0.55-39.762,0.006-39.762z"/>
			<path fill="#FFFFFF" d="M0,37.635c7.979,0,15.959-3.044,22.043-9.133c12.178-12.179,12.178-31.917,0-44.096L0.006-37.636
				l-22.048,22.042c-12.179,12.179-12.179,31.917,0,44.096C-15.958,34.591-7.979,37.635,0,37.635 M0,41.887
				c-9.465,0-18.361-3.686-25.05-10.379c-13.813-13.814-13.813-36.293,0.001-50.108L-3-40.643c0.83-0.83,1.918-1.245,3.006-1.245
				c1.089,0,2.177,0.415,3.007,1.246L25.05-18.6c13.813,13.814,13.813,36.293,0,50.107C18.362,38.201,9.466,41.887,0,41.887
				L0,41.887z"/>
		</g>
		<path fill="#FFFFFF" d="M10.854-4.617c-6.057-6.062-15.877-6.062-21.929,0c-6.058,6.052-6.058,15.872,0,21.929
			c6.052,6.052,15.872,6.052,21.929,0C16.914,11.255,16.914,1.435,10.854-4.617z"/>
	</g>
</symbol>
<use xlink:href="#_x30_3_pin_amarelo_borda"  width="70.82" height="83.775" id="XMLID_211_" x="-35.41" y="-41.888" transform="matrix(2.0039 0 0 -2.0039 213.2358 75.958)" overflow="visible"/>
</svg>
