<?xml version="1.0" encoding="utf-8"?>
<!-- Generator: Adobe Illustrator 16.0.0, SVG Export Plug-In . SVG Version: 6.00 Build 0)  -->
<!DOCTYPE svg PUBLIC "-//W3C//DTD SVG 1.1//EN" "http://www.w3.org/Graphics/SVG/1.1/DTD/svg11.dtd">
<svg version="1.1" id="Layer_1" xmlns="http://www.w3.org/2000/svg" xmlns:xlink="http://www.w3.org/1999/xlink" x="0px" y="0px"
	 width="74.734px" height="98.682px" viewBox="0 0 74.734 98.682" enable-background="new 0 0 74.734 98.682" xml:space="preserve">
<g id="Star_-_Orange">
</g>
<g id="XMLID_6_">
	<g>
		<path fill="#82878A" d="M64.663,59.423L37.37,94.936l-26.528-34.59l-1.667-2.185c-1.216-1.666-2.252-3.468-3.13-5.359
			c-2.049-4.414-3.197-9.346-3.197-14.548c0-19.073,15.448-34.522,34.522-34.522c19.073,0,34.522,15.449,34.522,34.522
			C71.893,46.249,69.189,53.567,64.663,59.423z"/>
		<path fill="#82878A" d="M9.175,58.161l1.667,2.185C10.256,59.647,9.693,58.928,9.175,58.161z"/>
	</g>
	<g>
		
			<path fill="none" stroke="#666766" stroke-width="5.6693" stroke-linecap="round" stroke-linejoin="round" stroke-miterlimit="10" d="
			M10.842,60.346c-0.586-0.698-1.148-1.418-1.667-2.185c-1.216-1.666-2.252-3.468-3.13-5.359c-2.049-4.414-3.197-9.346-3.197-14.548
			c0-19.073,15.448-34.522,34.522-34.522c19.073,0,34.522,15.449,34.522,34.522c0,7.995-2.703,15.313-7.229,21.169
			c-0.495,0.631-0.99,1.216-1.509,1.802"/>
		
			<polyline fill="none" stroke="#666766" stroke-width="5.6693" stroke-linecap="round" stroke-linejoin="round" stroke-miterlimit="10" points="
			64.663,59.423 37.37,94.936 10.842,60.346 9.175,58.161 		"/>
	</g>
</g>
</svg>
