<?xml version="1.0" encoding="utf-8"?>
<!-- Generator: Adobe Illustrator 16.0.0, SVG Export Plug-In . SVG Version: 6.00 Build 0)  -->
<!DOCTYPE svg PUBLIC "-//W3C//DTD SVG 1.1//EN" "http://www.w3.org/Graphics/SVG/1.1/DTD/svg11.dtd">
<svg version="1.1" id="Layer_1" xmlns="http://www.w3.org/2000/svg" xmlns:xlink="http://www.w3.org/1999/xlink" x="0px" y="0px"
	 width="177.268px" height="177.278px" viewBox="209.575 -65.425 177.268 177.278"
	 enable-background="new 209.575 -65.425 177.268 177.278" xml:space="preserve">
<g id="New_Symbol_4_3_">
	<g id="XMLID_1_">
		<g>
			<g>
				<g>
					<path fill="#F6C913" d="M298.203,100.515c-42.618,0-77.29-34.677-77.29-77.301s34.672-77.3,77.29-77.3
						c42.624,0,77.302,34.677,77.302,77.3S340.827,100.515,298.203,100.515z"/>
					<path fill="#FFFFFF" d="M298.203-42.748c36.372,0,65.963,29.59,65.963,65.962s-29.591,65.962-65.963,65.962
						c-36.365,0-65.951-29.59-65.951-65.962S261.838-42.748,298.203-42.748 M298.203-65.425c-48.87,0-88.628,39.763-88.628,88.639
						s39.758,88.639,88.628,88.639c48.876,0,88.64-39.763,88.64-88.639S347.079-65.425,298.203-65.425L298.203-65.425z"/>
				</g>
			</g>
		</g>
	</g>
</g>
<g id="New_Symbol_7_2_">
</g>
</svg>
