<?xml version="1.0" encoding="utf-8"?>
<!-- Generator: Adobe Illustrator 21.1.0, SVG Export Plug-In . SVG Version: 6.00 Build 0)  -->
<svg version="1.1" id="Layer_1" xmlns="http://www.w3.org/2000/svg" xmlns:xlink="http://www.w3.org/1999/xlink" x="0px" y="0px"
	 viewBox="0 0 749.4 904.8" style="enable-background:new 0 0 749.4 904.8;" xml:space="preserve">
<style type="text/css">
	.st0{fill:#47B770;}
	.st1{fill:none;}
	.st2{fill:none;stroke:#FFFFFF;stroke-width:15.0058;stroke-linecap:round;stroke-linejoin:round;stroke-miterlimit:10;}
	.st3{fill:#FFFFFF;}
	.st4{font-family:'Ubuntu';}
	.st5{font-size:117.8163px;}
</style>
<g id="New_Symbol_4_6_">
	<g>
		<g>
			<path class="st0" d="M639.6,109.8c146.4,146.4,146.4,383.6,0,530l-264.9,265l-265-265c-146.4-146.4-146.4-383.6,0-530
				C256-36.6,493.4-36.6,639.6,109.8z"/>
		</g>
		<g>
			<path class="st1" d="M639.6,639.8c146.4-146.4,146.4-383.6,0-530C493.4-36.6,256-36.6,109.8,109.8
				c-146.4,146.4-146.4,383.6,0,530l265,265L639.6,639.8z"/>
		</g>
	</g>
</g>
<g>
	<path class="st2" d="M308,388c0,49.7-40.3,90-90,90c-49.7,0-90-40.3-90-90c0-49.7,40.3-90,90-90C267.7,298,308,338.3,308,388z"/>
	<path class="st2" d="M621.4,388c0,49.7-40.3,90-90,90c-49.7,0-90-40.3-90-90c0-49.7,40.3-90,90-90C581.1,298,621.4,338.3,621.4,388
		z"/>
	<path class="st2" d="M237.3,388c0,10.6-8.6,19.3-19.3,19.3c-10.6,0-19.3-8.6-19.3-19.3c0-10.6,8.6-19.3,19.3-19.3
		C228.7,368.8,237.3,377.4,237.3,388z"/>
	<path class="st2" d="M400.4,388c0,16.2-13.2,29.4-29.4,29.4c-16.2,0-29.4-13.2-29.4-29.4c0-16.3,13.2-29.4,29.4-29.4
		C387.3,358.6,400.4,371.8,400.4,388z"/>
	<path class="st2" d="M550.6,387c0,10.6-8.6,19.3-19.3,19.3c-10.6,0-19.3-8.6-19.3-19.3c0-10.6,8.6-19.3,19.3-19.3
		C542,367.8,550.6,376.4,550.6,387z"/>
	<line class="st2" x1="218" y1="368.8" x2="371" y2="358.6"/>
	<line class="st2" x1="218" y1="407.3" x2="371" y2="417.5"/>
	<line class="st2" x1="200.6" y1="379.9" x2="282.1" y2="249.8"/>
	<polyline class="st2" points="525.3,368.8 458.8,193.4 417.8,193.4 	"/>
	<line class="st2" x1="357.8" y1="361.8" x2="268.5" y2="229.7"/>
	<line class="st2" x1="387.3" y1="363.5" x2="480.6" y2="261.7"/>
	<path class="st2" d="M307.8,216.9c0,7.1-5.7,12.8-12.8,12.8h-46.5c-7.1,0-12.8-5.7-12.8-12.8l0,0c0-7.1,5.7-12.8,12.8-12.8H295
		C302.1,204.1,307.8,209.8,307.8,216.9L307.8,216.9z"/>
	<line class="st2" x1="371" y1="388" x2="401.1" y2="444.7"/>
	<line class="st2" x1="383.6" y1="448.6" x2="420.9" y2="448.6"/>
	<line class="st2" x1="471.5" y1="227" x2="413.4" y2="291"/>
	<path class="st2" d="M282.1,249.8c0,0,64.5,109.6,131.2,41.2"/>
	<path class="st2" d="M554.5,326.9c0,0,33.5,5.4,42.8,47.5"/>
	<path class="st2" d="M200.6,449.2c0,0-33.5-5.4-42.8-47.5"/>
</g>
<text transform="matrix(1 0 0 1 231.3945 624.9556)" class="st3 st4 st5">AQUI</text>
</svg>
