<?xml version="1.0" encoding="utf-8"?>
<!-- Generator: Adobe Illustrator 22.0.1, SVG Export Plug-In . SVG Version: 6.00 Build 0)  -->
<svg version="1.1" id="Layer_1" xmlns="http://www.w3.org/2000/svg" xmlns:xlink="http://www.w3.org/1999/xlink" x="0px" y="0px"
	 viewBox="0 0 142 184.1" width="142px" height="184px" style="enable-background:new 0 0 142 184.1;" xml:space="preserve">
<style type="text/css">
	.st0{fill:#FF8265;}
	.st1{fill:#FFFFFF;}
	.st2{fill:url(#SVGID_1_);}
</style>
<symbol  id="_x30_3_pin_verde_borda" viewBox="-35.4 -41.9 70.8 83.8">
	<g id="Deleted_Symbol_1_">
		<g>
			<path class="st0" d="M0-39.8c-0.5,0-1.1,0.2-1.5,0.6l-22,22c-13,13-13,34.1,0,47.1c6.3,6.3,14.6,9.8,23.5,9.8s17.3-3.5,23.5-9.8
				c13-13,13-34.1,0-47.1l-22-22C1.1-39.6,0.5-39.8,0-39.8z"/>
			<path class="st1" d="M0,37.6c8,0,16-3,22-9.1c12.2-12.2,12.2-31.9,0-44.1l-22-22l-22,22c-12.2,12.2-12.2,31.9,0,44.1
				C-16,34.6-8,37.6,0,37.6 M0,41.9c-9.5,0-18.4-3.7-25-10.4c-13.8-13.8-13.8-36.3,0-50.1l22-22c0.8-0.8,1.9-1.2,3-1.2
				s2.2,0.4,3,1.2l22,22c13.8,13.8,13.8,36.3,0,50.1C18.4,38.2,9.5,41.9,0,41.9L0,41.9z"/>
		</g>
		<path class="st1" d="M10.9-4.6c-6.1-6.1-15.9-6.1-21.9,0c-6.1,6.1-6.1,15.9,0,21.9c6.1,6.1,15.9,6.1,21.9,0
			C16.9,11.3,16.9,1.4,10.9-4.6z"/>
	</g>
</symbol>
<radialGradient id="SVGID_1_" cx="70.6143" cy="158.3329" r="29.3111" gradientTransform="matrix(1 0 0 0.5 0 87.178)" gradientUnits="userSpaceOnUse">
	<stop  offset="0" style="stop-color:#000000;stop-opacity:0.2"/>
	<stop  offset="1" style="stop-color:#000000;stop-opacity:0"/>
</radialGradient>
<ellipse class="st2" cx="70.6" cy="166.3" rx="48.3" ry="28"/>
<use xlink:href="#_x30_3_pin_verde_borda"  width="70.8" height="83.8" id="XMLID_210_" x="-35.4" y="-41.9" transform="matrix(2.0039 0 0 -2.0039 70.9941 83.985)" style="overflow:visible;"/>
</svg>
