<?xml version="1.0" encoding="utf-8"?>
<!-- Generator: Adobe Illustrator 16.0.0, SVG Export Plug-In . SVG Version: 6.00 Build 0)  -->
<!DOCTYPE svg PUBLIC "-//W3C//DTD SVG 1.1//EN" "http://www.w3.org/Graphics/SVG/1.1/DTD/svg11.dtd">
<svg version="1.1" id="Layer_1" xmlns="http://www.w3.org/2000/svg" xmlns:xlink="http://www.w3.org/1999/xlink" x="0px" y="0px"
	 width="177.269px" height="177.278px" viewBox="-332.425 -26.929 177.269 177.278"
	 enable-background="new -332.425 -26.929 177.269 177.278" xml:space="preserve">
	<g>
		<path fill="#b3b3b3" d="M-243.797,139.011c-42.618,0-77.29-34.677-77.29-77.301c0-42.624,34.672-77.3,77.29-77.3
			c42.624,0,77.301,34.677,77.301,77.3C-166.496,104.334-201.173,139.011-243.797,139.011z"/>
		<path fill="#FFFFFF" d="M-243.797-4.252c36.372,0,65.963,29.59,65.963,65.962c0,36.371-29.591,65.962-65.963,65.962
			c-36.366,0-65.951-29.591-65.951-65.962C-309.748,25.338-280.163-4.252-243.797-4.252 M-243.797-26.929
			c-48.87,0-88.628,39.763-88.628,88.639s39.759,88.639,88.628,88.639c48.876,0,88.64-39.763,88.64-88.639
			S-194.92-26.929-243.797-26.929L-243.797-26.929z"/>
	</g>
</svg>
