<?xml version="1.0" encoding="utf-8"?>
<!-- Generator: Adobe Illustrator 16.0.0, SVG Export Plug-In . SVG Version: 6.00 Build 0)  -->
<!DOCTYPE svg PUBLIC "-//W3C//DTD SVG 1.1//EN" "http://www.w3.org/Graphics/SVG/1.1/DTD/svg11.dtd">
<svg version="1.1" id="Layer_1" xmlns="http://www.w3.org/2000/svg" xmlns:xlink="http://www.w3.org/1999/xlink" x="0px" y="0px"
	 width="177.268px" height="177.278px" viewBox="-24.011 -23.909 177.268 177.278"
	 enable-background="new -24.011 -23.909 177.268 177.278" xml:space="preserve">
<g id="XMLID_3_">
	<g>
		<g>
			<g>
				<path fill="#F16074" d="M64.618,142.031c-42.618,0-77.291-34.677-77.291-77.301c0-42.624,34.672-77.3,77.291-77.3
					c42.624,0,77.301,34.677,77.301,77.3C141.919,107.354,107.242,142.031,64.618,142.031z"/>
				<path fill="#FFFFFF" d="M64.618-1.232c36.37,0,65.962,29.59,65.962,65.962s-29.592,65.962-65.962,65.962
					c-36.366,0-65.952-29.591-65.952-65.962S28.252-1.232,64.618-1.232 M64.618-23.909c-48.87,0-88.629,39.763-88.629,88.639
					s39.759,88.639,88.629,88.639c48.876,0,88.639-39.763,88.639-88.639S113.494-23.909,64.618-23.909L64.618-23.909z"/>
			</g>
		</g>
	</g>
	<g id="New_Symbol_7">
	</g>
</g>
</svg>
