<?xml version="1.0" encoding="utf-8"?>
<!-- Generator: Adobe Illustrator 16.0.0, SVG Export Plug-In . SVG Version: 6.00 Build 0)  -->
<!DOCTYPE svg PUBLIC "-//W3C//DTD SVG 1.1//EN" "http://www.w3.org/Graphics/SVG/1.1/DTD/svg11.dtd">
<svg version="1.1" id="Layer_1" xmlns="http://www.w3.org/2000/svg" xmlns:xlink="http://www.w3.org/1999/xlink" x="0px" y="0px"
	 width="288.831px" height="342.497px" viewBox="0 0 288.831 342.497" enable-background="new 0 0 288.831 342.497"
	 xml:space="preserve">
<g id="Star_-_Orange">
</g>
<g>
	<g>
		<g>
			<path fill="#47B970" d="M289.658,136.024c0,74.872-64.656,135.57-144.416,135.57c-59.619,0-110.809-33.921-132.855-82.339
				c-7.441-16.336-11.561-34.334-11.561-53.231C0.826,61.147,65.482,0.45,145.242,0.45S289.658,61.147,289.658,136.024z"/>
			<polyline fill="#47B970" points="145.242,342.944 249.539,229.996 39.354,228.152 			"/>
		</g>
	</g>
</g>
<g>
	<circle fill="#FFFFFF" cx="141.385" cy="143.05" r="8.124"/>
	<g>
		
			<path fill="none" stroke="#FFFFFF" stroke-width="5.6693" stroke-linecap="round" stroke-linejoin="round" stroke-dasharray="32.0723,14.4325,16.0361,14.4325,6.4144,14.4325" d="
			M122.373,141.919c0.101,17.203-13.761,31.229-30.963,31.33c-17.199,0.1-31.224-13.765-31.324-30.968
			c-0.1-17.199,13.763-31.225,30.961-31.324C108.25,110.858,122.273,124.72,122.373,141.919z"/>
	</g>
	<g>
		
			<path fill="none" stroke="#FFFFFF" stroke-width="5.6693" stroke-linecap="round" stroke-linejoin="round" stroke-dasharray="32.0724,14.4325,16.0361,14.4325,6.4145,14.4325" d="
			M230.163,138.305c2.096,17.074-10.044,32.615-27.118,34.713c-17.071,2.096-32.609-10.047-34.707-27.121
			c-2.096-17.071,10.043-32.61,27.114-34.708C212.527,109.092,228.065,121.234,230.163,138.305z"/>
	</g>
	
		<line fill="none" stroke="#FFFFFF" stroke-width="5.6693" stroke-linecap="round" stroke-linejoin="round" stroke-miterlimit="10" x1="176.047" y1="97.413" x2="117.93" y2="97.75"/>
	
		<path fill="none" stroke="#FFFFFF" stroke-width="5.6693" stroke-linecap="round" stroke-linejoin="round" stroke-miterlimit="10" d="
		M113.809,87.114"/>
	
		<path fill="none" stroke="#FFFFFF" stroke-width="5.6693" stroke-linecap="round" stroke-linejoin="round" stroke-miterlimit="10" d="
		M117.93,97.75"/>
	
		<line fill="none" stroke="#FFFFFF" stroke-width="5.6693" stroke-linecap="round" stroke-linejoin="round" stroke-miterlimit="10" x1="170.665" y1="85.225" x2="199.25" y2="142.102"/>
	
		<line fill="none" stroke="#FFFFFF" stroke-width="5.6693" stroke-linecap="round" stroke-linejoin="round" stroke-miterlimit="10" x1="170.665" y1="85.225" x2="185.801" y2="85.137"/>
	
		<polyline fill="none" stroke="#FFFFFF" stroke-width="5.6693" stroke-linecap="round" stroke-linejoin="round" stroke-miterlimit="10" points="
		178.49,101.64 141.382,142.438 117.93,97.75 90.087,142.737 141.382,142.438 	"/>
	<polygon stroke="#FFFFFF" stroke-width="5.6693" stroke-linecap="round" stroke-linejoin="round" stroke-miterlimit="10" points="
		106.215,86.621 127.072,86.5 114.248,91.366 	"/>
	
		<path fill="none" stroke="#FFFFFF" stroke-width="5.6693" stroke-linecap="round" stroke-linejoin="round" stroke-miterlimit="10" d="
		M90.087,142.737"/>
	
		<line fill="none" stroke="#FFFFFF" stroke-width="5.6693" stroke-linecap="round" stroke-linejoin="round" stroke-miterlimit="10" x1="141.382" y1="142.438" x2="113.824" y2="89.679"/>
</g>
</svg>
