<?xml version="1.0" encoding="utf-8"?>
<!-- Generator: Adobe Illustrator 16.0.0, SVG Export Plug-In . SVG Version: 6.00 Build 0)  -->
<!DOCTYPE svg PUBLIC "-//W3C//DTD SVG 1.1//EN" "http://www.w3.org/Graphics/SVG/1.1/DTD/svg11.dtd">
<svg version="1.1" id="Layer_1" xmlns="http://www.w3.org/2000/svg" xmlns:xlink="http://www.w3.org/1999/xlink" x="0px" y="0px"
	 width="142px" height="168px" viewBox="-8.04 -8.025 142 168" enable-background="new -8.04 -8.025 142 168" xml:space="preserve">
<symbol  id="_x30_3_pin_verde_borda" viewBox="-35.41 -41.888 70.82 83.774">
	<g id="Deleted_Symbol_3_">
		<g>
			<path fill="#30bb6a" d="M0.005-39.762c-0.544,0-1.088,0.207-1.503,0.622l-22.047,22.042c-12.986,12.986-12.986,34.117,0,47.103
				C-17.259,36.296-8.897,39.762,0,39.762s17.26-3.466,23.546-9.757c12.984-12.985,12.984-34.116,0-47.102L1.509-39.139
				C1.094-39.554,0.549-39.762,0.005-39.762z"/>
			<path fill="#FFFFFF" d="M0,37.635c7.979,0,15.958-3.044,22.042-9.133c12.178-12.179,12.178-31.917,0-44.096L0.005-37.636
				l-22.047,22.042c-12.178,12.179-12.178,31.917,0,44.096C-15.958,34.591-7.979,37.635,0,37.635 M0,41.887
				c-9.466,0-18.362-3.686-25.05-10.379c-13.813-13.814-13.813-36.293,0.001-50.108l22.048-22.042
				c0.83-0.83,1.918-1.245,3.006-1.245c1.088,0,2.177,0.415,3.007,1.246L25.05-18.6c13.814,13.814,13.814,36.293,0,50.108
				C18.363,38.201,9.466,41.887,0,41.887L0,41.887z"/>
		</g>
		<path fill="#FFFFFF" d="M10.853-4.617c-6.057-6.062-15.876-6.062-21.928,0c-6.057,6.052-6.057,15.872,0,21.929
			c6.052,6.052,15.872,6.052,21.928,0C16.915,11.255,16.915,1.435,10.853-4.617z"/>
	</g>
</symbol> 
<g id="New_Symbol_6_2_">
	<g>
		<g>
			<path fill="#30bb6a" d="M107.19,18.396c24.528,24.529,24.528,64.285,0,88.814l-44.387,44.406L18.397,107.21
				c-24.529-24.529-24.529-64.286,0-88.814C42.905-6.132,82.681-6.132,107.19,18.396z M84.651,85.104
				c12.217-12.194,12.217-31.974,0-44.17c-12.193-12.195-31.976-12.195-44.17,0c-12.195,12.196-12.195,31.976,0,44.17
				C52.675,97.319,72.458,97.319,84.651,85.104z"/>
			<path fill="#FFFFFF" d="M84.651,40.935c12.217,12.196,12.217,31.976,0,44.17c-12.193,12.215-31.976,12.215-44.17,0
				c-12.195-12.194-12.195-31.974,0-44.17C52.675,28.74,72.458,28.74,84.651,40.935z"/>
		</g>
		<g>
			<path fill="none" d="M107.19,107.21c24.528-24.529,24.528-64.286,0-88.814c-24.509-24.528-64.285-24.528-88.793,0
				c-24.529,24.529-24.529,64.285,0,88.814l44.406,44.406L107.19,107.21z"/>
			<path fill="none" d="M84.651,85.104c-12.193,12.215-31.976,12.215-44.17,0c-12.195-12.194-12.195-31.974,0-44.17
				c12.194-12.195,31.977-12.195,44.17,0C96.868,53.131,96.868,72.91,84.651,85.104z"/>
		</g>
	</g>
</g>
<use xlink:href="#_x30_3_pin_verde_borda"  width="70.82" height="83.774" id="XMLID_210_" x="-35.41" y="-41.888" transform="matrix(2.0039 0 0 -2.0039 62.9541 75.958)" overflow="visible"/>
</svg>
