<?xml version="1.0" encoding="utf-8"?>
<!-- Generator: Adobe Illustrator 16.0.0, SVG Export Plug-In . SVG Version: 6.00 Build 0)  -->
<!DOCTYPE svg PUBLIC "-//W3C//DTD SVG 1.1//EN" "http://www.w3.org/Graphics/SVG/1.1/DTD/svg11.dtd">
<svg version="1.1" id="Layer_1" xmlns="http://www.w3.org/2000/svg" xmlns:xlink="http://www.w3.org/1999/xlink" x="0px" y="0px"
	 width="707.704px" height="898.207px" viewBox="0 0 707.704 898.207" enable-background="new 0 0 707.704 898.207"
	 xml:space="preserve">
<g>
	<g>
		<path fill="#47B970" d="M707.704,358.122c0,195.428-158.42,353.855-353.849,353.855c-146.086,0-271.512-88.536-325.527-214.912
			C10.092,454.418,0,407.447,0,358.122C0,162.688,158.421,4.267,353.855,4.267C549.284,4.267,707.704,162.688,707.704,358.122z"/>
		<polyline fill="#47B970" points="353.855,898.207 609.403,603.399 94.4,598.59 		"/>
	</g>
</g>
<g>
	
		<path fill="none" stroke="#FFFFFF" stroke-width="13.6762" stroke-linecap="round" stroke-linejoin="round" stroke-miterlimit="10" d="
		M296.29,366.777c0,45.295-36.722,82.014-82.021,82.014c-45.296,0-82.017-36.719-82.017-82.014
		c0-45.299,36.721-82.023,82.017-82.023C259.568,284.754,296.29,321.478,296.29,366.777z"/>
	
		<path fill="none" stroke="#FFFFFF" stroke-width="13.6762" stroke-linecap="round" stroke-linejoin="round" stroke-miterlimit="10" d="
		M581.865,366.777c0,45.295-36.722,82.014-82.021,82.014c-45.298,0-82.019-36.719-82.019-82.014
		c0-45.299,36.721-82.023,82.019-82.023C545.144,284.754,581.865,321.478,581.865,366.777z"/>
	
		<path fill="none" stroke="#FFFFFF" stroke-width="13.6762" stroke-linecap="round" stroke-linejoin="round" stroke-miterlimit="10" d="
		M231.827,366.777c0,9.692-7.861,17.551-17.559,17.551s-17.556-7.859-17.556-17.551c0-9.704,7.858-17.56,17.556-17.56
		S231.827,357.073,231.827,366.777z"/>
	
		<path fill="none" stroke="#FFFFFF" stroke-width="13.6762" stroke-linecap="round" stroke-linejoin="round" stroke-miterlimit="10" d="
		M380.493,366.777c0,14.794-12,26.801-26.803,26.801c-14.807,0-26.805-12.007-26.805-26.801c0-14.813,11.998-26.808,26.805-26.808
		C368.493,339.969,380.493,351.964,380.493,366.777z"/>
	
		<path fill="none" stroke="#FFFFFF" stroke-width="13.6762" stroke-linecap="round" stroke-linejoin="round" stroke-miterlimit="10" d="
		M517.404,365.868c0,9.694-7.858,17.553-17.556,17.553s-17.561-7.859-17.561-17.553c0-9.699,7.863-17.558,17.561-17.558
		S517.404,356.168,517.404,365.868z"/>
	
		<line fill="none" stroke="#FFFFFF" stroke-width="13.6762" stroke-linecap="round" stroke-linejoin="round" stroke-miterlimit="10" x1="214.269" y1="349.217" x2="353.69" y2="339.969"/>
	
		<line fill="none" stroke="#FFFFFF" stroke-width="13.6762" stroke-linecap="round" stroke-linejoin="round" stroke-miterlimit="10" x1="214.269" y1="384.328" x2="353.69" y2="393.578"/>
	
		<line fill="none" stroke="#FFFFFF" stroke-width="13.6762" stroke-linecap="round" stroke-linejoin="round" stroke-miterlimit="10" x1="198.379" y1="359.341" x2="272.679" y2="240.803"/>
	
		<polyline fill="none" stroke="#FFFFFF" stroke-width="13.6762" stroke-linecap="round" stroke-linejoin="round" stroke-miterlimit="10" points="
		494.31,349.212 433.698,189.342 396.308,189.342 	"/>
	
		<line fill="none" stroke="#FFFFFF" stroke-width="13.6762" stroke-linecap="round" stroke-linejoin="round" stroke-miterlimit="10" x1="341.661" y1="342.822" x2="260.261" y2="222.432"/>
	
		<line fill="none" stroke="#FFFFFF" stroke-width="13.6762" stroke-linecap="round" stroke-linejoin="round" stroke-miterlimit="10" x1="368.517" y1="344.438" x2="453.544" y2="251.664"/>
	
		<path fill="none" stroke="#FFFFFF" stroke-width="13.6762" stroke-linecap="round" stroke-linejoin="round" stroke-miterlimit="10" d="
		M296.061,210.773c0,6.437-5.218,11.657-11.659,11.657h-42.365c-6.439,0-11.659-5.22-11.659-11.657l0,0
		c0-6.439,5.22-11.661,11.659-11.661h42.365C290.843,199.112,296.061,204.334,296.061,210.773L296.061,210.773z"/>
	
		<line fill="none" stroke="#FFFFFF" stroke-width="13.6762" stroke-linecap="round" stroke-linejoin="round" stroke-miterlimit="10" x1="353.69" y1="366.775" x2="381.104" y2="418.421"/>
	
		<line fill="none" stroke="#FFFFFF" stroke-width="13.6762" stroke-linecap="round" stroke-linejoin="round" stroke-miterlimit="10" x1="365.132" y1="421.926" x2="399.172" y2="421.926"/>
	
		<line fill="none" stroke="#FFFFFF" stroke-width="13.6762" stroke-linecap="round" stroke-linejoin="round" stroke-miterlimit="10" x1="445.31" y1="219.96" x2="392.291" y2="278.317"/>
	
		<path fill="none" stroke="#FFFFFF" stroke-width="13.6762" stroke-linecap="round" stroke-linejoin="round" stroke-miterlimit="10" d="
		M272.679,240.803c0,0,58.785,99.863,119.612,37.514"/>
	
		<path fill="none" stroke="#FFFFFF" stroke-width="13.6762" stroke-linecap="round" stroke-linejoin="round" stroke-miterlimit="10" d="
		M520.93,311.038c0,0,30.503,4.903,38.97,43.271"/>
	
		<path fill="none" stroke="#FFFFFF" stroke-width="13.6762" stroke-linecap="round" stroke-linejoin="round" stroke-miterlimit="10" d="
		M198.37,422.511c0,0-30.503-4.903-38.969-43.271"/>
</g>
</svg>
