<?xml version="1.0" encoding="utf-8"?>
<!-- Generator: Adobe Illustrator 16.0.0, SVG Export Plug-In . SVG Version: 6.00 Build 0)  -->
<!DOCTYPE svg PUBLIC "-//W3C//DTD SVG 1.1//EN" "http://www.w3.org/Graphics/SVG/1.1/DTD/svg11.dtd">
<svg version="1.1" id="Layer_1" xmlns="http://www.w3.org/2000/svg" xmlns:xlink="http://www.w3.org/1999/xlink" x="0px" y="0px"
	 width="265.31px" height="265.309px" viewBox="0 0 265.31 265.309" enable-background="new 0 0 265.31 265.309"
	 xml:space="preserve">
<g>
	<circle fill="#EFEFEF" cx="132.655" cy="132.654" r="132.655"/>
</g>
<circle fill="#4C4C4C" stroke="#FFFFFF" stroke-miterlimit="10" cx="130.771" cy="131.001" r="9.198"/>
<path fill="#F7F7F7" d="M109.246,129.722c0.113,19.477-15.58,35.357-35.057,35.47c-19.473,0.113-35.352-15.584-35.465-35.06
	c-0.113-19.473,15.582-35.353,35.055-35.466C93.256,94.553,109.133,110.249,109.246,129.722z"/>
<path fill="#F7F7F7" d="M231.285,125.629c2.373,19.331-11.371,36.927-30.703,39.301c-19.327,2.374-36.92-11.374-39.295-30.704
	c-2.373-19.329,11.371-36.923,30.699-39.297C211.318,92.555,228.91,106.301,231.285,125.629z"/>
<line fill="none" stroke="#4C4C4C" stroke-width="5.6693" stroke-linecap="round" stroke-linejoin="round" stroke-miterlimit="10" x1="170.016" y1="79.331" x2="104.216" y2="79.714"/>
<path fill="none" stroke="#4C4C4C" stroke-width="5.6693" stroke-linecap="round" stroke-linejoin="round" stroke-miterlimit="10" d="
	M99.549,67.671"/>
<path fill="none" stroke="#4C4C4C" stroke-width="5.6693" stroke-linecap="round" stroke-linejoin="round" stroke-miterlimit="10" d="
	M104.216,79.714"/>
<line fill="none" stroke="#4C4C4C" stroke-width="5.6693" stroke-linecap="round" stroke-linejoin="round" stroke-miterlimit="10" x1="163.922" y1="65.531" x2="196.285" y2="129.929"/>
<line fill="none" stroke="#4C4C4C" stroke-width="5.6693" stroke-linecap="round" stroke-linejoin="round" stroke-miterlimit="10" x1="163.922" y1="65.531" x2="181.059" y2="65.432"/>
<polyline fill="none" stroke="#4C4C4C" stroke-width="5.6693" stroke-linecap="round" stroke-linejoin="round" stroke-miterlimit="10" points="
	172.781,84.118 130.768,130.31 104.216,79.714 72.691,130.647 130.768,130.31 "/>
<polygon stroke="#4C4C4C" stroke-width="5.6693" stroke-linecap="round" stroke-linejoin="round" stroke-miterlimit="10" points="
	90.952,67.112 114.566,66.976 100.047,72.484 "/>
<path fill="none" stroke="#4C4C4C" stroke-width="5.6693" stroke-linecap="round" stroke-linejoin="round" stroke-miterlimit="10" d="
	M72.691,130.647"/>
<line fill="none" stroke="#4C4C4C" stroke-width="5.6693" stroke-linecap="round" stroke-linejoin="round" stroke-miterlimit="10" x1="130.768" y1="130.31" x2="99.566" y2="70.574"/>
<line fill="none" stroke="#4C4C4C" stroke-width="5.6693" stroke-linecap="round" stroke-linejoin="round" stroke-miterlimit="10" x1="31.49" y1="169.528" x2="242.741" y2="169.528"/>
</svg>
