<?xml version="1.0" encoding="utf-8"?>
<!-- Generator: Adobe Illustrator 16.0.0, SVG Export Plug-In . SVG Version: 6.00 Build 0)  -->
<!DOCTYPE svg PUBLIC "-//W3C//DTD SVG 1.1//EN" "http://www.w3.org/Graphics/SVG/1.1/DTD/svg11.dtd">
<svg version="1.1" id="Layer_1" xmlns="http://www.w3.org/2000/svg" xmlns:xlink="http://www.w3.org/1999/xlink" x="0px" y="0px"
	 width="365.854px" height="365.813px" viewBox="0 0 365.854 365.813" enable-background="new 0 0 365.854 365.813"
	 xml:space="preserve">
<g>
	
		<path fill="none" stroke="#47B970" stroke-width="28.2415" stroke-linecap="round" stroke-linejoin="round" stroke-miterlimit="10" d="
		M351.718,182.925c0,93.212-75.565,168.778-168.778,168.778c-93.214,0-168.781-75.566-168.781-168.778
		c0-93.218,75.567-168.783,168.781-168.783C276.153,14.142,351.718,89.708,351.718,182.925z"/>
	<path fill="none" stroke="#FFFFFF" stroke-width="4.7069" stroke-miterlimit="10" d="M356.048,182.921
		c0,95.604-77.501,173.107-173.106,173.107S9.835,278.525,9.835,182.921C9.835,87.32,87.337,9.816,182.942,9.816
		S356.048,87.32,356.048,182.921z"/>
	<g>
		<g>
			<g>
				
					<line fill="none" stroke="#47B970" stroke-width="3.1181" stroke-linecap="round" stroke-linejoin="round" stroke-miterlimit="10" x1="166.154" y1="182.923" x2="166.154" y2="28.949"/>
				
					<line fill="none" stroke="#47B970" stroke-width="3.1181" stroke-linecap="round" stroke-linejoin="round" stroke-miterlimit="10" x1="141.153" y1="33.865" x2="166.154" y2="182.923"/>
				
					<line fill="none" stroke="#47B970" stroke-width="3.1181" stroke-linecap="round" stroke-linejoin="round" stroke-miterlimit="10" x1="224.651" y1="33.865" x2="199.65" y2="182.923"/>
				
					<line fill="none" stroke="#47B970" stroke-width="3.1181" stroke-linecap="round" stroke-linejoin="round" stroke-miterlimit="10" x1="199.651" y1="182.884" x2="199.651" y2="28.949"/>
			</g>
			<g>
				
					<line fill="none" stroke="#47B970" stroke-width="3.1181" stroke-linecap="round" stroke-linejoin="round" stroke-miterlimit="10" x1="199.68" y1="182.923" x2="199.68" y2="336.898"/>
				
					<line fill="none" stroke="#47B970" stroke-width="3.1181" stroke-linecap="round" stroke-linejoin="round" stroke-miterlimit="10" x1="224.681" y1="331.982" x2="199.68" y2="182.923"/>
				
					<line fill="none" stroke="#47B970" stroke-width="3.1181" stroke-linecap="round" stroke-linejoin="round" stroke-miterlimit="10" x1="141.183" y1="331.982" x2="166.183" y2="182.923"/>
				
					<line fill="none" stroke="#47B970" stroke-width="3.1181" stroke-linecap="round" stroke-linejoin="round" stroke-miterlimit="10" x1="166.183" y1="182.962" x2="166.183" y2="336.898"/>
			</g>
		</g>
		<g>
			<g>
				
					<line fill="none" stroke="#47B970" stroke-width="3.1181" stroke-linecap="round" stroke-linejoin="round" stroke-miterlimit="10" x1="182.917" y1="199.973" x2="28.942" y2="199.973"/>
				
					<line fill="none" stroke="#47B970" stroke-width="3.1181" stroke-linecap="round" stroke-linejoin="round" stroke-miterlimit="10" x1="33.858" y1="224.974" x2="182.917" y2="199.973"/>
				
					<line fill="none" stroke="#47B970" stroke-width="3.1181" stroke-linecap="round" stroke-linejoin="round" stroke-miterlimit="10" x1="33.858" y1="141.476" x2="182.917" y2="166.477"/>
				
					<line fill="none" stroke="#47B970" stroke-width="3.1181" stroke-linecap="round" stroke-linejoin="round" stroke-miterlimit="10" x1="182.878" y1="166.476" x2="28.942" y2="166.476"/>
			</g>
			<g>
				
					<line fill="none" stroke="#47B970" stroke-width="3.1181" stroke-linecap="round" stroke-linejoin="round" stroke-miterlimit="10" x1="182.917" y1="166.448" x2="336.892" y2="166.448"/>
				
					<line fill="none" stroke="#47B970" stroke-width="3.1181" stroke-linecap="round" stroke-linejoin="round" stroke-miterlimit="10" x1="331.976" y1="141.447" x2="182.917" y2="166.448"/>
				
					<line fill="none" stroke="#47B970" stroke-width="3.1181" stroke-linecap="round" stroke-linejoin="round" stroke-miterlimit="10" x1="331.976" y1="224.945" x2="182.917" y2="199.944"/>
				
					<line fill="none" stroke="#47B970" stroke-width="3.1181" stroke-linecap="round" stroke-linejoin="round" stroke-miterlimit="10" x1="182.956" y1="199.945" x2="336.892" y2="199.945"/>
			</g>
		</g>
	</g>
	<g>
		<g>
			<g>
				
					<line fill="none" stroke="#47B970" stroke-width="3.1181" stroke-linecap="round" stroke-linejoin="round" stroke-miterlimit="10" x1="171.096" y1="171.038" x2="279.972" y2="62.162"/>
				
					<line fill="none" stroke="#47B970" stroke-width="3.1181" stroke-linecap="round" stroke-linejoin="round" stroke-miterlimit="10" x1="258.818" y1="47.959" x2="171.096" y2="171.038"/>
				
					<line fill="none" stroke="#47B970" stroke-width="3.1181" stroke-linecap="round" stroke-linejoin="round" stroke-miterlimit="10" x1="317.861" y1="107.001" x2="194.781" y2="194.723"/>
				
					<line fill="none" stroke="#47B970" stroke-width="3.1181" stroke-linecap="round" stroke-linejoin="round" stroke-miterlimit="10" x1="194.81" y1="194.696" x2="303.658" y2="85.847"/>
			</g>
			<g>
				
					<line fill="none" stroke="#47B970" stroke-width="3.1181" stroke-linecap="round" stroke-linejoin="round" stroke-miterlimit="10" x1="194.802" y1="194.745" x2="85.926" y2="303.621"/>
				
					<line fill="none" stroke="#47B970" stroke-width="3.1181" stroke-linecap="round" stroke-linejoin="round" stroke-miterlimit="10" x1="107.08" y1="317.823" x2="194.802" y2="194.745"/>
				
					<line fill="none" stroke="#47B970" stroke-width="3.1181" stroke-linecap="round" stroke-linejoin="round" stroke-miterlimit="10" x1="48.038" y1="258.781" x2="171.117" y2="171.058"/>
				
					<line fill="none" stroke="#47B970" stroke-width="3.1181" stroke-linecap="round" stroke-linejoin="round" stroke-miterlimit="10" x1="171.088" y1="171.085" x2="62.24" y2="279.934"/>
			</g>
		</g>
		<g>
			<g>
				
					<line fill="none" stroke="#47B970" stroke-width="3.1181" stroke-linecap="round" stroke-linejoin="round" stroke-miterlimit="10" x1="170.893" y1="194.947" x2="62.017" y2="86.071"/>
				
					<line fill="none" stroke="#47B970" stroke-width="3.1181" stroke-linecap="round" stroke-linejoin="round" stroke-miterlimit="10" x1="47.814" y1="107.225" x2="170.893" y2="194.947"/>
				
					<line fill="none" stroke="#47B970" stroke-width="3.1181" stroke-linecap="round" stroke-linejoin="round" stroke-miterlimit="10" x1="106.856" y1="48.183" x2="194.579" y2="171.262"/>
				
					<line fill="none" stroke="#47B970" stroke-width="3.1181" stroke-linecap="round" stroke-linejoin="round" stroke-miterlimit="10" x1="194.552" y1="171.234" x2="85.703" y2="62.384"/>
			</g>
			<g>
				
					<line fill="none" stroke="#47B970" stroke-width="3.1181" stroke-linecap="round" stroke-linejoin="round" stroke-miterlimit="10" x1="194.599" y1="171.241" x2="303.476" y2="280.118"/>
				
					<line fill="none" stroke="#47B970" stroke-width="3.1181" stroke-linecap="round" stroke-linejoin="round" stroke-miterlimit="10" x1="317.677" y1="258.963" x2="194.599" y2="171.241"/>
				
					<line fill="none" stroke="#47B970" stroke-width="3.1181" stroke-linecap="round" stroke-linejoin="round" stroke-miterlimit="10" x1="258.636" y1="318.005" x2="170.914" y2="194.926"/>
				
					<line fill="none" stroke="#47B970" stroke-width="3.1181" stroke-linecap="round" stroke-linejoin="round" stroke-miterlimit="10" x1="170.941" y1="194.955" x2="279.79" y2="303.803"/>
			</g>
		</g>
	</g>
	
		<path fill="none" stroke="#47B970" stroke-width="1.8137" stroke-linecap="round" stroke-linejoin="round" stroke-miterlimit="10" d="
		M199.786,198.782"/>
	<g>
		
			<path fill="none" stroke="#47B970" stroke-width="22.6772" stroke-linecap="round" stroke-linejoin="round" stroke-miterlimit="10" d="
			M193.776,182.912c0,5.99-4.855,10.845-10.844,10.845c-5.991,0-10.845-4.854-10.845-10.845c0-5.986,4.854-10.845,10.845-10.845
			C188.921,172.067,193.776,176.925,193.776,182.912z"/>
		<circle fill="#47B970" stroke="#FFFFFF" stroke-width="2.8346" stroke-miterlimit="10" cx="182.942" cy="182.922" r="5.451"/>
		
			<path fill="none" stroke="#FFFFFF" stroke-width="3.4016" stroke-linecap="round" stroke-miterlimit="10" stroke-dasharray="0.4965,5.2134" d="
			M198.358,182.911c0,8.527-6.904,15.431-15.423,15.431c-8.522,0-15.431-6.903-15.431-15.431c0-8.518,6.909-15.429,15.431-15.429
			C191.454,167.482,198.358,174.393,198.358,182.911z"/>
	</g>
</g>
</svg>
