<?xml version="1.0" encoding="utf-8"?>
<!-- Generator: Adobe Illustrator 16.0.0, SVG Export Plug-In . SVG Version: 6.00 Build 0)  -->
<!DOCTYPE svg PUBLIC "-//W3C//DTD SVG 1.1//EN" "http://www.w3.org/Graphics/SVG/1.1/DTD/svg11.dtd">
<svg version="1.1" id="Layer_1" xmlns="http://www.w3.org/2000/svg" xmlns:xlink="http://www.w3.org/1999/xlink" x="0px" y="0px"
	 width="110.401px" height="110.386px" viewBox="0 0 110.401 110.386" enable-background="new 0 0 110.401 110.386"
	 xml:space="preserve">
<g>
	
		<line id="raio_15_" fill="none" stroke="#47B970" stroke-width="2.2496" stroke-linecap="round" stroke-linejoin="round" stroke-miterlimit="10" x1="54.837" y1="63.865" x2="54.837" y2="101.563"/>
	
		<line id="raio_14_" fill="none" stroke="#47B970" stroke-width="2.2496" stroke-linecap="round" stroke-linejoin="round" stroke-miterlimit="10" x1="54.837" y1="8.901" x2="54.837" y2="47.823"/>
	
		<line id="raio_13_" fill="none" stroke="#47B970" stroke-width="2.2496" stroke-linecap="round" stroke-linejoin="round" stroke-miterlimit="10" x1="46.881" y1="55.139" x2="8.797" y2="55.139"/>
	
		<line id="raio_12_" fill="none" stroke="#47B970" stroke-width="2.2496" stroke-linecap="round" stroke-linejoin="round" stroke-miterlimit="10" x1="101.563" y1="55.139" x2="62.756" y2="55.139"/>
	
		<line id="raio_11_" fill="none" stroke="#47B970" stroke-width="2.2496" stroke-linecap="round" stroke-linejoin="round" stroke-miterlimit="10" x1="60.955" y1="61.158" x2="88.063" y2="87.834"/>
	
		<line id="raio_10_" fill="none" stroke="#47B970" stroke-width="2.2496" stroke-linecap="round" stroke-linejoin="round" stroke-miterlimit="10" x1="21.939" y1="22.764" x2="49.429" y2="49.816"/>
	
		<line id="raio_9_" fill="none" stroke="#47B970" stroke-width="2.2496" stroke-linecap="round" stroke-linejoin="round" stroke-miterlimit="10" x1="48.695" y1="61.182" x2="21.794" y2="87.652"/>
	
		<line id="raio_8_" fill="none" stroke="#47B970" stroke-width="2.2496" stroke-linecap="round" stroke-linejoin="round" stroke-miterlimit="10" x1="88.063" y1="22.443" x2="60.1" y2="49.959"/>
	
		<line id="raio_7_" fill="none" stroke="#47B970" stroke-width="2.2496" stroke-linecap="round" stroke-linejoin="round" stroke-miterlimit="10" x1="62.696" y1="58.167" x2="98.46" y2="71.95"/>
	
		<line id="raio_6_" fill="none" stroke="#47B970" stroke-width="2.2496" stroke-linecap="round" stroke-linejoin="round" stroke-miterlimit="10" x1="11.92" y1="38.599" x2="47.557" y2="52.332"/>
	
		<line id="raio_5_" fill="none" stroke="#47B970" stroke-width="2.2496" stroke-linecap="round" stroke-linejoin="round" stroke-miterlimit="10" x1="51.625" y1="63.213" x2="37.704" y2="98.193"/>
	
		<line id="raio_4_" fill="none" stroke="#47B970" stroke-width="2.2496" stroke-linecap="round" stroke-linejoin="round" stroke-miterlimit="10" x1="71.972" y1="12.084" x2="57.562" y2="48.296"/>
	
		<line id="raio_3_" fill="none" stroke="#47B970" stroke-width="2.2496" stroke-linecap="round" stroke-linejoin="round" stroke-miterlimit="10" x1="58.318" y1="63.104" x2="73.453" y2="97.875"/>
	
		<line id="raio_2_" fill="none" stroke="#47B970" stroke-width="2.2496" stroke-linecap="round" stroke-linejoin="round" stroke-miterlimit="10" x1="36.425" y1="12.805" x2="51.88" y2="48.313"/>
	
		<line id="raio_1_" fill="none" stroke="#47B970" stroke-width="2.2496" stroke-linecap="round" stroke-linejoin="round" stroke-miterlimit="10" x1="47.318" y1="58.307" x2="12.208" y2="73.095"/>
	
		<line id="raio" fill="none" stroke="#47B970" stroke-width="2.2496" stroke-linecap="round" stroke-linejoin="round" stroke-miterlimit="10" x1="97.85" y1="37.023" x2="61.957" y2="52.142"/>
</g>
<g>
	
		<circle id="aroexterno" fill="none" stroke="#47B970" stroke-width="2.2677" stroke-linecap="round" stroke-linejoin="round" stroke-miterlimit="10" cx="55.203" cy="55.211" r="54.063"/>
	
		<circle id="arointerno" fill="none" stroke="#47B970" stroke-width="5.6693" stroke-linecap="round" stroke-linejoin="round" stroke-miterlimit="10" cx="55.203" cy="55.185" r="49.188"/>
	
		<circle id="nucleoverde" fill="none" stroke="#47B970" stroke-width="8.5039" stroke-linecap="round" stroke-linejoin="round" stroke-miterlimit="10" cx="54.957" cy="55.953" r="4.112"/>
	
		<circle id="nucleobranco_1_" fill="none" stroke="#FFFFFF" stroke-width="1.4173" stroke-miterlimit="10" cx="54.838" cy="55.953" r="6.687"/>
	
		<circle id="nucleobranco" fill="none" stroke="#FFFFFF" stroke-width="1.4173" stroke-miterlimit="10" cx="54.838" cy="55.953" r="2.067"/>
	<path id="parafuso_11_" fill="none" stroke="#FFFFFF" stroke-width="0.7749" stroke-linecap="round" stroke-miterlimit="10" d="
		M52.423,52.021c0.148-0.11,0.273-0.207,0.441-0.292"/>
	<path id="parafuso_10_" fill="none" stroke="#FFFFFF" stroke-width="0.8504" stroke-linecap="round" stroke-miterlimit="10" d="
		M50.784,53.76c0.106-0.224,0.176-0.327,0.329-0.516"/>
	<path id="parafuso_9_" fill="none" stroke="#FFFFFF" stroke-width="0.8504" stroke-linecap="round" stroke-miterlimit="10" d="
		M50.294,56c-0.005-0.141-0.006-0.295-0.003-0.429"/>
	<path id="parafuso_8_" fill="none" stroke="#FFFFFF" stroke-width="0.8504" stroke-linecap="round" stroke-miterlimit="10" d="
		M50.921,58.383c-0.112-0.164-0.175-0.274-0.246-0.442"/>
	<path id="parafuso_7_" fill="none" stroke="#FFFFFF" stroke-width="0.8504" stroke-linecap="round" stroke-miterlimit="10" d="
		M52.75,60.061c-0.18-0.082-0.298-0.142-0.457-0.258"/>
	<path id="parafuso_6_" fill="none" stroke="#FFFFFF" stroke-width="0.8504" stroke-linecap="round" stroke-miterlimit="10" d="
		M55.18,60.556c-0.171,0-0.562,0.009-0.663,0"/>
	<path id="parafuso_5_" fill="none" stroke="#FFFFFF" stroke-width="0.8504" stroke-linecap="round" stroke-miterlimit="10" d="
		M57.369,59.804c-0.171,0.129-0.251,0.194-0.464,0.282"/>
	<path id="parafuso_4_" fill="none" stroke="#FFFFFF" stroke-width="0.8504" stroke-linecap="round" stroke-miterlimit="10" d="
		M58.958,58.021c-0.022,0.05-0.041,0.092-0.056,0.127c-0.083,0.193-0.086,0.201-0.207,0.346"/>
	<path id="parafuso_3_" fill="none" stroke="#FFFFFF" stroke-width="0.8504" stroke-linecap="round" stroke-miterlimit="10" d="
		M59.448,55.571c0,0.028-0.002,0.059-0.002,0.158c0,0.144-0.001,0.245-0.011,0.357"/>
	<path id="parafuso_2_" fill="none" stroke="#FFFFFF" stroke-width="0.7771" stroke-linecap="round" stroke-miterlimit="10" d="
		M58.674,53.407c0.136,0.164,0.233,0.299,0.328,0.479"/>
	<path id="parafuso_1_" fill="none" stroke="#FFFFFF" stroke-width="0.8504" stroke-linecap="round" stroke-miterlimit="10" d="
		M57.017,51.89c0.197,0.093,0.24,0.118,0.41,0.252"/>
	<path id="parafuso" fill="none" stroke="#FFFFFF" stroke-width="0.8032" stroke-linecap="round" stroke-miterlimit="10" d="
		M54.703,51.356c0.065-0.003,0.13-0.005,0.196-0.005c0.096,0,0.17,0.004,0.243,0.012"/>
</g>
</svg>
