<svg width="183" height="184" viewBox="0 0 183 184" fill="none" xmlns="http://www.w3.org/2000/svg">
<path fill-rule="evenodd" clip-rule="evenodd" d="M75.7756 5.23637C75.6831 5.14343 74.4882 3.96331 72.8861 4.76253C72.4954 5.00453 71.964 5.55137 71.8025 5.81074C71.716 5.98678 71.6034 6.29291 71.5696 6.41927C71.5125 6.65731 71.5042 6.84998 71.5018 6.91499C71.4985 7.00413 71.5005 7.07667 71.5022 7.11961C71.5081 7.262 71.5254 7.38672 71.531 7.42741L71.5313 7.42938C71.5474 7.54628 71.5715 7.68656 71.5962 7.82405C71.6482 8.11274 71.7292 8.53181 71.8351 9.06347C72.048 10.1324 72.3728 11.7135 72.7961 13.7463C73.6431 17.8145 74.8899 23.7191 76.4376 31.0158C78.0279 38.5137 79.9373 47.4881 82.0584 57.4576L82.0749 57.5351L82.0816 57.5666L82.1162 57.7292C83.8623 65.9362 85.7507 74.8122 87.7219 84.09C89.1802 83.2958 90.8639 82.8999 92.6068 83.0211C88.2229 62.3663 84.2937 43.7567 81.4082 30.0606C79.8737 22.7777 78.6344 16.8843 77.7787 12.8116C77.3508 10.7753 77.0189 9.19418 76.7939 8.12218L76.5381 6.90276L76.4729 6.59207L76.4565 6.51369L76.4523 6.49402L76.4513 6.4891L76.451 6.48787C76.451 6.4876 76.451 6.48747 74.0042 7.00043L76.451 6.48747C76.3517 6.01386 76.1171 5.57925 75.7756 5.23637ZM94.4528 83.3286C96.1466 83.78 97.5976 84.7211 98.7 85.9694C108.37 71.1538 117.058 57.8865 123.713 47.7385C127.838 41.4488 131.182 36.3575 133.494 32.8388C134.651 31.0794 135.549 29.7131 136.159 28.7868L136.852 27.7331L137.029 27.4647L137.073 27.3969L137.084 27.38L137.087 27.3757L137.088 27.3747C137.088 27.3744 137.088 27.3743 135 25.9996L137.088 27.3743C137.357 26.9662 137.5 26.4882 137.5 25.9996C135.718 23.6048 132.912 24.625 132.912 24.6252L132.911 24.6263L132.908 24.6306L132.897 24.6476L132.852 24.7155L132.675 24.9844L131.981 26.0389C131.372 26.9658 130.473 28.3326 129.316 30.0926C127.003 33.6126 123.658 38.7052 119.532 44.9965C112.861 55.1678 104.149 68.4722 94.4528 83.3286ZM99.9129 87.7217C100.69 89.184 101.082 90.8709 100.986 92.6054C119.383 88.6872 135.864 85.1926 148.356 82.5489C155.82 80.9694 161.86 79.6936 166.034 78.8127C168.121 78.3723 169.741 78.0306 170.84 77.799L172.09 77.5356L172.408 77.4685L172.488 77.4516L172.508 77.4473L172.513 77.4463L172.515 77.446C172.515 77.446 173.941 76.5747 174.5 74.9996C174.5 74.2462 174.16 73.5329 173.575 73.0582C172.99 72.5835 172.222 72.398 171.485 72.5532L172 74.9996C171.485 72.5532 171.485 72.5533 171.484 72.5533L171.484 72.5536L171.483 72.5536L171.478 72.5547L171.458 72.5589L171.377 72.5759L171.059 72.643L169.808 72.9065C168.709 73.1382 167.089 73.4799 165.001 73.9205C160.827 74.8015 154.786 76.0775 147.321 77.6573C134.82 80.3028 118.325 83.8002 99.9129 87.7217ZM100.511 94.973C99.9285 96.6286 98.8913 98.0366 97.5716 99.0743C112.916 109.075 126.665 118.01 137.124 124.799C143.461 128.912 148.59 132.236 152.135 134.533C153.908 135.681 155.285 136.573 156.218 137.177L157.28 137.864L157.551 138.04L157.619 138.084L157.636 138.095L157.641 138.098L157.642 138.098C157.642 138.099 157.642 138.099 159 136L157.642 138.099C158.716 138.793 160.14 138.566 160.944 137.572C161.748 136.578 161.672 135.137 160.769 134.233C160.677 134.14 160.596 134.075 160.576 134.058L160.575 134.058L160.574 134.057L160.552 134.039L160.526 134.019L160.498 133.998L160.466 133.974C160.447 133.96 160.43 133.948 160.419 133.939C160.381 133.912 160.34 133.884 160.302 133.858C160.223 133.804 160.118 133.734 159.991 133.649C159.735 133.478 159.365 133.233 158.89 132.92C157.939 132.294 156.55 131.384 154.772 130.222C151.215 127.898 146.092 124.559 139.769 120.446C129.381 113.69 115.753 104.844 100.511 94.973ZM96.2022 99.9641C94.7354 100.739 93.0475 101.113 91.3042 100.969C94.9168 118.013 98.1357 133.262 100.596 144.939C102.13 152.222 103.37 158.116 104.225 162.188C104.653 164.225 104.985 165.806 105.21 166.878L105.466 168.097L105.531 168.408L105.548 168.486L105.552 168.506L105.553 168.511L105.553 168.512C105.553 168.512 105.553 168.512 108 168V170.5C108.753 170.5 109.466 170.16 109.941 169.576C110.415 168.991 110.601 168.224 110.447 167.487L108 168C110.447 167.487 110.447 167.486 110.447 167.486L110.446 167.485L110.445 167.48L110.441 167.46L110.425 167.382L110.36 167.071L110.104 165.851C109.879 164.778 109.547 163.197 109.119 161.16C108.263 157.087 107.023 151.192 105.489 143.908C103.029 132.237 99.8126 116.997 96.2022 99.9641ZM89.1825 100.535C87.5286 99.9863 86.1137 98.9888 85.0565 97.7088C73.3941 115.455 62.9162 131.413 55.2063 143.182C51.0939 149.46 47.7678 154.548 45.4692 158.081C44.3204 159.846 43.4258 161.227 42.8174 162.175C42.514 162.648 42.2772 163.02 42.1142 163.28C42.0342 163.408 41.9637 163.523 41.9097 163.613C41.8849 163.655 41.8497 163.715 41.8155 163.778C41.8006 163.806 41.7669 163.869 41.7306 163.948C41.7136 163.985 41.678 164.065 41.6417 164.169L41.6404 164.172C41.6253 164.213 41.5 164.556 41.5 165C41.5 166.106 42.2274 167.081 43.2882 167.396C44.3489 167.711 45.4906 167.291 46.0947 166.364L44 165C46.0947 166.364 46.0947 166.364 46.0949 166.364L46.0956 166.363L46.0983 166.359L46.1094 166.342L46.1535 166.274L46.3285 166.005L47.0154 164.952C47.6194 164.025 48.5104 162.659 49.6584 160.9C51.9545 157.381 55.2785 152.289 59.3901 145.999C67.0866 134.226 77.5427 118.253 89.1825 100.535ZM84.0549 96.2158C83.2715 94.7517 82.8895 93.0647 83.0279 91.3212C62.6167 95.6715 44.2607 99.5642 30.6439 102.446C23.18 104.025 17.14 105.301 12.9662 106.182C10.8792 106.623 9.25883 106.964 8.16019 107.196L6.91046 107.459L6.59205 107.526L6.51172 107.543L6.49156 107.548L6.48652 107.549L6.48526 107.549C6.48498 107.549 6.48484 107.549 7 109.995L6.48484 107.549C5.32805 107.793 4.5 108.813 4.5 109.995C4.5 111.349 5.47503 112.019 5.83514 112.209C6.2047 112.404 6.53201 112.455 6.6281 112.47C6.86584 112.506 7.05934 112.5 7.10893 112.498L7.11172 112.498C7.25041 112.493 7.37157 112.478 7.42346 112.472C7.55363 112.455 7.70609 112.43 7.85484 112.404C8.16521 112.35 8.60669 112.266 9.15994 112.157C10.2727 111.937 11.9043 111.602 13.993 111.167C18.1735 110.295 24.2189 109.011 31.6833 107.418C38.0478 106.059 45.4378 104.477 53.5864 102.733L53.6851 102.712L53.6913 102.71L53.7218 102.704C62.9866 100.72 73.2281 98.5277 84.0549 96.2158ZM83.2863 89.7794C83.7249 88.0744 84.6317 86.5931 85.8409 85.4537C68.3252 74.0301 52.5509 63.7777 40.8755 56.2001C34.5391 52.0876 29.4099 48.7628 25.8647 46.4661C24.0921 45.3177 22.7155 44.4264 21.782 43.8221L20.7199 43.1347L20.4492 42.9596L20.3808 42.9153L20.3636 42.9042L20.3593 42.9014L20.3582 42.9007C20.358 42.9005 20.3578 42.9005 19 44.9996L20.3578 42.9005C19.2005 42.1518 17.6556 42.4812 16.9041 43.6367C16.1527 44.7923 16.4784 46.338 17.6321 47.0922L19 44.9996C17.6321 47.0922 17.6323 47.0922 17.6325 47.0924L17.6336 47.0931L17.6379 47.0959L17.6551 47.1072L17.7235 47.1519L17.9943 47.3288L19.0564 48.0227C19.9899 48.6324 21.3666 49.5313 23.1392 50.688C26.6845 53.0014 31.8138 56.3463 38.1503 60.4722C49.8636 68.0992 65.7024 78.3954 83.2863 89.7794Z" fill="#84ECC2"/>
<path d="M99.8864 93.446C99.0717 97.7842 94.9082 100.676 90.5636 99.8629C86.219 99.0495 83.3227 94.8921 84.1373 90.5539C84.9519 86.2157 89.1154 83.3236 93.46 84.137C97.8046 84.86 100.61 89.1078 99.8864 93.446Z" stroke="#219653" stroke-width="4" stroke-miterlimit="10"/>
<path d="M177.382 107.882C168.682 155.082 123.282 186.382 75.982 177.582C28.782 168.882 -2.51796 123.482 6.28204 76.1816C14.982 28.9816 60.382 -2.31838 107.682 6.48162C154.882 15.1816 186.082 60.5816 177.382 107.882Z" stroke="#219653" stroke-width="8" stroke-miterlimit="10" stroke-linecap="round" stroke-linejoin="round"/>
<path d="M170.662 106.569C162.664 149.955 120.926 178.726 77.4407 170.637C34.0477 162.64 5.2723 120.908 13.3625 77.4302C21.3608 34.0439 63.099 5.2729 106.584 13.3619C149.977 21.3589 178.66 63.0907 170.662 106.569Z" stroke="white" stroke-width="6" stroke-miterlimit="10" stroke-linecap="round" stroke-linejoin="round"/>
</svg>
