<?xml version="1.0" encoding="utf-8"?>
<!-- Generator: Adobe Illustrator 16.0.0, SVG Export Plug-In . SVG Version: 6.00 Build 0)  -->
<!DOCTYPE svg PUBLIC "-//W3C//DTD SVG 1.1//EN" "http://www.w3.org/Graphics/SVG/1.1/DTD/svg11.dtd">
<svg version="1.1" id="Layer_1" xmlns="http://www.w3.org/2000/svg" xmlns:xlink="http://www.w3.org/1999/xlink" x="0px" y="0px"
	 width="265.31px" height="265.309px" viewBox="0 0 265.31 265.309" enable-background="new 0 0 265.31 265.309"
	 xml:space="preserve">
<g>
	<circle fill="#EFEFEF" cx="132.655" cy="132.654" r="132.655"/>
	
		<line fill="none" stroke="#515151" stroke-width="4.252" stroke-linecap="round" stroke-linejoin="round" stroke-miterlimit="10" x1="39.307" y1="173.323" x2="226.003" y2="173.323"/>
	<g>
		<circle fill="#515151" cx="129.119" cy="137.315" r="8.738"/>
		<path fill="#EAEAEA" d="M104.146,113.985c12.128,16.68,8.439,40.033-8.242,52.162c-16.678,12.125-40.031,8.432-52.158-8.248
			c-12.127-16.678-8.436-40.029,8.242-52.156C68.669,93.614,92.021,97.306,104.146,113.985z"/>
		<path fill="#EAEAEA" d="M170.369,166.824c-17.055-11.595-21.482-34.82-9.887-51.875c11.595-17.053,34.819-21.477,51.874-9.883
			c17.052,11.595,21.479,34.818,9.886,51.871C210.646,173.993,187.423,178.418,170.369,166.824z"/>
		
			<line fill="none" stroke="#515151" stroke-width="4.252" stroke-linecap="round" stroke-linejoin="round" stroke-miterlimit="10" x1="166.686" y1="88.447" x2="104.176" y2="88.447"/>
		
			<path fill="none" stroke="#515151" stroke-width="4.252" stroke-linecap="round" stroke-linejoin="round" stroke-miterlimit="10" d="
			M99.809,76.981"/>
		
			<path fill="none" stroke="#515151" stroke-width="4.252" stroke-linecap="round" stroke-linejoin="round" stroke-miterlimit="10" d="
			M104.176,88.447"/>
		
			<line fill="none" stroke="#515151" stroke-width="4.252" stroke-linecap="round" stroke-linejoin="round" stroke-miterlimit="10" x1="160.973" y1="75.304" x2="191.361" y2="136.659"/>
		
			<line fill="none" stroke="#515151" stroke-width="4.252" stroke-linecap="round" stroke-linejoin="round" stroke-miterlimit="10" x1="160.973" y1="75.304" x2="177.254" y2="75.304"/>
		
			<polyline fill="none" stroke="#515151" stroke-width="4.252" stroke-linecap="round" stroke-linejoin="round" stroke-miterlimit="10" points="
			168.109,89.713 129.118,136.659 104.176,88.447 73.947,136.659 129.118,136.659 		"/>
		
			<polygon fill="none" stroke="#515151" stroke-width="4.252" stroke-linecap="round" stroke-linejoin="round" stroke-miterlimit="10" points="
			91.645,76.403 114.08,76.403 100.254,81.558 		"/>
		
			<path fill="none" stroke="#515151" stroke-width="4.252" stroke-linecap="round" stroke-linejoin="round" stroke-miterlimit="10" d="
			M73.947,136.659"/>
		
			<line fill="none" stroke="#515151" stroke-width="4.252" stroke-linecap="round" stroke-linejoin="round" stroke-miterlimit="10" x1="129.118" y1="136.659" x2="99.809" y2="79.74"/>
	</g>
</g>
</svg>
