<?xml version="1.0" encoding="utf-8"?>
<!-- Generator: Adobe Illustrator 19.0.0, SVG Export Plug-In . SVG Version: 6.00 Build 0)  -->
<svg version="1.1" id="Layer_1" xmlns="http://www.w3.org/2000/svg" xmlns:xlink="http://www.w3.org/1999/xlink" x="0px" y="0px"
	 viewBox="0 0 116.4 43.2" style="enable-background:new 0 0 116.4 43.2;" xml:space="preserve">
<style type="text/css">
	.st0{fill:#828b90;}
</style>
<g id="XMLID_2_">
	<line id="XMLID_40_" class="st0" x1="12.8" y1="6.8" x2="113.5" y2="40.2"/>
	<g id="XMLID_35_">
		<path id="XMLID_6_" class="st0" d="M12,9.7c29.3,9.7,58.7,19.4,88,29.1c4.2,1.4,8.4,2.8,12.7,4.2c3.7,1.2,5.2-4.6,1.6-5.8
			C85,27.6,55.6,17.9,26.3,8.1C22,6.7,17.8,5.3,13.6,3.9C9.9,2.7,8.3,8.5,12,9.7L12,9.7z"/>
	</g>
</g>
<g id="XMLID_3_">
	<polyline id="XMLID_33_" class="st0" points="101.4,6.8 57.6,21.7 2.9,40.2 	"/>
	<g id="XMLID_28_">
		<path id="XMLID_5_" class="st0" d="M100.6,3.9c-26.4,8.9-52.8,17.8-79.1,26.8c-6.5,2.2-13,4.4-19.4,6.6c-3.6,1.2-2.1,7,1.6,5.8
			c25.6-8.6,51.1-17.3,76.7-25.9c7.3-2.5,14.6-4.9,21.9-7.4C105.9,8.5,104.3,2.7,100.6,3.9L100.6,3.9z"/>
	</g>
</g>
<g id="XMLID_1_">
	<path id="XMLID_26_" class="st0" d="M63.1,23.5"/>
	<g id="XMLID_21_">
		<path id="XMLID_4_" class="st0" d="M63.1,26.5c3.9,0,3.9-6,0-6C59.3,20.5,59.3,26.5,63.1,26.5L63.1,26.5z"/>
	</g>
</g>
</svg>
