<?xml version="1.0" encoding="utf-8"?>
<!-- Generator: Adobe Illustrator 16.0.0, SVG Export Plug-In . SVG Version: 6.00 Build 0)  -->
<!DOCTYPE svg PUBLIC "-//W3C//DTD SVG 1.1//EN" "http://www.w3.org/Graphics/SVG/1.1/DTD/svg11.dtd">
<svg version="1.1" id="Layer_1" xmlns="http://www.w3.org/2000/svg" xmlns:xlink="http://www.w3.org/1999/xlink" x="0px" y="0px"
	 width="203.672px" height="210.327px" viewBox="0 0 203.672 210.327" enable-background="new 0 0 203.672 210.327"
	 xml:space="preserve">
<g id="Star_-_Orange">
</g>
<g opacity="0.2">
	<circle fill="#4C4C4C" stroke="#FFFFFF" stroke-miterlimit="10" cx="124.41" cy="105.351" r="9.198"/>
	
		<path fill="none" stroke="#4C4C4C" stroke-width="5.6693" stroke-linecap="round" stroke-linejoin="round" stroke-miterlimit="10" d="
		M123.131,126.875c19.477-0.113,35.359,15.582,35.471,35.058c0.113,19.474-15.586,35.352-35.061,35.464
		c-19.473,0.114-35.354-15.581-35.467-35.054C87.961,142.867,103.658,126.988,123.131,126.875z"/>
	
		<path fill="none" stroke="#4C4C4C" stroke-width="5.6693" stroke-linecap="round" stroke-linejoin="round" stroke-miterlimit="10" d="
		M145.098,67.589c-4.885,3.838-10.848,6.434-17.463,7.246c-19.33,2.374-36.924-11.371-39.297-30.699
		C85.963,24.805,99.709,7.211,119.037,4.838c14.307-1.758,27.664,5.314,34.604,16.946"/>
	
		<line fill="none" stroke="#4C4C4C" stroke-width="5.6693" stroke-linecap="round" stroke-linejoin="round" stroke-miterlimit="10" x1="72.74" y1="66.107" x2="73.123" y2="131.906"/>
	
		<path fill="none" stroke="#4C4C4C" stroke-width="5.6693" stroke-linecap="round" stroke-linejoin="round" stroke-miterlimit="10" d="
		M61.08,136.574"/>
	
		<path fill="none" stroke="#4C4C4C" stroke-width="5.6693" stroke-linecap="round" stroke-linejoin="round" stroke-miterlimit="10" d="
		M73.123,131.906"/>
	
		<line fill="none" stroke="#4C4C4C" stroke-width="5.6693" stroke-linecap="round" stroke-linejoin="round" stroke-miterlimit="10" x1="58.939" y1="72.201" x2="123.338" y2="39.836"/>
	
		<line fill="none" stroke="#4C4C4C" stroke-width="5.6693" stroke-linecap="round" stroke-linejoin="round" stroke-miterlimit="10" x1="58.939" y1="72.201" x2="58.84" y2="55.063"/>
	
		<polyline fill="none" stroke="#4C4C4C" stroke-width="5.6693" stroke-linecap="round" stroke-linejoin="round" stroke-miterlimit="10" points="
		77.527,63.341 123.719,105.355 73.123,131.906 124.057,163.43 123.719,105.355 	"/>
	<polygon stroke="#4C4C4C" stroke-width="5.6693" stroke-linecap="round" stroke-linejoin="round" stroke-miterlimit="10" points="
		60.521,145.17 60.385,121.555 65.893,136.076 	"/>
	
		<path fill="none" stroke="#4C4C4C" stroke-width="5.6693" stroke-linecap="round" stroke-linejoin="round" stroke-miterlimit="10" d="
		M124.057,163.43"/>
	
		<line fill="none" stroke="#4C4C4C" stroke-width="5.6693" stroke-linecap="round" stroke-linejoin="round" stroke-miterlimit="10" x1="123.719" y1="105.355" x2="63.982" y2="136.557"/>
</g>
<polygon fill="none" stroke="#EEC41A" stroke-width="8.5039" stroke-linecap="round" stroke-linejoin="round" stroke-miterlimit="10" stroke-dasharray="85.0394,14.1732" points="
	164.258,25.556 164.258,95.104 120.871,25.556 "/>
<line fill="none" stroke="#EEC41A" stroke-width="8.5039" stroke-linecap="round" stroke-linejoin="round" stroke-miterlimit="10" x1="164.258" y1="203.943" x2="26.846" y2="203.943"/>
<line fill="none" stroke="#EEC41A" stroke-width="8.5039" stroke-linecap="round" stroke-linejoin="round" stroke-miterlimit="10" x1="164.258" y1="7.653" x2="164.258" y2="201.845"/>
</svg>
