<?xml version="1.0" encoding="utf-8"?>
<!-- Generator: Adobe Illustrator 16.0.0, SVG Export Plug-In . SVG Version: 6.00 Build 0)  -->
<!DOCTYPE svg PUBLIC "-//W3C//DTD SVG 1.1//EN" "http://www.w3.org/Graphics/SVG/1.1/DTD/svg11.dtd">
<svg version="1.1" id="Layer_1" xmlns="http://www.w3.org/2000/svg" xmlns:xlink="http://www.w3.org/1999/xlink" x="0px" y="0px"
	 width="200.668px" height="207.16px" viewBox="0 0 200.668 207.16" enable-background="new 0 0 200.668 207.16"
	 xml:space="preserve">
<g opacity="0.2">
	
		<path fill="none" stroke="#4C4C4C" stroke-width="5.6693" stroke-linecap="round" stroke-linejoin="round" stroke-miterlimit="10" d="
		M67.607,184.119c-6.375,8.675-16.629,14.329-28.223,14.396c-19.473,0.113-35.352-15.584-35.465-35.06
		c-0.113-19.473,15.582-35.353,35.055-35.466c11.906-0.069,22.469,5.771,28.906,14.769"/>
	
		<path fill="none" stroke="#4C4C4C" stroke-width="5.6693" stroke-linecap="round" stroke-linejoin="round" stroke-miterlimit="10" d="
		M139.561,135.624c4.914-3.907,10.934-6.551,17.621-7.372c19.332-2.374,36.924,11.372,39.299,30.7
		c2.373,19.331-11.371,36.927-30.703,39.301c-8.383,1.029-16.439-0.974-23.068-5.149"/>
	
		<line fill="none" stroke="#4C4C4C" stroke-width="5.6693" stroke-linecap="round" stroke-linejoin="round" stroke-miterlimit="10" x1="135.211" y1="112.654" x2="69.412" y2="113.037"/>
	
		<path fill="none" stroke="#4C4C4C" stroke-width="5.6693" stroke-linecap="round" stroke-linejoin="round" stroke-miterlimit="10" d="
		M64.744,100.994"/>
	
		<path fill="none" stroke="#4C4C4C" stroke-width="5.6693" stroke-linecap="round" stroke-linejoin="round" stroke-miterlimit="10" d="
		M69.412,113.037"/>
	
		<line fill="none" stroke="#4C4C4C" stroke-width="5.6693" stroke-linecap="round" stroke-linejoin="round" stroke-miterlimit="10" x1="129.117" y1="98.854" x2="161.48" y2="163.252"/>
	
		<line fill="none" stroke="#4C4C4C" stroke-width="5.6693" stroke-linecap="round" stroke-linejoin="round" stroke-miterlimit="10" x1="129.117" y1="98.854" x2="146.254" y2="98.755"/>
	
		<path fill="none" stroke="#4C4C4C" stroke-width="5.6693" stroke-linecap="round" stroke-linejoin="round" stroke-miterlimit="10" d="
		M95.963,163.633"/>
	
		<polyline fill="none" stroke="#4C4C4C" stroke-width="5.6693" stroke-linecap="round" stroke-linejoin="round" stroke-miterlimit="10" points="
		79.801,132.834 69.412,113.037 37.887,163.971 66.502,163.805 	"/>
	
		<path fill="none" stroke="#4C4C4C" stroke-width="5.6693" stroke-linecap="round" stroke-linejoin="round" stroke-miterlimit="10" d="
		M95.963,163.633"/>
	
		<line fill="none" stroke="#4C4C4C" stroke-width="5.6693" stroke-linecap="round" stroke-linejoin="round" stroke-miterlimit="10" x1="137.977" y1="117.441" x2="125.756" y2="130.878"/>
	<polygon stroke="#4C4C4C" stroke-width="5.6693" stroke-linecap="round" stroke-linejoin="round" stroke-miterlimit="10" points="
		56.148,100.436 79.762,100.299 65.242,105.808 	"/>
	
		<path fill="none" stroke="#4C4C4C" stroke-width="5.6693" stroke-linecap="round" stroke-linejoin="round" stroke-miterlimit="10" d="
		M37.887,163.971"/>
	
		<line fill="none" stroke="#4C4C4C" stroke-width="5.6693" stroke-linecap="round" stroke-linejoin="round" stroke-miterlimit="10" x1="78.176" y1="129.577" x2="64.762" y2="103.897"/>
</g>
<g>
	
		<path fill="none" stroke="#47B970" stroke-width="7.0866" stroke-linecap="round" stroke-linejoin="round" stroke-miterlimit="10" stroke-dasharray="85.0394,14.1732" d="
		M66.502,203.811v-53.803c0-9.541,6.67-17.27,14.896-17.27h46.414c3.828,0,7.318,1.674,9.959,4.424
		c3.031,3.16,4.938,7.744,4.938,12.846v43.094v10.709H66.502z"/>
	
		<line fill="none" stroke="#47B970" stroke-width="7.0866" stroke-linecap="round" stroke-linejoin="round" stroke-miterlimit="10" x1="195.918" y1="203.652" x2="3.92" y2="203.652"/>
</g>
<g id="Star_-_Orange">
</g>
</svg>
