<?xml version="1.0" encoding="utf-8"?>
<!-- Generator: Adobe Illustrator 16.0.0, SVG Export Plug-In . SVG Version: 6.00 Build 0)  -->
<!DOCTYPE svg PUBLIC "-//W3C//DTD SVG 1.1//EN" "http://www.w3.org/Graphics/SVG/1.1/DTD/svg11.dtd">
<svg version="1.1" id="Layer_1" xmlns="http://www.w3.org/2000/svg" xmlns:xlink="http://www.w3.org/1999/xlink" x="0px" y="0px"
	 width="203.672px" height="210.327px" viewBox="0 0 203.672 210.327" enable-background="new 0 0 203.672 210.327"
	 xml:space="preserve">
<g id="Star_-_Orange">
</g>
<g opacity="0.2">
	
		<path fill="none" stroke="#4C4C4C" stroke-width="5.6693" stroke-linecap="round" stroke-linejoin="round" stroke-miterlimit="10" d="
		M70.989,180.108c-5.879,11.123-17.533,18.732-30.993,18.81c-19.472,0.113-35.351-15.584-35.462-35.06
		c-0.115-19.473,15.58-35.353,35.052-35.466c7.304-0.042,14.102,2.139,19.752,5.907"/>
	
		<path fill="none" stroke="#4C4C4C" stroke-width="5.6693" stroke-linecap="round" stroke-linejoin="round" stroke-miterlimit="10" d="
		M142.207,134.53c5.605-3.835,12.376-6.095,19.679-6.138c19.477-0.113,35.356,15.583,35.47,35.056
		c0.113,19.477-15.583,35.357-35.06,35.47c-12.991,0.075-24.383-6.886-30.56-17.312"/>
	
		<path fill="none" stroke="#4C4C4C" stroke-width="5.6693" stroke-linecap="round" stroke-linejoin="round" stroke-miterlimit="10" d="
		M65.356,101.397"/>
	
		<path fill="none" stroke="#4C4C4C" stroke-width="5.6693" stroke-linecap="round" stroke-linejoin="round" stroke-miterlimit="10" d="
		M70.024,113.44"/>
	
		<line fill="none" stroke="#4C4C4C" stroke-width="5.6693" stroke-linecap="round" stroke-linejoin="round" stroke-miterlimit="10" x1="129.729" y1="99.258" x2="162.095" y2="163.655"/>
	
		<line fill="none" stroke="#4C4C4C" stroke-width="5.6693" stroke-linecap="round" stroke-linejoin="round" stroke-miterlimit="10" x1="129.729" y1="99.258" x2="146.868" y2="99.158"/>
	
		<path fill="none" stroke="#4C4C4C" stroke-width="5.6693" stroke-linecap="round" stroke-linejoin="round" stroke-miterlimit="10" d="
		M96.575,164.036"/>
	
		<polyline fill="none" stroke="#4C4C4C" stroke-width="5.6693" stroke-linecap="round" stroke-linejoin="round" stroke-miterlimit="10" points="
		70.024,113.44 38.5,164.374 60.684,164.245 	"/>
	
		<path fill="none" stroke="#4C4C4C" stroke-width="5.6693" stroke-linecap="round" stroke-linejoin="round" stroke-miterlimit="10" d="
		M96.575,164.036"/>
	
		<path fill="none" stroke="#4C4C4C" stroke-width="5.6693" stroke-linecap="round" stroke-linejoin="round" stroke-miterlimit="10" d="
		M138.589,117.845"/>
	<polygon stroke="#4C4C4C" stroke-width="5.6693" stroke-linecap="round" stroke-linejoin="round" stroke-miterlimit="10" points="
		56.761,100.839 80.376,100.702 65.854,106.211 	"/>
	
		<path fill="none" stroke="#4C4C4C" stroke-width="5.6693" stroke-linecap="round" stroke-linejoin="round" stroke-miterlimit="10" d="
		M38.5,164.374"/>
	
		<line fill="none" stroke="#4C4C4C" stroke-width="5.6693" stroke-linecap="round" stroke-linejoin="round" stroke-miterlimit="10" x1="72.476" y1="117.897" x2="65.374" y2="104.301"/>
	
		<path fill="none" stroke="#4C4C4C" stroke-width="5.6693" stroke-linecap="round" stroke-linejoin="round" stroke-miterlimit="10" d="
		M96.575,164.036"/>
</g>
<line fill="none" stroke="#EEC41A" stroke-width="8.5039" stroke-linecap="round" stroke-linejoin="round" stroke-miterlimit="10" x1="199.743" y1="203.65" x2="4.534" y2="203.65"/>
<circle fill="none" stroke="#EEC41A" stroke-width="8.5039" stroke-linecap="round" stroke-linejoin="round" stroke-miterlimit="10" stroke-dasharray="85.0394,14.1732" cx="102.139" cy="149.726" r="43.506"/>
<g>
	<path fill="#EEC41A" d="M96.709,158.289v-2.527c0-2.187,0.467-4.088,1.401-5.705c0.933-1.616,2.641-3.336,5.123-5.158
		c2.392-1.708,3.969-3.097,4.731-4.167s1.145-2.267,1.145-3.587c0-1.48-0.546-2.607-1.64-3.382s-2.619-1.162-4.578-1.162
		c-3.416,0-7.311,1.116-11.683,3.348l-3.724-7.48c5.078-2.847,10.465-4.271,16.158-4.271c4.691,0,8.421,1.127,11.188,3.382
		c2.768,2.255,4.15,5.261,4.15,9.019c0,2.506-0.569,4.669-1.707,6.49c-1.14,1.822-3.303,3.872-6.491,6.149
		c-2.187,1.617-3.569,2.847-4.15,3.689s-0.871,1.946-0.871,3.313v2.049H96.709z M95.616,169.973c0-1.913,0.512-3.359,1.537-4.339
		c1.025-0.979,2.516-1.469,4.475-1.469c1.891,0,3.354,0.501,4.391,1.503c1.035,1.003,1.554,2.438,1.554,4.305
		c0,1.799-0.524,3.217-1.571,4.253c-1.048,1.036-2.506,1.554-4.373,1.554c-1.912,0-3.394-0.507-4.44-1.52
		C96.14,173.246,95.616,171.817,95.616,169.973z"/>
</g>
</svg>
