<?xml version="1.0" encoding="utf-8"?>
<!-- Generator: Adobe Illustrator 16.0.0, SVG Export Plug-In . SVG Version: 6.00 Build 0)  -->
<!DOCTYPE svg PUBLIC "-//W3C//DTD SVG 1.1//EN" "http://www.w3.org/Graphics/SVG/1.1/DTD/svg11.dtd">
<svg version="1.1" id="Layer_1" xmlns="http://www.w3.org/2000/svg" xmlns:xlink="http://www.w3.org/1999/xlink" x="0px" y="0px"
	 width="198px" height="137.979px" viewBox="0 0 198 137.979" enable-background="new 0 0 198 137.979" xml:space="preserve">
<g opacity="0.2">
	
		<path fill="none" stroke="#515151" stroke-width="4.252" stroke-linecap="round" stroke-linejoin="round" stroke-miterlimit="10" d="
		M102.951,103.945c0-4.795-3.875-8.668-8.659-8.668c-4.791,0-8.663,3.873-8.663,8.668c0,4.775,3.872,8.661,8.663,8.661
		C99.076,112.606,102.951,108.721,102.951,103.945z"/>
	
		<path fill="none" stroke="#515151" stroke-width="4.252" stroke-linecap="round" stroke-linejoin="round" stroke-miterlimit="10" d="
		M74.553,105.703c-5.758,19.586-26.3,30.793-45.881,25.025C9.097,124.966-2.11,104.426,3.648,84.842
		c5.772-19.582,26.313-30.78,45.9-25.02C69.117,65.589,80.324,86.123,74.553,105.703z"/>
	
		<path fill="none" stroke="#515151" stroke-width="4.252" stroke-linecap="round" stroke-linejoin="round" stroke-miterlimit="10" d="
		M194.832,95.835c0,20.407-16.532,36.954-36.941,36.954c-20.416,0-36.963-16.547-36.963-36.954
		c0-20.411,16.547-36.959,36.963-36.959C178.3,58.876,194.832,75.424,194.832,95.835z"/>
	
		<line fill="none" stroke="#515151" stroke-width="4.252" stroke-linecap="round" stroke-linejoin="round" stroke-miterlimit="10" x1="131.546" y1="48.164" x2="69.547" y2="48.164"/>
	
		<line fill="none" stroke="#515151" stroke-width="4.252" stroke-linecap="round" stroke-linejoin="round" stroke-miterlimit="10" x1="69.547" y1="48.164" x2="65.219" y2="36.797"/>
	
		<line fill="none" stroke="#515151" stroke-width="4.252" stroke-linecap="round" stroke-linejoin="round" stroke-miterlimit="10" x1="125.879" y1="35.129" x2="156.013" y2="95.979"/>
	
		<line fill="none" stroke="#515151" stroke-width="4.252" stroke-linecap="round" stroke-linejoin="round" stroke-miterlimit="10" x1="125.879" y1="35.129" x2="142.033" y2="35.129"/>
	
		<polyline fill="none" stroke="#515151" stroke-width="4.252" stroke-linecap="round" stroke-linejoin="round" stroke-miterlimit="10" points="
		134.719,52.968 94.287,104.941 69.547,48.164 39.107,95.835 94.287,104.941 	"/>
	
		<polygon fill="none" stroke="#515151" stroke-width="4.252" stroke-linecap="round" stroke-linejoin="round" stroke-miterlimit="10" points="
		58.421,36.218 80.672,36.218 66.963,41.334 	"/>
</g>
<g>
	<rect x="93.831" y="6.216" fill="#FFFFFF" width="15.612" height="127.323"/>
	
		<line fill="#FFFFFF" stroke="#47B970" stroke-width="7.0866" stroke-linecap="round" stroke-linejoin="round" stroke-miterlimit="10" stroke-dasharray="85.0394,14.1732" x1="93.836" y1="133.539" x2="93.836" y2="6.216"/>
	
		<line fill="#FFFFFF" stroke="#47B970" stroke-width="7.0866" stroke-linecap="round" stroke-linejoin="round" stroke-miterlimit="10" stroke-dasharray="85.0394,14.1732" x1="109.443" y1="6.216" x2="109.443" y2="133.539"/>
</g>
<line fill="#FFFFFF" stroke="#47B970" stroke-width="7.0866" stroke-linecap="round" stroke-linejoin="round" stroke-miterlimit="10" x1="190.96" y1="133.539" x2="6.02" y2="133.539"/>
</svg>
