<?xml version="1.0" encoding="utf-8"?>
<!-- Generator: Adobe Illustrator 16.0.0, SVG Export Plug-In . SVG Version: 6.00 Build 0)  -->
<!DOCTYPE svg PUBLIC "-//W3C//DTD SVG 1.1//EN" "http://www.w3.org/Graphics/SVG/1.1/DTD/svg11.dtd">
<svg version="1.1" id="Layer_1" xmlns="http://www.w3.org/2000/svg" xmlns:xlink="http://www.w3.org/1999/xlink" x="0px" y="0px"
	 width="140.834px" height="147.25px" viewBox="0 0 140.834 147.25" enable-background="new 0 0 140.834 147.25"
	 xml:space="preserve">
<defs>
	<filter id="Adobe_OpacityMaskFilter" filterUnits="userSpaceOnUse" x="3.461" y="61.715" width="133.738" height="78.839">
		<feColorMatrix  type="matrix" values="1 0 0 0 0  0 1 0 0 0  0 0 1 0 0  0 0 0 1 0"/>
	</filter>
</defs>
<mask maskUnits="userSpaceOnUse" x="3.461" y="61.715" width="133.738" height="78.839" id="SVGID_1_">
	<g filter="url(#Adobe_OpacityMaskFilter)">
		<g id="XMLID_5_">
			<g>
				<path fill="#E5E5E5" d="M173.578,30.845v125H-3.973l-7.659-125H173.578z M63.578,141.505v-101h-21.67v101H63.578z"/>
				<rect x="41.908" y="40.505" width="21.67" height="101"/>
			</g>
		</g>
	</g>
</mask>
<g mask="url(#SVGID_1_)">
	
		<circle fill="none" stroke="#E5E5E5" stroke-width="3.9387" stroke-linecap="round" stroke-linejoin="round" stroke-miterlimit="10" cx="29.109" cy="114.909" r="23.678"/>
	
		<circle fill="none" stroke="#E5E5E5" stroke-width="3.9387" stroke-linecap="round" stroke-linejoin="round" stroke-miterlimit="10" cx="111.552" cy="114.909" r="23.679"/>
	
		<circle fill="none" stroke="#E5E5E5" stroke-width="3.9387" stroke-linecap="round" stroke-linejoin="round" stroke-miterlimit="10" cx="29.109" cy="114.909" r="5.068"/>
	
		<path fill="none" stroke="#E5E5E5" stroke-width="3.9387" stroke-linecap="round" stroke-linejoin="round" stroke-miterlimit="10" d="
		M77.096,114.909c0,4.271-3.465,7.737-7.736,7.737c-4.275,0-7.738-3.467-7.738-7.737c0-4.276,3.463-7.739,7.738-7.739
		C73.631,107.169,77.096,110.632,77.096,114.909z"/>
	
		<circle fill="none" stroke="#E5E5E5" stroke-width="3.9387" stroke-linecap="round" stroke-linejoin="round" stroke-miterlimit="10" cx="111.553" cy="114.646" r="5.068"/>
	
		<line fill="none" stroke="#E5E5E5" stroke-width="3.9387" stroke-linecap="round" stroke-linejoin="round" stroke-miterlimit="10" x1="29.109" y1="109.839" x2="69.359" y2="107.169"/>
	
		<line fill="none" stroke="#E5E5E5" stroke-width="3.9387" stroke-linecap="round" stroke-linejoin="round" stroke-miterlimit="10" x1="29.109" y1="119.976" x2="69.359" y2="122.646"/>
	
		<line fill="none" stroke="#E5E5E5" stroke-width="3.9387" stroke-linecap="round" stroke-linejoin="round" stroke-miterlimit="10" x1="24.521" y1="112.763" x2="45.971" y2="78.542"/>
	
		<polyline fill="none" stroke="#E5E5E5" stroke-width="3.9387" stroke-linecap="round" stroke-linejoin="round" stroke-miterlimit="10" points="
		109.953,109.839 92.455,63.685 81.662,63.685 	"/>
	
		<line fill="none" stroke="#E5E5E5" stroke-width="3.9387" stroke-linecap="round" stroke-linejoin="round" stroke-miterlimit="10" x1="65.885" y1="107.994" x2="42.387" y2="73.238"/>
	
		<line fill="none" stroke="#E5E5E5" stroke-width="3.9387" stroke-linecap="round" stroke-linejoin="round" stroke-miterlimit="10" x1="73.639" y1="108.46" x2="98.186" y2="81.677"/>
	
		<path fill="none" stroke="#E5E5E5" stroke-width="3.9387" stroke-linecap="round" stroke-linejoin="round" stroke-miterlimit="10" d="
		M52.721,69.872c0,1.858-1.506,3.365-3.365,3.365h-12.23c-1.859,0-3.365-1.507-3.365-3.365l0,0c0-1.858,1.506-3.365,3.365-3.365
		h12.23C51.215,66.506,52.721,68.013,52.721,69.872L52.721,69.872z"/>
	
		<line fill="none" stroke="#E5E5E5" stroke-width="3.9387" stroke-linecap="round" stroke-linejoin="round" stroke-miterlimit="10" x1="95.809" y1="72.524" x2="80.502" y2="89.372"/>
	
		<path fill="none" stroke="#E5E5E5" stroke-width="3.9387" stroke-linecap="round" stroke-linejoin="round" stroke-miterlimit="10" d="
		M45.971,78.542c0,0,16.971,28.829,34.531,10.829"/>
</g>
<g>
	
		<line fill="none" stroke="#47B870" stroke-width="11.8163" stroke-linecap="round" stroke-linejoin="round" stroke-miterlimit="10" x1="52.685" y1="140.151" x2="52.685" y2="43.738"/>
</g>
<g>
	
		<line fill="none" stroke="#47B870" stroke-width="5.828" stroke-linecap="round" stroke-linejoin="round" stroke-miterlimit="10" x1="137.686" y1="143.521" x2="3.061" y2="143.521"/>
</g>
</svg>
