<?xml version="1.0" encoding="utf-8"?>
<!-- Generator: Adobe Illustrator 16.0.0, SVG Export Plug-In . SVG Version: 6.00 Build 0)  -->
<!DOCTYPE svg PUBLIC "-//W3C//DTD SVG 1.1//EN" "http://www.w3.org/Graphics/SVG/1.1/DTD/svg11.dtd">
<svg version="1.1" id="Layer_1" xmlns="http://www.w3.org/2000/svg" xmlns:xlink="http://www.w3.org/1999/xlink" x="0px" y="0px"
	 width="210px" height="209.105px" viewBox="0 0 210 209.105" enable-background="new 0 0 210 209.105" xml:space="preserve">
<g opacity="0.2">
	
		<path fill="none" stroke="#4C4C4C" stroke-width="5.8873" stroke-linecap="round" stroke-linejoin="round" stroke-miterlimit="10" d="
		M109.73,167.081c-0.031-5.275-4.331-9.527-9.605-9.498c-5.277,0.031-9.529,4.331-9.5,9.609c0.031,5.272,4.334,9.525,9.609,9.495
		C105.508,176.658,109.76,172.354,109.73,167.081z"/>
	
		<path fill="none" stroke="#4C4C4C" stroke-width="5.8873" stroke-linecap="round" stroke-linejoin="round" stroke-miterlimit="10" d="
		M77.825,165.807c0.118,20.227-16.179,36.717-36.405,36.835c-20.222,0.115-36.711-16.187-36.827-36.409
		c-0.118-20.223,16.181-36.711,36.401-36.829C61.221,129.286,77.707,145.585,77.825,165.807z"/>
	
		<path fill="none" stroke="#4C4C4C" stroke-width="5.8873" stroke-linecap="round" stroke-linejoin="round" stroke-miterlimit="10" d="
		M204.557,161.558c2.465,20.073-11.809,38.347-31.883,40.812c-20.07,2.465-38.34-11.811-40.807-31.885
		c-2.465-20.073,11.809-38.343,31.879-40.81C183.822,127.21,202.09,141.484,204.557,161.558z"/>
	
		<line fill="none" stroke="#4C4C4C" stroke-width="6.54" stroke-linecap="round" stroke-linejoin="round" stroke-miterlimit="10" x1="113.5" y1="113.684" x2="72.603" y2="113.876"/>
	
		<line fill="none" stroke="#4C4C4C" stroke-width="6.6142" stroke-linecap="round" stroke-linejoin="round" stroke-miterlimit="10" x1="140.932" y1="113.479" x2="120.5" y2="113.574"/>
	
		<path fill="none" stroke="#4C4C4C" stroke-width="5.8873" stroke-linecap="round" stroke-linejoin="round" stroke-miterlimit="10" d="
		M67.755,101.371"/>
	
		<path fill="none" stroke="#4C4C4C" stroke-width="5.8873" stroke-linecap="round" stroke-linejoin="round" stroke-miterlimit="10" d="
		M72.603,113.876"/>
	
		<line fill="none" stroke="#4C4C4C" stroke-width="5.8873" stroke-linecap="round" stroke-linejoin="round" stroke-miterlimit="10" x1="134.604" y1="99.147" x2="168.211" y2="166.022"/>
	
		<line fill="none" stroke="#4C4C4C" stroke-width="5.8873" stroke-linecap="round" stroke-linejoin="round" stroke-miterlimit="10" x1="134.604" y1="99.147" x2="152.4" y2="99.045"/>
	
		<path fill="none" stroke="#4C4C4C" stroke-width="5.8873" stroke-linecap="round" stroke-linejoin="round" stroke-miterlimit="10" d="
		M100.176,166.417"/>
	
		<polyline fill="none" stroke="#4C4C4C" stroke-width="5.8873" stroke-linecap="round" stroke-linejoin="round" stroke-miterlimit="10" points="
		100.176,166.417 72.603,113.876 39.865,166.769 90.625,166.769 	"/>
	
		<path fill="none" stroke="#4C4C4C" stroke-width="5.8873" stroke-linecap="round" stroke-linejoin="round" stroke-miterlimit="10" d="
		M107.338,158.543"/>
	
		<line fill="none" stroke="#4C4C4C" stroke-width="5.8873" stroke-linecap="round" stroke-linejoin="round" stroke-miterlimit="10" x1="143.805" y1="118.451" x2="107.338" y2="158.543"/>
	
		<polygon fill="none" stroke="#4C4C4C" stroke-width="5.8873" stroke-linecap="round" stroke-linejoin="round" stroke-miterlimit="10" points="
		58.829,100.79 83.35,100.649 68.272,106.37 	"/>
	
		<path fill="none" stroke="#4C4C4C" stroke-width="5.8873" stroke-linecap="round" stroke-linejoin="round" stroke-miterlimit="10" d="
		M39.865,166.769"/>
	
		<line fill="none" stroke="#4C4C4C" stroke-width="5.8873" stroke-linecap="round" stroke-linejoin="round" stroke-miterlimit="10" x1="100.176" y1="166.417" x2="67.773" y2="104.385"/>
</g>
<line fill="none" stroke="#47B870" stroke-width="10.362" stroke-linecap="round" stroke-linejoin="round" stroke-miterlimit="10" x1="198.646" y1="203.647" x2="12.1" y2="203.647"/>
<line fill="none" stroke="#47B870" stroke-width="10.4288" stroke-linecap="round" stroke-linejoin="round" stroke-miterlimit="10" x1="116.167" y1="203.647" x2="116.167" y2="65.719"/>
</svg>
