<svg xmlns="http://www.w3.org/2000/svg" xmlns:xlink="http://www.w3.org/1999/xlink" viewBox="0 0 141.73 141.73"><defs><style>.cls-1,.cls-2,.cls-4{fill:none;stroke-linecap:round;stroke-linejoin:round;}.cls-1{stroke:#000;stroke-width:14px;filter:url(#luminosity-noclip);}.cls-2{stroke:#47b870;stroke-width:5.67px;}.cls-3{mask:url(#mask);}.cls-4{stroke:#b3b4b4;stroke-width:3.94px;}</style><filter id="luminosity-noclip" x="4" y="56.51" width="133.74" height="85.69" filterUnits="userSpaceOnUse" color-interpolation-filters="sRGB"><feFlood flood-color="#fff" result="bg"/><feBlend in="SourceGraphic" in2="bg"/></filter><mask id="mask" x="4" y="56.51" width="133.74" height="85.69" maskUnits="userSpaceOnUse"><path class="cls-1" d="M43.44,135.2V82.58a9.15,9.15,0,0,1,18.29,0V112.1a9.14,9.14,0,1,0,18.28,0V82.58a9.14,9.14,0,1,1,18.28,0V135.2"/></mask></defs><title>tipo_m</title><g id="M"><line class="cls-2" x1="138.14" y1="138.2" x2="3.6" y2="138.2"/><g class="cls-3"><circle class="cls-4" cx="29.64" cy="109.7" r="23.68" transform="translate(-83.93 113.35) rotate(-76.72)"/><path class="cls-4" d="M135.77,109.7A23.68,23.68,0,1,1,112.09,86,23.68,23.68,0,0,1,135.77,109.7Z"/><path class="cls-4" d="M34.71,109.7a5.07,5.07,0,1,1-5.07-5.07A5.07,5.07,0,0,1,34.71,109.7Z"/><path class="cls-4" d="M77.63,109.7A7.74,7.74,0,1,1,69.89,102,7.74,7.74,0,0,1,77.63,109.7Z"/><path class="cls-4" d="M117.16,109.44a5.07,5.07,0,1,1-5.07-5.07A5.07,5.07,0,0,1,117.16,109.44Z"/><line class="cls-4" x1="29.64" y1="104.63" x2="69.89" y2="101.96"/><line class="cls-4" x1="29.64" y1="114.77" x2="69.89" y2="117.44"/><line class="cls-4" x1="25.06" y1="107.56" x2="46.51" y2="73.34"/><polyline class="cls-4" points="110.49 104.63 92.99 58.48 82.2 58.48"/><line class="cls-4" x1="66.42" y1="102.79" x2="42.92" y2="68.03"/><line class="cls-4" x1="74.17" y1="103.25" x2="98.72" y2="76.47"/><path class="cls-4" d="M53.26,64.66A3.37,3.37,0,0,1,49.89,68H37.66a3.37,3.37,0,0,1-3.37-3.37h0a3.37,3.37,0,0,1,3.37-3.36H49.89a3.37,3.37,0,0,1,3.37,3.36Z"/><line class="cls-4" x1="96.34" y1="67.32" x2="81.04" y2="84.16"/><path class="cls-4" d="M46.51,73.34s17,28.82,34.53,10.82"/></g><path class="cls-2" d="M43.44,135.2V82.58a9.15,9.15,0,0,1,18.29,0V112.1a9.14,9.14,0,1,0,18.28,0V82.58a9.14,9.14,0,1,1,18.28,0V135.2"/></g></svg>