<svg xmlns="http://www.w3.org/2000/svg" xmlns:xlink="http://www.w3.org/1999/xlink" viewBox="0 0 141.73 141.73"><defs><style>.cls-1,.cls-2,.cls-3,.cls-4,.cls-6{fill:none;stroke-linecap:round;stroke-linejoin:round;}.cls-1,.cls-2,.cls-3{stroke:#000;}.cls-1{stroke-width:15px;filter:url(#luminosity-noclip);}.cls-2{stroke-width:12px;}.cls-3{stroke-width:10px;}.cls-4{stroke:#47b870;stroke-width:5.67px;}.cls-5{mask:url(#mask);}.cls-6{stroke:#b3b4b4;stroke-width:3.94px;}.cls-7{mask:url(#mask-2);}.cls-8{filter:url(#luminosity-noclip-2);}</style><filter id="luminosity-noclip" x="3.6" y="55.51" width="140.72" height="86.35" filterUnits="userSpaceOnUse" color-interpolation-filters="sRGB"><feFlood flood-color="#fff" result="bg"/><feBlend in="SourceGraphic" in2="bg"/></filter><mask id="mask" x="3.6" y="55.51" width="140.72" height="86.35" maskUnits="userSpaceOnUse"><path class="cls-1" d="M96.76,134.36V75a2.48,2.48,0,0,1,2.47-2.47h28.46a12.92,12.92,0,0,0,9.13-3.78h0"/></mask><filter id="luminosity-noclip-2" x="0.57" y="52.59" width="140.34" height="84.9" filterUnits="userSpaceOnUse" color-interpolation-filters="sRGB"><feFlood flood-color="#fff" result="bg"/><feBlend in="SourceGraphic" in2="bg"/></filter><mask id="mask-2" x="0.57" y="52.59" width="140.34" height="84.9" maskUnits="userSpaceOnUse"><g class="cls-8"><polyline class="cls-2" points="98.91 72.06 108.31 72.06 132.05 72.06"/><circle class="cls-3" cx="29.24" cy="108.81" r="23.68" transform="translate(-83.37 112.27) rotate(-76.72)"/><path class="cls-3" d="M135.36,108.81a23.68,23.68,0,1,1-23.67-23.68A23.68,23.68,0,0,1,135.36,108.81Z"/><path class="cls-3" d="M34.31,108.81a5.07,5.07,0,1,1-5.07-5.07A5.07,5.07,0,0,1,34.31,108.81Z"/><path class="cls-3" d="M77.23,108.81a7.74,7.74,0,1,1-7.74-7.74A7.75,7.75,0,0,1,77.23,108.81Z"/><path class="cls-3" d="M116.76,108.55a5.07,5.07,0,1,1-5.07-5.07A5.07,5.07,0,0,1,116.76,108.55Z"/><line class="cls-3" x1="29.24" y1="103.74" x2="69.49" y2="101.07"/><line class="cls-3" x1="29.24" y1="113.88" x2="69.49" y2="116.55"/><line class="cls-3" x1="24.66" y1="106.66" x2="46.1" y2="72.44"/><polyline class="cls-3" points="110.09 103.74 92.59 57.59 81.8 57.59"/><line class="cls-3" x1="66.02" y1="101.89" x2="42.52" y2="67.14"/><line class="cls-3" x1="73.77" y1="102.36" x2="98.32" y2="75.58"/><path class="cls-3" d="M52.85,63.77a3.36,3.36,0,0,1-3.36,3.37H37.26a3.37,3.37,0,0,1-3.37-3.37h0a3.36,3.36,0,0,1,3.37-3.36H49.49a3.35,3.35,0,0,1,3.36,3.36Z"/><line class="cls-3" x1="95.94" y1="66.42" x2="80.64" y2="83.27"/><path class="cls-3" d="M46.1,72.44s17,28.83,34.54,10.83"/></g></mask></defs><title>tipo_pescocinho</title><g id="M"><line class="cls-4" x1="137.74" y1="137.2" x2="3.19" y2="137.2"/><g class="cls-5"><circle class="cls-6" cx="29.24" cy="108.7" r="23.68" transform="translate(-83.27 112.19) rotate(-76.72)"/><path class="cls-6" d="M135.36,108.7A23.68,23.68,0,1,1,111.69,85,23.68,23.68,0,0,1,135.36,108.7Z"/><path class="cls-6" d="M34.31,108.7a5.07,5.07,0,1,1-5.07-5.07A5.07,5.07,0,0,1,34.31,108.7Z"/><path class="cls-6" d="M77.23,108.7A7.74,7.74,0,1,1,69.49,101,7.75,7.75,0,0,1,77.23,108.7Z"/><path class="cls-6" d="M116.76,108.44a5.07,5.07,0,1,1-5.07-5.07A5.08,5.08,0,0,1,116.76,108.44Z"/><line class="cls-6" x1="29.24" y1="103.63" x2="69.49" y2="100.96"/><line class="cls-6" x1="29.24" y1="113.77" x2="69.49" y2="116.44"/><line class="cls-6" x1="24.66" y1="106.56" x2="46.1" y2="72.34"/><polyline class="cls-6" points="110.09 103.63 92.59 57.48 81.8 57.48"/><line class="cls-6" x1="66.02" y1="101.79" x2="42.52" y2="67.03"/><line class="cls-6" x1="73.77" y1="102.25" x2="98.32" y2="75.47"/><path class="cls-6" d="M52.85,63.66A3.36,3.36,0,0,1,49.49,67H37.26a3.37,3.37,0,0,1-3.37-3.37h0a3.37,3.37,0,0,1,3.37-3.36H49.49a3.36,3.36,0,0,1,3.36,3.36Z"/><line class="cls-6" x1="95.94" y1="66.32" x2="80.64" y2="83.16"/><path class="cls-6" d="M46.1,72.34s17,28.82,34.54,10.82"/></g><path class="cls-4" d="M96.76,134.36V75a2.48,2.48,0,0,1,2.47-2.47h28.46a12.92,12.92,0,0,0,9.13-3.78h0"/><g class="cls-7"><path class="cls-4" d="M136.82,68.74a4.26,4.26,0,0,0-3-7.26H111.53A2.46,2.46,0,0,0,109.06,64v70.41"/></g></g></svg>