<?xml version="1.0" encoding="utf-8"?>
<!-- Generator: Adobe Illustrator 16.0.0, SVG Export Plug-In . SVG Version: 6.00 Build 0)  -->
<!DOCTYPE svg PUBLIC "-//W3C//DTD SVG 1.1//EN" "http://www.w3.org/Graphics/SVG/1.1/DTD/svg11.dtd">
<svg version="1.1" id="Layer_1" xmlns="http://www.w3.org/2000/svg" xmlns:xlink="http://www.w3.org/1999/xlink" x="0px" y="0px"
	 width="210px" height="209.105px" viewBox="0 0 210 209.105" enable-background="new 0 0 210 209.105" xml:space="preserve">
<g opacity="0.2">
	
		<circle fill="none" stroke="#4C4C4C" stroke-width="5.851" stroke-linecap="round" stroke-linejoin="round" stroke-miterlimit="10" cx="98.998" cy="173.819" r="9.492"/>
	
		<path fill="none" stroke="#4C4C4C" stroke-width="5.851" stroke-linecap="round" stroke-linejoin="round" stroke-miterlimit="10" d="
		M76.784,172.499c0.118,20.101-16.082,36.49-36.183,36.606c-20.096,0.117-36.484-16.083-36.599-36.183
		c-0.119-20.098,16.079-36.486,36.175-36.604C60.279,136.203,76.667,152.402,76.784,172.499z"/>
	
		<path fill="none" stroke="#4C4C4C" stroke-width="5.851" stroke-linecap="round" stroke-linejoin="round" stroke-miterlimit="10" d="
		M141.956,199.479c-7.163-6.6-11.673-16.047-11.733-26.557c-0.119-20.098,16.08-36.486,36.176-36.604
		c13.92-0.08,26.06,7.662,32.249,19.107"/>
	
		<line fill="none" stroke="#4C4C4C" stroke-width="5.851" stroke-linecap="round" stroke-linejoin="round" stroke-miterlimit="10" x1="139.5" y1="120.493" x2="71.592" y2="120.887"/>
	
		<path fill="none" stroke="#4C4C4C" stroke-width="5.851" stroke-linecap="round" stroke-linejoin="round" stroke-miterlimit="10" d="
		M66.774,108.459"/>
	
		<path fill="none" stroke="#4C4C4C" stroke-width="5.851" stroke-linecap="round" stroke-linejoin="round" stroke-miterlimit="10" d="
		M71.592,120.887"/>
	
		<line fill="none" stroke="#4C4C4C" stroke-width="5.851" stroke-linecap="round" stroke-linejoin="round" stroke-miterlimit="10" x1="133.21" y1="106.25" x2="166.614" y2="172.711"/>
	
		<line fill="none" stroke="#4C4C4C" stroke-width="5.851" stroke-linecap="round" stroke-linejoin="round" stroke-miterlimit="10" x1="133.21" y1="106.25" x2="150.899" y2="106.147"/>
	
		<path fill="none" stroke="#4C4C4C" stroke-width="5.851" stroke-linecap="round" stroke-linejoin="round" stroke-miterlimit="10" d="
		M98.994,173.106"/>
	
		<polyline fill="none" stroke="#4C4C4C" stroke-width="5.851" stroke-linecap="round" stroke-linejoin="round" stroke-miterlimit="10" points="
		98.994,173.106 71.592,120.887 39.057,173.454 88.795,173.454 	"/>
	
		<line fill="none" stroke="#4C4C4C" stroke-width="5.851" stroke-linecap="round" stroke-linejoin="round" stroke-miterlimit="10" x1="142.354" y1="125.432" x2="106.142" y2="165.247"/>
	
		<polygon fill="none" stroke="#4C4C4C" stroke-width="5.851" stroke-linecap="round" stroke-linejoin="round" stroke-miterlimit="10" points="
		57.903,107.882 82.275,107.742 67.289,113.426 	"/>
	
		<path fill="none" stroke="#4C4C4C" stroke-width="5.851" stroke-linecap="round" stroke-linejoin="round" stroke-miterlimit="10" d="
		M39.057,173.454"/>
	
		<line fill="none" stroke="#4C4C4C" stroke-width="5.851" stroke-linecap="round" stroke-linejoin="round" stroke-miterlimit="10" x1="98.994" y1="173.106" x2="66.792" y2="111.456"/>
</g>
<polygon fill="none" stroke="#47B870" stroke-width="8.5039" stroke-linecap="round" stroke-linejoin="round" stroke-miterlimit="10" stroke-dasharray="85.0394,14.1732" points="
	135.023,205.345 206.166,205.345 206.166,148.478 "/>
<line fill="none" stroke="#47B870" stroke-width="8.5039" stroke-linecap="round" stroke-linejoin="round" stroke-miterlimit="10" x1="137.744" y1="205.345" x2="12.099" y2="205.345"/>
</svg>
