<?xml version="1.0" encoding="utf-8"?>
<!-- Generator: Adobe Illustrator 16.0.0, SVG Export Plug-In . SVG Version: 6.00 Build 0)  -->
<!DOCTYPE svg PUBLIC "-//W3C//DTD SVG 1.1//EN" "http://www.w3.org/Graphics/SVG/1.1/DTD/svg11.dtd">
<svg version="1.1" id="Layer_1" xmlns="http://www.w3.org/2000/svg" xmlns:xlink="http://www.w3.org/1999/xlink" x="0px" y="0px"
	 width="380.333px" height="383.75px" viewBox="0 0 380.333 383.75" enable-background="new 0 0 380.333 383.75"
	 xml:space="preserve">
<g>
	
		<path fill="none" stroke="#E5E5E5" stroke-width="10.6319" stroke-linecap="round" stroke-linejoin="round" stroke-miterlimit="10" d="
		M233.236,235.367c35.296,0,63.91,28.618,63.91,63.918c0,35.296-28.614,63.914-63.91,63.914c-35.301,0-63.918-28.618-63.918-63.914
		C169.318,263.984,197.936,235.367,233.236,235.367z"/>
	
		<path fill="none" stroke="#E5E5E5" stroke-width="10.6319" stroke-linecap="round" stroke-linejoin="round" stroke-miterlimit="10" d="
		M278.428,121.939c-11.565,11.565-27.544,18.721-45.191,18.721c-35.301,0-63.918-28.616-63.918-63.914
		c0-35.3,28.617-63.916,63.918-63.916c17.035,0,32.517,6.666,43.972,17.534"/>
	
		<path fill="none" stroke="#E5E5E5" stroke-width="10.6319" stroke-linecap="round" stroke-linejoin="round" stroke-miterlimit="10" d="
		M233.236,285.602c7.553,0,13.677,6.126,13.677,13.683c0,7.556-6.124,13.681-13.677,13.681c-7.562,0-13.685-6.125-13.685-13.681
		C219.552,291.728,225.675,285.602,233.236,285.602z"/>
	
		<path fill="none" stroke="#E5E5E5" stroke-width="10.6319" stroke-linecap="round" stroke-linejoin="round" stroke-miterlimit="10" d="
		M233.236,169.751c11.528,0,20.885,9.351,20.885,20.887c0,11.536-9.356,20.887-20.885,20.887c-11.544,0-20.891-9.352-20.891-20.887
		C212.346,179.103,221.692,169.751,233.236,169.751z"/>
	
		<path fill="none" stroke="#E5E5E5" stroke-width="10.6319" stroke-linecap="round" stroke-linejoin="round" stroke-miterlimit="10" d="
		M232.527,63.061c7.555,0,13.679,6.125,13.679,13.681c0,7.557-6.124,13.684-13.679,13.684c-7.558,0-13.683-6.127-13.683-13.684
		C218.845,69.186,224.97,63.061,232.527,63.061z"/>
	
		<line fill="none" stroke="#E5E5E5" stroke-width="10.6319" stroke-linecap="round" stroke-linejoin="round" stroke-miterlimit="10" x1="219.552" y1="299.285" x2="212.346" y2="190.639"/>
	
		<line fill="none" stroke="#E5E5E5" stroke-width="10.6319" stroke-linecap="round" stroke-linejoin="round" stroke-miterlimit="10" x1="246.913" y1="299.285" x2="254.121" y2="190.639"/>
	
		<line fill="none" stroke="#E5E5E5" stroke-width="10.6319" stroke-linecap="round" stroke-linejoin="round" stroke-miterlimit="10" x1="227.441" y1="311.667" x2="135.069" y2="253.767"/>
	
		<polyline fill="none" stroke="#E5E5E5" stroke-width="10.6319" stroke-linecap="round" stroke-linejoin="round" stroke-miterlimit="10" points="
		219.548,81.059 94.967,128.29 94.967,157.428 	"/>
	
		<line fill="none" stroke="#E5E5E5" stroke-width="10.6319" stroke-linecap="round" stroke-linejoin="round" stroke-miterlimit="10" x1="214.568" y1="200.014" x2="120.753" y2="263.446"/>
	
		<line fill="none" stroke="#E5E5E5" stroke-width="10.6319" stroke-linecap="round" stroke-linejoin="round" stroke-miterlimit="10" x1="215.829" y1="179.084" x2="143.532" y2="112.826"/>
	
		<path fill="none" stroke="#E5E5E5" stroke-width="10.6319" stroke-linecap="round" stroke-linejoin="round" stroke-miterlimit="10" d="
		M111.668,235.546c5.016,0,9.083,4.065,9.083,9.087v33.013c0,5.018-4.067,9.086-9.083,9.086l0,0c-5.019,0-9.088-4.068-9.088-9.086
		v-33.013C102.58,239.612,106.649,235.546,111.668,235.546L111.668,235.546z"/>
	
		<line fill="none" stroke="#E5E5E5" stroke-width="10.6319" stroke-linecap="round" stroke-linejoin="round" stroke-miterlimit="10" x1="118.826" y1="119.243" x2="164.302" y2="160.558"/>
	
		<path fill="none" stroke="#E5E5E5" stroke-width="10.6319" stroke-linecap="round" stroke-linejoin="round" stroke-miterlimit="10" d="
		M135.069,253.767c0,0,77.82-45.809,29.232-93.209"/>
</g>
<g>
	<g>
		
			<polygon fill="none" stroke="#FFFFFF" stroke-width="31.8958" stroke-linecap="round" stroke-linejoin="round" stroke-miterlimit="10" points="
			308.864,41.083 308.864,171.511 227.498,41.083 		"/>
	</g>
	<g>
		
			<polygon fill="none" stroke="#47B870" stroke-width="15.9479" stroke-linecap="round" stroke-linejoin="round" stroke-miterlimit="10" stroke-dasharray="159.4791,26.5798" points="
			308.864,41.083 308.864,171.511 227.498,41.083 		"/>
	</g>
</g>
<line fill="none" stroke="#47B870" stroke-width="15.9479" stroke-linecap="round" stroke-linejoin="round" stroke-miterlimit="10" x1="308.864" y1="375.625" x2="51.167" y2="375.625"/>
<line fill="none" stroke="#47B870" stroke-width="15.9331" stroke-linecap="round" stroke-linejoin="round" stroke-miterlimit="10" x1="308.864" y1="8.188" x2="308.864" y2="371.688"/>
<g>
	
		<line fill="none" stroke="#47B870" stroke-width="15.7317" stroke-linecap="round" stroke-linejoin="round" stroke-miterlimit="10" x1="752.708" y1="376" x2="388.167" y2="376"/>
</g>
</svg>
