<?xml version="1.0" encoding="utf-8"?>
<!-- Generator: Adobe Illustrator 16.0.0, SVG Export Plug-In . SVG Version: 6.00 Build 0)  -->
<!DOCTYPE svg PUBLIC "-//W3C//DTD SVG 1.1//EN" "http://www.w3.org/Graphics/SVG/1.1/DTD/svg11.dtd">
<svg version="1.1" id="Layer_1" xmlns="http://www.w3.org/2000/svg" xmlns:xlink="http://www.w3.org/1999/xlink" x="0px" y="0px"
	 width="140.834px" height="147.25px" viewBox="0 0 140.834 147.25" enable-background="new 0 0 140.834 147.25"
	 xml:space="preserve">
<g>
	
		<line fill="none" stroke="#47B870" stroke-width="5.6693" stroke-linecap="round" stroke-linejoin="round" stroke-miterlimit="10" x1="78.319" y1="142.278" x2="78.319" y2="40.486"/>
	
		<line fill="none" stroke="#47B870" stroke-width="5.6693" stroke-linecap="round" stroke-linejoin="round" stroke-miterlimit="10" x1="131.263" y1="40.486" x2="131.263" y2="143.042"/>
	
		<line fill="none" stroke="#47B870" stroke-width="5.828" stroke-linecap="round" stroke-linejoin="round" stroke-miterlimit="10" x1="137.832" y1="143.521" x2="3.388" y2="143.521"/>
	
		<line fill="none" stroke="#47B870" stroke-width="5.831" stroke-linecap="round" stroke-linejoin="round" stroke-miterlimit="10" x1="118.552" y1="40.486" x2="118.552" y2="143.403"/>
	
		<line fill="none" stroke="#47B870" stroke-width="5.831" stroke-linecap="round" stroke-linejoin="round" stroke-miterlimit="10" x1="105.472" y1="40.486" x2="105.472" y2="143.403"/>
	
		<line fill="none" stroke="#47B870" stroke-width="5.831" stroke-linecap="round" stroke-linejoin="round" stroke-miterlimit="10" x1="91.978" y1="40.486" x2="91.978" y2="143.403"/>
	
		<line fill="none" stroke="#47B870" stroke-width="5.8823" stroke-linecap="round" stroke-linejoin="round" stroke-miterlimit="10" x1="71.832" y1="55.546" x2="137.582" y2="55.546"/>
</g>
<defs>
	<filter id="Adobe_OpacityMaskFilter" filterUnits="userSpaceOnUse" x="0.972" y="61.715" width="133.737" height="78.839">
		<feColorMatrix  type="matrix" values="1 0 0 0 0  0 1 0 0 0  0 0 1 0 0  0 0 0 1 0"/>
	</filter>
</defs>
<mask maskUnits="userSpaceOnUse" x="0.972" y="61.715" width="133.737" height="78.839" id="SVGID_1_">
	<g filter="url(#Adobe_OpacityMaskFilter)">
		<g id="XMLID_4_">
			<g>
				<path fill="#E5E5E5" d="M175.271,24.175v130.67h-200V24.175H175.271z M137.6,142.175V37.845h-66v104.33H137.6z"/>
			</g>
		</g>
	</g>
</mask>
<g mask="url(#SVGID_1_)">
	
		<circle fill="none" stroke="#E5E5E5" stroke-width="3.9387" stroke-linecap="round" stroke-linejoin="round" stroke-miterlimit="10" cx="26.618" cy="114.909" r="23.678"/>
	
		<circle fill="none" stroke="#E5E5E5" stroke-width="3.9387" stroke-linecap="round" stroke-linejoin="round" stroke-miterlimit="10" cx="109.061" cy="114.909" r="23.679"/>
	
		<circle fill="none" stroke="#E5E5E5" stroke-width="3.9387" stroke-linecap="round" stroke-linejoin="round" stroke-miterlimit="10" cx="26.618" cy="114.909" r="5.068"/>
	
		<path fill="none" stroke="#E5E5E5" stroke-width="3.9387" stroke-linecap="round" stroke-linejoin="round" stroke-miterlimit="10" d="
		M74.604,114.909c0,4.271-3.465,7.737-7.736,7.737c-4.275,0-7.738-3.467-7.738-7.737c0-4.276,3.463-7.739,7.738-7.739
		C71.14,107.169,74.604,110.632,74.604,114.909z"/>
	
		<circle fill="none" stroke="#E5E5E5" stroke-width="3.9387" stroke-linecap="round" stroke-linejoin="round" stroke-miterlimit="10" cx="109.062" cy="114.646" r="5.068"/>
	
		<line fill="none" stroke="#E5E5E5" stroke-width="3.9387" stroke-linecap="round" stroke-linejoin="round" stroke-miterlimit="10" x1="26.618" y1="109.839" x2="66.868" y2="107.169"/>
	
		<line fill="none" stroke="#E5E5E5" stroke-width="3.9387" stroke-linecap="round" stroke-linejoin="round" stroke-miterlimit="10" x1="26.618" y1="119.976" x2="66.868" y2="122.646"/>
	
		<line fill="none" stroke="#E5E5E5" stroke-width="3.9387" stroke-linecap="round" stroke-linejoin="round" stroke-miterlimit="10" x1="22.03" y1="112.763" x2="43.479" y2="78.542"/>
	
		<polyline fill="none" stroke="#E5E5E5" stroke-width="3.9387" stroke-linecap="round" stroke-linejoin="round" stroke-miterlimit="10" points="
		107.462,109.839 89.964,63.685 79.171,63.685 	"/>
	
		<line fill="none" stroke="#E5E5E5" stroke-width="3.9387" stroke-linecap="round" stroke-linejoin="round" stroke-miterlimit="10" x1="63.394" y1="107.994" x2="39.896" y2="73.238"/>
	
		<line fill="none" stroke="#E5E5E5" stroke-width="3.9387" stroke-linecap="round" stroke-linejoin="round" stroke-miterlimit="10" x1="71.147" y1="108.46" x2="95.694" y2="81.677"/>
	
		<path fill="none" stroke="#E5E5E5" stroke-width="3.9387" stroke-linecap="round" stroke-linejoin="round" stroke-miterlimit="10" d="
		M50.229,69.872c0,1.858-1.506,3.365-3.365,3.365h-12.23c-1.859,0-3.365-1.507-3.365-3.365l0,0c0-1.858,1.506-3.365,3.365-3.365
		h12.23C48.724,66.506,50.229,68.013,50.229,69.872L50.229,69.872z"/>
	
		<line fill="none" stroke="#E5E5E5" stroke-width="3.9387" stroke-linecap="round" stroke-linejoin="round" stroke-miterlimit="10" x1="93.317" y1="72.524" x2="78.011" y2="89.372"/>
	
		<path fill="none" stroke="#E5E5E5" stroke-width="3.9387" stroke-linecap="round" stroke-linejoin="round" stroke-miterlimit="10" d="
		M43.479,78.542c0,0,16.971,28.829,34.531,10.829"/>
</g>
</svg>
