<?xml version="1.0" encoding="utf-8"?>
<!-- Generator: Adobe Illustrator 16.0.0, SVG Export Plug-In . SVG Version: 6.00 Build 0)  -->
<!DOCTYPE svg PUBLIC "-//W3C//DTD SVG 1.1//EN" "http://www.w3.org/Graphics/SVG/1.1/DTD/svg11.dtd">
<svg version="1.1" id="Layer_1" xmlns="http://www.w3.org/2000/svg" xmlns:xlink="http://www.w3.org/1999/xlink" x="0px" y="0px"
	 width="146.5px" height="207.16px" viewBox="0 0 146.5 207.16" enable-background="new 0 0 146.5 207.16" xml:space="preserve">
<g opacity="0.2">
	<circle fill="#4C4C4C" stroke="#FFFFFF" stroke-miterlimit="10" cx="102.109" cy="104.125" r="9.198"/>
	
		<path fill="none" stroke="#4C4C4C" stroke-width="5.6693" stroke-linecap="round" stroke-linejoin="round" stroke-miterlimit="10" d="
		M100.829,125.649c19.477-0.113,35.357,15.582,35.47,35.058c0.113,19.474-15.584,35.352-35.06,35.464
		c-19.473,0.114-35.353-15.581-35.466-35.054C65.66,141.642,81.356,125.763,100.829,125.649z"/>
	
		<circle fill="none" stroke="#4C4C4C" stroke-width="5.6693" stroke-linecap="round" stroke-linejoin="round" stroke-miterlimit="10" cx="101.035" cy="38.611" r="35.261"/>
	
		<line fill="none" stroke="#4C4C4C" stroke-width="5.6693" stroke-linecap="round" stroke-linejoin="round" stroke-miterlimit="10" x1="50.438" y1="64.882" x2="50.821" y2="130.681"/>
	
		<path fill="none" stroke="#4C4C4C" stroke-width="5.6693" stroke-linecap="round" stroke-linejoin="round" stroke-miterlimit="10" d="
		M38.778,135.349"/>
	
		<path fill="none" stroke="#4C4C4C" stroke-width="5.6693" stroke-linecap="round" stroke-linejoin="round" stroke-miterlimit="10" d="
		M50.821,130.681"/>
	
		<line fill="none" stroke="#4C4C4C" stroke-width="5.6693" stroke-linecap="round" stroke-linejoin="round" stroke-miterlimit="10" x1="36.639" y1="70.976" x2="101.036" y2="38.61"/>
	
		<line fill="none" stroke="#4C4C4C" stroke-width="5.6693" stroke-linecap="round" stroke-linejoin="round" stroke-miterlimit="10" x1="36.639" y1="70.976" x2="36.539" y2="53.837"/>
	
		<polyline fill="none" stroke="#4C4C4C" stroke-width="5.6693" stroke-linecap="round" stroke-linejoin="round" stroke-miterlimit="10" points="
		55.226,62.115 101.417,104.13 50.821,130.681 101.755,162.204 101.417,104.13 	"/>
	<polygon stroke="#4C4C4C" stroke-width="5.6693" stroke-linecap="round" stroke-linejoin="round" stroke-miterlimit="10" points="
		38.22,143.944 38.083,120.329 43.592,134.851 	"/>
	
		<path fill="none" stroke="#4C4C4C" stroke-width="5.6693" stroke-linecap="round" stroke-linejoin="round" stroke-miterlimit="10" d="
		M101.755,162.204"/>
	
		<line fill="none" stroke="#4C4C4C" stroke-width="5.6693" stroke-linecap="round" stroke-linejoin="round" stroke-miterlimit="10" x1="101.417" y1="104.13" x2="41.682" y2="135.331"/>
</g>
<polygon fill="#FFFFFF" stroke="#47B970" stroke-width="7.0866" stroke-linecap="round" stroke-linejoin="round" stroke-miterlimit="10" stroke-dasharray="99.2126,14.1732" points="
	141.955,24.33 141.955,93.879 98.569,24.33 "/>
<line fill="none" stroke="#47B970" stroke-width="7.0866" stroke-linecap="round" stroke-linejoin="round" stroke-miterlimit="10" stroke-dasharray="99.2126,14.1732" x1="141.955" y1="202.718" x2="4.545" y2="202.718"/>
<line fill="none" stroke="#47B970" stroke-width="7.0866" stroke-linecap="round" stroke-linejoin="round" stroke-miterlimit="10" x1="141.955" y1="6.428" x2="141.955" y2="200.619"/>
</svg>
