<svg xmlns="http://www.w3.org/2000/svg" xmlns:xlink="http://www.w3.org/1999/xlink" viewBox="0 0 141.73 141.73"><defs><style>.cls-1,.cls-3,.cls-4,.cls-5,.cls-6,.cls-7{fill:none;stroke-linecap:round;stroke-linejoin:round;}.cls-1{stroke:#000;stroke-width:18px;}.cls-2{mask:url(#mask);}.cls-3{stroke:#b3b4b4;stroke-width:3.94px;}.cls-4,.cls-5,.cls-6,.cls-7{stroke:#47b870;}.cls-4{stroke-width:5.67px;}.cls-5{stroke-width:5.83px;}.cls-6{stroke-width:5.83px;}.cls-7{stroke-width:5.88px;}.cls-8{filter:url(#luminosity-noclip);}</style><filter id="luminosity-noclip" x="1.45" y="56.64" width="145.61" height="90.69" filterUnits="userSpaceOnUse" color-interpolation-filters="sRGB"><feFlood flood-color="#fff" result="bg"/><feBlend in="SourceGraphic" in2="bg"/></filter><mask id="mask" x="1.45" y="56.64" width="145.61" height="90.69" maskUnits="userSpaceOnUse"><g class="cls-8"><line class="cls-1" x1="78.8" y1="137.2" x2="78.8" y2="83.04"/><line class="cls-1" x1="131.74" y1="83.04" x2="131.74" y2="137.96"/><line class="cls-1" x1="119.03" y1="83.04" x2="119.03" y2="138.32"/><line class="cls-1" x1="105.95" y1="83.04" x2="105.95" y2="138.32"/><line class="cls-1" x1="92.46" y1="83.04" x2="92.46" y2="138.32"/><line class="cls-1" x1="72.31" y1="98.1" x2="138.06" y2="98.1"/></g></mask></defs><title>tipo_grade</title><g id="Layer_2" data-name="Layer 2"><g class="cls-2"><circle class="cls-3" cx="27.1" cy="109.83" r="23.68" transform="translate(-39.97 18.73) rotate(-22.5)"/><path class="cls-3" d="M133.22,109.83a23.68,23.68,0,1,1-23.68-23.68A23.68,23.68,0,0,1,133.22,109.83Z"/><path class="cls-3" d="M32.17,109.83a5.07,5.07,0,1,1-5.07-5.07A5.07,5.07,0,0,1,32.17,109.83Z"/><path class="cls-3" d="M75.08,109.83a7.74,7.74,0,1,1-7.73-7.74A7.74,7.74,0,0,1,75.08,109.83Z"/><path class="cls-3" d="M114.61,109.57a5.07,5.07,0,1,1-5.07-5.07A5.07,5.07,0,0,1,114.61,109.57Z"/><line class="cls-3" x1="27.1" y1="104.76" x2="67.35" y2="102.09"/><line class="cls-3" x1="27.1" y1="114.9" x2="67.35" y2="117.57"/><line class="cls-3" x1="22.51" y1="107.68" x2="43.96" y2="73.46"/><polyline class="cls-3" points="107.94 104.76 90.44 58.61 79.65 58.61"/><line class="cls-3" x1="63.87" y1="102.92" x2="40.38" y2="68.16"/><line class="cls-3" x1="71.63" y1="103.38" x2="96.17" y2="76.6"/><path class="cls-3" d="M50.71,64.79a3.37,3.37,0,0,1-3.37,3.37H35.11a3.36,3.36,0,0,1-3.36-3.37h0a3.35,3.35,0,0,1,3.36-3.36H47.34a3.36,3.36,0,0,1,3.37,3.36Z"/><line class="cls-3" x1="93.8" y1="67.44" x2="78.49" y2="84.29"/><path class="cls-3" d="M44,73.46s17,28.83,34.53,10.83"/></g><line class="cls-4" x1="78.8" y1="137.2" x2="78.8" y2="83.04"/><line class="cls-4" x1="131.74" y1="83.04" x2="131.74" y2="137.96"/><line class="cls-5" x1="138.31" y1="138.44" x2="3.87" y2="138.44"/><line class="cls-6" x1="119.03" y1="83.04" x2="119.03" y2="138.32"/><line class="cls-6" x1="105.95" y1="83.04" x2="105.95" y2="138.32"/><line class="cls-6" x1="92.46" y1="83.04" x2="92.46" y2="138.32"/><line class="cls-7" x1="72.31" y1="98.1" x2="138.06" y2="98.1"/></g></svg>