<?xml version="1.0" encoding="utf-8"?>
<!-- Generator: Adobe Illustrator 16.0.0, SVG Export Plug-In . SVG Version: 6.00 Build 0)  -->
<!DOCTYPE svg PUBLIC "-//W3C//DTD SVG 1.1//EN" "http://www.w3.org/Graphics/SVG/1.1/DTD/svg11.dtd">
<svg version="1.1" id="Layer_1" xmlns="http://www.w3.org/2000/svg" xmlns:xlink="http://www.w3.org/1999/xlink" x="0px" y="0px"
	 width="253px" height="260px" viewBox="0 0 253 260" enable-background="new 0 0 253 260" xml:space="preserve">
<g>
	
		<circle fill="none" stroke="#E5E5E5" stroke-width="7.1261" stroke-linecap="round" stroke-linejoin="round" stroke-miterlimit="10" cx="52.36" cy="208.719" r="42.839"/>
	
		<circle fill="none" stroke="#E5E5E5" stroke-width="7.1261" stroke-linecap="round" stroke-linejoin="round" stroke-miterlimit="10" cx="201.516" cy="208.719" r="42.839"/>
	
		<path fill="none" stroke="#E5E5E5" stroke-width="7.1261" stroke-linecap="round" stroke-linejoin="round" stroke-miterlimit="10" d="
		M61.53,208.719c0,5.064-4.106,9.168-9.17,9.168c-5.065,0-9.169-4.104-9.169-9.168c0-5.067,4.104-9.171,9.169-9.171
		C57.424,199.548,61.53,203.651,61.53,208.719z"/>
	
		<path fill="none" stroke="#E5E5E5" stroke-width="7.1261" stroke-linecap="round" stroke-linejoin="round" stroke-miterlimit="10" d="
		M139.179,208.719c0,7.727-6.269,13.998-14,13.998c-7.732,0-14-6.271-14-13.998c0-7.736,6.268-14.002,14-14.002
		C132.91,194.717,139.179,200.982,139.179,208.719z"/>
	
		<circle fill="none" stroke="#E5E5E5" stroke-width="7.1261" stroke-linecap="round" stroke-linejoin="round" stroke-miterlimit="10" cx="201.517" cy="208.244" r="9.17"/>
	
		<line fill="none" stroke="#E5E5E5" stroke-width="7.1261" stroke-linecap="round" stroke-linejoin="round" stroke-miterlimit="10" x1="52.359" y1="199.548" x2="125.179" y2="194.717"/>
	
		<line fill="none" stroke="#E5E5E5" stroke-width="7.1261" stroke-linecap="round" stroke-linejoin="round" stroke-miterlimit="10" x1="52.359" y1="217.887" x2="125.179" y2="222.717"/>
	
		<line fill="none" stroke="#E5E5E5" stroke-width="7.1261" stroke-linecap="round" stroke-linejoin="round" stroke-miterlimit="10" x1="44.06" y1="204.838" x2="82.867" y2="142.925"/>
	
		<polyline fill="none" stroke="#E5E5E5" stroke-width="7.1261" stroke-linecap="round" stroke-linejoin="round" stroke-miterlimit="10" points="
		198.625,199.548 166.967,116.044 147.438,116.044 	"/>
	
		<line fill="none" stroke="#E5E5E5" stroke-width="7.1261" stroke-linecap="round" stroke-linejoin="round" stroke-miterlimit="10" x1="118.896" y1="196.208" x2="76.38" y2="133.328"/>
	
		<line fill="none" stroke="#E5E5E5" stroke-width="7.1261" stroke-linecap="round" stroke-linejoin="round" stroke-miterlimit="10" x1="132.923" y1="197.053" x2="177.332" y2="148.597"/>
	
		<path fill="none" stroke="#E5E5E5" stroke-width="7.1261" stroke-linecap="round" stroke-linejoin="round" stroke-miterlimit="10" d="
		M95.079,127.237c0,3.362-2.725,6.088-6.09,6.088H66.861c-3.362,0-6.088-2.726-6.088-6.088l0,0c0-3.362,2.727-6.088,6.088-6.088
		h22.128C92.354,121.149,95.079,123.875,95.079,127.237L95.079,127.237z"/>
	
		<line fill="none" stroke="#E5E5E5" stroke-width="7.1261" stroke-linecap="round" stroke-linejoin="round" stroke-miterlimit="10" x1="173.032" y1="132.036" x2="145.34" y2="162.517"/>
	
		<path fill="none" stroke="#E5E5E5" stroke-width="7.1261" stroke-linecap="round" stroke-linejoin="round" stroke-miterlimit="10" d="
		M82.867,142.925c0,0,30.703,52.158,62.474,19.592"/>
</g>
<path fill="none" stroke="#FFFFFF" stroke-width="21.3782" stroke-miterlimit="10" d="M82.391,254.627v-60.024
	c0-22.936,18.595-41.533,41.53-41.533l0,0c22.938,0,41.53,18.597,41.53,41.533v60.024"/>
<line fill="none" stroke="#47B870" stroke-width="10.6891" stroke-linecap="round" stroke-linejoin="round" stroke-miterlimit="10" x1="247.604" y1="254.625" x2="6.27" y2="254.625"/>
<path fill="none" stroke="#47B870" stroke-width="10.6891" stroke-linecap="round" stroke-linejoin="round" stroke-miterlimit="10" stroke-dasharray="142.5211,17.8151" d="
	M82.698,254.627v-60.024c0-22.936,18.595-41.533,41.53-41.533l0,0c22.937,0,41.53,18.597,41.53,41.533v60.024"/>
</svg>
