<?xml version="1.0" encoding="utf-8"?>
<!-- Generator: Adobe Illustrator 16.0.0, SVG Export Plug-In . SVG Version: 6.00 Build 0)  -->
<!DOCTYPE svg PUBLIC "-//W3C//DTD SVG 1.1//EN" "http://www.w3.org/Graphics/SVG/1.1/DTD/svg11.dtd">
<svg version="1.1" id="Layer_1" xmlns="http://www.w3.org/2000/svg" xmlns:xlink="http://www.w3.org/1999/xlink" x="0px" y="0px"
	 width="200.668px" height="207.16px" viewBox="0 0 200.668 207.16" enable-background="new 0 0 200.668 207.16"
	 xml:space="preserve">
<g opacity="0.2">
	<circle fill="#4C4C4C" stroke="#FFFFFF" stroke-miterlimit="10" cx="127.33" cy="104.375" r="9.198"/>
	
		<path fill="none" stroke="#4C4C4C" stroke-width="5.6693" stroke-linecap="round" stroke-linejoin="round" stroke-miterlimit="10" d="
		M126.051,125.899c19.477-0.113,35.359,15.582,35.471,35.058c0.113,19.474-15.586,35.352-35.061,35.464
		c-19.473,0.114-35.354-15.581-35.467-35.054C90.881,141.892,106.578,126.013,126.051,125.899z"/>
	
		<path fill="none" stroke="#4C4C4C" stroke-width="5.6693" stroke-linecap="round" stroke-linejoin="round" stroke-miterlimit="10" d="
		M148.018,66.613c-4.885,3.838-10.848,6.434-17.463,7.246c-19.33,2.374-36.924-11.371-39.297-30.699
		c-2.375-19.331,11.371-36.925,30.699-39.298c14.307-1.758,27.664,5.314,34.604,16.946"/>
	
		<line fill="none" stroke="#4C4C4C" stroke-width="5.6693" stroke-linecap="round" stroke-linejoin="round" stroke-miterlimit="10" x1="75.66" y1="65.132" x2="76.043" y2="130.931"/>
	
		<path fill="none" stroke="#4C4C4C" stroke-width="5.6693" stroke-linecap="round" stroke-linejoin="round" stroke-miterlimit="10" d="
		M64,135.599"/>
	
		<path fill="none" stroke="#4C4C4C" stroke-width="5.6693" stroke-linecap="round" stroke-linejoin="round" stroke-miterlimit="10" d="
		M76.043,130.931"/>
	
		<line fill="none" stroke="#4C4C4C" stroke-width="5.6693" stroke-linecap="round" stroke-linejoin="round" stroke-miterlimit="10" x1="61.859" y1="71.226" x2="126.258" y2="38.86"/>
	
		<line fill="none" stroke="#4C4C4C" stroke-width="5.6693" stroke-linecap="round" stroke-linejoin="round" stroke-miterlimit="10" x1="61.859" y1="71.226" x2="61.76" y2="54.087"/>
	
		<polyline fill="none" stroke="#4C4C4C" stroke-width="5.6693" stroke-linecap="round" stroke-linejoin="round" stroke-miterlimit="10" points="
		80.447,62.365 126.639,104.38 76.043,130.931 126.977,162.454 126.639,104.38 	"/>
	<polygon stroke="#4C4C4C" stroke-width="5.6693" stroke-linecap="round" stroke-linejoin="round" stroke-miterlimit="10" points="
		63.441,144.194 63.305,120.579 68.813,135.101 	"/>
	
		<path fill="none" stroke="#4C4C4C" stroke-width="5.6693" stroke-linecap="round" stroke-linejoin="round" stroke-miterlimit="10" d="
		M126.977,162.454"/>
	
		<line fill="none" stroke="#4C4C4C" stroke-width="5.6693" stroke-linecap="round" stroke-linejoin="round" stroke-miterlimit="10" x1="126.639" y1="104.38" x2="66.902" y2="135.581"/>
</g>
<polygon fill="none" stroke="#47B970" stroke-width="7.0866" stroke-linecap="round" stroke-linejoin="round" stroke-miterlimit="10" stroke-dasharray="104.8819,14.1732" points="
	167.178,24.58 167.178,94.129 123.791,24.58 "/>
<line fill="none" stroke="#47B970" stroke-width="7.0866" stroke-linecap="round" stroke-linejoin="round" stroke-miterlimit="10" stroke-dasharray="99.2126,14.1732" x1="167.178" y1="202.968" x2="29.766" y2="202.968"/>
<line fill="none" stroke="#47B970" stroke-width="7.0866" stroke-linecap="round" stroke-linejoin="round" stroke-miterlimit="10" x1="167.178" y1="6.678" x2="167.178" y2="200.869"/>
<g id="Star_-_Orange">
</g>
</svg>
