<?xml version="1.0" encoding="utf-8"?>
<!-- Generator: Adobe Illustrator 16.0.0, SVG Export Plug-In . SVG Version: 6.00 Build 0)  -->
<!DOCTYPE svg PUBLIC "-//W3C//DTD SVG 1.1//EN" "http://www.w3.org/Graphics/SVG/1.1/DTD/svg11.dtd">
<svg version="1.1" id="Layer_1" xmlns="http://www.w3.org/2000/svg" xmlns:xlink="http://www.w3.org/1999/xlink" x="0px" y="0px"
	 width="202.5px" height="106.221px" viewBox="0 0 202.5 106.221" enable-background="new 0 0 202.5 106.221" xml:space="preserve">
<g opacity="0.2">
	
		<path fill="none" stroke="#515151" stroke-width="4.252" stroke-linecap="round" stroke-linejoin="round" stroke-miterlimit="10" d="
		M107.07,72.187c0-4.795-3.888-8.668-8.674-8.668c-4.783,0-8.666,3.873-8.666,8.668c0,4.775,3.883,8.661,8.666,8.661
		C103.183,80.848,107.07,76.962,107.07,72.187z"/>
	
		<path fill="none" stroke="#515151" stroke-width="4.252" stroke-linecap="round" stroke-linejoin="round" stroke-miterlimit="10" d="
		M78.666,73.944C72.9,93.53,52.37,104.737,32.781,98.97C13.209,93.207,2.002,72.667,7.768,53.083
		c5.755-19.582,26.306-30.78,45.886-25.02C73.229,33.83,84.428,54.364,78.666,73.944z"/>
	
		<path fill="none" stroke="#515151" stroke-width="4.252" stroke-linecap="round" stroke-linejoin="round" stroke-miterlimit="10" d="
		M198.957,64.076c0,20.407-16.547,36.954-36.958,36.954c-20.407,0-36.955-16.547-36.955-36.954
		c0-20.411,16.548-36.959,36.955-36.959C182.41,27.117,198.957,43.665,198.957,64.076z"/>
	
		<line fill="none" stroke="#515151" stroke-width="4.252" stroke-linecap="round" stroke-linejoin="round" stroke-miterlimit="10" x1="135.658" y1="16.405" x2="73.664" y2="16.405"/>
	
		<line fill="none" stroke="#515151" stroke-width="4.252" stroke-linecap="round" stroke-linejoin="round" stroke-miterlimit="10" x1="73.664" y1="16.405" x2="69.327" y2="5.038"/>
	
		<line fill="none" stroke="#515151" stroke-width="4.252" stroke-linecap="round" stroke-linejoin="round" stroke-miterlimit="10" x1="129.996" y1="3.37" x2="160.13" y2="64.221"/>
	
		<line fill="none" stroke="#515151" stroke-width="4.252" stroke-linecap="round" stroke-linejoin="round" stroke-miterlimit="10" x1="129.996" y1="3.37" x2="146.129" y2="3.37"/>
	
		<polyline fill="none" stroke="#515151" stroke-width="4.252" stroke-linecap="round" stroke-linejoin="round" stroke-miterlimit="10" points="
		138.83,21.209 98.392,73.183 73.664,16.405 43.214,64.076 98.392,73.183 	"/>
	
		<polygon fill="none" stroke="#515151" stroke-width="4.252" stroke-linecap="round" stroke-linejoin="round" stroke-miterlimit="10" points="
		62.533,4.459 84.789,4.459 71.08,9.575 	"/>
</g>
<rect x="114.703" y="44.373" fill="#FFFFFF" width="79.525" height="57.407"/>
<line fill="#FFFFFF" stroke="#47B970" stroke-width="7.0866" stroke-linecap="round" stroke-linejoin="round" stroke-miterlimit="10" x1="194.495" y1="101.78" x2="4.954" y2="101.78"/>
<line fill="#FFFFFF" stroke="#47B970" stroke-width="7.0866" stroke-linecap="round" stroke-linejoin="round" stroke-miterlimit="10" x1="146.831" y1="101.518" x2="146.831" y2="26.259"/>
<line fill="#FFFFFF" stroke="#47B970" stroke-width="7.0866" stroke-linecap="round" stroke-linejoin="round" stroke-miterlimit="10" stroke-dasharray="45.3543,14.1732" x1="129.996" y1="26.259" x2="129.996" y2="101.518"/>
<line fill="#FFFFFF" stroke="#47B970" stroke-width="7.0866" stroke-linecap="round" stroke-linejoin="round" stroke-miterlimit="10" x1="113.586" y1="101.518" x2="113.586" y2="26.259"/>
<line fill="#FFFFFF" stroke="#47B970" stroke-width="7.0866" stroke-linecap="round" stroke-linejoin="round" stroke-miterlimit="10" x1="163.348" y1="101.518" x2="163.348" y2="26.259"/>
<line fill="#FFFFFF" stroke="#47B970" stroke-width="7.0866" stroke-linecap="round" stroke-linejoin="round" stroke-miterlimit="10" stroke-dasharray="45.3543,14.1732" x1="179.869" y1="101.518" x2="179.869" y2="26.259"/>
<line fill="#FFFFFF" stroke="#47B970" stroke-width="7.0866" stroke-linecap="round" stroke-linejoin="round" stroke-miterlimit="10" x1="197.15" y1="101.518" x2="197.15" y2="26.259"/>
<line fill="#FFFFFF" stroke="#47B970" stroke-width="7.0866" stroke-linecap="round" stroke-linejoin="round" stroke-miterlimit="10" x1="113.586" y1="44.533" x2="197.15" y2="44.533"/>
</svg>
