<?xml version="1.0" encoding="utf-8"?>
<!-- Generator: Adobe Illustrator 16.0.0, SVG Export Plug-In . SVG Version: 6.00 Build 0)  -->
<!DOCTYPE svg PUBLIC "-//W3C//DTD SVG 1.1//EN" "http://www.w3.org/Graphics/SVG/1.1/DTD/svg11.dtd">
<svg version="1.1" id="Layer_1" xmlns="http://www.w3.org/2000/svg" xmlns:xlink="http://www.w3.org/1999/xlink" x="0px" y="0px"
	 width="203.672px" height="210.327px" viewBox="0 0 203.672 210.327" enable-background="new 0 0 203.672 210.327"
	 xml:space="preserve">
<g id="Star_-_Orange">
</g>
<g opacity="0.2">
	
		<path fill="none" stroke="#4C4C4C" stroke-width="5.6693" stroke-linecap="round" stroke-linejoin="round" stroke-miterlimit="10" d="
		M67.879,185.345c-6.375,8.675-16.629,14.329-28.223,14.396c-19.473,0.113-35.352-15.584-35.465-35.06
		c-0.113-19.473,15.582-35.353,35.055-35.466c11.906-0.069,22.469,5.771,28.906,14.769"/>
	
		<path fill="none" stroke="#4C4C4C" stroke-width="5.6693" stroke-linecap="round" stroke-linejoin="round" stroke-miterlimit="10" d="
		M139.832,136.85c4.914-3.907,10.934-6.551,17.621-7.372c19.332-2.374,36.924,11.372,39.299,30.7
		c2.373,19.331-11.371,36.927-30.703,39.301c-8.383,1.029-16.439-0.974-23.068-5.149"/>
	
		<line fill="none" stroke="#4C4C4C" stroke-width="5.6693" stroke-linecap="round" stroke-linejoin="round" stroke-miterlimit="10" x1="135.482" y1="113.88" x2="69.684" y2="114.263"/>
	
		<path fill="none" stroke="#4C4C4C" stroke-width="5.6693" stroke-linecap="round" stroke-linejoin="round" stroke-miterlimit="10" d="
		M65.016,102.22"/>
	
		<path fill="none" stroke="#4C4C4C" stroke-width="5.6693" stroke-linecap="round" stroke-linejoin="round" stroke-miterlimit="10" d="
		M69.684,114.263"/>
	
		<line fill="none" stroke="#4C4C4C" stroke-width="5.6693" stroke-linecap="round" stroke-linejoin="round" stroke-miterlimit="10" x1="129.389" y1="100.08" x2="161.752" y2="164.478"/>
	
		<line fill="none" stroke="#4C4C4C" stroke-width="5.6693" stroke-linecap="round" stroke-linejoin="round" stroke-miterlimit="10" x1="129.389" y1="100.08" x2="146.525" y2="99.98"/>
	
		<path fill="none" stroke="#4C4C4C" stroke-width="5.6693" stroke-linecap="round" stroke-linejoin="round" stroke-miterlimit="10" d="
		M96.234,164.858"/>
	
		<polyline fill="none" stroke="#4C4C4C" stroke-width="5.6693" stroke-linecap="round" stroke-linejoin="round" stroke-miterlimit="10" points="
		80.072,134.06 69.684,114.263 38.158,165.196 66.773,165.03 	"/>
	
		<path fill="none" stroke="#4C4C4C" stroke-width="5.6693" stroke-linecap="round" stroke-linejoin="round" stroke-miterlimit="10" d="
		M96.234,164.858"/>
	
		<line fill="none" stroke="#4C4C4C" stroke-width="5.6693" stroke-linecap="round" stroke-linejoin="round" stroke-miterlimit="10" x1="138.248" y1="118.667" x2="126.027" y2="132.104"/>
	<polygon stroke="#4C4C4C" stroke-width="5.6693" stroke-linecap="round" stroke-linejoin="round" stroke-miterlimit="10" points="
		56.42,101.661 80.033,101.524 65.514,107.033 	"/>
	
		<path fill="none" stroke="#4C4C4C" stroke-width="5.6693" stroke-linecap="round" stroke-linejoin="round" stroke-miterlimit="10" d="
		M38.158,165.196"/>
	
		<line fill="none" stroke="#4C4C4C" stroke-width="5.6693" stroke-linecap="round" stroke-linejoin="round" stroke-miterlimit="10" x1="78.447" y1="130.803" x2="65.033" y2="105.123"/>
</g>
<g>
	
		<path fill="none" stroke="#EEC41A" stroke-width="8.5039" stroke-linecap="round" stroke-linejoin="round" stroke-miterlimit="10" stroke-dasharray="85.0394,14.1732" d="
		M66.773,205.036v-53.803c0-9.541,6.67-17.27,14.896-17.27h46.414c3.828,0,7.318,1.674,9.959,4.424
		c3.031,3.16,4.938,7.744,4.938,12.846v43.094v10.709H66.773z"/>
	
		<line fill="none" stroke="#EEC41A" stroke-width="8.5039" stroke-linecap="round" stroke-linejoin="round" stroke-miterlimit="10" stroke-dasharray="85.0394,14.1732" x1="196.189" y1="204.878" x2="4.191" y2="204.878"/>
</g>
</svg>
