<?xml version="1.0" encoding="utf-8"?>
<!-- Generator: Adobe Illustrator 16.0.0, SVG Export Plug-In . SVG Version: 6.00 Build 0)  -->
<!DOCTYPE svg PUBLIC "-//W3C//DTD SVG 1.1//EN" "http://www.w3.org/Graphics/SVG/1.1/DTD/svg11.dtd">
<svg version="1.1" id="Layer_1" xmlns="http://www.w3.org/2000/svg" xmlns:xlink="http://www.w3.org/1999/xlink" x="0px" y="0px"
	 width="210px" height="209.105px" viewBox="0 0 210 209.105" enable-background="new 0 0 210 209.105" xml:space="preserve">
<g opacity="0.2">
	
		<circle fill="none" stroke="#4C4C4C" stroke-width="5.6693" stroke-linecap="round" stroke-linejoin="round" stroke-miterlimit="10" cx="98.96" cy="167.3" r="9.197"/>
	
		<path fill="none" stroke="#4C4C4C" stroke-width="5.6693" stroke-linecap="round" stroke-linejoin="round" stroke-miterlimit="10" d="
		M77.437,166.02c0.113,19.477-15.582,35.356-35.059,35.47c-19.473,0.113-35.352-15.584-35.463-35.06
		c-0.115-19.474,15.58-35.354,35.053-35.467C61.444,130.851,77.323,146.547,77.437,166.02z"/>
	
		<path fill="none" stroke="#4C4C4C" stroke-width="5.6693" stroke-linecap="round" stroke-linejoin="round" stroke-miterlimit="10" d="
		M199.736,166.02c0.113,19.477-15.584,35.356-35.061,35.47c-19.473,0.113-35.35-15.584-35.461-35.06
		c-0.115-19.474,15.578-35.354,35.051-35.467C183.743,130.851,199.624,146.547,199.736,166.02z"/>
	
		<line fill="none" stroke="#4C4C4C" stroke-width="5.6693" stroke-linecap="round" stroke-linejoin="round" stroke-miterlimit="10" x1="138.204" y1="115.629" x2="72.405" y2="116.012"/>
	
		<path fill="none" stroke="#4C4C4C" stroke-width="5.6693" stroke-linecap="round" stroke-linejoin="round" stroke-miterlimit="10" d="
		M67.737,103.969"/>
	
		<path fill="none" stroke="#4C4C4C" stroke-width="5.6693" stroke-linecap="round" stroke-linejoin="round" stroke-miterlimit="10" d="
		M72.405,116.012"/>
	
		<line fill="none" stroke="#4C4C4C" stroke-width="5.6693" stroke-linecap="round" stroke-linejoin="round" stroke-miterlimit="10" x1="132.109" y1="101.83" x2="164.477" y2="166.227"/>
	
		<line fill="none" stroke="#4C4C4C" stroke-width="5.6693" stroke-linecap="round" stroke-linejoin="round" stroke-miterlimit="10" x1="132.109" y1="101.83" x2="149.249" y2="101.73"/>
	
		<path fill="none" stroke="#4C4C4C" stroke-width="5.6693" stroke-linecap="round" stroke-linejoin="round" stroke-miterlimit="10" d="
		M98.956,166.608"/>
	
		<polyline fill="none" stroke="#4C4C4C" stroke-width="5.6693" stroke-linecap="round" stroke-linejoin="round" stroke-miterlimit="10" points="
		98.956,166.608 72.405,116.012 40.882,166.946 89.075,166.946 	"/>
	
		<line fill="none" stroke="#4C4C4C" stroke-width="5.6693" stroke-linecap="round" stroke-linejoin="round" stroke-miterlimit="10" x1="140.971" y1="120.417" x2="105.882" y2="158.994"/>
	
		<polygon fill="none" stroke="#4C4C4C" stroke-width="5.6693" stroke-linecap="round" stroke-linejoin="round" stroke-miterlimit="10" points="
		59.142,103.411 82.757,103.274 68.235,108.783 	"/>
	
		<path fill="none" stroke="#4C4C4C" stroke-width="5.6693" stroke-linecap="round" stroke-linejoin="round" stroke-miterlimit="10" d="
		M40.882,166.946"/>
	
		<line fill="none" stroke="#4C4C4C" stroke-width="5.6693" stroke-linecap="round" stroke-linejoin="round" stroke-miterlimit="10" x1="98.956" y1="166.608" x2="67.755" y2="106.873"/>
</g>
<path fill="none" stroke="#FFFFFF" stroke-width="19.8425" stroke-linecap="round" stroke-linejoin="round" stroke-miterlimit="10" d="
	M81.203,134.014c0,0-1.281-26.215,24.642-24.938c25.924,1.275,24.35,26.023,24.35,26.023s-0.438,9.643-8.24,16.736
	c-7.803,7.094-15.707,13.889-17.166,21.441c-1.458,7.549-0.599,15.771-0.599,15.771"/>
<g>
	
		<line fill="none" stroke="#47B870" stroke-width="8.3799" stroke-linecap="round" stroke-linejoin="round" stroke-miterlimit="10" x1="89.763" y1="204.227" x2="9.313" y2="204.227"/>
</g>
<g>
	
		<line fill="none" stroke="#47B870" stroke-width="8.677" stroke-linecap="round" stroke-linejoin="round" stroke-miterlimit="10" x1="202.136" y1="204.227" x2="119" y2="204.227"/>
</g>
<g>
	
		<line fill="none" stroke="#47B870" stroke-width="11.3386" stroke-linecap="round" stroke-linejoin="round" stroke-miterlimit="10" x1="104.326" y1="203.308" x2="103.679" y2="203.308"/>
</g>
<path fill="none" stroke="#47B870" stroke-width="11.3386" stroke-linecap="round" stroke-linejoin="round" stroke-miterlimit="10" d="
	M81.203,134.171c0,0-1.281-26.214,24.642-24.937c25.924,1.275,24.35,26.023,24.35,26.023s-0.438,9.643-8.24,16.735
	c-7.803,7.095-15.707,13.89-17.166,21.441c-1.458,7.55-0.599,15.772-0.599,15.772"/>
</svg>
