<?xml version="1.0" encoding="utf-8"?>
<!-- Generator: Adobe Illustrator 16.0.0, SVG Export Plug-In . SVG Version: 6.00 Build 0)  -->
<!DOCTYPE svg PUBLIC "-//W3C//DTD SVG 1.1//EN" "http://www.w3.org/Graphics/SVG/1.1/DTD/svg11.dtd">
<svg version="1.1" id="Layer_1" xmlns="http://www.w3.org/2000/svg" xmlns:xlink="http://www.w3.org/1999/xlink" x="0px" y="0px"
	 width="380.333px" height="383.75px" viewBox="0 0 380.333 383.75" enable-background="new 0 0 380.333 383.75"
	 xml:space="preserve">
<g>
	
		<path fill="none" stroke="#E5E5E5" stroke-width="10.6319" stroke-linecap="round" stroke-linejoin="round" stroke-miterlimit="10" d="
		M143.799,300.834c0,14.884-5.088,28.581-13.622,39.445c-11.701,14.896-29.881,24.465-50.294,24.465
		c-35.299,0-63.914-28.614-63.914-63.91c0-35.3,28.615-63.918,63.914-63.918c18.27,0,34.749,7.665,46.398,19.957
		C137.14,268.33,143.799,283.806,143.799,300.834z"/>
	
		<path fill="none" stroke="#E5E5E5" stroke-width="10.6319" stroke-linecap="round" stroke-linejoin="round" stroke-miterlimit="10" d="
		M238.508,300.834"/>
	
		<path fill="none" stroke="#E5E5E5" stroke-width="10.6319" stroke-linecap="round" stroke-linejoin="round" stroke-miterlimit="10" d="
		M277.542,241.939c7.646-3.234,16.055-5.023,24.878-5.023c35.302,0,63.916,28.618,63.916,63.918c0,35.296-28.614,63.91-63.916,63.91
		c-8.446,0-16.512-1.639-23.893-4.617"/>
	
		<path fill="none" stroke="#E5E5E5" stroke-width="10.6319" stroke-linecap="round" stroke-linejoin="round" stroke-miterlimit="10" d="
		M93.563,300.834c0,7.553-6.125,13.677-13.681,13.677c-7.557,0-13.681-6.124-13.681-13.677c0-7.562,6.124-13.685,13.681-13.685
		C87.438,287.149,93.563,293.272,93.563,300.834z"/>
	
		<path fill="none" stroke="#E5E5E5" stroke-width="10.6319" stroke-linecap="round" stroke-linejoin="round" stroke-miterlimit="10" d="
		M316.104,300.125c0,7.555-6.125,13.679-13.681,13.679c-7.557,0-13.683-6.124-13.683-13.679c0-7.558,6.126-13.682,13.683-13.682
		C309.979,286.443,316.104,292.567,316.104,300.125z"/>
	
		<line fill="none" stroke="#E5E5E5" stroke-width="10.6319" stroke-linecap="round" stroke-linejoin="round" stroke-miterlimit="10" x1="79.883" y1="287.149" x2="129.122" y2="283.884"/>
	
		<path fill="none" stroke="#E5E5E5" stroke-width="10.6319" stroke-linecap="round" stroke-linejoin="round" stroke-miterlimit="10" d="
		M188.528,321.719"/>
	
		<line fill="none" stroke="#E5E5E5" stroke-width="10.6319" stroke-linecap="round" stroke-linejoin="round" stroke-miterlimit="10" x1="79.883" y1="314.511" x2="131.275" y2="317.921"/>
	
		<line fill="none" stroke="#E5E5E5" stroke-width="10.6319" stroke-linecap="round" stroke-linejoin="round" stroke-miterlimit="10" x1="67.499" y1="295.04" x2="125.4" y2="202.667"/>
	
		<polyline fill="none" stroke="#E5E5E5" stroke-width="10.6319" stroke-linecap="round" stroke-linejoin="round" stroke-miterlimit="10" points="
		298.108,287.146 276.117,229.14 250.877,162.565 221.739,162.565 	"/>
	
		<line fill="none" stroke="#E5E5E5" stroke-width="10.6319" stroke-linecap="round" stroke-linejoin="round" stroke-miterlimit="10" x1="139" y1="222.779" x2="115.722" y2="188.351"/>
	
		<path fill="none" stroke="#E5E5E5" stroke-width="10.6319" stroke-linecap="round" stroke-linejoin="round" stroke-miterlimit="10" d="
		M179.153,282.167"/>
	
		<line fill="none" stroke="#E5E5E5" stroke-width="10.6319" stroke-linecap="round" stroke-linejoin="round" stroke-miterlimit="10" x1="239.682" y1="240.218" x2="266.341" y2="211.13"/>
	
		<path fill="none" stroke="#E5E5E5" stroke-width="10.6319" stroke-linecap="round" stroke-linejoin="round" stroke-miterlimit="10" d="
		M200.081,283.426"/>
	
		<path fill="none" stroke="#E5E5E5" stroke-width="10.6319" stroke-linecap="round" stroke-linejoin="round" stroke-miterlimit="10" d="
		M143.619,179.266c0,5.016-4.065,9.083-9.086,9.083h-33.015c-5.018,0-9.084-4.067-9.084-9.083l0,0c0-5.018,4.066-9.087,9.084-9.087
		h33.015C139.554,170.178,143.619,174.248,143.619,179.266L143.619,179.266z"/>
	
		<path fill="none" stroke="#E5E5E5" stroke-width="10.6319" stroke-linecap="round" stroke-linejoin="round" stroke-miterlimit="10" d="
		M218.609,231.9"/>
	
		<line fill="none" stroke="#E5E5E5" stroke-width="10.6319" stroke-linecap="round" stroke-linejoin="round" stroke-miterlimit="10" x1="259.922" y1="186.424" x2="223.792" y2="226.195"/>
	
		<path fill="none" stroke="#E5E5E5" stroke-width="10.6319" stroke-linecap="round" stroke-linejoin="round" stroke-miterlimit="10" d="
		M218.609,231.9"/>
</g>
<g>
	
		<line fill="none" stroke="#FFFFFF" stroke-width="31.1582" stroke-linecap="round" stroke-linejoin="round" stroke-miterlimit="10" x1="133.332" y1="366.168" x2="133.332" y2="242.295"/>
	
		<line fill="none" stroke="#FFFFFF" stroke-width="31.1582" stroke-linecap="round" stroke-linejoin="round" stroke-miterlimit="10" x1="276.247" y1="242.295" x2="276.247" y2="366.168"/>
	
		<line fill="none" stroke="#FFFFFF" stroke-width="31.1582" stroke-linecap="round" stroke-linejoin="round" stroke-miterlimit="10" stroke-dasharray="153.7585,25.6264" x1="241.935" y1="242.295" x2="241.935" y2="367.533"/>
	
		<line fill="none" stroke="#FFFFFF" stroke-width="31.1582" stroke-linecap="round" stroke-linejoin="round" stroke-miterlimit="10" stroke-dasharray="153.7585,25.6264" x1="206.625" y1="242.295" x2="206.625" y2="367.533"/>
	
		<line fill="none" stroke="#FFFFFF" stroke-width="31.1582" stroke-linecap="round" stroke-linejoin="round" stroke-miterlimit="10" stroke-dasharray="153.7585,25.6264" x1="170.2" y1="242.295" x2="170.2" y2="367.533"/>
	
		<line fill="none" stroke="#FFFFFF" stroke-width="31.1582" stroke-linecap="round" stroke-linejoin="round" stroke-miterlimit="10" x1="117.243" y1="268.365" x2="293.976" y2="268.365"/>
	
		<line fill="none" stroke="#47B870" stroke-width="15.9479" stroke-linecap="round" stroke-linejoin="round" stroke-miterlimit="10" x1="133.332" y1="372.819" x2="133.332" y2="243.011"/>
	
		<line fill="none" stroke="#47B870" stroke-width="15.9479" stroke-linecap="round" stroke-linejoin="round" stroke-miterlimit="10" x1="276.247" y1="243.011" x2="276.247" y2="372.819"/>
	
		<line fill="none" stroke="#47B870" stroke-width="15.7317" stroke-linecap="round" stroke-linejoin="round" stroke-miterlimit="10" x1="372.375" y1="376" x2="7.834" y2="376"/>
	
		<line fill="none" stroke="#47B870" stroke-width="15.7399" stroke-linecap="round" stroke-linejoin="round" stroke-miterlimit="10" stroke-dasharray="157.3986,26.233" x1="241.935" y1="243.011" x2="241.935" y2="374.25"/>
	
		<line fill="none" stroke="#47B870" stroke-width="15.7399" stroke-linecap="round" stroke-linejoin="round" stroke-miterlimit="10" stroke-dasharray="157.3986,26.233" x1="206.625" y1="243.011" x2="206.625" y2="374.25"/>
	
		<line fill="none" stroke="#47B870" stroke-width="15.7399" stroke-linecap="round" stroke-linejoin="round" stroke-miterlimit="10" stroke-dasharray="157.3986,26.233" x1="170.2" y1="243.011" x2="170.2" y2="374.25"/>
	
		<line fill="none" stroke="#47B870" stroke-width="15.8781" stroke-linecap="round" stroke-linejoin="round" stroke-miterlimit="10" x1="117.243" y1="270.33" x2="293.976" y2="270.33"/>
</g>
</svg>
