<?xml version="1.0" encoding="utf-8"?>
<!-- Generator: Adobe Illustrator 16.0.0, SVG Export Plug-In . SVG Version: 6.00 Build 0)  -->
<!DOCTYPE svg PUBLIC "-//W3C//DTD SVG 1.1//EN" "http://www.w3.org/Graphics/SVG/1.1/DTD/svg11.dtd">
<svg version="1.1" id="Layer_1" xmlns="http://www.w3.org/2000/svg" xmlns:xlink="http://www.w3.org/1999/xlink" x="0px" y="0px"
	 width="203.672px" height="210.327px" viewBox="0 0 203.672 210.327" enable-background="new 0 0 203.672 210.327"
	 xml:space="preserve">
<g id="Star_-_Orange">
</g>
<g opacity="0.2">
	<circle fill="#4C4C4C" stroke="#FFFFFF" stroke-miterlimit="10" cx="96.761" cy="166.833" r="9.197"/>
	
		<path fill="none" stroke="#4C4C4C" stroke-width="5.6693" stroke-linecap="round" stroke-linejoin="round" stroke-miterlimit="10" d="
		M75.238,165.553c0.113,19.477-15.583,35.357-35.06,35.47c-19.472,0.113-35.351-15.584-35.462-35.06
		c-0.115-19.473,15.58-35.353,35.052-35.466C59.245,130.384,75.125,146.08,75.238,165.553z"/>
	
		<path fill="none" stroke="#4C4C4C" stroke-width="5.6693" stroke-linecap="round" stroke-linejoin="round" stroke-miterlimit="10" d="
		M143.181,195.406c-8.488-5.476-14.576-14.54-15.904-25.35c-2.373-19.329,11.371-36.923,30.699-39.297
		c15.227-1.87,29.373,6.26,35.855,19.24"/>
	
		<line fill="none" stroke="#4C4C4C" stroke-width="5.6693" stroke-linecap="round" stroke-linejoin="round" stroke-miterlimit="10" x1="136.005" y1="115.162" x2="70.207" y2="115.545"/>
	
		<path fill="none" stroke="#4C4C4C" stroke-width="5.6693" stroke-linecap="round" stroke-linejoin="round" stroke-miterlimit="10" d="
		M65.539,103.502"/>
	
		<path fill="none" stroke="#4C4C4C" stroke-width="5.6693" stroke-linecap="round" stroke-linejoin="round" stroke-miterlimit="10" d="
		M70.207,115.545"/>
	
		<line fill="none" stroke="#4C4C4C" stroke-width="5.6693" stroke-linecap="round" stroke-linejoin="round" stroke-miterlimit="10" x1="129.912" y1="101.362" x2="162.277" y2="165.76"/>
	
		<line fill="none" stroke="#4C4C4C" stroke-width="5.6693" stroke-linecap="round" stroke-linejoin="round" stroke-miterlimit="10" x1="129.912" y1="101.362" x2="147.05" y2="101.263"/>
	
		<polyline fill="none" stroke="#4C4C4C" stroke-width="5.6693" stroke-linecap="round" stroke-linejoin="round" stroke-miterlimit="10" points="
		138.771,119.949 96.757,166.141 70.207,115.545 38.682,166.479 96.757,166.141 	"/>
	<polygon stroke="#4C4C4C" stroke-width="5.6693" stroke-linecap="round" stroke-linejoin="round" stroke-miterlimit="10" points="
		56.943,102.943 80.558,102.807 66.037,108.315 	"/>
	
		<path fill="none" stroke="#4C4C4C" stroke-width="5.6693" stroke-linecap="round" stroke-linejoin="round" stroke-miterlimit="10" d="
		M38.682,166.479"/>
	
		<line fill="none" stroke="#4C4C4C" stroke-width="5.6693" stroke-linecap="round" stroke-linejoin="round" stroke-miterlimit="10" x1="96.757" y1="166.141" x2="65.556" y2="106.405"/>
</g>
<polygon fill="none" stroke="#EEC41A" stroke-width="8.5039" stroke-linecap="round" stroke-linejoin="round" stroke-miterlimit="10" stroke-dasharray="85.0394,14.1732" points="
	127.64,205.755 198.783,205.755 198.783,148.887 "/>
<line fill="none" stroke="#EEC41A" stroke-width="8.5039" stroke-linecap="round" stroke-linejoin="round" stroke-miterlimit="10" x1="130.361" y1="205.755" x2="4.716" y2="205.755"/>
</svg>
