<svg xmlns="http://www.w3.org/2000/svg" xmlns:xlink="http://www.w3.org/1999/xlink" viewBox="0 0 141.73 141.73"><defs><style>.cls-1,.cls-2,.cls-3,.cls-5,.cls-7,.cls-9{fill:none;stroke-linecap:round;stroke-linejoin:round;}.cls-1,.cls-2,.cls-3{stroke:#000;}.cls-1{stroke-width:15px;}.cls-2{stroke-width:14px;}.cls-3{stroke-width:20px;filter:url(#luminosity-noclip-3);}.cls-4{mask:url(#mask);}.cls-5,.cls-7{stroke:#47b870;}.cls-5{stroke-width:5.67px;}.cls-6{mask:url(#mask-2);}.cls-7{stroke-width:5.67px;}.cls-8{mask:url(#mask-3);}.cls-9{stroke:#b3b4b4;stroke-width:3.94px;}.cls-10{filter:url(#luminosity-noclip-2);}.cls-11{filter:url(#luminosity-noclip);}</style><filter id="luminosity-noclip" x="-1.24" y="-13.48" width="144.8" height="154.28" filterUnits="userSpaceOnUse" color-interpolation-filters="sRGB"><feFlood flood-color="#fff" result="bg"/><feBlend in="SourceGraphic" in2="bg"/></filter><mask id="mask" x="-1.24" y="-13.48" width="144.8" height="154.28" maskUnits="userSpaceOnUse"><g class="cls-11"><circle class="cls-1" cx="29.93" cy="109.62" r="23.68" transform="translate(-83.63 113.57) rotate(-76.72)"/><path class="cls-1" d="M136.06,109.62a23.68,23.68,0,1,1-23.68-23.68A23.68,23.68,0,0,1,136.06,109.62Z"/><path class="cls-1" d="M35,109.62a5.07,5.07,0,1,1-5.07-5.07A5.07,5.07,0,0,1,35,109.62Z"/><path class="cls-1" d="M77.92,109.62a7.74,7.74,0,1,1-7.74-7.74A7.74,7.74,0,0,1,77.92,109.62Z"/><path class="cls-1" d="M117.45,109.36a5.07,5.07,0,1,1-5.07-5.07A5.07,5.07,0,0,1,117.45,109.36Z"/><line class="cls-1" x1="29.93" y1="104.55" x2="70.18" y2="101.88"/><line class="cls-1" x1="29.93" y1="114.69" x2="70.18" y2="117.36"/><line class="cls-1" x1="25.35" y1="107.48" x2="46.8" y2="73.26"/><polyline class="cls-1" points="110.78 104.55 93.28 58.4 82.49 58.4"/><line class="cls-1" x1="66.71" y1="102.71" x2="43.21" y2="67.95"/><line class="cls-1" x1="74.46" y1="103.17" x2="99.01" y2="76.39"/><path class="cls-1" d="M53.55,64.58A3.37,3.37,0,0,1,50.18,68H38a3.37,3.37,0,0,1-3.37-3.37h0A3.37,3.37,0,0,1,38,61.22H50.18a3.37,3.37,0,0,1,3.37,3.36Z"/><line class="cls-1" x1="96.63" y1="67.24" x2="81.33" y2="84.08"/><path class="cls-1" d="M46.8,73.26s17,28.82,34.53,10.82"/></g></mask><filter id="luminosity-noclip-2" x="-0.74" y="-13.48" width="143.8" height="154.27" filterUnits="userSpaceOnUse" color-interpolation-filters="sRGB"><feFlood flood-color="#fff" result="bg"/><feBlend in="SourceGraphic" in2="bg"/></filter><mask id="mask-2" x="-0.74" y="-13.48" width="143.8" height="154.27" maskUnits="userSpaceOnUse"><g class="cls-10"><circle class="cls-2" cx="29.93" cy="109.62" r="23.68" transform="translate(-83.63 113.57) rotate(-76.72)"/><path class="cls-2" d="M136.06,109.62a23.68,23.68,0,1,1-23.68-23.68A23.68,23.68,0,0,1,136.06,109.62Z"/><path class="cls-2" d="M35,109.62a5.07,5.07,0,1,1-5.07-5.07A5.07,5.07,0,0,1,35,109.62Z"/><path class="cls-2" d="M77.92,109.62a7.74,7.74,0,1,1-7.74-7.74A7.74,7.74,0,0,1,77.92,109.62Z"/><path class="cls-2" d="M117.45,109.36a5.07,5.07,0,1,1-5.07-5.07A5.07,5.07,0,0,1,117.45,109.36Z"/><line class="cls-2" x1="29.93" y1="104.55" x2="70.18" y2="101.88"/><line class="cls-2" x1="29.93" y1="114.69" x2="70.18" y2="117.36"/><line class="cls-2" x1="25.35" y1="107.48" x2="46.8" y2="73.26"/><polyline class="cls-2" points="110.78 104.55 93.28 58.4 82.49 58.4"/><line class="cls-2" x1="66.71" y1="102.71" x2="43.21" y2="67.95"/><line class="cls-2" x1="74.46" y1="103.17" x2="99.01" y2="76.39"/><path class="cls-2" d="M53.55,64.58A3.37,3.37,0,0,1,50.18,68H38a3.37,3.37,0,0,1-3.37-3.37h0A3.37,3.37,0,0,1,38,61.22H50.18a3.37,3.37,0,0,1,3.37,3.36Z"/><line class="cls-2" x1="96.63" y1="67.24" x2="81.33" y2="84.08"/><path class="cls-2" d="M46.8,73.26s17,28.82,34.53,10.82"/></g></mask><filter id="luminosity-noclip-3" x="4.29" y="56.26" width="133.74" height="91.69" filterUnits="userSpaceOnUse" color-interpolation-filters="sRGB"><feFlood flood-color="#fff" result="bg"/><feBlend in="SourceGraphic" in2="bg"/></filter><mask id="mask-3" x="4.29" y="56.26" width="133.74" height="91.69" maskUnits="userSpaceOnUse"><line class="cls-3" x1="105.1" y1="137.95" x2="105.1" y2="71.99"/></mask></defs><title>tipo_paliteiro</title><g id="M"><g class="cls-4"><line class="cls-5" x1="27.21" y1="137.95" x2="27.21" y2="71.99"/></g><g class="cls-6"><line class="cls-5" x1="68.89" y1="137.95" x2="68.89" y2="71.99"/></g><line class="cls-7" x1="138.43" y1="137.95" x2="3.89" y2="137.95"/><g class="cls-8"><circle class="cls-9" cx="29.93" cy="109.45" r="23.68" transform="translate(-83.47 113.44) rotate(-76.72)"/><path class="cls-9" d="M136.06,109.45a23.68,23.68,0,1,1-23.68-23.68A23.68,23.68,0,0,1,136.06,109.45Z"/><path class="cls-9" d="M35,109.45a5.07,5.07,0,1,1-5.07-5.07A5.07,5.07,0,0,1,35,109.45Z"/><path class="cls-9" d="M77.92,109.45a7.74,7.74,0,1,1-7.74-7.74A7.74,7.74,0,0,1,77.92,109.45Z"/><path class="cls-9" d="M117.45,109.19a5.07,5.07,0,1,1-5.07-5.07A5.07,5.07,0,0,1,117.45,109.19Z"/><line class="cls-9" x1="29.93" y1="104.38" x2="70.18" y2="101.71"/><line class="cls-9" x1="29.93" y1="114.52" x2="70.18" y2="117.19"/><line class="cls-9" x1="25.35" y1="107.31" x2="46.8" y2="73.09"/><polyline class="cls-9" points="110.78 104.38 93.28 58.23 82.49 58.23"/><line class="cls-9" x1="66.71" y1="102.54" x2="43.21" y2="67.78"/><line class="cls-9" x1="74.46" y1="103" x2="99.01" y2="76.22"/><path class="cls-9" d="M53.55,64.41a3.37,3.37,0,0,1-3.37,3.37H38a3.37,3.37,0,0,1-3.37-3.37h0A3.37,3.37,0,0,1,38,61.05H50.18a3.37,3.37,0,0,1,3.37,3.36Z"/><line class="cls-9" x1="96.63" y1="67.07" x2="81.33" y2="83.91"/><path class="cls-9" d="M46.8,73.09s17,28.82,34.53,10.82"/></g><line class="cls-5" x1="105.1" y1="137.95" x2="105.1" y2="71.99"/></g></svg>