<?xml version="1.0" encoding="utf-8"?>
<!-- Generator: Adobe Illustrator 16.0.0, SVG Export Plug-In . SVG Version: 6.00 Build 0)  -->
<!DOCTYPE svg PUBLIC "-//W3C//DTD SVG 1.1//EN" "http://www.w3.org/Graphics/SVG/1.1/DTD/svg11.dtd">
<svg version="1.1" id="Layer_1" xmlns="http://www.w3.org/2000/svg" xmlns:xlink="http://www.w3.org/1999/xlink" x="0px" y="0px"
	 width="380.333px" height="383.75px" viewBox="0 0 380.333 383.75" enable-background="new 0 0 380.333 383.75"
	 xml:space="preserve">
<g>
	
		<circle fill="none" stroke="#E5E5E5" stroke-width="10.6319" stroke-linecap="round" stroke-linejoin="round" stroke-miterlimit="10" cx="78.957" cy="300.616" r="63.915"/>
	
		<circle fill="none" stroke="#E5E5E5" stroke-width="10.6319" stroke-linecap="round" stroke-linejoin="round" stroke-miterlimit="10" cx="301.496" cy="300.616" r="63.915"/>
	
		<path fill="none" stroke="#E5E5E5" stroke-width="10.6319" stroke-linecap="round" stroke-linejoin="round" stroke-miterlimit="10" d="
		M92.638,300.616c0,7.553-6.126,13.678-13.682,13.678c-7.557,0-13.682-6.125-13.682-13.678c0-7.562,6.125-13.684,13.682-13.684
		C86.512,286.933,92.638,293.055,92.638,300.616z"/>
	
		<path fill="none" stroke="#E5E5E5" stroke-width="10.6319" stroke-linecap="round" stroke-linejoin="round" stroke-miterlimit="10" d="
		M208.487,300.616c0,11.529-9.351,20.886-20.886,20.886c-11.537,0-20.888-9.356-20.888-20.886c0-11.543,9.351-20.891,20.888-20.891
		C199.137,279.726,208.487,289.073,208.487,300.616z"/>
	
		<path fill="none" stroke="#E5E5E5" stroke-width="10.6319" stroke-linecap="round" stroke-linejoin="round" stroke-miterlimit="10" d="
		M315.179,299.908c0,7.554-6.125,13.679-13.682,13.679c-7.555,0-13.682-6.125-13.682-13.679c0-7.559,6.127-13.683,13.682-13.683
		C309.054,286.226,315.179,292.35,315.179,299.908z"/>
	
		<line fill="none" stroke="#E5E5E5" stroke-width="10.6319" stroke-linecap="round" stroke-linejoin="round" stroke-miterlimit="10" x1="78.956" y1="286.933" x2="187.602" y2="279.726"/>
	
		<line fill="none" stroke="#E5E5E5" stroke-width="10.6319" stroke-linecap="round" stroke-linejoin="round" stroke-miterlimit="10" x1="78.956" y1="314.294" x2="187.602" y2="321.502"/>
	
		<line fill="none" stroke="#E5E5E5" stroke-width="10.6319" stroke-linecap="round" stroke-linejoin="round" stroke-miterlimit="10" x1="66.573" y1="294.822" x2="124.474" y2="202.45"/>
	
		<polyline fill="none" stroke="#E5E5E5" stroke-width="10.6319" stroke-linecap="round" stroke-linejoin="round" stroke-miterlimit="10" points="
		297.182,286.929 249.95,162.348 220.812,162.348 	"/>
	
		<line fill="none" stroke="#E5E5E5" stroke-width="10.6319" stroke-linecap="round" stroke-linejoin="round" stroke-miterlimit="10" x1="178.228" y1="281.949" x2="114.795" y2="188.134"/>
	
		<line fill="none" stroke="#E5E5E5" stroke-width="10.6319" stroke-linecap="round" stroke-linejoin="round" stroke-miterlimit="10" x1="199.155" y1="283.209" x2="265.414" y2="210.913"/>
	
		<path fill="none" stroke="#E5E5E5" stroke-width="10.6319" stroke-linecap="round" stroke-linejoin="round" stroke-miterlimit="10" d="
		M142.694,179.048c0,5.017-4.067,9.084-9.087,9.084h-33.015c-5.018,0-9.085-4.067-9.085-9.084l0,0c0-5.018,4.067-9.087,9.085-9.087
		h33.015C138.627,169.961,142.694,174.03,142.694,179.048L142.694,179.048z"/>
	
		<line fill="none" stroke="#E5E5E5" stroke-width="10.6319" stroke-linecap="round" stroke-linejoin="round" stroke-miterlimit="10" x1="258.997" y1="186.207" x2="217.683" y2="231.683"/>
	
		<path fill="none" stroke="#E5E5E5" stroke-width="10.6319" stroke-linecap="round" stroke-linejoin="round" stroke-miterlimit="10" d="
		M124.474,202.45c0,0,45.809,77.819,93.209,29.232"/>
</g>
<g>
	
		<line fill="none" stroke="#FFFFFF" stroke-width="34.0157" stroke-linecap="round" stroke-linejoin="round" stroke-miterlimit="10" x1="187.601" y1="366.796" x2="187.601" y2="120.762"/>
</g>
<line fill="none" stroke="#47B870" stroke-width="15.9626" stroke-linecap="round" stroke-linejoin="round" stroke-miterlimit="10" x1="372.251" y1="375.813" x2="8.126" y2="375.813"/>
<g>
	
		<line fill="none" stroke="#47B870" stroke-width="15.4191" stroke-linecap="round" stroke-linejoin="round" stroke-miterlimit="10" x1="187.601" y1="376.317" x2="187.601" y2="120.954"/>
</g>
</svg>
