<?xml version="1.0" encoding="utf-8"?>
<!-- Generator: Adobe Illustrator 16.0.0, SVG Export Plug-In . SVG Version: 6.00 Build 0)  -->
<!DOCTYPE svg PUBLIC "-//W3C//DTD SVG 1.1//EN" "http://www.w3.org/Graphics/SVG/1.1/DTD/svg11.dtd">
<svg version="1.1" id="Layer_1" xmlns="http://www.w3.org/2000/svg" xmlns:xlink="http://www.w3.org/1999/xlink" x="0px" y="0px"
	 width="200.668px" height="207.16px" viewBox="0 0 200.668 207.16" enable-background="new 0 0 200.668 207.16"
	 xml:space="preserve">
<g id="Star_-_Orange">
</g>
<g opacity="0.2">
	
		<path fill="none" stroke="#4C4C4C" stroke-width="5.6693" stroke-linecap="round" stroke-linejoin="round" stroke-miterlimit="10" d="
		M70.189,178.373c-5.878,11.126-17.534,18.738-30.997,18.815c-19.472,0.113-35.351-15.584-35.462-35.06
		c-0.115-19.473,15.58-35.353,35.052-35.466c6.628-0.039,12.84,1.754,18.155,4.903"/>
	
		<path fill="none" stroke="#4C4C4C" stroke-width="5.6693" stroke-linecap="round" stroke-linejoin="round" stroke-miterlimit="10" d="
		M141.403,132.8c5.605-3.835,12.376-6.095,19.679-6.137c19.477-0.113,35.356,15.583,35.47,35.056
		c0.113,19.477-15.583,35.357-35.06,35.47c-12.991,0.075-24.382-6.886-30.559-17.311"/>
	
		<path fill="none" stroke="#4C4C4C" stroke-width="5.6693" stroke-linecap="round" stroke-linejoin="round" stroke-miterlimit="10" d="
		M69.221,111.711"/>
	
		<line fill="none" stroke="#4C4C4C" stroke-width="5.6693" stroke-linecap="round" stroke-linejoin="round" stroke-miterlimit="10" x1="135.02" y1="111.328" x2="130.001" y2="111.357"/>
	
		<path fill="none" stroke="#4C4C4C" stroke-width="5.6693" stroke-linecap="round" stroke-linejoin="round" stroke-miterlimit="10" d="
		M64.553,99.668"/>
	
		<path fill="none" stroke="#4C4C4C" stroke-width="5.6693" stroke-linecap="round" stroke-linejoin="round" stroke-miterlimit="10" d="
		M69.221,111.711"/>
	
		<line fill="none" stroke="#4C4C4C" stroke-width="5.6693" stroke-linecap="round" stroke-linejoin="round" stroke-miterlimit="10" x1="128.926" y1="97.528" x2="161.291" y2="161.926"/>
	
		<line fill="none" stroke="#4C4C4C" stroke-width="5.6693" stroke-linecap="round" stroke-linejoin="round" stroke-miterlimit="10" x1="128.926" y1="97.528" x2="146.064" y2="97.429"/>
	
		<path fill="none" stroke="#4C4C4C" stroke-width="5.6693" stroke-linecap="round" stroke-linejoin="round" stroke-miterlimit="10" d="
		M95.771,162.307"/>
	
		<polyline fill="none" stroke="#4C4C4C" stroke-width="5.6693" stroke-linecap="round" stroke-linejoin="round" stroke-miterlimit="10" points="
		71.481,116.02 69.221,111.711 56.931,131.567 37.696,162.645 60.337,162.513 	"/>
	
		<path fill="none" stroke="#4C4C4C" stroke-width="5.6693" stroke-linecap="round" stroke-linejoin="round" stroke-miterlimit="10" d="
		M95.771,162.307"/>
	
		<path fill="none" stroke="#4C4C4C" stroke-width="5.6693" stroke-linecap="round" stroke-linejoin="round" stroke-miterlimit="10" d="
		M137.785,116.115"/>
	<polygon stroke="#4C4C4C" stroke-width="5.6693" stroke-linecap="round" stroke-linejoin="round" stroke-miterlimit="10" points="
		55.957,99.109 79.572,98.973 65.051,104.481 	"/>
	
		<path fill="none" stroke="#4C4C4C" stroke-width="5.6693" stroke-linecap="round" stroke-linejoin="round" stroke-miterlimit="10" d="
		M37.696,162.645"/>
	
		<line fill="none" stroke="#4C4C4C" stroke-width="5.6693" stroke-linecap="round" stroke-linejoin="round" stroke-miterlimit="10" x1="71.572" y1="115.978" x2="64.57" y2="102.571"/>
</g>
<line fill="#FFFFFF" stroke="#47B970" stroke-width="7.0866" stroke-linecap="round" stroke-linejoin="round" stroke-miterlimit="10" x1="194.272" y1="201.921" x2="3.73" y2="201.921"/>
<circle fill="none" stroke="#47B970" stroke-width="7.0866" stroke-linecap="round" stroke-linejoin="round" stroke-miterlimit="10" stroke-dasharray="85.0394,14.1732" cx="101.335" cy="147.996" r="43.506"/>
<g>
	<path fill="#47B970" d="M95.905,156.56v-2.527c0-2.187,0.467-4.088,1.4-5.705c0.934-1.616,2.642-3.336,5.124-5.158
		c2.392-1.708,3.968-3.097,4.731-4.167c0.762-1.07,1.145-2.267,1.145-3.587c0-1.48-0.547-2.607-1.641-3.382
		c-1.093-0.774-2.619-1.162-4.577-1.162c-3.416,0-7.311,1.116-11.683,3.348l-3.724-7.48c5.078-2.847,10.464-4.271,16.157-4.271
		c4.691,0,8.422,1.127,11.188,3.382c2.768,2.255,4.151,5.261,4.151,9.019c0,2.506-0.569,4.669-1.708,6.49
		c-1.139,1.822-3.303,3.872-6.49,6.149c-2.187,1.617-3.57,2.847-4.15,3.689c-0.582,0.843-0.871,1.946-0.871,3.313v2.049H95.905z
		 M94.812,168.243c0-1.913,0.513-3.359,1.537-4.339c1.025-0.979,2.517-1.469,4.476-1.469c1.89,0,3.353,0.501,4.39,1.503
		c1.035,1.003,1.555,2.438,1.555,4.305c0,1.799-0.525,3.217-1.572,4.253s-2.506,1.554-4.372,1.554c-1.913,0-3.394-0.507-4.44-1.52
		C95.335,171.517,94.812,170.088,94.812,168.243z"/>
</g>
</svg>
