<?xml version="1.0" encoding="utf-8"?>
<!-- Generator: Adobe Illustrator 16.0.0, SVG Export Plug-In . SVG Version: 6.00 Build 0)  -->
<!DOCTYPE svg PUBLIC "-//W3C//DTD SVG 1.1//EN" "http://www.w3.org/Graphics/SVG/1.1/DTD/svg11.dtd">
<svg version="1.1" id="Layer_1" xmlns="http://www.w3.org/2000/svg" xmlns:xlink="http://www.w3.org/1999/xlink" x="0px" y="0px"
	 width="200.667px" height="104.75px" viewBox="0 0 200.667 104.75" enable-background="new 0 0 200.667 104.75"
	 xml:space="preserve">
<g opacity="0.2">
	
		<path fill="none" stroke="#515151" stroke-width="4.252" stroke-linecap="round" stroke-linejoin="round" stroke-miterlimit="10" d="
		M104.197,71.216c0-4.795-3.879-8.668-8.667-8.668c-4.786,0-8.67,3.873-8.67,8.668c0,4.775,3.884,8.661,8.67,8.661
		C100.318,79.877,104.197,75.991,104.197,71.216z"/>
	
		<path fill="none" stroke="#515151" stroke-width="4.252" stroke-linecap="round" stroke-linejoin="round" stroke-miterlimit="10" d="
		M75.802,72.974c-5.764,19.586-26.306,30.793-45.895,25.025C10.34,92.236-0.865,71.696,4.898,52.112
		c5.763-19.582,26.305-30.78,45.88-25.02C70.367,32.859,81.56,53.394,75.802,72.974z"/>
	
		<path fill="none" stroke="#515151" stroke-width="4.252" stroke-linecap="round" stroke-linejoin="round" stroke-miterlimit="10" d="
		M196.083,63.105c0,20.407-16.548,36.954-36.959,36.954c-20.406,0-36.954-16.547-36.954-36.954
		c0-20.411,16.548-36.959,36.954-36.959C179.535,26.146,196.083,42.694,196.083,63.105z"/>
	
		<line fill="none" stroke="#515151" stroke-width="4.252" stroke-linecap="round" stroke-linejoin="round" stroke-miterlimit="10" x1="132.788" y1="15.435" x2="70.79" y2="15.435"/>
	
		<line fill="none" stroke="#515151" stroke-width="4.252" stroke-linecap="round" stroke-linejoin="round" stroke-miterlimit="10" x1="70.79" y1="15.435" x2="66.458" y2="4.067"/>
	
		<line fill="none" stroke="#515151" stroke-width="4.252" stroke-linecap="round" stroke-linejoin="round" stroke-miterlimit="10" x1="127.119" y1="2.399" x2="157.262" y2="63.25"/>
	
		<line fill="none" stroke="#515151" stroke-width="4.252" stroke-linecap="round" stroke-linejoin="round" stroke-miterlimit="10" x1="127.119" y1="2.399" x2="143.259" y2="2.399"/>
	
		<polyline fill="none" stroke="#515151" stroke-width="4.252" stroke-linecap="round" stroke-linejoin="round" stroke-miterlimit="10" points="
		135.954,20.238 95.53,72.212 70.79,15.435 40.35,63.105 95.53,72.212 	"/>
	
		<polygon fill="none" stroke="#515151" stroke-width="4.252" stroke-linecap="round" stroke-linejoin="round" stroke-miterlimit="10" points="
		59.663,3.488 81.915,3.488 68.204,8.604 	"/>
</g>
<path fill="#FFFFFF" stroke="#47B970" stroke-width="7.0866" stroke-linecap="round" stroke-linejoin="round" stroke-miterlimit="10" stroke-dasharray="99.2126,14.1732" d="
	M70.663,100.962v-50.18c0-8.895,6.232-16.104,13.897-16.104h43.284c7.674,0,13.893,7.209,13.893,16.104v50.18H70.663z"/>
<line fill="#FFFFFF" stroke="#47B970" stroke-width="7.0866" stroke-linecap="round" stroke-linejoin="round" stroke-miterlimit="10" x1="197.841" y1="100.81" x2="5.583" y2="100.81"/>
</svg>
