<?xml version="1.0" encoding="utf-8"?>
<!-- Generator: Adobe Illustrator 16.0.0, SVG Export Plug-In . SVG Version: 6.00 Build 0)  -->
<!DOCTYPE svg PUBLIC "-//W3C//DTD SVG 1.1//EN" "http://www.w3.org/Graphics/SVG/1.1/DTD/svg11.dtd">
<svg version="1.1" id="Layer_1" xmlns="http://www.w3.org/2000/svg" xmlns:xlink="http://www.w3.org/1999/xlink" x="0px" y="0px"
	 width="210px" height="209.105px" viewBox="0 0 210 209.105" enable-background="new 0 0 210 209.105" xml:space="preserve">
<g opacity="0.2">
	
		<path fill="none" stroke="#4C4C4C" stroke-width="5.6693" stroke-linecap="round" stroke-linejoin="round" stroke-miterlimit="10" d="
		M277.027,184.458c-5.965,4.737-13.5,7.586-21.709,7.633c-19.473,0.112-35.35-15.584-35.463-35.061
		c-0.114-19.473,15.58-35.353,35.054-35.466c9.676-0.057,18.463,3.789,24.87,10.062"/>
	
		<path fill="none" stroke="#4C4C4C" stroke-width="5.6693" stroke-linecap="round" stroke-linejoin="round" stroke-miterlimit="10" d="
		M355.191,130.086c0,0,11.546-8.459,22.019-8.521c19.477-0.113,35.355,15.583,35.469,35.057
		c0.113,19.477-15.582,35.356-35.061,35.47c-8.094,0.047-15.566-2.639-21.545-7.19"/>
	
		<path fill="none" stroke="#4C4C4C" stroke-width="5.6693" stroke-linecap="round" stroke-linejoin="round" stroke-miterlimit="10" d="
		M280.682,94.569"/>
	
		<path fill="none" stroke="#4C4C4C" stroke-width="5.6693" stroke-linecap="round" stroke-linejoin="round" stroke-miterlimit="10" d="
		M285.35,106.612"/>
	
		<line fill="none" stroke="#4C4C4C" stroke-width="5.6693" stroke-linecap="round" stroke-linejoin="round" stroke-miterlimit="10" x1="358.482" y1="119.15" x2="377.419" y2="156.827"/>
	
		<line fill="none" stroke="#4C4C4C" stroke-width="5.6693" stroke-linecap="round" stroke-linejoin="round" stroke-miterlimit="10" x1="356.374" y1="92.331" x2="362.19" y2="92.331"/>
	
		<path fill="none" stroke="#4C4C4C" stroke-width="5.6693" stroke-linecap="round" stroke-linejoin="round" stroke-miterlimit="10" d="
		M311.896,157.209"/>
	
		<path fill="none" stroke="#4C4C4C" stroke-width="5.6693" stroke-linecap="round" stroke-linejoin="round" stroke-miterlimit="10" d="
		M302.018,157.547"/>
	
		<polyline fill="none" stroke="#4C4C4C" stroke-width="5.6693" stroke-linecap="round" stroke-linejoin="round" stroke-miterlimit="10" points="
		277.589,119.15 253.823,157.547 276.725,157.547 	"/>
	
		<polyline fill="none" stroke="#4C4C4C" stroke-width="5.6693" stroke-linecap="round" stroke-linejoin="round" stroke-miterlimit="10" points="
		281.18,99.384 272.085,94.011 280.682,93.875 	"/>
	
		<path fill="none" stroke="#4C4C4C" stroke-width="5.6693" stroke-linecap="round" stroke-linejoin="round" stroke-miterlimit="10" d="
		M253.823,157.547"/>
</g>
<g opacity="0.3">
	
		<path fill="none" stroke="#4C4C4C" stroke-width="5.7497" stroke-linecap="round" stroke-linejoin="round" stroke-miterlimit="10" d="
		M110.666,164.575c-0.028-5.151-4.229-9.303-9.381-9.273c-5.153,0.03-9.307,4.228-9.277,9.384c0.03,5.149,4.233,9.303,9.384,9.273
		C106.543,173.93,110.696,169.726,110.666,164.575z"/>
	
		<path fill="none" stroke="#4C4C4C" stroke-width="5.7497" stroke-linecap="round" stroke-linejoin="round" stroke-miterlimit="10" d="
		M79.507,163.332c0.115,19.753-15.8,35.859-35.554,35.974C24.204,199.42,8.1,183.5,7.985,163.748
		C7.871,144,23.787,127.893,43.538,127.779C63.29,127.664,79.393,143.583,79.507,163.332z"/>
	
		<path fill="none" stroke="#4C4C4C" stroke-width="5.7497" stroke-linecap="round" stroke-linejoin="round" stroke-miterlimit="10" d="
		M203.279,159.181c2.406,19.605-11.534,37.451-31.138,39.857c-19.602,2.408-37.445-11.534-39.854-31.139
		c-2.405-19.604,11.532-37.447,31.135-39.855C183.029,125.636,200.869,139.578,203.279,159.181z"/>
	
		<line fill="none" stroke="#4C4C4C" stroke-width="5.7497" stroke-linecap="round" stroke-linejoin="round" stroke-miterlimit="10" x1="141.141" y1="112.225" x2="74.407" y2="112.614"/>
	
		<path fill="none" stroke="#4C4C4C" stroke-width="5.7497" stroke-linecap="round" stroke-linejoin="round" stroke-miterlimit="10" d="
		M69.672,100.4"/>
	
		<path fill="none" stroke="#4C4C4C" stroke-width="5.7497" stroke-linecap="round" stroke-linejoin="round" stroke-miterlimit="10" d="
		M74.407,112.614"/>
	
		<line fill="none" stroke="#4C4C4C" stroke-width="5.7497" stroke-linecap="round" stroke-linejoin="round" stroke-miterlimit="10" x1="134.96" y1="98.231" x2="167.782" y2="163.543"/>
	
		<line fill="none" stroke="#4C4C4C" stroke-width="5.7497" stroke-linecap="round" stroke-linejoin="round" stroke-miterlimit="10" x1="134.96" y1="98.231" x2="152.34" y2="98.13"/>
	
		<path fill="none" stroke="#4C4C4C" stroke-width="5.7497" stroke-linecap="round" stroke-linejoin="round" stroke-miterlimit="10" d="
		M101.334,163.927"/>
	
		<polyline fill="none" stroke="#4C4C4C" stroke-width="5.7497" stroke-linecap="round" stroke-linejoin="round" stroke-miterlimit="10" points="
		101.334,163.927 74.407,112.614 42.434,164.271 92.008,164.271 	"/>
	
		<line fill="none" stroke="#4C4C4C" stroke-width="5.7497" stroke-linecap="round" stroke-linejoin="round" stroke-miterlimit="10" x1="143.946" y1="117.082" x2="108.33" y2="156.237"/>
	
		<polygon fill="none" stroke="#4C4C4C" stroke-width="5.7497" stroke-linecap="round" stroke-linejoin="round" stroke-miterlimit="10" points="
		60.955,99.834 84.903,99.696 70.178,105.284 	"/>
	
		<path fill="none" stroke="#4C4C4C" stroke-width="5.7497" stroke-linecap="round" stroke-linejoin="round" stroke-miterlimit="10" d="
		M42.434,164.271"/>
	
		<line fill="none" stroke="#4C4C4C" stroke-width="5.7497" stroke-linecap="round" stroke-linejoin="round" stroke-miterlimit="10" x1="101.334" y1="163.927" x2="69.69" y2="103.344"/>
</g>
<g>
	
		<line fill="none" stroke="#47B870" stroke-width="8.5549" stroke-linecap="round" stroke-linejoin="round" stroke-miterlimit="10" x1="202.154" y1="203.18" x2="7.846" y2="203.18"/>
</g>
<line fill="none" stroke="#47B870" stroke-width="8.393" stroke-linecap="round" stroke-linejoin="round" stroke-miterlimit="10" x1="202.154" y1="53.031" x2="202.154" y2="203.179"/>
<line fill="none" stroke="#47B870" stroke-width="8.393" stroke-linecap="round" stroke-linejoin="round" stroke-miterlimit="10" x1="183.15" y1="53.031" x2="183.15" y2="203.179"/>
<line fill="none" stroke="#47B870" stroke-width="8.393" stroke-linecap="round" stroke-linejoin="round" stroke-miterlimit="10" x1="164.146" y1="53.031" x2="164.146" y2="203.179"/>
<line fill="none" stroke="#47B870" stroke-width="8.393" stroke-linecap="round" stroke-linejoin="round" stroke-miterlimit="10" x1="145.143" y1="53.031" x2="145.143" y2="203.179"/>
<line fill="none" stroke="#47B870" stroke-width="8.393" stroke-linecap="round" stroke-linejoin="round" stroke-miterlimit="10" x1="126.139" y1="53.031" x2="126.139" y2="203.179"/>
</svg>
