<?xml version="1.0" encoding="utf-8"?>
<!-- Generator: Adobe Illustrator 16.0.0, SVG Export Plug-In . SVG Version: 6.00 Build 0)  -->
<!DOCTYPE svg PUBLIC "-//W3C//DTD SVG 1.1//EN" "http://www.w3.org/Graphics/SVG/1.1/DTD/svg11.dtd">
<svg version="1.1" id="Layer_1" xmlns="http://www.w3.org/2000/svg" xmlns:xlink="http://www.w3.org/1999/xlink" x="0px" y="0px"
	 width="210px" height="209.105px" viewBox="0 0 210 209.105" enable-background="new 0 0 210 209.105" xml:space="preserve">
<g opacity="0.2">
	
		<circle fill="none" stroke="#4C4C4C" stroke-width="5.6693" stroke-linecap="round" stroke-linejoin="round" stroke-miterlimit="10" cx="128.762" cy="105.117" r="9.197"/>
	
		<path fill="none" stroke="#4C4C4C" stroke-width="5.6693" stroke-linecap="round" stroke-linejoin="round" stroke-miterlimit="10" d="
		M127.482,126.64c19.477-0.113,35.359,15.583,35.471,35.06c0.113,19.472-15.585,35.351-35.061,35.462
		c-19.473,0.115-35.353-15.58-35.466-35.052C92.313,142.633,108.01,126.753,127.482,126.64z"/>
	
		<path fill="none" stroke="#4C4C4C" stroke-width="5.6693" stroke-linecap="round" stroke-linejoin="round" stroke-miterlimit="10" d="
		M150.084,66.842c-0.41,0.338-0.83,0.667-1.256,0.987c-5.838,4.377-13.079,6.987-20.936,7.032
		C108.42,74.977,92.54,59.283,92.427,39.81C92.313,20.333,108.01,4.454,127.482,4.34c13.59-0.079,25.43,7.539,31.385,18.768"/>
	
		<line fill="none" stroke="#4C4C4C" stroke-width="5.6693" stroke-linecap="round" stroke-linejoin="round" stroke-miterlimit="10" x1="77.092" y1="65.873" x2="77.475" y2="131.671"/>
	
		<path fill="none" stroke="#4C4C4C" stroke-width="5.6693" stroke-linecap="round" stroke-linejoin="round" stroke-miterlimit="10" d="
		M65.432,136.339"/>
	
		<path fill="none" stroke="#4C4C4C" stroke-width="5.6693" stroke-linecap="round" stroke-linejoin="round" stroke-miterlimit="10" d="
		M77.475,131.671"/>
	
		<line fill="none" stroke="#4C4C4C" stroke-width="5.6693" stroke-linecap="round" stroke-linejoin="round" stroke-miterlimit="10" x1="63.292" y1="71.966" x2="127.689" y2="39.601"/>
	
		<line fill="none" stroke="#4C4C4C" stroke-width="5.6693" stroke-linecap="round" stroke-linejoin="round" stroke-miterlimit="10" x1="63.292" y1="71.966" x2="63.192" y2="54.828"/>
	
		<path fill="none" stroke="#4C4C4C" stroke-width="5.6693" stroke-linecap="round" stroke-linejoin="round" stroke-miterlimit="10" d="
		M128.07,105.121"/>
	
		<polyline fill="none" stroke="#4C4C4C" stroke-width="5.6693" stroke-linecap="round" stroke-linejoin="round" stroke-miterlimit="10" points="
		128.07,105.121 77.475,131.671 128.408,163.196 128.408,115.001 	"/>
	
		<line fill="none" stroke="#4C4C4C" stroke-width="5.6693" stroke-linecap="round" stroke-linejoin="round" stroke-miterlimit="10" x1="81.879" y1="63.107" x2="120.456" y2="98.195"/>
	
		<polygon fill="none" stroke="#4C4C4C" stroke-width="5.6693" stroke-linecap="round" stroke-linejoin="round" stroke-miterlimit="10" points="
		64.873,144.935 64.736,121.32 70.245,135.841 	"/>
	
		<path fill="none" stroke="#4C4C4C" stroke-width="5.6693" stroke-linecap="round" stroke-linejoin="round" stroke-miterlimit="10" d="
		M128.408,163.196"/>
	
		<line fill="none" stroke="#4C4C4C" stroke-width="5.6693" stroke-linecap="round" stroke-linejoin="round" stroke-miterlimit="10" x1="128.07" y1="105.121" x2="68.335" y2="136.322"/>
</g>
<polygon fill="none" stroke="#47B870" stroke-width="8.5039" stroke-linecap="round" stroke-linejoin="round" stroke-miterlimit="10" stroke-dasharray="85.0394,14.1732" points="
	169.309,25.146 169.309,94.695 125.92,25.146 "/>
<line fill="none" stroke="#47B870" stroke-width="8.5039" stroke-linecap="round" stroke-linejoin="round" stroke-miterlimit="10" x1="169.309" y1="203.535" x2="31.895" y2="203.535"/>
<line fill="none" stroke="#47B870" stroke-width="8.5039" stroke-linecap="round" stroke-linejoin="round" stroke-miterlimit="10" x1="169.309" y1="7.244" x2="169.309" y2="201.435"/>
</svg>
