<?xml version="1.0" encoding="utf-8"?>
<!-- Generator: Adobe Illustrator 16.0.0, SVG Export Plug-In . SVG Version: 6.00 Build 0)  -->
<!DOCTYPE svg PUBLIC "-//W3C//DTD SVG 1.1//EN" "http://www.w3.org/Graphics/SVG/1.1/DTD/svg11.dtd">
<svg version="1.1" id="Layer_1" xmlns="http://www.w3.org/2000/svg" xmlns:xlink="http://www.w3.org/1999/xlink" x="0px" y="0px"
	 width="380.333px" height="383.75px" viewBox="0 0 380.333 383.75" enable-background="new 0 0 380.333 383.75"
	 xml:space="preserve">
<g>
	<g>
		
			<polygon fill="none" stroke="#47B870" stroke-width="15.9479" stroke-linecap="round" stroke-linejoin="round" stroke-miterlimit="10" stroke-dasharray="159.4791,26.5798" points="
			-141.281,375.81 -7.863,375.81 -7.863,269.164 		"/>
	</g>
</g>
<g>
	
		<path fill="none" stroke="#E5E5E5" stroke-width="10.6319" stroke-linecap="round" stroke-linejoin="round" stroke-miterlimit="10" d="
		M132.105,337.865c-11.682,15.229-30.065,25.044-50.742,25.044c-35.298,0-63.913-28.614-63.913-63.91
		c0-35.3,28.615-63.918,63.913-63.918c21.266,0,40.104,10.386,51.725,26.359"/>
	
		<path fill="none" stroke="#E5E5E5" stroke-width="10.6319" stroke-linecap="round" stroke-linejoin="round" stroke-miterlimit="10" d="
		M266.192,247.386c10.57-7.738,23.606-12.305,37.71-12.305c35.301,0,63.914,28.618,63.914,63.918
		c0,35.296-28.613,63.91-63.914,63.91c-11.126,0-21.587-2.842-30.696-7.838"/>
	
		<path fill="none" stroke="#E5E5E5" stroke-width="10.6319" stroke-linecap="round" stroke-linejoin="round" stroke-miterlimit="10" d="
		M95.046,298.999c0,7.553-6.126,13.677-13.683,13.677s-13.681-6.124-13.681-13.677c0-7.562,6.124-13.685,13.681-13.685
		S95.046,291.437,95.046,298.999z"/>
	
		<path fill="none" stroke="#E5E5E5" stroke-width="10.6319" stroke-linecap="round" stroke-linejoin="round" stroke-miterlimit="10" d="
		M317.587,298.29c0,7.555-6.126,13.679-13.683,13.679c-7.555,0-13.681-6.124-13.681-13.679c0-7.558,6.126-13.682,13.681-13.682
		C311.461,284.608,317.587,290.732,317.587,298.29z"/>
	
		<line fill="none" stroke="#E5E5E5" stroke-width="10.6319" stroke-linecap="round" stroke-linejoin="round" stroke-miterlimit="10" x1="81.363" y1="285.314" x2="132.339" y2="281.934"/>
	
		<path fill="none" stroke="#E5E5E5" stroke-width="10.6319" stroke-linecap="round" stroke-linejoin="round" stroke-miterlimit="10" d="
		M190.01,319.884"/>
	
		<line fill="none" stroke="#E5E5E5" stroke-width="10.6319" stroke-linecap="round" stroke-linejoin="round" stroke-miterlimit="10" x1="81.363" y1="312.676" x2="133.426" y2="316.13"/>
	
		<line fill="none" stroke="#E5E5E5" stroke-width="10.6319" stroke-linecap="round" stroke-linejoin="round" stroke-miterlimit="10" x1="68.981" y1="293.205" x2="126.881" y2="200.832"/>
	
		<polyline fill="none" stroke="#E5E5E5" stroke-width="10.6319" stroke-linecap="round" stroke-linejoin="round" stroke-miterlimit="10" points="
		299.59,285.311 252.357,160.73 223.22,160.73 	"/>
	
		<polyline fill="none" stroke="#E5E5E5" stroke-width="10.6319" stroke-linecap="round" stroke-linejoin="round" stroke-miterlimit="10" points="
		156.339,244.399 148.605,232.962 117.203,186.516 	"/>
	
		<path fill="none" stroke="#E5E5E5" stroke-width="10.6319" stroke-linecap="round" stroke-linejoin="round" stroke-miterlimit="10" d="
		M180.636,280.332"/>
	
		<line fill="none" stroke="#E5E5E5" stroke-width="10.6319" stroke-linecap="round" stroke-linejoin="round" stroke-miterlimit="10" x1="244.52" y1="234.722" x2="267.822" y2="209.295"/>
	
		<path fill="none" stroke="#E5E5E5" stroke-width="10.6319" stroke-linecap="round" stroke-linejoin="round" stroke-miterlimit="10" d="
		M201.563,281.591"/>
	
		<path fill="none" stroke="#E5E5E5" stroke-width="10.6319" stroke-linecap="round" stroke-linejoin="round" stroke-miterlimit="10" d="
		M145.102,177.431c0,5.016-4.067,9.083-9.086,9.083h-33.015c-5.018,0-9.085-4.067-9.085-9.083l0,0c0-5.018,4.067-9.087,9.085-9.087
		h33.015C141.034,168.343,145.102,172.413,145.102,177.431L145.102,177.431z"/>
	
		<line fill="none" stroke="#E5E5E5" stroke-width="10.6319" stroke-linecap="round" stroke-linejoin="round" stroke-miterlimit="10" x1="261.404" y1="184.589" x2="220.09" y2="230.065"/>
	
		<path fill="none" stroke="#E5E5E5" stroke-width="10.6319" stroke-linecap="round" stroke-linejoin="round" stroke-miterlimit="10" d="
		M126.881,200.832c0,0,45.809,77.82,93.209,29.233"/>
</g>
<g>
	<g>
		
			<path fill="none" stroke="#FFFFFF" stroke-width="30.9525" stroke-linecap="round" stroke-linejoin="round" stroke-miterlimit="10" d="
			M127.741,363.419v-91.744c0-16.85,12.509-30.499,27.937-30.499h87.043c7.179,0,13.725,2.956,18.677,7.813
			c5.685,5.582,9.26,13.676,9.26,22.687v94.74"/>
	</g>
	<g>
		
			<path fill="none" stroke="#47B870" stroke-width="15.9479" stroke-linecap="round" stroke-linejoin="round" stroke-miterlimit="10" stroke-dasharray="159.4791,26.5798" d="
			M127.741,370.984v-97.421c0-17.893,12.509-32.386,27.937-32.386h87.043c7.179,0,13.725,3.139,18.677,8.296
			c5.685,5.927,9.26,14.523,9.26,24.09v100.603"/>
	</g>
</g>
<line fill="none" stroke="#47B870" stroke-width="16.0293" stroke-linecap="round" stroke-linejoin="round" stroke-miterlimit="10" x1="371.885" y1="375.81" x2="8.135" y2="375.81"/>
</svg>
