<?xml version="1.0" encoding="utf-8"?>
<!-- Generator: Adobe Illustrator 16.0.0, SVG Export Plug-In . SVG Version: 6.00 Build 0)  -->
<!DOCTYPE svg PUBLIC "-//W3C//DTD SVG 1.1//EN" "http://www.w3.org/Graphics/SVG/1.1/DTD/svg11.dtd">
<svg version="1.1" id="Layer_1" xmlns="http://www.w3.org/2000/svg" xmlns:xlink="http://www.w3.org/1999/xlink" x="0px" y="0px"
	 width="146.5px" height="203px" viewBox="0 0 146.5 203" enable-background="new 0 0 146.5 203" xml:space="preserve">
<g opacity="0.2">
	
		<path fill="none" stroke="#515151" stroke-width="4.252" stroke-linecap="round" stroke-linejoin="round" stroke-miterlimit="10" d="
		M111.473,96.779c-4.79,0-8.672,3.882-8.672,8.673c0,4.782,3.882,8.663,8.672,8.663c4.783,0,8.673-3.881,8.673-8.663
		C120.146,100.661,116.256,96.779,111.473,96.779z"/>
	
		<path fill="none" stroke="#515151" stroke-width="4.252" stroke-linecap="round" stroke-linejoin="round" stroke-miterlimit="10" d="
		M113.236,125.175c19.588,5.764,30.787,26.303,25.017,45.887c-5.753,19.58-26.301,30.779-45.889,25.017
		c-19.593-5.761-30.777-26.305-25.022-45.881C73.101,130.614,93.65,119.411,113.236,125.175z"/>
	
		<path fill="none" stroke="#515151" stroke-width="4.252" stroke-linecap="round" stroke-linejoin="round" stroke-miterlimit="10" d="
		M103.363,4.896c20.411,0,36.959,16.543,36.959,36.958c0,20.399-16.548,36.947-36.959,36.947c-20.422,0-36.975-16.548-36.975-36.947
		C66.389,21.438,82.941,4.896,103.363,4.896z"/>
	
		<line fill="none" stroke="#515151" stroke-width="4.252" stroke-linecap="round" stroke-linejoin="round" stroke-miterlimit="10" x1="55.684" y1="68.188" x2="55.684" y2="130.194"/>
	
		<line fill="none" stroke="#515151" stroke-width="4.252" stroke-linecap="round" stroke-linejoin="round" stroke-miterlimit="10" x1="55.684" y1="130.194" x2="44.316" y2="134.521"/>
	
		<line fill="none" stroke="#515151" stroke-width="4.252" stroke-linecap="round" stroke-linejoin="round" stroke-miterlimit="10" x1="42.654" y1="73.854" x2="103.517" y2="43.715"/>
	
		<line fill="none" stroke="#515151" stroke-width="4.252" stroke-linecap="round" stroke-linejoin="round" stroke-miterlimit="10" x1="42.654" y1="73.854" x2="42.654" y2="57.707"/>
	
		<polyline fill="none" stroke="#515151" stroke-width="4.252" stroke-linecap="round" stroke-linejoin="round" stroke-miterlimit="10" points="
		60.49,65.021 112.472,105.452 55.684,130.194 103.363,160.629 112.472,105.452 	"/>
	
		<polygon fill="none" stroke="#515151" stroke-width="4.252" stroke-linecap="round" stroke-linejoin="round" stroke-miterlimit="10" points="
		43.738,141.313 43.738,119.064 48.858,132.778 	"/>
</g>
<polygon fill="#FFFFFF" stroke="#47B970" stroke-width="7.0866" stroke-linecap="round" stroke-linejoin="round" stroke-miterlimit="10" stroke-dasharray="99.2126,14.1732" points="
	140.379,22.561 140.379,91.178 97.57,22.561 "/>
<line fill="#FFFFFF" stroke="#47B970" stroke-width="7.0866" stroke-linecap="round" stroke-linejoin="round" stroke-miterlimit="10" x1="141.346" y1="198.56" x2="4.802" y2="198.56"/>
<line fill="#FFFFFF" stroke="#47B970" stroke-width="7.0866" stroke-linecap="round" stroke-linejoin="round" stroke-miterlimit="10" x1="140.379" y1="4.896" x2="140.379" y2="196.493"/>
</svg>
