<?xml version="1.0" encoding="utf-8"?>
<!-- Generator: Adobe Illustrator 16.0.0, SVG Export Plug-In . SVG Version: 6.00 Build 0)  -->
<!DOCTYPE svg PUBLIC "-//W3C//DTD SVG 1.1//EN" "http://www.w3.org/Graphics/SVG/1.1/DTD/svg11.dtd">
<svg version="1.1" id="Layer_1" xmlns="http://www.w3.org/2000/svg" xmlns:xlink="http://www.w3.org/1999/xlink" x="0px" y="0px"
	 width="140.834px" height="147.25px" viewBox="0 0 140.834 147.25" enable-background="new 0 0 140.834 147.25"
	 xml:space="preserve">
<g>
	<g>
		
			<line fill="none" stroke="#47B870" stroke-width="7.8775" stroke-linecap="round" stroke-linejoin="round" stroke-miterlimit="10" x1="70.37" y1="143.314" x2="69.919" y2="143.314"/>
	</g>
	
		<path fill="none" stroke="#47B870" stroke-width="7.8775" stroke-linecap="round" stroke-linejoin="round" stroke-miterlimit="10" d="
		M53.608,93.89c0,0-0.889-18.213,17.121-17.325c18.012,0.887,16.916,18.081,16.916,18.081s-0.303,6.698-5.723,11.627
		c-5.422,4.93-10.912,9.65-11.928,14.896c-1.014,5.246-0.416,10.96-0.416,10.96"/>
</g>
<defs>
	<filter id="Adobe_OpacityMaskFilter" filterUnits="userSpaceOnUse" x="0.25" y="62.062" width="140.203" height="84.374">
		<feColorMatrix  type="matrix" values="1 0 0 0 0  0 1 0 0 0  0 0 1 0 0  0 0 0 1 0"/>
	</filter>
</defs>
<mask maskUnits="userSpaceOnUse" x="0.25" y="62.062" width="140.203" height="84.374" id="SVGID_1_">
	<g filter="url(#Adobe_OpacityMaskFilter)">
		<g id="XMLID_6_">
			<g>
				<rect x="-8.486" y="31.771" fill="#FFFFFF" width="171.25" height="123.75"/>
			</g>
			<g>
				
					<line fill="none" stroke="#000000" stroke-width="17.0079" stroke-linecap="round" stroke-linejoin="round" stroke-miterlimit="10" x1="70.374" y1="143.312" x2="69.914" y2="143.312"/>
				
					<path fill="none" stroke="#000000" stroke-width="17.0079" stroke-linecap="round" stroke-linejoin="round" stroke-miterlimit="10" d="
					M53.604,93.892c0,0-0.88-18.21,17.12-17.33c18.02,0.89,16.92,18.08,16.92,18.08s-0.301,6.7-5.721,11.63s-10.91,9.65-11.93,14.9
					c-1.01,5.24-0.42,10.96-0.42,10.96"/>
				
					<rect x="-8.486" y="31.771" fill="none" stroke="#000000" stroke-width="17.0079" stroke-linecap="round" stroke-linejoin="round" stroke-miterlimit="10" width="171.25" height="123.75"/>
			</g>
		</g>
	</g>
</mask>
<g mask="url(#SVGID_1_)">
	
		<circle fill="none" stroke="#E5E5E5" stroke-width="3.9387" stroke-linecap="round" stroke-linejoin="round" stroke-miterlimit="10" cx="28.696" cy="115.255" r="23.678"/>
	
		<circle fill="none" stroke="#E5E5E5" stroke-width="3.9387" stroke-linecap="round" stroke-linejoin="round" stroke-miterlimit="10" cx="111.139" cy="115.255" r="23.679"/>
	
		<circle fill="none" stroke="#E5E5E5" stroke-width="3.9387" stroke-linecap="round" stroke-linejoin="round" stroke-miterlimit="10" cx="28.696" cy="115.255" r="5.068"/>
	
		<path fill="none" stroke="#E5E5E5" stroke-width="3.9387" stroke-linecap="round" stroke-linejoin="round" stroke-miterlimit="10" d="
		M76.683,115.255c0,4.271-3.465,7.737-7.736,7.737c-4.275,0-7.738-3.467-7.738-7.737c0-4.276,3.463-7.739,7.738-7.739
		C73.218,107.516,76.683,110.979,76.683,115.255z"/>
	
		<circle fill="none" stroke="#E5E5E5" stroke-width="3.9387" stroke-linecap="round" stroke-linejoin="round" stroke-miterlimit="10" cx="111.14" cy="114.992" r="5.068"/>
	
		<line fill="none" stroke="#E5E5E5" stroke-width="3.9387" stroke-linecap="round" stroke-linejoin="round" stroke-miterlimit="10" x1="28.696" y1="110.186" x2="68.946" y2="107.516"/>
	
		<line fill="none" stroke="#E5E5E5" stroke-width="3.9387" stroke-linecap="round" stroke-linejoin="round" stroke-miterlimit="10" x1="28.696" y1="120.322" x2="68.946" y2="122.992"/>
	
		<line fill="none" stroke="#E5E5E5" stroke-width="3.9387" stroke-linecap="round" stroke-linejoin="round" stroke-miterlimit="10" x1="24.108" y1="113.109" x2="45.558" y2="78.889"/>
	
		<polyline fill="none" stroke="#E5E5E5" stroke-width="3.9387" stroke-linecap="round" stroke-linejoin="round" stroke-miterlimit="10" points="
		109.54,110.186 92.042,64.031 81.249,64.031 	"/>
	
		<line fill="none" stroke="#E5E5E5" stroke-width="3.9387" stroke-linecap="round" stroke-linejoin="round" stroke-miterlimit="10" x1="65.472" y1="108.34" x2="41.974" y2="73.584"/>
	
		<line fill="none" stroke="#E5E5E5" stroke-width="3.9387" stroke-linecap="round" stroke-linejoin="round" stroke-miterlimit="10" x1="73.226" y1="108.807" x2="97.772" y2="82.023"/>
	
		<path fill="none" stroke="#E5E5E5" stroke-width="3.9387" stroke-linecap="round" stroke-linejoin="round" stroke-miterlimit="10" d="
		M52.308,70.218c0,1.858-1.506,3.365-3.365,3.365h-12.23c-1.859,0-3.365-1.507-3.365-3.365l0,0c0-1.858,1.506-3.365,3.365-3.365
		h12.23C50.802,66.853,52.308,68.359,52.308,70.218L52.308,70.218z"/>
	
		<line fill="none" stroke="#E5E5E5" stroke-width="3.9387" stroke-linecap="round" stroke-linejoin="round" stroke-miterlimit="10" x1="95.396" y1="72.87" x2="80.089" y2="89.718"/>
	
		<path fill="none" stroke="#E5E5E5" stroke-width="3.9387" stroke-linecap="round" stroke-linejoin="round" stroke-miterlimit="10" d="
		M45.558,78.889c0,0,16.971,28.829,34.531,10.829"/>
	<g>
		
			<line fill="none" stroke="#47B870" stroke-width="5.828" stroke-linecap="round" stroke-linejoin="round" stroke-miterlimit="10" x1="137.539" y1="143.521" x2="3.164" y2="143.521"/>
	</g>
</g>
</svg>
