<?xml version="1.0" encoding="utf-8"?>
<!-- Generator: Adobe Illustrator 16.0.0, SVG Export Plug-In . SVG Version: 6.00 Build 0)  -->
<!DOCTYPE svg PUBLIC "-//W3C//DTD SVG 1.1//EN" "http://www.w3.org/Graphics/SVG/1.1/DTD/svg11.dtd">
<svg version="1.1" id="Layer_1" xmlns="http://www.w3.org/2000/svg" xmlns:xlink="http://www.w3.org/1999/xlink" x="0px" y="0px"
	 width="253px" height="260px" viewBox="0 0 253 260" enable-background="new 0 0 253 260" xml:space="preserve">
<g>
	
		<path fill="none" stroke="#E5E5E5" stroke-width="7.1261" stroke-linecap="round" stroke-linejoin="round" stroke-miterlimit="10" d="
		M91.852,207.74c0,23.657-19.18,42.837-42.841,42.837c-23.658,0-42.834-19.18-42.834-42.837c0-23.661,19.176-42.84,42.834-42.84
		C72.672,164.9,91.852,184.079,91.852,207.74z"/>
	
		<path fill="none" stroke="#E5E5E5" stroke-width="7.1261" stroke-linecap="round" stroke-linejoin="round" stroke-miterlimit="10" d="
		M241.009,207.74c0,23.657-19.181,42.837-42.84,42.837c-23.658,0-42.839-19.18-42.839-42.837c0-23.661,19.181-42.84,42.839-42.84
		C221.828,164.9,241.009,184.079,241.009,207.74z"/>
	
		<path fill="none" stroke="#E5E5E5" stroke-width="7.1261" stroke-linecap="round" stroke-linejoin="round" stroke-miterlimit="10" d="
		M58.182,207.74c0,5.062-4.104,9.168-9.171,9.168c-5.064,0-9.168-4.106-9.168-9.168c0-5.069,4.104-9.171,9.168-9.171
		C54.078,198.569,58.182,202.671,58.182,207.74z"/>
	
		<path fill="none" stroke="#E5E5E5" stroke-width="7.1261" stroke-linecap="round" stroke-linejoin="round" stroke-miterlimit="10" d="
		M135.832,207.74c0,7.727-6.27,13.998-14.001,13.998c-7.73,0-14-6.271-14-13.998c0-7.736,6.27-14.002,14-14.002
		C129.563,193.738,135.832,200.004,135.832,207.74z"/>
	
		<path fill="none" stroke="#E5E5E5" stroke-width="7.1261" stroke-linecap="round" stroke-linejoin="round" stroke-miterlimit="10" d="
		M207.342,207.265c0,5.064-4.106,9.17-9.17,9.17c-5.065,0-9.174-4.105-9.174-9.17c0-5.067,4.108-9.169,9.174-9.169
		C203.235,198.096,207.342,202.197,207.342,207.265z"/>
	
		<line fill="none" stroke="#E5E5E5" stroke-width="7.1261" stroke-linecap="round" stroke-linejoin="round" stroke-miterlimit="10" x1="49.011" y1="198.569" x2="121.831" y2="193.738"/>
	
		<line fill="none" stroke="#E5E5E5" stroke-width="7.1261" stroke-linecap="round" stroke-linejoin="round" stroke-miterlimit="10" x1="49.011" y1="216.908" x2="121.831" y2="221.738"/>
	
		<line fill="none" stroke="#E5E5E5" stroke-width="7.1261" stroke-linecap="round" stroke-linejoin="round" stroke-miterlimit="10" x1="40.714" y1="203.854" x2="79.52" y2="141.944"/>
	
		<polyline fill="none" stroke="#E5E5E5" stroke-width="7.1261" stroke-linecap="round" stroke-linejoin="round" stroke-miterlimit="10" points="
		195.277,198.564 163.62,115.065 144.092,115.065 	"/>
	
		<line fill="none" stroke="#E5E5E5" stroke-width="7.1261" stroke-linecap="round" stroke-linejoin="round" stroke-miterlimit="10" x1="115.549" y1="195.228" x2="73.031" y2="132.349"/>
	
		<line fill="none" stroke="#E5E5E5" stroke-width="7.1261" stroke-linecap="round" stroke-linejoin="round" stroke-miterlimit="10" x1="129.576" y1="196.073" x2="173.985" y2="147.618"/>
	
		<path fill="none" stroke="#E5E5E5" stroke-width="7.1261" stroke-linecap="round" stroke-linejoin="round" stroke-miterlimit="10" d="
		M91.732,126.258c0,3.362-2.725,6.088-6.09,6.088H63.514c-3.362,0-6.09-2.726-6.09-6.088l0,0c0-3.364,2.728-6.09,6.09-6.09h22.129
		C89.008,120.168,91.732,122.895,91.732,126.258L91.732,126.258z"/>
	
		<line fill="none" stroke="#E5E5E5" stroke-width="7.1261" stroke-linecap="round" stroke-linejoin="round" stroke-miterlimit="10" x1="169.685" y1="131.059" x2="141.994" y2="161.537"/>
	
		<path fill="none" stroke="#E5E5E5" stroke-width="7.1261" stroke-linecap="round" stroke-linejoin="round" stroke-miterlimit="10" d="
		M79.52,141.944c0,0,30.704,52.158,62.475,19.592"/>
</g>
<g>
	
		<line fill="none" stroke="#FFFFFF" stroke-width="25.5026" stroke-linecap="round" stroke-linejoin="round" stroke-miterlimit="10" x1="137.377" y1="244.075" x2="137.377" y2="67.194"/>
	
		<line fill="none" stroke="#FFFFFF" stroke-width="25.5026" stroke-linecap="round" stroke-linejoin="round" stroke-miterlimit="10" x1="233.164" y1="67.194" x2="233.164" y2="244.075"/>
	
		<line fill="none" stroke="#FFFFFF" stroke-width="25.5026" stroke-linecap="round" stroke-linejoin="round" stroke-miterlimit="10" x1="210.168" y1="67.194" x2="210.168" y2="246.021"/>
	
		<line fill="none" stroke="#FFFFFF" stroke-width="25.5026" stroke-linecap="round" stroke-linejoin="round" stroke-miterlimit="10" x1="186.502" y1="67.194" x2="186.502" y2="246.021"/>
	
		<line fill="none" stroke="#FFFFFF" stroke-width="25.5026" stroke-linecap="round" stroke-linejoin="round" stroke-miterlimit="10" x1="162.088" y1="67.194" x2="162.088" y2="246.021"/>
	
		<line fill="none" stroke="#47B870" stroke-width="10.6891" stroke-linecap="round" stroke-linejoin="round" stroke-miterlimit="10" x1="137.377" y1="252.376" x2="137.377" y2="68.212"/>
	
		<line fill="none" stroke="#47B870" stroke-width="10.6891" stroke-linecap="round" stroke-linejoin="round" stroke-miterlimit="10" x1="233.164" y1="68.212" x2="233.164" y2="253.759"/>
	
		<line fill="none" stroke="#47B870" stroke-width="10.689" stroke-linecap="round" stroke-linejoin="round" stroke-miterlimit="10" x1="247.5" y1="254.625" x2="6.178" y2="254.625"/>
	
		<line fill="none" stroke="#47B870" stroke-width="10.5496" stroke-linecap="round" stroke-linejoin="round" stroke-miterlimit="10" x1="210.168" y1="68.212" x2="210.168" y2="254.41"/>
	
		<line fill="none" stroke="#47B870" stroke-width="10.5496" stroke-linecap="round" stroke-linejoin="round" stroke-miterlimit="10" x1="186.502" y1="68.212" x2="186.502" y2="254.41"/>
	
		<line fill="none" stroke="#47B870" stroke-width="10.5496" stroke-linecap="round" stroke-linejoin="round" stroke-miterlimit="10" x1="162.088" y1="68.212" x2="162.088" y2="254.41"/>
	
		<line fill="none" stroke="#47B870" stroke-width="10.6423" stroke-linecap="round" stroke-linejoin="round" stroke-miterlimit="10" x1="126.595" y1="95.459" x2="245.049" y2="95.459"/>
</g>
</svg>
