<?xml version="1.0" encoding="utf-8"?>
<!-- Generator: Adobe Illustrator 16.0.0, SVG Export Plug-In . SVG Version: 6.00 Build 0)  -->
<!DOCTYPE svg PUBLIC "-//W3C//DTD SVG 1.1//EN" "http://www.w3.org/Graphics/SVG/1.1/DTD/svg11.dtd">
<svg version="1.1" id="Layer_1" xmlns="http://www.w3.org/2000/svg" xmlns:xlink="http://www.w3.org/1999/xlink" x="0px" y="0px"
	 width="253px" height="260px" viewBox="0 0 253 260" enable-background="new 0 0 253 260" xml:space="preserve">
<g>
	
		<path fill="none" stroke="#E5E5E5" stroke-width="7.1261" stroke-linecap="round" stroke-linejoin="round" stroke-miterlimit="10" d="
		M95.464,204.227c0,23.656-19.181,42.836-42.843,42.836c-23.656,0-42.837-19.18-42.837-42.836c0-23.66,19.181-42.841,42.837-42.841
		C76.283,161.385,95.464,180.566,95.464,204.227z"/>
	
		<circle fill="none" stroke="#E5E5E5" stroke-width="7.1261" stroke-linecap="round" stroke-linejoin="round" stroke-miterlimit="10" cx="201.78" cy="204.227" r="42.838"/>
	
		<path fill="none" stroke="#E5E5E5" stroke-width="7.1261" stroke-linecap="round" stroke-linejoin="round" stroke-miterlimit="10" d="
		M61.792,204.227c0,5.061-4.104,9.167-9.171,9.167c-5.063,0-9.169-4.106-9.169-9.167c0-5.067,4.106-9.172,9.169-9.172
		C57.688,195.055,61.792,199.159,61.792,204.227z"/>
	
		<path fill="none" stroke="#E5E5E5" stroke-width="7.1261" stroke-linecap="round" stroke-linejoin="round" stroke-miterlimit="10" d="
		M139.441,204.227c0,7.725-6.267,13.997-13.998,13.997c-7.733,0-14.001-6.272-14.001-13.997c0-7.738,6.268-14.001,14.001-14.001
		C133.175,190.225,139.441,196.488,139.441,204.227z"/>
	
		<path fill="none" stroke="#E5E5E5" stroke-width="7.1261" stroke-linecap="round" stroke-linejoin="round" stroke-miterlimit="10" d="
		M210.952,203.752c0,5.062-4.106,9.166-9.17,9.166c-5.065,0-9.172-4.104-9.172-9.166c0-5.066,4.106-9.172,9.172-9.172
		C206.846,194.58,210.952,198.686,210.952,203.752z"/>
	
		<line fill="none" stroke="#E5E5E5" stroke-width="7.1261" stroke-linecap="round" stroke-linejoin="round" stroke-miterlimit="10" x1="52.621" y1="195.055" x2="125.443" y2="190.225"/>
	
		<line fill="none" stroke="#E5E5E5" stroke-width="7.1261" stroke-linecap="round" stroke-linejoin="round" stroke-miterlimit="10" x1="52.621" y1="213.394" x2="125.443" y2="218.224"/>
	
		<line fill="none" stroke="#E5E5E5" stroke-width="7.1261" stroke-linecap="round" stroke-linejoin="round" stroke-miterlimit="10" x1="44.323" y1="200.343" x2="83.131" y2="138.431"/>
	
		<polyline fill="none" stroke="#E5E5E5" stroke-width="7.1261" stroke-linecap="round" stroke-linejoin="round" stroke-miterlimit="10" points="
		198.89,195.05 167.231,111.552 147.702,111.552 	"/>
	
		<line fill="none" stroke="#E5E5E5" stroke-width="7.1261" stroke-linecap="round" stroke-linejoin="round" stroke-miterlimit="10" x1="119.159" y1="191.715" x2="76.644" y2="128.833"/>
	
		<line fill="none" stroke="#E5E5E5" stroke-width="7.1261" stroke-linecap="round" stroke-linejoin="round" stroke-miterlimit="10" x1="133.186" y1="192.558" x2="177.596" y2="144.103"/>
	
		<path fill="none" stroke="#E5E5E5" stroke-width="7.1261" stroke-linecap="round" stroke-linejoin="round" stroke-miterlimit="10" d="
		M95.343,122.743c0,3.362-2.724,6.09-6.091,6.09H67.126c-3.364,0-6.09-2.728-6.09-6.09l0,0c0-3.362,2.726-6.09,6.09-6.09h22.126
		C92.619,116.653,95.343,119.381,95.343,122.743L95.343,122.743z"/>
	
		<line fill="none" stroke="#E5E5E5" stroke-width="7.1261" stroke-linecap="round" stroke-linejoin="round" stroke-miterlimit="10" x1="173.295" y1="127.544" x2="145.604" y2="158.021"/>
	
		<path fill="none" stroke="#E5E5E5" stroke-width="7.1261" stroke-linecap="round" stroke-linejoin="round" stroke-miterlimit="10" d="
		M83.131,138.431c0,0,30.704,52.157,62.473,19.59"/>
</g>
<g>
	
		<line fill="none" stroke="#FFFFFF" stroke-width="28.3465" stroke-linecap="square" stroke-linejoin="round" stroke-miterlimit="10" x1="89.032" y1="241.638" x2="89.032" y2="75.165"/>
</g>
<line fill="none" stroke="#47B870" stroke-width="10.8536" stroke-linecap="round" stroke-linejoin="round" stroke-miterlimit="10" x1="247.501" y1="254.625" x2="5.75" y2="254.625"/>
<g>
	
		<line fill="none" stroke="#47B870" stroke-width="17.0079" stroke-linecap="round" stroke-linejoin="round" stroke-miterlimit="10" x1="89.032" y1="248.27" x2="89.032" y2="73.838"/>
</g>
</svg>
