<?xml version="1.0" encoding="utf-8"?>
<!-- Generator: Adobe Illustrator 16.0.0, SVG Export Plug-In . SVG Version: 6.00 Build 0)  -->
<!DOCTYPE svg PUBLIC "-//W3C//DTD SVG 1.1//EN" "http://www.w3.org/Graphics/SVG/1.1/DTD/svg11.dtd">
<svg version="1.1" id="Layer_1" xmlns="http://www.w3.org/2000/svg" xmlns:xlink="http://www.w3.org/1999/xlink" x="0px" y="0px"
	 width="380.333px" height="383.75px" viewBox="0 0 380.333 383.75" enable-background="new 0 0 380.333 383.75"
	 xml:space="preserve">
<g>
	
		<path fill="none" stroke="#E5E5E5" stroke-width="10.6319" stroke-linecap="round" stroke-linejoin="round" stroke-miterlimit="10" d="
		M143.478,300.834c0,35.296-28.615,63.91-63.916,63.91c-35.298,0-63.914-28.614-63.914-63.91c0-35.3,28.616-63.918,63.914-63.918
		C114.862,236.916,143.478,265.534,143.478,300.834z"/>
	
		<path fill="none" stroke="#E5E5E5" stroke-width="10.6319" stroke-linecap="round" stroke-linejoin="round" stroke-miterlimit="10" d="
		M366.016,300.834c0,35.296-28.614,63.91-63.915,63.91c-35.3,0-63.914-28.614-63.914-63.91c0-35.3,28.614-63.918,63.914-63.918
		C337.401,236.916,366.016,265.534,366.016,300.834z"/>
	
		<path fill="none" stroke="#E5E5E5" stroke-width="10.6319" stroke-linecap="round" stroke-linejoin="round" stroke-miterlimit="10" d="
		M93.244,300.834c0,7.553-6.126,13.677-13.683,13.677c-7.556,0-13.681-6.124-13.681-13.677c0-7.562,6.125-13.685,13.681-13.685
		C87.118,287.149,93.244,293.272,93.244,300.834z"/>
	
		<path fill="none" stroke="#E5E5E5" stroke-width="10.6319" stroke-linecap="round" stroke-linejoin="round" stroke-miterlimit="10" d="
		M209.094,300.834c0,11.529-9.352,20.885-20.886,20.885c-11.538,0-20.889-9.356-20.889-20.885c0-11.543,9.351-20.891,20.889-20.891
		C199.742,279.943,209.094,289.291,209.094,300.834z"/>
	
		<path fill="none" stroke="#E5E5E5" stroke-width="10.6319" stroke-linecap="round" stroke-linejoin="round" stroke-miterlimit="10" d="
		M315.785,300.125c0,7.555-6.126,13.679-13.683,13.679c-7.554,0-13.683-6.124-13.683-13.679c0-7.558,6.129-13.682,13.683-13.682
		C309.659,286.443,315.785,292.567,315.785,300.125z"/>
	
		<line fill="none" stroke="#E5E5E5" stroke-width="10.6319" stroke-linecap="round" stroke-linejoin="round" stroke-miterlimit="10" x1="79.562" y1="287.149" x2="188.208" y2="279.943"/>
	
		<line fill="none" stroke="#E5E5E5" stroke-width="10.6319" stroke-linecap="round" stroke-linejoin="round" stroke-miterlimit="10" x1="79.562" y1="314.511" x2="188.208" y2="321.719"/>
	
		<line fill="none" stroke="#E5E5E5" stroke-width="10.6319" stroke-linecap="round" stroke-linejoin="round" stroke-miterlimit="10" x1="67.18" y1="295.04" x2="125.079" y2="202.667"/>
	
		<polyline fill="none" stroke="#E5E5E5" stroke-width="10.6319" stroke-linecap="round" stroke-linejoin="round" stroke-miterlimit="10" points="
		297.788,287.146 250.557,162.565 221.419,162.565 	"/>
	
		<line fill="none" stroke="#E5E5E5" stroke-width="10.6319" stroke-linecap="round" stroke-linejoin="round" stroke-miterlimit="10" x1="178.833" y1="282.167" x2="115.4" y2="188.351"/>
	
		<line fill="none" stroke="#E5E5E5" stroke-width="10.6319" stroke-linecap="round" stroke-linejoin="round" stroke-miterlimit="10" x1="199.762" y1="283.426" x2="266.021" y2="211.13"/>
	
		<path fill="none" stroke="#E5E5E5" stroke-width="10.6319" stroke-linecap="round" stroke-linejoin="round" stroke-miterlimit="10" d="
		M143.3,179.266c0,5.016-4.067,9.083-9.087,9.083H101.2c-5.019,0-9.086-4.067-9.086-9.083l0,0c0-5.018,4.067-9.087,9.086-9.087
		h33.013C139.232,170.178,143.3,174.248,143.3,179.266L143.3,179.266z"/>
	
		<line fill="none" stroke="#E5E5E5" stroke-width="10.6319" stroke-linecap="round" stroke-linejoin="round" stroke-miterlimit="10" x1="259.602" y1="186.424" x2="218.289" y2="231.9"/>
	
		<path fill="none" stroke="#E5E5E5" stroke-width="10.6319" stroke-linecap="round" stroke-linejoin="round" stroke-miterlimit="10" d="
		M125.079,202.667c0,0,45.81,77.82,93.21,29.233"/>
</g>
<g>
	
		<line fill="none" stroke="#47B870" stroke-width="15.3993" stroke-linecap="round" stroke-linejoin="round" stroke-miterlimit="10" x1="157.002" y1="376" x2="7.751" y2="376"/>
</g>
<g>
	
		<line fill="none" stroke="#47B870" stroke-width="15.9479" stroke-linecap="round" stroke-linejoin="round" stroke-miterlimit="10" x1="372.209" y1="376" x2="217.003" y2="376"/>
</g>
<g>
	
		<path fill="none" stroke="#FFFFFF" stroke-width="37.2118" stroke-linecap="round" stroke-linejoin="round" stroke-miterlimit="10" d="
		M142.08,240.866c0,0-2.403-49.16,46.213-46.765c48.618,2.394,45.664,48.805,45.664,48.805s-0.82,18.082-15.453,31.385
		c-14.633,13.305-29.454,26.048-32.192,40.21c-2.736,14.159-1.122,29.581-1.122,29.581"/>
</g>
<g>
	<g>
		
			<line fill="none" stroke="#47B870" stroke-width="21.2639" stroke-linecap="round" stroke-linejoin="round" stroke-miterlimit="10" x1="187.322" y1="372.917" x2="186.104" y2="372.917"/>
	</g>
	
		<path fill="none" stroke="#47B870" stroke-width="21.2639" stroke-linecap="round" stroke-linejoin="round" stroke-miterlimit="10" d="
		M142.08,240.866c0,0-2.403-49.16,46.213-46.765c48.618,2.394,45.664,48.805,45.664,48.805s-0.82,18.082-15.453,31.385
		c-14.633,13.305-29.454,26.048-32.192,40.21c-2.736,14.159-1.122,29.581-1.122,29.581"/>
</g>
</svg>
