<svg xmlns="http://www.w3.org/2000/svg" xmlns:xlink="http://www.w3.org/1999/xlink" version="1.1" x="0px" y="0px" viewBox="0 0 100 125" enable-background="new 0 0 100 100" xml:space="preserve"><g><path fill="#000000" d="M139.124,37.079l0.026-0.338c0,0,0.604-0.013,1.384,0.243c-0.093,0.245-0.112,0.342-0.112,0.342   S139.69,37.146,139.124,37.079z"/></g><g><path d="M50,6.353c-24.067,0-43.646,19.581-43.646,43.648c0,24.067,19.579,43.645,43.646,43.645s43.646-19.578,43.646-43.645   C93.646,25.934,74.067,6.353,50,6.353z M50.007,92.346c-23.388,0-42.345-18.959-42.345-42.344   c0-23.388,18.957-42.345,42.345-42.345c23.387,0,42.346,18.958,42.346,42.345C92.353,73.387,73.394,92.346,50.007,92.346z"/><path d="M50.007,8.502c-22.883,0-41.5,18.616-41.5,41.5s18.617,41.497,41.5,41.497c22.884,0,41.5-18.613,41.5-41.497   S72.891,8.502,50.007,8.502z M34.442,13.055l13.209,31.854c-0.537,0.24-1.021,0.568-1.457,0.952L21.841,21.507   C25.44,17.945,29.709,15.057,34.442,13.055z M46.002,50.237c0.005,0.374,0.074,0.729,0.175,1.069l-0.335,0.141   c-0.119-0.387-0.199-0.788-0.204-1.21H46.002z M45.674,49.765c0.042-0.423,0.128-0.833,0.281-1.211l0.335,0.139   c-0.135,0.335-0.213,0.697-0.252,1.072H45.674z M46.321,51.76c0.152,0.348,0.361,0.658,0.599,0.947l-0.258,0.258   c-0.271-0.322-0.508-0.674-0.676-1.066L46.321,51.76z M46.505,48.269l-0.335-0.139c0.186-0.344,0.406-0.667,0.674-0.95l0.258,0.257   C46.865,47.685,46.671,47.968,46.505,48.269z M47.233,53.064c0.283,0.271,0.609,0.49,0.963,0.67l-0.139,0.34   c-0.396-0.201-0.764-0.447-1.081-0.754L47.233,53.064z M48.756,50.237l-0.797,0.33c-0.021-0.11-0.063-0.213-0.066-0.33H48.756z    M47.967,49.765c0.023-0.117,0.027-0.241,0.07-0.35l0.847,0.35H47.967z M48.068,51.034l0.896-0.371l-0.685,0.685   C48.208,51.243,48.12,51.151,48.068,51.034z M49.35,50.948l-0.422,1.019c-0.123-0.076-0.251-0.145-0.355-0.242L49.35,50.948z    M48.812,48.478c0.083-0.058,0.159-0.123,0.249-0.169l0.297,0.716L48.812,48.478z M48.942,49.279l-0.656-0.272   c0.054-0.076,0.094-0.16,0.155-0.229L48.942,49.279z M47.453,47.119l-0.256-0.256c0.303-0.256,0.632-0.478,0.997-0.646l0.139,0.337   C48.014,46.703,47.722,46.896,47.453,47.119z M21.507,21.842L45.843,46.18c-0.398,0.413-0.723,0.892-0.984,1.409L13.072,34.437   C15.069,29.708,17.951,25.443,21.507,21.842z M12.896,34.875l31.75,13.136c-0.222,0.546-0.344,1.139-0.389,1.754H9.939   C9.966,44.502,11.017,39.477,12.896,34.875z M9.94,50.237h34.281c0.005,0.615,0.128,1.197,0.312,1.753L12.909,65.102   C11.027,60.51,9.975,55.494,9.94,50.237z M13.083,65.541l31.593-13.102c0.242,0.566,0.586,1.068,0.986,1.527L21.513,78.113   C17.962,74.518,15.08,70.262,13.083,65.541z M21.848,78.447l24.127-24.125c0.447,0.434,0.97,0.787,1.539,1.061L34.471,86.908   C29.73,84.908,25.455,82.018,21.848,78.447z M49.751,90.035c-5.245-0.033-10.252-1.082-14.84-2.953L47.947,55.57   c0.566,0.217,1.172,0.342,1.804,0.371V90.035z M49.751,54.525c-0.441-0.025-0.865-0.113-1.263-0.26l0.139-0.34   c0.355,0.131,0.732,0.209,1.125,0.234V54.525z M49.751,52.25c-0.137-0.018-0.271-0.041-0.396-0.08l0.396-0.959V52.25z    M49.764,48.772l-0.252-0.607c0.083-0.021,0.166-0.042,0.252-0.05V48.772z M49.764,46.204c-0.342,0.021-0.672,0.086-0.988,0.188   l-0.139-0.335c0.359-0.119,0.734-0.195,1.126-0.216V46.204z M49.764,44.422c-0.584,0.025-1.141,0.139-1.669,0.325L34.882,12.882   C39.48,11,44.502,9.947,49.764,9.917V44.422z M90.062,49.765h-34.32c-0.047-0.616-0.168-1.213-0.394-1.761l31.741-13.163   C88.978,39.453,90.034,44.489,90.062,49.765z M86.916,34.402l-31.78,13.178c-0.262-0.514-0.583-0.99-0.979-1.4l24.338-24.337   C82.04,25.435,84.919,29.687,86.916,34.402z M52.105,50.237c-0.004,0.117-0.045,0.222-0.066,0.333l-0.806-0.333H52.105z    M51.102,49.765l0.857-0.357c0.044,0.112,0.047,0.238,0.072,0.357H51.102z M51.675,46.561l0.141-0.337   c0.36,0.166,0.688,0.386,0.987,0.64l-0.258,0.258C52.28,46.899,51.992,46.708,51.675,46.561z M51.709,49.003l-0.64,0.265   l0.488-0.488C51.619,48.846,51.656,48.929,51.709,49.003z M50.665,49.001l0.283-0.683c0.086,0.043,0.16,0.104,0.239,0.16   L50.665,49.001z M51,50.652l0.929,0.384c-0.054,0.12-0.145,0.218-0.218,0.326L51,50.652z M51.413,51.735   c-0.104,0.095-0.229,0.163-0.35,0.235l-0.415-1L51.413,51.735z M52.753,53.074l0.257,0.258c-0.315,0.303-0.679,0.547-1.074,0.746   l-0.139-0.34C52.146,53.562,52.472,53.342,52.753,53.074z M52.898,47.438l0.258-0.257c0.265,0.281,0.484,0.6,0.671,0.942   l-0.338,0.141C53.324,47.964,53.131,47.685,52.898,47.438z M54.041,48.547c0.155,0.38,0.242,0.793,0.283,1.218H53.96   c-0.039-0.376-0.119-0.741-0.256-1.08L54.041,48.547z M53.676,51.76l0.337,0.139c-0.17,0.398-0.411,0.752-0.688,1.078l-0.257-0.258   C53.312,52.428,53.524,52.111,53.676,51.76z M53.821,51.309c0.101-0.343,0.17-0.698,0.175-1.071h0.364   c-0.006,0.422-0.085,0.823-0.204,1.21L53.821,51.309z M78.161,21.509L53.805,45.863c-0.434-0.382-0.915-0.71-1.449-0.95   l13.186-31.864C70.28,15.05,74.556,17.941,78.161,21.509z M50.236,9.917c5.256,0.031,10.271,1.081,14.867,2.958L51.914,44.75   c-0.529-0.188-1.09-0.303-1.678-0.328V9.917z M50.236,45.839c0.396,0.021,0.774,0.097,1.136,0.218l-0.139,0.337   c-0.317-0.104-0.651-0.169-0.997-0.191V45.839z M50.236,48.114c0.09,0.011,0.177,0.031,0.263,0.052l-0.263,0.638V48.114z    M50.224,51.177l0.413,0.995c-0.134,0.041-0.271,0.066-0.413,0.082V51.177z M50.224,54.16c0.398-0.021,0.782-0.1,1.141-0.23   l0.141,0.336c-0.403,0.15-0.833,0.238-1.281,0.264V54.16z M50.224,90.035V55.941c0.64-0.021,1.253-0.15,1.822-0.367l13.062,31.5   C60.507,88.953,55.485,90.006,50.224,90.035z M65.547,86.902L52.479,55.387c0.566-0.271,1.087-0.621,1.532-1.053L78.14,78.463   C74.54,82.018,70.274,84.9,65.547,86.902z M78.475,78.127L54.328,53.98c0.403-0.461,0.751-0.969,0.995-1.541l31.605,13.078   C84.928,70.254,82.038,74.521,78.475,78.127z M87.102,65.076L55.465,51.988c0.185-0.554,0.307-1.136,0.312-1.751H90.06   C90.025,55.484,88.977,60.492,87.102,65.076z"/></g><text x="0" y="115" fill="#000000" font-size="5px" font-weight="bold" font-family="'Helvetica Neue', Helvetica, Arial-Unicode, Arial, Sans-serif">Created by Snpr Cartman</text><text x="0" y="120" fill="#000000" font-size="5px" font-weight="bold" font-family="'Helvetica Neue', Helvetica, Arial-Unicode, Arial, Sans-serif">from the Noun Project</text></svg>