<svg xmlns="http://www.w3.org/2000/svg" xmlns:xlink="http://www.w3.org/1999/xlink" version="1.1" baseProfile="tiny" x="0px" y="0px" viewBox="0 0 500 625" overflow="scroll" xml:space="preserve"><g><path d="M376.105,136.013c-1.208-0.794-2.422-1.582-3.641-2.368c-1.218-0.786-2.444-1.566-3.655-2.364   c-4.949-3.263-9.745-6.758-14.317-10.533c-5.175-4.272-9.759-9.015-14.492-13.747c-20-23-34-51-61.756-64.773   c-6.514-3.073-13.209-5.508-20.05-7.36c-20.521-5.465-42.347-5.678-65.556,2.117c-9.219,2.473-18.263,5.541-27.067,9.188   c-26.412,10.94-50.667,27.086-71.491,47.91C52.433,135.729,29.497,191.102,29.497,250s22.937,114.271,64.584,155.919   S191.102,470.503,250,470.503s114.271-22.937,155.919-64.584c20.824-20.824,36.97-45.079,47.91-71.49   c3.647-8.804,6.712-17.847,9.065-27.029c5.104-17.308,6.24-35.601,3.811-53.458c-2.406-17.69-8.188-34.837-16.315-50.703   c-3.588-7.006-7.366-14.035-12.376-20.14c-5.812-7.082-12.866-12.384-20.025-17.979c-0.998-0.78-2-1.557-3.002-2.333   c-1.003-0.775-2.006-1.55-3.009-2.325C402,153,391,146,380.689,139.025C379.165,138.021,377.635,137.018,376.105,136.013z    M442.183,243.208C404,243,366,241,329,237c4.5-2.667,8.944-5.5,13.366-8.412c4.421-2.912,9.048-5.889,13.634-8.588   c18.257-10.743,34.659-23.381,54.984-29.989c4.075-1.325,7.266,1.989,10.298,6.977s5.846,11.466,8.973,15.92   C435.471,222.464,439.502,232.581,442.183,243.208z M408.86,182.986C390,195,372,209,352.556,219.882   c-4.889,2.781-9.861,5.394-14.945,7.77c-5.083,2.376-10.278,4.515-15.611,6.348c-9,3-21-3-32-4c1.5-4.5,2.75-10,4.375-14.75   s3.625-8.75,6.613-10.238c26.678-13.344,56.506-17.197,83.052-29.482c1.659-0.768,3.305-1.569,4.937-2.406   C391,172,393,170,396.492,172.395c0.878,0.646,1.746,1.303,2.603,1.972C402.525,177.044,405.787,179.911,408.86,182.986z    M281.031,241.905C275,240,275,236,274,230c3,2,8,0,10.773,2.13L281.031,241.905z M283.124,247.408l9.765,6.827l-9.109,5.996   l-3.314-5.897L283.124,247.408z M273.234,226.335C265,210,283,209,295,205c-3,8-6,16-9.013,23.957L273.234,226.335z    M276.409,270.191C283,263,286,269,289,276c-4-1-9,2-12.684,0.787L276.409,270.191z M290.538,279.796C296,290,300,300,306,309   c-13-7-35-9-29.772-28.284L290.538,279.796z M285.737,263.714C298,249,312,269,324,275c-10,0-21,0-31.474,0.857L285.737,263.714z    M295.87,252.326C286,249,280,239,290,234c8-3,19,4,28.728,4.372L295.87,252.326z M390.708,168.53   c-1.522,0.84-3.056,1.656-4.608,2.457s-3.121,1.587-4.7,2.351c-25.277,12.23-52.733,18.551-79.4,25.663c8-24,19-47,29-70   c9.8,8.4,20.09,15.82,30.905,22.431c1.545,0.944,3.1,1.872,4.659,2.792C373,159,380,162,387.059,166.291   C388.284,167.03,389.502,167.775,390.708,168.53z M329.006,126.448C317,150,311,177,294.991,200.01   c-1.991,2.491-5.991,4.24-10.616,5.615S274.5,208,270,209c-1-5.5-2.75-11.5-3.875-17.125S264.5,181,265.999,177.002   C276,150,298,131,314.513,109.277C319.293,115.16,324.113,120.922,329.006,126.448z M252.79,215.091C248,218,244,216,240,213   c2-3,4-6,5.506-8.501L252.79,215.091z M247.432,201.548C252,195,257,187,262,180c-1,13,13,32-6.067,33.923L247.432,201.548z    M236.623,210.996C217,207,226,187,225,173c6,9,12,18,18.128,27.963L236.623,210.996z M234.705,213.979C233,219,227,221,224,218   c-3-1,1-6-0.198-10.038L234.705,213.979z M236.749,289.774l8.617,12.341l-18.52,26.581l-2.827-32.943L236.749,289.774z    M223.655,291.505l-1.105-12.835C229,277,232,282,234.421,286.444L223.655,291.505z M240.399,288.045C245,285,251,284,253,289   c1,3-4,6-5.204,9.615L240.399,288.045z M258.089,290.552l13.56,6.389l-2.487,32.289l-18.923-27.118L258.089,290.552z    M260.282,287.231C262,282,268,279,271,282c2,2,1,7,0.874,10.71L260.282,287.231z M249.527,274.009   c-12.951-0.03-23.688-10.777-23.963-24.016c-0.389-13.161,9.242-23.348,21.336-22.381c12.094,0.967,22.783,11.746,23.9,24.068   C271.916,264.001,262.341,274.139,249.527,274.009z M263.355,224.313l-5.092-7.088l9.148-3.26l2.157,11.615L263.355,224.313z    M311.919,105.875C295,126,279,148,264,170c-4.935-36.523-5-74-5-112c17,6,30,18,41.226,32.385   C304.203,95.401,308.091,100.594,311.919,105.875z M245.797,55.155C249,56,254,56,254,57c0.5,6.5,1.094,12.993,1.412,19.502   C257,109,259,142,259,174c0,4-2.25,8-5.125,12s-6.375,8-8.875,12c-6-11-17-20-18-31c-3-38,4-75,9.144-113.139   C239.369,54.156,242.59,54.577,245.797,55.155z M232.528,53.606C227,90,225,126,222,162c-17.835-30.673-43-61-56-92   c6-5,18-9,31.657-12.441C209.324,54.512,220.946,53.211,232.528,53.606z M159.935,72.016c0,0,4.277,5.719,10.205,14.63   C189,115,203,137,220,168c4.736,8.636,2,22,0,34c-10-7-24-8-31-19c-10-15-16-32-23.872-48.614   c-6.011-12.85-12.042-25.704-16.564-35.345s-7.538-16.067-7.538-16.067C147.109,78.991,153.417,75.328,159.935,72.016z    M210.115,255.601l-9.742-6.801l10.382-7.394l2.953,6.237L210.115,255.601z M217.38,265.535l0.779,8.746l-11.861-1.009   l5.445-11.671L217.38,265.535z M196.88,246.365l-26.575-18.519l32.702-2.855l6.009,12.74L196.88,246.365z M196.887,251.242   l11.532,8.04l-6.369,13.628l-32.28-2.748L196.887,251.242z M204.49,277.133l14.019,1.194l1.286,14.989l-29.329,13.76   L204.49,277.133z M219.02,230.471l-6.802,4.942l-5.095-10.778l12.245-0.946L219.02,230.471z M205.306,220.776   C200,211,196,201,192,191c11,10,33,10,27.562,28.708L205.306,220.776z M137.661,85.22c0,0,2.872,6.121,7.179,15.302   s10.05,21.423,15.789,33.665C168,150,175,166,183,182c-6,0-10-5-14.745-6.029c-9.169-4.301-21.429-10.043-33.689-15.785   c-24.52-11.484-49.04-22.967-49.04-22.967C99.545,116.84,117.243,99.184,137.661,85.22z M83.268,140.578   c0,0,25.748,12.059,51.497,24.118c12.874,6.03,25.749,12.059,35.397,16.58C189,185,194,205,201.192,221.131l-36.018,3.14   l-92.947-64.76C75.563,152.983,79.258,146.668,83.268,140.578z M70.426,163.131l88.519,61.675l-107.81,9.251   C53.14,208.811,59.864,184.875,70.426,163.131z M50.497,250c0-3.998,0.132-7.965,0.365-11.905l113.213-9.715l29.314,20.424   l-29.849,20.826l-112.792-9.603C50.583,256.706,50.497,253.363,50.497,250z M50.999,264.064l107.413,9.145l-88.797,61.956   C59.267,313.335,52.769,289.343,50.999,264.064z M71.389,338.805l93.253-65.065l35.6,3.031l-15.436,32.959L82.234,357.852   C78.282,351.726,74.664,345.365,71.389,338.805z M84.458,361.227l97.697-45.834l-46.043,98.311   C115.832,399.553,98.287,381.743,84.458,361.227z M139.456,415.993l48.358-103.255l32.345-15.175l3.112,36.263l-65.004,93.298   C151.781,423.751,145.503,420.033,139.456,415.993z M161.871,428.948l61.935-88.892l9.33,108.728   C207.74,446.647,183.686,439.735,161.871,428.948z M250,449.503c-4.309,0-8.582-0.153-12.824-0.424l-9.795-114.155l20.424-29.314   l20.827,29.85l-9.692,113.833C255.975,449.424,252.997,449.503,250,449.503z M262.973,449.07l9.236-108.481l62.727,89.903   C312.854,440.926,288.564,447.419,262.973,449.07z M338.581,428.723l-65.84-94.365l2.757-35.606C291,306,311,310,316.334,330.418   c4.576,9.737,10.665,22.717,16.754,35.696c12.179,25.96,24.358,51.919,24.358,51.919   C351.376,421.928,345.074,425.491,338.581,428.723z M360.821,415.81c0,0-11.607-24.741-23.214-49.481   c-5.803-12.37-11.607-24.741-15.965-34.02C319,327,317,322,315,317c16,8,33,15,49.183,23.168   c12.454,5.83,24.902,11.66,34.239,16.033c9.336,4.373,15.561,7.288,15.561,7.288C399.694,384.07,381.642,401.848,360.821,415.81z    M416.26,360.138c0,0-6.533-3.06-16.332-7.649c-9.799-4.589-22.864-10.708-35.974-16.828C346,328,327,322,312,310c-8-7-11-20-17-30   c11-1,24-4,33-1c31,13,57,34,84.476,52.234c8.864,6.166,14.765,10.278,14.765,10.278   C423.912,347.932,420.242,354.147,416.26,360.138z M429.06,337.904C399,317,367,297,335,278c37-2,74-6,111-9   c-1,12-1,24-4.322,34.541C438.823,315.302,434.494,326.87,429.06,337.904z M329.671,274.348C319,268,310,261,299,255   c9-5,17-15,26-14c39,2,78,1,118,8c2,0,3,14,1,14c-31,10-64,8-96.977,10.585C336.566,274.075,329.671,274.348,329.671,274.348z"/><path d="M385.57,126.163C350,106,333,67,301,41c-5-4-11-7-16.832-9.539c-5.79-2.58-11.693-4.746-17.695-6.501   c-24.009-7.022-49.61-7.72-76.679,1.4c-9.697,2.593-19.191,5.815-28.434,9.643c-27.729,11.486-53.194,28.437-75.057,50.3   C42.577,130.028,18.497,188.163,18.497,250s24.081,119.973,67.806,163.697c43.725,43.726,101.861,67.806,163.698,67.806   s119.973-24.08,163.697-67.806c21.863-21.862,38.814-47.327,50.3-75.057c3.829-9.243,7.05-18.738,9.622-28.427   c9.19-32.607,6.536-65.66-4.748-95.825c-3.761-10.055-8.482-19.789-14.046-29.074c-2.956-4.579-5.986-9.138-9.143-13.605   c-0.789-1.117-1.587-2.228-2.395-3.332C434,157,422,148,410.104,139.899c-1.34-0.748-2.686-1.49-4.025-2.235   c-2.678-1.491-5.327-2.998-7.889-4.581C394.02,130.802,389.803,128.51,385.57,126.163z M250,474.503   C126.209,474.503,25.497,373.791,25.497,250c0-86.654,49.349-161.999,121.419-199.407c10.296-5.344,21.055-9.914,32.201-13.632   c28.721-10.49,55.512-11.233,80.589-5.228c6.269,1.501,12.432,3.439,18.479,5.828C294,43,306,55,317,67c15,19,28,37,47,52   c15,11.25,29.801,20.981,44.043,31.797c1.424,1.082,2.842,2.174,4.248,3.284C418,159,424,163,428.944,168.16   c1.36,1.255,2.712,2.534,4.056,3.84c6.01,5.836,9.082,10.302,13,15c30.917,37.069,33,89,17.039,133.884   c-3.718,11.145-8.288,21.905-13.632,32.2C411.999,425.154,336.654,474.503,250,474.503z"/><path d="M248.109,244.612C242,244,242,252,246,255c3,2,9,1,8.087-4.373C253.878,247.442,251.202,244.748,248.109,244.612z"/></g><text x="0" y="515" fill="#000000" font-size="5px" font-weight="bold" font-family="'Helvetica Neue', Helvetica, Arial-Unicode, Arial, Sans-serif">Created by Laurent Canivet</text><text x="0" y="520" fill="#000000" font-size="5px" font-weight="bold" font-family="'Helvetica Neue', Helvetica, Arial-Unicode, Arial, Sans-serif">from the Noun Project</text></svg>