<svg xmlns="http://www.w3.org/2000/svg" xmlns:xlink="http://www.w3.org/1999/xlink" version="1.1" x="0px" y="0px" viewBox="0 0 512 640" enable-background="new 0 0 512 512" xml:space="preserve"><g><g><g><path d="M197.6,452.6c-76.9,0-139.5-62.6-139.5-139.5C58.1,240.3,117.6,2,197.6,2s139.5,238.3,139.5,311.2     C337.1,390.1,274.5,452.6,197.6,452.6z M197.6,18.4c-61.9,0-123.1,216.7-123.1,294.8c0,67.9,55.2,123.1,123.1,123.1     S320.7,381,320.7,313.2C320.7,235.1,259.5,18.4,197.6,18.4z"/></g></g><g><g><rect x="189.4" y="280.6" width="16.4" height="229.4"/></g></g><g><g><rect x="353.3" y="411.7" width="16.4" height="98.3"/></g></g><g><g><path d="M361.5,452.6c-31.5,0-60.6-15.9-77.7-42.5l-3.6-5.5l4.6-4.7c23.1-23.2,35.8-54.1,35.8-86.8c0-21.5-5.4-57.2-14.5-95.7     l-0.7-2.8l1.2-2.6c17-36.1,35.4-54.4,54.7-54.4c56.6,0,92.4,162,92.4,202.6C453.9,411.2,412.4,452.6,361.5,452.6z M301.2,406.5     c14.4,18.7,36.5,29.7,60.2,29.7c41.9,0,76-34.1,76-76c0-47.9-38.7-186.2-76-186.2c-11.5,0-25.6,15.4-38.7,42.4     c9,38.6,14.3,74.5,14.3,96.7C337.1,348,324.4,380.8,301.2,406.5z"/></g></g><g><g><rect x="209.9" y="288.5" transform="matrix(0.7071 0.7071 -0.7071 0.7071 288.3466 -61.227)" width="16.4" height="57.9"/></g></g><g><g><rect x="148.1" y="342" transform="matrix(0.7071 0.7071 -0.7071 0.7071 299.5223 -22.6591)" width="57.9" height="16.4"/></g></g></g><text x="0" y="527" fill="#000000" font-size="5px" font-weight="bold" font-family="'Helvetica Neue', Helvetica, Arial-Unicode, Arial, Sans-serif">Created by ProSymbols</text><text x="0" y="532" fill="#000000" font-size="5px" font-weight="bold" font-family="'Helvetica Neue', Helvetica, Arial-Unicode, Arial, Sans-serif">from the Noun Project</text></svg>