<svg xmlns="http://www.w3.org/2000/svg" xmlns:xlink="http://www.w3.org/1999/xlink" version="1.1" x="0px" y="0px" viewBox="0 0 48 60" enable-background="new 0 0 48 48" xml:space="preserve"><g><path d="M36.85,48H11.151c-3.329,0-6.037-2.708-6.037-6.037V24.879c0-3.329,2.708-6.037,6.037-6.037h25.697   c3.329,0,6.037,2.708,6.037,6.037v17.084c0.001,1.606-0.628,3.122-1.771,4.265C39.971,47.371,38.456,48,36.85,48z M11.151,20.842   c-2.226,0-4.037,1.811-4.037,4.037v17.084c0,2.226,1.811,4.037,4.037,4.037H36.85c2.226,0,4.037-1.812,4.037-4.037l-0.002-17.084   c0-2.226-1.812-4.037-4.037-4.037H11.151z"/><path d="M35.668,20.842c-0.553,0-1-0.448-1-1v-7.174C34.668,6.786,29.883,2,24,2c-5.882,0-10.668,4.786-10.668,10.668v7.174   c0,0.552-0.448,1-1,1s-1-0.448-1-1v-7.174C11.332,5.683,17.015,0,24,0s12.668,5.683,12.668,12.668v7.174   C36.668,20.394,36.221,20.842,35.668,20.842z"/><path d="M27.943,31.645c0-2.179-1.767-3.943-3.944-3.943c-2.178,0-3.941,1.766-3.941,3.943c0,1.656,1.024,3.069,2.473,3.652v6.241   h2.938v-6.241C26.918,34.714,27.943,33.301,27.943,31.645z"/></g><text x="0" y="63" fill="#000000" font-size="5px" font-weight="bold" font-family="'Helvetica Neue', Helvetica, Arial-Unicode, Arial, Sans-serif">Created by Creative Stall</text><text x="0" y="68" fill="#000000" font-size="5px" font-weight="bold" font-family="'Helvetica Neue', Helvetica, Arial-Unicode, Arial, Sans-serif">from the Noun Project</text></svg>